<svg xmlns="http://www.w3.org/2000/svg" viewBox="0 0 669 497">
  <g fill="none" fill-rule="evenodd">
    <path fill="#000" fill-rule="nonzero" d="M311.695 294.833h5.472l-8.314 28.304h-7.782l-8.31-28.304h5.47l6.74 23.547m27.43 4.703h-4.18l-.37-1.347c-1.8 1.187-3.9 1.82-6.05 1.82-3.72 0-5.31-2.59-5.31-6.147 0-4.21 1.8-5.81 5.94-5.81h4.89v-2.17c0-2.29-.62-3.1-3.89-3.1-1.9.02-3.79.23-5.64.63l-.62-3.95c2.28-.64 4.63-.96 6.99-.97 6.4 0 8.28 2.29 8.28 7.47v13.57zm-5.1-7.803h-3.77c-1.67 0-2.14.47-2.14 2.035 0 1.563.47 2.075 2.05 2.075a7.87 7.87 0 0 0 3.85-1.064l.02-3.046zm13.12-12.845v14.422c0 1.105.47 1.657 1.64 1.657 1.87-.213 3.68-.804 5.32-1.738v-14.34h5.1v20.66h-3.89l-.5-1.792a20.1 20.1 0 0 1-8.11 2.21c-3.38 0-4.59-2.412-4.59-6.105v-14.98h5.06zm14.76 20.648v-29.1l5.1-.713v29.827m15.22-.445c-1.44.513-2.95.786-4.47.81-3.72 0-5.6-1.78-5.6-5.473v-11.52h-3.05v-4.05h3.06v-5.13l5.09-.73v5.86h5.22l-.32 4.04h-4.9v10.78c-.06.51.11 1.02.47 1.38s.87.52 1.37.44a10 10 0 0 0 2.55-.42l.61 3.99zM283 174l51.32 103L386 174zm57.428 20.677h5.974v5.935h-5.974zm-11.896 23.95h-5.974v-6.04h5.974zm0-8.954h-5.974v-6.04h5.974zm0-8.955h-5.974v-6.04h5.974zm9.022 26.798h-6.04v-5.974h6.04zm0-8.955h-6.04v-5.97h6.04v5.98zm0-8.95h-6.04v-5.97h6.04v5.98zm0-8.99h-6.04v-5.93h6.04v5.94zm2.94 2.98h5.975v5.98h-6.05l.06-5.97zm0 14.93v-5.93h5.975v5.98l-5.98-.04z"/>
    <g fill="#000">
      <g fill-rule="nonzero">
        <path d="M616.97 98.466v4.257c0 5.17-12.29 10.743-30.47 10.743s-30.47-5.574-30.47-10.743v-4.257c-1.014-1.013-1.624-1.723-1.928-3.75H554v8.007c0 7.196 14.32 12.77 32.5 12.77s32.5-5.574 32.5-12.77v-8.007h-.102c-.304 2.027-.914 2.737-1.93 3.75z"/>
        <path d="M616.97 82.25v4.257c0 5.17-12.29 10.743-30.47 10.743s-30.47-5.574-30.47-10.743V82.25c-1.014-1.014-1.624-1.723-1.928-3.75H554v8.007c0 7.196 14.32 12.77 32.5 12.77s32.5-5.574 32.5-12.77V78.5h-.102c-.304 2.027-.914 2.736-1.93 3.75z"/>
        <path d="M616.97 66.034v4.257c0 5.17-12.29 10.75-30.47 10.75s-30.47-5.57-30.47-10.74v-4.26c-1.014-1.01-1.624-1.72-1.928-3.75H554v8.01c0 7.2 14.32 12.77 32.5 12.77S619 77.49 619 70.29v-8.006h-.102c-.304 2.027-.914 2.736-1.93 3.75z"/>
        <path d="M586.5 67.15c-18.18 0-32.5-5.677-32.5-12.772 0-7.094 14.32-12.77 32.5-12.77S619 47.08 619 54.278c0 7.195-14.32 12.87-32.5 12.87zm0-23.616c-18.18 0-30.47 5.574-30.47 10.743S568.32 65.02 586.5 65.02s30.47-5.574 30.47-10.743-12.29-10.743-30.47-10.743"/>
      </g>
      <path d="M566.66 130.68h-1.72V144h7.5v-1.54h-5.78zm8.28 0h4.66c3.26 0 4.28 1.7 4.28 3.82v5.68c0 2.12-1.02 3.82-4.28 3.82h-4.66zm1.72 1.54v10.24h2.88c2.02 0 2.62-.84 2.62-2.4v-5.44c0-1.56-.6-2.4-2.62-2.4zm15.9-1.54 4.5 13.32h-1.74l-1.1-3.2h-5.66l-1.08 3.2h-1.74l4.5-13.32zm1.22 8.62-2.38-7.38-2.38 7.38zm5.54 4.7v-13.32h4.82c2.86 0 3.86 1.24 3.86 3.28v1.98c0 2.06-1 3.3-3.86 3.3h-3.1V144zm6.96-10.02c0-1.32-.56-1.76-2.2-1.76h-3.04v5.48h3.04c1.64 0 2.2-.46 2.2-1.76z"/>
    </g>
    <g fill="#000">
      <g fill-rule="nonzero">
        <path d="m86 41.313-32 18.67v37.11l23.415 13.595v-1.798L55.56 96.157V60.844L86 43.188l30.44 17.656v35.312L86 113.813v1.875l32-18.594V59.906"/>
        <path d="M71.17 83.97c-2.34 0-4.292-1.954-4.292-4.298s1.95-4.297 4.293-4.297 4.3 1.953 4.3 4.297-1.95 4.297-4.29 4.297zm0-7.11c-1.482 0-2.73 1.25-2.73 2.734s1.248 2.734 2.73 2.734c1.484 0 2.732-1.25 2.732-2.734 0-1.485-1.248-2.735-2.73-2.735z"/>
        <path d="M78.195 91.703h-1.56v-3.828c0-1.406-1.094-2.5-2.498-2.5h-6.01a2.467 2.467 0 0 0-2.498 2.5v3.828h-1.57v-3.828a4.03 4.03 0 0 1 4.06-4.063h6.01c2.26 0 4.05 1.797 4.05 4.063v3.828zm22.635-7.733c-2.342 0-4.293-1.954-4.293-4.298s1.95-4.297 4.292-4.297c2.34 0 4.29 1.953 4.29 4.297s-1.95 4.297-4.3 4.297zm0-7.11c-1.484 0-2.732 1.25-2.732 2.734s1.248 2.734 2.73 2.734c1.484 0 2.733-1.25 2.733-2.734 0-1.485-1.24-2.735-2.73-2.735z"/>
        <path d="M107.854 91.703h-1.56v-3.828c0-1.406-1.094-2.5-2.5-2.5h-6.01a2.466 2.466 0 0 0-2.496 2.5v3.828h-1.56v-3.828a4.03 4.03 0 0 1 4.057-4.063h6.01a4.034 4.034 0 0 1 4.06 4.063v3.828zM86 69.906c-2.34 0-4.293-1.953-4.293-4.297 0-2.35 1.952-4.3 4.293-4.3 2.34 0 4.293 1.95 4.293 4.29S88.34 69.9 86 69.9zm0-7.11c-1.483 0-2.732 1.25-2.732 2.735 0 1.49 1.25 2.74 2.732 2.74s2.732-1.25 2.732-2.73-1.25-2.73-2.732-2.73z"/>
        <path d="M93.024 77.64h-1.56v-3.828c0-1.406-1.093-2.5-2.498-2.5h-6.01a2.466 2.466 0 0 0-2.497 2.5v3.83h-1.57v-3.83a4.03 4.03 0 0 1 4.05-4.062h6.01c2.26 0 4.06 1.797 4.06 4.063v3.828z"/>
      </g>
      <path d="M62.68 140.56c0-2.6-.18-3.12-3.72-4-2.64-.66-2.64-.74-2.64-2.58 0-1.54.4-1.98 2.58-1.98 1.1 0 2.36.14 3.42.38l.14-1.46c-1.06-.28-2.44-.44-3.6-.44-3.3 0-4.26 1.12-4.26 3.44 0 2.76.38 3.38 3.6 4.1 2.74.62 2.76.78 2.76 2.58 0 1.52-.44 2.08-2.58 2.08-1.22 0-2.5-.2-3.72-.58l-.28 1.4c1.14.46 2.68.7 3.96.7 3.66 0 4.34-1.32 4.34-3.64m4.08.04c0 1.54.42 2.16 2.32 2.16.96 0 2.02-.18 3.08-.46l.22 1.34c-.92.34-2.22.56-3.44.56-2.88 0-3.86-1.38-3.86-3.58v-2.92c0-2.02.92-3.64 3.82-3.64 2.88 0 3.66 1.66 3.66 3.68v2.04h-5.8zm0-3.02v.8h4.18v-.8c0-1.36-.46-2.12-2.04-2.12s-2.14.76-2.14 2.12m11.72 6.62c.86 0 1.84-.14 2.34-.3l-.16-1.4c-.76.16-1.46.22-2.14.22-1.68 0-2.24-.48-2.24-2v-3.18c0-1.52.56-2 2.24-2 .68 0 1.38.06 2.14.22l.14-1.4c-.5-.16-1.46-.3-2.32-.3-3.04 0-3.88 1.3-3.88 3.54v3.06c0 2.24.76 3.54 3.88 3.54m4.8-9.94v7.46c0 1.5.56 2.48 2.12 2.48 1.16 0 2.84-.52 3.92-1.04l.16.84h1.36v-9.74h-1.68v7.36c-1.04.54-2.54.98-3.26.98-.62 0-.94-.26-.94-.9v-7.44zm15-.2c-.96.4-1.96 1-2.68 1.56l-.1-1.36h-1.46V144h1.68v-6.72c.8-.56 1.86-1.24 2.78-1.68zm3.6 9.94v-9.74h-1.68V144zm0-11.3v-2.42h-1.68v2.42zm8.06 9.84c-.62.16-1.1.24-1.56.24-.9 0-1-.36-1-1.08v-6.04H110l.14-1.4h-2.76v-2.64l-1.68.24v2.4h-1.72v1.4h1.72v6.32c0 1.62.78 2.22 2.42 2.22.72 0 1.44-.14 2.04-.36zm3.58 5.4h1.58l1.38-3.94 3.22-9.74h-1.66l-2.7 8.4-2.66-8.4h-1.66l3.16 9.74h.7zM67.63 168h1.72v-11.78h3.98v-1.54h-9.68v1.54h3.98zm8.88-3.4c0 1.54.42 2.16 2.32 2.16.96 0 2.02-.18 3.08-.46l.22 1.34c-.92.34-2.22.56-3.44.56-2.88 0-3.86-1.38-3.86-3.58v-2.92c0-2.02.92-3.64 3.82-3.64 2.88 0 3.66 1.66 3.66 3.68v2.04h-5.8zm0-3.02v.8h4.18v-.8c0-1.36-.46-2.12-2.04-2.12s-2.14.76-2.14 2.12m15.34-.36V168h-1.42l-.1-.72c-.86.6-1.98.92-3.16.92-1.82 0-2.58-1.08-2.58-2.8 0-2.02 1.02-2.74 2.98-2.74h2.6v-1.52c0-1.22-.54-1.64-2.12-1.64-.94 0-2.16.16-2.92.32l-.18-1.34c.92-.24 2.16-.42 3.2-.42 2.78 0 3.7 1.08 3.7 3.16m-1.68 4.74v-1.9h-2.48c-1.04 0-1.42.32-1.42 1.3 0 1 .18 1.4 1.38 1.4.84 0 1.78-.32 2.52-.8m18.08 2.04v-7.46c0-1.5-.56-2.48-2.12-2.48-1.22 0-2.86.48-4.02 1.04-.28-.66-.86-1.04-1.86-1.04-1.16 0-2.84.52-3.92 1.04l-.16-.84h-1.36V168h1.68v-7.36c1.04-.54 2.54-.98 3.26-.98.62 0 .94.26.94.9V168h1.68v-7.36c1.04-.54 2.46-.98 3.26-.98.62 0 .94.26.94.9V168z"/>
    </g>
    <g fill="#000">
      <path d="M42.22 451h2.32l4.4-13.32h-1.66l-3.9 11.82-3.9-11.82h-1.66zm15.58-6.78V451h-1.42l-.1-.72c-.86.6-1.98.92-3.16.92-1.82 0-2.58-1.08-2.58-2.8 0-2.02 1.02-2.74 2.98-2.74h2.6v-1.52c0-1.22-.54-1.64-2.12-1.64-.94 0-2.16.16-2.92.32l-.18-1.34c.92-.24 2.16-.42 3.2-.42 2.78 0 3.7 1.08 3.7 3.16m-1.68 4.74v-1.9h-2.48c-1.04 0-1.42.32-1.42 1.3 0 1 .18 1.4 1.38 1.4.84 0 1.78-.32 2.52-.8m4.54-7.7v7.46c0 1.5.56 2.48 2.12 2.48 1.16 0 2.84-.52 3.92-1.04l.16.84h1.36v-9.74h-1.68v7.36c-1.04.54-2.54.98-3.26.98-.62 0-.94-.26-.94-.9v-7.44zM73.1 451v-13.96l-1.68.24V451zm8.06-1.46c-.62.16-1.1.24-1.56.24-.9 0-1-.36-1-1.08v-6.04h2.62l.14-1.4H78.6v-2.64l-1.68.24v2.4H75.2v1.4h1.72v6.32c0 1.62.78 2.22 2.42 2.22.72 0 1.44-.14 2.04-.36zm6.92 1.46v-13.32h4.82c2.86 0 3.86 1.24 3.86 3.28v1.98c0 2.06-1 3.3-3.86 3.3h-3.1V451zm6.96-10.02c0-1.32-.56-1.76-2.2-1.76H89.8v5.48h3.04c1.64 0 2.2-.46 2.2-1.76zm11.5 6.56c0 2.04-1.12 3.66-3.96 3.66s-3.96-1.62-3.96-3.66v-2.82c0-2.04 1.12-3.66 3.96-3.66s3.96 1.62 3.96 3.66zm-1.68-2.88c0-1.42-.76-2.14-2.28-2.14s-2.28.72-2.28 2.14v2.94c0 1.42.76 2.14 2.28 2.14s2.28-.72 2.28-2.14zm6.06 6.34v-13.96l-1.68.24V451zm4.88 0v-9.74h-1.68V451zm0-11.3v-2.42h-1.68v2.42zm6.48 11.5c.86 0 1.84-.14 2.34-.3l-.16-1.4c-.76.16-1.46.22-2.14.22-1.68 0-2.24-.48-2.24-2v-3.18c0-1.52.56-2 2.24-2 .68 0 1.38.06 2.14.22l.14-1.4c-.5-.16-1.46-.3-2.32-.3-3.04 0-3.88 1.3-3.88 3.54v3.06c0 2.24.76 3.54 3.88 3.54m5.96 3.74h1.58l1.38-3.94 3.22-9.74h-1.66l-2.7 8.4-2.66-8.4h-1.66l3.16 9.74h.7z"/>
      <g fill-rule="nonzero">
        <path d="M113 423H58v-70.11h12.132v1.632H59.618v66.848h51.764v-66.848h-10.514v-1.63H113"/>
        <path d="m68.272 379.467-2.265-3.913 1.375-.815 1.456 2.52 9.22-5.38.81 1.46M68.272 392.5l-2.265-3.912 1.375-.815 1.456 2.526 9.22-5.38.81 1.46m-10.596 19.16-2.265-3.92 1.375-.81 1.456 2.52 9.22-5.38.81 1.46m16.985-43.78h-1.618v-5.22c0-.41-.323-.66-.647-.66H77.412c-.405 0-.647.33-.647.66v5.13h-1.618v-5.14a2.27 2.27 0 0 1 2.265-2.28h16.176c1.294 0 2.265 1.06 2.265 2.28v5.21zm-13.588 20.38h24.265v1.63H82.265zm0 13.04h24.265v1.63H82.265zm0 13.04h24.265v1.63H82.265z"/>
      </g>
    </g>
    <path stroke="#575757" d="M86.5 187.5v141.014m248 14.986V377m251-213.5V397M335 376.5H130.5M586 396.514H130.5m12-318.014h393"/>
    <path fill="#FFF" d="M246 66h178v22H246z"/>
    <path fill="#000" d="M256.49 81h-.79v-5.088q0-.634.04-1.2-.105.102-.23.214-.127.112-1.162.952l-.43-.557 1.89-1.46h.683zm2.97-.518q0-.327.15-.495.147-.169.426-.17.284.001.442.17.16.168.16.495 0 .318-.162.49a.58.58 0 0 1-.44.17.58.58 0 0 1-.412-.154q-.164-.153-.164-.506m8.555-5.98q-1.177 0-1.858.783-.68.783-.68 2.146c0 .94.217 1.66.655 2.17s1.062.77 1.873.77c.498 0 1.066-.09 1.704-.26v.73c-.5.19-1.11.28-1.84.28-1.05 0-1.87-.32-2.44-.95s-.86-1.54-.86-2.72c0-.73.13-1.38.41-1.93.27-.55.67-.98 1.19-1.28q.78-.45 1.83-.45c.75 0 1.4.14 1.96.41l-.35.71c-.55-.25-1.09-.38-1.63-.38zm7.75 3.817q0 1.305-.66 2.04c-.44.49-1.047.73-1.822.73-.478 0-.903-.12-1.274-.34-.38-.23-.66-.55-.86-.97-.21-.42-.31-.91-.31-1.48 0-.88.22-1.56.65-2.04.43-.49 1.04-.73 1.81-.73.75 0 1.34.25 1.78.74s.66 1.17.66 2.02zm-4.078 0q0 1.02.41 1.56c.273.36.675.53 1.206.53q.795 0 1.208-.54c.28-.36.42-.88.42-1.57 0-.68-.14-1.2-.41-1.55-.27-.36-.68-.53-1.21-.53s-.93.17-1.2.52c-.27.34-.4.86-.4 1.55zm9.16 2.68v-3.47c0-.44-.1-.77-.298-.98-.2-.22-.51-.33-.94-.33q-.84 0-1.23.45t-.39 1.5V81h-.81v-5.352h.66l.13.733h.04c.16-.26.39-.46.69-.61.3-.14.63-.21 1-.21.64 0 1.13.16 1.45.47s.48.81.48 1.49V81h-.81zm6.137 0v-3.47c0-.44-.1-.77-.297-.98q-.3-.33-.933-.33-.84 0-1.23.45t-.39 1.5V81h-.812v-5.352h.66l.13.733h.04c.166-.26.4-.46.7-.61q.447-.21 1-.21c.644 0 1.13.16 1.455.47s.488.81.488 1.49V81h-.81zm4.737.09c-.79 0-1.41-.24-1.87-.73-.45-.48-.68-1.15-.68-2.01s.22-1.55.64-2.06c.43-.51 1-.76 1.71-.76.67 0 1.21.22 1.6.66s.59 1.02.59 1.74v.51h-3.68c.02.63.18 1.11.48 1.43.3.33.72.49 1.27.49q.87 0 1.71-.36v.72c-.29.13-.56.21-.81.27-.25.05-.56.08-.92.08zm-.22-4.87q-.645 0-1.02.42c-.25.28-.4.67-.45 1.16h2.8c0-.51-.11-.91-.34-1.18-.22-.27-.55-.41-.97-.41zm5.71 4.87q-1.155 0-1.8-.72c-.42-.48-.63-1.15-.63-2.03 0-.9.22-1.59.65-2.08s1.05-.73 1.85-.73c.26 0 .52.02.77.08.26.05.46.12.61.19l-.25.68a4 4 0 0 0-.58-.18c-.21-.05-.4-.07-.56-.07-1.08 0-1.63.69-1.63 2.08 0 .66.14 1.16.4 1.51.27.35.66.53 1.18.53.45 0 .91-.1 1.38-.29v.72c-.36.18-.81.28-1.35.28zm4.35-.67c.15 0 .28-.01.42-.03s.24-.05.32-.07v.62c-.09.04-.21.07-.39.1-.17.03-.32.04-.46.04-1.03 0-1.55-.55-1.55-1.64v-3.18h-.76v-.39l.77-.34.34-1.14h.47v1.24h1.56v.63h-1.56v3.15c0 .32.08.57.23.74s.36.26.63.26zm9.01.57-.89-2.27h-2.86l-.88 2.27h-.84l2.83-7.17h.7l2.8 7.18h-.86zm-1.14-3.02-.83-2.21c-.1-.28-.21-.63-.33-1.03-.07.31-.17.65-.31 1.03l-.84 2.21zm3.63-2.34v3.47c0 .43.1.76.3.97s.51.32.93.32c.56 0 .97-.16 1.23-.46q.39-.465.39-1.5v-2.8h.81V81h-.67l-.12-.718h-.04a1.55 1.55 0 0 1-.69.606c-.29.14-.63.21-1.01.21-.65 0-1.14-.155-1.46-.464q-.48-.464-.48-1.485v-3.51h.82zm7.11 4.78c.15 0 .28-.01.42-.03s.24-.05.32-.07v.62c-.09.04-.22.08-.39.1-.17.03-.32.04-.46.04-1.03 0-1.55-.55-1.55-1.64v-3.18h-.76v-.39l.77-.34.34-1.14h.47v1.24h1.55v.63h-1.56v3.15c0 .32.08.57.23.74s.36.26.63.26zm5.47.57v-3.46c0-.44-.1-.76-.3-.98s-.51-.32-.93-.32q-.84 0-1.23.45c-.26.31-.39.81-.39 1.51V81h-.81v-7.598h.81v2.3c0 .277-.01.506-.04.69h.05c.16-.26.39-.46.68-.61.3-.147.63-.22 1.01-.22q.99 0 1.47.465c.33.31.49.805.49 1.482V81h-.81zm4.74.09c-.79 0-1.41-.24-1.87-.73-.45-.48-.68-1.15-.68-2.01s.21-1.55.64-2.05c.42-.51.99-.77 1.71-.77q1.005 0 1.59.66c.39.44.59 1.02.59 1.74v.52h-3.68c.02.63.17 1.11.48 1.43.3.33.73.49 1.27.49q.87 0 1.71-.36v.72q-.435.18-.81.27c-.25.05-.56.08-.92.08zm-.22-4.87c-.43 0-.77.14-1.03.42-.25.28-.4.67-.45 1.16h2.8c0-.51-.11-.9-.34-1.18-.23-.27-.55-.41-.97-.41zm7.23 4.77v-3.46c0-.44-.1-.76-.29-.98-.2-.22-.51-.32-.93-.32q-.84 0-1.23.45t-.39 1.5V81h-.81v-5.352h.66l.13.733h.04c.17-.26.4-.46.7-.61.3-.14.64-.21 1-.21.65 0 1.13.16 1.46.47s.49.81.49 1.49V81h-.81zm4.21-.57c.15 0 .28-.02.42-.04s.24-.05.32-.07v.62c-.09.04-.22.07-.39.1s-.32.04-.46.04c-1.03 0-1.55-.55-1.55-1.64v-3.18h-.76v-.39l.76-.34.34-1.14h.47v1.24h1.55v.63h-1.55v3.15c0 .32.08.57.23.74s.36.26.63.26zm2.62.57h-.81v-5.35h.81V81zm-.88-6.81c0-.19.05-.32.14-.41s.21-.13.34-.13.25.04.34.13c.1.08.14.22.14.4s-.04.32-.14.41c-.09.09-.21.13-.34.13s-.25-.05-.34-.14-.13-.23-.13-.41zm4.74 6.9q-1.155 0-1.8-.72c-.42-.48-.63-1.15-.63-2.03 0-.89.21-1.59.65-2.07.43-.49 1.05-.74 1.85-.74.26 0 .52.03.77.08.26.05.46.12.61.19l-.25.68c-.18-.07-.37-.13-.58-.18s-.4-.07-.56-.07c-1.09 0-1.63.69-1.63 2.08 0 .66.13 1.16.4 1.51s.66.53 1.18.53c.45 0 .9-.1 1.37-.29v.72c-.36.18-.81.28-1.35.28zm5.91-.1-.16-.77h-.04c-.26.34-.53.56-.8.68q-.39.18-.99.18c-.53 0-.94-.14-1.25-.41q-.45-.405-.45-1.17c0-1.08.87-1.65 2.6-1.7l.91-.03v-.34q0-.63-.27-.93t-.87-.3c-.44 0-.95.14-1.51.41l-.25-.62c.27-.14.56-.26.87-.34.32-.08.63-.12.95-.12.64 0 1.11.14 1.42.42s.46.74.46 1.36V81h-.6zm-1.83-.57c.51 0 .9-.14 1.19-.42s.43-.67.43-1.17v-.49l-.81.04c-.64.02-1.11.12-1.39.3s-.43.45-.43.83c0 .29.09.51.27.67.18.15.43.23.74.23zm5.83 0c.14 0 .28-.02.42-.04s.24-.04.32-.06v.62c-.09.04-.22.08-.39.1-.17.03-.32.04-.46.04-1.03 0-1.55-.55-1.55-1.64v-3.18h-.77v-.39l.77-.34.34-1.14h.47v1.24h1.55v.63h-1.56v3.15c0 .32.08.57.23.74s.36.26.63.26zm2.61.57h-.81v-5.35h.81V81zm-.87-6.81c0-.19.04-.32.14-.41.09-.09.21-.13.34-.13s.25.04.34.13.14.22.14.4-.05.31-.14.4-.21.13-.34.13-.25-.04-.34-.13-.13-.23-.13-.41zm7.22 4.12q0 1.305-.66 2.04c-.44.49-1.04.73-1.82.73-.48 0-.9-.11-1.27-.33-.37-.23-.65-.55-.86-.97-.2-.42-.3-.92-.3-1.48q0-1.32.66-2.04c.43-.49 1.04-.73 1.81-.73.75 0 1.34.25 1.78.74.44.5.66 1.17.66 2.02zm-4.07 0c0 .68.13 1.21.41 1.56.27.35.67.53 1.2.53s.93-.18 1.21-.54c.27-.36.41-.88.41-1.57 0-.68-.14-1.2-.41-1.55s-.68-.53-1.22-.53c-.53 0-.93.17-1.2.52s-.4.86-.4 1.55zm9.16 2.68V77.5q0-.652-.3-.973-.3-.323-.93-.323-.84 0-1.23.45-.39.459-.39 1.5V81h-.81v-5.352h.66l.13.733h.04c.17-.26.4-.46.7-.61.3-.14.63-.21 1-.21.64 0 1.13.16 1.45.47.33.31.49.81.49 1.49V81H372zm5.19-7.14h2.01c.95 0 1.64.14 2.06.42.43.29.64.73.64 1.35 0 .42-.12.77-.35 1.04s-.58.45-1.03.53v.05c1.08.18 1.63.75 1.63 1.71 0 .64-.21 1.13-.64 1.49s-1.03.54-1.81.54h-2.49V73.8zm.83 3.06h1.37c.58 0 1-.09 1.26-.28q.39-.285.39-.93c0-.4-.14-.69-.43-.87-.28-.18-.74-.27-1.36-.27h-1.22v2.34zm0 .7v2.67h1.49c.57 0 1.01-.11 1.3-.34s.44-.58.44-1.05c0-.44-.15-.77-.45-.98s-.75-.32-1.36-.32h-1.42zm8.82 3.38-.16-.76h-.04c-.27.33-.53.56-.8.68s-.59.18-.99.18c-.53 0-.95-.14-1.25-.41q-.45-.42-.45-1.17c0-1.08.86-1.65 2.59-1.7l.91-.03v-.33q0-.63-.27-.93c-.19-.2-.47-.3-.87-.3-.45 0-.95.13-1.52.41l-.25-.62c.27-.15.56-.26.87-.34.32-.09.63-.13.95-.13.64 0 1.11.14 1.42.42s.46.74.46 1.36V81h-.6zm-1.83-.57c.51 0 .9-.14 1.19-.42.29-.27.43-.66.43-1.16v-.48l-.81.03c-.65.02-1.11.12-1.39.3s-.42.45-.42.83c0 .29.09.52.27.67s.43.23.75.23zm6.24.67q-1.155 0-1.8-.72c-.42-.48-.64-1.15-.64-2.03 0-.9.22-1.59.65-2.08s1.05-.73 1.85-.73c.26 0 .52.03.77.08.26.05.46.12.61.19l-.25.69c-.18-.08-.37-.13-.59-.18-.21-.05-.4-.07-.56-.07-1.08 0-1.63.69-1.63 2.08 0 .65.14 1.16.4 1.51.27.35.66.52 1.18.52.45 0 .91-.1 1.37-.29v.72c-.35.18-.81.28-1.35.28zm3.42-2.84c.14-.2.36-.46.64-.78l1.73-1.83h.96l-2.17 2.28 2.32 3.07h-.98l-1.89-2.53-.61.52v2h-.8V73.4h.8v4.03c0 .177-.01.453-.04.83h.04zm6.71 2.84c-.79 0-1.41-.24-1.87-.72q-.69-.72-.69-2.01c0-.86.22-1.55.64-2.06.43-.51 1-.77 1.71-.77q1.005 0 1.59.66c.4.44.59 1.02.59 1.74v.51h-3.68c.02.63.18 1.1.48 1.43.31.33.73.49 1.28.49q.87 0 1.71-.36v.72q-.435.18-.81.27c-.25.05-.56.08-.92.08zm-.22-4.87c-.43 0-.77.14-1.03.42-.25.28-.4.67-.45 1.16h2.8c0-.51-.11-.9-.34-1.18s-.55-.41-.98-.41zm7.23 4.77V77.5c0-.433-.09-.76-.29-.973q-.3-.323-.93-.323-.84-.001-1.23.455-.39.45-.39 1.5V81h-.81v-5.352h.66l.13.733h.04c.17-.26.4-.46.7-.61.3-.14.64-.21 1-.21.65 0 1.13.16 1.46.47s.49.81.49 1.49V81h-.81zm6.12-.72h-.04q-.57.81-1.68.81c-.7 0-1.25-.24-1.64-.71-.39-.48-.58-1.16-.58-2.04 0-.89.19-1.57.58-2.06s.94-.73 1.63-.73c.73 0 1.29.26 1.67.79h.07l-.04-.38-.02-.38V73.4h.81V81h-.66l-.1-.718zm-1.62.13c.55 0 .96-.15 1.21-.46.25-.3.37-.79.37-1.46v-.17c0-.76-.12-1.3-.38-1.63-.25-.33-.65-.49-1.21-.49-.47 0-.84.18-1.09.55s-.38.89-.38 1.56c0 .68.13 1.2.38 1.54.25.35.62.52 1.11.52z"/>
    <path fill="#FFF" d="M168 364h129v22H168z"/>
    <path fill="#000" d="M180.912 373.54q0 .685-.383 1.12c-.26.29-.62.483-1.09.58v.04c.57.07 1 .253 1.27.546s.41.677.41 1.153c0 .68-.24 1.2-.71 1.56s-1.15.55-2.02.55c-.38 0-.72-.03-1.04-.09a3.8 3.8 0 0 1-.92-.3v-.77c.3.15.63.27.98.35q.525.12.99.12c1.23 0 1.85-.49 1.85-1.45 0-.87-.68-1.3-2.04-1.3h-.71v-.7h.71c.56 0 1-.13 1.32-.37.33-.25.49-.59.49-1.02 0-.35-.12-.62-.36-.82s-.56-.3-.97-.3c-.32 0-.61.04-.89.12s-.59.24-.95.47l-.41-.55c.29-.23.63-.42 1.01-.55s.78-.2 1.21-.2c.69 0 1.23.16 1.61.47.38.32.57.75.57 1.3zm1.548 4.942q0-.327.15-.495.147-.169.426-.17.284.001.442.17.16.168.16.495 0 .318-.162.49a.58.58 0 0 1-.44.17.58.58 0 0 1-.412-.154q-.165-.153-.164-.506m10.89-6.62v4.618q0 1.221-.74 1.92-.736.698-2.025.698-1.29 0-1.995-.703-.705-.704-.705-1.934v-4.6h.83v4.66q0 .9.488 1.38t1.436.48c.6 0 1.06-.16 1.39-.48.32-.32.49-.78.49-1.38v-4.65h.83zm4.256 7.236q-.522 0-.954-.193a1.8 1.8 0 0 1-.725-.593h-.06q.06.468.06.888v2.202h-.81v-7.754h.658l.113.733h.04q.311-.435.726-.63c.277-.13.594-.19.952-.19.71 0 1.258.25 1.644.73q.578.735.578 2.04c0 .88-.196 1.57-.588 2.05-.393.49-.937.73-1.634.73zm-.117-4.86c-.55 0-.95.153-1.19.455-.25.303-.37.785-.38 1.446v.18c0 .75.12 1.29.37 1.61q.375.48 1.2.48.69 0 1.08-.57c.26-.38.39-.89.39-1.55 0-.67-.13-1.18-.4-1.54q-.39-.54-1.11-.54zm4.56 4.762h-.81v-7.598h.81zm6.33-2.68q0 1.308-.66 2.043c-.44.49-1.05.735-1.82.735-.48 0-.91-.113-1.28-.337-.37-.22-.66-.54-.86-.96q-.3-.63-.3-1.47c0-.87.22-1.55.65-2.04.43-.48 1.04-.73 1.81-.73.75 0 1.34.25 1.78.75s.66 1.17.66 2.02zm-4.08 0c0 .683.13 1.204.41 1.562q.405.537 1.2.537c.53 0 .93-.18 1.21-.54.27-.36.41-.88.41-1.57 0-.68-.14-1.2-.42-1.55-.28-.36-.68-.53-1.22-.53-.53 0-.93.17-1.2.52-.27.34-.41.86-.41 1.55zm8.79 2.68-.16-.762h-.04c-.27.336-.53.563-.8.68-.27.12-.6.18-1 .18-.53 0-.95-.137-1.25-.41q-.45-.411-.45-1.167c0-1.08.86-1.64 2.59-1.7l.91-.02v-.33q0-.63-.27-.93t-.87-.3c-.45 0-.95.14-1.52.41l-.25-.62c.26-.14.55-.25.86-.33s.63-.12.94-.12c.63 0 1.11.15 1.42.43.3.29.46.74.46 1.37V379h-.6zm-1.83-.57c.5 0 .9-.14 1.19-.416.29-.277.43-.664.43-1.162v-.484l-.81.034c-.65.023-1.11.123-1.4.3-.29.178-.43.454-.43.828 0 .293.09.516.26.67.17.152.42.23.74.23zm7.74-.148h-.05q-.57.816-1.68.816c-.7 0-1.25-.24-1.64-.718-.39-.48-.59-1.16-.59-2.04 0-.883.19-1.57.58-2.057.39-.488.94-.732 1.63-.732.73 0 1.29.27 1.67.8h.07l-.04-.38-.02-.37v-2.17h.81V379h-.66l-.11-.718zm-1.62.137c.55 0 .95-.16 1.2-.46s.37-.79.37-1.46v-.17c0-.76-.13-1.3-.38-1.63s-.66-.49-1.21-.49c-.48 0-.84.18-1.1.55-.25.37-.38.89-.38 1.56 0 .68.12 1.2.37 1.54.25.35.62.52 1.1.52zm11.35-4.48c0 .72-.25 1.28-.74 1.67-.5.38-1.2.58-2.12.58h-.84V379h-.83v-7.14h1.85q2.67.001 2.67 2.08zm-3.7 1.54h.75q1.095 0 1.59-.36c.33-.24.49-.62.49-1.15 0-.48-.16-.83-.47-1.06s-.79-.35-1.45-.35h-.93v2.9zm9.69.84q0 1.305-.66 2.04c-.44.49-1.05.73-1.82.73-.48 0-.91-.12-1.28-.34-.37-.23-.66-.55-.86-.97s-.31-.91-.31-1.48q0-1.32.66-2.04c.43-.49 1.04-.73 1.81-.73.75 0 1.34.25 1.78.74s.66 1.17.66 2.02zm-4.08 0c0 .68.14 1.2.41 1.56s.68.53 1.21.53.93-.18 1.2-.54.41-.88.41-1.57c0-.68-.14-1.2-.41-1.55-.28-.36-.68-.53-1.22-.53-.53 0-.93.17-1.2.52-.27.34-.41.86-.41 1.55zm6.31 2.68h-.81v-7.6h.81zm2.53 0h-.81v-5.36h.81zm-.88-6.81c0-.19.05-.32.14-.41s.2-.13.34-.13c.13 0 .24.04.33.13.09.08.14.22.14.4s-.05.32-.14.41c-.1.09-.21.13-.34.13a.46.46 0 0 1-.34-.14c-.09-.09-.14-.23-.14-.41zm4.74 6.9q-1.17 0-1.8-.72c-.43-.48-.64-1.15-.64-2.03 0-.9.21-1.59.64-2.08s1.04-.73 1.84-.73c.26 0 .51.02.77.08.25.05.46.12.6.19l-.25.68a5 5 0 0 0-.59-.18c-.21-.05-.4-.07-.56-.07-1.09 0-1.63.69-1.63 2.08 0 .66.13 1.16.39 1.51.27.35.66.53 1.18.53.45 0 .9-.1 1.37-.29v.72c-.36.18-.81.28-1.35.28zm1.77-5.45h.87l1.17 3.05c.26.69.42 1.2.48 1.51h.04c.04-.17.13-.45.26-.86.14-.4.58-1.64 1.33-3.71h.87l-2.3 6.09c-.23.6-.49 1.03-.8 1.28-.3.25-.68.37-1.12.37-.25 0-.49-.03-.73-.08v-.65q.27.06.6.06c.55 0 .95-.32 1.19-.94l.3-.76-2.16-5.39zm10.21 4.78c.14 0 .28-.01.41-.03s.24-.05.32-.07v.62c-.09.04-.22.07-.39.1s-.33.04-.46.04c-1.04 0-1.56-.55-1.56-1.64v-3.19h-.77v-.39l.76-.34.34-1.14h.47v1.24H256v.63h-1.55v3.15c0 .32.07.57.23.74.15.17.36.26.63.26zm6.42-2.11q0 1.305-.66 2.04c-.44.49-1.05.73-1.82.73-.48 0-.91-.12-1.28-.34-.37-.23-.66-.55-.86-.97s-.3-.92-.3-1.48c0-.87.22-1.55.65-2.04s1.04-.73 1.81-.73c.75 0 1.34.25 1.78.75.44.49.66 1.17.66 2.02zm-4.08 0c0 .68.13 1.2.41 1.56.27.36.67.53 1.2.53q.795 0 1.2-.54c.27-.36.41-.88.41-1.57 0-.68-.14-1.2-.42-1.55-.28-.36-.68-.53-1.22-.53-.53 0-.93.17-1.2.52-.27.34-.41.86-.41 1.55zm12.29-4.46h.89l-2.58 7.14h-.82l-2.56-7.14h.88l1.64 4.62c.19.53.34 1.04.45 1.54.12-.53.27-1.06.46-1.58l1.63-4.59zm5.04 7.14-.16-.77h-.04c-.27.33-.54.56-.8.68-.27.12-.6.18-1 .18-.53 0-.95-.14-1.25-.41-.31-.28-.46-.67-.46-1.17 0-1.08.86-1.65 2.59-1.7l.9-.03v-.33q0-.63-.27-.93t-.87-.3c-.45 0-.95.13-1.52.41l-.25-.62c.26-.15.55-.26.87-.34.31-.08.63-.12.94-.12.63 0 1.11.14 1.41.42.31.28.46.74.46 1.36V379h-.6zm-1.83-.57c.5 0 .9-.14 1.19-.42.28-.28.43-.67.43-1.16v-.49l-.81.03c-.65.02-1.11.12-1.4.3s-.43.45-.43.83c0 .29.08.51.26.67.18.15.42.23.74.23zm4.86-4.79v3.47c0 .43.1.76.3.97s.51.32.93.32c.56 0 .97-.16 1.23-.46q.39-.465.39-1.5v-2.81h.81V379h-.67l-.12-.718h-.05q-.255.396-.69.606c-.3.14-.63.21-1.01.21-.65 0-1.14-.155-1.46-.464q-.48-.464-.48-1.485v-3.51h.82zm6.19 5.35h-.81v-7.6h.81zm3.44-.57c.14 0 .28-.02.41-.04s.24-.05.31-.07v.62c-.09.04-.22.08-.39.1-.17.03-.33.04-.46.04-1.04 0-1.55-.55-1.55-1.64v-3.19h-.77v-.39l.76-.34.34-1.14h.47v1.24h1.55v.63h-1.55v3.15c0 .32.07.57.23.74.15.17.36.26.63.26z"/>
    <path fill="#FFF" d="M30 249h113v22H30z"/>
    <path fill="#000" d="M41.18 264h-4.69v-.698l1.88-1.89q.859-.87 1.133-1.24.275-.371.41-.723c.092-.24.138-.49.138-.76 0-.38-.11-.68-.34-.91s-.55-.34-.96-.34c-.29 0-.58.05-.84.14s-.56.27-.88.53l-.43-.55c.66-.55 1.38-.82 2.15-.82.67 0 1.2.17 1.58.51q.57.51.57 1.38c0 .45-.12.9-.38 1.34-.25.44-.73 1-1.42 1.68l-1.56 1.53v.03h3.67v.76zm1.28-.518q0-.327.15-.495.147-.169.426-.17.284.001.442.17.16.168.16.495 0 .318-.162.49a.58.58 0 0 1-.44.17.58.58 0 0 1-.412-.154q-.165-.153-.164-.506m9.985.518-.888-2.27h-2.862l-.88 2.27h-.838l2.822-7.168h.69L53.3 264h-.86zm-1.147-3.018-.83-2.21q-.162-.42-.332-1.032a9 9 0 0 1-.308 1.03l-.84 2.212zm3.628-2.334v3.472q0 .654.298.977t.932.322c.56 0 .97-.16 1.228-.46q.389-.465.388-1.5v-2.82h.81V264h-.668l-.117-.718h-.044a1.6 1.6 0 0 1-.69.606q-.444.21-1.01.21-.975 0-1.462-.464-.48-.464-.48-1.485v-3.51h.82zm7.104 4.78a2.8 2.8 0 0 0 .733-.097v.62c-.088.05-.218.08-.388.11s-.325.04-.462.04c-1.035 0-1.553-.54-1.553-1.63v-3.18h-.766v-.39l.766-.34.342-1.14h.47v1.24h1.552v.63H61.17v3.15c0 .32.077.57.23.74.153.18.363.26.63.26zm5.464.572v-3.462q0-.654-.298-.976-.298-.323-.932-.323-.844 0-1.233.45c-.25.3-.38.81-.38 1.5v2.8h-.81v-7.6h.81v2.3c0 .28-.01.5-.04.69h.05c.16-.26.39-.46.68-.61.3-.15.63-.22 1.01-.22.66 0 1.15.15 1.47.46.33.31.49.8.49 1.48v3.5h-.81zm7.095-2.68q0 1.308-.66 2.043t-1.83.735c-.48 0-.91-.113-1.28-.337-.37-.22-.66-.54-.86-.96q-.3-.63-.3-1.47c0-.87.22-1.55.65-2.04.43-.48 1.04-.73 1.81-.73.75 0 1.34.25 1.78.75s.66 1.17.66 2.02zm-4.08 0c0 .683.13 1.204.41 1.562q.405.537 1.2.537c.53 0 .93-.18 1.21-.54.27-.36.41-.88.41-1.57 0-.68-.14-1.2-.42-1.55-.28-.36-.68-.53-1.22-.53-.53 0-.93.17-1.2.52-.27.34-.41.86-.41 1.55zm7.94-2.77c.23 0 .45.02.64.06l-.12.75a3 3 0 0 0-.59-.072q-.66 0-1.11.527c-.31.352-.47.79-.47 1.314V264H76v-5.352h.67l.09.992h.04q.3-.524.72-.806.422-.284.923-.283zm8.43-1.69h.89L85.21 264h-.82l-2.56-7.14h.88l1.64 4.62q.282.796.45 1.548.175-.79.458-1.577l1.63-4.59zm5.05 7.14-.16-.762h-.04c-.27.336-.54.563-.8.68-.27.12-.6.18-1 .18-.53 0-.95-.137-1.25-.41q-.45-.411-.45-1.167c0-1.08.86-1.64 2.59-1.7l.91-.02v-.33q0-.63-.27-.93t-.87-.3c-.45 0-.95.14-1.52.41l-.25-.62c.26-.14.55-.25.86-.33s.63-.12.94-.12c.64 0 1.11.15 1.42.43.3.29.46.74.46 1.37V264h-.6zm-1.83-.57c.5 0 .9-.14 1.19-.416.29-.277.43-.664.43-1.162v-.484l-.81.034c-.65.023-1.11.123-1.4.3-.29.178-.43.454-.43.828 0 .293.09.516.26.67.17.152.42.23.74.23zm4.86-4.782v3.472q0 .654.3.977c.2.215.51.322.94.322.56 0 .97-.16 1.22-.46q.39-.465.39-1.5v-2.82h.81V264h-.67l-.12-.718h-.05q-.255.396-.69.606c-.3.14-.63.21-1.01.21-.65 0-1.14-.155-1.46-.464-.33-.31-.49-.804-.49-1.485v-3.51h.82zm6.19 5.352h-.81v-7.598h.81zm3.45-.57c.14 0 .28-.012.41-.033.13-.02.24-.043.31-.066v.62c-.08.05-.21.08-.38.11s-.33.04-.46.04c-1.04 0-1.55-.54-1.55-1.63v-3.18h-.77v-.39l.77-.34.34-1.14h.47v1.24h1.55v.63h-1.56v3.15c0 .32.07.57.23.74.15.18.36.26.63.26zm9.04-4.49c0 .724-.25 1.28-.74 1.67-.49.388-1.2.582-2.12.582h-.84V264h-.83v-7.14h1.85q2.67.001 2.67 2.08zm-3.7 1.54h.74c.73 0 1.27-.12 1.59-.357.33-.238.49-.618.49-1.143 0-.472-.16-.823-.46-1.054-.31-.23-.79-.347-1.45-.347h-.93v2.9zm9.68.84q0 1.308-.66 2.043c-.44.49-1.05.735-1.82.735-.48 0-.91-.113-1.28-.337-.37-.22-.66-.54-.86-.96s-.31-.91-.31-1.47q0-1.305.66-2.04c.44-.48 1.04-.73 1.82-.73.75 0 1.34.25 1.78.75s.66 1.17.66 2.02zm-4.08 0c0 .683.14 1.204.41 1.562.28.358.68.537 1.21.537s.94-.18 1.21-.54c.28-.36.42-.88.42-1.57 0-.68-.14-1.2-.42-1.55-.28-.36-.68-.53-1.22-.53-.53 0-.93.17-1.2.52-.27.34-.41.86-.41 1.55zm6.31 2.68h-.81v-7.598h.81zm2.53 0h-.81v-5.352h.81zm-.88-6.802c0-.185.05-.32.14-.407.09-.08.21-.13.34-.13s.25.05.34.14c.1.09.14.23.14.41 0 .19-.05.32-.14.41s-.21.14-.34.14c-.14 0-.25-.04-.35-.13-.09-.09-.14-.22-.14-.4zm4.74 6.9q-1.155-.001-1.8-.716-.63-.714-.63-2.024c0-.895.21-1.587.64-2.075s1.04-.732 1.84-.732c.26 0 .51.03.77.09s.46.12.61.2l-.25.69c-.18-.07-.37-.13-.59-.18-.21-.04-.4-.07-.56-.07-1.09 0-1.63.7-1.63 2.08 0 .66.13 1.16.4 1.52.26.35.65.53 1.18.53.44 0 .9-.09 1.37-.28v.72c-.36.19-.81.28-1.35.28zm1.77-5.45h.87l1.17 3.052q.39 1.045.48 1.51h.04q.06-.25.27-.853c.13-.402.58-1.638 1.33-3.71h.87l-2.3 6.095c-.23.602-.5 1.03-.8 1.282-.31.252-.68.378-1.12.378-.25 0-.49-.027-.73-.083v-.65q.27.06.6.06c.56 0 .95-.32 1.19-.94l.29-.76-2.16-5.39z"/>
    <path fill="#FFF" d="M367 384h186v22H367z"/>
    <path fill="#000" d="M380.518 397.36h-1.06V399h-.776v-1.64h-3.472v-.71l3.39-4.828h.858v4.8h1.06zm-1.836-.738v-2.373c0-.47.016-1 .048-1.58h-.04c-.155.31-.3.57-.438.77l-2.23 3.17h2.66zm2.778 1.86q0-.327.15-.495.147-.169.426-.17.284.001.442.17.16.168.16.495 0 .318-.162.49a.58.58 0 0 1-.44.17.58.58 0 0 1-.412-.154q-.165-.153-.164-.506m8.657.518-2.422-6.328h-.04q.07.751.07 1.787V399h-.767v-7.14h1.25l2.26 5.89h.04l2.28-5.89h1.24V399h-.83v-4.6q0-.79.07-1.718h-.04L390.786 399h-.67zm9.038 0-.16-.762h-.04q-.4.504-.798.68-.399.18-.994.18-.795 0-1.247-.41-.453-.411-.452-1.167c0-1.08.864-1.64 2.593-1.7l.908-.02v-.33q0-.63-.27-.93-.272-.3-.868-.3c-.446 0-.95.14-1.514.41l-.25-.62q.397-.21.868-.33c.32-.08.63-.12.95-.12.64 0 1.11.15 1.42.43.31.29.46.74.46 1.37V399h-.6zm-1.83-.57q.756-.001 1.188-.416t.432-1.162v-.484l-.81.034q-.968.034-1.394.3-.42.267-.42.828 0 .44.27.67.27.229.75.23zm6.59.668a2.3 2.3 0 0 1-.954-.193 1.9 1.9 0 0 1-.72-.593h-.06q.06.468.06.888v2.202h-.81v-7.754h.66l.11.733h.04c.21-.29.45-.5.73-.63s.6-.19.95-.19c.71 0 1.26.25 1.65.73.39.49.58 1.17.58 2.04 0 .88-.19 1.57-.59 2.05-.39.49-.93.73-1.63.73zm-.116-4.86c-.55 0-.95.153-1.19.455-.25.303-.37.785-.38 1.446v.18c0 .75.12 1.29.37 1.61q.375.48 1.2.48.69 0 1.08-.57c.26-.38.39-.89.39-1.55 0-.67-.13-1.18-.39-1.54s-.63-.54-1.11-.54zM414.76 399l-.888-2.27h-2.86l-.88 2.27h-.84l2.822-7.168h.698L415.62 399zm-1.147-3.018-.83-2.21q-.16-.42-.332-1.032-.105.47-.3 1.03l-.84 2.212h2.31zm3.628-2.334v3.472q0 .654.3.977c.2.215.51.322.94.322.56 0 .97-.16 1.23-.46q.39-.465.39-1.5v-2.82h.81V399h-.67l-.11-.718h-.04a1.55 1.55 0 0 1-.69.606c-.29.14-.63.21-1.01.21-.65 0-1.13-.155-1.46-.464q-.48-.464-.48-1.485v-3.51h.82zm7.11 4.78a3 3 0 0 0 .74-.097v.62c-.08.05-.21.08-.38.11s-.32.04-.46.04c-1.03 0-1.55-.54-1.55-1.63v-3.18h-.76v-.39l.77-.34.34-1.14h.47v1.24h1.56v.63h-1.55v3.15c0 .32.08.57.23.74.15.18.36.26.63.26zm5.47.572v-3.462c0-.436-.1-.762-.29-.976q-.3-.323-.93-.323-.84 0-1.23.45c-.26.3-.39.81-.39 1.5v2.8h-.81v-7.6h.81v2.3c0 .28-.01.5-.04.69h.05c.16-.26.39-.46.68-.61.3-.15.64-.22 1.01-.22.66 0 1.15.15 1.47.46.33.31.5.8.5 1.48v3.5h-.81zm4.74.098c-.79 0-1.41-.24-1.87-.723-.45-.482-.68-1.15-.68-2.007 0-.862.22-1.548.64-2.055q.645-.762 1.71-.762c.67 0 1.2.22 1.59.67.39.44.59 1.03.59 1.75v.52h-3.68c.02.63.17 1.11.48 1.43.3.33.73.49 1.27.49q.87 0 1.71-.36v.73q-.435.195-.81.27c-.25.06-.56.08-.92.08zm-.22-4.87c-.43 0-.77.14-1.03.42q-.375.422-.45 1.164h2.8c0-.512-.11-.903-.34-1.175s-.55-.408-.98-.408zm7.23 4.772v-3.462q0-.654-.3-.976-.3-.323-.93-.323-.84 0-1.23.45t-.39 1.5V399h-.81v-5.352h.66l.13.733h.04c.17-.26.4-.46.7-.61.3-.14.64-.21 1-.21.65 0 1.13.16 1.46.47s.49.81.49 1.49V399h-.81zm4.21-.57c.15 0 .28-.012.42-.033.14-.02.24-.043.32-.066v.62c-.09.05-.21.08-.39.11-.17.03-.32.04-.46.04-1.03 0-1.55-.54-1.55-1.63v-3.18h-.76v-.39l.77-.34.34-1.14h.47v1.24h1.56v.63h-1.55v3.15c0 .32.08.57.23.74.16.18.37.26.63.26zm2.61.57h-.81v-5.352h.81zm-.88-6.802c0-.185.05-.32.14-.407a.494.494 0 0 1 .68.01c.1.09.14.23.14.41 0 .19-.04.32-.14.41-.09.09-.2.14-.33.14-.14 0-.25-.04-.34-.13s-.13-.22-.13-.4zm4.74 6.9c-.77 0-1.37-.24-1.79-.716-.42-.477-.64-1.15-.64-2.024 0-.895.22-1.587.65-2.075s1.05-.732 1.85-.732q.39 0 .78.09c.39.09.46.12.6.2l-.25.69c-.18-.07-.37-.13-.58-.18-.21-.04-.4-.07-.56-.07-1.09 0-1.63.7-1.63 2.08 0 .66.14 1.16.4 1.52.27.35.66.53 1.18.53.45 0 .9-.09 1.37-.28v.72c-.36.19-.81.28-1.35.28zm5.92-.098-.16-.762h-.04c-.26.336-.53.563-.79.68q-.39.18-.99.18c-.53 0-.94-.137-1.24-.41q-.45-.411-.45-1.167c0-1.08.87-1.64 2.6-1.7l.91-.02v-.33q0-.63-.27-.93c-.18-.2-.47-.3-.86-.3-.45 0-.95.14-1.51.41l-.25-.62q.405-.21.87-.33c.32-.08.63-.12.95-.12.64 0 1.11.15 1.42.43.31.29.46.74.46 1.37V399h-.6zm-1.83-.57c.51 0 .9-.14 1.19-.416.29-.277.43-.664.43-1.162v-.484l-.81.034c-.64.023-1.11.123-1.39.3-.28.178-.43.454-.43.828q0 .44.27.67.27.229.75.23zm5.83 0c.15 0 .28-.012.42-.033.14-.02.24-.043.32-.066v.62c-.09.05-.22.08-.39.11s-.32.04-.46.04c-1.03 0-1.55-.54-1.55-1.63v-3.18h-.76v-.39l.77-.34.34-1.14h.47v1.24h1.56v.63h-1.56v3.15c0 .32.08.57.23.74.15.18.36.26.63.26zm2.62.57h-.81v-5.352h.81zm-.88-6.802c0-.185.05-.32.14-.407.09-.08.21-.13.34-.13.14 0 .25.05.34.14.1.09.14.23.14.41 0 .19-.04.32-.14.41-.09.09-.2.14-.33.14s-.25-.04-.34-.13-.14-.22-.14-.4zm7.22 4.12q0 1.31-.66 2.045c-.44.49-1.04.735-1.82.735-.48 0-.9-.113-1.27-.337-.37-.22-.66-.54-.86-.96q-.3-.63-.3-1.47 0-1.305.66-2.04c.44-.48 1.04-.73 1.82-.73.75 0 1.35.25 1.79.75s.66 1.17.66 2.02zm-4.07 0c0 .685.14 1.206.41 1.564s.68.537 1.21.537.94-.18 1.21-.54c.28-.36.42-.88.42-1.57 0-.68-.13-1.2-.41-1.55-.27-.36-.68-.53-1.22-.53-.53 0-.93.17-1.2.52-.27.34-.4.86-.4 1.55zM476.2 399v-3.462q0-.654-.3-.976-.299-.323-.934-.323-.84 0-1.23.45t-.39 1.5V399h-.81v-5.352h.658l.133.733h.04c.163-.26.395-.46.695-.61q.451-.21 1-.21c.647 0 1.13.16 1.458.47.325.31.487.81.487 1.49V399h-.81zm10.89-3.638q0 1.77-.96 2.703-.96.935-2.76.935h-1.977v-7.14h2.19q1.664.001 2.59.924.919.923.92 2.578zm-.88.03c0-.93-.23-1.633-.7-2.105q-.699-.708-2.08-.708h-1.21v5.7h1.01c.99 0 1.735-.25 2.233-.73q.749-.735.747-2.16zm5.64 3.608-.16-.762h-.04q-.397.504-.796.68-.399.18-.994.18c-.53 0-.95-.137-1.25-.41q-.45-.411-.45-1.167c0-1.08.862-1.64 2.59-1.7l.91-.02v-.33q0-.63-.27-.93t-.867-.3c-.445 0-.95.14-1.513.41l-.25-.62q.398-.21.87-.33.471-.12.944-.12c.64 0 1.11.15 1.42.43.31.29.465.74.465 1.37V399h-.6zm-1.83-.57c.506 0 .9-.14 1.19-.416.29-.277.43-.664.43-1.162v-.484l-.81.034c-.643.023-1.11.123-1.39.3q-.43.267-.43.828.001.44.265.67.267.229.745.23m5.83 0q.216 0 .416-.033.201-.03.317-.066v.62c-.09.05-.22.08-.39.11s-.325.04-.46.04c-1.037 0-1.555-.54-1.555-1.63v-3.18h-.764v-.39l.766-.34.344-1.14h.47v1.24h1.55v.63h-1.55v3.15c0 .32.077.57.23.74.154.18.364.26.63.26zm5.094.57-.16-.762h-.04c-.267.336-.53.563-.8.68q-.397.18-.99.18-.795 0-1.247-.41-.45-.411-.45-1.167c0-1.08.864-1.64 2.592-1.7l.9-.02v-.33q0-.63-.27-.93t-.87-.3c-.45 0-.95.14-1.52.41l-.25-.62c.26-.14.55-.25.86-.33s.63-.12.94-.12c.64 0 1.11.15 1.42.43.31.29.46.74.46 1.37V399h-.6zm-1.83-.57q.755-.001 1.19-.416t.433-1.162v-.484l-.81.034q-.967.034-1.395.3-.426.267-.426.828 0 .44.267.67.27.229.747.23zm8.43 0q.213 0 .414-.033.201-.03.32-.066v.62c-.09.05-.218.08-.39.11-.17.03-.324.04-.46.04-1.036 0-1.553-.54-1.553-1.63v-3.18h-.76v-.39l.765-.34.34-1.14h.47v1.24h1.554v.63h-1.554v3.15c0 .32.078.57.23.74.154.18.364.26.63.26zm6.42-2.11q0 1.308-.66 2.043t-1.82.735c-.48 0-.9-.113-1.275-.337a2.12 2.12 0 0 1-.86-.96c-.21-.42-.31-.91-.31-1.47 0-.87.22-1.55.65-2.04.43-.48 1.04-.73 1.81-.73.75 0 1.34.25 1.78.75s.66 1.17.66 2.02zm-4.078 0q0 1.025.41 1.562t1.205.537c.795 0 .94-.18 1.21-.54.28-.36.42-.88.42-1.57 0-.68-.13-1.2-.41-1.55-.27-.36-.68-.53-1.21-.53s-.93.17-1.2.52c-.27.34-.41.86-.41 1.55zm12.743-2.38c0 .724-.25 1.28-.74 1.67-.5.388-1.2.582-2.12.582h-.84V399h-.83v-7.14h1.85q2.67.001 2.67 2.08zm-3.7 1.54h.75c.74 0 1.27-.12 1.6-.357.33-.238.49-.618.49-1.143 0-.472-.15-.823-.46-1.054-.31-.23-.79-.347-1.45-.347h-.93zm9.69.84q0 1.308-.66 2.043c-.44.49-1.05.735-1.82.735-.48 0-.9-.113-1.27-.337-.37-.22-.66-.54-.86-.96s-.31-.91-.31-1.47c0-.87.22-1.55.65-2.04.43-.48 1.04-.73 1.81-.73.75 0 1.34.25 1.78.75s.66 1.17.66 2.02zm-4.08 0c0 .683.14 1.204.41 1.562q.405.537 1.2.537c.53 0 .93-.18 1.21-.54.27-.36.41-.88.41-1.57 0-.68-.14-1.2-.41-1.55-.28-.36-.68-.53-1.22-.53-.53 0-.93.17-1.2.52-.27.34-.41.86-.41 1.55zm6.31 2.68h-.81v-7.598h.81zm2.53 0h-.81v-5.352h.81zm-.88-6.802c0-.185.05-.32.14-.407a.494.494 0 0 1 .68.01c.09.09.14.23.14.41 0 .19-.05.32-.14.41-.1.09-.21.14-.34.14-.14 0-.25-.04-.34-.13s-.14-.22-.14-.4zm4.74 6.9q-1.17-.001-1.8-.716c-.43-.477-.64-1.15-.64-2.024 0-.895.21-1.587.65-2.075.43-.488 1.04-.732 1.84-.732.26 0 .52.03.77.09s.46.12.6.2l-.25.69c-.18-.07-.37-.13-.59-.18-.21-.04-.4-.07-.56-.07-1.09 0-1.63.7-1.63 2.08 0 .66.13 1.16.4 1.52.26.35.66.53 1.18.53.44 0 .9-.09 1.37-.28v.72c-.36.19-.81.28-1.35.28zm1.77-5.45h.87l1.17 3.052q.39 1.045.48 1.51h.04c.04-.167.13-.45.26-.853s.58-1.638 1.32-3.71h.87l-2.3 6.095c-.23.602-.5 1.03-.8 1.282-.31.252-.68.378-1.12.378-.25 0-.49-.027-.73-.083v-.65q.27.06.6.06c.55 0 .95-.32 1.19-.94l.29-.76-2.16-5.39z"/>
    <path fill="#575757" d="m537 78.5-7 3.5v-7M129 396.5l7-3.5v7m-49.5-70-3.5-7h7m244.5 19 3.5 7h-7m254.5-187 3.5 7h-7"/>
  </g>
</svg>
