<svg xmlns="http://www.w3.org/2000/svg" xmlns:xlink="http://www.w3.org/1999/xlink" fill="none" stroke-linecap="square" stroke-miterlimit="10" viewBox="0 0 960 540">
  <clipPath id="a">
    <path d="M0 0h960v540H0z"/>
  </clipPath>
  <g clip-path="url(#a)">
    <path fill="#fff" fill-rule="evenodd" d="M0 0h960v540H0z"/>
    <g filter="url(#b)">
      <use xlink:href="#c" transform="translate(0 7.333)"/>
    </g>
    <defs>
      <filter id="b" filterUnits="userSpaceOnUse">
        <feGaussianBlur in="SourceAlpha" result="blur" stdDeviation="5.333"/>
        <feComponentTransfer color-interpolation-filters="sRGB" in="blur">
          <feFuncR slope="0" type="linear"/>
          <feFuncG slope="0" type="linear"/>
          <feFuncB slope="0" type="linear"/>
          <feFuncA slope=".063" type="linear"/>
        </feComponentTransfer>
      </filter>
    </defs>
    <path id="c" fill="#e03875" fill-opacity=".056" fill-rule="evenodd" d="M156.9 62.666c0-6.612 5.36-11.973 11.973-11.973h622.259a11.973 11.973 0 0 1 11.973 11.973v465.345c0 6.613-5.36 11.973-11.973 11.973h-622.26c-6.612 0-11.972-5.36-11.972-11.973z"/>
    <path fill="#fff" fill-rule="evenodd" d="M540.752 386.438a2.38 2.38 0 0 1 2.381-2.38h80.949a2.38 2.38 0 0 1 2.381 2.38v80.955a2.38 2.38 0 0 1-2.381 2.381h-80.949a2.38 2.38 0 0 1-2.38-2.38z"/>
    <path stroke="#e03875" stroke-linecap="butt" stroke-miterlimit="400" d="M540.752 386.438a2.38 2.38 0 0 1 2.381-2.38h80.949a2.38 2.38 0 0 1 2.381 2.38v80.955a2.38 2.38 0 0 1-2.381 2.381h-80.949a2.38 2.38 0 0 1-2.38-2.38z"/>
    <path fill="#e03875" fill-rule="evenodd" d="M604.524 452.427a6.266 6.266 0 1 1 12.534 0 6.267 6.267 0 1 1-12.534 0"/>
    <path d="M533.493 471.982h100.651v39.573H533.493z"/>
    <path fill="#000" d="M550.173 476.736q1.453 0 2.485.828 1.03.813 1.203 2.25h-1.813q-.125-.671-.672-1.078-.547-.422-1.203-.422-1.11 0-1.719.813-.609.797-.609 2.125 0 1.266.594 2.062.61.797 1.734.797.813 0 1.313-.5.515-.5.625-1.406h1.828q-.156 1.625-1.188 2.563-1.015.937-2.578.937-1.234 0-2.203-.562t-1.5-1.594q-.516-1.031-.516-2.297 0-1.969 1.157-3.234 1.156-1.282 3.062-1.282m7.88 2.39q1.468 0 2.343.907.875.89.875 2.375t-.89 2.375q-.876.89-2.329.89-1.437 0-2.328-.89-.875-.906-.875-2.375t.86-2.375q.874-.906 2.343-.906m-1.5 3.282q0 .985.405 1.485.407.5 1.094.5.734 0 1.125-.516.39-.531.39-1.469 0-.922-.39-1.453-.375-.547-1.125-.547-.687 0-1.094.5-.406.5-.406 1.5m9.376-3.281q1.188 0 1.719.61.547.593.547 1.89v3.875h-1.703v-3.563q0-.718-.25-1.093t-.844-.375q-.703 0-1.016.422-.312.421-.312 1.296v3.313h-1.688V479.3h1.61v.86h.03q.313-.5.813-.766t1.094-.266m6.098 0q1.265 0 1.953.5.703.5.797 1.484h-1.625q-.047-.437-.344-.64-.281-.203-.828-.203-.485 0-.719.156-.219.14-.219.422 0 .28.297.468t1.188.36q1.422.265 1.906.703.5.437.5 1.14 0 1.047-.781 1.61-.766.547-2.047.547-1.297 0-2.078-.547-.782-.547-.844-1.64h1.625q0 .484.375.765t.937.281q.5 0 .797-.219.313-.218.313-.578 0-.328-.406-.53-.391-.204-1.47-.423-1.077-.219-1.546-.61-.469-.39-.469-1.062 0-.984.688-1.484.703-.5 2-.5m5.601.172v3.547q0 .703.25 1.093.25.391.86.391.703 0 1-.422.312-.437.312-1.297V479.3h1.703v6.203h-1.625v-.86h-.031q-.328.516-.844.782-.5.25-1.062.25-1.157 0-1.703-.594-.547-.594-.547-1.906V479.3zm7.176-2.36v8.563h-1.703v-8.563zm8.693-.203q1.454 0 2.485.828 1.031.813 1.203 2.25h-1.813q-.125-.671-.671-1.078-.547-.422-1.204-.422-1.109 0-1.718.813-.61.797-.61 2.125 0 1.266.594 2.062.61.797 1.734.797.813 0 1.313-.5.516-.5.625-1.406h1.828q-.156 1.625-1.187 2.563-1.016.937-2.579.937-1.234 0-2.203-.562t-1.5-1.594q-.515-1.031-.515-2.297 0-1.969 1.156-3.234 1.156-1.282 3.062-1.282m6.63.203v8.563h-1.704v-8.563zm3.093 0v1.391h-1.703v-1.39zm0 2.36v6.203h-1.703V479.3zm4.203-.172q1.375 0 2.203.953.828.938.828 2.422l-.015.312h-4.485q.047.797.422 1.188.391.39 1.094.39.469 0 .86-.234.39-.25.5-.578h1.5q-.344 1.047-1.063 1.578-.719.516-1.844.516-1.437 0-2.312-.906-.86-.907-.86-2.36 0-1.39.891-2.328.89-.953 2.281-.953m-1.469 2.61h2.782q-.125-.688-.453-1-.313-.329-.922-.329-.61 0-.985.36-.359.343-.422.968m9.047-2.61q1.188 0 1.72.61.546.593.546 1.89v3.875h-1.703v-3.563q0-.718-.25-1.093t-.844-.375q-.703 0-1.016.422-.312.421-.312 1.296v3.313h-1.688v-6.203h1.61v.86h.031q.313-.5.813-.766t1.093-.266m5.723-1.688v1.86h1.25v1.14h-1.25v3.11q0 .375.14.531t.579.156q.14 0 .265-.015l.266-.032v1.329q-.219.03-.484.046-.25.016-.5.016-1.11 0-1.547-.375-.422-.39-.422-1.062v-3.704h-1.031v-1.14h1.03v-1.86z"/>
    <path d="M533.493 376.393a2.76 2.76 0 0 1 2.762-2.762h95.127a2.76 2.76 0 0 1 2.762 2.762v93.91a2.76 2.76 0 0 1-2.762 2.763h-95.127a2.76 2.76 0 0 1-2.762-2.762z"/>
    <path fill="#fff" fill-rule="evenodd" d="M672.829 256.597a2.38 2.38 0 0 1 2.38-2.381h80.95a2.38 2.38 0 0 1 2.38 2.38v80.956a2.38 2.38 0 0 1-2.38 2.38h-80.95a2.38 2.38 0 0 1-2.38-2.38z"/>
    <path stroke="#e03875" stroke-linecap="butt" stroke-miterlimit="400" d="M672.829 256.597a2.38 2.38 0 0 1 2.38-2.381h80.95a2.38 2.38 0 0 1 2.38 2.38v80.956a2.38 2.38 0 0 1-2.38 2.38h-80.95a2.38 2.38 0 0 1-2.38-2.38z"/>
    <path fill="#e03875" fill-rule="evenodd" d="M736.6 322.585a6.266 6.266 0 1 1 12.534 0 6.267 6.267 0 1 1-12.534 0"/>
    <path d="M665.57 342.14h100.65v39.573H665.57z"/>
    <path fill="#000" d="M682.25 346.895q1.453 0 2.484.828 1.031.813 1.203 2.25h-1.812q-.125-.672-.672-1.078-.547-.422-1.203-.422-1.11 0-1.719.813-.61.797-.61 2.125 0 1.265.594 2.062.61.797 1.735.797.812 0 1.312-.5.516-.5.625-1.406h1.828q-.156 1.625-1.187 2.562-1.016.938-2.578.938-1.235 0-2.203-.563-.97-.562-1.5-1.593-.516-1.032-.516-2.297 0-1.969 1.156-3.235 1.157-1.28 3.063-1.28m7.879 2.39q1.468 0 2.343.907.875.89.875 2.375t-.89 2.375q-.875.89-2.328.89-1.438 0-2.328-.89-.875-.906-.875-2.375t.859-2.375q.875-.906 2.344-.906m-1.5 3.282q0 .984.406 1.484t1.094.5q.734 0 1.125-.515.39-.532.39-1.469 0-.922-.39-1.453-.375-.547-1.125-.547-.688 0-1.094.5t-.406 1.5m9.377-3.281q1.187 0 1.718.61.547.593.547 1.89v3.875h-1.703V352.1q0-.719-.25-1.094t-.844-.375q-.703 0-1.015.422-.313.422-.313 1.297v3.313h-1.687v-6.203h1.61v.859h.03q.313-.5.813-.766.5-.265 1.094-.265m6.097 0q1.266 0 1.953.5.704.5.797 1.484h-1.625q-.047-.437-.343-.64-.282-.204-.829-.204-.484 0-.718.157-.22.14-.22.421 0 .282.298.47.297.187 1.187.359 1.422.265 1.907.703.5.437.5 1.14 0 1.047-.782 1.61-.765.547-2.047.547-1.296 0-2.078-.547-.78-.547-.843-1.64h1.625q0 .483.375.765.375.281.937.281.5 0 .797-.219.312-.219.312-.578 0-.328-.406-.531-.39-.203-1.469-.422-1.078-.219-1.546-.61-.47-.39-.47-1.062 0-.984.688-1.484.703-.5 2-.5m5.602.172v3.546q0 .704.25 1.094t.86.39q.702 0 1-.421.312-.438.312-1.297v-3.312h1.703v6.203h-1.625v-.86h-.031q-.328.516-.844.782-.5.25-1.063.25-1.156 0-1.703-.594t-.547-1.906v-3.875zm7.176-2.36v8.563h-1.703V347.1zm8.693-.203q1.453 0 2.484.828 1.032.813 1.204 2.25h-1.813q-.125-.672-.672-1.078-.547-.422-1.203-.422-1.11 0-1.719.813-.61.797-.61 2.125 0 1.265.595 2.062.609.797 1.734.797.813 0 1.313-.5.515-.5.625-1.406h1.828q-.157 1.625-1.188 2.562-1.015.938-2.578.938-1.234 0-2.203-.563t-1.5-1.593q-.516-1.032-.516-2.297 0-1.969 1.157-3.235 1.156-1.28 3.062-1.28m6.629.203v8.563H730.5v-8.563zm3.094 0v1.39h-1.703v-1.39zm0 2.36v6.203h-1.703v-6.203zm4.203-.172q1.375 0 2.203.953.828.937.828 2.422l-.016.312h-4.484q.047.797.422 1.188.39.39 1.094.39.468 0 .859-.234.39-.25.5-.578h1.5q-.344 1.047-1.062 1.578-.72.516-1.844.516-1.438 0-2.313-.907-.86-.906-.86-2.359 0-1.39.892-2.328.89-.953 2.28-.953m-1.469 2.61h2.781q-.125-.688-.453-1-.312-.329-.922-.329t-.984.36q-.36.343-.422.968m9.047-2.61q1.187 0 1.719.61.547.593.547 1.89v3.875h-1.704V352.1q0-.719-.25-1.094t-.843-.375q-.703 0-1.016.422-.312.422-.312 1.297v3.313h-1.688v-6.203h1.61v.859h.03q.313-.5.813-.766.5-.265 1.094-.265m5.723-1.688v1.86h1.25v1.14h-1.25v3.11q0 .375.14.53.14.157.578.157.141 0 .266-.016l.266-.03v1.327q-.22.032-.485.047-.25.016-.5.016-1.11 0-1.547-.375-.422-.39-.422-1.063V350.6h-1.03v-1.14h1.03v-1.86z"/>
    <path d="M665.57 246.388a2.76 2.76 0 0 1 2.762-2.762h95.127a2.76 2.76 0 0 1 2.762 2.762V340.3a2.76 2.76 0 0 1-2.762 2.762h-95.127a2.76 2.76 0 0 1-2.762-2.762z"/>
    <path fill="#dc477d" fill-rule="evenodd" d="M201.29 250.736a2.38 2.38 0 0 1 2.38-2.38h80.95a2.38 2.38 0 0 1 2.382 2.38v80.95a2.38 2.38 0 0 1-2.381 2.381h-80.95a2.38 2.38 0 0 1-2.381-2.381z"/>
    <path fill="#fff" fill-rule="evenodd" d="M244.313 315.163c-13.203.01-23.915-10.718-23.926-23.963-.01-13.244 10.684-23.99 23.887-24a23.87 23.87 0 0 1 16.213 6.338l-5.674 5.954c-6.437-5.836-16.372-5.331-22.19 1.127-5.817 6.458-5.314 16.424 1.124 22.26a15.674 15.674 0 0 0 21.066 0l5.674 5.953a23.78 23.78 0 0 1-16.174 6.33m19.237-11.995c-1.082 0-1.96-.88-1.96-1.965 0-1.086.878-1.966 1.96-1.966 1.083 0 1.96.88 1.96 1.966a1.967 1.967 0 0 1-1.96 1.965"/>
    <path fill="#fff" fill-rule="evenodd" d="M244.16 296.377c-2.858 0-5.175-2.324-5.175-5.192 0-2.867 2.317-5.192 5.176-5.192s5.175 2.325 5.175 5.192c-.002 2.867-2.318 5.19-5.175 5.192m21.633.075c-1.083 0-1.96-.88-1.96-1.966s.877-1.965 1.96-1.965 1.959.88 1.959 1.965a1.967 1.967 0 0 1-1.96 1.966m-5.821-.223c-1.082 0-1.96-.88-1.96-1.966s.878-1.966 1.96-1.966 1.96.88 1.96 1.966a1.963 1.963 0 0 1-1.96 1.966m5.822-6.383c-1.083 0-1.96-.88-1.96-1.966s.877-1.966 1.96-1.966 1.959.88 1.959 1.966a1.967 1.967 0 0 1-1.96 1.966m-5.821.223c-1.082 0-1.96-.88-1.96-1.966s.878-1.965 1.96-1.965 1.96.88 1.96 1.965v.005a1.96 1.96 0 0 1-1.96 1.961m3.692-6.834a1.963 1.963 0 0 1-1.964-1.961 1.963 1.963 0 0 1 1.955-1.97 1.963 1.963 0 0 1 1.964 1.961v.005a1.963 1.963 0 0 1-1.955 1.965"/>
    <path d="M193.82 335.783h100.652v39.573H193.82z"/>
    <path fill="#000" d="M208.508 340.537q1.453 0 2.485.828 1.03.813 1.203 2.25h-1.813q-.125-.671-.672-1.078-.547-.422-1.203-.422-1.11 0-1.719.813-.609.797-.609 2.125 0 1.266.594 2.062.61.797 1.734.797.813 0 1.313-.5.515-.5.625-1.406h1.828q-.156 1.625-1.188 2.563-1.015.937-2.578.937-1.234 0-2.203-.562t-1.5-1.594q-.516-1.031-.516-2.297 0-1.969 1.157-3.234 1.156-1.282 3.062-1.282m7.88 2.39q1.468 0 2.343.907.875.89.875 2.375t-.89 2.375q-.876.89-2.329.89-1.437 0-2.328-.89-.875-.906-.875-2.375t.86-2.375q.874-.906 2.343-.906m-1.5 3.282q0 .985.405 1.485.407.5 1.094.5.734 0 1.125-.516.39-.531.39-1.469 0-.922-.39-1.453-.375-.547-1.125-.547-.687 0-1.094.5-.406.5-.406 1.5m9.376-3.281q1.188 0 1.719.61.547.593.547 1.89v3.875h-1.703v-3.563q0-.718-.25-1.093t-.844-.375q-.703 0-1.016.422-.312.421-.312 1.296v3.313h-1.688V343.1h1.61v.86h.03q.313-.5.813-.766t1.094-.266m6.098 0q1.265 0 1.953.5.703.5.797 1.484h-1.625q-.047-.437-.344-.64-.281-.203-.828-.203-.485 0-.719.156-.219.14-.219.422 0 .28.297.468t1.188.36q1.422.265 1.906.703.5.437.5 1.14 0 1.047-.781 1.61-.766.547-2.047.547-1.297 0-2.078-.547-.782-.547-.844-1.64h1.625q0 .484.375.765t.937.281q.5 0 .797-.219.313-.218.313-.578 0-.328-.406-.531-.391-.203-1.47-.422-1.077-.219-1.546-.61-.469-.39-.469-1.062 0-.984.688-1.484.703-.5 2-.5m5.601.172v3.547q0 .703.25 1.093.25.391.86.391.703 0 1-.422.312-.437.312-1.297V343.1h1.703v6.203h-1.625v-.86h-.031q-.328.516-.844.782-.5.25-1.062.25-1.156 0-1.703-.594t-.547-1.906V343.1zm7.176-2.36v8.563h-1.703v-8.563zm7.803-.203q1.547 0 2.484.719t.938 2.031h-1.813q-.047-.64-.453-.968-.39-.329-1.234-.329-.578 0-.953.266-.36.25-.36.719 0 .312.156.469.157.156.625.343.47.172 2.063.547 1.062.25 1.656.875.61.61.61 1.547 0 1.25-.938 2t-2.625.75q-1.61 0-2.64-.797-1.016-.797-1.016-2.203v-.047h1.828q0 .797.516 1.188.53.39 1.375.39.765 0 1.218-.265.453-.282.453-.797 0-.422-.359-.688-.344-.265-1.11-.453-.984-.219-1.78-.469-.797-.25-1.329-.812-.53-.563-.53-1.438 0-1.156.92-1.859.938-.719 2.298-.719m7.521 2.39q1.375 0 2.203.954.829.938.829 2.422l-.016.312h-4.484q.046.797.421 1.188.391.39 1.094.39.469 0 .86-.234.39-.25.5-.578h1.5q-.344 1.047-1.063 1.578-.719.516-1.844.516-1.437 0-2.312-.906-.86-.907-.86-2.36 0-1.39.891-2.328.89-.953 2.281-.953m-1.468 2.61h2.78q-.124-.687-.452-1-.313-.328-.922-.328-.61 0-.985.36-.359.343-.421.968m9.109-2.61q.11 0 .203.017.094.015.172.046v1.579q-.14-.032-.281-.032-.141-.015-.328-.015-.86 0-1.282.53-.406.517-.406 1.407v2.844h-1.687V343.1h1.609v1.156h.031q.266-.61.797-.969.547-.36 1.172-.36m2.394.173 1.313 4.234h.031l1.297-4.234h1.703l-2.11 6.203h-1.89l-2.125-6.203zm7.913-.172q1.375 0 2.203.953.828.938.828 2.422l-.016.312h-4.484q.047.797.422 1.188.39.39 1.093.39.47 0 .86-.234.39-.25.5-.578h1.5q-.344 1.047-1.063 1.578-.718.516-1.843.516-1.438 0-2.313-.906-.86-.907-.86-2.36 0-1.39.891-2.328.89-.953 2.282-.953m-1.47 2.61h2.782q-.125-.688-.453-1-.313-.329-.922-.329-.61 0-.984.36-.36.343-.422.968m9.11-2.61q.11 0 .203.016.094.015.172.046v1.579q-.14-.032-.281-.032-.14-.015-.328-.015-.86 0-1.281.53-.407.517-.407 1.407v2.844h-1.687V343.1h1.61v1.156h.03q.266-.61.797-.969.547-.36 1.172-.36m-59.598 11.61q-.641 1.188-.985 2.578-.328 1.391-.328 2.86t.313 2.844q.312 1.359.984 2.671h-1.422q-.766-1.28-1.172-2.671t-.406-2.735q0-1.39.406-2.906t1.172-2.64zm2.628.203v6.985h4.172v1.578h-6.062v-8.563zm7.694 2.188q1.375 0 2.203.953.828.938.828 2.422l-.016.312h-4.484q.047.797.422 1.188.39.39 1.094.39.468 0 .86-.234.39-.25.5-.578h1.5q-.345 1.047-1.063 1.578-.72.516-1.844.516-1.438 0-2.313-.906-.859-.907-.859-2.36 0-1.39.89-2.328.891-.953 2.282-.953m-1.469 2.61h2.781q-.125-.688-.453-1-.312-.329-.922-.329-.609 0-.984.36-.36.343-.422.968m8.344-2.61q1.375 0 2.047.453t.672 1.281v3.328q0 .375.046.75.047.375.172.563h-1.734q-.047-.14-.078-.281-.031-.157-.047-.313-.36.375-.89.578-.516.188-1.188.188-.969 0-1.547-.485-.563-.484-.563-1.375 0-.875.532-1.328.547-.468 1.968-.625.985-.093 1.297-.234.328-.156.328-.531 0-.407-.25-.61-.234-.218-.843-.218-.532 0-.813.234-.281.219-.328.703h-1.703q.062-1.016.828-1.547.781-.531 2.094-.531m-1.406 4.61q0 .374.25.593.25.203.796.203.672 0 1.016-.36.36-.359.36-1.046v-.656q-.157.125-.407.187-.25.047-.89.14-.594.079-.86.313-.265.219-.265.625m11.5-6.798v8.563h-1.625v-.797h-.032q-.265.484-.75.734-.484.235-1.125.235-1.265 0-2.03-.938-.75-.937-.75-2.39 0-1.391.733-2.297.75-.922 2.016-.922.578 0 1.047.234.484.235.781.688h.031v-3.11zm-4.61 5.454q0 .859.39 1.437.407.563 1.11.563t1.078-.516q.375-.531.375-1.5 0-.906-.375-1.438-.359-.53-1.093-.53-.704 0-1.094.53-.39.532-.39 1.454m8.752-3.266q1.375 0 2.203.953.828.938.828 2.422l-.015.312h-4.485q.047.797.422 1.188.39.39 1.094.39.469 0 .86-.234.39-.25.5-.578h1.5q-.344 1.047-1.063 1.578-.719.516-1.844.516-1.437 0-2.312-.906-.86-.907-.86-2.36 0-1.39.89-2.328.892-.953 2.282-.953m-1.469 2.61h2.782q-.125-.688-.453-1-.313-.329-.922-.329-.61 0-.985.36-.36.343-.422.968m9.11-2.61q.11 0 .203.016.094.015.172.046v1.579q-.14-.032-.281-.032-.141-.015-.329-.015-.859 0-1.28.53-.407.517-.407 1.407v2.844h-1.688v-6.2h1.61v1.156h.031q.266-.61.797-.969.547-.36 1.172-.36m1.748-2.39q.781 1.265 1.187 2.656.407 1.39.407 2.75 0 1.375-.422 2.906-.407 1.515-1.172 2.64h-1.422q.656-1.25.969-2.609.328-1.375.328-2.812 0-1.5-.328-2.875-.313-1.391-.969-2.657z"/>
    <path d="M193.82 246.242a2.76 2.76 0 0 1 2.763-2.762h95.126a2.76 2.76 0 0 1 2.763 2.762v93.91a2.76 2.76 0 0 1-2.763 2.763h-95.126a2.76 2.76 0 0 1-2.763-2.762zM173.617 29.674h149.449v21.008H173.617z"/>
    <path fill="#000" d="M178.336 34.632v6.984h4.172v1.578h-6.063v-8.562zm9.488 0 3.203 8.562h-1.953l-.64-1.906h-3.204l-.671 1.906h-1.907l3.25-8.562zm-.984 2.109-1.125 3.14h2.219l-1.079-3.14zm6.814-2.11 3.578 5.75h.016v-5.75h1.766v8.563h-1.875l-3.578-5.734h-.016v5.734h-1.766v-8.562zm14.198-.202q1.39 0 2.421.812 1.032.797 1.188 2.203h-1.797q-.187-.719-.672-1.078-.469-.36-1.14-.36-1.125 0-1.735.813-.594.813-.594 2.125 0 1.25.594 2.063.61.797 1.735.797.906 0 1.421-.454.532-.453.61-1.39h-1.89v-1.406h3.609v4.64h-1.204l-.203-.969q-.453.579-1.047.875-.578.297-1.296.297-1.235 0-2.204-.562-.968-.563-1.5-1.594-.515-1.031-.515-2.297 0-1.984 1.156-3.25 1.156-1.265 3.063-1.265m8.09 2.39q1.468 0 2.343.906.875.891.875 2.375 0 1.485-.89 2.375-.875.891-2.329.891-1.437 0-2.328-.89-.875-.907-.875-2.376t.86-2.375q.875-.906 2.343-.906m-1.5 3.281q0 .985.406 1.485t1.093.5q.735 0 1.125-.516.391-.531.391-1.469 0-.921-.39-1.453-.376-.547-1.126-.547-.687 0-1.093.5-.407.5-.407 1.5m8.36-3.28q1.266 0 1.954.5.703.5.797 1.484h-1.625q-.047-.438-.344-.641-.281-.203-.828-.203-.485 0-.719.156-.219.14-.219.422t.297.469 1.188.359q1.422.266 1.906.703.5.438.5 1.14 0 1.048-.781 1.61-.766.547-2.047.547-1.297 0-2.078-.547-.782-.547-.844-1.64h1.625q0 .484.375.765t.937.281q.5 0 .797-.218.313-.22.313-.578 0-.329-.406-.532-.391-.203-1.47-.422-1.077-.218-1.546-.609-.469-.39-.469-1.062 0-.985.688-1.485.703-.5 2-.5m6.446 0q1.266 0 1.953.5.703.5.797 1.484h-1.625q-.047-.438-.344-.641-.281-.203-.828-.203-.484 0-.719.156-.218.14-.218.422t.297.469q.296.187 1.187.359 1.422.266 1.906.703.5.438.5 1.14 0 1.048-.781 1.61-.766.547-2.047.547-1.297 0-2.078-.547t-.844-1.64h1.625q0 .484.375.765t.938.281q.5 0 .797-.218.312-.22.312-.578 0-.329-.406-.532-.39-.203-1.469-.422-1.078-.218-1.547-.609-.468-.39-.468-1.062 0-.985.687-1.485.703-.5 2-.5m5.664-2.188v1.39h-1.703v-1.39zm0 2.359v6.203h-1.703v-6.203zm4.828-.172q1.328 0 2.078.922t.75 2.422q0 1.375-.75 2.297-.734.906-1.984.906-.563 0-1.063-.234-.484-.25-.796-.703h-.032v2.953h-1.687v-8.39h1.61v.781h.03q.297-.484.766-.718.484-.235 1.078-.235m-1.844 3.297q0 .89.375 1.438.375.53 1.11.53.703 0 1.078-.515.39-.515.39-1.453 0-.89-.374-1.453-.375-.563-1.125-.563-.704 0-1.079.532-.375.53-.375 1.484m13.118-5.484q1.343 0 2.125.75.78.75.78 2 0 1.234-.78 1.984-.782.75-2.125.75h-2.032v3.078h-1.89v-8.562zm-.516 4.03q.813 0 1.203-.296.39-.312.39-.984 0-.657-.39-.97-.375-.327-1.203-.327h-1.516v2.578zm7.068-1.843q1.47 0 2.344.906.875.891.875 2.375 0 1.485-.89 2.375-.875.891-2.329.891-1.437 0-2.328-.89-.875-.907-.875-2.376t.86-2.375q.875-.906 2.343-.906m-1.5 3.281q0 .985.407 1.485t1.093.5q.735 0 1.125-.516.391-.531.391-1.469 0-.921-.39-1.453-.376-.547-1.126-.547-.687 0-1.093.5-.407.5-.407 1.5m8.83-3.28q1.47 0 2.344.905.875.891.875 2.375 0 1.485-.89 2.375-.875.891-2.329.891-1.437 0-2.328-.89-.875-.907-.875-2.376t.86-2.375q.875-.906 2.343-.906m-1.5 3.28q0 .985.407 1.485t1.093.5q.735 0 1.125-.516.391-.531.391-1.469 0-.921-.39-1.453-.376-.547-1.126-.547-.687 0-1.093.5-.407.5-.407 1.5m7.58-5.468v8.562h-1.703V34.63z"/>
    <path fill="#fff" fill-rule="evenodd" d="M540.74 86.786a2.38 2.38 0 0 1 2.38-2.381h80.95a2.38 2.38 0 0 1 2.38 2.38v85.494a2.38 2.38 0 0 1-2.38 2.38h-80.95a2.38 2.38 0 0 1-2.38-2.38z"/>
    <path stroke="#e03875" stroke-linecap="butt" stroke-miterlimit="400" d="M540.74 86.786a2.38 2.38 0 0 1 2.38-2.381h80.95a2.38 2.38 0 0 1 2.38 2.38v85.494a2.38 2.38 0 0 1-2.38 2.38h-80.95a2.38 2.38 0 0 1-2.38-2.38z"/>
    <path fill="#e03875" fill-rule="evenodd" d="M604.512 156.394c0-3.645 2.806-6.6 6.267-6.6 1.662 0 3.256.696 4.431 1.934s1.835 2.916 1.835 4.666c0 3.644-2.805 6.599-6.266 6.599s-6.267-2.955-6.267-6.6"/>
    <path d="M533.48 176.984h100.652v35.23H533.481z"/>
    <path fill="#000" d="M550.16 181.739q1.454 0 2.485.828 1.032.812 1.203 2.25h-1.812q-.125-.672-.672-1.078-.547-.422-1.203-.422-1.11 0-1.719.812-.61.797-.61 2.125 0 1.266.595 2.063.609.797 1.734.797.812 0 1.312-.5.516-.5.625-1.407h1.829q-.157 1.625-1.188 2.563-1.016.937-2.578.937-1.234 0-2.203-.562t-1.5-1.594q-.516-1.031-.516-2.297 0-1.969 1.156-3.234 1.157-1.281 3.063-1.281m7.88 2.39q1.469 0 2.344.906.875.891.875 2.375 0 1.485-.891 2.375-.875.891-2.328.891-1.438 0-2.328-.89-.875-.907-.875-2.376t.86-2.375q.874-.906 2.343-.906m-1.5 3.281q0 .985.406 1.485t1.094.5q.734 0 1.125-.516.39-.531.39-1.469 0-.921-.39-1.453-.375-.547-1.125-.547-.688 0-1.094.5t-.406 1.5m9.377-3.28q1.187 0 1.719.609.546.593.546 1.89v3.875h-1.703v-3.562q0-.72-.25-1.094t-.843-.375q-.704 0-1.016.422t-.313 1.297v3.312h-1.687v-6.203h1.61v.86h.03q.313-.5.813-.766t1.094-.266m6.097 0q1.266 0 1.954.5.703.5.796 1.484h-1.625q-.046-.438-.343-.641-.282-.203-.828-.203-.485 0-.72.156-.218.14-.218.422t.297.469 1.187.36q1.422.265 1.907.702.5.438.5 1.14 0 1.048-.782 1.61-.765.547-2.046.547-1.297 0-2.079-.547-.78-.547-.843-1.64h1.625q0 .484.375.765t.937.281q.5 0 .797-.218.313-.22.313-.578 0-.329-.407-.532-.39-.203-1.468-.422-1.079-.218-1.547-.609-.47-.39-.47-1.062 0-.985.688-1.485.704-.5 2-.5m5.602.171v3.547q0 .703.25 1.094.25.39.86.39.702 0 1-.422.312-.437.312-1.296V184.3h1.703v6.203h-1.625v-.86h-.031q-.328.516-.844.782-.5.25-1.063.25-1.156 0-1.703-.594-.547-.593-.547-1.906V184.3zm7.176-2.36v8.563h-1.703v-8.562zm8.693-.202q1.453 0 2.484.828 1.032.812 1.204 2.25h-1.813q-.125-.672-.672-1.078-.547-.422-1.203-.422-1.11 0-1.719.812-.609.797-.609 2.125 0 1.266.594 2.063.61.797 1.734.797.813 0 1.313-.5.515-.5.625-1.407h1.828q-.157 1.625-1.188 2.563-1.015.937-2.578.937-1.234 0-2.203-.562t-1.5-1.594q-.516-1.031-.516-2.297 0-1.969 1.157-3.234 1.156-1.281 3.062-1.281m6.629.203v8.562h-1.703v-8.562zm3.094 0v1.39h-1.703v-1.39zm0 2.36v6.202h-1.703v-6.203zm4.203-.173q1.375 0 2.203.953.828.938.828 2.422l-.015.313h-4.485q.047.797.422 1.187.39.39 1.094.39.469 0 .86-.234.39-.25.5-.578h1.5q-.345 1.047-1.063 1.578-.72.516-1.844.516-1.438 0-2.313-.906-.859-.906-.859-2.36 0-1.39.89-2.328.891-.953 2.282-.953m-1.469 2.61h2.781q-.125-.688-.453-1-.312-.329-.922-.329-.609 0-.984.36-.36.344-.422.969m9.047-2.61q1.188 0 1.719.61.547.593.547 1.89v3.875h-1.703v-3.562q0-.72-.25-1.094t-.844-.375q-.703 0-1.016.422-.312.422-.312 1.297v3.312h-1.688v-6.203h1.61v.86h.03q.313-.5.813-.766t1.094-.266m5.723-1.687v1.86h1.25v1.14h-1.25v3.11q0 .374.14.53t.578.157q.141 0 .266-.016l.266-.031v1.328q-.22.031-.485.047-.25.015-.5.015-1.11 0-1.547-.375-.421-.39-.421-1.062v-3.703h-1.032v-1.14h1.032v-1.86z"/>
    <path d="m583.819 373.63 81.763-80.283"/>
    <path stroke="#e03875" stroke-dasharray="6 8" stroke-linecap="round" stroke-linejoin="round" stroke-width="2" d="m590.24 367.325 68.92-67.672"/>
    <path fill="#e03875" fill-rule="evenodd" stroke="#e03875" stroke-linecap="butt" stroke-width="2" d="m588.691 365.747-2.786 5.835 5.885-2.679zm72.019-64.517 2.786-5.834-5.885 2.679z"/>
    <path d="m583.819 373.63-213.071.127"/>
    <path stroke="#e03875" stroke-dasharray="6 8" stroke-linecap="round" stroke-linejoin="round" stroke-width="2" d="m574.819 373.636-195.071.115"/>
    <path fill="#e03875" fill-rule="evenodd" stroke="#e03875" stroke-linecap="butt" stroke-width="2" d="m574.82 375.847 6.075-2.215-6.078-2.208zm-195.073-4.307-6.075 2.215 6.077 2.208z"/>
    <path d="m294.472 293.197 371.086.158"/>
    <path stroke="#e03875" stroke-dasharray="6 8" stroke-linecap="round" stroke-linejoin="round" stroke-width="2" d="m303.472 293.201 353.086.15"/>
    <path fill="#e03875" fill-rule="evenodd" stroke="#e03875" stroke-linecap="butt" stroke-width="2" d="m303.473 290.99-6.078 2.209 6.076 2.214zm353.084 4.573 6.077-2.21-6.075-2.214z"/>
    <path d="m372.489 212.266 211.307-.063"/>
    <path stroke="#e03875" stroke-dasharray="6 8" stroke-linecap="round" stroke-linejoin="round" stroke-width="2" d="m381.489 212.263 193.307-.058"/>
    <path fill="#e03875" fill-rule="evenodd" stroke="#e03875" stroke-linecap="butt" stroke-width="2" d="m381.488 210.052-6.075 2.213 6.076 2.21zm193.309 4.365 6.075-2.213-6.077-2.21z"/>
    <path d="M583.819 373.63V212.214"/>
    <path stroke="#e03875" stroke-dasharray="6 8" stroke-linecap="round" stroke-linejoin="round" stroke-width="2" d="M583.819 364.63V221.214"/>
    <path fill="#e03875" fill-rule="evenodd" stroke="#e03875" stroke-linecap="butt" stroke-width="2" d="m581.607 364.63 2.212 6.077 2.211-6.076zm4.423-143.417-2.211-6.076-2.212 6.076z"/>
    <path d="m583.806 212.213 81.764 81.134"/>
    <path stroke="#e03875" stroke-dasharray="6 8" stroke-linecap="round" stroke-linejoin="round" stroke-width="2" d="m590.195 218.553 68.987 68.455"/>
    <path fill="#e03875" fill-rule="evenodd" stroke="#e03875" stroke-linecap="butt" stroke-width="2" d="m591.753 216.983-5.871-2.71 2.755 5.85zm65.871 71.595 5.87 2.71-2.755-5.85z"/>
    <path d="m294.472 293.197 289.354 80.441"/>
    <path stroke="#e03875" stroke-dasharray="6 8" stroke-linecap="round" stroke-linejoin="round" stroke-width="2" d="m303.143 295.608 272.012 75.62"/>
    <path fill="#e03875" fill-rule="evenodd" stroke="#e03875" stroke-linecap="butt" stroke-width="2" d="m303.735 293.477-6.446.503 5.261 3.759zm270.827 79.881 6.447-.503-5.262-3.758z"/>
    <path d="M372.489 212.266 583.827 373.62"/>
    <path stroke="#e03875" stroke-dasharray="6 8" stroke-linecap="round" stroke-linejoin="round" stroke-width="2" d="M379.642 217.727 576.674 368.16"/>
    <path fill="#e03875" fill-rule="evenodd" stroke="#e03875" stroke-linecap="butt" stroke-width="2" d="m380.984 215.97-6.171-1.93 3.487 5.445zm194.348 153.946 6.171 1.93-3.487-5.445z"/>
    <path d="m372.489 212.266 293.07 81.07"/>
    <path stroke="#e03875" stroke-dasharray="6 8" stroke-linecap="round" stroke-linejoin="round" stroke-width="2" d="m381.163 214.665 275.722 76.272"/>
    <path fill="#e03875" fill-rule="evenodd" stroke="#e03875" stroke-linecap="butt" stroke-width="2" d="m381.753 212.534-6.446.511 5.266 3.752zm274.543 80.535 6.446-.512-5.267-3.751z"/>
    <path d="m370.753 373.764 294.803-80.41"/>
    <path stroke="#e03875" stroke-dasharray="6 8" stroke-linecap="round" stroke-linejoin="round" stroke-width="2" d="m379.436 371.396 277.437-75.673"/>
    <path fill="#e03875" fill-rule="evenodd" stroke="#e03875" stroke-linecap="butt" stroke-width="2" d="m378.854 369.262-5.28 3.732 6.444.535zm278.601-71.406 5.28-3.732-6.444-.535z"/>
    <path d="m370.753 373.764-76.283-80.567"/>
    <path stroke="#e03875" stroke-dasharray="6 8" stroke-linecap="round" stroke-linejoin="round" stroke-width="2" d="m364.565 367.229-63.908-67.497"/>
    <path fill="#e03875" fill-rule="evenodd" stroke="#e03875" stroke-linecap="butt" stroke-width="2" d="m362.96 368.749 5.783 2.892-2.572-5.933zm-60.697-70.537-5.783-2.892 2.572 5.933z"/>
    <path d="m372.489 212.266-78.016 80.945"/>
    <path stroke="#e03875" stroke-dasharray="6 8" stroke-linecap="round" stroke-linejoin="round" stroke-width="2" d="M366.243 218.746 300.72 286.73"/>
    <path fill="#e03875" fill-rule="evenodd" stroke="#e03875" stroke-linecap="butt" stroke-width="2" d="m367.836 220.28 2.624-5.909-5.81 2.84zm-68.71 64.916-2.624 5.91 5.809-2.84z"/>
    <path d="M320.427 376.526a2.76 2.76 0 0 1 2.763-2.762h95.126a2.76 2.76 0 0 1 2.763 2.762v93.91a2.76 2.76 0 0 1-2.763 2.763H323.19a2.76 2.76 0 0 1-2.763-2.762z"/>
    <path fill="#dc477d" fill-rule="evenodd" d="M327.898 386.735a2.38 2.38 0 0 1 2.381-2.381h80.95a2.38 2.38 0 0 1 2.381 2.38v80.95a2.38 2.38 0 0 1-2.381 2.381h-80.95a2.38 2.38 0 0 1-2.38-2.38z"/>
    <path fill="#fff" fill-rule="evenodd" d="M370.922 451.16c-13.203.012-23.915-10.717-23.926-23.961-.01-13.245 10.684-23.99 23.887-24.001a23.87 23.87 0 0 1 16.212 6.339l-5.673 5.953c-6.438-5.835-16.373-5.33-22.19 1.127-5.818 6.458-5.315 16.424 1.123 22.26a15.674 15.674 0 0 0 21.067 0l5.673 5.953a23.78 23.78 0 0 1-16.173 6.33m19.237-11.994c-1.082 0-1.96-.88-1.96-1.966s.878-1.966 1.96-1.966 1.96.88 1.96 1.966a1.967 1.967 0 0 1-1.96 1.966"/>
    <path fill="#fff" fill-rule="evenodd" d="M370.77 432.376c-2.86 0-5.177-2.325-5.177-5.192s2.318-5.193 5.176-5.193 5.176 2.325 5.176 5.193c-.002 2.866-2.318 5.19-5.176 5.192m21.633.074c-1.082 0-1.96-.88-1.96-1.966s.878-1.965 1.96-1.965 1.96.88 1.96 1.965a1.967 1.967 0 0 1-1.96 1.966m-5.822-.223c-1.082 0-1.96-.88-1.96-1.966s.878-1.965 1.96-1.965 1.96.88 1.96 1.965a1.963 1.963 0 0 1-1.96 1.966m5.822-6.383c-1.082 0-1.96-.88-1.96-1.966s.878-1.965 1.96-1.965 1.96.88 1.96 1.965a1.967 1.967 0 0 1-1.96 1.966m-5.822.223c-1.082 0-1.96-.88-1.96-1.965 0-1.086.878-1.966 1.96-1.966s1.96.88 1.96 1.966v.004a1.96 1.96 0 0 1-1.96 1.961m3.692-6.834a1.963 1.963 0 0 1-1.964-1.96 1.963 1.963 0 0 1 1.956-1.97 1.963 1.963 0 0 1 1.963 1.96v.005a1.96 1.96 0 0 1-1.955 1.965"/>
    <path d="M320.429 471.781H421.08v39.573H320.43z"/>
    <path fill="#000" d="M335.117 476.536q1.453 0 2.484.828 1.031.812 1.203 2.25h-1.812q-.125-.672-.672-1.078-.547-.422-1.203-.422-1.11 0-1.719.812-.61.797-.61 2.125 0 1.266.594 2.063.61.797 1.735.797.812 0 1.312-.5.516-.5.625-1.407h1.828q-.156 1.625-1.187 2.563-1.016.937-2.578.937-1.235 0-2.203-.562-.97-.563-1.5-1.594-.516-1.031-.516-2.297 0-1.969 1.156-3.234 1.156-1.281 3.063-1.281m7.879 2.39q1.468 0 2.343.906.875.891.875 2.375 0 1.485-.89 2.375-.875.891-2.328.891-1.438 0-2.328-.89-.875-.907-.875-2.376t.859-2.375q.875-.906 2.344-.906m-1.5 3.281q0 .985.406 1.485t1.094.5q.734 0 1.125-.516.39-.531.39-1.469 0-.921-.39-1.453-.375-.547-1.125-.547-.688 0-1.094.5t-.406 1.5m9.377-3.28q1.187 0 1.718.609.547.593.547 1.89v3.875h-1.703v-3.562q0-.72-.25-1.094t-.844-.375q-.703 0-1.015.422-.313.422-.313 1.297v3.312h-1.687v-6.203h1.61v.86h.03q.313-.5.813-.766t1.094-.266m6.097 0q1.266 0 1.953.5.703.5.797 1.484h-1.625q-.047-.438-.344-.641-.28-.203-.828-.203-.484 0-.718.156-.22.14-.22.422t.298.469 1.187.359q1.422.266 1.906.703.5.438.5 1.14 0 1.048-.78 1.61-.766.547-2.048.547-1.297 0-2.078-.547t-.844-1.64h1.625q0 .484.375.765t.938.281q.5 0 .797-.218.312-.22.312-.578 0-.329-.406-.532-.39-.203-1.469-.422-1.078-.218-1.547-.609-.468-.39-.468-1.062 0-.985.687-1.485.703-.5 2-.5m5.602.171v3.547q0 .703.25 1.094.25.39.86.39.702 0 1-.422.312-.437.312-1.296v-3.313h1.703v6.203h-1.625v-.86h-.031q-.329.516-.844.782-.5.25-1.063.25-1.156 0-1.703-.594-.547-.593-.547-1.906v-3.875zm7.176-2.36v8.563h-1.704v-8.562zm7.802-.202q1.547 0 2.485.718.937.719.937 2.032h-1.812q-.047-.641-.453-.97-.391-.327-1.235-.327-.578 0-.953.265-.36.25-.36.719 0 .313.157.469.156.156.625.344.469.171 2.062.546 1.063.25 1.657.875.61.61.61 1.547 0 1.25-.938 2t-2.625.75q-1.61 0-2.641-.797-1.016-.796-1.016-2.203v-.047h1.828q0 .797.516 1.188.531.39 1.375.39.766 0 1.219-.265.453-.281.453-.797 0-.422-.36-.687-.343-.266-1.109-.454-.984-.218-1.781-.468t-1.328-.813-.531-1.437q0-1.157.921-1.86.938-.718 2.297-.718m7.522 2.39q1.375 0 2.203.953.828.938.828 2.422l-.016.313h-4.484q.047.797.422 1.187.39.39 1.094.39.468 0 .86-.234.39-.25.5-.578h1.5q-.345 1.047-1.063 1.578-.72.516-1.844.516-1.438 0-2.313-.906-.86-.906-.86-2.36 0-1.39.892-2.328.89-.953 2.28-.953m-1.469 2.61h2.781q-.125-.688-.453-1-.312-.329-.922-.329t-.984.36q-.36.344-.422.969m9.11-2.61q.109 0 .203.016.093.015.171.047v1.578q-.14-.031-.28-.031-.141-.016-.329-.016-.86 0-1.281.531-.406.516-.406 1.406v2.844h-1.688v-6.203h1.61v1.156h.03q.266-.61.798-.968.546-.36 1.171-.36m2.394.172 1.312 4.234h.032l1.297-4.234h1.703l-2.11 6.203h-1.89l-2.125-6.203zm7.912-.172q1.375 0 2.203.953.828.938.828 2.422l-.015.313h-4.485q.047.797.422 1.187.39.39 1.094.39.469 0 .86-.234.39-.25.5-.578h1.5q-.344 1.047-1.063 1.578-.719.516-1.844.516-1.437 0-2.312-.906-.86-.906-.86-2.36 0-1.39.89-2.328.891-.953 2.282-.953m-1.469 2.61h2.782q-.125-.688-.454-1-.312-.329-.921-.329-.61 0-.985.36-.36.344-.422.969m9.11-2.61q.11 0 .203.016.094.015.172.047v1.578q-.14-.031-.282-.031-.14-.016-.328-.016-.86 0-1.28.531-.407.516-.407 1.406v2.844h-1.688v-6.203h1.61v1.156h.03q.267-.61.798-.968.547-.36 1.172-.36m-64.206 11.612q-.64 1.187-.985 2.578-.328 1.39-.328 2.859t.313 2.844q.312 1.36.984 2.672h-1.422q-.765-1.282-1.172-2.672t-.406-2.735q0-1.39.406-2.906.407-1.515 1.172-2.64zm6.754.203v1.578h-4.125v1.984h3.578v1.453h-3.578v3.547h-1.891v-8.562zm3.421 2.187q1.47 0 2.344.906.875.891.875 2.375 0 1.485-.89 2.375-.875.891-2.329.891-1.437 0-2.328-.89-.875-.907-.875-2.376t.86-2.375q.875-.906 2.343-.906m-1.5 3.281q0 .985.407 1.485t1.093.5q.735 0 1.125-.516.391-.531.391-1.469 0-.921-.39-1.453-.376-.547-1.126-.547-.687 0-1.093.5-.407.5-.407 1.5m7.58-5.468v8.562h-1.703v-8.562zm3.094 0v8.562h-1.703v-8.562zm4.344 2.187q1.469 0 2.344.906.875.891.875 2.375 0 1.485-.89 2.375-.876.891-2.329.891-1.437 0-2.328-.89-.875-.907-.875-2.376t.86-2.375q.874-.906 2.343-.906m-1.5 3.281q0 .985.406 1.485t1.094.5q.734 0 1.125-.516.39-.531.39-1.469 0-.921-.39-1.453-.375-.547-1.125-.547-.687 0-1.094.5-.406.5-.406 1.5m7.049-3.109 1.14 4.203h.016l1.031-4.203h1.657l1.062 4.203h.016l1.156-4.203h1.75l-1.969 6.203h-1.75l-1.093-4.172h-.032l-1.062 4.172h-1.75l-1.969-6.203zm11.408-.172q1.375 0 2.203.953.828.938.828 2.422l-.015.313h-4.485q.047.797.422 1.187.39.39 1.094.39.469 0 .86-.234.39-.25.5-.578h1.5q-.344 1.047-1.063 1.578-.719.516-1.844.516-1.437 0-2.312-.906-.86-.906-.86-2.36 0-1.39.89-2.328.891-.953 2.282-.953m-1.469 2.61h2.782q-.125-.688-.454-1-.312-.329-.921-.329-.61 0-.985.36-.36.344-.422.969m9.11-2.61q.11 0 .203.016.094.015.172.047v1.578q-.14-.031-.282-.031-.14-.016-.328-.016-.859 0-1.28.531-.407.516-.407 1.406v2.844h-1.688v-6.203h1.61v1.156h.031q.266-.61.797-.968.547-.36 1.172-.36m1.748-2.39q.781 1.265 1.187 2.656.407 1.39.407 2.75 0 1.375-.422 2.906-.407 1.516-1.172 2.64h-1.422q.656-1.25.969-2.609.328-1.375.328-2.812 0-1.5-.328-2.875-.313-1.39-.97-2.656z"/>
    <path d="m370.753 373.764 213.04-161.543"/>
    <path stroke="#e03875" stroke-dasharray="6 8" stroke-linecap="round" stroke-linejoin="round" stroke-width="2" d="m377.924 368.326 198.697-150.668"/>
    <path fill="#e03875" fill-rule="evenodd" stroke="#e03875" stroke-linecap="butt" stroke-width="2" d="m376.588 366.564-3.505 5.433 6.178-1.909zM577.957 219.42l3.506-5.433-6.178 1.91z"/>
    <path d="M322.163 115.593a2.76 2.76 0 0 1 2.762-2.763h95.127a2.76 2.76 0 0 1 2.762 2.763v93.91a2.76 2.76 0 0 1-2.762 2.763h-95.127a2.76 2.76 0 0 1-2.762-2.763z"/>
    <path fill="#dc477d" fill-rule="evenodd" d="M326.16 86.828a2.38 2.38 0 0 1 2.38-2.381h80.95a2.38 2.38 0 0 1 2.382 2.38v80.95a2.38 2.38 0 0 1-2.381 2.381h-80.95a2.38 2.38 0 0 1-2.381-2.38z"/>
    <path fill="#fff" fill-rule="evenodd" d="M369.183 151.254c-13.203.01-23.915-10.718-23.926-23.962s10.684-23.99 23.887-24.001a23.87 23.87 0 0 1 16.213 6.339l-5.674 5.954c-6.437-5.836-16.372-5.332-22.19 1.126-5.817 6.458-5.314 16.424 1.124 22.26a15.674 15.674 0 0 0 21.066 0l5.674 5.954a23.78 23.78 0 0 1-16.174 6.33m19.237-11.995c-1.082 0-1.96-.88-1.96-1.966s.878-1.966 1.96-1.966c1.083 0 1.96.88 1.96 1.966a1.967 1.967 0 0 1-1.96 1.966"/>
    <path fill="#fff" fill-rule="evenodd" d="M369.03 132.469c-2.858 0-5.175-2.325-5.175-5.192s2.317-5.192 5.176-5.192 5.175 2.324 5.175 5.192c-.002 2.866-2.318 5.19-5.175 5.192m21.633.074c-1.083 0-1.96-.88-1.96-1.965 0-1.086.877-1.966 1.96-1.966s1.959.88 1.959 1.966a1.967 1.967 0 0 1-1.96 1.965m-5.821-.223c-1.082 0-1.96-.88-1.96-1.966s.878-1.965 1.96-1.965 1.96.88 1.96 1.965a1.963 1.963 0 0 1-1.96 1.966m5.822-6.383c-1.083 0-1.96-.88-1.96-1.966s.877-1.965 1.96-1.965 1.959.88 1.959 1.965a1.967 1.967 0 0 1-1.96 1.966m-5.821.223c-1.082 0-1.96-.88-1.96-1.965 0-1.086.878-1.966 1.96-1.966s1.96.88 1.96 1.966v.004a1.963 1.963 0 0 1-1.96 1.961m3.692-6.833a1.963 1.963 0 0 1-1.964-1.962 1.963 1.963 0 0 1 1.955-1.97 1.963 1.963 0 0 1 1.964 1.962v.004a1.96 1.96 0 0 1-1.955 1.966"/>
    <path d="M318.69 171.874h100.652v39.573H318.69z"/>
    <path fill="#000" d="M333.378 176.629q1.453 0 2.485.828 1.03.812 1.203 2.25h-1.813q-.125-.672-.672-1.078-.547-.422-1.203-.422-1.11 0-1.719.812-.609.797-.609 2.125 0 1.266.594 2.063.61.797 1.734.797.813 0 1.313-.5.515-.5.625-1.407h1.828q-.156 1.625-1.188 2.563-1.015.937-2.578.937-1.234 0-2.203-.562t-1.5-1.594q-.516-1.031-.516-2.297 0-1.968 1.157-3.234 1.156-1.281 3.062-1.281m7.88 2.39q1.468 0 2.343.907.875.89.875 2.375t-.89 2.375q-.876.89-2.329.89-1.437 0-2.328-.89-.875-.907-.875-2.375 0-1.47.86-2.375.874-.907 2.343-.907m-1.5 3.282q0 .984.405 1.484.407.5 1.094.5.734 0 1.125-.516.39-.531.39-1.468 0-.922-.39-1.454-.375-.546-1.125-.546-.687 0-1.094.5-.406.5-.406 1.5m9.376-3.282q1.188 0 1.719.61.547.593.547 1.89v3.875h-1.703v-3.562q0-.719-.25-1.094t-.844-.375q-.703 0-1.016.422-.312.422-.312 1.297v3.312h-1.688v-6.203h1.61v.86h.03q.313-.5.813-.766t1.094-.266m6.098 0q1.265 0 1.953.5.703.5.797 1.485h-1.625q-.047-.438-.344-.641-.281-.203-.828-.203-.485 0-.719.156-.219.14-.219.422t.297.469 1.188.36q1.422.265 1.906.702.5.438.5 1.14 0 1.048-.781 1.61-.766.547-2.047.547-1.297 0-2.078-.547-.782-.547-.844-1.64h1.625q0 .484.375.765t.937.282q.5 0 .797-.22.313-.218.313-.577 0-.328-.406-.532-.391-.203-1.47-.421-1.077-.22-1.546-.61t-.469-1.062q0-.985.688-1.485.703-.5 2-.5m5.601.172v3.547q0 .703.25 1.094.25.39.86.39.703 0 1-.421.312-.438.312-1.297v-3.313h1.703v6.203h-1.625v-.86h-.031q-.328.517-.844.782-.5.25-1.062.25-1.156 0-1.703-.594-.547-.593-.547-1.906v-3.875zm7.176-2.36v8.563h-1.703v-8.562zm7.803-.202q1.547 0 2.484.718.938.72.938 2.032h-1.813q-.047-.641-.453-.97-.39-.327-1.234-.327-.578 0-.953.265-.36.25-.36.72 0 .312.156.468.157.156.625.344.47.172 2.063.547 1.062.25 1.656.875.61.609.61 1.546 0 1.25-.938 2t-2.625.75q-1.61 0-2.64-.796-1.016-.797-1.016-2.204v-.046h1.828q0 .796.516 1.187.53.39 1.375.39.765 0 1.218-.265.453-.281.453-.797 0-.422-.359-.687-.344-.266-1.11-.453-.984-.22-1.78-.47-.797-.25-1.329-.812t-.531-1.437q0-1.156.922-1.86.937-.718 2.297-.718m7.521 2.39q1.375 0 2.203.953.829.938.829 2.422l-.016.313h-4.484q.046.797.421 1.187.391.39 1.094.39.469 0 .86-.233.39-.25.5-.579h1.5q-.344 1.047-1.063 1.579-.719.515-1.844.515-1.437 0-2.312-.906-.86-.906-.86-2.36 0-1.39.891-2.328.89-.953 2.281-.953m-1.468 2.61h2.78q-.124-.688-.452-1-.313-.328-.922-.328-.61 0-.985.359-.359.344-.421.969m9.109-2.61q.11 0 .203.016t.172.047v1.578q-.14-.031-.281-.031-.141-.016-.328-.016-.86 0-1.282.531-.406.516-.406 1.407v2.843h-1.687v-6.203h1.609v1.156h.031q.266-.609.797-.968.547-.36 1.172-.36m2.394.172 1.313 4.235h.031l1.297-4.235h1.703l-2.11 6.203h-1.89l-2.125-6.203zm7.913-.172q1.375 0 2.203.953.828.938.828 2.422l-.016.313h-4.484q.047.797.422 1.187.39.39 1.093.39.47 0 .86-.233.39-.25.5-.579h1.5q-.344 1.047-1.063 1.579-.718.515-1.843.515-1.438 0-2.313-.906-.86-.906-.86-2.36 0-1.39.891-2.328.89-.953 2.282-.953m-1.47 2.61h2.782q-.125-.688-.453-1-.313-.328-.922-.328-.61 0-.984.359-.36.344-.422.969m9.11-2.61q.11 0 .203.016t.172.047v1.578q-.14-.031-.281-.031-.14-.016-.328-.016-.86 0-1.281.531-.407.516-.407 1.407v2.843h-1.687v-6.203h1.61v1.156h.03q.266-.609.797-.968.547-.36 1.172-.36m-64.207 11.61q-.64 1.187-.984 2.578-.328 1.39-.328 2.86 0 1.468.312 2.843.313 1.36.985 2.672h-1.422q-.766-1.281-1.172-2.672-.406-1.39-.406-2.734 0-1.391.406-2.907.406-1.515 1.172-2.64zm6.754.203v1.578h-4.125v1.984h3.578v1.453h-3.578v3.547h-1.89v-8.562zm3.422 2.187q1.469 0 2.344.907.875.89.875 2.375t-.89 2.375q-.876.89-2.329.89-1.438 0-2.328-.89-.875-.907-.875-2.375 0-1.47.86-2.375.874-.907 2.343-.907m-1.5 3.282q0 .984.406 1.484t1.094.5q.734 0 1.125-.516.39-.531.39-1.468 0-.922-.39-1.454-.375-.546-1.125-.546-.688 0-1.094.5t-.406 1.5m7.58-5.47v8.563h-1.703v-8.562zm3.094 0v8.563h-1.703v-8.562zm4.344 2.188q1.468 0 2.343.907.875.89.875 2.375t-.89 2.375q-.875.89-2.328.89-1.438 0-2.329-.89-.875-.907-.875-2.375 0-1.47.86-2.375.875-.907 2.344-.907m-1.5 3.282q0 .984.406 1.484t1.094.5q.734 0 1.125-.516.39-.531.39-1.468 0-.922-.39-1.454-.375-.546-1.125-.546-.688 0-1.094.5t-.406 1.5m7.048-3.11 1.141 4.203h.016l1.03-4.203h1.657l1.063 4.203h.015l1.156-4.203h1.75l-1.968 6.203h-1.75l-1.094-4.172h-.031l-1.063 4.172h-1.75l-1.969-6.203zm11.409-.172q1.375 0 2.203.953.828.938.828 2.422l-.016.313h-4.484q.047.797.422 1.187.39.39 1.093.39.47 0 .86-.233.39-.25.5-.579h1.5q-.344 1.047-1.063 1.579-.718.515-1.843.515-1.438 0-2.313-.906-.86-.906-.86-2.36 0-1.39.891-2.328.89-.953 2.282-.953m-1.47 2.61h2.782q-.125-.688-.453-1-.313-.328-.922-.328-.61 0-.984.359-.36.344-.422.969m9.11-2.61q.11 0 .203.016t.172.047v1.578q-.14-.031-.281-.031-.14-.016-.328-.016-.86 0-1.281.531-.407.516-.407 1.407v2.843h-1.687v-6.203h1.61v1.156h.03q.266-.609.797-.968.547-.36 1.172-.36m1.748-2.39q.781 1.265 1.188 2.656.406 1.39.406 2.75 0 1.375-.422 2.906-.406 1.516-1.172 2.64h-1.422q.657-1.25.97-2.609.327-1.375.327-2.812 0-1.5-.328-2.875-.312-1.39-.969-2.656z"/>
    <path d="m369.016 211.447 1.732 162.33"/>
    <path stroke="#e03875" stroke-dasharray="6 8" stroke-linecap="round" stroke-linejoin="round" stroke-width="2" d="m369.112 220.446 1.54 144.332"/>
    <path fill="#e03875" fill-rule="evenodd" stroke="#e03875" stroke-linecap="butt" stroke-width="2" d="m371.323 220.423-2.276-6.052-2.146 6.099zm-2.883 144.379 2.277 6.052 2.147-6.1z"/>
    <path d="m294.472 293.197 289.322-80.976"/>
    <path stroke="#e03875" stroke-dasharray="6 8" stroke-linecap="round" stroke-linejoin="round" stroke-width="2" d="m303.139 290.772 271.988-76.125"/>
    <path fill="#e03875" fill-rule="evenodd" stroke="#e03875" stroke-linecap="butt" stroke-width="2" d="m302.542 288.642-5.255 3.767 6.448.492zm273.182-71.866 5.255-3.767-6.448-.492z"/>
    <path d="M644.135 22.639h132.094"/>
    <path stroke="#e03875" stroke-dasharray="8 6" stroke-linecap="butt" stroke-miterlimit="400" stroke-width="2" d="M644.135 22.639h132.094"/>
    <path d="M662.376 0h100.661v21.008H662.376z"/>
    <path fill="#000" d="M681.769 4.957v6.985h4.172v1.578h-6.063V4.957zm9.488 0 3.203 8.563h-1.953l-.64-1.906h-3.204l-.671 1.906h-1.907l3.25-8.563zm-.984 2.11-1.125 3.14h2.219l-1.079-3.14zm6.814-2.11 3.578 5.75h.016v-5.75h1.766v8.563h-1.875l-3.579-5.734h-.015v5.734h-1.766V4.957zm14.197-.203q1.391 0 2.422.813 1.032.797 1.188 2.203h-1.797q-.188-.719-.672-1.078-.469-.36-1.14-.36-1.126 0-1.735.813-.594.812-.594 2.125 0 1.25.594 2.062.61.797 1.734.797.907 0 1.422-.453.532-.453.61-1.39h-1.89V8.879h3.608v4.64h-1.203l-.203-.968q-.453.578-1.047.875-.578.297-1.297.297-1.234 0-2.203-.562t-1.5-1.594q-.515-1.031-.515-2.297 0-1.984 1.156-3.25t3.062-1.266m8.09 2.39q1.47 0 2.344.907.875.89.875 2.375t-.89 2.375q-.876.89-2.329.89-1.437 0-2.328-.89-.875-.906-.875-2.375t.86-2.375q.875-.906 2.343-.906m-1.5 3.282q0 .985.407 1.485t1.093.5q.735 0 1.125-.516.391-.531.391-1.469 0-.922-.39-1.453-.376-.547-1.126-.547-.687 0-1.093.5-.407.5-.407 1.5m8.362-3.281q1.265 0 1.953.5.703.5.797 1.484h-1.625q-.047-.437-.344-.64-.281-.203-.828-.203-.485 0-.719.156-.219.14-.219.422 0 .28.297.468t1.188.36q1.422.265 1.906.703.5.437.5 1.14 0 1.047-.781 1.61-.766.547-2.047.547-1.297 0-2.078-.547-.782-.547-.844-1.64h1.625q0 .484.375.765t.937.281q.5 0 .797-.219.313-.218.313-.578 0-.328-.406-.53-.391-.204-1.47-.423-1.077-.219-1.546-.61-.469-.39-.469-1.062 0-.984.688-1.484.703-.5 2-.5m6.445 0q1.266 0 1.953.5.703.5.797 1.484h-1.625q-.047-.437-.344-.64-.281-.203-.828-.203-.484 0-.719.156-.218.14-.218.422 0 .28.296.468.297.188 1.188.36 1.422.265 1.906.703.5.437.5 1.14 0 1.047-.781 1.61-.766.547-2.047.547-1.297 0-2.078-.547t-.844-1.64h1.625q0 .484.375.765t.938.281q.5 0 .797-.219.312-.218.312-.578 0-.328-.406-.53-.39-.204-1.469-.423-1.078-.219-1.547-.61-.469-.39-.469-1.062 0-.984.688-1.484.703-.5 2-.5m5.664-2.188v1.391h-1.703v-1.39zm0 2.36v6.203h-1.703V7.317zm4.828-.172q1.328 0 2.078.922t.75 2.422q0 1.375-.75 2.297-.734.906-1.984.906-.563 0-1.063-.235-.484-.25-.796-.703h-.032v2.953h-1.687v-8.39h1.61v.781h.03q.297-.484.766-.719.484-.234 1.078-.234m-1.844 3.297q0 .89.375 1.437.375.532 1.11.532.703 0 1.078-.516.39-.516.39-1.453 0-.89-.374-1.453-.375-.563-1.125-.563-.704 0-1.079.531-.375.532-.375 1.485"/>
    <path d="M662.376 24.26h100.661v21.008H662.376z"/>
    <path fill="#000" d="M672.745 29.218v5.375q0 .921.422 1.359.438.437 1.344.437.984 0 1.375-.421.406-.438.406-1.375v-5.375h1.875v5.375q0 1.593-.937 2.5-.922.89-2.719.89-1.812 0-2.734-.875-.907-.89-.907-2.515v-5.375zm10.801 0q1.719 0 2.781 1.125 1.063 1.109 1.063 3.109t-1.047 3.172q-1.031 1.156-2.797 1.156h-3.75v-8.562zm-.14 6.984q.906 0 1.5-.64.593-.657.593-1.938 0-1.485-.625-2.156-.625-.672-1.797-.672h-1.39v5.406zm9.207-6.984q1.343 0 2.125.75.78.75.78 2 0 1.234-.78 1.984-.782.75-2.125.75h-2.032v3.078h-1.89v-8.562zm-.516 4.03q.812 0 1.203-.296.39-.313.39-.984 0-.657-.39-.97-.375-.327-1.203-.327h-1.516v2.578zm8.348-4.234-3.344 8.97h-1.375l3.36-8.97zm7.046.204v1.578h-2.562v6.984h-1.89v-6.984h-2.563v-1.578zm4.473-.204q1.453 0 2.485.829 1.03.812 1.203 2.25h-1.813q-.125-.672-.672-1.079-.547-.421-1.203-.421-1.11 0-1.719.812-.609.797-.609 2.125 0 1.266.594 2.063.61.796 1.734.796.813 0 1.313-.5.515-.5.625-1.406h1.828q-.156 1.625-1.188 2.563-1.015.937-2.578.937-1.234 0-2.203-.562t-1.5-1.594q-.516-1.031-.516-2.297 0-1.969 1.157-3.234 1.156-1.282 3.062-1.282m8.973.204q1.344 0 2.125.75t.781 2q0 1.234-.781 1.984t-2.125.75h-2.031v3.078h-1.891v-8.562zm-.516 4.03q.813 0 1.203-.296.39-.313.39-.984 0-.657-.39-.97-.375-.327-1.203-.327h-1.515v2.578zm8.348-4.234-3.344 8.97h-1.375l3.36-8.97zm3.234.204q1.297 0 2.047.703t.75 1.547q0 .609-.312 1.078-.297.468-.907.687v.016q.782.187 1.172.734t.39 1.328q0 1.203-.905 1.922-.907.719-2.235.719-1.39 0-2.297-.703-.89-.703-.89-1.938 0-.797.406-1.328.422-.547 1.172-.734v-.016q-.594-.172-.922-.625-.313-.469-.313-1.11 0-1.015.829-1.64.843-.64 2.015-.64m-1.297 2.437q0 .484.36.797.36.312.922.312.578 0 .921-.296.344-.297.344-.813t-.328-.828q-.312-.328-.937-.328-.579 0-.938.328-.344.328-.344.828m-.187 3.578q0 .61.422 1.031.437.407 1.062.407t1.031-.407q.407-.406.407-1.015 0-.578-.422-.953-.406-.391-1.031-.391-.61 0-1.047.36-.422.343-.422.968m8.111-6.015q1.14 0 1.985.656.843.656.843 1.672 0 .609-.312 1.078-.297.453-.875.625v.031q.703.156 1.094.688.406.515.406 1.218 0 1.235-.906 2-.907.766-2.22.766-1.421 0-2.28-.797-.844-.812-.844-2.172v-.094h1.625q.031.782.422 1.22.39.437 1.047.437.609 0 .984-.375.39-.391.39-.953 0-.625-.374-.922-.375-.313-1.391-.313h-.188V32.78h.297q.719 0 1.11-.266.39-.28.39-.78t-.343-.813q-.329-.313-.844-.313-.578 0-.938.39-.343.376-.36 1.11h-1.624q.047-1.312.844-2.094.797-.796 2.062-.796m6.69 0q1.5 0 2.296 1.093.797 1.094.797 3.235 0 2.156-.797 3.28-.78 1.126-2.296 1.126-1.5 0-2.297-1.11-.782-1.124-.782-3.296 0-2.125.782-3.22.781-1.108 2.297-1.108m-1.375 4.343q0 1.297.171 1.89.188.579.485.845.297.25.719.25.671 0 1.03-.657.36-.671.36-2.343 0-1.61-.36-2.266-.359-.672-1.046-.672-.64 0-1 .64-.36.641-.36 2.313m9.423-4.187v8.406h-1.703v-5.453h-2.11v-1.281h.11q1.032 0 1.625-.422.594-.422.72-1.25z"/>
  </g>
</svg>
