<svg xmlns="http://www.w3.org/2000/svg" width="24" height="24" viewBox="0 0 24 24">
  <path fill="#FFF" fill-rule="evenodd" d="M10.96 14.346a2.37 2.37 0 0 1-2.378-2.368A2.367 2.367 0 0 1 10.95 9.6a2.367 2.367 0 0 1 2.377 2.368 2.364 2.364 0 0 1-2.368 2.378zm4.618-1.279a1.09 1.09 0 0 1-1.095-1.094c0-.607.488-1.094 1.095-1.094.606 0 1.094.487 1.094 1.094s-.488 1.094-1.094 1.094m4.004 1.032a1.093 1.093 0 1 1-.791-1.328c.557.147.91.684.813 1.242-.012.027-.012.053-.022.086m-.776-2.82a1.093 1.093 0 0 1-1.316-.817 1.093 1.093 0 1 1 2.13-.499c.027.147.037.292.01.429-.06.427-.374.79-.824.887m3.893 2.698a1.087 1.087 0 0 1-1.267.889 1.087 1.087 0 0 1-.888-1.268 1.09 1.09 0 0 1 1.267-.888 1.1 1.1 0 0 1 .91 1.17c-.01.032-.022.059-.022.097m-.89-2.745a1.093 1.093 0 1 1 .9-1.257c.01.098.022.184.01.282a1.086 1.086 0 0 1-.91.975m-.764 6.536a1.093 1.093 0 0 1-1.495.411 1.093 1.093 0 0 1-.411-1.494 1.093 1.093 0 0 1 2.042.634 1 1 0 0 1-.136.449M20.651 7.71a1.107 1.107 0 0 1-1.496-.417 1.11 1.11 0 0 1 .417-1.495 1.107 1.107 0 0 1 1.496.417c.12.206.157.417.135.634a1.1 1.1 0 0 1-.552.861M11 23a10.93 10.93 0 0 1-7.783-3.218A10.96 10.96 0 0 1 0 12a10.93 10.93 0 0 1 3.217-7.782A10.96 10.96 0 0 1 11 1c2.441 0 4.751.781 6.68 2.26l-1.344 1.754A8.7 8.7 0 0 0 11 3.21a8.77 8.77 0 0 0-6.223 2.57A8.74 8.74 0 0 0 2.21 12a8.76 8.76 0 0 0 2.571 6.221A8.73 8.73 0 0 0 11 20.791a8.7 8.7 0 0 0 5.337-1.806l1.342 1.756A10.9 10.9 0 0 1 11 23"/>
</svg>
