<svg xmlns="http://www.w3.org/2000/svg" xmlns:xlink="http://www.w3.org/1999/xlink" width="378.801" height="384.771" viewBox="0 0 100.224 101.804">
  <defs>
    <path id="a" fill="none" d="m36.335-.44-8.368-4.253a3.1 3.1 0 0 0-2.79 0L16.81-.44A3.15 3.15 0 0 0 15.542.732a3.2 3.2 0 0 0-.47 1.675v10.108c-.007.595.15 1.18.456 1.689.304.508.744.92 1.268 1.185l8.368 4.252a3.1 3.1 0 0 0 2.803 0l8.368-4.252a3.15 3.15 0 0 0 1.267-1.172 3.2 3.2 0 0 0 .47-1.675V2.407a3.2 3.2 0 0 0-.47-1.675 3.15 3.15 0 0 0-1.267-1.173M26.1-2.74a.95.95 0 0 1 .92 0l7.645 3.877-2.881 1.47-8.105-4.117zm.46 8.022-8.105-4.118 2.881-1.471 8.119 4.131zm-8.829 8.276a1.05 1.05 0 0 1-.426-.396 1.07 1.07 0 0 1-.153-.567V2.888l8.369 4.239v10.388zm17.658 0-7.79 3.944V7.127l8.369-4.239v9.72a1.1 1.1 0 0 1-.174.52c-.102.154-.241.28-.405.363z"/>
    <path id="b" d="M60.894 32.634a1.06 1.06 0 1 1 1.057-1.049 1.06 1.06 0 0 1-1.057 1.064"/>
    <path id="c" d="M62.957 32.064a.49.49 0 1 1 .49-.479.49.49 0 0 1-.49.49m1.788.448a.452.452 0 1 1-.903-.038.452.452 0 0 1 .903.038m-.345-1.259a.49.49 0 1 1 .383-.59.5.5 0 0 1 0 .192.47.47 0 0 1-.383.383m1.739 1.221a.488.488 0 1 1-.961-.168.48.48 0 0 1 .566-.383.49.49 0 0 1 .406.52.2.2 0 0 0 0 .047m-.406-1.245a.486.486 0 1 1 .383-.559 1 1 0 0 1 0 .127.486.486 0 0 1-.406.432m-.321 2.921a.49.49 0 1 1 .06-.2.4.4 0 0 1-.06.2m-.177-4.491a.49.49 0 1 1-.481-.853.49.49 0 0 1 .481.853"/>
    <path id="d" d="M60.914 36.5a4.915 4.915 0 1 1 2.981-8.803l-.597.766a3.93 3.93 0 1 0 0 6.243l.597.784a4.85 4.85 0 0 1-2.981 1.01"/>
  </defs>
  <g transform="translate(-78.544 -18.81)">
    <rect width="107.654" height="111.635" x="75.003" y="13.636" fill="#fff" paint-order="markers stroke fill" rx=".395" ry=".427"/>
    <text xml:space="preserve" x="235.834" y="947.221" fill="#b6b8c2" stroke-width=".08" font-family="Open Sans" font-size="4.251" font-weight="400" style="line-height:1.25;-inkscape-font-specification:&quot;Open Sans&quot;" transform="translate(-76.89 -619.412)scale(.69136)"><tspan x="235.834" y="947.221" font-weight="700" style="-inkscape-font-specification:&quot;Open Sans Bold&quot;">DC1</tspan></text>
    <use xlink:href="#a" transform="translate(79.256 33.284)scale(.16186)"/>
    <text xml:space="preserve" x="240.735" y="945.267" fill="#b6b8c2" stroke-width=".053" font-family="sans-serif" font-size="2.113" style="line-height:1.25" transform="translate(-147.686 -910.172)" word-spacing="0"><tspan x="240.735" y="945.267">| ON PREMISES</tspan></text>
    <text xml:space="preserve" x="235.834" y="947.221" fill="#b6b8c2" stroke-width=".08" font-family="Open Sans" font-size="4.251" font-weight="400" style="line-height:1.25;-inkscape-font-specification:&quot;Open Sans&quot;" transform="translate(-21.978 -619.412)scale(.69136)"><tspan x="235.834" y="947.221" font-weight="700" style="-inkscape-font-specification:&quot;Open Sans Bold&quot;">DC2</tspan></text>
    <use xlink:href="#a" transform="translate(134.168 33.284)scale(.16186)"/>
    <text xml:space="preserve" x="296.28" y="945.618" fill="#b6b8c2" stroke-width=".053" font-family="sans-serif" font-size="2.113" style="line-height:1.25" transform="translate(-148.32 -910.524)" word-spacing="0"><tspan x="296.28" y="945.618">| CLOUD US-EAST-1</tspan></text>
    <rect width="44.187" height="62.425" x="79.255" y="28.995" fill="none" stroke="#d2d4db" stroke-linecap="round" stroke-width=".575" paint-order="markers stroke fill" rx=".339" ry=".564"/>
    <rect width="44.187" height="62.425" x="134.029" y="28.995" fill="none" stroke="#d2d4db" stroke-linecap="round" stroke-width=".575" paint-order="markers stroke fill" rx=".339" ry=".564"/>
    <text xml:space="preserve" x="78.809" y="24.899" fill="#848484" stroke-width=".371" font-family="sans-serif" font-size="3.463" font-weight="400" style="line-height:1.25"><tspan x="78.809" y="24.899" fill="#000" font-family="Open Sans" font-weight="700" style="-inkscape-font-specification:&quot;Open Sans&quot;">Without Mesh Gateways</tspan></text>
    <text xml:space="preserve" x="78.836" y="20.717" fill="#b6b8c2" stroke-width=".243" font-family="sans-serif" font-size="2.265" font-weight="400" style="line-height:1.25"><tspan x="78.836" y="20.717" font-family="Open Sans" font-weight="700" style="-inkscape-font-specification:&quot;Open Sans Bold&quot;">CROSS-DC CONTROL PLANE COMMUNICATION (CLUSTER PEERING)</tspan></text>
    <text xml:space="preserve" x="125.221" y="99.587" fill="#648fff" stroke-width=".044" font-family="Open Sans" font-size="1.775" font-weight="400" style="line-height:1.25;-inkscape-font-specification:&quot;Open Sans&quot;"><tspan x="125.221" y="99.587" font-weight="700" style="-inkscape-font-specification:&quot;Open Sans&quot;">8503/tcp</tspan></text>
    <text xml:space="preserve" x="134.852" y="99.456" stroke-width=".179" font-family="Open Sans" font-size="1.94" font-weight="400" style="line-height:1.25;-inkscape-font-specification:&quot;Open Sans, Normal&quot;;font-variant-ligatures:normal;font-variant-caps:normal;font-variant-numeric:normal;font-variant-east-asian:normal"><tspan x="134.852" y="99.456" style="-inkscape-font-specification:&quot;Open Sans, Normal&quot;;font-variant-ligatures:normal;font-variant-caps:normal;font-variant-numeric:normal;font-variant-east-asian:normal">gRPC API with TLS</tspan></text>
    <text xml:space="preserve" x="91.688" y="113.094" fill="#7c7c7c" stroke-width=".03" font-family="Open Sans" font-size="1.208" font-weight="400" style="line-height:1.25;-inkscape-font-specification:&quot;Open Sans, Normal&quot;;font-variant-ligatures:normal;font-variant-caps:normal;font-variant-numeric:normal;font-variant-east-asian:normal"><tspan x="91.688" y="113.094" style="-inkscape-font-specification:&quot;Open Sans, Normal&quot;;font-variant-ligatures:normal;font-variant-caps:normal;font-variant-numeric:normal;font-variant-east-asian:normal">all servers are connected in DCs</tspan><tspan x="91.688" y="114.604" style="-inkscape-font-specification:&quot;Open Sans, Normal&quot;;font-variant-ligatures:normal;font-variant-caps:normal;font-variant-numeric:normal;font-variant-east-asian:normal">with a cluster peering relationship</tspan></text>
    <text xml:space="preserve" x="91.592" y="111.176" stroke-width=".179" font-family="Open Sans" font-size="1.94" font-weight="400" style="line-height:1.25;-inkscape-font-specification:&quot;Open Sans, Normal&quot;;font-variant-ligatures:normal;font-variant-caps:normal;font-variant-numeric:normal;font-variant-east-asian:normal"><tspan x="91.592" y="111.176" style="-inkscape-font-specification:&quot;Open Sans, Normal&quot;;font-variant-ligatures:normal;font-variant-caps:normal;font-variant-numeric:normal;font-variant-east-asian:normal">Control Plane</tspan></text>
    <g transform="translate(-245.587 -827.516)scale(.97284)">
      <rect width="4.305" height="4.2" x="341.505" y="952.156" fill="#ca2171" fill-rule="evenodd" rx=".131" ry=".131"/>
      <path fill="#fff" fill-rule="evenodd" d="m342.523 954.038.103.21.232.034-.168.163.04.231-.207-.109-.207.11.04-.232-.169-.163.232-.034Z" clip-rule="evenodd"/>
      <text xml:space="preserve" x="343.041" y="954.551" stroke-width=".014" font-family="Open Sans" font-size=".541" font-weight="400" style="line-height:1.25;-inkscape-font-specification:&quot;Open Sans&quot;"><tspan x="343.041" y="954.551" fill="#fff" font-weight="700" style="-inkscape-font-specification:&quot;Open Sans Bold&quot;">LEADER</tspan></text>
      <g fill="#fff">
        <path fill-rule="evenodd" d="M344.984 953.11a.11.11 0 1 1 .11-.11.11.11 0 0 1-.11.111" clip-rule="evenodd" opacity=".7"/>
        <path fill-rule="evenodd" d="M345.199 953.05a.051.051 0 1 1 .051-.05.05.05 0 0 1-.051.051m.186.047a.047.047 0 1 1-.094-.004.047.047 0 0 1 .094.004m-.036-.131a.051.051 0 1 1 .04-.062v.02a.05.05 0 0 1-.04.04m.182.127a.05.05 0 1 1-.1-.017.05.05 0 0 1 .058-.04.05.05 0 0 1 .043.054v.005m-.043-.13a.05.05 0 1 1 .04-.058v.013a.05.05 0 0 1-.042.045m-.033.305a.051.051 0 1 1 .006-.021.04.04 0 0 1-.006.02m-.019-.467a.051.051 0 1 1-.05-.09.051.051 0 0 1 .05.09" clip-rule="evenodd"/>
        <path d="M344.986 953.512a.512.512 0 1 1 .31-.917l-.061.08a.41.41 0 1 0 0 .65l.062.082a.5.5 0 0 1-.31.105"/>
      </g>
    </g>
    <g transform="translate(87.15 87.016)scale(.13492)">
      <rect width="31.143" height="30.384" x="-36.991" y="87.118" fill="#ca2171" fill-rule="evenodd" rx=".949" ry=".949"/>
      <g fill="#fff" stroke-width=".447" transform="translate(-57.736 69.407)scale(.75411)">
        <use xlink:href="#b" fill-rule="evenodd" clip-rule="evenodd" opacity=".7"/>
        <use xlink:href="#c" fill-rule="evenodd" clip-rule="evenodd"/>
        <use xlink:href="#d"/>
      </g>
    </g>
    <text xml:space="preserve" x="92.143" y="101.625" stroke-width=".179" font-family="Open Sans" font-size="1.94" font-weight="400" style="line-height:1.25;-inkscape-font-specification:&quot;Open Sans, Normal&quot;;font-variant-ligatures:normal;font-variant-caps:normal;font-variant-numeric:normal;font-variant-east-asian:normal"><tspan x="92.143" y="101.625" style="-inkscape-font-specification:&quot;Open Sans, Normal&quot;;font-variant-ligatures:normal;font-variant-caps:normal;font-variant-numeric:normal;font-variant-east-asian:normal">Consul Server Agent</tspan></text>
    <text xml:space="preserve" x="82.046" y="96.439" stroke-width=".265" font-family="Open Sans" font-size="2.117" font-weight="700" style="line-height:1.25;-inkscape-font-specification:&quot;Open Sans, Bold&quot;;font-variant-ligatures:normal;font-variant-caps:normal;font-variant-numeric:normal;font-variant-east-asian:normal"><tspan x="82.046" y="96.439" style="-inkscape-font-specification:&quot;Open Sans, Bold&quot;;font-variant-ligatures:normal;font-variant-caps:normal;font-variant-numeric:normal;font-variant-east-asian:normal">System Components</tspan></text>
    <text xml:space="preserve" x="82.02" y="107.697" stroke-width=".265" font-family="Open Sans" font-size="2.117" font-weight="700" style="line-height:1.25;-inkscape-font-specification:&quot;Open Sans, Bold&quot;;font-variant-ligatures:normal;font-variant-caps:normal;font-variant-numeric:normal;font-variant-east-asian:normal"><tspan x="82.02" y="107.697" style="-inkscape-font-specification:&quot;Open Sans, Bold&quot;;font-variant-ligatures:normal;font-variant-caps:normal;font-variant-numeric:normal;font-variant-east-asian:normal">Communication Paths</tspan></text>
    <text xml:space="preserve" x="125.055" y="96.418" stroke-width=".265" font-family="Open Sans" font-size="2.117" font-weight="700" style="line-height:1.25;-inkscape-font-specification:&quot;Open Sans, Bold&quot;;font-variant-ligatures:normal;font-variant-caps:normal;font-variant-numeric:normal;font-variant-east-asian:normal"><tspan x="125.055" y="96.418" style="-inkscape-font-specification:&quot;Open Sans, Bold&quot;;font-variant-ligatures:normal;font-variant-caps:normal;font-variant-numeric:normal;font-variant-east-asian:normal">Ports</tspan></text>
    <path fill="none" stroke="#648fff" stroke-width=".75" d="M82.27 110.658h7.683"/>
    <text xml:space="preserve" x="82.143" y="118.168" fill="#7c7c7c" stroke-width=".023" font-family="Open Sans" font-size="1.464" font-weight="400" style="line-height:1.25;-inkscape-font-specification:&quot;Open Sans, Normal&quot;;font-variant-ligatures:normal;font-variant-caps:normal;font-variant-numeric:normal;font-variant-east-asian:normal"><tspan x="82.143" y="118.168" fill="#000" style="-inkscape-font-specification:&quot;Open Sans, Normal&quot;;font-variant-ligatures:normal;font-variant-caps:normal;font-variant-numeric:normal;font-variant-east-asian:normal"><tspan font-weight="700" style="-inkscape-font-specification:&quot;Open Sans, Normal&quot;;font-variant-ligatures:normal;font-variant-caps:normal;font-variant-numeric:normal;font-variant-east-asian:normal">Not shown: </tspan>Consul client agents and their LAN Serf Gossip traffic on ports 8301/{udp,tcp} are not shown</tspan><tspan x="82.143" y="119.998" fill="#000" style="-inkscape-font-specification:&quot;Open Sans, Normal&quot;;font-variant-ligatures:normal;font-variant-caps:normal;font-variant-numeric:normal;font-variant-east-asian:normal">                       because they are not involved in cross-DC communication.</tspan></text>
    <g fill="none" stroke="#648fff" stroke-width=".4">
      <path d="M105.594 80.165c5.596-6.43 1.688-12.798-6.437-17.606l52.261-17.643"/>
      <path d="M151.418 44.916h-45.819l51.992 17.327m-51.992-17.327c3.422 7.957 2.341 11.656-6.442 17.643"/>
      <path d="M105.599 44.916c5.509 5.482 8.528 29.044-.006 35.249m.006-35.249 45.871 34.87m-.315.063c-5.596-6.43-1.688-12.797 6.436-17.606m-6.173-17.327c-3.422 7.957-2.4 11.36 6.383 17.347"/>
      <path d="M151.418 44.916c-5.508 5.482-8.48 28.666.052 34.87"/>
      <path d="m157.591 62.243-58.434.316 52.313 17.227"/>
      <path d="m151.418 44.916-45.825 35.249 51.998-17.922m-51.997 17.922 45.876-.379"/>
    </g>
    <g transform="translate(-500.784 -1265.502)">
      <rect width="15.257" height="14.885" x="651.946" y="1303.974" fill="#ca2171" fill-rule="evenodd" rx=".465" ry=".465"/>
      <g fill="#fff" stroke-width=".447" transform="translate(641.945 1294.886)scale(.36944)">
        <use xlink:href="#b" fill-rule="evenodd" clip-rule="evenodd" opacity=".7"/>
        <use xlink:href="#c" fill-rule="evenodd" clip-rule="evenodd"/>
        <use xlink:href="#d"/>
      </g>
      <text xml:space="preserve" x="652.965" y="1310.909" fill="#d9deff" stroke-width=".044" font-family="Open Sans" font-size="1.775" font-weight="400" style="line-height:1.25;-inkscape-font-specification:&quot;Open Sans&quot;"><tspan x="652.965" y="1310.909" font-weight="700" style="-inkscape-font-specification:&quot;Open Sans&quot;">8503/tcp</tspan></text>
    </g>
    <g transform="translate(-500.784 -1265.502)">
      <rect width="15.257" height="14.885" x="658.417" y="1321.429" fill="#ca2171" fill-rule="evenodd" rx=".465" ry=".465"/>
      <g fill="#fff" stroke-width=".447" transform="translate(648.416 1312.34)scale(.36944)">
        <use xlink:href="#b" fill-rule="evenodd" clip-rule="evenodd" opacity=".7"/>
        <use xlink:href="#c" fill-rule="evenodd" clip-rule="evenodd"/>
        <use xlink:href="#d"/>
      </g>
      <text xml:space="preserve" x="659.436" y="1328.363" fill="#d9deff" stroke-width=".044" font-family="Open Sans" font-size="1.775" font-weight="400" style="line-height:1.25;-inkscape-font-specification:&quot;Open Sans&quot;"><tspan x="659.436" y="1328.363" font-weight="700" style="-inkscape-font-specification:&quot;Open Sans&quot;">8503/tcp</tspan></text>
      <path fill="#fff" fill-rule="evenodd" d="m660.385 1322.983.31.628.694.102-.502.489.118.69-.62-.326-.62.327.118-.691-.502-.49.693-.1z" clip-rule="evenodd"/>
      <text xml:space="preserve" x="661.938" y="1324.518" stroke-width=".041" font-family="Open Sans" font-size="1.62" font-weight="400" style="line-height:1.25;-inkscape-font-specification:&quot;Open Sans&quot;"><tspan x="661.938" y="1324.518" fill="#fff" font-weight="700" style="-inkscape-font-specification:&quot;Open Sans Bold&quot;">LEADER</tspan></text>
    </g>
    <g transform="translate(-500.784 -1265.502)">
      <rect width="15.257" height="14.885" x="651.946" y="1338.883" fill="#ca2171" fill-rule="evenodd" rx=".465" ry=".465"/>
      <g fill="#fff" stroke-width=".447" transform="translate(641.945 1329.795)scale(.36944)">
        <use xlink:href="#b" fill-rule="evenodd" clip-rule="evenodd" opacity=".7"/>
        <use xlink:href="#c" fill-rule="evenodd" clip-rule="evenodd"/>
        <use xlink:href="#d"/>
      </g>
      <text xml:space="preserve" x="652.965" y="1345.818" fill="#d9deff" stroke-width=".044" font-family="Open Sans" font-size="1.775" font-weight="400" style="line-height:1.25;-inkscape-font-specification:&quot;Open Sans&quot;"><tspan x="652.965" y="1345.818" font-weight="700" style="-inkscape-font-specification:&quot;Open Sans&quot;">8503/tcp</tspan></text>
    </g>
    <g transform="translate(-500.784 -1265.502)">
      <rect width="15.257" height="14.885" x="590.976" y="1338.883" fill="#ca2171" fill-rule="evenodd" rx=".465" ry=".465"/>
      <g fill="#fff" stroke-width=".447" transform="translate(571.062 1329.795)scale(.36944)">
        <use xlink:href="#b" fill-rule="evenodd" clip-rule="evenodd" opacity=".7"/>
        <use xlink:href="#c" fill-rule="evenodd" clip-rule="evenodd"/>
        <use xlink:href="#d"/>
      </g>
      <text xml:space="preserve" x="597.991" y="1345.818" fill="#d9deff" stroke-width=".044" font-family="Open Sans" font-size="1.775" font-weight="400" style="line-height:1.25;-inkscape-font-specification:&quot;Open Sans&quot;"><tspan x="597.991" y="1345.818" font-weight="700" style="-inkscape-font-specification:&quot;Open Sans&quot;">8503/tcp</tspan></text>
    </g>
    <g transform="translate(-500.784 -1265.502)">
      <rect width="15.257" height="14.885" x="584.505" y="1321.429" fill="#ca2171" fill-rule="evenodd" rx=".465" ry=".465"/>
      <g fill="#fff" stroke-width=".447" transform="translate(564.591 1312.34)scale(.36944)">
        <use xlink:href="#b" fill-rule="evenodd" clip-rule="evenodd" opacity=".7"/>
        <use xlink:href="#c" fill-rule="evenodd" clip-rule="evenodd"/>
        <use xlink:href="#d"/>
      </g>
      <text xml:space="preserve" x="591.521" y="1328.363" fill="#d9deff" stroke-width=".044" font-family="Open Sans" font-size="1.775" font-weight="400" style="line-height:1.25;-inkscape-font-specification:&quot;Open Sans&quot;"><tspan x="591.521" y="1328.363" font-weight="700" style="-inkscape-font-specification:&quot;Open Sans&quot;">8503/tcp</tspan></text>
      <path fill="none" d="m590.804 1322.945.31.629.694.101-.502.49.118.69-.62-.326-.621.327.118-.691-.502-.49.694-.101Z" clip-rule="evenodd"/>
      <text xml:space="preserve" x="592.357" y="1324.481" stroke-width=".041" font-family="Open Sans" font-size="1.62" font-weight="400" style="line-height:1.25;-inkscape-font-specification:&quot;Open Sans&quot;"><tspan x="592.357" y="1324.481" fill="#fff" font-weight="700" style="-inkscape-font-specification:&quot;Open Sans Bold&quot;">LEADER</tspan></text>
    </g>
    <g transform="translate(-500.784 -1265.502)">
      <rect width="15.257" height="14.885" x="590.976" y="1303.974" fill="#ca2171" fill-rule="evenodd" rx=".465" ry=".465"/>
      <g fill="#fff" stroke-width=".447" transform="translate(571.062 1294.886)scale(.36944)">
        <use xlink:href="#b" fill-rule="evenodd" clip-rule="evenodd" opacity=".7"/>
        <use xlink:href="#c" fill-rule="evenodd" clip-rule="evenodd"/>
        <use xlink:href="#d"/>
      </g>
      <text xml:space="preserve" x="597.991" y="1310.909" fill="#d9deff" stroke-width=".044" font-family="Open Sans" font-size="1.775" font-weight="400" style="line-height:1.25;-inkscape-font-specification:&quot;Open Sans&quot;"><tspan x="597.991" y="1310.909" font-weight="700" style="-inkscape-font-specification:&quot;Open Sans&quot;">8503/tcp</tspan></text>
    </g>
  </g>
</svg>
