<svg xmlns="http://www.w3.org/2000/svg" width="65" height="42" fill="none">
  <path fill="#008196" fill-rule="evenodd" d="M55.48.678a2.25 2.25 0 0 1 2.04 0l5.297 2.697c.42.213.683.644.683 1.114v6.717c0 .658-.37 1.26-.956 1.56l-5.023 2.556a2.25 2.25 0 0 1-2.042 0l-5.023-2.557a1.75 1.75 0 0 1-.956-1.56V4.49c0-.47.264-.9.683-1.114zm1.36 1.337a.75.75 0 0 0-.68 0l-4.436 2.259L56.5 6.662l4.776-2.388zM51 11.205V5.59l4.75 2.375v5.813l-4.613-2.349a.25.25 0 0 1-.137-.223Zm6.25 2.572 4.613-2.349a.25.25 0 0 0 .137-.223V5.59l-4.75 2.375zM7.48 26.678a2.25 2.25 0 0 1 2.04 0l5.297 2.697c.42.213.683.643.683 1.114v6.716c0 .659-.37 1.261-.956 1.56L9.52 41.322a2.25 2.25 0 0 1-2.042 0l-5.023-2.557a1.75 1.75 0 0 1-.956-1.56V30.49c0-.47.264-.9.683-1.114l5.296-2.697Zm1.36 1.337a.75.75 0 0 0-.68 0l-4.436 2.259L8.5 32.662l4.776-2.388zM3 37.205V31.59l4.75 2.375v5.813l-4.613-2.349A.25.25 0 0 1 3 37.206Zm6.25 2.572 4.613-2.349a.25.25 0 0 0 .137-.222v-5.617l-4.75 2.375z" clip-rule="evenodd" opacity=".5"/>
  <path fill="#008196" fill-rule="evenodd" d="M34.106 6.004a3.67 3.67 0 0 0-3.215 0l-11.749 5.731a2.33 2.33 0 0 0-1.31 2.097v13.203c0 1.377.77 2.637 1.995 3.264l11 5.634a3.67 3.67 0 0 0 3.343 0l11-5.634a3.67 3.67 0 0 0 1.995-3.264V13.832c0-.892-.508-1.706-1.31-2.097zm-2.338 1.798c.461-.225 1-.225 1.461 0l10.813 5.274-11.543 5.483-11.543-5.483zm-11.936 6.954v12.28c0 .625.35 1.198.907 1.483l10.76 5.511V20.298zM33.499 34.03l10.76-5.511c.556-.285.906-.858.906-1.483v-12.28L33.5 20.298z" clip-rule="evenodd"/>
</svg>
