<svg xmlns="http://www.w3.org/2000/svg" xmlns:xlink="http://www.w3.org/1999/xlink" width="420.164" height="276.624" viewBox="0 0 111.168 73.19">
  <defs>
    <path id="a" d="M60.894 32.634a1.06 1.06 0 1 1 1.057-1.049 1.06 1.06 0 0 1-1.057 1.064"/>
    <path id="b" d="M62.957 32.064a.49.49 0 1 1 .49-.479.49.49 0 0 1-.49.49m1.788.448a.452.452 0 1 1-.903-.038.452.452 0 0 1 .903.038m-.345-1.259a.49.49 0 1 1 .383-.59.5.5 0 0 1 0 .192.47.47 0 0 1-.383.383m1.739 1.221a.488.488 0 1 1-.961-.168.48.48 0 0 1 .566-.383.49.49 0 0 1 .406.52.2.2 0 0 0 0 .047m-.406-1.245a.486.486 0 1 1 .383-.559 1 1 0 0 1 0 .127.486.486 0 0 1-.406.432m-.321 2.921a.49.49 0 1 1 .06-.2.4.4 0 0 1-.06.2m-.177-4.491a.49.49 0 1 1-.481-.853.49.49 0 0 1 .481.853"/>
    <path id="c" d="M60.914 36.5a4.915 4.915 0 1 1 2.981-8.803l-.597.766a3.93 3.93 0 1 0 0 6.243l.597.784a4.85 4.85 0 0 1-2.981 1.01"/>
    <path id="d" fill="#fff" stroke="none" d="m10 .833 2.832 5.739 6.335.925-4.584 4.465 1.082 6.306L10 15.29l-5.665 2.98 1.082-6.307L.833 7.497l6.334-.925Z"/>
    <marker id="e" orient="auto" overflow="visible" refX="0" refY="0">
      <path fill="context-stroke" fill-rule="evenodd" stroke="context-stroke" stroke-width=".2pt" d="m-1.2 0-1 1 3.5-1-3.5-1Z"/>
    </marker>
  </defs>
  <g transform="translate(-32.7 -42.368)">
    <path fill="#fff" d="M27.849 37.241h122.237v84.27H27.849z" paint-order="markers stroke fill"/>
    <text xml:space="preserve" x="35.01" y="51.555" stroke-width=".105" font-family="Open Sans" font-size="2.518" style="line-height:1.25;-inkscape-font-specification:&quot;Open Sans, Normal&quot;;font-variant-ligatures:none"><tspan x="35.01" y="51.555" font-weight="300" style="-inkscape-font-specification:&quot;Open Sans Light&quot;">PROCESS</tspan></text>
    <rect width="10.692" height="4.641" x="33.996" y="42.368" fill="#eee" paint-order="markers stroke fill" ry="0"/>
    <text xml:space="preserve" x="35.047" y="45.916" fill="#fdb618" stroke-width=".184" font-family="Open Sans" font-size="3.528" font-weight="400" style="line-height:1.25;-inkscape-font-specification:&quot;Open Sans&quot;;font-variant-ligatures:none"><tspan x="35.047" y="45.916" font-weight="700" style="-inkscape-font-specification:&quot;Open Sans&quot;">stale</tspan></text>
    <text xml:space="preserve" x="45.434" y="45.897" fill-opacity=".929" stroke-width=".184" font-family="Open Sans" font-size="3.528" font-weight="400" style="line-height:1.25;-inkscape-font-specification:&quot;Open Sans&quot;;font-variant-ligatures:none"><tspan x="45.434" y="45.897" font-weight="700" style="-inkscape-font-specification:&quot;Open Sans&quot;">read request path</tspan></text>
    <path fill="#f0f0f0" d="M32.7 96.234h111.168v19.325H32.7z" paint-order="markers stroke fill"/>
    <g transform="translate(255.457 -16.545)">
      <rect width="4.654" height="4.54" x="-219.694" y="125.233" fill="#ca2171" fill-rule="evenodd" rx=".142" ry=".142"/>
      <g fill="#fff" stroke-width=".447" transform="translate(-226.6 122.104)scale(.12943)">
        <use xlink:href="#a" fill-rule="evenodd" clip-rule="evenodd" opacity=".7"/>
        <use xlink:href="#b" fill-rule="evenodd" clip-rule="evenodd"/>
        <use xlink:href="#c"/>
      </g>
      <text xml:space="preserve" x="-219.458" y="129.183" fill="#fff" stroke-width=".033" font-family="Open Sans" font-size=".79" style="line-height:1.25;-inkscape-font-specification:&quot;Open Sans, Normal&quot;;font-variant-ligatures:none"><tspan x="-219.458" y="129.183">FOLLOWER</tspan></text>
    </g>
    <text xml:space="preserve" x="42.022" y="111.896" stroke-width=".179" font-family="sans-serif" font-size="2.518" font-weight="400" style="line-height:1.25"><tspan x="42.022" y="111.896" font-family="Open Sans" style="-inkscape-font-specification:&quot;Open Sans&quot;">Consul Server: Follower</tspan></text>
    <g transform="translate(255.344 -17.604)">
      <rect width="4.429" height="4.321" x="-182.885" y="119.936" fill="#fff" fill-rule="evenodd" stroke="#ca2171" stroke-width=".228" rx=".135" ry=".135"/>
      <circle cx="-181.835" cy="123.062" r=".363" fill="#ca2171"/>
    </g>
    <text xml:space="preserve" x="78.605" y="105.146" stroke-width=".179" font-family="sans-serif" font-size="2.518" font-weight="400" style="line-height:1.25"><tspan x="78.605" y="105.146" font-family="Open Sans" style="-inkscape-font-specification:&quot;Open Sans&quot;">Consul Client Agent</tspan></text>
    <path fill="none" stroke="#648fff" stroke-width=".75" d="M107.534 102.451h7.683"/>
    <path fill="none" stroke="#fe5e00" stroke-opacity=".827" stroke-width=".75" d="M107.534 104.039h7.683"/>
    <path fill="none" stroke="#ffb000" stroke-opacity=".827" stroke-width=".75" d="M107.534 105.626h7.683"/>
    <text xml:space="preserve" x="107.231" y="99.919" stroke-width=".265" font-family="sans-serif" font-size="2.469" font-weight="400" style="line-height:1.25"><tspan x="107.231" y="99.919" font-family="Open Sans" font-weight="700" style="-inkscape-font-specification:&quot;Open Sans Bold&quot;">Communication Paths</tspan></text>
    <text xml:space="preserve" x="35.79" y="99.826" stroke-width=".265" font-family="sans-serif" font-size="2.469" font-weight="400" style="line-height:1.25"><tspan x="35.79" y="99.826" font-family="Open Sans" font-weight="700" style="-inkscape-font-specification:&quot;Open Sans Bold&quot;">System Components</tspan></text>
    <g transform="translate(255.36 -16.545)">
      <rect width="4.627" height="4.514" x="-219.583" y="118.805" fill="#ca2171" fill-rule="evenodd" rx=".141" ry=".141"/>
      <g fill="#fff" stroke-width=".447" transform="translate(-226.449 115.694)scale(.12867)">
        <use xlink:href="#a" fill-rule="evenodd" clip-rule="evenodd" opacity=".7"/>
        <use xlink:href="#b" fill-rule="evenodd" clip-rule="evenodd"/>
        <use xlink:href="#c"/>
      </g>
      <use xlink:href="#d" fill="none" fill-rule="evenodd" clip-rule="evenodd" transform="translate(-218.056 120.31)scale(.07867)"/>
      <text xml:space="preserve" x="-218.719" y="122.732" fill="#fff" stroke-width=".033" font-family="Open Sans" font-size=".785" style="line-height:1.25;-inkscape-font-specification:&quot;Open Sans, Normal&quot;;font-variant-ligatures:none"><tspan x="-218.719" y="122.732">LEADER</tspan></text>
    </g>
    <text xml:space="preserve" x="42.022" y="105.455" stroke-width=".179" font-family="sans-serif" font-size="2.518" font-weight="400" style="line-height:1.25"><tspan x="42.022" y="105.455" font-family="Open Sans" style="-inkscape-font-specification:&quot;Open Sans&quot;">Consul Server: Leader</tspan></text>
    <text xml:space="preserve" x="116.929" y="104.696" stroke-width=".179" font-family="Open Sans" font-size="2.518" font-weight="400" style="line-height:1.25;-inkscape-font-specification:&quot;Open Sans&quot;"><tspan x="116.929" y="104.696" style="-inkscape-font-specification:&quot;Open Sans&quot;">Control Plane</tspan></text>
    <g transform="translate(258.908 -12.744)">
      <circle cx="-222.019" cy="104.133" r="1.205" fill="#fff" stroke="#ffb000" stroke-linecap="round" stroke-width=".4"/>
      <text xml:space="preserve" x="-222.025" y="104.833" fill="#ffb000" stroke-width=".081" font-family="Open Sans" font-size="1.934" style="line-height:1.25;-inkscape-font-specification:&quot;Open Sans, Normal&quot;;font-variant-ligatures:none"><tspan x="-222.025" y="104.833" font-weight="700" style="text-align:center" text-anchor="middle">1</tspan></text>
    </g>
    <text xml:space="preserve" x="39.166" y="92.144" stroke-width=".105" font-family="Open Sans" font-size="2.518" style="line-height:1.25;-inkscape-font-specification:&quot;Open Sans, Normal&quot;;font-variant-ligatures:none"><tspan x="39.166" y="92.144">client may contact any server agent</tspan></text>
    <g transform="translate(-82.252 -5.768)">
      <rect width="10.27" height="10.02" x="136.948" y="82.453" fill="#ca2171" fill-rule="evenodd" rx=".313" ry=".313"/>
      <g fill="#fff" stroke-width=".447" transform="translate(121.707 75.547)scale(.28562)">
        <use xlink:href="#a" fill-rule="evenodd" clip-rule="evenodd" opacity=".7"/>
        <use xlink:href="#b" fill-rule="evenodd" clip-rule="evenodd"/>
        <use xlink:href="#c"/>
      </g>
      <text xml:space="preserve" x="137.47" y="91.169" fill="#fff" stroke-width=".073" font-family="Open Sans" font-size="1.743" style="line-height:1.25;-inkscape-font-specification:&quot;Open Sans, Normal&quot;;font-variant-ligatures:none"><tspan x="137.47" y="91.169">FOLLOWER</tspan></text>
    </g>
    <g transform="translate(-82.252 -28.52)">
      <rect width="10.27" height="10.02" x="136.948" y="82.453" fill="#ca2171" fill-rule="evenodd" rx=".313" ry=".313"/>
      <g fill="#fff" stroke-width=".447" transform="translate(121.707 75.547)scale(.28562)">
        <use xlink:href="#a" fill-rule="evenodd" clip-rule="evenodd" opacity=".7"/>
        <use xlink:href="#b" fill-rule="evenodd" clip-rule="evenodd"/>
        <use xlink:href="#c"/>
      </g>
      <text xml:space="preserve" x="137.47" y="91.169" fill="#fff" stroke-width=".073" font-family="Open Sans" font-size="1.743" style="line-height:1.25;-inkscape-font-specification:&quot;Open Sans, Normal&quot;;font-variant-ligatures:none"><tspan x="137.47" y="91.169">FOLLOWER</tspan></text>
    </g>
    <g transform="translate(-41.004 -15.177)">
      <rect width="10.27" height="10.02" x="114.986" y="80.485" fill="#ca2171" fill-rule="evenodd" rx=".313" ry=".313"/>
      <g fill="#fff" stroke-width=".447" transform="translate(99.744 73.58)scale(.28562)">
        <use xlink:href="#a" fill-rule="evenodd" clip-rule="evenodd" opacity=".7"/>
        <use xlink:href="#b" fill-rule="evenodd" clip-rule="evenodd"/>
        <use xlink:href="#c"/>
      </g>
      <use xlink:href="#d" fill="none" fill-rule="evenodd" clip-rule="evenodd" transform="translate(118.375 83.827)scale(.17463)"/>
      <text xml:space="preserve" x="116.902" y="89.201" fill="#fff" stroke-width=".073" font-family="Open Sans" font-size="1.743" style="line-height:1.25;-inkscape-font-specification:&quot;Open Sans, Normal&quot;;font-variant-ligatures:none"><tspan x="116.902" y="89.201">LEADER</tspan></text>
    </g>
    <rect width="14.358" height="3" x="121.467" y="75.729" fill="#eee" paint-order="markers stroke fill" ry="0"/>
    <rect width="10.727" height="3" x="121.467" y="63.4" fill="#eee" paint-order="markers stroke fill" ry="0"/>
    <rect width="7.219" height="3" x="121.467" y="59.871" fill="#eee" paint-order="markers stroke fill" ry="0"/>
    <text xml:space="preserve" x="121.962" y="78.065" fill="#bacdff" stroke-width=".132" font-family="Open Sans" font-size="2.518" style="line-height:1.25;-inkscape-font-specification:&quot;Open Sans, Normal&quot;;font-variant-ligatures:none"><tspan x="121.962" y="78.065" font-weight="400" style="-inkscape-font-specification:&quot;Open Sans&quot;"><tspan font-weight="700" style="-inkscape-font-specification:&quot;Open Sans&quot;;font-variant-ligatures:none;font-variant-caps:normal;font-variant-numeric:normal;font-variant-east-asian:normal">consistent</tspan>  read;</tspan><tspan x="121.962" y="81.212" font-weight="400" style="-inkscape-font-specification:&quot;Open Sans&quot;">any write</tspan></text>
    <circle cx="100.208" cy="61.75" r="2.796" fill="#ffb000"/>
    <text xml:space="preserve" x="122.007" y="62.362" fill="#ffb000" stroke-width=".132" font-family="Open Sans" font-size="2.518" style="line-height:1.25;-inkscape-font-specification:&quot;Open Sans, Normal&quot;;font-variant-ligatures:none"><tspan x="122.007" y="62.362" font-weight="400" style="-inkscape-font-specification:&quot;Open Sans&quot;"><tspan font-weight="700">stale </tspan> read</tspan></text>
    <text xml:space="preserve" x="108.092" y="86.673" stroke-width=".144" font-family="Open Sans" font-size="2.518" style="line-height:1.25;-inkscape-font-specification:&quot;Open Sans, Normal&quot;;font-variant-ligatures:none;text-align:center" text-anchor="middle"><tspan x="108.092" y="86.673" font-weight="600" style="-inkscape-font-specification:&quot;Open Sans Semi-Bold&quot;;text-align:center">Consistency</tspan></text>
    <text xml:space="preserve" x="-71.029" y="95.036" stroke-width=".144" font-family="Open Sans" font-size="2.518" style="line-height:1.25;-inkscape-font-specification:&quot;Open Sans, Normal&quot;;font-variant-ligatures:none;text-align:center" text-anchor="middle" transform="rotate(-90)"><tspan x="-71.029" y="95.036" font-weight="600" style="-inkscape-font-specification:&quot;Open Sans Semi-Bold&quot;;text-align:center">Performance</tspan></text>
    <path fill="none" stroke="#cbcbcb" stroke-dasharray=".792 .792" stroke-width=".132" d="M108.84 58.813V81.95m11.506-5.783H97.207m23.139-5.785H97.207m23.139-5.785H97.207m5.848-5.784V81.95m11.569-23.326v23.139"/>
    <rect width="23.138" height="23.138" x="97.27" y="58.813" fill="none" stroke="#000" stroke-linecap="round" stroke-width=".249" rx="0" ry="0"/>
    <text xml:space="preserve" x="117.048" y="84.805" fill="#b1b1b1" stroke-width=".11" font-family="Open Sans" font-size="2.518" style="line-height:1.25;-inkscape-font-specification:&quot;Open Sans, Normal&quot;;font-variant-ligatures:none"><tspan x="117.048" y="84.805" fill="#525252">more</tspan></text>
    <text xml:space="preserve" x="93.498" y="57.546" fill="#b1b1b1" stroke-width=".11" font-family="Open Sans" font-size="2.518" style="line-height:1.25;-inkscape-font-specification:&quot;Open Sans, Normal&quot;;font-variant-ligatures:none"><tspan x="93.498" y="57.546" fill="#525252">more</tspan></text>
    <text xml:space="preserve" x="94.709" y="84.805" fill="#b1b1b1" stroke-width=".11" font-family="Open Sans" font-size="2.518" style="line-height:1.25;-inkscape-font-specification:&quot;Open Sans, Normal&quot;;font-variant-ligatures:none"><tspan x="94.709" y="84.805" fill="#525252">less</tspan></text>
    <text xml:space="preserve" x="122.273" y="65.864" fill="#ffcdb0" stroke-width=".132" font-family="Open Sans" font-size="2.518" style="line-height:1.25;-inkscape-font-specification:&quot;Open Sans, Normal&quot;;font-variant-ligatures:none"><tspan x="122.273" y="65.864" font-weight="400" style="-inkscape-font-specification:&quot;Open Sans&quot;"><tspan font-weight="700" style="-inkscape-font-specification:&quot;Open Sans&quot;;font-variant-ligatures:none;font-variant-caps:normal;font-variant-numeric:normal;font-variant-east-asian:normal">default</tspan>  read</tspan></text>
    <text xml:space="preserve" x="92.392" y="51.557" stroke-width=".146" font-family="Open Sans" font-size="2.518" style="line-height:1.25;-inkscape-font-specification:&quot;Open Sans, Normal&quot;;font-variant-ligatures:none"><tspan x="92.392" y="51.557" font-weight="300" style="-inkscape-font-specification:&quot;Open Sans Light&quot;">TRADE-OFFS</tspan></text>
    <circle cx="117.465" cy="78.995" r="2.796" fill="#bacdff"/>
    <circle cx="114.594" cy="64.641" r="2.796" fill="#ffcdb0"/>
    <text xml:space="preserve" x="106.5" y="51.351" stroke-width=".144" font-family="Open Sans" font-size="2.518" font-weight="300" style="line-height:1.25;-inkscape-font-specification:&quot;Open Sans Light&quot;;font-variant-ligatures:none"><tspan x="106.5" y="51.351" style="-inkscape-font-specification:&quot;Open Sans Light&quot;"> | performance vs consistency</tspan></text>
    <path fill="none" stroke="#ffb000" stroke-width=".4" marker-end="url(#e)" d="M45.449 70.687h2.02l5.31 9.197h1.626"/>
    <circle cx="50.086" cy="75.291" r="1.205" fill="#fff" stroke="#ffb000" stroke-linecap="round" stroke-width=".4"/>
    <text xml:space="preserve" x="50.08" y="75.991" fill="#ffb000" stroke-width=".081" font-family="Open Sans" font-size="1.934" style="line-height:1.25;-inkscape-font-specification:&quot;Open Sans, Normal&quot;;font-variant-ligatures:none"><tspan x="50.08" y="75.991" font-weight="700" style="text-align:center" text-anchor="middle">1</tspan></text>
    <path fill="none" stroke="#ffb000" stroke-width=".4" marker-end="url(#e)" d="M45.449 69.91h2.02l5.31-9.198h1.56"/>
    <circle cx="50.086" cy="65.206" r="1.205" fill="#fff" stroke="#ffb000" stroke-linecap="round" stroke-width=".4"/>
    <text xml:space="preserve" x="50.08" y="65.907" fill="#ffb000" stroke-width=".081" font-family="Open Sans" font-size="1.934" style="line-height:1.25;-inkscape-font-specification:&quot;Open Sans, Normal&quot;;font-variant-ligatures:none"><tspan x="50.08" y="65.907" font-weight="700" style="text-align:center" text-anchor="middle">1</tspan></text>
    <path fill="none" stroke="#ffb000" stroke-width=".4" marker-end="url(#e)" d="M45.449 70.296h28.248"/>
    <circle cx="60.059" cy="70.346" r="1.205" fill="#fff" stroke="#ffb000" stroke-linecap="round" stroke-width=".4"/>
    <text xml:space="preserve" x="60.053" y="71.046" fill="#ffb000" stroke-width=".081" font-family="Open Sans" font-size="1.934" style="line-height:1.25;-inkscape-font-specification:&quot;Open Sans, Normal&quot;;font-variant-ligatures:none"><tspan x="60.053" y="71.046" font-weight="700" style="text-align:center" text-anchor="middle">1</tspan></text>
    <g transform="translate(15.583 -138.438)">
      <rect width="9.697" height="9.46" x="20.152" y="204.026" fill="none" stroke="#ca2171" stroke-width=".5" rx=".296" ry=".296"/>
      <circle cx="22.451" cy="210.872" r=".794" fill="#ca2171"/>
    </g>
  </g>
</svg>
