<svg xmlns="http://www.w3.org/2000/svg" xmlns:xlink="http://www.w3.org/1999/xlink" fill="none" stroke-linecap="square" stroke-miterlimit="10" viewBox="0 0 960 540">
  <clipPath id="a">
    <path d="M0 0h960v540H0z"/>
  </clipPath>
  <g clip-path="url(#a)">
    <path fill="#fff" fill-rule="evenodd" d="M0 0h960v540H0z"/>
    <path d="M532.607 370.577a2.72 2.72 0 0 1 2.718-2.718h93.592a2.72 2.72 0 0 1 2.718 2.718v92.395a2.72 2.72 0 0 1-2.718 2.718h-93.592a2.72 2.72 0 0 1-2.718-2.718z"/>
    <path fill="#dc477d" fill-rule="evenodd" d="M539.958 380.62a2.343 2.343 0 0 1 2.342-2.342h79.644a2.343 2.343 0 0 1 2.342 2.342v79.644a2.343 2.343 0 0 1-2.342 2.342H542.3a2.343 2.343 0 0 1-2.342-2.342z"/>
    <path fill="#fff" fill-rule="evenodd" d="M582.287 444.007c-12.99.01-23.53-10.545-23.54-23.575-.01-13.031 10.512-23.604 23.502-23.614a23.48 23.48 0 0 1 15.95 6.236l-5.581 5.858c-6.334-5.741-16.109-5.245-21.832 1.109-5.724 6.353-5.23 16.158 1.105 21.9a15.42 15.42 0 0 0 20.727 0l5.581 5.858a23.4 23.4 0 0 1-15.912 6.228m18.927-11.802a1.93 1.93 0 0 1-1.928-1.934 1.93 1.93 0 0 1 1.928-1.934 1.93 1.93 0 0 1 1.928 1.934 1.935 1.935 0 0 1-1.928 1.934"/>
    <path fill="#fff" fill-rule="evenodd" d="M582.137 425.525c-2.813 0-5.092-2.287-5.092-5.108 0-2.822 2.28-5.109 5.092-5.109s5.092 2.287 5.092 5.109a5.104 5.104 0 0 1-5.092 5.108m21.283.073a1.93 1.93 0 0 1-1.927-1.934 1.93 1.93 0 0 1 1.928-1.934 1.93 1.93 0 0 1 1.927 1.934 1.935 1.935 0 0 1-1.927 1.934m-5.728-.22a1.93 1.93 0 0 1-1.928-1.933 1.93 1.93 0 0 1 1.928-1.934 1.93 1.93 0 0 1 1.928 1.934 1.93 1.93 0 0 1-1.928 1.933m5.727-6.279a1.93 1.93 0 0 1-1.927-1.934 1.93 1.93 0 0 1 1.928-1.934 1.93 1.93 0 0 1 1.927 1.934 1.935 1.935 0 0 1-1.927 1.934m-5.728.219a1.93 1.93 0 0 1-1.928-1.934 1.93 1.93 0 0 1 1.928-1.934 1.93 1.93 0 0 1 1.928 1.934v.005a1.93 1.93 0 0 1-1.928 1.93m3.632-6.724a1.93 1.93 0 0 1-1.932-1.93 1.93 1.93 0 0 1 1.924-1.938 1.93 1.93 0 0 1 1.932 1.93v.004a1.93 1.93 0 0 1-1.924 1.934"/>
    <path d="M532.609 464.295h99.027v38.934h-99.027z"/>
    <path fill="#000" d="M546.485 469.049q1.453 0 2.484.828 1.031.813 1.203 2.25h-1.812q-.125-.672-.672-1.078-.547-.422-1.203-.422-1.11 0-1.72.813-.609.796-.609 2.125 0 1.265.594 2.062.61.797 1.735.797.812 0 1.312-.5.516-.5.625-1.406h1.828q-.156 1.625-1.187 2.562-1.016.938-2.578.938-1.235 0-2.204-.563-.968-.562-1.5-1.594-.515-1.03-.515-2.296 0-1.97 1.156-3.235 1.156-1.281 3.063-1.281m7.879 2.39q1.468 0 2.343.907.875.89.875 2.375t-.89 2.375q-.875.89-2.328.89-1.438 0-2.329-.89-.875-.906-.875-2.375t.86-2.375q.875-.906 2.344-.906m-1.5 3.282q0 .984.406 1.484t1.094.5q.734 0 1.125-.515.39-.532.39-1.47 0-.921-.39-1.452-.375-.547-1.125-.547-.688 0-1.094.5t-.406 1.5m9.376-3.281q1.188 0 1.72.609.546.594.546 1.89v3.876h-1.703v-3.563q0-.719-.25-1.094t-.844-.375q-.703 0-1.015.422-.313.422-.313 1.297v3.313h-1.687v-6.204h1.609v.86h.031q.313-.5.813-.766.5-.265 1.093-.265m6.098 0q1.266 0 1.953.5.703.5.797 1.484h-1.625q-.047-.438-.344-.64-.28-.204-.828-.204-.484 0-.719.156-.218.141-.218.422t.297.469 1.187.36q1.422.265 1.906.703.5.437.5 1.14 0 1.047-.78 1.61-.767.546-2.048.546-1.297 0-2.078-.546-.781-.547-.844-1.641h1.625q0 .484.375.766.375.28.938.28.5 0 .797-.218.312-.219.312-.578 0-.328-.406-.531-.39-.203-1.469-.422-1.078-.219-1.547-.61-.468-.39-.468-1.062 0-.984.687-1.484.703-.5 2-.5m5.602.171v3.547q0 .703.25 1.094.25.39.86.39.702 0 1-.421.312-.438.312-1.297v-3.313h1.703v6.204h-1.625v-.86h-.032q-.328.516-.843.781-.5.25-1.063.25-1.156 0-1.703-.593-.547-.594-.547-1.907v-3.875zm7.175-2.359v8.563h-1.703v-8.563zm7.803-.203q1.547 0 2.485.719.937.718.937 2.03h-1.812q-.047-.64-.454-.968-.39-.328-1.234-.328-.578 0-.953.266-.36.25-.36.718 0 .313.157.47.156.155.625.343.469.172 2.062.547 1.063.25 1.657.875.609.61.609 1.547 0 1.25-.938 2t-2.625.75q-1.609 0-2.64-.797-1.016-.797-1.016-2.203v-.047h1.828q0 .797.516 1.187.531.39 1.375.39.766 0 1.219-.265.453-.281.453-.797 0-.421-.36-.687-.343-.266-1.109-.453-.984-.219-1.781-.469t-1.328-.812-.532-1.438q0-1.156.922-1.86.938-.718 2.297-.718m7.522 2.39q1.375 0 2.203.954.828.937.828 2.422l-.016.312h-4.484q.047.797.422 1.188.39.39 1.094.39.468 0 .859-.234.39-.25.5-.578h1.5q-.344 1.047-1.063 1.578-.718.515-1.843.515-1.438 0-2.313-.906-.86-.906-.86-2.36 0-1.39.891-2.327.891-.953 2.282-.953m-1.47 2.61h2.782q-.125-.688-.453-1-.312-.328-.922-.328t-.984.36q-.36.343-.422.968m9.11-2.61q.11 0 .203.016t.172.047v1.578q-.14-.031-.28-.031-.142-.016-.33-.016-.858 0-1.28.532-.407.515-.407 1.406v2.844h-1.687v-6.204h1.61v1.157h.03q.266-.61.797-.97.547-.358 1.172-.358m2.395.172 1.312 4.235h.032l1.296-4.235h1.704l-2.11 6.204h-1.89l-2.125-6.204zm7.912-.171q1.375 0 2.203.953.828.937.828 2.422l-.015.312h-4.485q.047.797.422 1.188.39.39 1.094.39.469 0 .86-.234.39-.25.5-.578h1.5q-.345 1.047-1.063 1.578-.72.515-1.844.515-1.438 0-2.313-.906-.859-.906-.859-2.36 0-1.39.89-2.327.891-.953 2.282-.953m-1.469 2.609h2.781q-.125-.688-.453-1-.312-.328-.922-.328-.609 0-.984.36-.36.343-.422.968m9.11-2.61q.109 0 .203.016.093.016.172.047v1.578q-.141-.031-.282-.031-.14-.016-.328-.016-.86 0-1.281.532-.406.515-.406 1.406v2.844h-1.688v-6.204h1.61v1.157h.03q.266-.61.798-.97.547-.358 1.172-.358m-64.209 11.606q-.641 1.187-.985 2.578-.328 1.39-.328 2.86 0 1.468.313 2.843.312 1.36.984 2.672h-1.422q-.766-1.281-1.172-2.672-.406-1.39-.406-2.734 0-1.39.406-2.906t1.172-2.641zm6.754.203v1.578h-4.125v1.985h3.578v1.453h-3.578v3.547h-1.891v-8.563zm3.421 2.188q1.47 0 2.344.906.875.89.875 2.375t-.89 2.375q-.875.89-2.329.89-1.437 0-2.328-.89-.875-.906-.875-2.375t.86-2.375q.875-.906 2.343-.906m-1.5 3.28q0 .985.407 1.485t1.093.5q.735 0 1.125-.515.391-.532.391-1.47 0-.921-.39-1.452-.376-.547-1.126-.547-.687 0-1.093.5-.407.5-.407 1.5m7.58-5.468v8.563h-1.703v-8.563zm3.094 0v8.563h-1.703v-8.563zm4.344 2.188q1.469 0 2.344.906.875.89.875 2.375t-.89 2.375q-.876.89-2.329.89-1.438 0-2.328-.89-.875-.906-.875-2.375t.86-2.375q.874-.906 2.343-.906m-1.5 3.28q0 .985.406 1.485t1.094.5q.734 0 1.125-.515.39-.532.39-1.47 0-.921-.39-1.452-.375-.547-1.125-.547-.688 0-1.094.5t-.406 1.5m7.049-3.109 1.14 4.204h.016l1.031-4.204h1.657l1.062 4.204h.016l1.156-4.204h1.75l-1.969 6.204h-1.75l-1.094-4.172h-.03l-1.063 4.172h-1.75l-1.97-6.204zm11.408-.171q1.375 0 2.203.953.828.937.828 2.422l-.015.312H597q.047.797.422 1.188.39.39 1.094.39.469 0 .86-.234.39-.25.5-.578h1.5q-.345 1.047-1.063 1.578-.719.515-1.844.515-1.438 0-2.313-.906-.859-.906-.859-2.36 0-1.39.89-2.327.891-.953 2.282-.953M597 488.051h2.781q-.125-.688-.453-1-.312-.328-.922-.328-.609 0-.984.36-.36.343-.422.968m9.11-2.61q.109 0 .203.016.093.016.172.047v1.578q-.141-.031-.282-.031-.14-.016-.328-.016-.86 0-1.281.532-.406.515-.406 1.406v2.844H602.5v-6.204h1.61v1.157h.03q.266-.61.798-.97.547-.358 1.172-.358m1.748-2.39q.78 1.266 1.187 2.656.406 1.39.406 2.75 0 1.375-.421 2.906-.407 1.516-1.172 2.641h-1.422q.656-1.25.969-2.61.328-1.374.328-2.812 0-1.5-.328-2.875-.313-1.39-.97-2.656z"/>
    <path fill="#dc477d" fill-rule="evenodd" d="M669.677 238.007a2.343 2.343 0 0 1 2.343-2.343h79.643a2.343 2.343 0 0 1 2.343 2.343v79.643a2.343 2.343 0 0 1-2.343 2.343H672.02a2.343 2.343 0 0 1-2.343-2.343z"/>
    <path fill="#fff" fill-rule="evenodd" d="M712.007 301.394c-12.99.01-23.53-10.545-23.54-23.576-.01-13.03 10.511-23.603 23.501-23.614a23.48 23.48 0 0 1 15.95 6.237l-5.58 5.858c-6.335-5.742-16.11-5.246-21.833 1.108s-5.229 16.16 1.105 21.9a15.42 15.42 0 0 0 20.727 0l5.582 5.858a23.4 23.4 0 0 1-15.912 6.229m18.926-11.802a1.93 1.93 0 0 1-1.928-1.934 1.93 1.93 0 0 1 1.928-1.934 1.93 1.93 0 0 1 1.928 1.934 1.935 1.935 0 0 1-1.928 1.934"/>
    <path fill="#fff" fill-rule="evenodd" d="M711.856 282.912c-2.812 0-5.092-2.288-5.092-5.109s2.28-5.108 5.092-5.108c2.813 0 5.093 2.287 5.093 5.108-.003 2.82-2.281 5.106-5.093 5.109m21.284.073a1.93 1.93 0 0 1-1.928-1.934 1.93 1.93 0 0 1 1.928-1.934 1.93 1.93 0 0 1 1.928 1.934 1.935 1.935 0 0 1-1.928 1.934m-5.728-.22a1.93 1.93 0 0 1-1.928-1.934 1.93 1.93 0 0 1 1.928-1.934 1.93 1.93 0 0 1 1.928 1.934 1.93 1.93 0 0 1-1.928 1.934m5.728-6.28a1.93 1.93 0 0 1-1.928-1.934 1.93 1.93 0 0 1 1.928-1.934 1.93 1.93 0 0 1 1.928 1.934 1.935 1.935 0 0 1-1.928 1.934m-5.728.22a1.93 1.93 0 0 1-1.928-1.934c0-1.068.864-1.934 1.928-1.934a1.93 1.93 0 0 1 1.928 1.934v.004a1.93 1.93 0 0 1-1.928 1.93m3.633-6.724a1.93 1.93 0 0 1-1.932-1.93 1.93 1.93 0 0 1 1.923-1.937 1.93 1.93 0 0 1 1.932 1.93v.004a1.93 1.93 0 0 1-1.923 1.933"/>
    <path d="M662.328 321.681h99.027v38.934h-99.027z"/>
    <path fill="#000" d="M676.204 326.436q1.453 0 2.485.828 1.03.812 1.203 2.25h-1.813q-.125-.672-.672-1.078-.547-.422-1.203-.422-1.11 0-1.719.812-.609.797-.609 2.125 0 1.266.594 2.063.61.797 1.734.797.813 0 1.313-.5.515-.5.625-1.407h1.828q-.156 1.625-1.188 2.563-1.015.937-2.578.937-1.234 0-2.203-.562t-1.5-1.594q-.516-1.031-.516-2.297 0-1.969 1.157-3.234 1.156-1.281 3.062-1.281m7.88 2.39q1.468 0 2.343.906.875.891.875 2.375 0 1.485-.89 2.375-.876.891-2.329.891-1.437 0-2.328-.89-.875-.907-.875-2.376t.86-2.375q.874-.906 2.343-.906m-1.5 3.281q0 .985.405 1.485.407.5 1.094.5.734 0 1.125-.516.39-.531.39-1.469 0-.921-.39-1.453-.375-.547-1.125-.547-.687 0-1.094.5-.406.5-.406 1.5m9.376-3.28q1.188 0 1.719.609.547.593.547 1.89v3.875h-1.703v-3.562q0-.719-.25-1.094t-.844-.375q-.703 0-1.016.422-.312.422-.312 1.297v3.312h-1.688v-6.203h1.61v.86h.03q.313-.5.813-.766t1.094-.266m6.098 0q1.265 0 1.953.5.703.5.797 1.484h-1.625q-.047-.438-.344-.641-.281-.203-.828-.203-.485 0-.719.156-.219.14-.219.422t.297.469 1.188.36q1.422.265 1.906.702.5.438.5 1.14 0 1.048-.781 1.61-.766.547-2.047.547-1.297 0-2.078-.547-.782-.547-.844-1.64h1.625q0 .484.375.765t.937.281q.5 0 .797-.218.313-.219.313-.578 0-.329-.406-.532-.391-.203-1.47-.422-1.077-.218-1.546-.609-.469-.39-.469-1.062 0-.985.688-1.485.703-.5 2-.5m5.601.171v3.547q0 .703.25 1.094.25.39.86.39.703 0 1-.422.312-.437.312-1.296v-3.313h1.703v6.203h-1.625v-.86h-.031q-.328.516-.844.782-.5.25-1.062.25-1.157 0-1.703-.594-.547-.593-.547-1.906v-3.875zm7.176-2.36v8.563h-1.703v-8.562zm7.803-.202q1.547 0 2.484.718.938.72.938 2.032h-1.813q-.047-.641-.453-.97-.39-.327-1.234-.327-.578 0-.953.265-.36.25-.36.72 0 .312.156.468.157.156.625.344.47.171 2.063.546 1.062.25 1.656.875.61.61.61 1.547 0 1.25-.938 2t-2.625.75q-1.61 0-2.64-.797-1.016-.796-1.016-2.203v-.047h1.828q0 .797.516 1.188.53.39 1.375.39.765 0 1.218-.265.453-.281.453-.797 0-.422-.359-.687-.344-.266-1.11-.454-.984-.218-1.78-.468-.797-.25-1.329-.813t-.531-1.437q0-1.157.922-1.86.937-.718 2.297-.718m7.521 2.39q1.375 0 2.203.953.828.938.828 2.422l-.015.313h-4.485q.047.797.422 1.187.391.39 1.094.39.469 0 .86-.234.39-.25.5-.578h1.5q-.344 1.047-1.063 1.578-.719.516-1.844.516-1.437 0-2.312-.906-.86-.906-.86-2.36 0-1.39.891-2.328.89-.953 2.281-.953m-1.469 2.61h2.782q-.125-.688-.453-1-.313-.329-.922-.329-.61 0-.985.36-.359.344-.422.969m9.11-2.61q.11 0 .203.016.094.015.172.047v1.578q-.14-.031-.281-.031-.141-.016-.329-.016-.859 0-1.28.531-.407.516-.407 1.406v2.844h-1.688v-6.203h1.61v1.156h.031q.266-.609.797-.968.547-.36 1.172-.36m2.394.172 1.313 4.234h.031l1.297-4.234h1.703l-2.11 6.203h-1.89l-2.125-6.203zm7.913-.172q1.375 0 2.203.953.828.938.828 2.422l-.016.313h-4.484q.047.797.422 1.187.39.39 1.093.39.47 0 .86-.234.39-.25.5-.578h1.5q-.344 1.047-1.063 1.578-.718.516-1.843.516-1.438 0-2.313-.906-.86-.906-.86-2.36 0-1.39.891-2.328.89-.953 2.282-.953m-1.47 2.61h2.782q-.125-.688-.453-1-.313-.329-.922-.329-.61 0-.984.36-.36.344-.422.969m9.11-2.61q.11 0 .203.016.094.015.172.047v1.578q-.14-.031-.281-.031-.14-.016-.328-.016-.86 0-1.281.531-.407.516-.407 1.406v2.844h-1.687v-6.203h1.61v1.156h.03q.266-.609.797-.968.547-.36 1.172-.36m-59.598 11.612q-.641 1.187-.985 2.578-.328 1.39-.328 2.86 0 1.468.313 2.843.312 1.36.984 2.672h-1.422q-.766-1.282-1.172-2.672t-.406-2.735q0-1.39.406-2.906.406-1.515 1.172-2.64zm2.628.203v6.984h4.172v1.578h-6.062v-8.562zm7.694 2.187q1.375 0 2.203.953.828.938.828 2.422l-.016.313h-4.484q.047.797.422 1.187.39.39 1.094.39.468 0 .859-.234.39-.25.5-.578h1.5q-.344 1.047-1.062 1.578-.72.516-1.844.516-1.438 0-2.313-.906-.86-.906-.86-2.36 0-1.39.892-2.328.89-.953 2.28-.953m-1.469 2.61h2.781q-.125-.688-.453-1-.312-.329-.922-.329t-.984.36q-.36.344-.422.969m8.344-2.61q1.375 0 2.047.453t.672 1.282v3.328q0 .375.046.75.047.375.172.562h-1.734q-.047-.14-.078-.281-.031-.156-.047-.313-.36.375-.89.579-.516.187-1.188.187-.969 0-1.547-.484-.563-.485-.563-1.375 0-.875.532-1.328.547-.47 1.968-.625.985-.094 1.297-.235.328-.156.328-.531 0-.406-.25-.61-.234-.218-.843-.218-.532 0-.813.234-.281.219-.328.703h-1.703q.062-1.015.828-1.547.781-.53 2.094-.53m-1.406 4.61q0 .375.25.593.25.203.796.203.672 0 1.016-.359.36-.36.36-1.047v-.656q-.157.125-.407.187-.25.047-.89.141-.594.078-.86.313-.265.218-.265.625m11.5-6.797v8.562h-1.625v-.797h-.032q-.265.485-.75.735-.484.234-1.125.234-1.265 0-2.031-.937-.75-.938-.75-2.391 0-1.39.734-2.297.75-.922 2.016-.922.578 0 1.047.235.484.234.781.687h.031v-3.11zm-4.61 5.453q0 .86.39 1.437.407.563 1.11.563t1.078-.516q.375-.531.375-1.5 0-.906-.375-1.437-.36-.532-1.093-.532-.704 0-1.094.532-.39.531-.39 1.453m8.752-3.266q1.375 0 2.203.953.828.938.828 2.422l-.015.313h-4.485q.047.797.422 1.187.39.39 1.094.39.469 0 .86-.234.39-.25.5-.578h1.5q-.344 1.047-1.063 1.578-.719.516-1.844.516-1.437 0-2.312-.906-.86-.906-.86-2.36 0-1.39.89-2.328.891-.953 2.282-.953m-1.469 2.61h2.782q-.125-.688-.454-1-.312-.329-.921-.329-.61 0-.985.36-.36.344-.422.969m9.11-2.61q.11 0 .203.016.094.015.172.047v1.578q-.14-.031-.282-.031-.14-.016-.328-.016-.859 0-1.28.531-.407.516-.407 1.406v2.844h-1.688v-6.203h1.61v1.156h.031q.266-.609.797-.968.547-.36 1.172-.36m1.748-2.39q.781 1.265 1.187 2.656.407 1.39.407 2.75 0 1.375-.422 2.906-.407 1.516-1.172 2.64h-1.422q.656-1.25.969-2.609.328-1.375.328-2.812 0-1.5-.328-2.875-.313-1.39-.97-2.656z"/>
    <path d="M662.328 233.585a2.72 2.72 0 0 1 2.718-2.718h93.592a2.72 2.72 0 0 1 2.717 2.718v92.395a2.72 2.72 0 0 1-2.717 2.718h-93.592a2.72 2.72 0 0 1-2.718-2.718zM535.51 113.722a2.72 2.72 0 0 1 2.718-2.718h93.591a2.72 2.72 0 0 1 2.718 2.718v92.396a2.72 2.72 0 0 1-2.718 2.717h-93.591a2.72 2.72 0 0 1-2.718-2.717z"/>
    <path fill="#dc477d" fill-rule="evenodd" d="M539.442 85.421a2.343 2.343 0 0 1 2.343-2.342h79.643a2.343 2.343 0 0 1 2.343 2.342v79.644a2.343 2.343 0 0 1-2.343 2.342h-79.643a2.343 2.343 0 0 1-2.343-2.342z"/>
    <path fill="#fff" fill-rule="evenodd" d="M581.771 148.808c-12.99.01-23.529-10.545-23.54-23.576-.01-13.03 10.512-23.603 23.502-23.613a23.48 23.48 0 0 1 15.95 6.236l-5.581 5.858c-6.334-5.741-16.108-5.245-21.832 1.109-5.723 6.353-5.229 16.158 1.105 21.9a15.42 15.42 0 0 0 20.727 0l5.582 5.858a23.4 23.4 0 0 1-15.913 6.228m18.927-11.802a1.93 1.93 0 0 1-1.928-1.934 1.93 1.93 0 0 1 1.928-1.934 1.93 1.93 0 0 1 1.928 1.934 1.935 1.935 0 0 1-1.928 1.934"/>
    <path fill="#fff" fill-rule="evenodd" d="M581.621 130.326c-2.812 0-5.092-2.287-5.092-5.108 0-2.822 2.28-5.109 5.092-5.109 2.813 0 5.092 2.287 5.092 5.109a5.104 5.104 0 0 1-5.092 5.108m21.284.074a1.93 1.93 0 0 1-1.928-1.935 1.93 1.93 0 0 1 1.928-1.934 1.93 1.93 0 0 1 1.928 1.934 1.935 1.935 0 0 1-1.928 1.934m-5.728-.219a1.93 1.93 0 0 1-1.928-1.934 1.93 1.93 0 0 1 1.928-1.934 1.93 1.93 0 0 1 1.928 1.934 1.93 1.93 0 0 1-1.928 1.933m5.728-6.279a1.93 1.93 0 0 1-1.928-1.934 1.93 1.93 0 0 1 1.928-1.934 1.93 1.93 0 0 1 1.928 1.934 1.935 1.935 0 0 1-1.928 1.934m-5.728.22a1.93 1.93 0 0 1-1.928-1.935 1.93 1.93 0 0 1 1.928-1.934 1.93 1.93 0 0 1 1.928 1.934v.005a1.93 1.93 0 0 1-1.928 1.93m3.633-6.724a1.93 1.93 0 0 1-1.933-1.93 1.93 1.93 0 0 1 1.924-1.938 1.93 1.93 0 0 1 1.932 1.93v.004a1.93 1.93 0 0 1-1.923 1.934"/>
    <path d="M532.093 169.096h99.027v38.934h-99.027z"/>
    <path fill="#000" d="M545.969 173.85q1.453 0 2.484.828 1.032.813 1.204 2.25h-1.813q-.125-.672-.672-1.078-.547-.422-1.203-.422-1.11 0-1.719.813-.61.796-.61 2.125 0 1.265.595 2.062.609.797 1.734.797.813 0 1.313-.5.515-.5.625-1.406h1.828q-.157 1.625-1.188 2.562-1.015.938-2.578.938-1.234 0-2.203-.563t-1.5-1.594q-.516-1.03-.516-2.296 0-1.97 1.157-3.235 1.156-1.281 3.062-1.281m7.879 2.39q1.469 0 2.344.907.875.89.875 2.375t-.891 2.375q-.875.89-2.328.89-1.438 0-2.328-.89-.875-.906-.875-2.375t.86-2.375q.874-.906 2.343-.906m-1.5 3.282q0 .984.406 1.484t1.094.5q.734 0 1.125-.515.39-.532.39-1.47 0-.921-.39-1.452-.375-.547-1.125-.547-.688 0-1.094.5t-.406 1.5m9.377-3.281q1.187 0 1.719.609.546.594.546 1.89v3.876h-1.703v-3.563q0-.719-.25-1.094t-.843-.375q-.704 0-1.016.422t-.313 1.297v3.313h-1.687v-6.204h1.61v.86h.03q.313-.5.813-.766.5-.265 1.094-.265m6.098 0q1.265 0 1.953.5.703.5.797 1.484h-1.625q-.047-.438-.344-.64-.281-.204-.828-.204-.485 0-.72.156-.218.141-.218.422t.297.469 1.188.36q1.421.265 1.906.703.5.437.5 1.14 0 1.047-.781 1.61-.766.546-2.047.546-1.297 0-2.078-.546-.782-.547-.844-1.641h1.625q0 .484.375.766.375.28.937.28.5 0 .797-.218.313-.219.313-.578 0-.328-.407-.531-.39-.203-1.468-.422t-1.547-.61-.469-1.062q0-.984.688-1.484.703-.5 2-.5m5.601.171v3.547q0 .703.25 1.094.25.39.86.39.703 0 1-.421.312-.438.312-1.297v-3.313h1.703v6.204h-1.625v-.86h-.031q-.328.516-.844.781-.5.25-1.062.25-1.157 0-1.704-.593-.546-.594-.546-1.907v-3.875zm7.176-2.359v8.563h-1.703v-8.563zm7.803-.203q1.546 0 2.484.719.937.718.937 2.03h-1.812q-.047-.64-.453-.968-.39-.328-1.235-.328-.578 0-.953.266-.359.25-.359.718 0 .313.156.47.156.155.625.343.469.172 2.063.547 1.062.25 1.656.875.61.61.61 1.547 0 1.25-.938 2t-2.625.75q-1.61 0-2.64-.797-1.016-.797-1.016-2.203v-.047h1.828q0 .797.515 1.187.532.39 1.375.39.766 0 1.22-.265.452-.281.452-.797 0-.421-.36-.687-.343-.266-1.109-.453-.984-.219-1.78-.469-.798-.25-1.329-.812t-.531-1.438q0-1.156.922-1.86.937-.718 2.297-.718m7.521 2.39q1.375 0 2.203.954.828.937.828 2.422l-.015.312h-4.485q.047.797.422 1.188.39.39 1.094.39.469 0 .86-.234.39-.25.5-.578h1.5q-.344 1.047-1.063 1.578-.719.515-1.844.515-1.437 0-2.312-.906-.86-.906-.86-2.36 0-1.39.89-2.327.891-.953 2.282-.953m-1.469 2.61h2.782q-.125-.688-.454-1-.312-.328-.921-.328-.61 0-.985.36-.36.343-.422.968m9.11-2.61q.11 0 .203.016t.172.047v1.578q-.14-.031-.282-.031-.14-.016-.328-.016-.859 0-1.28.532-.407.515-.407 1.406v2.844h-1.688v-6.204h1.61v1.157h.031q.266-.61.797-.97.547-.358 1.172-.358m2.394.172 1.313 4.235h.031l1.297-4.235h1.703l-2.11 6.204h-1.89l-2.125-6.204zm7.912-.171q1.375 0 2.203.953.829.937.829 2.422l-.016.312h-4.484q.046.797.421 1.188.391.39 1.094.39.469 0 .86-.234.39-.25.5-.578h1.5q-.344 1.047-1.063 1.578-.719.515-1.844.515-1.437 0-2.312-.906-.86-.906-.86-2.36 0-1.39.891-2.327.89-.953 2.281-.953m-1.468 2.609h2.78q-.124-.688-.452-1-.313-.328-.922-.328-.61 0-.985.36-.359.343-.421.968m9.109-2.61q.11 0 .203.016t.172.047v1.578q-.14-.031-.281-.031-.14-.016-.328-.016-.86 0-1.282.532-.406.515-.406 1.406v2.844h-1.687v-6.204h1.609v1.157h.031q.266-.61.797-.97.547-.358 1.172-.358m-64.208 11.606q-.64 1.187-.984 2.578-.329 1.39-.329 2.86 0 1.468.313 2.843.312 1.36.984 2.672h-1.422q-.765-1.281-1.171-2.672-.407-1.39-.407-2.734 0-1.39.407-2.906t1.171-2.641zm6.754.203v1.578h-4.125v1.985h3.578v1.453h-3.578v3.547h-1.89v-8.563zm3.422 2.188q1.468 0 2.343.906.875.89.875 2.375t-.89 2.375q-.875.89-2.328.89-1.438 0-2.328-.89-.875-.906-.875-2.375t.859-2.375q.875-.906 2.344-.906m-1.5 3.28q0 .985.406 1.485t1.094.5q.734 0 1.125-.515.39-.532.39-1.47 0-.921-.39-1.452-.375-.547-1.125-.547-.688 0-1.094.5t-.406 1.5m7.58-5.468v8.563h-1.703v-8.563zm3.094 0v8.563h-1.704v-8.563zm4.343 2.188q1.47 0 2.344.906.875.89.875 2.375t-.89 2.375q-.876.89-2.329.89-1.437 0-2.328-.89-.875-.906-.875-2.375t.86-2.375q.875-.906 2.343-.906m-1.5 3.28q0 .985.407 1.485t1.093.5q.735 0 1.125-.515.39-.532.39-1.47 0-.921-.39-1.452-.375-.547-1.125-.547-.687 0-1.093.5-.407.5-.407 1.5m7.05-3.109 1.14 4.204h.015l1.032-4.204h1.656l1.062 4.204h.016l1.156-4.204h1.75l-1.968 6.204h-1.75l-1.094-4.172h-.031l-1.063 4.172h-1.75l-1.969-6.204zm11.407-.171q1.375 0 2.203.953.829.937.829 2.422l-.016.312h-4.484q.046.797.421 1.188.391.39 1.094.39.469 0 .86-.234.39-.25.5-.578h1.5q-.344 1.047-1.063 1.578-.719.515-1.844.515-1.437 0-2.312-.906-.86-.906-.86-2.36 0-1.39.891-2.327.89-.953 2.281-.953m-1.468 2.609h2.78q-.124-.688-.452-1-.313-.328-.922-.328-.61 0-.985.36-.359.343-.421.968m9.109-2.61q.11 0 .203.016t.172.047v1.578q-.14-.031-.281-.031-.14-.016-.328-.016-.86 0-1.282.532-.406.515-.406 1.406v2.844h-1.687v-6.204h1.609v1.157h.031q.266-.61.797-.97.547-.358 1.172-.358m1.748-2.39q.781 1.266 1.188 2.656t.406 2.75q0 1.375-.422 2.906-.406 1.516-1.172 2.641h-1.422q.656-1.25.969-2.61.328-1.374.328-2.812 0-1.5-.328-2.875-.313-1.39-.969-2.656z"/>
    <path fill="#dc477d" fill-rule="evenodd" d="M205.764 246.688a2.343 2.343 0 0 1 2.342-2.343h79.644a2.343 2.343 0 0 1 2.342 2.343v79.643a2.343 2.343 0 0 1-2.342 2.343h-79.644a2.343 2.343 0 0 1-2.342-2.343z"/>
    <path fill="#fff" fill-rule="evenodd" d="M248.093 310.075c-12.99.01-23.53-10.545-23.54-23.576-.01-13.03 10.511-23.603 23.502-23.614a23.48 23.48 0 0 1 15.95 6.237l-5.582 5.858c-6.333-5.742-16.108-5.245-21.831 1.108-5.724 6.354-5.23 16.16 1.105 21.9a15.42 15.42 0 0 0 20.726 0l5.582 5.858a23.4 23.4 0 0 1-15.912 6.229m18.927-11.802a1.93 1.93 0 0 1-1.928-1.934 1.93 1.93 0 0 1 1.928-1.934 1.93 1.93 0 0 1 1.927 1.934 1.935 1.935 0 0 1-1.928 1.934"/>
    <path fill="#fff" fill-rule="evenodd" d="M247.943 291.593c-2.813 0-5.093-2.287-5.093-5.109 0-2.82 2.28-5.108 5.093-5.108 2.812 0 5.092 2.287 5.092 5.108-.002 2.82-2.28 5.106-5.092 5.109m21.283.073a1.93 1.93 0 0 1-1.927-1.934 1.93 1.93 0 0 1 1.927-1.934 1.93 1.93 0 0 1 1.928 1.934 1.935 1.935 0 0 1-1.928 1.934m-5.727-.22a1.93 1.93 0 0 1-1.928-1.934 1.93 1.93 0 0 1 1.928-1.934 1.93 1.93 0 0 1 1.928 1.934 1.93 1.93 0 0 1-1.928 1.934m5.727-6.28a1.93 1.93 0 0 1-1.927-1.934 1.93 1.93 0 0 1 1.927-1.934 1.93 1.93 0 0 1 1.928 1.934 1.935 1.935 0 0 1-1.928 1.934m-5.727.22a1.93 1.93 0 0 1-1.928-1.934 1.93 1.93 0 0 1 1.928-1.934 1.93 1.93 0 0 1 1.928 1.934v.004a1.93 1.93 0 0 1-1.928 1.93m3.632-6.724a1.93 1.93 0 0 1-1.932-1.93 1.93 1.93 0 0 1 1.924-1.937 1.93 1.93 0 0 1 1.932 1.93v.004a1.93 1.93 0 0 1-1.924 1.933"/>
    <path d="M198.415 330.362h99.027v38.934h-99.027z"/>
    <path fill="#000" d="M212.29 335.117q1.454 0 2.485.828 1.031.812 1.203 2.25h-1.813q-.125-.672-.671-1.078-.547-.422-1.204-.422-1.109 0-1.718.812-.61.797-.61 2.125 0 1.266.594 2.063.61.797 1.734.797.813 0 1.313-.5.516-.5.625-1.407h1.828q-.156 1.625-1.187 2.563-1.016.937-2.579.937-1.234 0-2.203-.562t-1.5-1.594q-.515-1.031-.515-2.297 0-1.969 1.156-3.234 1.156-1.281 3.062-1.281m7.88 2.39q1.468 0 2.343.906.875.891.875 2.375 0 1.485-.89 2.375-.875.891-2.329.891-1.437 0-2.328-.89-.875-.907-.875-2.376t.86-2.375q.875-.906 2.343-.906m-1.5 3.281q0 .985.406 1.485t1.093.5q.735 0 1.125-.516.391-.531.391-1.469 0-.921-.39-1.453-.376-.547-1.126-.547-.687 0-1.093.5-.407.5-.407 1.5m9.376-3.28q1.188 0 1.72.609.546.593.546 1.89v3.875h-1.703v-3.562q0-.719-.25-1.094t-.844-.375q-.703 0-1.016.422-.312.422-.312 1.297v3.312h-1.688v-6.203h1.61v.86h.031q.313-.5.813-.766t1.093-.266m6.098 0q1.266 0 1.953.5.703.5.797 1.484h-1.625q-.047-.438-.344-.641-.281-.203-.828-.203-.484 0-.719.156-.218.14-.218.422t.296.469 1.188.36q1.422.265 1.906.702.5.438.5 1.14 0 1.048-.781 1.61-.766.547-2.047.547-1.297 0-2.078-.547t-.844-1.64h1.625q0 .484.375.765t.938.281q.5 0 .797-.218.312-.219.312-.578 0-.329-.406-.532-.39-.203-1.469-.422-1.078-.218-1.547-.609-.469-.39-.469-1.062 0-.985.688-1.485.703-.5 2-.5m5.602.171v3.547q0 .703.25 1.094.25.39.859.39.703 0 1-.422.312-.437.312-1.296v-3.313h1.704v6.203h-1.625v-.86h-.032q-.328.516-.843.782-.5.25-1.063.25-1.156 0-1.703-.594-.547-.593-.547-1.906v-3.875zm7.175-2.36v8.563h-1.703v-8.562zm7.803-.202q1.547 0 2.484.718.938.72.938 2.032h-1.813q-.046-.641-.453-.97-.39-.327-1.234-.327-.578 0-.953.265-.36.25-.36.72 0 .312.157.468.156.156.625.344.468.171 2.062.546 1.063.25 1.656.875.61.61.61 1.547 0 1.25-.938 2t-2.625.75q-1.61 0-2.64-.797-1.016-.796-1.016-2.203v-.047h1.828q0 .797.516 1.188.531.39 1.375.39.765 0 1.219-.265.453-.281.453-.797 0-.422-.36-.687-.343-.266-1.11-.454-.983-.218-1.78-.468t-1.328-.813q-.532-.562-.532-1.437 0-1.157.922-1.86.938-.718 2.297-.718m7.522 2.39q1.375 0 2.203.953.828.938.828 2.422l-.016.313h-4.484q.047.797.422 1.187.39.39 1.093.39.47 0 .86-.234.39-.25.5-.578h1.5q-.344 1.047-1.063 1.578-.718.516-1.843.516-1.438 0-2.313-.906-.86-.906-.86-2.36 0-1.39.891-2.328.89-.953 2.282-.953m-1.47 2.61h2.782q-.125-.688-.453-1-.313-.329-.922-.329-.61 0-.984.36-.36.344-.422.969m9.11-2.61q.11 0 .203.016.094.015.172.047v1.578q-.14-.031-.281-.031-.14-.016-.328-.016-.86 0-1.281.531-.407.516-.407 1.406v2.844h-1.687v-6.203h1.61v1.156h.03q.266-.609.797-.968.547-.36 1.172-.36m2.395.172 1.312 4.234h.031l1.297-4.234h1.703l-2.109 6.203h-1.89l-2.126-6.203zm7.912-.172q1.375 0 2.203.953.828.938.828 2.422l-.016.313h-4.484q.047.797.422 1.187.39.39 1.094.39.468 0 .86-.234.39-.25.5-.578h1.5q-.345 1.047-1.063 1.578-.72.516-1.844.516-1.438 0-2.313-.906-.859-.906-.859-2.36 0-1.39.89-2.328.891-.953 2.282-.953m-1.469 2.61h2.781q-.125-.688-.453-1-.312-.329-.922-.329-.609 0-.984.36-.36.344-.422.969m9.11-2.61q.109 0 .203.016.093.015.171.047v1.578q-.14-.031-.28-.031-.141-.016-.329-.016-.86 0-1.281.531-.406.516-.406 1.406v2.844h-1.688v-6.203h1.61v1.156h.03q.266-.609.798-.968.546-.36 1.171-.36m-59.598 11.612q-.64 1.187-.985 2.578-.328 1.39-.328 2.86 0 1.468.313 2.843.312 1.36.984 2.672h-1.422q-.765-1.282-1.172-2.672t-.406-2.735q0-1.39.406-2.906.407-1.515 1.172-2.64zm2.629.203v6.984h4.172v1.578h-6.063v-8.562zm7.693 2.187q1.375 0 2.203.953.828.938.828 2.422l-.015.313h-4.485q.047.797.422 1.187.39.39 1.094.39.469 0 .86-.234.39-.25.5-.578h1.5q-.344 1.047-1.063 1.578-.719.516-1.844.516-1.437 0-2.312-.906-.86-.906-.86-2.36 0-1.39.89-2.328.891-.953 2.282-.953m-1.469 2.61h2.782q-.125-.688-.454-1-.312-.329-.921-.329-.61 0-.985.36-.36.344-.422.969m8.344-2.61q1.375 0 2.047.453t.672 1.282v3.328q0 .375.047.75t.172.562h-1.735q-.047-.14-.078-.281-.031-.156-.047-.313-.36.375-.89.579-.516.187-1.188.187-.969 0-1.547-.484-.562-.485-.562-1.375 0-.875.531-1.328.547-.47 1.969-.625.984-.094 1.297-.235.328-.156.328-.531 0-.406-.25-.61-.235-.218-.844-.218-.531 0-.813.234-.28.219-.328.703h-1.703q.063-1.015.828-1.547.782-.53 2.094-.53m-1.406 4.61q0 .375.25.593.25.203.797.203.672 0 1.015-.359.36-.36.36-1.047v-.656q-.157.125-.407.187-.25.047-.89.141-.594.078-.86.313-.265.218-.265.625m11.5-6.797v8.562H253.9v-.797h-.031q-.266.485-.75.735-.485.234-1.125.234-1.266 0-2.032-.937-.75-.938-.75-2.391 0-1.39.735-2.297.75-.922 2.015-.922.578 0 1.047.235.485.234.781.687h.032v-3.11zm-4.61 5.453q0 .86.391 1.437.406.563 1.11.563.703 0 1.078-.516.375-.531.375-1.5 0-.906-.375-1.437-.36-.532-1.094-.532-.703 0-1.094.532-.39.531-.39 1.453m8.752-3.266q1.375 0 2.204.953.828.938.828 2.422l-.016.313H258.2q.047.797.422 1.187.39.39 1.093.39.469 0 .86-.234.39-.25.5-.578h1.5q-.344 1.047-1.063 1.578-.719.516-1.844.516-1.437 0-2.312-.906-.86-.906-.86-2.36 0-1.39.891-2.328.89-.953 2.281-.953m-1.468 2.61h2.78q-.124-.688-.452-1-.313-.329-.922-.329-.61 0-.984.36-.36.344-.422.969m9.11-2.61q.108 0 .202.016.094.015.172.047v1.578q-.14-.031-.281-.031-.14-.016-.328-.016-.86 0-1.282.531-.406.516-.406 1.406v2.844H263.7v-6.203h1.61v1.156h.03q.266-.609.797-.968.547-.36 1.172-.36m1.747-2.39q.781 1.265 1.188 2.656.406 1.39.406 2.75 0 1.375-.422 2.906-.406 1.516-1.172 2.64h-1.422q.656-1.25.969-2.609.328-1.375.328-2.812 0-1.5-.328-2.875-.313-1.39-.969-2.656z"/>
    <path d="M198.415 242.266a2.72 2.72 0 0 1 2.717-2.718h93.592a2.72 2.72 0 0 1 2.718 2.718v92.395a2.72 2.72 0 0 1-2.718 2.718h-93.592a2.72 2.72 0 0 1-2.717-2.718zM178.548 29.192h147.055v20.693H178.548z"/>
    <path fill="#000" d="m182.47 34.15 1.36 5.828h.015l1.484-5.828h1.766l1.469 5.89h.03l1.407-5.89h1.844l-2.313 8.562h-1.875l-1.437-5.828h-.031l-1.422 5.828h-1.922l-2.266-8.562zm14.246 0 3.203 8.562h-1.953l-.64-1.906h-3.204l-.672 1.906h-1.906l3.25-8.562zm-.984 2.11-1.125 3.14h2.218l-1.078-3.14zm6.814-2.11 3.578 5.75h.016v-5.75h1.765v8.562h-1.875l-3.578-5.734h-.015v5.734h-1.766V34.15zm14.197-.203q1.39 0 2.422.812 1.031.797 1.188 2.203h-1.797q-.188-.718-.672-1.078-.469-.359-1.14-.359-1.126 0-1.735.812-.594.813-.594 2.125 0 1.25.594 2.063.61.797 1.734.797.907 0 1.422-.453.531-.453.61-1.39h-1.891v-1.407h3.61v4.64h-1.204l-.203-.968q-.453.578-1.047.875-.578.297-1.297.297-1.234 0-2.203-.563t-1.5-1.594q-.515-1.03-.515-2.297 0-1.984 1.156-3.25 1.156-1.265 3.062-1.265m8.09 2.39q1.469 0 2.344.907.875.89.875 2.375t-.89 2.375q-.876.89-2.329.89-1.437 0-2.328-.89-.875-.907-.875-2.375 0-1.469.86-2.375.874-.907 2.343-.907m-1.5 3.282q0 .984.406 1.484t1.094.5q.735 0 1.125-.516.39-.53.39-1.468 0-.922-.39-1.453-.375-.547-1.125-.547-.687 0-1.094.5-.406.5-.406 1.5m8.361-3.282q1.266 0 1.954.5.703.5.796 1.485h-1.625q-.046-.438-.343-.64-.282-.204-.828-.204-.485 0-.72.156-.218.141-.218.422t.297.469 1.187.36q1.422.265 1.907.702.5.438.5 1.141 0 1.047-.782 1.61-.765.546-2.046.546-1.297 0-2.079-.547-.78-.546-.843-1.64h1.625q0 .484.375.765t.937.282q.5 0 .797-.219.313-.219.313-.578 0-.328-.407-.531-.39-.204-1.468-.422-1.079-.219-1.547-.61-.469-.39-.469-1.062 0-.985.687-1.485.704-.5 2-.5m6.446 0q1.265 0 1.953.5.703.5.797 1.485h-1.625q-.047-.438-.344-.64-.281-.204-.828-.204-.484 0-.719.156-.219.141-.219.422t.297.469 1.188.36q1.422.265 1.906.702.5.438.5 1.141 0 1.047-.781 1.61-.766.546-2.047.546-1.297 0-2.078-.547-.781-.546-.844-1.64h1.625q0 .484.375.765t.938.282q.5 0 .796-.219.313-.219.313-.578 0-.328-.406-.531-.391-.204-1.47-.422-1.077-.219-1.546-.61-.469-.39-.469-1.062 0-.985.688-1.485.703-.5 2-.5m5.664-2.187v1.39H242.1v-1.39zm0 2.36v6.202H242.1V36.51zm4.828-.173q1.328 0 2.078.922t.75 2.422q0 1.375-.75 2.297-.734.906-1.984.906-.563 0-1.063-.234-.484-.25-.797-.703h-.03V44.9h-1.688v-8.39h1.609v.78h.031q.297-.484.766-.718.484-.235 1.078-.235m-1.844 3.297q0 .891.375 1.438.375.531 1.11.531.703 0 1.078-.516.39-.515.39-1.453 0-.89-.375-1.453-.375-.562-1.125-.562-.703 0-1.078.531t-.375 1.484m13.117-5.484q1.344 0 2.125.75.782.75.782 2 0 1.234-.782 1.984-.78.75-2.125.75h-2.03v3.078h-1.891V34.15zm-.515 4.031q.812 0 1.203-.297.39-.312.39-.984 0-.656-.39-.969-.375-.328-1.203-.328h-1.516v2.578zm7.068-1.844q1.469 0 2.344.907.875.89.875 2.375t-.89 2.375q-.876.89-2.329.89-1.437 0-2.328-.89-.875-.907-.875-2.375 0-1.469.86-2.375.874-.907 2.343-.907m-1.5 3.282q0 .984.406 1.484t1.094.5q.735 0 1.125-.516.39-.53.39-1.468 0-.922-.39-1.453-.375-.547-1.125-.547-.687 0-1.094.5-.406.5-.406 1.5m8.83-3.282q1.469 0 2.344.907.875.89.875 2.375t-.89 2.375q-.876.89-2.329.89-1.437 0-2.328-.89-.875-.907-.875-2.375 0-1.469.86-2.375.874-.907 2.343-.907m-1.5 3.282q0 .984.406 1.484t1.094.5q.735 0 1.125-.516.39-.53.39-1.468 0-.922-.39-1.453-.375-.547-1.125-.547-.687 0-1.094.5-.406.5-.406 1.5m7.58-5.469v8.562h-1.703V34.15z"/>
    <path d="m582.12 367.597 80.41-87.685"/>
    <path stroke="#e03875" stroke-dasharray="6 8" stroke-linecap="round" stroke-linejoin="round" stroke-width="2" d="m588.203 360.963 68.244-74.418"/>
    <path fill="#e03875" fill-rule="evenodd" stroke="#e03875" stroke-linecap="butt" stroke-width="2" d="m586.573 359.469-2.477 5.973 5.737-2.984zm71.504-71.429 2.477-5.973-5.737 2.983z"/>
    <path d="m582.132 367.602-209.638.126"/>
    <path stroke="#e03875" stroke-dasharray="6 8" stroke-linecap="round" stroke-linejoin="round" stroke-width="2" d="m573.132 367.607-191.638.115"/>
    <path fill="#e03875" fill-rule="evenodd" stroke="#e03875" stroke-linecap="butt" stroke-width="2" d="m573.133 369.819 6.075-2.215-6.078-2.208zm-191.64-4.309-6.075 2.216 6.077 2.208z"/>
    <path d="m297.442 288.464 365.102.126"/>
    <path stroke="#e03875" stroke-dasharray="6 8" stroke-linecap="round" stroke-linejoin="round" stroke-width="2" d="m306.442 288.467 347.102.12"/>
    <path fill="#e03875" fill-rule="evenodd" stroke="#e03875" stroke-linecap="butt" stroke-width="2" d="m306.443 286.255-6.077 2.21 6.075 2.213zm347.1 4.543 6.077-2.21-6.075-2.213z"/>
    <path d="m374.203 208.835 207.937-.031"/>
    <path stroke="#e03875" stroke-dasharray="6 8" stroke-linecap="round" stroke-linejoin="round" stroke-width="2" d="m383.203 208.834 189.937-.029"/>
    <path fill="#e03875" fill-rule="evenodd" stroke="#e03875" stroke-linecap="butt" stroke-width="2" d="m383.203 206.622-6.076 2.213 6.076 2.21zm189.937 4.395 6.076-2.213-6.076-2.21z"/>
    <path d="M582.12 367.597V208.793"/>
    <path stroke="#e03875" stroke-dasharray="6 8" stroke-linecap="round" stroke-linejoin="round" stroke-width="2" d="M582.12 358.597V217.793"/>
    <path fill="#e03875" fill-rule="evenodd" stroke="#e03875" stroke-linecap="butt" stroke-width="2" d="m579.909 358.597 2.211 6.076 2.212-6.076zm4.423-140.804-2.212-6.076-2.211 6.076z"/>
    <path d="m582.12 208.8 80.41 71.118"/>
    <path stroke="#e03875" stroke-dasharray="6 8" stroke-linecap="round" stroke-linejoin="round" stroke-width="2" d="m588.862 214.762 66.926 59.193"/>
    <path fill="#e03875" fill-rule="evenodd" stroke="#e03875" stroke-linecap="butt" stroke-width="2" d="m590.327 213.106-6.017-2.37 3.087 5.683zm63.996 62.506 6.017 2.369-3.087-5.682z"/>
    <path d="m297.442 288.464 283.118 78.52"/>
    <path stroke="#e03875" stroke-dasharray="6 8" stroke-linecap="round" stroke-linejoin="round" stroke-width="2" d="m306.114 290.87 265.773 73.708"/>
    <path fill="#e03875" fill-rule="evenodd" stroke="#e03875" stroke-linecap="butt" stroke-width="2" d="m306.705 288.738-6.446.507 5.264 3.755zm264.591 77.972 6.446-.508-5.264-3.755z"/>
    <path d="M374.203 208.835 582.14 367.607"/>
    <path stroke="#e03875" stroke-dasharray="6 8" stroke-linecap="round" stroke-linejoin="round" stroke-width="2" d="m381.356 214.297 193.63 147.848"/>
    <path fill="#e03875" fill-rule="evenodd" stroke="#e03875" stroke-linecap="butt" stroke-width="2" d="m382.698 212.54-6.171-1.93 3.487 5.445zm190.947 151.363 6.171 1.93-3.487-5.446z"/>
    <path d="m370.786 208.03 283.024 71.055"/>
    <path stroke="#e03875" stroke-dasharray="6 8" stroke-linecap="round" stroke-linejoin="round" stroke-width="2" d="m379.515 210.221 265.566 66.672"/>
    <path fill="#e03875" fill-rule="evenodd" stroke="#e03875" stroke-linecap="butt" stroke-width="2" d="m380.054 208.076-6.432.666 5.355 3.624zm264.488 70.962 6.432-.665-5.355-3.625z"/>
    <path d="m372.494 367.728 290.079-87.811"/>
    <path stroke="#e03875" stroke-dasharray="6 8" stroke-linecap="round" stroke-linejoin="round" stroke-width="2" d="m381.108 365.12 272.85-82.596"/>
    <path fill="#e03875" fill-rule="evenodd" stroke="#e03875" stroke-linecap="butt" stroke-width="2" d="m380.467 363.004-5.175 3.877 6.457.356zM654.6 284.641l5.174-3.877-6.456-.356z"/>
    <path d="m372.494 367.728-75.055-79.276"/>
    <path stroke="#e03875" stroke-dasharray="6 8" stroke-linecap="round" stroke-linejoin="round" stroke-width="2" d="m366.306 361.192-62.68-66.204"/>
    <path fill="#e03875" fill-rule="evenodd" stroke="#e03875" stroke-linecap="butt" stroke-width="2" d="m364.7 362.713 5.784 2.892-2.572-5.933zm-59.468-69.246-5.783-2.892 2.571 5.933z"/>
    <path d="m374.203 208.835-76.756 79.622"/>
    <path stroke="#e03875" stroke-dasharray="6 8" stroke-linecap="round" stroke-linejoin="round" stroke-width="2" d="m367.957 215.315-64.264 66.663"/>
    <path fill="#e03875" fill-rule="evenodd" stroke="#e03875" stroke-linecap="butt" stroke-width="2" d="m369.549 216.85 2.625-5.91-5.81 2.84zm-67.448 63.593-2.625 5.91 5.81-2.84z"/>
    <path d="M322.98 370.446a2.72 2.72 0 0 1 2.718-2.718h93.592a2.72 2.72 0 0 1 2.718 2.718v92.395a2.72 2.72 0 0 1-2.718 2.718h-93.592a2.72 2.72 0 0 1-2.718-2.718z"/>
    <path fill="#dc477d" fill-rule="evenodd" d="M330.33 380.49a2.343 2.343 0 0 1 2.343-2.343h79.644a2.343 2.343 0 0 1 2.342 2.342v79.644a2.343 2.343 0 0 1-2.342 2.342h-79.644a2.343 2.343 0 0 1-2.342-2.342z"/>
    <path fill="#fff" fill-rule="evenodd" d="M372.66 443.876c-12.99.01-23.53-10.545-23.54-23.575-.01-13.032 10.511-23.604 23.502-23.614a23.48 23.48 0 0 1 15.95 6.236l-5.581 5.858c-6.334-5.741-16.109-5.245-21.832 1.109-5.724 6.353-5.23 16.158 1.105 21.9a15.42 15.42 0 0 0 20.727 0l5.581 5.858a23.4 23.4 0 0 1-15.912 6.228m18.927-11.802a1.93 1.93 0 0 1-1.928-1.934 1.93 1.93 0 0 1 1.928-1.934 1.93 1.93 0 0 1 1.927 1.934 1.935 1.935 0 0 1-1.927 1.934"/>
    <path fill="#fff" fill-rule="evenodd" d="M372.51 425.394c-2.813 0-5.093-2.287-5.093-5.108 0-2.822 2.28-5.109 5.093-5.109 2.812 0 5.092 2.287 5.092 5.109a5.104 5.104 0 0 1-5.092 5.108m21.284.073a1.93 1.93 0 0 1-1.928-1.934 1.93 1.93 0 0 1 1.928-1.934 1.93 1.93 0 0 1 1.927 1.934 1.935 1.935 0 0 1-1.928 1.934m-5.727-.22a1.93 1.93 0 0 1-1.928-1.933 1.93 1.93 0 0 1 1.928-1.934 1.93 1.93 0 0 1 1.928 1.934 1.93 1.93 0 0 1-1.928 1.933m5.728-6.279a1.93 1.93 0 0 1-1.928-1.934 1.93 1.93 0 0 1 1.928-1.934 1.93 1.93 0 0 1 1.927 1.934 1.935 1.935 0 0 1-1.928 1.934m-5.727.219a1.93 1.93 0 0 1-1.928-1.934 1.93 1.93 0 0 1 1.928-1.934 1.93 1.93 0 0 1 1.928 1.934v.005a1.93 1.93 0 0 1-1.928 1.93m3.632-6.724a1.93 1.93 0 0 1-1.932-1.93 1.93 1.93 0 0 1 1.924-1.938 1.93 1.93 0 0 1 1.932 1.93v.004a1.93 1.93 0 0 1-1.924 1.934"/>
    <path d="M322.982 464.164h99.027v38.934h-99.027z"/>
    <path fill="#000" d="M336.858 468.918q1.453 0 2.484.828 1.031.813 1.203 2.25h-1.812q-.125-.672-.672-1.078-.547-.422-1.203-.422-1.11 0-1.72.813-.609.796-.609 2.125 0 1.265.594 2.062.61.797 1.735.797.812 0 1.312-.5.516-.5.625-1.406h1.828q-.156 1.625-1.187 2.562-1.016.938-2.578.938-1.235 0-2.204-.563-.968-.562-1.5-1.594-.515-1.03-.515-2.296 0-1.97 1.156-3.235 1.156-1.281 3.063-1.281m7.878 2.39q1.47 0 2.344.907.875.89.875 2.375t-.89 2.375q-.875.89-2.329.89-1.437 0-2.328-.89-.875-.906-.875-2.375t.86-2.375q.875-.906 2.343-.906m-1.5 3.282q0 .984.407 1.484t1.093.5q.735 0 1.125-.515.391-.532.391-1.47 0-.921-.39-1.452-.376-.547-1.126-.547-.687 0-1.093.5-.407.5-.407 1.5m9.377-3.281q1.188 0 1.72.609.546.594.546 1.89v3.876h-1.703v-3.563q0-.719-.25-1.094t-.844-.375q-.703 0-1.016.422-.312.422-.312 1.297v3.313h-1.688v-6.204h1.61v.86h.031q.313-.5.813-.766.5-.265 1.093-.265m6.098 0q1.266 0 1.953.5.703.5.797 1.484h-1.625q-.047-.438-.344-.64-.281-.204-.828-.204-.484 0-.719.156-.218.141-.218.422t.297.469q.296.188 1.187.36 1.422.265 1.906.703.5.437.5 1.14 0 1.047-.781 1.61-.766.546-2.047.546-1.297 0-2.078-.546-.781-.547-.844-1.641h1.625q0 .484.375.766.375.28.938.28.5 0 .797-.218.312-.219.312-.578 0-.328-.406-.531-.39-.203-1.469-.422-1.078-.219-1.547-.61-.468-.39-.468-1.062 0-.984.687-1.484.703-.5 2-.5m5.602.171v3.547q0 .703.25 1.094.25.39.859.39.703 0 1-.421.312-.438.312-1.297v-3.313h1.704v6.204h-1.625v-.86h-.032q-.328.516-.843.781-.5.25-1.063.25-1.156 0-1.703-.593-.547-.594-.547-1.907v-3.875zm7.175-2.359v8.563h-1.703v-8.563zm7.803-.203q1.547 0 2.484.719.938.718.938 2.03H380.9q-.046-.64-.453-.968-.39-.328-1.234-.328-.578 0-.953.266-.36.25-.36.718 0 .313.157.47.156.155.625.343.468.172 2.062.547 1.063.25 1.656.875.61.61.61 1.547 0 1.25-.938 2t-2.625.75q-1.609 0-2.64-.797-1.016-.797-1.016-2.203v-.047h1.828q0 .797.516 1.187.531.39 1.375.39.765 0 1.219-.265.453-.281.453-.797 0-.421-.36-.687-.343-.266-1.109-.453-.984-.219-1.781-.469t-1.328-.812q-.532-.563-.532-1.438 0-1.156.922-1.86.938-.718 2.297-.718m7.522 2.39q1.375 0 2.203.954.828.937.828 2.422l-.016.312h-4.484q.047.797.422 1.188.39.39 1.093.39.47 0 .86-.234.39-.25.5-.578h1.5q-.344 1.047-1.063 1.578-.718.515-1.843.515-1.438 0-2.313-.906-.86-.906-.86-2.36 0-1.39.891-2.327.891-.953 2.282-.953m-1.47 2.61h2.782q-.125-.688-.453-1-.313-.328-.922-.328-.61 0-.984.36-.36.343-.422.968m9.11-2.61q.11 0 .203.016t.172.047v1.578q-.14-.031-.281-.031-.14-.016-.328-.016-.86 0-1.281.532-.407.515-.407 1.406v2.844h-1.687v-6.204h1.61v1.157h.03q.266-.61.797-.97.547-.358 1.172-.358m2.395.172 1.312 4.235h.031l1.297-4.235h1.703l-2.109 6.204h-1.89l-2.126-6.204zm7.912-.171q1.375 0 2.203.953.828.937.828 2.422l-.016.312h-4.484q.047.797.422 1.188.39.39 1.094.39.468 0 .86-.234.39-.25.5-.578h1.5q-.345 1.047-1.063 1.578-.72.515-1.844.515-1.438 0-2.313-.906-.859-.906-.859-2.36 0-1.39.89-2.327.891-.953 2.282-.953m-1.469 2.609h2.781q-.125-.688-.453-1-.312-.328-.922-.328-.609 0-.984.36-.36.343-.422.968m9.11-2.61q.109 0 .203.016.093.016.171.047v1.578q-.14-.031-.28-.031-.141-.016-.329-.016-.86 0-1.281.532-.406.515-.406 1.406v2.844h-1.688v-6.204h1.61v1.157h.03q.266-.61.798-.97.546-.358 1.171-.358m-64.209 11.606q-.64 1.187-.984 2.578-.328 1.39-.328 2.86 0 1.468.312 2.843.313 1.36.985 2.672h-1.422q-.766-1.281-1.172-2.672-.406-1.39-.406-2.734 0-1.39.406-2.906t1.172-2.641zm6.754.203v1.578h-4.125v1.985h3.579v1.453h-3.579v3.547h-1.89v-8.563zm3.422 2.188q1.469 0 2.344.906.875.89.875 2.375t-.89 2.375q-.876.89-2.329.89-1.437 0-2.328-.89-.875-.906-.875-2.375t.86-2.375q.875-.906 2.343-.906m-1.5 3.28q0 .985.407 1.485t1.093.5q.735 0 1.125-.515.39-.532.39-1.47 0-.921-.39-1.452-.375-.547-1.125-.547-.687 0-1.093.5-.407.5-.407 1.5m7.58-5.468v8.563h-1.703v-8.563zm3.094 0v8.563h-1.703v-8.563zm4.344 2.188q1.469 0 2.344.906.875.89.875 2.375t-.891 2.375q-.875.89-2.328.89-1.438 0-2.328-.89-.875-.906-.875-2.375t.86-2.375q.874-.906 2.343-.906m-1.5 3.28q0 .985.406 1.485t1.094.5q.734 0 1.125-.515.39-.532.39-1.47 0-.921-.39-1.452-.375-.547-1.125-.547-.688 0-1.094.5t-.406 1.5m7.049-3.109 1.14 4.204h.016l1.031-4.204h1.656l1.063 4.204h.016l1.156-4.204h1.75l-1.969 6.204h-1.75l-1.094-4.172h-.031l-1.062 4.172h-1.75l-1.97-6.204zm11.408-.171q1.375 0 2.203.953.828.937.828 2.422l-.016.312h-4.484q.047.797.422 1.188.39.39 1.094.39.468 0 .86-.234.39-.25.5-.578h1.5q-.345 1.047-1.063 1.578-.72.515-1.844.515-1.438 0-2.313-.906-.859-.906-.859-2.36 0-1.39.89-2.327.891-.953 2.282-.953m-1.469 2.609h2.781q-.125-.688-.453-1-.312-.328-.922-.328-.609 0-.984.36-.36.343-.422.968m9.11-2.61q.109 0 .203.016.093.016.171.047v1.578q-.14-.031-.28-.031-.141-.016-.329-.016-.86 0-1.281.532-.406.515-.406 1.406v2.844h-1.688v-6.204h1.61v1.157h.03q.266-.61.798-.97.546-.358 1.171-.358m1.748-2.39q.78 1.266 1.187 2.656.406 1.39.406 2.75 0 1.375-.422 2.906-.406 1.516-1.171 2.641h-1.422q.656-1.25.968-2.61.329-1.374.329-2.812 0-1.5-.329-2.875-.312-1.39-.968-2.656z"/>
    <path d="m372.494 367.728 209.638-158.93"/>
    <path stroke="#e03875" stroke-dasharray="6 8" stroke-linecap="round" stroke-linejoin="round" stroke-width="2" d="M379.666 362.29 574.96 214.237"/>
    <path fill="#e03875" fill-rule="evenodd" stroke="#e03875" stroke-linecap="butt" stroke-width="2" d="m378.33 360.528-3.506 5.433 6.178-1.908zm197.966-144.53 3.506-5.433-6.178 1.908z"/>
    <path d="M324.69 113.722a2.72 2.72 0 0 1 2.717-2.718h93.592a2.72 2.72 0 0 1 2.717 2.718v92.396a2.72 2.72 0 0 1-2.717 2.717h-93.592a2.72 2.72 0 0 1-2.718-2.717z"/>
    <path fill="#dc477d" fill-rule="evenodd" d="M328.622 85.421a2.343 2.343 0 0 1 2.342-2.342h79.644a2.343 2.343 0 0 1 2.342 2.342v79.644a2.343 2.343 0 0 1-2.342 2.342h-79.644a2.343 2.343 0 0 1-2.342-2.342z"/>
    <path fill="#fff" fill-rule="evenodd" d="M370.95 148.808c-12.99.01-23.529-10.545-23.54-23.576-.01-13.03 10.512-23.603 23.502-23.613a23.48 23.48 0 0 1 15.951 6.236l-5.582 5.858c-6.333-5.741-16.108-5.245-21.832 1.109-5.723 6.353-5.228 16.158 1.105 21.9a15.42 15.42 0 0 0 20.727 0l5.582 5.858a23.4 23.4 0 0 1-15.912 6.228m18.926-11.802a1.93 1.93 0 0 1-1.928-1.934 1.93 1.93 0 0 1 1.928-1.934 1.93 1.93 0 0 1 1.928 1.934 1.935 1.935 0 0 1-1.928 1.934"/>
    <path fill="#fff" fill-rule="evenodd" d="M370.8 130.326c-2.812 0-5.092-2.287-5.092-5.108 0-2.822 2.28-5.109 5.092-5.109 2.813 0 5.093 2.287 5.093 5.109-.003 2.82-2.281 5.105-5.092 5.108m21.283.074a1.93 1.93 0 0 1-1.928-1.935 1.93 1.93 0 0 1 1.928-1.934 1.93 1.93 0 0 1 1.928 1.934 1.935 1.935 0 0 1-1.928 1.934m-5.728-.219a1.93 1.93 0 0 1-1.927-1.934 1.93 1.93 0 0 1 1.927-1.934 1.93 1.93 0 0 1 1.928 1.934 1.93 1.93 0 0 1-1.928 1.933m5.728-6.279a1.93 1.93 0 0 1-1.928-1.934 1.93 1.93 0 0 1 1.928-1.934 1.93 1.93 0 0 1 1.928 1.934 1.935 1.935 0 0 1-1.928 1.934m-5.728.22a1.93 1.93 0 0 1-1.927-1.935 1.93 1.93 0 0 1 1.927-1.934 1.93 1.93 0 0 1 1.928 1.934v.005a1.93 1.93 0 0 1-1.928 1.93m3.633-6.724a1.93 1.93 0 0 1-1.932-1.93 1.93 1.93 0 0 1 1.923-1.938 1.93 1.93 0 0 1 1.933 1.93v.004a1.93 1.93 0 0 1-1.924 1.934"/>
    <path d="M321.272 169.096H420.3v38.934h-99.028z"/>
    <path fill="#000" d="M335.148 173.85q1.453 0 2.485.828 1.03.813 1.203 2.25h-1.813q-.125-.672-.672-1.078-.546-.422-1.203-.422-1.11 0-1.718.813-.61.796-.61 2.125 0 1.265.594 2.062.61.797 1.734.797.813 0 1.313-.5.515-.5.625-1.406h1.828q-.156 1.625-1.188 2.562-1.015.938-2.578.938-1.234 0-2.203-.563t-1.5-1.594q-.515-1.03-.515-2.296 0-1.97 1.156-3.235 1.156-1.281 3.062-1.281m7.88 2.39q1.468 0 2.343.907.875.89.875 2.375t-.89 2.375q-.876.89-2.329.89-1.437 0-2.328-.89-.875-.906-.875-2.375t.86-2.375q.874-.906 2.343-.906m-1.5 3.282q0 .984.405 1.484.407.5 1.094.5.735 0 1.125-.515.39-.532.39-1.47 0-.921-.39-1.452-.375-.547-1.125-.547-.687 0-1.094.5-.406.5-.406 1.5m9.376-3.281q1.188 0 1.719.609.547.594.547 1.89v3.876h-1.703v-3.563q0-.719-.25-1.094t-.844-.375q-.703 0-1.016.422-.312.422-.312 1.297v3.313h-1.688v-6.204h1.61v.86h.03q.313-.5.813-.766.5-.265 1.094-.265m6.098 0q1.265 0 1.953.5.703.5.797 1.484h-1.625q-.047-.438-.344-.64-.281-.204-.828-.204-.484 0-.719.156-.219.141-.219.422t.297.469 1.188.36q1.422.265 1.906.703.5.437.5 1.14 0 1.047-.781 1.61-.766.546-2.047.546-1.297 0-2.078-.546-.781-.547-.844-1.641h1.625q0 .484.375.766.375.28.938.28.5 0 .796-.218.313-.219.313-.578 0-.328-.406-.531-.39-.203-1.469-.422-1.078-.219-1.547-.61-.469-.39-.469-1.062 0-.984.688-1.484.703-.5 2-.5m5.601.171v3.547q0 .703.25 1.094.25.39.86.39.703 0 1-.421.312-.438.312-1.297v-3.313h1.703v6.204h-1.625v-.86h-.03q-.329.516-.845.781-.5.25-1.062.25-1.156 0-1.703-.593-.547-.594-.547-1.907v-3.875zm7.176-2.359v8.563h-1.703v-8.563zm7.803-.203q1.547 0 2.484.719.938.718.938 2.03h-1.813q-.047-.64-.453-.968-.39-.328-1.234-.328-.578 0-.953.266-.36.25-.36.718 0 .313.157.47.156.155.625.343.468.172 2.062.547 1.063.25 1.656.875.61.61.61 1.547 0 1.25-.938 2t-2.625.75q-1.61 0-2.64-.797-1.016-.797-1.016-2.203v-.047h1.828q0 .797.516 1.187.53.39 1.375.39.765 0 1.218-.265.454-.281.454-.797 0-.421-.36-.687-.344-.266-1.11-.453-.984-.219-1.78-.469-.797-.25-1.329-.812-.53-.563-.53-1.438 0-1.156.921-1.86.938-.718 2.297-.718m7.521 2.39q1.375 0 2.204.954.828.937.828 2.422l-.016.312h-4.484q.047.797.422 1.188.39.39 1.093.39.469 0 .86-.234.39-.25.5-.578h1.5q-.344 1.047-1.063 1.578-.719.515-1.844.515-1.437 0-2.312-.906-.86-.906-.86-2.36 0-1.39.891-2.327.89-.953 2.281-.953m-1.468 2.61h2.78q-.124-.688-.452-1-.313-.328-.922-.328-.61 0-.984.36-.36.343-.422.968m9.109-2.61q.11 0 .203.016t.172.047v1.578q-.14-.031-.281-.031-.14-.016-.328-.016-.86 0-1.282.532-.406.515-.406 1.406v2.844h-1.687v-6.204h1.609v1.157h.031q.266-.61.797-.97.547-.358 1.172-.358m2.395.172 1.312 4.235h.031l1.297-4.235h1.703l-2.11 6.204h-1.89l-2.125-6.204zm7.912-.171q1.375 0 2.203.953.828.937.828 2.422l-.016.312h-4.484q.047.797.422 1.188.39.39 1.094.39.468 0 .859-.234.39-.25.5-.578h1.5q-.344 1.047-1.063 1.578-.718.515-1.843.515-1.438 0-2.313-.906-.86-.906-.86-2.36 0-1.39.891-2.327.891-.953 2.282-.953m-1.47 2.609h2.782q-.125-.688-.453-1-.312-.328-.922-.328t-.984.36q-.36.343-.422.968m9.11-2.61q.11 0 .203.016t.172.047v1.578q-.14-.031-.281-.031-.14-.016-.328-.016-.86 0-1.281.532-.407.515-.407 1.406v2.844h-1.687v-6.204h1.61v1.157h.03q.266-.61.797-.97.547-.358 1.172-.358m-64.207 11.606q-.64 1.187-.984 2.578-.328 1.39-.328 2.86 0 1.468.312 2.843.313 1.36.985 2.672h-1.422q-.766-1.281-1.172-2.672-.406-1.39-.406-2.734 0-1.39.406-2.906t1.172-2.641zm6.754.203v1.578h-4.125v1.985h3.578v1.453h-3.578v3.547h-1.89v-8.563zm3.422 2.188q1.469 0 2.344.906.875.89.875 2.375t-.89 2.375q-.876.89-2.329.89-1.437 0-2.328-.89-.875-.906-.875-2.375t.86-2.375q.874-.906 2.343-.906m-1.5 3.28q0 .985.406 1.485t1.094.5q.734 0 1.125-.515.39-.532.39-1.47 0-.921-.39-1.452-.375-.547-1.125-.547-.687 0-1.094.5-.406.5-.406 1.5m7.58-5.468v8.563h-1.703v-8.563zm3.094 0v8.563h-1.703v-8.563zm4.344 2.188q1.468 0 2.343.906.875.89.875 2.375t-.89 2.375q-.875.89-2.328.89-1.438 0-2.328-.89-.875-.906-.875-2.375t.859-2.375q.875-.906 2.344-.906m-1.5 3.28q0 .985.406 1.485t1.094.5q.734 0 1.125-.515.39-.532.39-1.47 0-.921-.39-1.452-.375-.547-1.125-.547-.688 0-1.094.5t-.406 1.5m7.048-3.109 1.141 4.204h.016l1.031-4.204h1.656l1.063 4.204h.015l1.157-4.204h1.75l-1.97 6.204h-1.75l-1.093-4.172h-.031l-1.063 4.172h-1.75l-1.968-6.204zm11.409-.171q1.375 0 2.203.953.828.937.828 2.422l-.016.312h-4.484q.047.797.422 1.188.39.39 1.094.39.468 0 .859-.234.39-.25.5-.578h1.5q-.344 1.047-1.063 1.578-.718.515-1.843.515-1.438 0-2.313-.906-.86-.906-.86-2.36 0-1.39.891-2.327.891-.953 2.282-.953m-1.47 2.609h2.782q-.125-.688-.453-1-.312-.328-.922-.328t-.984.36q-.36.343-.422.968m9.11-2.61q.11 0 .203.016t.172.047v1.578q-.14-.031-.281-.031-.14-.016-.328-.016-.86 0-1.281.532-.407.515-.407 1.406v2.844h-1.687v-6.204h1.61v1.157h.03q.266-.61.797-.97.547-.358 1.172-.358m1.748-2.39q.782 1.266 1.188 2.656t.406 2.75q0 1.375-.422 2.906-.406 1.516-1.172 2.641H395.1q.657-1.25.97-2.61.327-1.374.327-2.812 0-1.5-.328-2.875-.312-1.39-.969-2.656z"/>
    <path d="m370.786 208.03 1.7 159.685"/>
    <path stroke="#e03875" stroke-dasharray="6 8" stroke-linecap="round" stroke-linejoin="round" stroke-width="2" d="m370.882 217.03 1.509 141.685"/>
    <path fill="#e03875" fill-rule="evenodd" stroke="#e03875" stroke-linecap="butt" stroke-width="2" d="m373.093 217.006-2.276-6.053-2.147 6.1zm-2.913 141.733 2.276 6.052 2.146-6.1z"/>
    <path d="m297.442 288.464 285.512-76.536"/>
    <path stroke="#e03875" stroke-dasharray="6 8" stroke-linecap="round" stroke-linejoin="round" stroke-width="2" d="m306.135 286.134 268.126-71.875"/>
    <path fill="#e03875" fill-rule="evenodd" stroke="#e03875" stroke-linecap="butt" stroke-width="2" d="m305.562 283.997-5.296 3.71 6.441.563zm269.271-67.602 5.296-3.71-6.441-.562z"/>
    <path d="M641.884 22.27H771.87"/>
    <path stroke="#e03875" stroke-dasharray="8 6" stroke-linecap="butt" stroke-miterlimit="400" stroke-width="2" d="M641.884 22.27H771.87"/>
    <path d="M659.831-.004h99.024v20.693h-99.024z"/>
    <path fill="#000" d="m675.628 4.954 1.36 5.828h.015l1.485-5.828h1.765l1.47 5.89h.03l1.407-5.89h1.843l-2.312 8.562h-1.875l-1.438-5.828h-.03l-1.423 5.828h-1.922l-2.265-8.562zm14.246 0 3.204 8.562h-1.954l-.64-1.906h-3.203l-.672 1.906h-1.906l3.25-8.562zm-.984 2.109-1.125 3.14h2.219l-1.078-3.14zm6.815-2.11 3.578 5.75h.015v-5.75h1.766v8.563h-1.875l-3.578-5.734h-.016v5.734h-1.765V4.954zm14.197-.203q1.39 0 2.422.813 1.03.797 1.187 2.203h-1.797q-.187-.719-.672-1.078-.468-.36-1.14-.36-1.125 0-1.735.813-.593.813-.593 2.125 0 1.25.593 2.063.61.796 1.735.796.906 0 1.422-.453.53-.453.609-1.39h-1.89V8.875h3.609v4.641h-1.203l-.203-.969q-.454.578-1.047.875-.578.297-1.297.297-1.235 0-2.203-.562-.97-.563-1.5-1.594-.516-1.031-.516-2.297 0-1.984 1.156-3.25 1.157-1.266 3.063-1.266m8.09 2.391q1.468 0 2.343.906.875.89.875 2.375t-.89 2.375q-.875.89-2.328.89-1.438 0-2.328-.89-.875-.906-.875-2.375t.859-2.375q.875-.906 2.344-.906m-1.5 3.281q0 .985.406 1.485t1.094.5q.734 0 1.125-.516.39-.531.39-1.469 0-.922-.39-1.453-.375-.547-1.125-.547-.688 0-1.094.5t-.406 1.5m8.361-3.281q1.266 0 1.953.5.703.5.797 1.484h-1.625q-.047-.437-.344-.64-.281-.203-.828-.203-.484 0-.719.156-.218.14-.218.422t.296.469 1.188.359q1.422.266 1.906.703.5.438.5 1.14 0 1.048-.781 1.61-.766.547-2.047.547-1.297 0-2.078-.547t-.844-1.64h1.625q0 .484.375.765t.938.281q.5 0 .797-.218.312-.22.312-.579 0-.328-.406-.53-.39-.204-1.469-.423-1.078-.218-1.547-.61-.469-.39-.469-1.062 0-.984.688-1.484.703-.5 2-.5m6.445 0q1.266 0 1.953.5.704.5.797 1.484h-1.625q-.047-.437-.343-.64-.282-.203-.829-.203-.484 0-.718.156-.22.14-.22.422t.298.469 1.187.359q1.422.266 1.907.703.5.438.5 1.14 0 1.048-.782 1.61-.765.547-2.047.547-1.296 0-2.078-.547t-.843-1.64h1.625q0 .484.375.765t.937.281q.5 0 .797-.218.312-.22.312-.579 0-.328-.406-.53-.39-.204-1.469-.423-1.078-.218-1.546-.61-.47-.39-.47-1.062 0-.984.688-1.484.703-.5 2-.5m5.664-2.187v1.39h-1.703v-1.39zm0 2.359v6.203h-1.703V7.313zm4.828-.172q1.329 0 2.079.922t.75 2.422q0 1.375-.75 2.297-.735.906-1.985.906-.562 0-1.062-.234-.485-.25-.797-.704h-.031v2.954h-1.688V7.313h1.61v.781h.03q.298-.484.766-.719.485-.234 1.078-.234m-1.843 3.297q0 .89.375 1.437.375.532 1.11.532.702 0 1.077-.516.39-.516.39-1.453 0-.89-.374-1.453-.375-.563-1.125-.563-.703 0-1.078.532-.375.53-.375 1.484"/>
    <path d="M659.831 23.866h99.024v20.692h-99.024z"/>
    <path fill="#000" d="M669.382 28.823v5.375q0 .922.422 1.36.438.437 1.344.437.984 0 1.375-.422.406-.438.406-1.375v-5.375h1.875v5.375q0 1.594-.937 2.5-.922.89-2.72.89-1.812 0-2.733-.874-.907-.891-.907-2.516v-5.375zm10.801 0q1.719 0 2.781 1.125 1.063 1.11 1.063 3.11t-1.047 3.171q-1.031 1.156-2.797 1.156h-3.75v-8.562zm-.14 6.984q.906 0 1.5-.64.593-.657.593-1.938 0-1.484-.625-2.156t-1.797-.672h-1.39v5.406zm9.206-6.984q1.344 0 2.125.75.782.75.782 2 0 1.234-.782 1.984-.78.75-2.125.75h-2.03v3.078h-1.891v-8.562zm-.515 4.031q.812 0 1.203-.297.39-.312.39-.984 0-.656-.39-.969-.375-.328-1.203-.328h-1.516v2.578zm8.347-4.234-3.343 8.969h-1.375l3.36-8.97zm7.047.203v1.578h-2.562v6.984h-1.89v-6.984h-2.563v-1.578zm4.473-.203q1.453 0 2.484.828 1.032.812 1.204 2.25h-1.813q-.125-.672-.672-1.078-.547-.422-1.203-.422-1.11 0-1.719.812-.61.797-.61 2.125 0 1.266.595 2.063.609.797 1.734.797.813 0 1.313-.5.515-.5.625-1.406h1.828q-.157 1.625-1.188 2.562-1.015.938-2.578.938-1.234 0-2.203-.563t-1.5-1.594q-.516-1.03-.516-2.297 0-1.968 1.157-3.234 1.156-1.281 3.062-1.281m8.973.203q1.343 0 2.125.75.78.75.78 2 0 1.234-.78 1.984-.782.75-2.125.75h-2.032v3.078h-1.89v-8.562zm-.516 4.031q.813 0 1.203-.297.39-.312.39-.984 0-.656-.39-.969-.375-.328-1.203-.328h-1.516v2.578zm8.348-4.234-3.344 8.969h-1.375l3.36-8.97zm3.234.203q1.297 0 2.047.703t.75 1.547q0 .61-.313 1.078-.296.469-.906.688v.015q.781.188 1.172.735t.39 1.328q0 1.203-.906 1.922t-2.234.718q-1.39 0-2.297-.703-.89-.703-.89-1.937 0-.797.406-1.328.422-.547 1.172-.735v-.015q-.594-.172-.922-.625-.313-.47-.313-1.11 0-1.015.828-1.64.844-.641 2.016-.641m-1.297 2.437q0 .485.36.797.359.313.921.313.579 0 .922-.297t.344-.813-.328-.828q-.313-.328-.938-.328-.578 0-.937.328-.344.328-.344.828m-.187 3.579q0 .609.422 1.03.437.407 1.062.407t1.031-.406q.407-.406.407-1.016 0-.578-.422-.953-.407-.39-1.032-.39-.609 0-1.046.359-.422.344-.422.969m8.111-6.016q1.14 0 1.984.656t.844 1.672q0 .61-.312 1.078-.297.453-.875.625v.031q.703.157 1.093.688.407.516.407 1.219 0 1.234-.907 2-.906.765-2.218.765-1.422 0-2.282-.797-.843-.812-.843-2.171v-.094h1.625q.03.781.422 1.219.39.437 1.046.437.61 0 .985-.375.39-.39.39-.953 0-.625-.375-.922-.375-.312-1.39-.312h-.188v-1.204h.297q.719 0 1.11-.265.39-.281.39-.781t-.344-.813q-.328-.312-.843-.312-.578 0-.938.39-.344.375-.36 1.11h-1.624q.047-1.313.844-2.094.796-.797 2.062-.797m6.69 0q1.5 0 2.296 1.094.797 1.093.797 3.234 0 2.156-.797 3.281-.78 1.125-2.297 1.125-1.5 0-2.296-1.109-.782-1.125-.782-3.297 0-2.125.782-3.219.78-1.109 2.296-1.109m-1.376 4.344q0 1.297.172 1.89.188.578.485.844.297.25.718.25.672 0 1.032-.656.36-.672.36-2.344 0-1.61-.36-2.266-.36-.671-1.047-.671-.64 0-1 .64t-.36 2.313m8.221-4.344q1.219 0 2.047.734.828.735.828 1.891 0 .797-.39 1.453-.391.64-1.625 1.438-.86.53-1.282.89-.406.36-.625.688h3.97v1.468h-6.173q0-.828.297-1.468t.844-1.14q.562-.517 2.125-1.563.594-.391.875-.782.281-.39.281-.859 0-.563-.344-.922-.343-.375-.922-.375-.625 0-.968.516-.344.515-.36 1.422h-1.625v-.157q0-1.468.828-2.343.829-.891 2.22-.891"/>
    <g filter="url(#b)">
      <use xlink:href="#c" transform="translate(0 7.333)"/>
    </g>
    <defs>
      <filter id="b" filterUnits="userSpaceOnUse">
        <feGaussianBlur in="SourceAlpha" result="blur" stdDeviation="5.333"/>
        <feComponentTransfer color-interpolation-filters="sRGB" in="blur">
          <feFuncR slope="0" type="linear"/>
          <feFuncG slope="0" type="linear"/>
          <feFuncB slope="0" type="linear"/>
          <feFuncA slope=".063" type="linear"/>
        </feComponentTransfer>
      </filter>
    </defs>
    <path id="c" fill="#e03875" fill-opacity=".056" fill-rule="evenodd" d="M162.1 65.654a7.1 7.1 0 0 1 7.098-7.099H445.08a7.1 7.1 0 0 1 7.099 7.099v467.252a7.1 7.1 0 0 1-7.099 7.098H169.198a7.1 7.1 0 0 1-7.098-7.098z"/>
    <g filter="url(#d)">
      <use xlink:href="#e" transform="translate(0 7.333)"/>
    </g>
    <defs>
      <filter id="d" filterUnits="userSpaceOnUse">
        <feGaussianBlur in="SourceAlpha" result="blur" stdDeviation="5.333"/>
        <feComponentTransfer color-interpolation-filters="sRGB" in="blur">
          <feFuncR slope="0" type="linear"/>
          <feFuncG slope="0" type="linear"/>
          <feFuncB slope="0" type="linear"/>
          <feFuncA slope=".063" type="linear"/>
        </feComponentTransfer>
      </filter>
    </defs>
    <path id="e" fill="#e03875" fill-opacity=".056" fill-rule="evenodd" d="M507.822 65.654a7.1 7.1 0 0 1 7.098-7.099h275.882a7.1 7.1 0 0 1 7.098 7.099v467.252a7.1 7.1 0 0 1-7.098 7.098H514.92a7.1 7.1 0 0 1-7.098-7.098z"/>
    <path d="M179.465 75.92h45.795v38.93h-45.795z"/>
    <path fill="#000" d="M193.017 81.531q2.094 0 3.39 1.375 1.297 1.36 1.297 3.813 0 2.437-1.265 3.86Q195.173 92 193.017 92h-4.578V81.531zm-.172 8.532q1.094 0 1.813-.782.734-.796.734-2.359 0-1.812-.766-2.625-.75-.828-2.187-.828h-1.703v6.594zm11.145-8.782q1.781 0 3.031 1.016 1.266 1 1.484 2.75h-2.234q-.14-.812-.813-1.312-.671-.516-1.468-.516-1.36 0-2.11.984-.734.985-.734 2.61 0 1.547.734 2.53.75.97 2.11.97 1 0 1.61-.61.608-.61.765-1.734h2.234q-.203 2-1.453 3.14t-3.156 1.141q-1.516 0-2.688-.687t-1.812-1.953-.64-2.797q0-2.407 1.405-3.97 1.407-1.562 3.735-1.562m10.91.454V92h-2.078v-6.656h-2.578V83.78h.125q1.265 0 1.984-.515.734-.531.89-1.531z"/>
    <path d="M734.725 75.92h45.796v38.929h-45.796z"/>
    <path fill="#000" d="M748.278 81.531q2.093 0 3.39 1.375 1.297 1.36 1.297 3.813 0 2.437-1.265 3.859Q750.434 92 748.278 92H743.7V81.53zm-.172 8.531q1.094 0 1.812-.78.735-.798.735-2.36 0-1.813-.766-2.625-.75-.828-2.187-.828h-1.704v6.593zm11.144-8.78q1.782 0 3.032 1.015 1.265 1 1.484 2.75h-2.234q-.14-.813-.813-1.313-.672-.515-1.469-.515-1.359 0-2.109.984-.734.984-.734 2.61 0 1.546.734 2.53.75.97 2.11.97 1 0 1.609-.61.61-.61.765-1.734h2.235q-.203 2-1.453 3.14t-3.157 1.14q-1.515 0-2.687-.687t-1.813-1.953-.64-2.797q0-2.406 1.406-3.968 1.406-1.563 3.734-1.563m9.426.25q1.5 0 2.5.905 1.016.891 1.016 2.313 0 .984-.484 1.781-.47.781-1.97 1.734-1.062.672-1.562 1.11-.5.437-.78.828h4.858V92h-7.53q0-1.016.359-1.797t1.03-1.406q.688-.625 2.579-1.89.734-.47 1.078-.954t.344-1.047q0-.687-.422-1.125-.422-.453-1.11-.453-.78 0-1.203.64-.406.626-.437 1.72h-1.984v-.204q0-1.781 1-2.86 1.015-1.093 2.718-1.093"/>
  </g>
</svg>
