<svg xmlns="http://www.w3.org/2000/svg" width="610" height="975" fill="none" viewBox="0 0 610 975" xmlns:xlink="http://www.w3.org/1999/xlink">
  <g clip-path="url(#a)">
    <path fill="#fff" d="M610 0H0v975h610z"/>
    <path fill="url(#b)" fill-opacity=".3" d="M1474.53 580.473 697.786 132.021-78.955 580.473l776.741 448.447z"/>
    <path fill="url(#c)" d="M-3032.81-463.362 629.628 1651.15 4098.11-351.384 435.677-2465.89z" opacity=".25"/>
    <path fill="url(#d)" fill-opacity=".3" d="M1307.7 566.464 530.958 118.012l-776.741 448.452 776.741 448.456z"/>
    <path fill="url(#e)" fill-opacity=".4" d="m342.455 690.859-643.691-371.636-643.69 371.636 643.69 371.631z"/>
    <g filter="url(#f)" opacity=".05">
      <path fill="url(#g)" d="M818.261 362.25c-118.792-81.436-267.158-71.504-331.385 22.185-64.226 93.688-19.992 235.654 98.8 317.091 118.792 81.436 267.159 71.504 331.385-22.185 64.227-93.688 19.993-235.655-98.8-317.091"/>
    </g>
    <g filter="url(#h)" opacity=".8">
      <path fill="url(#i)" d="M217.183 381.521c-86.354-59.198-194.205-51.978-240.894 16.126-46.688 68.105-14.533 171.304 71.82 230.503 86.354 59.198 194.206 51.978 240.894-16.126 46.688-68.105 14.533-171.305-71.82-230.503"/>
    </g>
  </g>
  <defs>
    <radialGradient id="b" cx="0" cy="0" r="1" gradientTransform="scale(2084.5 925.921)rotate(-90 .77 .435)" gradientUnits="userSpaceOnUse">
      <stop stop-color="#1FBCFF" stop-opacity=".9"/>
      <stop offset="1" stop-color="#BE87FF" stop-opacity="0"/>
    </radialGradient>
    <radialGradient id="c" cx="0" cy="0" r="1" gradientTransform="matrix(-2098.43535 1700.67464 -1781.24868 -2197.85438 604.064 -494.804)" gradientUnits="userSpaceOnUse">
      <stop stop-color="#fff" stop-opacity="0"/>
      <stop offset=".521" stop-color="#A457FF" stop-opacity=".1"/>
      <stop offset="1" stop-color="#00B1FF"/>
    </radialGradient>
    <radialGradient id="d" cx="0" cy="0" r="1" gradientTransform="matrix(0 -925.921 2084.5 0 530.5 1101.82)" gradientUnits="userSpaceOnUse">
      <stop stop-color="#1FBCFF" stop-opacity=".9"/>
      <stop offset="1" stop-color="#BE87FF" stop-opacity="0"/>
    </radialGradient>
    <radialGradient id="e" cx="0" cy="0" r="1" gradientTransform="matrix(0 -767.315 1727.44 0 -302.302 1134.859)" gradientUnits="userSpaceOnUse">
      <stop stop-color="#149DD8" stop-opacity=".72"/>
      <stop offset="1" stop-color="#63D0FF" stop-opacity="0"/>
    </radialGradient>
    <linearGradient id="g" x1="585.676" x2="818.261" y1="701.525" y2="362.25" gradientUnits="userSpaceOnUse">
      <stop stop-color="#FFB2B8"/>
      <stop offset="1" stop-color="#C74FB8"/>
    </linearGradient>
    <linearGradient id="i" x1="60.826" x2="92.19" y1="274.333" y2="742.854" gradientUnits="userSpaceOnUse">
      <stop stop-color="#E0FCFF"/>
      <stop offset=".963" stop-color="#F6FEFF"/>
    </linearGradient>
    <filter id="f" width="680.152" height="640.561" x="361.893" y="211.608" color-interpolation-filters="sRGB" filterUnits="userSpaceOnUse">
      <feFlood flood-opacity="0" result="BackgroundImageFix"/>
      <feBlend in="SourceGraphic" in2="BackgroundImageFix" result="shape"/>
      <feGaussianBlur result="effect1_foregroundBlur_11_5986" stdDeviation="47.756"/>
    </filter>
    <filter id="h" width="546.585" height="517.804" x="-140.646" y="245.933" color-interpolation-filters="sRGB" filterUnits="userSpaceOnUse">
      <feFlood flood-opacity="0" result="BackgroundImageFix"/>
      <feBlend in="SourceGraphic" in2="BackgroundImageFix" result="shape"/>
      <feGaussianBlur result="effect1_foregroundBlur_11_5986" stdDeviation="47.756"/>
    </filter>
    <clipPath id="a">
      <path fill="#fff" d="M0 0h610v975H0z"/>
    </clipPath>
  </defs>
</svg>
