<svg xmlns="http://www.w3.org/2000/svg" width="482" height="701" fill="none" viewBox="0 0 482 701" xmlns:xlink="http://www.w3.org/1999/xlink">
  <path fill="#fff" d="M453.449 66.27a.74.74 0 0 0-.883-.724.737.737 0 0 0-.539 1.007.74.74 0 0 0 .683.456.737.737 0 0 0 .739-.738Zm0 60.25a.74.74 0 0 0-.456-.683.74.74 0 0 0-.806.161.74.74 0 0 0-.16.805.743.743 0 0 0 1.366 0 .7.7 0 0 0 .056-.283m0-70.291a.74.74 0 0 0-.883-.725.737.737 0 0 0-.539 1.007.74.74 0 0 0 .683.457.737.737 0 0 0 .739-.74Zm0-10.042a.736.736 0 0 0-1.262-.522.75.75 0 0 0-.16.805.74.74 0 0 0 .966.4.74.74 0 0 0 .456-.683m0 30.125a.74.74 0 0 0-.883-.725.738.738 0 1 0 .883.725m0 10.042a.736.736 0 0 0-1.262-.522.75.75 0 0 0-.16.805.74.74 0 0 0 .966.4.74.74 0 0 0 .456-.683m0 10.041a.736.736 0 0 0-1.262-.522.74.74 0 0 0-.16.805.74.74 0 0 0 .966.4.74.74 0 0 0 .456-.683m0 20.084a.74.74 0 0 0-.456-.683.735.735 0 0 0-.805.16.738.738 0 1 0 1.044 1.045.74.74 0 0 0 .217-.522m0-10.042a.74.74 0 0 0-.456-.683.735.735 0 0 0-.805.16.738.738 0 1 0 1.044 1.045.74.74 0 0 0 .217-.522m0 70.291a.73.73 0 0 0-.125-.41.736.736 0 0 0-1.137-.112.74.74 0 0 0-.16.805.743.743 0 0 0 1.366 0 .7.7 0 0 0 .056-.283m0-170.707a.736.736 0 0 0-1.262-.522.75.75 0 0 0-.16.805.74.74 0 0 0 .966.4.74.74 0 0 0 .456-.683m0 10.042a.74.74 0 1 0-1.48-.001.74.74 0 0 0 1.48 0Zm0 140.582a.74.74 0 0 0-.456-.683.74.74 0 0 0-.805.16.74.74 0 0 0 .111 1.137.736.736 0 0 0 .933-.092.74.74 0 0 0 .217-.522m0 10.042a.74.74 0 0 0-.456-.683.735.735 0 0 0-.805.16.738.738 0 1 0 1.044 1.045.74.74 0 0 0 .217-.522m0-20.084a.737.737 0 0 0-1.261-.523.74.74 0 0 0 .111 1.138.74.74 0 0 0 .933-.092.74.74 0 0 0 .217-.523m0-120.499a.74.74 0 1 0-1.48 0 .74.74 0 0 0 1.48 0m0 10.041a.737.737 0 0 0-1.262-.522.75.75 0 0 0-.16.806.74.74 0 0 0 .966.4.74.74 0 0 0 .456-.684m0 100.417a.73.73 0 0 0-.456-.683.74.74 0 0 0-.806.16.75.75 0 0 0-.16.806.74.74 0 0 0 1.422-.283m-208.71 0a.73.73 0 0 0-.456-.683.74.74 0 0 0-.806.16.75.75 0 0 0-.16.806.74.74 0 0 0 1.422-.283m0-20.083a.74.74 0 0 0-.456-.683.735.735 0 0 0-.805.16.738.738 0 1 0 1.044 1.045.74.74 0 0 0 .217-.522m0-10.042a.74.74 0 0 0-.456-.683.735.735 0 0 0-.805.16.738.738 0 1 0 1.044 1.045.74.74 0 0 0 .217-.522m0 20.083a.74.74 0 0 0-.456-.683.74.74 0 0 0-.806.161.74.74 0 0 0-.16.805.743.743 0 0 0 1.366 0 .7.7 0 0 0 .056-.283m0 30.125a.74.74 0 0 0-.456-.683.74.74 0 0 0-.805.16.74.74 0 0 0 .111 1.137.736.736 0 0 0 .933-.092.74.74 0 0 0 .217-.522m0-10.042a.737.737 0 0 0-1.261-.523.74.74 0 0 0 .111 1.138.74.74 0 0 0 .933-.092.74.74 0 0 0 .217-.523m0-120.499a.74.74 0 1 0-1.48 0 .74.74 0 0 0 1.48 0m0 140.583a.74.74 0 0 0-.456-.683.735.735 0 0 0-.805.16.738.738 0 1 0 1.044 1.045.74.74 0 0 0 .217-.522m0-130.542a.736.736 0 0 0-1.262-.522.75.75 0 0 0-.16.806.74.74 0 0 0 .966.4.74.74 0 0 0 .456-.684m0-30.124a.736.736 0 0 0-1.262-.522.75.75 0 0 0-.16.805.74.74 0 0 0 .966.4.74.74 0 0 0 .456-.683m0 40.166a.737.737 0 0 0-1.262-.522.75.75 0 0 0-.16.805.74.74 0 0 0 .966.4.74.74 0 0 0 .456-.683m0-30.124a.74.74 0 1 0-1.48-.001.74.74 0 0 0 1.48 0Zm0 70.29a.736.736 0 0 0-1.262-.522.75.75 0 0 0-.16.806.74.74 0 0 0 .966.4.74.74 0 0 0 .456-.683Zm0 10.042a.736.736 0 0 0-1.262-.522.75.75 0 0 0-.16.805.74.74 0 0 0 .966.4.74.74 0 0 0 .456-.683m0 80.333a.738.738 0 1 0-1.477.002.738.738 0 0 0 1.477-.002m0-110.457a.74.74 0 0 0-.883-.725.737.737 0 0 0-.539 1.007.74.74 0 0 0 .683.456.737.737 0 0 0 .739-.738m0-10.042a.74.74 0 0 0-.883-.725.737.737 0 0 0-.539 1.007.74.74 0 0 0 .683.457.737.737 0 0 0 .739-.74Zm0 20.083a.74.74 0 0 0-.883-.725.738.738 0 1 0 .883.725M443.275 181.75a.74.74 0 0 0 .456.683.73.73 0 0 0 .805-.16.737.737 0 0 0-.112-1.137.74.74 0 0 0-1.149.614m-85.485 0a.74.74 0 0 0-.456-.683.74.74 0 0 0-.805.161.738.738 0 1 0 1.205.805.7.7 0 0 0 .056-.283m-52.177 0a.74.74 0 0 0-.457-.683.74.74 0 0 0-.805.161.74.74 0 0 0-.16.805.74.74 0 0 0 1.422-.283m-52.178 0a.74.74 0 0 0-.456-.683.74.74 0 0 0-.805.161.738.738 0 1 0 1.205.805.7.7 0 0 0 .056-.283m86.963 0a.74.74 0 0 0-.457-.683.74.74 0 1 0 .457.683m52.177 0a.74.74 0 0 0-.456-.683.74.74 0 0 0-.806.161.74.74 0 0 0-.16.805.74.74 0 0 0 .683.456.74.74 0 0 0 .523-.216.74.74 0 0 0 .216-.523m-69.57 0a.74.74 0 0 0-.456-.683.74.74 0 0 0-.805.161.738.738 0 1 0 1.205.805.7.7 0 0 0 .056-.283m-52.177 0a.74.74 0 0 0-.457-.683.74.74 0 0 0-.805.161.74.74 0 0 0-.16.805.743.743 0 0 0 1.366 0 .7.7 0 0 0 .056-.283m156.532 0a.74.74 0 0 0-.456-.683.74.74 0 0 0-.806.161.74.74 0 0 0-.16.805.738.738 0 0 0 1.422-.283m-17.392 0a.74.74 0 0 0-.457-.683.74.74 0 0 0-.805.161.74.74 0 0 0-.16.805.74.74 0 0 0 1.422-.283m-34.785 0a.74.74 0 0 0-.457-.683.74.74 0 0 0-.805.161.74.74 0 0 0-.16.805.743.743 0 0 0 1.366 0 .7.7 0 0 0 .056-.283m-86.963 0a.74.74 0 0 0-.456-.683.74.74 0 0 0-.805.161.735.735 0 0 0 .112 1.136.73.73 0 0 0 .693.069.75.75 0 0 0 .4-.4.7.7 0 0 0 .056-.283m95.659-125.52a.737.737 0 0 0-1.464-.145.74.74 0 0 0 .314.76.74.74 0 0 0 .933-.093.74.74 0 0 0 .217-.522m-113.051 5.02a.741.741 0 0 0-1.262-.522.737.737 0 0 0 .112 1.137.74.74 0 0 0 .933-.092.74.74 0 0 0 .217-.522Zm17.392 0a.74.74 0 0 0-1.261-.522.737.737 0 0 0 .112 1.137.736.736 0 0 0 .933-.092.74.74 0 0 0 .216-.522Zm-34.785 0a.74.74 0 1 0-1.48 0 .74.74 0 0 0 1.48 0m182.621-5.02a.74.74 0 0 0-.883-.725.737.737 0 0 0-.538 1.007.74.74 0 0 0 .682.457.74.74 0 0 0 .739-.74Zm-34.785 120.499a.74.74 0 0 0-.456-.683.743.743 0 0 0-1.008.539.743.743 0 0 0 .725.883.736.736 0 0 0 .739-.739m17.393-120.5a.736.736 0 0 0-1.262-.523.75.75 0 0 0-.16.806.74.74 0 0 0 .683.457.737.737 0 0 0 .739-.74m-17.393 0a.74.74 0 0 0-.883-.724.737.737 0 0 0-.266 1.34.736.736 0 0 0 .933-.093.74.74 0 0 0 .216-.522ZM279.524 66.272a.736.736 0 0 0-1.262-.523.75.75 0 0 0-.16.805.74.74 0 0 0 .683.456.737.737 0 0 0 .739-.738m104.355 110.457a.738.738 0 1 0-1.477.002.738.738 0 0 0 1.477-.002M409.968 61.25a.741.741 0 0 0-1.262-.523.737.737 0 0 0 .112 1.137.74.74 0 0 0 1.15-.614m17.392 0a.736.736 0 0 0-1.262-.523.75.75 0 0 0-.16.805.738.738 0 0 0 1.422-.282m17.393 0a.737.737 0 0 0-1.464-.145.735.735 0 0 0 .314.759.74.74 0 0 0 .933-.092.74.74 0 0 0 .217-.522m-78.267-5.021a.74.74 0 0 0-.883-.725.737.737 0 0 0-.538 1.007.736.736 0 0 0 1.205.24.74.74 0 0 0 .216-.522M262.132 66.27a.74.74 0 0 0-1.262-.523.737.737 0 0 0 .112 1.137.737.737 0 0 0 1.15-.614m130.443-5.021a.74.74 0 1 0-1.48-.001.74.74 0 0 0 1.48 0Zm-52.177 0a.737.737 0 0 0-1.262-.523.75.75 0 0 0-.16.805.74.74 0 0 0 .683.457.74.74 0 0 0 .739-.74Zm-17.393 0a.74.74 0 1 0-1.48-.001.74.74 0 0 0 1.48 0Zm52.178 0a.741.741 0 0 0-1.262-.523.737.737 0 0 0 .112 1.137.74.74 0 0 0 .933-.092.74.74 0 0 0 .217-.522m-69.57 0a.741.741 0 0 0-1.262-.523.737.737 0 0 0 .112 1.137.74.74 0 0 0 1.15-.614m52.177 0a.74.74 0 1 0-1.48-.001.74.74 0 0 0 1.48 0ZM253.435 51.208a.736.736 0 0 0-1.261-.522.739.739 0 1 0 1.261.522m182.621 125.52a.737.737 0 0 0-1.463-.144.735.735 0 0 0 .314.759.737.737 0 0 0 1.149-.615m-95.658-125.52a.74.74 0 0 0-1.262-.522.75.75 0 0 0-.16.805.74.74 0 0 0 .683.456.73.73 0 0 0 .522-.216.75.75 0 0 0 .217-.523m-52.178 0a.74.74 0 1 0-1.48-.001.74.74 0 0 0 1.48.001m-17.392 0a.74.74 0 0 0-1.262-.522.737.737 0 0 0 .112 1.137.742.742 0 0 0 1.094-.332.7.7 0 0 0 .056-.283m34.785 0a.74.74 0 0 0-1.262-.522.737.737 0 0 0 .112 1.137.74.74 0 0 0 1.15-.615m17.392 0a.74.74 0 1 0-1.48-.001.74.74 0 0 0 1.48.001m-26.089 15.063a.74.74 0 0 0-.883-.725.737.737 0 0 0-.538 1.007.74.74 0 0 0 .682.456.74.74 0 0 0 .739-.738m69.57-20.084a.74.74 0 0 0-.883-.724.737.737 0 0 0-.266 1.339.736.736 0 0 0 1.093-.332.7.7 0 0 0 .056-.283m-52.177 40.167a.736.736 0 0 0-1.262-.522.75.75 0 0 0-.16.804.74.74 0 0 0 .966.4.75.75 0 0 0 .4-.4.7.7 0 0 0 .056-.282m121.747-40.167a.74.74 0 0 0-.883-.724.738.738 0 1 0 .883.724m-17.392 0a.74.74 0 0 0-1.262-.522.737.737 0 0 0 .523 1.261.74.74 0 0 0 .739-.739m-17.393 0a.74.74 0 1 0-1.48 0 .74.74 0 0 0 1.48 0m26.089 5.021a.736.736 0 0 0-1.262-.522.74.74 0 0 0-.16.805.738.738 0 0 0 1.206.24.75.75 0 0 0 .216-.523m-8.696 125.52a.738.738 0 1 0-1.477.002.738.738 0 0 0 1.477-.002m-156.532-120.5a.74.74 0 0 0-.883-.724.74.74 0 0 0 .143 1.464.74.74 0 0 0 .74-.74m34.784 0a.74.74 0 0 0-.883-.724.737.737 0 0 0-.538 1.007.74.74 0 0 0 .682.457.74.74 0 0 0 .739-.74m-17.392 0a.737.737 0 0 0-1.464-.145.74.74 0 0 0 .314.76.74.74 0 0 0 .933-.092.74.74 0 0 0 .217-.522Zm34.785 0a.74.74 0 0 0-.883-.724.737.737 0 0 0-.539 1.007.74.74 0 0 0 .683.457.737.737 0 0 0 .739-.74m17.392 0a.74.74 0 0 0-.883-.724.737.737 0 0 0-.538 1.007.74.74 0 0 0 .682.457.74.74 0 0 0 .739-.74m26.089-5.02a.736.736 0 0 0-1.261-.522.739.739 0 1 0 1.261.522m17.393 0a.74.74 0 0 0-1.262-.522.737.737 0 0 0 .112 1.137.742.742 0 0 0 1.094-.332.7.7 0 0 0 .056-.283m17.392 0a.736.736 0 0 0-1.262-.522.75.75 0 0 0-.16.805.738.738 0 0 0 1.422-.283m52.178 0a.741.741 0 0 0-1.262-.522.737.737 0 0 0 .112 1.137.74.74 0 0 0 1.15-.615m-95.659 5.02a.74.74 0 0 0-.883-.724.737.737 0 0 0-.539 1.007.74.74 0 0 0 .683.457.737.737 0 0 0 .739-.74m0-10.04a.736.736 0 0 0-1.262-.522.75.75 0 0 0-.16.804.74.74 0 0 0 .966.4.74.74 0 0 0 .456-.683Zm60.874 5.02a.74.74 0 0 0-1.262-.522.737.737 0 0 0 .112 1.137.74.74 0 0 0 1.15-.615m-95.659 25.104a.74.74 0 1 0-1.48 0 .74.74 0 0 0 1.48 0m17.392 100.416a.737.737 0 0 0-1.463-.144.735.735 0 0 0 .314.759.737.737 0 0 0 1.149-.615M436.056 76.312a.74.74 0 0 0-.883-.725.738.738 0 1 0 .883.725m-182.621 5.02a.736.736 0 0 0-1.261-.522.74.74 0 1 0 1.261.523Zm17.393 0a.74.74 0 0 0-1.262-.521.737.737 0 0 0 .523 1.26.74.74 0 0 0 .739-.738Zm17.392 0a.74.74 0 1 0-1.479 0 .74.74 0 0 0 1.479 0m78.266-5.02a.74.74 0 0 0-.883-.725.738.738 0 1 0 .883.725m-34.785 0a.74.74 0 0 0-.883-.725.738.738 0 1 0 .883.725m17.393 0a.74.74 0 0 0-.883-.725.738.738 0 1 0 .883.725m34.785 0a.736.736 0 0 0-1.262-.523.75.75 0 0 0-.16.806.74.74 0 0 0 .683.456.737.737 0 0 0 .739-.739m17.392 0a.74.74 0 0 0-.883-.725.737.737 0 0 0-.266 1.34.736.736 0 0 0 .933-.092.74.74 0 0 0 .216-.523m-95.658 5.02a.74.74 0 0 0-1.262-.521.737.737 0 0 0 .523 1.26.73.73 0 0 0 .522-.215.73.73 0 0 0 .217-.523Zm113.051-5.02a.736.736 0 0 0-1.262-.523.75.75 0 0 0-.16.806.74.74 0 0 0 .683.456.737.737 0 0 0 .739-.739M314.309 176.728a.73.73 0 0 0-.125-.41.736.736 0 0 0-1.137-.112.74.74 0 0 0-.16.805.743.743 0 0 0 1.366 0 .7.7 0 0 0 .056-.283M427.36 81.333a.74.74 0 0 0-1.262-.522.75.75 0 0 0-.16.805.737.737 0 0 0 .966.4.74.74 0 0 0 .456-.683m17.393 0a.74.74 0 0 0-1.262-.523.737.737 0 0 0 .112 1.137.74.74 0 0 0 1.15-.614m-182.621 5.02a.739.739 0 1 0-1.478 0 .739.739 0 0 0 1.478 0m17.392 0a.74.74 0 0 0-1.262-.522.75.75 0 0 0-.16.806.74.74 0 0 0 .966.4.75.75 0 0 0 .4-.4.7.7 0 0 0 .056-.283Zm17.392 0a.74.74 0 1 0-1.48 0 .74.74 0 0 0 1.48 0m43.482-5.02a.74.74 0 0 0-1.464-.144.735.735 0 0 0 .314.758.74.74 0 0 0 1.15-.614m69.57 0a.74.74 0 0 0-1.262-.522.737.737 0 0 0 .523 1.26.74.74 0 0 0 .739-.738m-52.178 0a.736.736 0 0 0-1.261-.522.74.74 0 1 0 1.261.522m-34.785 0a.74.74 0 0 0-.883-.725.737.737 0 0 0-.266 1.34.736.736 0 0 0 1.093-.332.7.7 0 0 0 .056-.283m69.57 0a.736.736 0 0 0-1.262-.522.75.75 0 0 0-.16.805.738.738 0 0 0 1.422-.283m-17.392 0a.74.74 0 0 0-1.262-.522.737.737 0 0 0 .523 1.26.74.74 0 0 0 .739-.738m-78.267-5.02a.74.74 0 0 0-.883-.726.738.738 0 1 0 .883.725Zm69.57 100.415a.737.737 0 0 0-1.261-.522.738.738 0 1 0 1.205.805.7.7 0 0 0 .056-.283m52.178-110.457a.736.736 0 0 0-1.262-.523.75.75 0 0 0-.16.805.74.74 0 0 0 .683.456.737.737 0 0 0 .739-.738m-165.229 5.02a.74.74 0 1 0-1.48 0 .74.74 0 0 0 1.48 0m182.621-5.02a.74.74 0 0 0-.883-.725.737.737 0 0 0-.538 1.007.74.74 0 0 0 .682.456.74.74 0 0 0 .739-.738m-165.228 5.02a.741.741 0 0 0-1.262-.522.737.737 0 0 0 .112 1.137.74.74 0 0 0 .933-.092.74.74 0 0 0 .217-.522Zm17.392 0a.74.74 0 0 0-.883-.725.738.738 0 1 0 .883.725m95.659-5.02a.736.736 0 0 0-1.262-.523.75.75 0 0 0-.16.805.74.74 0 0 0 .683.456.737.737 0 0 0 .739-.738m-34.785 0a.74.74 0 0 0-.883-.725.737.737 0 0 0-.539 1.007.74.74 0 0 0 .683.456.737.737 0 0 0 .739-.738m-17.393 0a.74.74 0 0 0-.883-.725.737.737 0 0 0-.538 1.007.74.74 0 0 0 .682.456.74.74 0 0 0 .739-.738m69.57 0a.74.74 0 0 0-.883-.725.738.738 0 1 0 .883.725m-34.785 0a.74.74 0 0 0-.883-.725.737.737 0 0 0-.538 1.007.736.736 0 0 0 1.205.24.74.74 0 0 0 .216-.522m-60.873 5.02a.741.741 0 0 0-1.262-.522.737.737 0 0 0 .112 1.137.74.74 0 0 0 1.15-.615m-43.481 5.021a.741.741 0 0 0-1.262-.523.737.737 0 0 0 .112 1.137.737.737 0 0 0 1.15-.614m182.621-5.02a.737.737 0 0 0-1.464-.145.735.735 0 0 0 .314.759.74.74 0 0 0 .933-.092.74.74 0 0 0 .217-.522m-17.393 0a.736.736 0 0 0-1.262-.523.75.75 0 0 0-.16.805.738.738 0 0 0 1.422-.282m-78.266 105.436a.74.74 0 0 0-.456-.683.74.74 0 0 0-.694 1.298.743.743 0 0 0 1.094-.332.7.7 0 0 0 .056-.283M323.005 71.291a.74.74 0 1 0-1.48 0 .74.74 0 0 0 1.48 0m-8.696-5.02a.74.74 0 1 0-1.48-.001.74.74 0 0 0 1.48 0Zm-34.785 10.041a.736.736 0 0 0-1.262-.523.75.75 0 0 0-.16.806.74.74 0 0 0 .683.456.737.737 0 0 0 .739-.739m60.874-5.02a.737.737 0 0 0-1.464-.145.73.73 0 0 0 .314.758.739.739 0 0 0 1.15-.614Zm17.392 0a.74.74 0 1 0-1.48-.002.74.74 0 0 0 1.48.001Zm17.393 0a.741.741 0 0 0-1.262-.523.737.737 0 0 0 .112 1.137.74.74 0 0 0 .933-.092.74.74 0 0 0 .217-.522m34.785 0a.741.741 0 0 0-1.262-.523.737.737 0 0 0 .112 1.137.74.74 0 0 0 1.15-.615Zm-17.393 0a.74.74 0 1 0-1.48-.002.74.74 0 0 0 1.48.001Zm-8.696-25.105a.74.74 0 0 0-1.262-.522.75.75 0 0 0-.16.805.74.74 0 0 0 .966.4.75.75 0 0 0 .4-.4.7.7 0 0 0 .056-.283m17.392-30.124a.74.74 0 0 0-.883-.725.738.738 0 1 0 .883.725m17.393 0a.736.736 0 0 0-1.262-.523.75.75 0 0 0-.16.805.74.74 0 0 0 .683.456.737.737 0 0 0 .739-.738m-147.836 5.02a.74.74 0 0 0-.883-.725.74.74 0 1 0 .883.725m95.658-5.02a.74.74 0 0 0-1.261-.523.735.735 0 0 0 .112 1.137.736.736 0 0 0 .933-.092.74.74 0 0 0 .216-.522m69.57 0a.74.74 0 0 0-1.261-.523.737.737 0 0 0 .112 1.137.736.736 0 0 0 .933-.092.74.74 0 0 0 .216-.522m-182.621 5.02a.74.74 0 0 0-.883-.725.737.737 0 0 0-.539 1.008.738.738 0 0 0 1.206.24.74.74 0 0 0 .216-.523m130.444-5.02a.736.736 0 0 0-1.262-.523.75.75 0 0 0-.16.805.74.74 0 0 0 .683.456.737.737 0 0 0 .739-.738m-34.785 0a.74.74 0 1 0-1.48-.001.74.74 0 0 0 1.48 0Zm-52.178 0a.74.74 0 0 0-1.261-.523.737.737 0 0 0 .112 1.137.736.736 0 0 0 .933-.092.74.74 0 0 0 .216-.522m-17.392 0a.736.736 0 0 0-1.262-.523.74.74 0 0 0-.16.805.74.74 0 0 0 .683.456.737.737 0 0 0 .739-.738m52.177 0a.74.74 0 0 0-1.261-.523.737.737 0 0 0 .112 1.137.736.736 0 0 0 .933-.092.74.74 0 0 0 .216-.522m-17.392 0a.74.74 0 1 0-1.48-.001.74.74 0 0 0 1.48 0Zm60.874 5.02a.74.74 0 0 0-.883-.725.74.74 0 0 0-.539 1.008.74.74 0 0 0 .683.456.737.737 0 0 0 .739-.739m52.177 0a.74.74 0 0 0-1.262-.522.75.75 0 0 0-.16.805.738.738 0 0 0 1.422-.283m-17.392 0a.74.74 0 0 0-.883-.725.74.74 0 0 0-.539 1.008.74.74 0 0 0 .683.456.74.74 0 0 0 .739-.739m-17.393 0a.74.74 0 0 0-.883-.725.738.738 0 1 0 .883.725m52.178 0a.737.737 0 0 0-1.464-.145.73.73 0 0 0 .314.76.737.737 0 0 0 1.15-.615m-156.533 0a.74.74 0 0 0-.883-.725.737.737 0 0 0-.539 1.008.739.739 0 0 0 1.422-.283m-26.088 5.021a.741.741 0 0 0-1.262-.523.737.737 0 0 0 .112 1.137.736.736 0 0 0 .933-.091.75.75 0 0 0 .217-.523m0-10.041a.741.741 0 0 0-1.262-.523.737.737 0 0 0 .112 1.137.736.736 0 0 0 .933-.092.75.75 0 0 0 .217-.522m60.873 5.02a.74.74 0 0 0-.883-.725.738.738 0 1 0 .883.725m-17.392 0a.74.74 0 0 0-.883-.725.74.74 0 0 0-.539 1.008.74.74 0 0 0 .683.456.74.74 0 0 0 .739-.739m34.785 0a.737.737 0 0 0-1.464-.145.735.735 0 0 0 .314.76.74.74 0 0 0 1.15-.615m-60.874 5.021a.736.736 0 0 0-1.262-.523.74.74 0 0 0-.16.806.74.74 0 0 0 .683.456.737.737 0 0 0 .739-.739m78.266-5.02a.74.74 0 0 0-.883-.726.738.738 0 1 0 .883.725Zm8.696-15.063a.74.74 0 0 0-1.261-.522.734.734 0 0 0 .112 1.137.736.736 0 0 0 1.093-.332.7.7 0 0 0 .056-.283m-17.392 0a.736.736 0 0 0-1.262-.522.75.75 0 0 0-.16.805.74.74 0 0 0 .966.4.74.74 0 0 0 .456-.683m34.785 0a.74.74 0 0 0-1.262-.522.75.75 0 0 0-.16.805.74.74 0 0 0 .966.4.75.75 0 0 0 .4-.4.7.7 0 0 0 .056-.283m52.177 0a.74.74 0 0 0-1.261-.522.734.734 0 0 0 .112 1.137.736.736 0 0 0 1.093-.332.7.7 0 0 0 .056-.283m-34.785 0a.74.74 0 1 0-1.48-.001.74.74 0 0 0 1.48 0Zm17.393 0a.74.74 0 0 0-1.262-.522.737.737 0 0 0 .112 1.137.742.742 0 0 0 1.094-.332.7.7 0 0 0 .056-.283m-86.963 40.166a.74.74 0 0 0-.883-.724.737.737 0 0 0-.266 1.339.736.736 0 0 0 1.093-.332.7.7 0 0 0 .056-.283M279.524 6.021a.74.74 0 0 0-1.262-.522.75.75 0 0 0-.16.805.74.74 0 0 0 .966.4.75.75 0 0 0 .4-.4.7.7 0 0 0 .056-.283m52.177 0a.74.74 0 0 0-1.261-.522.734.734 0 0 0 .112 1.137.736.736 0 0 0 1.093-.332.7.7 0 0 0 .056-.283m-17.392 0a.736.736 0 0 0-1.262-.522.75.75 0 0 0-.16.805.743.743 0 0 0 .966.4.75.75 0 0 0 .4-.4.7.7 0 0 0 .056-.283m-17.393 0a.74.74 0 0 0-1.261-.522.737.737 0 0 0 .522 1.261.73.73 0 0 0 .683-.456.7.7 0 0 0 .056-.283m78.267 5.02a.74.74 0 0 0-.883-.724.74.74 0 1 0 .883.725Zm-121.748 0a.74.74 0 0 0-.883-.724.74.74 0 0 0-.581.58.74.74 0 0 0 .315.759.736.736 0 0 0 .933-.092.74.74 0 0 0 .216-.522Zm139.14 0a.74.74 0 0 0-.883-.724.74.74 0 0 0-.581.58.74.74 0 0 0 .314.759.74.74 0 0 0 .933-.092.74.74 0 0 0 .217-.522Zm34.785 0a.737.737 0 0 0-1.262-.523.74.74 0 0 0-.16.806.738.738 0 0 0 1.422-.282Zm-17.392 0a.74.74 0 0 0-.883-.724.74.74 0 1 0 .883.725Zm-52.178 0a.74.74 0 0 0-.883-.724.74.74 0 0 0-.581.58.74.74 0 0 0 .315.759.736.736 0 0 0 .933-.092.74.74 0 0 0 .216-.522Zm86.963 0a.737.737 0 0 0-1.262-.523.737.737 0 0 0 .112 1.138.74.74 0 0 0 .933-.092.74.74 0 0 0 .217-.522Zm-156.533 0a.74.74 0 0 0-.883-.724.737.737 0 0 0-.539 1.007.739.739 0 0 0 1.422-.282Zm52.178 0a.737.737 0 0 0-1.464-.145.73.73 0 0 0 .314.76.74.74 0 0 0 1.15-.614Zm-69.57 0a.74.74 0 0 0-.883-.724.74.74 0 1 0 .883.725Zm34.785 0a.74.74 0 0 0-.883-.724.74.74 0 1 0 .883.725Zm17.392 0a.74.74 0 0 0-.883-.724.74.74 0 0 0-.581.58.738.738 0 1 0 1.464.145Zm-60.873-5.02a.739.739 0 1 0-1.478 0 .739.739 0 0 0 1.478 0m-8.697 35.145a.736.736 0 0 0-1.261-.522.74.74 0 1 0 1.261.522m182.621-5.02a.74.74 0 0 0-.883-.725.737.737 0 0 0-.266 1.34.736.736 0 0 0 1.093-.333.7.7 0 0 0 .056-.282m-165.228 5.02a.74.74 0 0 0-1.262-.522.738.738 0 0 0 1.045 1.045.75.75 0 0 0 .217-.523m17.392 0a.74.74 0 1 0-1.48 0 .74.74 0 0 0 1.48 0m17.393 0a.74.74 0 0 0-1.262-.522.738.738 0 1 0 1.262.522m113.051-5.02a.74.74 0 0 0-1.262-.523.737.737 0 0 0 .523 1.262.74.74 0 0 0 .739-.74Zm-34.785 0a.74.74 0 0 0-1.262-.523.74.74 0 0 0-.16.806.74.74 0 0 0 .966.4.75.75 0 0 0 .4-.4.7.7 0 0 0 .056-.284Zm-52.178 0a.74.74 0 0 0-.883-.725.737.737 0 0 0-.266 1.34.736.736 0 0 0 1.093-.333.7.7 0 0 0 .056-.282m69.57 0a.74.74 0 1 0-1.48-.001.74.74 0 0 0 1.48 0Zm-52.177 0a.74.74 0 0 0-1.262-.523.74.74 0 0 0-.16.806.74.74 0 0 0 .966.4.74.74 0 0 0 .456-.684Zm-26.089 5.02a.74.74 0 1 0-1.48 0 .74.74 0 0 0 1.48 0m43.481-5.02a.74.74 0 0 0-.883-.725.737.737 0 0 0-.266 1.34.736.736 0 0 0 1.093-.333.7.7 0 0 0 .056-.282m43.482 5.02a.74.74 0 0 0-1.262-.522.738.738 0 1 0 1.262.522m-130.444 5.021a.74.74 0 0 0-1.262-.522.75.75 0 0 0-.16.805.74.74 0 0 0 .966.4.75.75 0 0 0 .4-.4.7.7 0 0 0 .056-.283m-17.392 0a.739.739 0 1 0-1.478 0 .739.739 0 0 0 1.478 0m34.784 0a.74.74 0 0 0-.883-.724.737.737 0 0 0-.266 1.339.736.736 0 0 0 1.093-.332.7.7 0 0 0 .056-.283m147.837-5.02a.741.741 0 0 0-1.262-.523.737.737 0 0 0 .112 1.137.74.74 0 0 0 1.15-.615Zm-130.444 5.02a.736.736 0 0 0-1.262-.522.75.75 0 0 0-.16.805.74.74 0 0 0 .966.4.75.75 0 0 0 .4-.4.7.7 0 0 0 .056-.283m26.089-5.02a.74.74 0 0 0-1.262-.523.74.74 0 0 0-.16.805.74.74 0 0 0 .683.457.73.73 0 0 0 .522-.217.75.75 0 0 0 .217-.523Zm17.392 0a.736.736 0 0 0-1.261-.522.74.74 0 1 0 1.261.521Zm69.57 0a.736.736 0 0 0-1.262-.522.75.75 0 0 0-.16.805.74.74 0 0 0 .966.4.74.74 0 0 0 .456-.684Zm-52.177 0a.74.74 0 0 0-1.262-.523.738.738 0 0 0 1.045 1.045.75.75 0 0 0 .217-.523Zm17.392 0a.736.736 0 0 0-1.262-.522.75.75 0 0 0-.16.804.738.738 0 0 0 1.422-.283Zm-78.266-5.022a.737.737 0 0 0-1.262-.522.75.75 0 0 0-.16.805.74.74 0 0 0 .966.4.75.75 0 0 0 .4-.4.7.7 0 0 0 .056-.282Zm17.392-10.04a.74.74 0 0 0-1.261-.524.737.737 0 0 0 .112 1.137.736.736 0 0 0 .933-.091.74.74 0 0 0 .216-.523Zm-34.785 10.04a.74.74 0 0 0-.883-.724.737.737 0 0 0-.266 1.34.736.736 0 0 0 1.093-.333.7.7 0 0 0 .056-.282Zm104.355-10.04a.74.74 0 0 0-.883-.726.737.737 0 0 0-.538 1.008.735.735 0 0 0 1.205.24.74.74 0 0 0 .216-.523Zm34.785 0a.74.74 0 0 0-1.261-.524.737.737 0 0 0 .112 1.137.736.736 0 0 0 .933-.091.74.74 0 0 0 .216-.523Zm-165.228 5.02a.74.74 0 0 0-.883-.725.74.74 0 0 0-.267 1.34.74.74 0 0 0 .933-.092.74.74 0 0 0 .217-.523m-17.393 0a.74.74 0 0 0-.883-.725.737.737 0 0 0-.539 1.008.738.738 0 0 0 1.206.24.74.74 0 0 0 .216-.523m43.481-5.02a.74.74 0 0 0-1.261-.524.737.737 0 0 0 .112 1.137.736.736 0 0 0 .933-.091.74.74 0 0 0 .216-.523Zm-8.696 5.02a.74.74 0 0 0-1.261-.523.737.737 0 0 0 .112 1.137.737.737 0 0 0 1.149-.614m26.089-5.02a.74.74 0 1 0-1.48-.002.74.74 0 0 0 1.48.001Zm34.785 0a.74.74 0 1 0-1.48-.002.74.74 0 0 0 1.48.001Zm34.785 0a.736.736 0 0 0-1.262-.523.74.74 0 0 0-.16.805.74.74 0 0 0 .683.456.737.737 0 0 0 .739-.739Zm-17.393 0a.74.74 0 0 0-1.261-.524.735.735 0 0 0 .112 1.137.736.736 0 0 0 .933-.091.74.74 0 0 0 .216-.523Zm52.178 0a.736.736 0 0 0-1.262-.523.74.74 0 0 0-.16.805.74.74 0 0 0 .683.456.737.737 0 0 0 .739-.739Zm-113.051 5.02a.74.74 0 0 0-.883-.725.74.74 0 0 0-.267 1.34.74.74 0 0 0 1.15-.615m121.747 0a.74.74 0 0 0-1.262-.523.74.74 0 0 0-.16.806.738.738 0 0 0 1.205.24.74.74 0 0 0 .217-.523m-165.228 5.02a.74.74 0 1 0-1.479.001.74.74 0 0 0 1.479 0Zm147.836-5.02a.74.74 0 0 0-.883-.725.74.74 0 0 0-.267 1.34.74.74 0 0 0 1.15-.615m-130.444 5.02a.74.74 0 0 0-1.262-.522.74.74 0 0 0-.16.806.74.74 0 0 0 .966.4.75.75 0 0 0 .4-.4.7.7 0 0 0 .056-.284m165.229-5.02a.737.737 0 0 0-1.464-.145.735.735 0 0 0 .314.76.737.737 0 0 0 1.15-.615m-104.355 0a.736.736 0 0 0-1.262-.523.75.75 0 0 0-.16.805.74.74 0 0 0 .683.457.74.74 0 0 0 .739-.739m-17.393 0a.74.74 0 0 0-.883-.725.737.737 0 0 0-.539 1.008.738.738 0 0 0 1.206.24.74.74 0 0 0 .216-.523m52.178 0a.74.74 0 0 0-.883-.725.74.74 0 0 0-.267 1.34.74.74 0 0 0 .933-.092.74.74 0 0 0 .217-.523m17.392 0a.74.74 0 0 0-.883-.725.737.737 0 0 0-.539 1.008.74.74 0 0 0 .683.456.737.737 0 0 0 .739-.739m-34.785 0a.74.74 0 0 0-.883-.725.737.737 0 0 0-.539 1.008.738.738 0 0 0 1.206.24.74.74 0 0 0 .216-.523m-26.089 125.52a.74.74 0 0 0-.456-.683.74.74 0 0 0-.805.16.74.74 0 1 0 1.261.523m60.874-15.063a.74.74 0 1 0-1.48.002.74.74 0 0 0 1.48-.002m-52.177 0a.74.74 0 0 0-1.262-.522.734.734 0 0 0 .112 1.137.74.74 0 0 0 .933-.092.74.74 0 0 0 .217-.523m-34.785 0a.738.738 0 1 0-1.477.002.738.738 0 0 0 1.477-.002m17.392 0a.737.737 0 0 0-1.261-.522.74.74 0 0 0-.161.806.738.738 0 0 0 1.422-.284m52.178 0a.738.738 0 1 0-1.477.002.738.738 0 0 0 1.477-.002m-17.393 0a.74.74 0 1 0-1.48.002.74.74 0 0 0 1.48-.002m-69.57 0a.74.74 0 1 0-1.48 0 .74.74 0 0 0 1.48 0m130.444-5.02a.742.742 0 0 0-.884-.725.74.74 0 0 0-.58.581.74.74 0 0 0 .314.758.736.736 0 0 0 .933-.092.73.73 0 0 0 .217-.522m-147.836 5.02a.738.738 0 1 0-1.477.002.738.738 0 0 0 1.477-.002m165.228-5.02a.74.74 0 0 0-.883-.725.74.74 0 0 0-.58.581.735.735 0 0 0 .314.758.73.73 0 0 0 .693.069.75.75 0 0 0 .4-.4.7.7 0 0 0 .056-.283m-113.051 35.145a.737.737 0 0 0-1.261-.522.738.738 0 1 0 1.205.805.7.7 0 0 0 .056-.283m78.266-25.104a.737.737 0 0 0-1.261-.522.738.738 0 1 0 1.045 1.045.74.74 0 0 0 .216-.523m8.697-5.021a.738.738 0 1 0-1.477.002.738.738 0 0 0 1.477-.002m-113.052 5.021a.737.737 0 0 0-1.463-.144.735.735 0 0 0 .314.759.737.737 0 0 0 1.149-.615m17.393 0a.737.737 0 0 0-1.261-.523.74.74 0 0 0 .111 1.137.736.736 0 0 0 .933-.091.74.74 0 0 0 .217-.523m34.785 0a.737.737 0 0 0-1.261-.523.74.74 0 0 0 .111 1.138.74.74 0 0 0 .933-.092.74.74 0 0 0 .217-.523m-17.393 0a.737.737 0 0 0-1.463-.144.735.735 0 0 0 .314.759.737.737 0 0 0 1.149-.615m52.178 0a.73.73 0 0 0-.125-.41.736.736 0 0 0-1.137-.113.75.75 0 0 0-.16.806.743.743 0 0 0 1.205.24.74.74 0 0 0 .217-.523m-17.393 0a.737.737 0 0 0-1.261-.523.735.735 0 0 0 .112 1.138.737.737 0 0 0 1.149-.615m34.785-10.041a.74.74 0 0 0-.883-.725.74.74 0 0 0-.538 1.008.73.73 0 0 0 .682.456.736.736 0 0 0 .739-.739m43.482 5.02a.738.738 0 1 0-1.477.002.738.738 0 0 0 1.477-.002m-17.393 0a.738.738 0 1 0-1.477.002.738.738 0 0 0 1.477-.002m-121.747 30.125a.738.738 0 1 0-1.477.002.738.738 0 0 0 1.477-.002m-43.482-25.104a.736.736 0 0 0-1.261-.523.74.74 0 1 0 1.261.523m69.57-60.25a.74.74 0 1 0-1.48 0 .74.74 0 0 0 1.48 0m-78.266 55.229a.733.733 0 0 0-.883-.724.74.74 0 1 0 .883.724m69.57-10.041a.74.74 0 0 0-.456-.683.74.74 0 0 0-.805.161.738.738 0 1 0 1.205.805.7.7 0 0 0 .056-.283m-17.392 0a.74.74 0 0 0-.457-.683.74.74 0 0 0-.805.161.736.736 0 0 0 .112 1.136.734.734 0 0 0 .933-.091.74.74 0 0 0 .217-.523m78.266 5.021a.742.742 0 0 0-.883-.725.75.75 0 0 0-.379.202.75.75 0 0 0-.16.806.74.74 0 0 0 1.422-.283m-43.481-5.021a.74.74 0 0 0-.457-.683.74.74 0 1 0 .457.683m17.392 0a.74.74 0 0 0-.456-.683.74.74 0 0 0-.805.161.738.738 0 1 0 1.205.805.7.7 0 0 0 .056-.283m17.393 0a.74.74 0 0 0-.457-.683.74.74 0 0 0-.805.161.736.736 0 0 0 .112 1.136.736.736 0 0 0 .933-.091.74.74 0 0 0 .217-.523m-104.355 0a.74.74 0 0 0-.457-.683.74.74 0 0 0-.805.161.736.736 0 0 0 .112 1.136.736.736 0 0 0 .933-.091.74.74 0 0 0 .217-.523m130.443-5.021a.74.74 0 0 0-.456-.683.74.74 0 0 0-.806.161.743.743 0 0 0 .523 1.261.736.736 0 0 0 .739-.739m17.393 0a.74.74 0 0 0-.457-.683.74.74 0 0 0-.805.161.74.74 0 0 0-.16.805.743.743 0 0 0 1.366 0 .7.7 0 0 0 .056-.283m-165.229 5.021a.74.74 0 0 0-.456-.683.74.74 0 0 0-.805.161.738.738 0 1 0 1.205.805.7.7 0 0 0 .056-.283m182.621-5.021a.74.74 0 0 0-.456-.683.74.74 0 0 0-.805.161.735.735 0 0 0 .112 1.137.737.737 0 0 0 1.149-.615m-78.266 45.187a.73.73 0 0 0-.125-.41.735.735 0 0 0-1.137-.112.74.74 0 0 0-.16.805.738.738 0 0 0 1.422-.283m-69.57-40.166a.74.74 0 0 0-.456-.683.74.74 0 0 0-.805.16.735.735 0 0 0 .112 1.137.73.73 0 0 0 .693.069.75.75 0 0 0 .4-.4.7.7 0 0 0 .056-.283m-8.696 5.021a.742.742 0 0 0-.883-.725.75.75 0 0 0-.379.202.75.75 0 0 0-.16.806.74.74 0 0 0 1.422-.283m52.177 0a.74.74 0 0 0-.883-.725.74.74 0 0 0-.58.581.735.735 0 0 0 .314.758.73.73 0 0 0 .693.069.75.75 0 0 0 .4-.4.7.7 0 0 0 .056-.283m-34.785 0a.74.74 0 0 0-.883-.725.74.74 0 0 0-.58.581.735.735 0 0 0 .314.758.73.73 0 0 0 .693.069.74.74 0 0 0 .456-.683m17.393 0a.74.74 0 0 0-.456-.683.74.74 0 0 0-.806.16.75.75 0 0 0-.16.806.74.74 0 0 0 1.422-.283m34.785 0a.73.73 0 0 0-.456-.683.74.74 0 0 0-.806.16.75.75 0 0 0-.16.806.74.74 0 0 0 1.422-.283m17.392 0a.74.74 0 0 0-.883-.725.74.74 0 0 0-.581.581.74.74 0 0 0 .315.758.73.73 0 0 0 .693.069.75.75 0 0 0 .4-.4.7.7 0 0 0 .056-.283m60.874-5.021a.74.74 0 0 0-.456-.683.74.74 0 0 0-.806.161.74.74 0 0 0-.16.805.74.74 0 0 0 .683.456.74.74 0 0 0 .523-.217.74.74 0 0 0 .216-.522m-17.392 0a.74.74 0 0 0-.457-.683.74.74 0 0 0-.805.161.736.736 0 0 0 .112 1.136.734.734 0 0 0 .933-.091.74.74 0 0 0 .217-.523m-17.393 0a.74.74 0 0 0-.456-.683.74.74 0 0 0-.806.161.74.74 0 0 0-.16.805c.056.135.151.25.273.331a.73.73 0 0 0 .693.069.75.75 0 0 0 .4-.4.7.7 0 0 0 .056-.283m-130.444 5.021a.74.74 0 0 0-.456-.683.74.74 0 0 0-.805.16.74.74 0 1 0 1.261.523m182.622-5.021a.74.74 0 0 0-.457-.683.74.74 0 0 0-.805.16.74.74 0 1 0 1.262.523m-104.355 40.166a.738.738 0 1 0-1.477.002.738.738 0 0 0 1.477-.002m0-10.041a.74.74 0 0 0-.456-.683.735.735 0 0 0-.806.16.74.74 0 0 0-.16.805.74.74 0 0 0 .683.457.74.74 0 0 0 .739-.739m43.481-35.146a.74.74 0 0 0-.457-.683.74.74 0 1 0 .457.683m-78.266 35.146a.74.74 0 0 0-.456-.683.735.735 0 0 0-.806.16.74.74 0 0 0-.16.805.74.74 0 0 0 .683.457.737.737 0 0 0 .739-.739m17.392 0a.74.74 0 0 0-.456-.683.73.73 0 0 0-.805.16.738.738 0 1 0 1.045 1.045.74.74 0 0 0 .216-.522m34.785 0a.74.74 0 0 0-.456-.683.735.735 0 0 0-.805.16.738.738 0 1 0 1.045 1.045.74.74 0 0 0 .216-.522m52.178 0a.74.74 0 0 0-.456-.683.735.735 0 0 0-.806.16.74.74 0 0 0-.16.805.74.74 0 0 0 .683.457.737.737 0 0 0 .739-.739m8.696-5.021a.74.74 0 0 0-.456-.683.74.74 0 0 0-.806.16.75.75 0 0 0-.16.806.74.74 0 0 0 1.422-.283m-43.481 5.021a.74.74 0 0 0-.456-.683.735.735 0 0 0-.806.16.74.74 0 0 0-.16.805.74.74 0 0 0 .683.457.74.74 0 0 0 .522-.217.74.74 0 0 0 .217-.522m-121.748 10.041a.73.73 0 0 0-.125-.41.735.735 0 0 0-1.136-.112.738.738 0 1 0 1.205.805.7.7 0 0 0 .056-.283m34.785-10.041a.74.74 0 0 0-.456-.683.73.73 0 0 0-.805.16.74.74 0 0 0-.161.805.738.738 0 0 0 1.422-.282m147.836-5.021a.74.74 0 0 0-.456-.683.74.74 0 0 0-.805.16.74.74 0 1 0 1.261.523m-165.228 5.021a.74.74 0 0 0-.456-.683.735.735 0 0 0-.806.16.74.74 0 0 0-.16.805.74.74 0 0 0 .683.457.74.74 0 0 0 .522-.217.74.74 0 0 0 .217-.522m-17.393 0a.74.74 0 0 0-.456-.683.735.735 0 0 0-.805.16.738.738 0 1 0 1.044 1.045.74.74 0 0 0 .217-.522m139.14 0a.74.74 0 0 0-.456-.683.735.735 0 0 0-.805.16.738.738 0 1 0 1.044 1.045.74.74 0 0 0 .217-.522m-26.089 5.021a.74.74 0 0 0-.456-.683.73.73 0 0 0-.805.16.734.734 0 0 0 .112 1.137.737.737 0 0 0 1.149-.614m-17.392 0a.74.74 0 0 0-.456-.683.735.735 0 0 0-.805.16.738.738 0 1 0 1.044 1.045.74.74 0 0 0 .217-.522m78.266-5.021a.74.74 0 0 0-.456-.683.735.735 0 0 0-.806.16.74.74 0 0 0-.16.806.738.738 0 0 0 1.422-.283m-43.481 5.021a.74.74 0 0 0-.456-.683.735.735 0 0 0-.806.16.74.74 0 0 0-.16.805.74.74 0 0 0 .683.456.736.736 0 0 0 .739-.738m-69.57 0a.74.74 0 0 0-.456-.683.735.735 0 0 0-.805.16.738.738 0 1 0 1.044 1.045.74.74 0 0 0 .217-.522m86.962 0a.74.74 0 0 0-.456-.683.735.735 0 0 0-.805.16.738.738 0 1 0 1.045 1.045.74.74 0 0 0 .216-.522m-69.57 0a.74.74 0 0 0-.456-.683.73.73 0 0 0-.805.16.74.74 0 0 0-.16.805.74.74 0 0 0 .682.456.74.74 0 0 0 .739-.738m113.052-5.021a.74.74 0 0 0-.456-.683.735.735 0 0 0-.806.16.74.74 0 0 0-.16.805.74.74 0 0 0 .683.457.74.74 0 0 0 .739-.739m-8.697 5.021a.74.74 0 0 0-.456-.683.73.73 0 0 0-.805.16.74.74 0 0 0-.16.805.74.74 0 0 0 .682.456.74.74 0 0 0 .739-.738m-173.925 0a.735.735 0 0 0-.882-.725.73.73 0 0 0-.581.58.735.735 0 0 0 .314.759.737.737 0 0 0 1.149-.614m34.785 0a.74.74 0 0 0-.456-.683.73.73 0 0 0-.805.16.74.74 0 0 0-.16.805.74.74 0 0 0 .682.456.74.74 0 0 0 .739-.738m-17.392 0a.74.74 0 0 0-.456-.683.735.735 0 0 0-.806.16.74.74 0 0 0-.16.805.74.74 0 0 0 .683.456.736.736 0 0 0 .739-.738m-17.393-10.042a.735.735 0 0 0-.882-.725.74.74 0 1 0 .882.725m95.659-5.021a.737.737 0 0 0-1.261-.523.74.74 0 0 0-.161.806c.056.135.151.25.273.331a.74.74 0 0 0 .933-.091.74.74 0 0 0 .216-.523m-17.392 0a.73.73 0 0 0-.125-.41.736.736 0 0 0-1.137-.113.75.75 0 0 0-.16.806.74.74 0 0 0 1.422-.283m-17.393 0a.737.737 0 0 0-1.261-.523.74.74 0 0 0-.161.806c.056.135.151.25.273.331a.74.74 0 0 0 .933-.091.74.74 0 0 0 .216-.523m69.57 0a.737.737 0 0 0-1.261-.523.74.74 0 0 0 .111 1.137.736.736 0 0 0 .933-.091.74.74 0 0 0 .217-.523m-17.392 0a.738.738 0 0 0-.883-.725.74.74 0 1 0 .883.725m-69.57 0a.738.738 0 0 0-.883-.725.74.74 0 1 0 .883.725m-34.785 0a.738.738 0 0 0-.883-.725.74.74 0 1 0 .883.725m165.228-5.021a.737.737 0 0 0-1.463-.144.735.735 0 0 0 .314.759.737.737 0 0 0 1.149-.615M288.22 171.707a.737.737 0 0 0-1.463-.144.735.735 0 0 0 .314.759.737.737 0 0 0 1.149-.615m0-20.083a.737.737 0 0 0-1.463-.144.74.74 0 0 0 .314.758.738.738 0 0 0 1.149-.614m-34.785 0a.737.737 0 0 0-1.261-.523.74.74 0 0 0-.161.806c.056.135.151.25.273.331a.739.739 0 0 0 1.149-.614m156.533 0a.738.738 0 0 0-.883-.725.74.74 0 1 0 .883.725m-43.482 5.021a.74.74 0 0 0-.456-.683.74.74 0 0 0-.805.16.736.736 0 0 0 .112 1.137.738.738 0 0 0 1.149-.614m52.178 10.042a.74.74 0 0 0-.456-.683.735.735 0 0 0-.806.16.74.74 0 0 0-.16.805.74.74 0 0 0 .683.456.736.736 0 0 0 .739-.738m-69.57-10.042a.74.74 0 0 0-.456-.683.74.74 0 0 0-.805.16.74.74 0 0 0 .111 1.137.736.736 0 0 0 .933-.092.74.74 0 0 0 .217-.522m52.177 0a.74.74 0 0 0-.456-.683.74.74 0 0 0-.805.16.74.74 0 0 0-.16.806.73.73 0 0 0 .682.456.74.74 0 0 0 .739-.739m-86.962 0a.74.74 0 0 0-.456-.683.74.74 0 0 0-.805.16.738.738 0 1 0 1.044 1.045.74.74 0 0 0 .217-.522m69.57 0a.74.74 0 0 0-.456-.683.74.74 0 0 0-.806.16.75.75 0 0 0-.16.806.74.74 0 0 0 1.422-.283m34.785-10.042a.73.73 0 0 0-.125-.41.736.736 0 0 0-1.137-.113.75.75 0 0 0-.16.806.743.743 0 0 0 1.205.24.74.74 0 0 0 .217-.523m26.089 5.021a.74.74 0 0 0-.456-.683.735.735 0 0 0-.806.16.74.74 0 0 0-.16.806.73.73 0 0 0 .683.456.74.74 0 0 0 .739-.739m-173.925 20.083a.738.738 0 1 0-1.477.002.738.738 0 0 0 1.477-.002m156.532-20.083a.73.73 0 0 0-.125-.41.736.736 0 0 0-1.137-.113.75.75 0 0 0-.16.806c.056.135.151.25.273.331a.736.736 0 0 0 .932-.092.74.74 0 0 0 .217-.522m-147.836 5.021a.74.74 0 0 0-.456-.683.74.74 0 0 0-.806.16.75.75 0 0 0-.16.806.74.74 0 0 0 1.422-.283m17.392 0a.74.74 0 0 0-.456-.683.74.74 0 0 0-.805.16.74.74 0 1 0 1.261.523m-17.392-10.042a.73.73 0 0 0-.125-.41.736.736 0 0 0-1.137-.113.75.75 0 0 0-.16.806.743.743 0 0 0 1.205.24.74.74 0 0 0 .217-.523m-8.696-45.187a.738.738 0 0 0-.883-.725.74.74 0 1 0 .883.725m-17.393 0a.737.737 0 0 0-1.261-.523.74.74 0 0 0-.161.806c.056.135.151.25.273.331a.74.74 0 0 0 1.149-.614m86.963 0a.73.73 0 0 0-.125-.41.736.736 0 0 0-1.137-.113.734.734 0 0 0 .112 1.137.74.74 0 0 0 .933-.092.74.74 0 0 0 .217-.522m-52.178 0a.737.737 0 0 0-1.261-.523.74.74 0 0 0 .522 1.262.74.74 0 0 0 .739-.739m78.266 25.104a.74.74 0 0 0-.456-.683.74.74 0 0 0-.805.161.738.738 0 1 0 1.205.805.7.7 0 0 0 .056-.283m-60.873-25.104a.738.738 0 0 0-.883-.725.74.74 0 1 0 .883.725m-43.482 75.312a.737.737 0 0 0-1.463-.144.735.735 0 0 0 .314.759.737.737 0 0 0 1.093-.332.7.7 0 0 0 .056-.283m121.748-80.333a.74.74 0 0 0-1.262-.522.74.74 0 0 0-.16.805.74.74 0 0 0 .966.4.75.75 0 0 0 .4-.4.7.7 0 0 0 .056-.283m-17.393 0a.74.74 0 1 0-1.48 0 .74.74 0 0 0 1.48 0m34.785 0a.74.74 0 1 0-1.48 0 .74.74 0 0 0 1.48 0m17.393 0a.74.74 0 0 0-1.262-.522.737.737 0 0 0 .112 1.137.742.742 0 0 0 1.094-.332.7.7 0 0 0 .056-.283m-69.57 0a.736.736 0 0 0-1.262-.522.75.75 0 0 0-.16.805.74.74 0 0 0 .966.4.74.74 0 0 0 .456-.683m86.962 0a.74.74 0 0 0-.883-.724.737.737 0 0 0-.266 1.339.736.736 0 0 0 1.093-.332.7.7 0 0 0 .056-.283m-156.532 10.042a.74.74 0 0 0-.456-.683.735.735 0 0 0-.806.16.74.74 0 0 0-.16.805.737.737 0 0 0 1.205.24.74.74 0 0 0 .217-.522m69.57 0a.74.74 0 0 0-.456-.683.735.735 0 0 0-.805.16.738.738 0 1 0 1.044 1.045.74.74 0 0 0 .217-.522m-52.178 0a.74.74 0 0 0-.456-.683.73.73 0 0 0-.805.16.74.74 0 0 0-.16.805.738.738 0 0 0 1.421-.282m60.874-5.021a.737.737 0 0 0-1.261-.523.74.74 0 0 0-.161.806c.056.135.151.25.273.331a.74.74 0 0 0 1.149-.614m86.963 70.291a.738.738 0 1 0-1.477.002.738.738 0 0 0 1.477-.002m-130.444-65.27a.74.74 0 0 0-.456-.683.735.735 0 0 0-.805.16.738.738 0 1 0 1.044 1.045.74.74 0 0 0 .217-.522m17.392 0a.74.74 0 0 0-.456-.683.73.73 0 0 0-.805.16.74.74 0 0 0-.16.805.738.738 0 0 0 1.421-.282m113.052-5.021a.74.74 0 0 0-.456-.683.735.735 0 0 0-.806.16.74.74 0 0 0-.16.805.74.74 0 0 0 1.422-.282m-52.178 0a.737.737 0 0 0-1.261-.523.74.74 0 0 0 .111 1.137.736.736 0 0 0 .933-.092.74.74 0 0 0 .217-.522m-17.392 0a.738.738 0 0 0-.883-.725.74.74 0 1 0 .883.725m34.785 0a.738.738 0 0 0-.883-.725.74.74 0 1 0 .883.725m17.392 0a.74.74 0 0 0-.456-.683.74.74 0 0 0-.806.16.75.75 0 0 0-.16.806c.056.135.151.25.273.331a.736.736 0 0 0 .932-.092.74.74 0 0 0 .217-.522m-165.228 5.021a.74.74 0 0 0-.456-.683.735.735 0 0 0-.806.16.74.74 0 0 0-.16.805.74.74 0 0 0 .682.457.74.74 0 0 0 .74-.739m-8.697-15.063a.736.736 0 0 0-1.261-.522.74.74 0 1 0 1.261.522m43.481 85.354a.737.737 0 0 0-1.463-.144.735.735 0 0 0 .314.759.737.737 0 0 0 1.149-.615m-26.088-85.354a.74.74 0 0 0-1.262-.522.737.737 0 0 0 .523 1.262.74.74 0 0 0 .739-.74m34.785 0a.74.74 0 0 0-1.262-.522.738.738 0 1 0 1.262.522m130.443-5.02a.74.74 0 1 0-1.48-.001.74.74 0 0 0 1.48 0Zm-147.836 5.02a.74.74 0 1 0-1.48 0 .74.74 0 0 0 1.48 0m60.874-5.02a.736.736 0 0 0-1.262-.522.75.75 0 0 0-.16.805.74.74 0 0 0 .966.4.74.74 0 0 0 .456-.683m-26.089 5.02a.74.74 0 0 0-.883-.724.739.739 0 1 0 .883.724m43.481-5.02a.74.74 0 1 0-1.48-.001.74.74 0 0 0 1.48 0Zm34.785 0a.74.74 0 1 0-1.48-.001.74.74 0 0 0 1.48 0Zm-17.392 0a.74.74 0 0 0-1.262-.523.75.75 0 0 0-.16.806.74.74 0 0 0 .966.4.75.75 0 0 0 .4-.4.7.7 0 0 0 .056-.283m34.785 0a.74.74 0 0 0-1.262-.523.75.75 0 0 0-.16.806.74.74 0 0 0 .966.4.74.74 0 0 0 .456-.683m-86.963 10.041a.74.74 0 1 0-1.48 0 .74.74 0 0 0 1.48 0m-69.569 0a.739.739 0 1 0-1.478 0 .739.739 0 0 0 1.478 0m17.392 0a.74.74 0 0 0-1.262-.522.75.75 0 0 0-.16.805.74.74 0 0 0 .966.4.75.75 0 0 0 .4-.4.7.7 0 0 0 .056-.283m165.229-5.02a.74.74 0 0 0-1.262-.523.738.738 0 0 0 .523 1.262.73.73 0 0 0 .522-.217.75.75 0 0 0 .217-.523Zm-165.229 85.353a.738.738 0 1 0-1.477.002.738.738 0 0 0 1.477-.002m34.785-80.333a.736.736 0 0 0-1.262-.522.75.75 0 0 0-.16.805.74.74 0 0 0 .683.457.74.74 0 0 0 .683-.457.7.7 0 0 0 .056-.283m-17.393 0a.74.74 0 1 0-1.48 0 .74.74 0 0 0 1.48 0m43.482-5.02a.74.74 0 0 0-1.262-.523.75.75 0 0 0-.16.805.74.74 0 0 0 .683.457.73.73 0 0 0 .522-.217.75.75 0 0 0 .217-.523Zm17.392 0a.736.736 0 0 0-1.261-.522.74.74 0 1 0 1.261.521Zm17.393 0a.74.74 0 0 0-1.262-.523.738.738 0 0 0 1.045 1.045.75.75 0 0 0 .217-.523Zm34.785 0a.74.74 0 0 0-1.262-.523.738.738 0 1 0 1.262.522Zm-17.393 0a.736.736 0 0 0-1.262-.522.75.75 0 0 0-.16.805.738.738 0 0 0 1.422-.284Zm34.785 0a.735.735 0 0 0-.883-.724.74.74 0 0 0-.539 1.007.737.737 0 0 0 .966.4.74.74 0 0 0 .456-.684Zm-104.355 10.041a.737.737 0 0 0-1.261-.523.74.74 0 0 0-.161.806c.056.135.151.25.273.331a.74.74 0 0 0 1.149-.614M305.613 121.5a.742.742 0 0 0-.883-.725.73.73 0 0 0-.581.58.735.735 0 0 0 .314.759.74.74 0 0 0 1.15-.614m-52.178 0a.738.738 0 1 0-1.476-.003.738.738 0 0 0 1.476.003m17.393 0a.74.74 0 1 0-1.478 0 .74.74 0 0 0 1.478 0m17.392 0a.74.74 0 0 0-.883-.726.74.74 0 0 0-.58.581.74.74 0 0 0 .314.759.737.737 0 0 0 1.149-.614m34.785 0a.74.74 0 0 0-.883-.725.738.738 0 1 0 .667 1.247.74.74 0 0 0 .216-.522m17.393 0a.73.73 0 0 0-.456-.683.735.735 0 0 0-.806.16.74.74 0 0 0-.16.805.74.74 0 0 0 1.422-.282m52.177 50.207a.73.73 0 0 0-.125-.41.735.735 0 0 0-1.137-.112.74.74 0 0 0-.16.805.738.738 0 0 0 1.422-.283m8.696-55.228a.74.74 0 0 0-.456-.683.735.735 0 0 0-.805.16.738.738 0 1 0 1.045 1.045.74.74 0 0 0 .216-.522M357.79 121.5a.74.74 0 0 0-.883-.725.738.738 0 1 0 .667 1.247.74.74 0 0 0 .216-.522m26.089-5.021a.74.74 0 0 0-.456-.683.735.735 0 0 0-.806.16.74.74 0 0 0-.16.805.74.74 0 0 0 .683.456.736.736 0 0 0 .739-.738m34.785 0a.74.74 0 0 0-.456-.683.735.735 0 0 0-.806.16.74.74 0 0 0-.16.805.74.74 0 0 0 .683.456.736.736 0 0 0 .739-.738m17.392 0a.74.74 0 0 0-.456-.683.73.73 0 0 0-.805.16.74.74 0 0 0-.16.805.74.74 0 0 0 .682.456.74.74 0 0 0 .739-.738M314.309 126.52a.74.74 0 0 0-.456-.683.74.74 0 0 0-.966.966.74.74 0 0 0 1.422-.283m-17.393 0a.74.74 0 0 0-.456-.683.74.74 0 0 0-.805.161.74.74 0 0 0-.16.805.74.74 0 0 0 .965.4.74.74 0 0 0 .456-.683m-17.392 0a.74.74 0 0 0-.456-.683.74.74 0 0 0-.806.161.74.74 0 0 0-.16.805.743.743 0 0 0 1.366 0 .7.7 0 0 0 .056-.283m86.962-10.041a.74.74 0 0 0-.456-.683.73.73 0 0 0-.805.16.734.734 0 0 0 .112 1.137.737.737 0 0 0 1.149-.614m-34.785 10.041a.74.74 0 0 0-.456-.683.74.74 0 0 0-.805.161.735.735 0 0 0 .112 1.137.737.737 0 0 0 1.149-.615m-69.569 0a.742.742 0 0 0-.884-.725.738.738 0 0 0-.266 1.339.73.73 0 0 0 .693.069.75.75 0 0 0 .4-.4.8.8 0 0 0 .057-.283m86.962 0a.74.74 0 0 0-.456-.683.74.74 0 0 0-.806.161.74.74 0 0 0-.16.805.743.743 0 0 0 1.366 0 .7.7 0 0 0 .056-.283m95.659-5.02a.73.73 0 0 0-.125-.411.743.743 0 0 0-1.137-.113.74.74 0 1 0 1.262.524m-52.178 0a.74.74 0 0 0-.883-.725.738.738 0 1 0 .666 1.247.74.74 0 0 0 .217-.522m17.393 0a.742.742 0 0 0-.883-.725.73.73 0 0 0-.581.58.735.735 0 0 0 .314.759.74.74 0 0 0 1.15-.614m-34.785 0a.742.742 0 0 0-.883-.725.73.73 0 0 0-.581.58.735.735 0 0 0 .314.759.74.74 0 0 0 .933-.092.74.74 0 0 0 .217-.522m52.177 0a.738.738 0 1 0-1.476-.003.738.738 0 0 0 1.476.003m-52.177 50.207a.738.738 0 1 0-1.477.002.738.738 0 0 0 1.477-.002m0-60.249a.74.74 0 0 0-.456-.683.735.735 0 0 0-.806.16.74.74 0 0 0-.16.805.74.74 0 0 0 .683.457.74.74 0 0 0 .522-.217.74.74 0 0 0 .217-.522m-69.57 0a.74.74 0 0 0-.456-.683.735.735 0 0 0-.806.16.74.74 0 0 0-.16.805.74.74 0 0 0 .683.457.737.737 0 0 0 .739-.739m-17.393 0a.74.74 0 0 0-.456-.683.73.73 0 0 0-.805.16.74.74 0 0 0-.161.805.738.738 0 0 0 1.422-.282m-17.392 0a.74.74 0 0 0-.456-.683.735.735 0 0 0-.806.16.74.74 0 0 0-.16.805.74.74 0 0 0 .683.457.74.74 0 0 0 .522-.217.74.74 0 0 0 .217-.522m69.57 0a.74.74 0 0 0-.456-.683.735.735 0 0 0-.806.16.74.74 0 0 0-.16.805.74.74 0 0 0 .683.457.737.737 0 0 0 .739-.739m-86.963 0a.74.74 0 0 0-.456-.683.735.735 0 0 0-.805.16.738.738 0 1 0 1.045 1.045.74.74 0 0 0 .216-.522m104.355 0a.74.74 0 0 0-.456-.683.735.735 0 0 0-.805.16.738.738 0 1 0 1.045 1.045.74.74 0 0 0 .216-.522m-34.785 0a.74.74 0 0 0-.456-.683.73.73 0 0 0-.805.16.738.738 0 1 0 1.045 1.045.74.74 0 0 0 .216-.522m78.266-5.021a.74.74 0 0 0-.456-.683.735.735 0 0 0-.805.16.74.74 0 0 0-.16.806.73.73 0 0 0 .682.456.74.74 0 0 0 .739-.739m-17.392 0a.74.74 0 0 0-.456-.683.735.735 0 0 0-.806.16.74.74 0 0 0-.16.805.737.737 0 0 0 1.205.24.74.74 0 0 0 .217-.522m43.481 65.27a.73.73 0 0 0-.125-.41.736.736 0 0 0-1.137-.112.74.74 0 0 0-.16.805.738.738 0 0 0 1.422-.283m8.696-65.27a.74.74 0 0 0-.456-.683.73.73 0 0 0-.805.16.74.74 0 0 0-.16.805.738.738 0 0 0 1.421-.282m-17.392 0a.74.74 0 0 0-.456-.683.735.735 0 0 0-.806.16.74.74 0 0 0-.16.805.737.737 0 0 0 1.205.24.74.74 0 0 0 .217-.522m8.696 5.021a.74.74 0 0 0-.456-.683.735.735 0 0 0-.806.16.74.74 0 0 0-.16.806.738.738 0 0 0 1.422-.283m-165.228 5.021a.74.74 0 0 0-.456-.683.735.735 0 0 0-.806.16.74.74 0 0 0-.16.805.74.74 0 0 0 .682.456.74.74 0 0 0 .74-.738m52.177 0a.74.74 0 0 0-.456-.683.735.735 0 0 0-.805.16.738.738 0 1 0 1.044 1.045.74.74 0 0 0 .217-.522m-34.785 0a.74.74 0 0 0-.456-.683.735.735 0 0 0-.806.16.74.74 0 0 0-.16.805.74.74 0 0 0 .683.456.736.736 0 0 0 .739-.738m17.392 0a.735.735 0 0 0-.883-.725.736.736 0 0 0-.538 1.007.74.74 0 0 0 .682.456.74.74 0 0 0 .739-.738m34.785 0a.74.74 0 0 0-.456-.683.73.73 0 0 0-.805.16.74.74 0 0 0-.16.805.74.74 0 0 0 .682.456.74.74 0 0 0 .739-.738m34.785-10.042a.74.74 0 0 0-.456-.683.73.73 0 0 0-.805.16.734.734 0 0 0 .112 1.137.738.738 0 0 0 1.149-.614m78.267 5.021a.74.74 0 0 0-.456-.683.735.735 0 0 0-.806.16.74.74 0 0 0-.16.805.74.74 0 0 0 .683.457.737.737 0 0 0 .739-.739m-34.785 60.249a.738.738 0 1 0-1.477.002.738.738 0 0 0 1.477-.002m0-60.249a.74.74 0 0 0-.456-.683.735.735 0 0 0-.806.16.74.74 0 0 0-.16.805.74.74 0 0 0 .683.457.737.737 0 0 0 .739-.739m-17.393 0a.74.74 0 0 0-.456-.683.735.735 0 0 0-.805.16.738.738 0 1 0 1.044 1.045.74.74 0 0 0 .217-.522m-43.481 5.021a.74.74 0 0 0-.456-.683.735.735 0 0 0-.805.16.738.738 0 1 0 1.044 1.045.74.74 0 0 0 .217-.522M288.22 1a.74.74 0 1 0-1.48-.001.74.74 0 0 0 1.48.001m17.393 0a.74.74 0 0 0-1.262-.522.737.737 0 0 0 .523 1.261.74.74 0 0 0 .739-.739m-52.178 0a.736.736 0 0 0-1.261-.522.74.74 0 1 0 1.261.522m17.393 0a.74.74 0 0 0-1.262-.522.737.737 0 0 0 .523 1.261.74.74 0 0 0 .739-.739m52.177 0a.74.74 0 1 0-1.48-.001.74.74 0 0 0 1.48.001m86.963 0a.74.74 0 0 0-1.262-.522.737.737 0 0 0 .523 1.261.74.74 0 0 0 .739-.739m-69.57 0a.74.74 0 0 0-1.262-.522.75.75 0 0 0-.16.805.74.74 0 0 0 .683.456.73.73 0 0 0 .522-.216.75.75 0 0 0 .217-.523m86.962 0a.74.74 0 0 0-1.262-.522.75.75 0 0 0-.16.805.74.74 0 0 0 .966.4.74.74 0 0 0 .456-.683m17.393 0a.741.741 0 0 0-1.262-.522.737.737 0 0 0 .112 1.137.74.74 0 0 0 1.15-.615m-52.178 0a.736.736 0 0 0-1.262-.522.75.75 0 0 0-.16.805.738.738 0 0 0 1.422-.283M357.79 1a.736.736 0 0 0-1.261-.522.74.74 0 1 0 1.261.522m17.393 0a.74.74 0 0 0-1.262-.522.737.737 0 0 0 .523 1.261.74.74 0 0 0 .739-.739" opacity=".4"/>
  <g fill="#8C909C" clip-path="url(#a)" opacity=".4">
    <path d="m355.014 700.429-152.067-87.797v1.965l148.922 85.981h3.404zm-19.824.149h-3.404l-128.839-74.387v-1.965l131.985 76.203zm40.166 0h-3.403l-169.006-97.576v-1.965l172.151 99.392zm60.25 0h-3.403L202.947 568.217v-1.965l232.401 134.177zm-40.167 0h-3.403L202.947 591.406v-1.965l192.234 110.988zm20.084 0h-3.404L202.947 579.812v-1.965l212.317 122.582zm-92.076-76.35-120.5-69.571v1.965l120.5 69.57.087-.05 120.413-69.52v-1.965l-.086.05zm120.414-81.117.086-.05v1.965l-120.413 69.521-.087.049-120.5-69.57v-1.965l120.5 69.571zm0-23.19.086-.05v1.965l-120.413 69.52-.087.05-120.5-69.57v-1.965l120.5 69.571zm0-23.191.086-.05v1.965l-120.413 69.522-.087.049-120.5-69.571v-1.965l120.5 69.571zm0 11.596.086-.051v1.965l-120.413 69.522-.087.05-120.5-69.572v-1.965l120.5 69.572zm0 23.19.086-.05v1.965l-120.413 69.521-.087.049-120.5-69.57v-1.965l120.5 69.571z"/>
  </g>
  <g fill="#8C909C" clip-path="url(#b)" opacity=".4">
    <path d="M393.067 389.089 241 301.292v1.965l148.922 85.981h3.403zm-19.824.149h-3.404L241 314.851v-1.965l131.985 76.203zm40.166 0h-3.404L241 291.662v-1.965l172.151 99.392zm60.249 0h-3.403L241 256.877v-1.965l232.4 134.177zm-40.166 0h-3.403L241 280.066v-1.965l192.234 110.988zm20.083 0h-3.403L241 268.472v-1.965l212.317 122.582zm-92.075-76.35L241 243.317v1.965l120.5 69.57.087-.05L482 245.282v-1.965l-.087.05zm120.413-81.116.087-.051v1.965l-120.413 69.521-.087.05L241 233.686v-1.965l120.5 69.572zm0-23.191.087-.05v1.965l-120.413 69.52-.087.05-120.5-69.57v-1.965l120.5 69.571zm0-23.191.087-.05v1.965l-120.413 69.522-.087.05L241 187.305v-1.965l120.5 69.571zm0 11.596.087-.05v1.965l-120.413 69.521-.087.05L241 198.901v-1.965l120.5 69.571zm0 23.19.087-.05v1.965l-120.413 69.521-.087.049-120.5-69.57v-1.965l120.5 69.571z"/>
  </g>
  <g fill="#8C909C" clip-path="url(#c)" opacity=".4">
    <path d="M88.933 41.15 241 128.945v-1.965L92.078 41.001h-3.403zm19.824-.15h3.404L241 115.387v1.965L109.015 41.149zm-40.166 0h3.404L241 138.577v1.965L68.85 41.149zm-60.25 0h3.404L241 173.361v1.965L8.6 41.15 8.342 41Zm40.167 0h3.403L241 150.172v1.965L48.766 41.15zm-20.083 0h3.403L241 161.766v1.965L28.683 41.15zm92.075 76.35L241 186.922v-1.965l-120.5-69.57-.087.049L0 184.957v1.965l.087-.051zM.087 198.467l-.087.05v-1.965l120.413-69.521.087-.049 120.5 69.57v1.965l-120.5-69.571zm0 23.19-.087.05v-1.965l120.413-69.52.087-.05 120.5 69.57v1.965l-120.5-69.571zm0 23.191-.087.05v-1.965l120.413-69.522.087-.049L241 242.933v1.965l-120.5-69.571zm0-11.595-.087.05v-1.965l120.413-69.522.087-.049L241 231.338v1.965l-120.5-69.571zm0-23.191-.087.05v-1.965l120.413-69.52.087-.05 120.5 69.57v1.965l-120.5-69.571z"/>
  </g>
  <defs>
    <clipPath id="a">
      <path fill="#fff" d="M202.947 491.865h241v208.713h-241z"/>
    </clipPath>
    <clipPath id="b">
      <path fill="#fff" d="M241 180.525h241v208.713H241z"/>
    </clipPath>
    <clipPath id="c">
      <path fill="#fff" d="M241 249.714H0V41.001h241z"/>
    </clipPath>
  </defs>
</svg>
