<svg xmlns="http://www.w3.org/2000/svg" viewBox="0 0 694 456">
  <g fill="none" fill-rule="evenodd">
    <path stroke="#FFF" stroke-linecap="square" stroke-width="2" d="M341 63.5v26m0 1v30"/>
    <path fill="#FFF" fill-rule="nonzero" d="M111 345h232v111H111z"/>
    <path fill="#1F9967" d="M178.26 385.96a5.7 5.7 0 0 1-1.31.27q-.73.07-1.75.07.96.44 1.44 1.1t.48 1.6q0 1.04-.51 1.84t-1.45 1.26-2.22.46q-.9 0-1.44-.18a1.1 1.1 0 0 0-.34.39q-.12.23-.12.49 0 .8 1.3.8h1.84q1.12 0 2 .38c.88.38 1.043.603 1.37 1.05q.49.67.49 1.51 0 1.58-1.36 2.45t-3.92.87q-1.78 0-2.81-.37t-1.46-1.08-.43-1.83h2q0 .6.23.95t.81.52 1.68.17q1.6 0 2.3-.39t.7-1.15q0-.64-.55-.99t-1.49-.35h-1.82q-1.42 0-2.15-.58t-.73-1.46q0-.54.3-1.04t.86-.86q-.94-.5-1.37-1.21t-.43-1.75q0-1.1.56-1.95t1.56-1.32 2.28-.47q1.72.02 2.73-.24c1.01-.26 1.39-.447 2.15-.82zm-7.04 1.35q-.54.59-.54 1.59 0 1.02.55 1.61t1.61.59q1 0 1.52-.58t.52-1.66q0-2.14-2.06-2.14-1.06 0-1.6.59m18.64-1.87-.38 3.9h-1.6v-2.16q-1.1.02-1.91.88t-1.29 2.42v3.92h2.12v1.6h-5.92v-1.6h1.56v-7.36h-1.56v-1.6h3.26l.4 2.44q.62-1.36 1.51-2.03t2.21-.67q.82 0 1.6.26m10.68 1.21q1.24 1.49 1.24 4.05t-1.26 4.06-3.52 1.5q-2.28 0-3.53-1.47t-1.25-4.07q0-2.52 1.27-4.04c1.27-1.52 2.023-1.52 3.53-1.52q2.28 0 3.52 1.49m-5.35 1.19q-.61.94-.61 2.88 0 1.96.6 2.89t1.82.93 1.82-.94.6-2.9q0-1.94-.6-2.87t-1.8-.93q-1.22 0-1.83.94m11.83 4.98q0 .92.37 1.33t1.13.41q.72 0 1.39-.42t1.07-1.06v-7.64h2.24V396h-1.94l-.14-1.36q-.56.78-1.46 1.2t-1.86.42q-1.52 0-2.28-.82t-.76-2.34v-7.66h2.24zm18.76-2.12q0 2.5-1.06 4.03t-3.02 1.53q-1.66 0-2.68-1.16v4.96l-2.24.26v-14.88h1.94l.14 1.36q.6-.8 1.39-1.22t1.69-.42q3.84 0 3.84 5.54m-5.74-3.4q-.58.42-1.02 1.1v4.94q.78 1.18 2.08 1.18 1.16 0 1.74-.92c.58-.92.58-1.573.58-2.88q0-2.02-.52-2.93t-1.58-.91q-.7 0-1.28.42m11.58 5.66q.56-.56 1.36-.56.82 0 1.38.56t.56 1.36q0 .82-.56 1.38t-1.38.56q-.8 0-1.36-.56a1.88 1.88 0 0 1-.56-1.38q0-.8.56-1.36m12.69-7.4q.75-.4 1.61-.4 2.02 0 2.98 1.46t.96 4.08q0 2.48-1.11 4.02t-3.11 1.54q-1.76 0-2.76-1.3l-.12 1.04h-1.98v-14.8l2.24-.26v5.76q.54-.74 1.29-1.14m2.56 8.05q.61-.95.61-2.89 0-2-.55-2.92t-1.63-.92q-.68 0-1.27.42t-1.01 1.1v4.94q.8 1.22 2.08 1.22 1.16 0 1.77-.95m10.55-.49q0 1.34 1.6 1.34.8 0 1.68-.36l.56 1.56q-1.1.6-2.72.6-1.58 0-2.47-.89t-.89-2.45v-10.08H252v-1.64h5.42zm9.6-.3q0 .92.37 1.33t1.13.41q.72 0 1.39-.42t1.07-1.06v-7.64h2.24V396h-1.94l-.14-1.36q-.56.78-1.46 1.2t-1.86.42q-1.52 0-2.28-.82t-.76-2.34v-7.66h2.24zm12.51.93q.79.77 1.99.77.74 0 1.41-.23a6 6 0 0 0 1.37-.69l.96 1.36a5.4 5.4 0 0 1-1.74.96 6.5 6.5 0 0 1-2.1.34q-2.42 0-3.76-1.51t-1.34-4.03q0-1.58.58-2.85t1.68-1.99c1.1-.72 1.587-.72 2.56-.72q2.1 0 3.33 1.41t1.23 3.87q0 .6-.06 1h-7q.1 1.54.89 2.31m-.13-6.15q-.68.78-.78 2.32h4.9q-.04-1.5-.64-2.3t-1.72-.8q-1.08 0-1.76.78m-91.464 30.664.714 1.008q-.491.42-1.176.665-.687.245-1.414.245-1.694 0-2.646-1.043c-.635-.7-.952-1.63-.952-2.8 0-.758.145-1.43.434-2.025a3.34 3.34 0 0 1 1.253-1.4c.54-.34 1.19-.51 1.93-.51q1.47.001 2.562.895l-.73.98q-.896-.615-1.805-.615-.923 0-1.456.665-.532.666-.532 2.01 0 1.315.532 1.93.532.619 1.455.618.883 0 1.82-.63zm8.442-4.81q.869 1.043.868 2.836 0 1.792-.882 2.842t-2.464 1.05q-1.596 0-2.47-1.03-.876-1.028-.876-2.848 0-1.765.89-2.828.888-1.064 2.47-1.064 1.596 0 2.464 1.043zm-3.745.834q-.427.659-.427 2.016 0 1.373.42 2.023t1.274.65 1.274-.657q.42-.659.42-2.03 0-1.358-.42-2.01-.42-.65-1.26-.65-.854 0-1.28.658zm8.28 3.486q0 .645.26.93.26.288.79.288.504 0 .974-.294.469-.294.75-.742v-5.348h1.567V420h-1.358l-.098-.952q-.391.546-1.022.84-.63.294-1.302.294-1.064.001-1.596-.574t-.532-1.638v-5.362h1.568v5.166zm6.833-5.166h1.358l.112.966a3.2 3.2 0 0 1 1.085-.86c.42-.202.86-.302 1.31-.302.68 0 1.2.19 1.54.574.35.383.52.924.52 1.624V420h-1.57v-4.606c0-.457-.02-.81-.07-1.057q-.077-.371-.3-.546c-.15-.11-.374-.17-.673-.17-.335 0-.655.107-.96.31-.3.207-.56.46-.775.77v5.3h-1.57v-7.39zm13.594 7.42a4.4 4.4 0 0 1-1.176.154q-1.261 0-1.946-.65-.686-.652-.686-1.772v-4.004h-1.638v-1.148h1.638v-1.652l1.568-.182v1.834h2.506l-.182 1.148H219.1v3.99q0 .601.308.89.308.286.98.286.742 0 1.372-.35l.56 1.036q-.42.265-.98.42m17.458-5.124h-5.796v-1.288h5.796zm0 2.758h-5.796v-1.274h5.796zm11.816-8.022h1.708l-.238 3.738h-1.246zm2.464 0h1.708l-.224 3.738h-1.246zm9.275.868q.693.365 1.057.98.364.616.364 1.386 0 .854-.392 1.66-.391.804-1.274 1.777-.883.975-2.492 2.43h4.382l-.168 1.26h-6.006v-1.19c1.213-1.16 2.12-2.08 2.716-2.73q.895-.989 1.26-1.686a3.04 3.04 0 0 0 .364-1.414q0-.73-.42-1.15t-1.148-.42q-.63.001-1.07.23-.441.233-.89.78l-1.008-.785q.573-.741 1.316-1.112.743-.37 1.764-.37.952 0 1.645.363zm5.06-.868h1.71l-.24 3.738h-1.245zm2.465 0h1.708l-.224 3.738h-1.246z"/>
    <path fill="#FFF" fill-rule="nonzero" d="M461 345h232v111H461zM17 174h202v102H17z"/>
    <path fill="#1F9967" d="m89.24 232-1.2-7.5-1.28 7.5h-2.74l-1.78-10.56h2.16l1.1 9.16 1.48-7.82h2.24l1.36 7.82 1.1-9.16h2.08L92.04 232zm9.29-2.25q.79.77 1.99.77.74 0 1.41-.23a6 6 0 0 0 1.37-.69l.96 1.36a5.4 5.4 0 0 1-1.74.96 6.5 6.5 0 0 1-2.1.34q-2.42 0-3.76-1.51t-1.34-4.03q0-1.58.58-2.85t1.68-1.99c1.1-.72 1.587-.72 2.56-.72q2.1 0 3.33 1.41t1.23 3.87q0 .6-.06 1h-7q.1 1.54.89 2.31m-.13-6.15q-.68.78-.78 2.32h4.9q-.04-1.5-.64-2.3t-1.72-.8q-1.08 0-1.76.78m12.91-2.04q.75-.4 1.61-.4 2.02 0 2.98 1.46t.96 4.08q0 2.48-1.11 4.02t-3.11 1.54q-1.76 0-2.76-1.3l-.12 1.04h-1.98v-14.8l2.24-.26v5.76q.54-.74 1.29-1.14m2.56 8.05q.61-.95.61-2.89 0-2-.55-2.92t-1.63-.92q-.68 0-1.27.42t-1.01 1.1v4.94q.8 1.22 2.08 1.22 1.16 0 1.77-.95m8.75-.65q.56-.56 1.36-.56.82 0 1.38.56t.56 1.36q0 .82-.56 1.38t-1.38.56q-.8 0-1.36-.56a1.88 1.88 0 0 1-.56-1.38q0-.8.56-1.36M137.3 232h-2.6l-3.74-10.56h2.42l2.66 8.7 2.7-8.7h2.3zm15.3-1.76V232h-8.34v-1.76h3.36v-9.74l-3.04 1.86-.96-1.56 4.24-2.6h1.98v12.04z"/>
    <path fill="#FFF" fill-rule="nonzero" d="M237 174h202v102H237z"/>
    <path fill="#1F9967" d="m309.24 232-1.2-7.5-1.28 7.5h-2.74l-1.78-10.56h2.16l1.1 9.16 1.48-7.82h2.24l1.36 7.82 1.1-9.16h2.08L312.04 232zm9.29-2.25q.79.77 1.99.77.74 0 1.41-.23a6 6 0 0 0 1.37-.69l.96 1.36a5.4 5.4 0 0 1-1.74.96 6.5 6.5 0 0 1-2.1.34q-2.42 0-3.76-1.51t-1.34-4.03q0-1.58.58-2.85t1.68-1.99c1.1-.72 1.587-.72 2.56-.72q2.1 0 3.33 1.41t1.23 3.87q0 .6-.06 1h-7q.1 1.54.89 2.31m-.13-6.15q-.68.78-.78 2.32h4.9q-.04-1.5-.64-2.3t-1.72-.8q-1.08 0-1.76.78m12.91-2.04q.75-.4 1.61-.4 2.02 0 2.98 1.46t.96 4.08q0 2.48-1.11 4.02t-3.11 1.54q-1.76 0-2.76-1.3l-.12 1.04h-1.98v-14.8l2.24-.26v5.76q.54-.74 1.29-1.14m2.56 8.05q.61-.95.61-2.89 0-2-.55-2.92t-1.63-.92q-.68 0-1.27.42t-1.01 1.1v4.94q.8 1.22 2.08 1.22 1.16 0 1.77-.95m8.75-.65q.56-.56 1.36-.56.82 0 1.38.56t.56 1.36q0 .82-.56 1.38t-1.38.56q-.8 0-1.36-.56a1.88 1.88 0 0 1-.56-1.38q0-.8.56-1.36M357.3 232h-2.6l-3.74-10.56h2.42l2.66 8.7 2.7-8.7h2.3zm15.3-1.76V232h-8.34v-1.76h3.36v-9.74l-3.04 1.86-.96-1.56 4.24-2.6h1.98v12.04z"/>
    <path fill="#FFF" fill-rule="nonzero" d="M476 174h202v102H476z"/>
    <path fill="#1F9967" d="m548.24 232-1.2-7.5-1.28 7.5h-2.74l-1.78-10.56h2.16l1.1 9.16 1.48-7.82h2.24l1.36 7.82 1.1-9.16h2.08L551.04 232zm9.29-2.25q.79.77 1.99.77.74 0 1.41-.23a6 6 0 0 0 1.37-.69l.96 1.36a5.4 5.4 0 0 1-1.74.96 6.5 6.5 0 0 1-2.1.34q-2.42 0-3.76-1.51t-1.34-4.03q0-1.58.58-2.85t1.68-1.99c1.1-.72 1.587-.72 2.56-.72q2.1 0 3.33 1.41t1.23 3.87q0 .6-.06 1h-7q.1 1.54.89 2.31m-.13-6.15q-.68.78-.78 2.32h4.9q-.04-1.5-.64-2.3t-1.72-.8q-1.08 0-1.76.78m12.91-2.04q.75-.4 1.61-.4 2.02 0 2.98 1.46t.96 4.08q0 2.48-1.11 4.02t-3.11 1.54q-1.76 0-2.76-1.3l-.12 1.04h-1.98v-14.8l2.24-.26v5.76q.54-.74 1.29-1.14m2.56 8.05q.61-.95.61-2.89 0-2-.55-2.92t-1.63-.92q-.68 0-1.27.42t-1.01 1.1v4.94q.8 1.22 2.08 1.22 1.16 0 1.77-.95m8.75-.65q.56-.56 1.36-.56.82 0 1.38.56t.56 1.36q0 .82-.56 1.38t-1.38.56q-.8 0-1.36-.56a1.88 1.88 0 0 1-.56-1.38q0-.8.56-1.36M596.3 232h-2.6l-3.74-10.56h2.42l2.66 8.7 2.7-8.7h2.3zm12.49-13.56q.99.52 1.51 1.4c.52.88.52 1.247.52 1.98a5.36 5.36 0 0 1-.56 2.37q-.56 1.15-1.82 2.54t-3.56 3.47h6.26l-.24 1.8h-8.58v-1.7q2.6-2.5 3.88-3.91t1.8-2.41c.52-1 .52-1.34.52-2.02q0-1.04-.6-1.64t-1.64-.6q-.9 0-1.53.33t-1.27 1.11l-1.44-1.12q.82-1.06 1.88-1.59t2.52-.53q1.36 0 2.35.52"/>
    <path stroke="#FFF" stroke-linecap="square" stroke-width="2" d="M227 294.5v52"/>
    <path fill="#1F9967" d="M528.26 385.96a5.7 5.7 0 0 1-1.31.27q-.73.07-1.75.07.96.44 1.44 1.1t.48 1.6q0 1.04-.51 1.84t-1.45 1.26-2.22.46q-.9 0-1.44-.18a1.1 1.1 0 0 0-.34.39q-.12.23-.12.49 0 .8 1.3.8h1.84q1.12 0 2 .38c.88.38 1.043.603 1.37 1.05q.49.67.49 1.51 0 1.58-1.36 2.45t-3.92.87q-1.78 0-2.81-.37t-1.46-1.08-.43-1.83h2q0 .6.23.95t.81.52 1.68.17q1.6 0 2.3-.39t.7-1.15q0-.64-.55-.99t-1.49-.35h-1.82q-1.42 0-2.15-.58t-.73-1.46q0-.54.3-1.04t.86-.86q-.94-.5-1.37-1.21t-.43-1.75q0-1.1.56-1.95t1.56-1.32 2.28-.47q1.72.02 2.73-.24c1.01-.26 1.39-.447 2.15-.82zm-7.04 1.35q-.54.59-.54 1.59 0 1.02.55 1.61t1.61.59q1 0 1.52-.58t.52-1.66q0-2.14-2.06-2.14-1.06 0-1.6.59m18.64-1.87-.38 3.9h-1.6v-2.16q-1.1.02-1.91.88t-1.29 2.42v3.92h2.12v1.6h-5.92v-1.6h1.56v-7.36h-1.56v-1.6h3.26l.4 2.44q.62-1.36 1.51-2.03t2.21-.67q.82 0 1.6.26m10.68 1.21q1.24 1.49 1.24 4.05t-1.26 4.06-3.52 1.5q-2.28 0-3.53-1.47t-1.25-4.07q0-2.52 1.27-4.04c1.27-1.52 2.023-1.52 3.53-1.52q2.28 0 3.52 1.49m-5.35 1.19q-.61.94-.61 2.88 0 1.96.6 2.89t1.82.93 1.82-.94.6-2.9q0-1.94-.6-2.87t-1.8-.93q-1.22 0-1.83.94m11.83 4.98q0 .92.37 1.33t1.13.41q.72 0 1.39-.42t1.07-1.06v-7.64h2.24V396h-1.94l-.14-1.36q-.56.78-1.46 1.2t-1.86.42q-1.52 0-2.28-.82t-.76-2.34v-7.66h2.24zm18.76-2.12q0 2.5-1.06 4.03t-3.02 1.53q-1.66 0-2.68-1.16v4.96l-2.24.26v-14.88h1.94l.14 1.36q.6-.8 1.39-1.22t1.69-.42q3.84 0 3.84 5.54m-5.74-3.4q-.58.42-1.02 1.1v4.94q.78 1.18 2.08 1.18 1.16 0 1.74-.92c.58-.92.58-1.573.58-2.88q0-2.02-.52-2.93t-1.58-.91q-.7 0-1.28.42m11.58 5.66q.56-.56 1.36-.56.82 0 1.38.56t.56 1.36q0 .82-.56 1.38t-1.38.56q-.8 0-1.36-.56a1.88 1.88 0 0 1-.56-1.38q0-.8.56-1.36m12.69-7.4q.75-.4 1.61-.4 2.02 0 2.98 1.46t.96 4.08q0 2.48-1.11 4.02t-3.11 1.54q-1.76 0-2.76-1.3l-.12 1.04h-1.98v-14.8l2.24-.26v5.76q.54-.74 1.29-1.14m2.56 8.05q.61-.95.61-2.89 0-2-.55-2.92t-1.63-.92q-.68 0-1.27.42t-1.01 1.1v4.94q.8 1.22 2.08 1.22 1.16 0 1.77-.95m10.55-.49q0 1.34 1.6 1.34.8 0 1.68-.36l.56 1.56q-1.1.6-2.72.6-1.58 0-2.47-.89t-.89-2.45v-10.08H602v-1.64h5.42zm9.6-.3q0 .92.37 1.33t1.13.41q.72 0 1.39-.42t1.07-1.06v-7.64h2.24V396h-1.94l-.14-1.36q-.56.78-1.46 1.2t-1.86.42q-1.52 0-2.28-.82t-.76-2.34v-7.66h2.24zm12.51.93q.79.77 1.99.77.74 0 1.41-.23a6 6 0 0 0 1.37-.69l.96 1.36a5.4 5.4 0 0 1-1.74.96 6.5 6.5 0 0 1-2.1.34q-2.42 0-3.76-1.51t-1.34-4.03q0-1.58.58-2.85t1.68-1.99c1.1-.72 1.587-.72 2.56-.72q2.1 0 3.33 1.41t1.23 3.87q0 .6-.06 1h-7q.1 1.54.89 2.31m-.13-6.15q-.68.78-.78 2.32h4.9q-.04-1.5-.64-2.3t-1.72-.8q-1.08 0-1.76.78m-91.464 30.664.714 1.008q-.491.42-1.176.665-.687.245-1.414.245-1.693 0-2.646-1.043c-.635-.7-.952-1.63-.952-2.8 0-.758.145-1.43.434-2.025a3.34 3.34 0 0 1 1.253-1.4c.54-.34 1.19-.51 1.93-.51q1.47.001 2.562.895l-.73.98q-.896-.615-1.805-.615-.923 0-1.456.665-.532.666-.532 2.01 0 1.315.532 1.93.532.619 1.455.618c.59 0 1.194-.21 1.82-.63zm8.442-4.81q.869 1.043.868 2.836 0 1.792-.882 2.842t-2.464 1.05q-1.596 0-2.47-1.03-.876-1.028-.876-2.848 0-1.765.89-2.828.888-1.064 2.47-1.064 1.596 0 2.464 1.043zm-3.745.834q-.427.659-.427 2.016 0 1.373.42 2.023t1.274.65 1.274-.657q.42-.659.42-2.03 0-1.358-.42-2.01-.42-.65-1.26-.65-.855 0-1.28.658zm8.28 3.486q0 .645.26.93.26.288.79.288.504 0 .974-.294.469-.294.75-.742v-5.348h1.567V420h-1.358l-.098-.952q-.391.546-1.022.84-.63.294-1.302.294-1.063.001-1.596-.574-.532-.575-.532-1.638v-5.362h1.568zm6.833-5.166h1.358l.112.966a3.2 3.2 0 0 1 1.085-.86c.42-.202.86-.302 1.31-.302.68 0 1.2.19 1.54.574.35.383.52.924.52 1.624V420h-1.57v-4.606c0-.457-.02-.81-.07-1.057q-.077-.371-.3-.546c-.15-.11-.374-.17-.673-.17-.335 0-.655.107-.96.31-.3.207-.56.46-.775.77v5.3h-1.57v-7.39zm13.594 7.42a4.4 4.4 0 0 1-1.176.154q-1.261 0-1.946-.65-.686-.652-.686-1.772v-4.004h-1.638v-1.148h1.638v-1.652l1.568-.182v1.834h2.506l-.182 1.148H569.1v3.99q0 .601.308.89.308.286.98.286.742 0 1.372-.35l.56 1.036q-.42.265-.98.42m17.458-5.124h-5.796v-1.288h5.796zm0 2.758h-5.796v-1.274h5.796zm11.816-8.022h1.708l-.238 3.738h-1.246zm2.464 0h1.708l-.224 3.738h-1.246zm11.242 9.128V420h-5.838v-1.232h2.352v-6.818l-2.128 1.302-.672-1.092 2.968-1.82h1.386v8.428zm3.094-9.128h1.708l-.238 3.738h-1.246zm2.464 0h1.708l-.224 3.738h-1.246z"/>
    <path stroke="#FFF" stroke-width="2" d="M1 156h455v137H1z"/>
    <path stroke="#FFF" stroke-linecap="square" stroke-width="2" d="M579 294.5v52"/>
    <path stroke="#FFF" stroke-width="2" d="M461 156h232v137H461z"/>
    <path fill="#FFF" fill-rule="nonzero" d="m341.5 133 6.5-13h-13"/>
    <path stroke="#FFF" stroke-linecap="square" stroke-width="2" d="M282.5 90h119m0 .5 25.633 25.633"/>
    <path fill="#FFF" fill-rule="nonzero" d="m435.096 124.096-4.596-13.788-9.192 9.192"/>
    <path stroke="#FFF" stroke-linecap="square" stroke-width="2" d="m281.5 90.5-26.34 26.34"/>
    <path fill="#FFF" fill-rule="nonzero" d="m246.904 125.096 4.596-13.788 9.192 9.192M374.9 27.6c.1-.8.1-1.4.1-2.2C375 11.6 363.8.5 350 .5c-11.5 0-21.5 7.9-24.3 19q-3.6-.9-7.2-.9c-14.9 0-27.2 12.1-27.5 27l1-.2V45l1 .5V45h64.8l.1-.6c.1-.9.2-1.5.2-2.2 0-9.5-7.8-17.2-17.3-17.2-6.9 0-13.2 4.2-15.9 10.5l2.1.9c2.4-5.5 7.8-9.1 13.8-9.1 8.3 0 15 6.5 15 14.8 0 .4 0-.1-.1.9h-62.6c1.3-12 12.2-22.7 25.4-22.7 2.6 0 5.2.5 7.7 1.3l1.1.4.2-1.1c2.1-10.7 11.6-18.4 22.5-18.4 12.7 0 23 10.3 23 23 0 .9-.1 1.9-.2 2.9l-.1.8h.8c6.2 2.1 10.6 7.8 11.4 13.8H372v2h15c0-7-4.8-14.6-12.1-17.4"/>
  </g>
</svg>
