<svg xmlns="http://www.w3.org/2000/svg" width="600" height="664" fill="none" viewBox="0 0 600 664" xmlns:xlink="http://www.w3.org/1999/xlink">
  <g opacity=".4" style="mix-blend-mode:luminosity">
    <mask id="a" width="600" height="664" x="0" y="0" mask-type="alpha" maskUnits="userSpaceOnUse">
      <path fill="#00BC7F" d="M0 664h600V0H0z"/>
    </mask>
    <g mask="url(#a)">
      <path fill="#BDBEC2" d="M586.999 292.593c-.257 0-.429.063-.515.252-.171.252-.085.503.258.629l19.982 8.49c.343.126.686.063.858-.188.171-.252.085-.503-.258-.629l-19.982-8.491c-.086 0-.172-.063-.343-.063m-19.983 8.491c-.257 0-.428.063-.514.251-.172.252-.086.504.257.629l39.965 16.919c.343.125.686.062.858-.189.171-.252.085-.503-.258-.629l-39.965-16.918c-.085-.063-.257-.063-.343-.063m-19.982 8.428c-.257 0-.429.062-.514.251-.172.252-.086.503.257.629l59.947 25.409c.343.125.686.063.858-.189s.085-.503-.258-.629l-59.947-25.409c-.086 0-.257-.062-.343-.062m-19.982 8.49c-.258 0-.429.063-.515.252-.171.251-.086.503.257.629l80.016 33.836c.343.126.686.063.857-.189.172-.252.086-.503-.257-.629l-80.015-33.836c-.172-.063-.258-.063-.343-.063m-19.983 8.491c-.257 0-.429.062-.514.251-.172.252-.086.503.257.629L606.81 369.7c.343.126.686.063.857-.189.172-.252.086-.503-.257-.629l-99.998-42.327c-.171-.062-.257-.062-.343-.062m-19.982 8.427c-.257 0-.429.063-.515.252-.171.251-.085.503.258.629l119.98 50.817c.343.126.686.063.857-.189.172-.251.086-.503-.257-.629l-119.98-50.817c-.172 0-.257-.063-.343-.063m-20.068 8.491c-.258 0-.429.063-.515.251-.171.252-.085.503.258.629l139.962 59.245c.343.126.686.063.858-.189.171-.251.085-.503-.258-.629l-139.962-59.244c-.086-.063-.172-.063-.343-.063m-19.983 8.427c-.257 0-.428.063-.514.252-.172.251-.086.503.257.629l159.945 67.735c.343.126.686.063.858-.189.171-.251.085-.503-.258-.629l-159.945-67.735c-.085 0-.257-.063-.343-.063m-19.982 8.491c-.257 0-.429.063-.515.251-.171.252-.085.503.258.629l179.927 76.163c.343.126.686.063.858-.189.171-.251.085-.503-.258-.628l-179.927-76.163c-.086-.063-.257-.063-.343-.063m-19.982 8.49c-.258 0-.429.063-.515.252-.172.251-.086.503.257.629l199.996 84.653c.343.126.686.063.857-.189.172-.251.086-.503-.257-.628l-199.995-84.654c-.172-.063-.258-.063-.343-.063"/>
      <path fill="url(#b)" d="M606.982 656.616c-.086 0-.258 0-.343.063l-19.983 8.49c-.343.126-.428.441-.257.629.172.252.6.315.858.189l19.982-8.491c.343-.125.429-.44.257-.628 0-.126-.257-.252-.514-.252"/>
      <path fill="url(#c)" d="M606.982 639.698c-.086 0-.258 0-.344.063l-20.925 8.868 20.925 8.868c.343.125.687.063.858-.189.172-.252.086-.503-.257-.629l-19.039-8.05 19.039-8.05c.343-.126.429-.441.257-.629 0-.126-.257-.252-.514-.252"/>
      <path fill="url(#d)" d="M606.982 622.78c-.086 0-.258 0-.344.063l-20.925 8.868 20.925 8.868c.343.125.687.063.858-.189.172-.252.086-.503-.257-.629l-19.039-8.05 19.039-8.05c.343-.126.429-.441.257-.629 0-.189-.257-.252-.514-.252"/>
      <path fill="url(#e)" d="M606.982 605.862c-.086 0-.258 0-.344.063l-20.925 8.868 20.925 8.868c.343.126.687.063.858-.189.172-.252.086-.503-.257-.629l-19.039-8.05 19.039-8.05c.343-.126.429-.441.257-.629 0-.189-.257-.252-.514-.252"/>
      <path fill="url(#f)" d="M606.982 588.943c-.086 0-.258 0-.344.063l-20.925 8.868 20.925 8.868c.343.126.687.063.858-.189.172-.251.086-.503-.257-.629l-19.039-8.05 19.039-8.05c.343-.126.429-.441.257-.629 0-.189-.257-.252-.514-.252"/>
      <path fill="url(#g)" d="M606.982 571.963c-.086 0-.258 0-.344.063l-20.925 8.867 20.925 8.868c.343.126.687.063.858-.188.172-.252.086-.503-.257-.629l-19.039-8.051 19.039-8.05c.343-.126.429-.44.257-.629 0-.126-.257-.251-.514-.251"/>
      <path fill="url(#h)" d="M606.982 555.045c-.086 0-.258 0-.344.063l-20.925 8.867 20.925 8.868c.343.126.687.063.858-.188.172-.252.086-.503-.257-.629l-19.039-8.051 19.039-8.05c.343-.126.429-.44.257-.629 0-.188-.257-.251-.514-.251"/>
      <path fill="url(#i)" d="M606.982 538.127c-.086 0-.258 0-.344.063l-20.925 8.868 20.925 8.867c.343.126.687.063.858-.188.172-.252.086-.503-.257-.629l-19.039-8.05 19.039-8.051c.343-.126.429-.44.257-.629 0-.188-.257-.251-.514-.251"/>
      <path fill="url(#j)" d="M606.982 521.209c-.086 0-.258 0-.344.063l-20.925 8.868 20.925 8.867c.343.126.687.063.858-.188.172-.252.086-.503-.257-.629l-19.039-8.05 19.039-8.051c.343-.125.429-.44.257-.629 0-.188-.257-.251-.514-.251"/>
      <path fill="url(#k)" d="M606.982 504.227c-.086 0-.258 0-.344.063l-20.925 8.868 20.925 8.868c.343.126.687.063.858-.189.172-.251.086-.503-.257-.629l-19.039-8.05 19.039-8.05c.343-.126.429-.44.257-.629 0-.126-.257-.252-.514-.252"/>
      <path fill="url(#l)" d="M606.982 487.309c-.086 0-.258 0-.344.063l-20.925 8.868 20.925 8.868c.343.126.687.063.858-.189.172-.251.086-.503-.257-.629l-19.039-8.05 19.039-8.05c.343-.126.429-.44.257-.629 0-.126-.257-.252-.514-.252"/>
      <path fill="url(#m)" d="M606.982 470.391c-.086 0-.258 0-.344.063l-20.925 8.868 20.925 8.868c.343.126.687.063.858-.189.172-.251.086-.503-.257-.629l-19.039-8.05 19.039-8.05c.343-.126.429-.44.257-.629 0-.189-.257-.252-.514-.252"/>
      <path fill="url(#n)" d="M606.982 453.472c-.086 0-.258 0-.344.063l-20.925 8.868 20.925 8.868c.343.126.687.063.858-.189.172-.251.086-.503-.257-.629l-19.039-8.05 19.039-8.05c.343-.126.429-.44.257-.629 0-.189-.257-.252-.514-.252"/>
      <path fill="url(#o)" d="M586.999 648.188c-.086 0-.257 0-.343.063l-20.926 8.868 20.926 8.868c.343.126.686.063.858-.189.171-.251.085-.503-.258-.629l-19.039-8.05 19.039-8.05c.343-.126.429-.44.258-.629-.086-.189-.258-.252-.515-.252"/>
      <path fill="url(#p)" d="M586.999 631.27c-.085 0-.257 0-.343.063l-20.926 8.868 20.926 8.868c.343.126.686.063.858-.189.171-.251.086-.503-.257-.629l-19.04-8.05 19.04-8.05c.343-.126.428-.44.257-.629-.086-.189-.257-.252-.515-.252"/>
      <path fill="url(#q)" d="M586.999 614.289c-.085 0-.257 0-.343.063l-20.926 8.868 20.926 8.867c.343.126.686.063.858-.188.171-.252.086-.503-.257-.629l-19.04-8.05 19.04-8.051c.343-.125.428-.44.257-.629a.61.61 0 0 0-.515-.251"/>
      <path fill="url(#r)" d="M586.999 597.371c-.085 0-.257 0-.343.063l-20.926 8.868 20.926 8.868c.343.125.686.062.858-.189.171-.252.086-.503-.257-.629l-19.04-8.05 19.04-8.051c.343-.125.428-.44.257-.629-.086-.188-.257-.251-.515-.251"/>
      <path fill="url(#s)" d="M586.999 580.453c-.085 0-.257 0-.343.063l-20.926 8.868 20.926 8.868c.343.125.686.062.858-.189.171-.252.086-.503-.257-.629l-19.04-8.05 19.04-8.051c.343-.125.428-.44.257-.629-.086-.188-.257-.251-.515-.251"/>
      <path fill="url(#t)" d="M586.999 563.535c-.085 0-.257 0-.343.063l-20.926 8.868 20.926 8.868c.343.125.686.062.858-.189.171-.252.086-.503-.257-.629l-19.04-8.05 19.04-8.05c.343-.126.428-.441.257-.629-.086-.189-.257-.252-.515-.252"/>
      <path fill="url(#u)" d="M586.999 546.554c-.085 0-.257 0-.343.063l-20.926 8.931 20.926 8.868c.343.125.686.063.858-.189s.086-.503-.257-.629l-18.954-8.05 19.039-8.05c.343-.126.429-.441.258-.629-.172-.189-.343-.315-.601-.315"/>
      <path fill="url(#v)" d="M586.999 529.636c-.085 0-.257 0-.343.062l-20.926 8.868 20.926 8.868c.343.126.686.063.858-.189.171-.251.086-.503-.257-.628l-18.954-8.051 19.039-8.05c.343-.126.429-.44.258-.629-.172-.126-.343-.251-.601-.251"/>
      <path fill="url(#w)" d="M586.999 512.718c-.085 0-.257 0-.343.063l-20.926 8.867 20.926 8.868c.343.126.686.063.858-.188.171-.252.086-.504-.257-.629l-19.04-8.051 19.04-8.05c.343-.126.428-.44.257-.629-.086-.188-.257-.251-.515-.251"/>
      <path fill="url(#x)" d="M586.999 495.8c-.085 0-.257 0-.343.063l-20.926 8.867 20.926 8.868c.343.126.686.063.858-.188.171-.252.086-.504-.257-.629l-19.04-8.051 19.04-8.05c.343-.126.428-.44.257-.629-.086-.188-.257-.251-.515-.251"/>
      <path fill="url(#y)" d="M586.999 478.882c-.085 0-.257 0-.343.063l-20.926 8.867 20.926 8.868c.343.126.686.063.858-.188.171-.252.086-.504-.257-.629l-19.04-8.051 19.04-8.05c.343-.126.428-.44.257-.629-.086-.188-.257-.251-.515-.251"/>
      <path fill="url(#z)" d="M586.999 461.9c-.085 0-.257 0-.343.063l-20.926 8.868 20.926 8.868c.343.126.686.063.858-.189.171-.251.086-.503-.257-.629l-19.04-8.05 19.04-8.05c.343-.126.428-.44.257-.629a.6.6 0 0 0-.515-.252"/>
      <path fill="url(#A)" d="M586.999 444.982c-.085 0-.257 0-.343.063l-20.926 8.868 20.926 8.868c.343.126.686.063.858-.189.171-.251.086-.503-.257-.629l-19.04-8.05 19.04-8.05c.343-.126.428-.441.257-.629a.6.6 0 0 0-.515-.252"/>
      <path fill="url(#B)" d="M567.017 656.615c-.086 0-.257 0-.343.063l-19.983 8.491c-.343.126-.429.44-.257.629.171.188.6.314.858.188l19.982-8.49c.343-.126.429-.44.257-.629a.6.6 0 0 0-.514-.252"/>
      <path fill="url(#C)" d="M567.017 639.698c-.086 0-.257 0-.343.063l-20.926 8.868 20.926 8.868c.343.125.686.063.858-.189s.085-.503-.258-.629l-19.039-8.05 19.039-8.05c.343-.126.429-.441.258-.629a.61.61 0 0 0-.515-.252"/>
      <path fill="url(#D)" d="M567.017 622.78c-.086 0-.257 0-.343.063l-20.926 8.868 20.926 8.868c.343.125.686.063.858-.189s.085-.503-.258-.629l-19.039-8.05 19.039-8.05c.343-.126.429-.441.258-.629-.086-.189-.258-.252-.515-.252"/>
      <path fill="url(#E)" d="M567.017 605.862c-.086 0-.257 0-.343.063l-20.926 8.868 20.926 8.868c.343.126.686.063.858-.189s.085-.503-.258-.629l-19.039-8.05 19.039-8.05c.343-.126.429-.441.258-.629-.086-.189-.258-.252-.515-.252"/>
      <path fill="url(#F)" d="M567.017 588.943c-.086 0-.257 0-.343.063l-20.926 8.868 20.926 8.868c.343.126.686.063.858-.189.171-.251.085-.503-.258-.629l-19.039-8.05 19.039-8.05c.343-.126.429-.441.258-.629-.086-.189-.258-.252-.515-.252"/>
      <path fill="url(#G)" d="M567.017 571.963c-.086 0-.257 0-.343.063l-20.926 8.867 20.926 8.868c.343.126.686.063.858-.188.171-.252.085-.503-.258-.629l-19.039-8.051 19.039-8.05c.343-.126.429-.44.258-.629a.61.61 0 0 0-.515-.251"/>
      <path fill="url(#H)" d="M567.017 555.045c-.086 0-.257 0-.343.063l-20.926 8.867 20.926 8.868c.343.126.686.063.858-.188.171-.252.085-.503-.258-.629l-19.039-8.051 19.039-8.05c.343-.126.429-.44.258-.629-.086-.188-.258-.251-.515-.251"/>
      <path fill="url(#I)" d="M567.017 538.127c-.086 0-.257 0-.343.063l-20.926 8.868 20.926 8.867c.343.126.686.063.858-.188.171-.252.085-.503-.258-.629l-19.039-8.05 19.039-8.051c.343-.126.429-.44.258-.629-.086-.188-.258-.251-.515-.251"/>
      <path fill="url(#J)" d="M567.017 521.209c-.086 0-.257 0-.343.063l-20.926 8.868 20.926 8.867c.343.126.686.063.858-.188.171-.252.085-.503-.258-.629l-19.039-8.05 19.039-8.051c.343-.125.429-.44.258-.629-.086-.188-.258-.251-.515-.251"/>
      <path fill="url(#K)" d="M567.017 504.227c-.086 0-.257 0-.343.063l-20.926 8.868 20.926 8.868c.343.126.686.063.858-.189.171-.251.085-.503-.258-.629l-19.039-8.05 19.039-8.05c.343-.126.429-.44.258-.629a.61.61 0 0 0-.515-.252"/>
      <path fill="url(#L)" d="M567.017 487.309c-.086 0-.257 0-.343.063l-20.926 8.868 20.926 8.868c.343.126.686.063.858-.189.171-.251.085-.503-.258-.629l-19.039-8.05 19.039-8.05c.343-.126.429-.44.258-.629a.61.61 0 0 0-.515-.252"/>
      <path fill="url(#M)" d="M567.017 470.391c-.086 0-.257 0-.343.063l-20.926 8.868 20.926 8.868c.343.126.686.063.858-.189.171-.251.085-.503-.258-.629l-19.039-8.05 19.039-8.05c.343-.126.429-.44.258-.629-.086-.189-.258-.252-.515-.252"/>
      <path fill="url(#N)" d="M567.017 453.472c-.086 0-.257 0-.343.063l-20.926 8.868 20.926 8.868c.343.126.686.063.858-.189.171-.251.085-.503-.258-.629l-19.039-8.05 19.039-8.05c.343-.126.429-.44.258-.629-.086-.189-.258-.252-.515-.252"/>
      <path fill="url(#O)" d="M567.017 436.555c-.086 0-.257 0-.343.062l-20.926 8.868 20.926 8.868c.343.126.686.063.858-.189.171-.251.085-.503-.258-.628l-19.039-8.051 19.039-8.05c.343-.126.429-.44.258-.629-.086-.189-.258-.251-.515-.251"/>
      <path fill="url(#P)" d="M547.034 648.188c-.085 0-.257 0-.343.063l-20.926 8.868 20.926 8.868c.343.126.686.063.858-.189.172-.251.086-.503-.257-.629l-19.04-8.05 19.04-8.05c.343-.126.429-.44.257-.629-.086-.189-.257-.252-.515-.252"/>
      <path fill="url(#Q)" d="M547.034 631.27c-.085 0-.257 0-.343.063l-20.926 8.868 20.926 8.868c.343.126.686.063.858-.189.172-.251.086-.503-.257-.629l-19.04-8.05 19.04-8.05c.343-.126.429-.44.257-.629-.086-.189-.257-.252-.515-.252"/>
      <path fill="url(#R)" d="M547.034 614.289c-.085 0-.257 0-.343.063l-20.926 8.868 20.926 8.867c.343.126.686.063.858-.188.172-.252.086-.503-.257-.629l-19.04-8.05 19.04-8.051c.343-.125.429-.44.257-.629a.61.61 0 0 0-.515-.251"/>
      <path fill="url(#S)" d="M547.034 597.371c-.085 0-.257 0-.343.063l-20.926 8.868 20.926 8.868c.343.125.686.062.858-.189.172-.252.086-.503-.257-.629l-19.04-8.05 19.04-8.051c.343-.125.429-.44.257-.629-.086-.188-.257-.251-.515-.251"/>
      <path fill="url(#T)" d="M547.034 580.453c-.085 0-.257 0-.343.063l-20.926 8.868 20.926 8.868c.343.125.686.062.858-.189.172-.252.086-.503-.257-.629l-19.04-8.05 19.04-8.051c.343-.125.429-.44.257-.629-.086-.188-.257-.251-.515-.251"/>
      <path fill="url(#U)" d="M547.034 563.535c-.085 0-.257 0-.343.063l-20.926 8.868 20.926 8.868c.343.125.686.062.858-.189.172-.252.086-.503-.257-.629l-19.04-8.05 19.04-8.05c.343-.126.429-.441.257-.629-.086-.189-.257-.252-.515-.252"/>
      <path fill="url(#V)" d="M547.034 546.554c-.085 0-.257 0-.343.062l-20.926 8.868 20.926 8.868c.343.126.686.063.858-.189.172-.251.086-.503-.257-.628l-19.04-8.051 19.04-8.05c.343-.126.429-.44.257-.629a.6.6 0 0 0-.515-.251"/>
      <path fill="url(#W)" d="M547.034 529.636c-.085 0-.257 0-.343.062l-20.926 8.868 20.926 8.868c.343.126.686.063.858-.189.172-.251.086-.503-.257-.628l-19.04-8.051 19.04-8.05c.343-.126.429-.44.257-.629a.6.6 0 0 0-.515-.251"/>
      <path fill="url(#X)" d="M547.034 512.718c-.085 0-.257 0-.343.063l-20.926 8.867 20.926 8.868c.343.126.686.063.858-.188.172-.252.086-.504-.257-.629l-19.04-8.051 19.04-8.05c.343-.126.429-.44.257-.629-.086-.188-.257-.251-.515-.251"/>
      <path fill="url(#Y)" d="M547.034 495.8c-.085 0-.257 0-.343.063l-20.926 8.867 20.926 8.868c.343.126.686.063.858-.188.172-.252.086-.504-.257-.629l-19.04-8.051 19.04-8.05c.343-.126.429-.44.257-.629-.086-.188-.257-.251-.515-.251"/>
      <path fill="url(#Z)" d="M547.034 478.882c-.085 0-.257 0-.343.063l-20.926 8.867 20.926 8.868c.343.126.686.063.858-.188.172-.252.086-.504-.257-.629l-19.04-8.051 19.04-8.05c.343-.126.429-.44.257-.629-.086-.188-.257-.251-.515-.251"/>
      <path fill="url(#aa)" d="M547.034 461.9c-.085 0-.257 0-.343.063l-20.926 8.868 20.926 8.868c.343.126.686.063.858-.189.172-.251.086-.503-.257-.629l-19.04-8.05 19.04-8.05c.343-.126.429-.44.257-.629a.6.6 0 0 0-.515-.252"/>
      <path fill="url(#ab)" d="M547.034 444.982c-.085 0-.257 0-.343.063l-20.926 8.868 20.926 8.868c.343.126.686.063.858-.189.172-.251.086-.503-.257-.629l-19.04-8.05 19.04-8.05c.343-.126.429-.441.257-.629a.6.6 0 0 0-.515-.252"/>
      <path fill="url(#ac)" d="M547.034 428.064c-.085 0-.257 0-.343.063l-20.926 8.868 20.926 8.868c.343.126.686.063.858-.189.172-.251.086-.503-.257-.629l-19.04-8.05 19.04-8.05c.343-.126.429-.44.257-.629-.086-.189-.257-.252-.515-.252"/>
      <path fill="url(#ad)" d="M527.052 639.698c-.086 0-.257 0-.343.063l-20.926 8.868 20.926 8.868c.343.125.686.063.858-.189s.085-.503-.258-.629l-19.039-8.05 19.039-8.05c.343-.126.429-.441.258-.629-.086-.126-.344-.252-.515-.252"/>
      <path fill="url(#ae)" d="M527.052 622.78c-.086 0-.257 0-.343.063l-20.926 8.868 20.926 8.868c.343.125.686.063.858-.189s.085-.503-.258-.629l-19.039-8.05 19.039-8.05c.343-.126.429-.441.258-.629-.086-.189-.344-.252-.515-.252"/>
      <path fill="url(#af)" d="M527.052 605.862c-.086 0-.257 0-.343.063l-20.926 8.868 20.926 8.868c.343.126.686.063.858-.189s.085-.503-.258-.629l-19.039-8.05 19.039-8.05c.343-.126.429-.441.258-.629-.086-.189-.344-.252-.515-.252"/>
      <path fill="url(#ag)" d="M527.052 588.943c-.086 0-.257 0-.343.063l-20.926 8.868 20.926 8.868c.343.126.686.063.858-.189.171-.251.085-.503-.258-.629l-19.039-8.05 19.039-8.05c.343-.126.429-.441.258-.629-.086-.189-.344-.252-.515-.252"/>
      <path fill="url(#ah)" d="M527.052 571.963c-.086 0-.257 0-.343.063l-20.926 8.867 20.926 8.868c.343.126.686.063.858-.188.171-.252.085-.503-.258-.629l-19.039-8.051 19.039-8.05c.343-.126.429-.44.258-.629-.086-.126-.344-.251-.515-.251"/>
      <path fill="url(#ai)" d="M527.052 555.045c-.086 0-.257 0-.343.063l-20.926 8.867 20.926 8.868c.343.126.686.063.858-.188.171-.252.085-.503-.258-.629l-19.039-8.051 19.039-8.05c.343-.126.429-.44.258-.629-.086-.188-.344-.251-.515-.251"/>
      <path fill="url(#aj)" d="M527.052 538.127c-.086 0-.257 0-.343.063l-20.926 8.868 20.926 8.867c.343.126.686.063.858-.188.171-.252.085-.503-.258-.629l-19.039-8.05 19.039-8.051c.343-.126.429-.44.258-.629-.086-.188-.344-.251-.515-.251"/>
      <path fill="url(#ak)" d="M527.052 521.209c-.086 0-.257 0-.343.063l-20.926 8.868 20.926 8.867c.343.126.686.063.858-.188.171-.252.085-.503-.258-.629l-19.039-8.05 19.039-8.051c.343-.125.429-.44.258-.629-.086-.188-.344-.251-.515-.251"/>
      <path fill="url(#al)" d="M527.052 504.227c-.086 0-.257 0-.343.063l-20.926 8.868 20.926 8.868c.343.126.686.063.858-.189.171-.251.085-.503-.258-.629l-19.039-8.05 19.039-8.05c.343-.126.429-.44.258-.629-.086-.126-.344-.252-.515-.252"/>
      <path fill="url(#am)" d="M527.052 487.309c-.086 0-.257 0-.343.063l-20.926 8.868 20.926 8.868c.343.126.686.063.858-.189.171-.251.085-.503-.258-.629l-19.039-8.05 19.039-8.05c.343-.126.429-.44.258-.629-.086-.126-.344-.252-.515-.252"/>
      <path fill="url(#an)" d="M527.052 470.391c-.086 0-.257 0-.343.063l-20.926 8.868 20.926 8.868c.343.126.686.063.858-.189.171-.251.085-.503-.258-.629l-19.039-8.05 19.039-8.05c.343-.126.429-.44.258-.629-.086-.189-.344-.252-.515-.252"/>
      <path fill="url(#ao)" d="M527.052 453.472c-.086 0-.257 0-.343.063l-20.926 8.868 20.926 8.868c.343.126.686.063.858-.189.171-.251.085-.503-.258-.629l-19.039-8.05 19.039-8.05c.343-.126.429-.44.258-.629-.086-.189-.344-.252-.515-.252"/>
      <path fill="url(#ap)" d="M527.052 436.555c-.086 0-.257 0-.343.062l-20.926 8.868 20.926 8.868c.343.126.686.063.858-.189.171-.251.085-.503-.258-.628l-19.039-8.051 19.039-8.05c.343-.126.429-.44.258-.629-.086-.189-.344-.251-.515-.251"/>
      <path fill="url(#aq)" d="M507.07 631.27c-.086 0-.258 0-.343.063l-20.926 8.868 20.926 8.868c.343.126.686.063.857-.189.172-.251.086-.503-.257-.629l-19.039-8.05 19.039-8.05c.343-.126.429-.44.257-.629-.085-.189-.343-.252-.514-.252"/>
      <path fill="url(#ar)" d="M507.07 614.289c-.086 0-.258 0-.343.063l-20.926 8.868 20.926 8.867c.343.126.686.063.857-.188.172-.252.086-.503-.257-.629l-19.039-8.05 19.039-8.051c.343-.125.429-.44.257-.629-.085-.125-.343-.251-.514-.251"/>
      <path fill="url(#as)" d="M507.07 597.371c-.086 0-.258 0-.343.063l-20.926 8.868 20.926 8.868c.343.125.686.062.857-.189.172-.252.086-.503-.257-.629l-19.039-8.05 19.039-8.051c.343-.125.429-.44.257-.629-.085-.188-.343-.251-.514-.251"/>
      <path fill="url(#at)" d="M507.07 580.453c-.086 0-.258 0-.343.063l-20.926 8.868 20.926 8.868c.343.125.686.062.857-.189.172-.252.086-.503-.257-.629l-19.039-8.05 19.039-8.051c.343-.125.429-.44.257-.629-.085-.188-.343-.251-.514-.251"/>
      <path fill="url(#au)" d="M507.07 563.535c-.086 0-.258 0-.343.063l-20.926 8.868 20.926 8.868c.343.125.686.062.857-.189.172-.252.086-.503-.257-.629l-19.039-8.05 19.039-8.05c.343-.126.429-.441.257-.629-.085-.189-.343-.252-.514-.252"/>
      <path fill="url(#av)" d="M507.07 546.554c-.086 0-.258 0-.343.062l-20.926 8.868 20.926 8.868c.343.126.686.063.857-.189.172-.251.086-.503-.257-.628l-19.039-8.051 19.039-8.05c.343-.126.429-.44.257-.629-.085-.126-.343-.251-.514-.251"/>
      <path fill="url(#aw)" d="M507.07 529.636c-.086 0-.258 0-.343.062l-20.926 8.868 20.926 8.868c.343.126.686.063.857-.189.172-.251.086-.503-.257-.628l-19.039-8.051 19.039-8.05c.343-.126.429-.44.257-.629-.085-.126-.343-.251-.514-.251"/>
      <path fill="url(#ax)" d="M507.07 512.718c-.086 0-.258 0-.343.063l-20.926 8.867 20.926 8.868c.343.126.686.063.857-.188.172-.252.086-.504-.257-.629l-19.039-8.051 19.039-8.05c.343-.126.429-.44.257-.629-.085-.188-.343-.251-.514-.251"/>
      <path fill="url(#ay)" d="M507.07 495.8c-.086 0-.258 0-.343.063l-20.926 8.867 20.926 8.868c.343.126.686.063.857-.188.172-.252.086-.504-.257-.629l-19.039-8.051 19.039-8.05c.343-.126.429-.44.257-.629-.085-.188-.343-.251-.514-.251"/>
      <path fill="url(#az)" d="M507.07 478.882c-.086 0-.258 0-.343.063l-20.926 8.867 20.926 8.868c.343.126.686.063.857-.188.172-.252.086-.504-.257-.629l-19.039-8.051 19.039-8.05c.343-.126.429-.44.257-.629-.085-.188-.343-.251-.514-.251"/>
      <path fill="url(#aA)" d="M507.07 461.9c-.086 0-.258 0-.343.063l-20.926 8.868 20.926 8.868c.343.126.686.063.857-.189.172-.251.086-.503-.257-.629l-19.039-8.05 19.039-8.05c.343-.126.429-.44.257-.629-.085-.126-.343-.252-.514-.252"/>
      <path fill="url(#aB)" d="M507.07 444.982c-.086 0-.258 0-.343.063l-20.926 8.868 20.926 8.868c.343.126.686.063.857-.189.172-.251.086-.503-.257-.629l-19.039-8.05 19.039-8.05c.343-.126.429-.441.257-.629-.085-.126-.343-.252-.514-.252"/>
      <path fill="url(#aC)" d="M507.07 428.064c-.086 0-.258 0-.343.063l-20.926 8.868 20.926 8.868c.343.126.686.063.857-.189.172-.251.086-.503-.257-.629l-19.039-8.05 19.039-8.05c.343-.126.429-.44.257-.629-.085-.189-.343-.252-.514-.252"/>
      <path fill="url(#aD)" d="M487.001 622.78c-.086 0-.257 0-.343.063l-20.926 8.868 20.926 8.868c.343.125.686.063.858-.189s.086-.503-.258-.629l-19.038-8.05 19.038-8.05c.344-.126.429-.441.258-.629 0-.189-.258-.252-.515-.252"/>
      <path fill="url(#aE)" d="M487.001 605.862c-.086 0-.257 0-.343.063l-20.926 8.868 20.926 8.868c.343.126.686.063.858-.189s.086-.503-.258-.629l-19.038-8.05 19.038-8.05c.344-.126.429-.441.258-.629 0-.189-.258-.252-.515-.252"/>
      <path fill="url(#aF)" d="M487.001 588.943c-.086 0-.257 0-.343.063l-20.926 8.868 20.926 8.868c.343.126.686.063.858-.189.171-.251.086-.503-.258-.629l-19.038-8.05 19.038-8.05c.344-.126.429-.441.258-.629 0-.189-.258-.252-.515-.252"/>
      <path fill="url(#aG)" d="M487.001 571.963c-.086 0-.257 0-.343.063l-20.926 8.867 20.926 8.868c.343.126.686.063.858-.188.171-.252.086-.503-.258-.629l-19.038-8.051 19.038-8.05c.344-.126.429-.44.258-.629 0-.126-.258-.251-.515-.251"/>
      <path fill="url(#aH)" d="M487.001 555.045c-.086 0-.257 0-.343.063l-20.926 8.867 20.926 8.868c.343.126.686.063.858-.188.171-.252.086-.503-.258-.629l-19.038-8.051 19.038-8.05c.344-.126.429-.44.258-.629 0-.188-.258-.251-.515-.251"/>
      <path fill="url(#aI)" d="M487.001 538.127c-.086 0-.257 0-.343.063l-20.926 8.868 20.926 8.867c.343.126.686.063.858-.188.171-.252.086-.503-.258-.629l-19.038-8.05 19.038-8.051c.344-.126.429-.44.258-.629 0-.188-.258-.251-.515-.251"/>
      <path fill="url(#aJ)" d="M487.001 521.209c-.086 0-.257 0-.343.063l-20.926 8.868 20.926 8.867c.343.126.686.063.858-.188.171-.252.086-.503-.258-.629l-19.038-8.05 19.038-8.051c.344-.125.429-.44.258-.629 0-.188-.258-.251-.515-.251"/>
      <path fill="url(#aK)" d="M487.001 504.227c-.086 0-.257 0-.343.063l-20.926 8.868 20.926 8.868c.343.126.686.063.858-.189.171-.251.086-.503-.258-.629l-19.038-8.05 19.038-8.05c.344-.126.429-.44.258-.629 0-.126-.258-.252-.515-.252"/>
      <path fill="url(#aL)" d="M487.001 487.309c-.086 0-.257 0-.343.063l-20.926 8.868 20.926 8.868c.343.126.686.063.858-.189.171-.251.086-.503-.258-.629l-19.038-8.05 19.038-8.05c.344-.126.429-.44.258-.629 0-.126-.258-.252-.515-.252"/>
      <path fill="url(#aM)" d="M487.001 470.391c-.086 0-.257 0-.343.063l-20.926 8.868 20.926 8.868c.343.126.686.063.858-.189.171-.251.086-.503-.258-.629l-19.038-8.05 19.038-8.05c.344-.126.429-.44.258-.629 0-.189-.258-.252-.515-.252"/>
      <path fill="url(#aN)" d="M487.001 453.472c-.086 0-.257 0-.343.063l-20.926 8.868 20.926 8.868c.343.126.686.063.858-.189.171-.251.086-.503-.258-.629l-19.038-8.05 19.038-8.05c.344-.126.429-.44.258-.629 0-.189-.258-.252-.515-.252"/>
      <path fill="url(#aO)" d="M487.001 436.555c-.086 0-.257 0-.343.062l-20.926 8.868 20.926 8.868c.343.126.686.063.858-.189.171-.251.086-.503-.258-.628l-19.038-8.051 19.038-8.05c.344-.126.429-.44.258-.629 0-.189-.258-.251-.515-.251"/>
      <path fill="url(#aP)" d="M467.019 614.289c-.086 0-.257 0-.343.063l-20.926 8.868 20.926 8.867c.343.126.686.063.858-.188.171-.252.085-.503-.258-.629l-19.039-8.05 19.039-8.051c.343-.125.429-.44.258-.629a.61.61 0 0 0-.515-.251"/>
      <path fill="url(#aQ)" d="M467.019 597.371c-.086 0-.257 0-.343.063l-20.926 8.868 20.926 8.868c.343.125.686.062.858-.189.171-.252.085-.503-.258-.629l-19.039-8.05 19.039-8.051c.343-.125.429-.44.258-.629-.086-.188-.258-.251-.515-.251"/>
      <path fill="url(#aR)" d="M467.019 580.453c-.086 0-.257 0-.343.063l-20.926 8.868 20.926 8.868c.343.125.686.062.858-.189.171-.252.085-.503-.258-.629l-19.039-8.05 19.039-8.051c.343-.125.429-.44.258-.629-.086-.188-.258-.251-.515-.251"/>
      <path fill="url(#aS)" d="M467.019 563.535c-.086 0-.257 0-.343.063l-20.926 8.868 20.926 8.868c.343.125.686.062.858-.189.171-.252.085-.503-.258-.629l-19.039-8.05 19.039-8.05c.343-.126.429-.441.258-.629-.086-.189-.258-.252-.515-.252"/>
      <path fill="url(#aT)" d="M467.019 546.554c-.086 0-.257 0-.343.062l-20.926 8.868 20.926 8.868c.343.126.686.063.858-.189.171-.251.085-.503-.258-.628l-19.039-8.051 19.039-8.05c.343-.126.429-.44.258-.629a.61.61 0 0 0-.515-.251"/>
      <path fill="url(#aU)" d="M467.019 529.636c-.086 0-.257 0-.343.062l-20.926 8.868 20.926 8.868c.343.126.686.063.858-.189.171-.251.085-.503-.258-.628l-19.039-8.051 19.039-8.05c.343-.126.429-.44.258-.629a.61.61 0 0 0-.515-.251"/>
      <path fill="url(#aV)" d="M467.019 512.718c-.086 0-.257 0-.343.063l-20.926 8.867 20.926 8.868c.343.126.686.063.858-.188.171-.252.085-.504-.258-.629l-19.039-8.051 19.039-8.05c.343-.126.429-.44.258-.629-.086-.188-.258-.251-.515-.251"/>
      <path fill="url(#aW)" d="M467.019 495.8c-.086 0-.257 0-.343.063l-20.926 8.867 20.926 8.868c.343.126.686.063.858-.188.171-.252.085-.504-.258-.629l-19.039-8.051 19.039-8.05c.343-.126.429-.44.258-.629-.086-.188-.258-.251-.515-.251"/>
      <path fill="url(#aX)" d="M467.019 478.882c-.086 0-.257 0-.343.063l-20.926 8.867 20.926 8.868c.343.126.686.063.858-.188.171-.252.085-.504-.258-.629l-19.039-8.051 19.039-8.05c.343-.126.429-.44.258-.629-.086-.188-.258-.251-.515-.251"/>
      <path fill="url(#aY)" d="M467.019 461.9c-.086 0-.257 0-.343.063l-20.926 8.868 20.926 8.868c.343.126.686.063.858-.189.171-.251.085-.503-.258-.629l-19.039-8.05 19.039-8.05c.343-.126.429-.44.258-.629a.61.61 0 0 0-.515-.252"/>
      <path fill="url(#aZ)" d="M467.019 444.982c-.086 0-.257 0-.343.063l-20.926 8.868 20.926 8.868c.343.126.686.063.858-.189.171-.251.085-.503-.258-.629l-19.039-8.05 19.039-8.05c.343-.126.429-.441.258-.629a.61.61 0 0 0-.515-.252"/>
      <path fill="url(#ba)" d="M467.019 428.064c-.086 0-.257 0-.343.063l-20.926 8.868 20.926 8.868c.343.126.686.063.858-.189.171-.251.085-.503-.258-.629l-19.039-8.05 19.039-8.05c.343-.126.429-.44.258-.629-.086-.189-.258-.252-.515-.252"/>
      <path fill="url(#bb)" d="M447.037 605.862c-.086 0-.258 0-.344.063l-20.925 8.868 20.925 8.868c.343.126.686.063.858-.189s.086-.503-.257-.629l-19.039-8.05 19.039-8.05c.343-.126.428-.441.257-.629-.086-.189-.257-.252-.514-.252"/>
      <path fill="url(#bc)" d="M447.037 588.943c-.086 0-.258 0-.344.063l-20.925 8.868 20.925 8.868c.343.126.686.063.858-.189.171-.251.086-.503-.257-.629l-19.039-8.05 19.039-8.05c.343-.126.428-.441.257-.629-.086-.189-.257-.252-.514-.252"/>
      <path fill="url(#bd)" d="M447.037 571.963c-.086 0-.258 0-.344.063l-20.925 8.867 20.925 8.868c.343.126.686.063.858-.188.171-.252.086-.503-.257-.629l-19.039-8.051 19.039-8.05c.343-.126.428-.44.257-.629a.6.6 0 0 0-.514-.251"/>
      <path fill="url(#be)" d="M447.037 555.045c-.086 0-.258 0-.344.063l-20.925 8.867 20.925 8.868c.343.126.686.063.858-.188.171-.252.086-.503-.257-.629l-19.039-8.051 19.039-8.05c.343-.126.428-.44.257-.629-.086-.188-.257-.251-.514-.251"/>
      <path fill="url(#bf)" d="M447.037 538.127c-.086 0-.258 0-.344.063l-20.925 8.868 20.925 8.867c.343.126.686.063.858-.188.171-.252.086-.503-.257-.629l-19.039-8.05 19.039-8.051c.343-.126.428-.44.257-.629-.086-.188-.257-.251-.514-.251"/>
      <path fill="url(#bg)" d="M447.037 521.209c-.086 0-.258 0-.344.063l-20.925 8.868 20.925 8.867c.343.126.686.063.858-.188.171-.252.086-.503-.257-.629l-19.039-8.05 19.039-8.051c.343-.125.428-.44.257-.629-.086-.188-.257-.251-.514-.251"/>
      <path fill="url(#bh)" d="M447.037 504.227c-.086 0-.258 0-.344.063l-20.925 8.868 20.925 8.868c.343.126.686.063.858-.189.171-.251.086-.503-.257-.629l-19.039-8.05 19.039-8.05c.343-.126.428-.44.257-.629a.6.6 0 0 0-.514-.252"/>
      <path fill="url(#bi)" d="M447.037 487.309c-.086 0-.258 0-.344.063l-20.925 8.868 20.925 8.868c.343.126.686.063.858-.189.171-.251.086-.503-.257-.629l-19.039-8.05 19.039-8.05c.343-.126.428-.44.257-.629a.6.6 0 0 0-.514-.252"/>
      <path fill="url(#bj)" d="M447.037 470.391c-.086 0-.258 0-.344.063l-20.925 8.868 20.925 8.868c.343.126.686.063.858-.189.171-.251.086-.503-.257-.629l-19.039-8.05 19.124-8.05c.344-.126.429-.44.258-.629-.172-.189-.343-.252-.6-.252"/>
      <path fill="url(#bk)" d="M447.037 453.472c-.086 0-.258 0-.344.063l-20.925 8.868 20.925 8.868c.343.126.686.063.858-.189.171-.251.086-.503-.257-.629l-19.039-8.05 19.039-8.05c.343-.126.428-.44.257-.629-.086-.189-.257-.252-.514-.252"/>
      <path fill="url(#bl)" d="M447.037 436.555c-.086 0-.258 0-.344.062l-20.925 8.868 20.925 8.868c.343.126.686.063.858-.189.171-.251.086-.503-.257-.628l-19.039-8.051 19.039-8.05c.343-.126.428-.44.257-.629-.086-.189-.257-.251-.514-.251"/>
      <path fill="url(#bm)" d="M427.054 597.371c-.086 0-.257 0-.343.063l-20.926 8.868 20.926 8.868c.343.125.686.062.857-.189.172-.252.086-.503-.257-.629l-19.039-8.05 19.039-8.051c.343-.125.429-.44.257-.629-.085-.188-.257-.251-.514-.251"/>
      <path fill="url(#bn)" d="M427.054 580.453c-.086 0-.257 0-.343.063l-20.926 8.868 20.926 8.868c.343.125.686.062.857-.189.172-.252.086-.503-.257-.629l-19.039-8.05 19.039-8.051c.343-.125.429-.44.257-.629-.085-.188-.257-.251-.514-.251"/>
      <path fill="url(#bo)" d="M427.054 563.535c-.086 0-.257 0-.343.063l-20.926 8.868 20.926 8.868c.343.125.686.062.857-.189.172-.252.086-.503-.257-.629l-19.039-8.05 19.039-8.05c.343-.126.429-.441.257-.629-.085-.189-.257-.252-.514-.252"/>
      <path fill="url(#bp)" d="M427.054 546.554c-.086 0-.257 0-.343.062l-20.926 8.868 20.926 8.868c.343.126.686.063.857-.189.172-.251.086-.503-.257-.628l-19.039-8.051 19.039-8.05c.343-.126.429-.44.257-.629a.6.6 0 0 0-.514-.251"/>
      <path fill="url(#bq)" d="M427.054 529.636c-.086 0-.257 0-.343.062l-20.926 8.868 20.926 8.868c.343.126.686.063.857-.189.172-.251.086-.503-.257-.628l-19.039-8.051 19.039-8.05c.343-.126.429-.44.257-.629a.6.6 0 0 0-.514-.251"/>
      <path fill="url(#br)" d="M427.054 512.718c-.086 0-.257 0-.343.063l-20.926 8.867 20.926 8.868c.343.126.686.063.857-.188.172-.252.086-.504-.257-.629l-19.039-8.051 19.039-8.05c.343-.126.429-.44.257-.629-.085-.188-.257-.251-.514-.251"/>
      <path fill="url(#bs)" d="M427.054 495.8c-.086 0-.257 0-.343.063l-20.926 8.867 20.926 8.868c.343.126.686.063.857-.188.172-.252.086-.504-.257-.629l-19.039-8.051 19.039-8.05c.343-.126.429-.44.257-.629-.085-.188-.257-.251-.514-.251"/>
      <path fill="url(#bt)" d="M427.054 478.882c-.086 0-.257 0-.343.063l-20.926 8.867 20.926 8.868c.343.126.686.063.857-.188.172-.252.086-.504-.257-.629l-19.039-8.051 19.039-8.05c.343-.126.429-.44.257-.629-.085-.188-.257-.251-.514-.251"/>
      <path fill="url(#bu)" d="M427.054 461.9c-.086 0-.257 0-.343.063l-20.926 8.868 20.926 8.868c.343.126.686.063.857-.189.172-.251.086-.503-.257-.629l-19.039-8.05 19.039-8.05c.343-.126.429-.44.257-.629a.6.6 0 0 0-.514-.252"/>
      <path fill="url(#bv)" d="M427.054 444.982c-.086 0-.257 0-.343.063l-20.926 8.868 20.926 8.868c.343.126.686.063.857-.189.172-.251.086-.503-.257-.629l-19.039-8.05 19.039-8.05c.343-.126.429-.441.257-.629a.6.6 0 0 0-.514-.252"/>
      <path fill="url(#bw)" d="M427.054 428.064c-.086 0-.257 0-.343.063l-20.926 8.868 20.926 8.868c.343.126.686.063.857-.189.172-.251.086-.503-.257-.629l-19.039-8.05 19.039-8.05c.343-.126.429-.44.257-.629-.085-.189-.257-.252-.514-.252"/>
      <path fill="url(#bx)" d="M447.037 419.574c-.086 0-.258 0-.344.063l-20.925 8.868 20.925 8.868c.343.125.686.063.858-.189s.086-.503-.257-.629l-19.039-8.05 19.039-8.051c.343-.125.428-.44.257-.628a.6.6 0 0 0-.514-.252"/>
      <path fill="url(#by)" d="M427.054 411.146c-.086 0-.257 0-.343.063l-20.926 8.868 20.926 8.868c.343.126.686.063.857-.189.172-.251.086-.503-.257-.629l-19.039-8.05 19.039-8.05c.343-.126.429-.441.257-.629-.085-.189-.257-.252-.514-.252"/>
      <path fill="url(#bz)" d="M487.001 419.574c-.086 0-.257 0-.343.063l-20.926 8.868 20.926 8.868c.343.125.686.063.858-.189s.086-.503-.258-.629l-19.038-8.05 19.038-8.051c.344-.125.429-.44.258-.628 0-.126-.258-.252-.515-.252"/>
      <path fill="url(#bA)" d="M447.037 402.656c-.086 0-.258 0-.344.063l-20.925 8.868 20.925 8.868c.343.125.686.063.858-.189s.086-.503-.257-.629l-19.039-8.05 19.039-8.05c.343-.126.428-.441.257-.629-.086-.189-.257-.252-.514-.252"/>
      <path fill="url(#bB)" d="M427.054 394.228c-.086 0-.257 0-.343.063l-20.926 8.868 20.926 8.868c.343.126.686.063.857-.189.172-.251.086-.503-.257-.629l-19.039-8.05 19.039-8.05c.343-.126.429-.44.257-.629-.085-.189-.257-.252-.514-.252"/>
      <path fill="url(#bC)" d="M467.019 411.146c-.086 0-.257 0-.343.063l-20.926 8.868 20.926 8.868c.343.126.686.063.858-.189.171-.251.085-.503-.258-.629l-19.039-8.05 19.039-8.05c.343-.126.429-.441.258-.629-.086-.189-.258-.252-.515-.252"/>
      <path fill="url(#bD)" d="M447.037 385.737c-.086 0-.258 0-.344.063l-20.925 8.868 20.925 8.868c.343.126.686.063.858-.189s.086-.503-.257-.629l-19.039-8.05 19.039-8.05c.343-.126.428-.441.257-.629-.086-.189-.257-.252-.514-.252"/>
      <path fill="url(#bE)" d="M427.054 377.247c-.086 0-.257 0-.343.063l-20.926 8.868 20.926 8.868c.343.125.686.062.857-.189.172-.252.086-.503-.257-.629l-19.039-8.05 19.039-8.051c.343-.125.429-.44.257-.628a.6.6 0 0 0-.514-.252"/>
      <path fill="url(#bF)" d="M467.019 394.228c-.086 0-.257 0-.343.063l-20.926 8.868 20.926 8.868c.343.126.686.063.858-.189.171-.251.085-.503-.258-.629l-19.039-8.05 19.039-8.05c.343-.126.429-.44.258-.629-.086-.189-.258-.252-.515-.252"/>
      <path fill="url(#bG)" d="M487.001 402.656c-.086 0-.257 0-.343.063l-20.926 8.868 20.926 8.868c.343.125.686.063.858-.189s.086-.503-.258-.629l-19.038-8.05 19.038-8.05c.344-.126.429-.441.258-.629 0-.189-.258-.252-.515-.252"/>
      <path fill="url(#bH)" d="M507.07 411.146c-.086 0-.258 0-.343.063l-20.926 8.868 20.926 8.868c.343.126.686.063.857-.189.172-.251.086-.503-.257-.629l-19.039-8.05 19.039-8.05c.343-.126.429-.441.257-.629-.085-.189-.343-.252-.514-.252"/>
      <path fill="url(#bI)" d="M527.052 419.574c-.086 0-.257 0-.343.063l-20.926 8.868 20.926 8.868c.343.125.686.063.858-.189s.085-.503-.258-.629l-19.039-8.05 19.039-8.051c.343-.125.429-.44.258-.628-.086-.126-.344-.252-.515-.252"/>
      <path fill="url(#bJ)" d="M407.072 368.82c-.086 0-.257 0-.343.063L75.261 509.888c-.343.125-.429.44-.257.629.171.251.6.314.857.188L407.33 369.7c.343-.126.429-.44.258-.629-.086-.188-.344-.251-.515-.251m0 16.918c-.086 0-.257 0-.343.063L75.261 526.806c-.343.125-.429.44-.257.629.171.251.6.314.857.188L407.33 386.618c.343-.126.429-.44.258-.629-.086-.188-.344-.251-.515-.251m0 16.918c-.086 0-.257 0-.343.063L75.261 543.724c-.343.126-.429.44-.257.629.171.251.6.314.857.188L407.33 403.536c.343-.125.429-.44.258-.629-.086-.188-.344-.251-.515-.251m0 16.918c-.086 0-.257 0-.343.063L75.261 560.642c-.343.126-.429.44-.257.629.171.251.6.314.857.189L407.33 420.454c.343-.125.429-.44.258-.629-.086-.125-.344-.251-.515-.251m0 16.981c-.086 0-.257 0-.343.063L75.261 577.56c-.343.126-.429.44-.257.629.171.251.6.314.857.189L407.33 437.373c.343-.126.429-.441.258-.629-.086-.126-.344-.189-.515-.189m0 16.918c-.086 0-.257 0-.343.063L75.261 594.541c-.343.126-.429.44-.257.629.171.251.6.314.857.189L407.33 454.353c.343-.125.429-.44.258-.628-.086-.189-.344-.252-.515-.252m0 16.918c-.086 0-.257 0-.343.063L75.261 611.459c-.343.126-.429.44-.257.629.171.252.6.314.857.189l331.554-141.005c.343-.126.429-.441.257-.629a.84.84 0 0 0-.6-.252m0 16.918c-.086 0-.257 0-.343.063L75.261 628.377c-.343.126-.429.44-.257.629.171.252.6.315.857.189L407.33 488.19c.343-.126.429-.441.258-.629-.086-.126-.344-.252-.515-.252m0 16.918c-.086 0-.257 0-.343.063L75.261 645.295c-.343.126-.429.441-.257.629.171.252.6.315.857.189L407.33 505.108c.343-.126.429-.44.258-.629-.086-.126-.344-.252-.515-.252m0 16.981c-.086 0-.257 0-.343.063L75.261 662.276c-.343.126-.429.441-.257.629.171.252.6.315.857.189L407.33 522.089c.343-.126.429-.44.258-.629-.086-.189-.344-.252-.515-.252m0 16.918c-.086 0-.257 0-.343.063L75.261 679.194c-.343.126-.429.441-.257.629.171.252.6.315.857.189L407.33 539.007c.343-.126.429-.44.258-.629-.086-.189-.344-.252-.515-.252m0 16.918c-.086 0-.257 0-.343.063L75.261 696.112c-.343.126-.429.441-.257.629.171.252.6.315.857.189L407.33 555.925c.343-.126.429-.44.258-.629-.086-.189-.344-.252-.515-.252m0 16.919c-.086 0-.257 0-.343.062L75.261 713.031c-.343.125-.429.44-.257.628.171.252.6.315.857.189L407.33 572.843c.343-.126.429-.44.258-.629-.086-.126-.344-.251-.515-.251m0 16.981c-.086 0-.257 0-.343.062L75.261 729.949c-.343.125-.429.44-.257.629.171.251.6.314.857.188L407.33 589.761c.343-.126.429-.44.258-.629-.086-.126-.344-.188-.515-.188m0 16.918c-.086 0-.257 0-.343.063L75.261 746.867c-.343.126-.429.44-.257.629.171.251.6.314.857.188L407.33 606.679c.343-.126.429-.44.258-.629-.086-.125-.344-.188-.515-.188m19.982 8.427c-.085 0-.257 0-.343.063L98.331 754.036c-.343.126-.429.441-.258.629.172.252.6.315.858.189L427.312 615.17c.343-.126.428-.441.257-.629a.6.6 0 0 0-.515-.252m19.983 8.491c-.086 0-.258 0-.343.063l-96.911 41.006c-.343.125-.429.44-.257.629.171.251.6.314.858.188l96.91-41.006c.343-.126.429-.44.257-.629-.086-.188-.257-.251-.514-.251m19.982 8.49c-.086 0-.257 0-.343.063l-76.842 32.578c-.343.126-.429.441-.257.629.171.252.6.315.857.189l76.842-32.578c.343-.126.429-.441.258-.629-.086-.189-.258-.252-.515-.252m19.982 8.428c-.085 0-.257 0-.342.063l-56.86 24.088c-.343.125-.429.44-.258.629.172.251.601.314.858.188l56.86-24.088c.343-.125.429-.44.257-.629 0-.125-.257-.251-.515-.251m20.069 8.49c-.086 0-.258 0-.343.063l-36.878 15.598c-.343.125-.429.44-.257.629.171.251.6.314.857.188l36.878-15.597c.343-.126.429-.44.257-.629-.086-.189-.343-.252-.514-.252m19.982 8.428c-.086 0-.257 0-.343.063l-16.895 7.17c-.343.125-.429.44-.257.629.171.251.6.314.857.188l16.895-7.17c.343-.125.429-.44.258-.628-.086-.126-.343-.252-.515-.252"/>
      <path fill="url(#bK)" d="M606.981 64.042c-.085 0-.257 0-.343.063l-199.995 84.653c-.343.126-.429.44-.257.629.171.252.6.315.857.189l199.996-84.654c.343-.125.428-.44.257-.629 0-.188-.257-.251-.515-.251m0 16.918c-.085 0-.257 0-.343.063l-199.995 84.653c-.343.126-.429.441-.257.629.171.252.6.315.857.189l199.996-84.653c.343-.126.428-.44.257-.63 0-.188-.257-.251-.515-.251m0 16.918c-.085 0-.257 0-.343.063l-199.909 84.653c-.343.126-.429.441-.258.629.172.252.601.315.858.189l199.995-84.653c.343-.126.429-.44.258-.63-.086-.125-.343-.25-.601-.25m0 16.918c-.085 0-.257 0-.343.063l-199.909 84.716c-.343.126-.429.441-.258.629.172.252.601.315.858.189l199.995-84.653c.343-.126.429-.441.258-.629-.086-.189-.343-.315-.601-.315m0 16.981c-.085 0-.257 0-.343.063l-199.995 84.654c-.343.125-.429.44-.257.628.171.252.6.315.857.189l199.996-84.653c.343-.126.428-.441.257-.629 0-.189-.257-.252-.515-.252m0 16.918c-.085 0-.257 0-.343.063l-199.995 84.654c-.343.125-.429.44-.257.629.171.251.6.314.857.188l199.996-84.653c.343-.126.428-.44.257-.629 0-.189-.257-.252-.515-.252m0 16.918c-.085 0-.257 0-.343.063L406.643 250.33c-.343.125-.429.44-.257.629.171.251.6.314.857.188l199.996-84.653c.343-.126.428-.44.257-.629 0-.189-.257-.252-.515-.252m0 16.919c-.085 0-.257 0-.343.062l-199.995 84.654c-.343.126-.429.44-.257.629.171.251.6.314.857.188l199.996-84.653c.343-.126.428-.44.257-.629 0-.126-.257-.251-.515-.251m0 16.918c-.085 0-.257 0-.343.063l-199.995 84.653c-.343.126-.429.44-.257.629.171.251.6.314.857.189l199.996-84.654c.343-.126.428-.44.257-.629 0-.126-.257-.251-.515-.251m0 16.981c-.085 0-.257 0-.343.063l-199.995 84.653c-.343.126-.429.44-.257.629.171.251.6.314.857.188l199.996-84.653c.343-.126.428-.44.257-.629 0-.188-.257-.251-.515-.251m0 16.918c-.085 0-.257 0-.343.063l-199.995 84.653c-.343.126-.429.44-.257.629.171.252.6.314.857.189l199.996-84.654c.343-.126.428-.44.257-.629 0-.188-.257-.251-.515-.251m0 16.918c-.085 0-.257 0-.343.063l-199.995 84.653c-.343.126-.429.44-.257.629.171.252.6.314.857.189l200.081-84.654c.343-.125.429-.44.258-.629-.086-.188-.343-.251-.601-.251m0 16.918c-.085 0-.257 0-.343.063l-199.995 84.653c-.343.126-.429.44-.257.629.171.252.6.315.857.189l199.996-84.654c.343-.125.428-.44.257-.629 0-.125-.257-.251-.515-.251m0 16.981c-.085 0-.257 0-.343.063l-199.995 84.653c-.343.126-.429.44-.257.629.171.252.6.315.857.189l199.996-84.654c.343-.125.428-.44.257-.629 0-.188-.257-.251-.515-.251"/>
    </g>
  </g>
  <defs>
    <linearGradient id="b" x1="586.315" x2="607.583" y1="661.333" y2="661.333" gradientUnits="userSpaceOnUse">
      <stop offset=".137" stop-color="#BDBEC2" stop-opacity="0"/>
      <stop offset=".886" stop-color="#BDBEC2" stop-opacity=".8"/>
    </linearGradient>
    <linearGradient id="c" x1="585.714" x2="607.583" y1="648.628" y2="648.628" gradientUnits="userSpaceOnUse">
      <stop offset=".137" stop-color="#BDBEC2" stop-opacity="0"/>
      <stop offset=".886" stop-color="#BDBEC2" stop-opacity=".8"/>
    </linearGradient>
    <linearGradient id="d" x1="585.714" x2="607.583" y1="631.71" y2="631.71" gradientUnits="userSpaceOnUse">
      <stop offset=".137" stop-color="#BDBEC2" stop-opacity="0"/>
      <stop offset=".886" stop-color="#BDBEC2" stop-opacity=".8"/>
    </linearGradient>
    <linearGradient id="e" x1="585.714" x2="607.583" y1="614.792" y2="614.792" gradientUnits="userSpaceOnUse">
      <stop offset=".137" stop-color="#BDBEC2" stop-opacity="0"/>
      <stop offset=".886" stop-color="#BDBEC2" stop-opacity=".8"/>
    </linearGradient>
    <linearGradient id="f" x1="585.714" x2="607.583" y1="597.873" y2="597.873" gradientUnits="userSpaceOnUse">
      <stop offset=".137" stop-color="#BDBEC2" stop-opacity="0"/>
      <stop offset=".886" stop-color="#BDBEC2" stop-opacity=".8"/>
    </linearGradient>
    <linearGradient id="g" x1="585.714" x2="607.583" y1="580.893" y2="580.893" gradientUnits="userSpaceOnUse">
      <stop offset=".137" stop-color="#BDBEC2" stop-opacity="0"/>
      <stop offset=".886" stop-color="#BDBEC2" stop-opacity=".8"/>
    </linearGradient>
    <linearGradient id="h" x1="585.714" x2="607.583" y1="563.975" y2="563.975" gradientUnits="userSpaceOnUse">
      <stop offset=".137" stop-color="#BDBEC2" stop-opacity="0"/>
      <stop offset=".886" stop-color="#BDBEC2" stop-opacity=".8"/>
    </linearGradient>
    <linearGradient id="i" x1="585.714" x2="607.583" y1="547.057" y2="547.057" gradientUnits="userSpaceOnUse">
      <stop offset=".137" stop-color="#BDBEC2" stop-opacity="0"/>
      <stop offset=".886" stop-color="#BDBEC2" stop-opacity=".8"/>
    </linearGradient>
    <linearGradient id="j" x1="585.714" x2="607.583" y1="530.139" y2="530.139" gradientUnits="userSpaceOnUse">
      <stop offset=".137" stop-color="#BDBEC2" stop-opacity="0"/>
      <stop offset=".886" stop-color="#BDBEC2" stop-opacity=".8"/>
    </linearGradient>
    <linearGradient id="k" x1="585.714" x2="607.583" y1="513.158" y2="513.158" gradientUnits="userSpaceOnUse">
      <stop offset=".137" stop-color="#BDBEC2" stop-opacity="0"/>
      <stop offset=".886" stop-color="#BDBEC2" stop-opacity=".8"/>
    </linearGradient>
    <linearGradient id="l" x1="585.714" x2="607.583" y1="496.24" y2="496.24" gradientUnits="userSpaceOnUse">
      <stop offset=".137" stop-color="#BDBEC2" stop-opacity="0"/>
      <stop offset=".886" stop-color="#BDBEC2" stop-opacity=".8"/>
    </linearGradient>
    <linearGradient id="m" x1="585.714" x2="607.583" y1="479.322" y2="479.322" gradientUnits="userSpaceOnUse">
      <stop offset=".137" stop-color="#BDBEC2" stop-opacity="0"/>
      <stop offset=".886" stop-color="#BDBEC2" stop-opacity=".8"/>
    </linearGradient>
    <linearGradient id="n" x1="585.714" x2="607.583" y1="462.403" y2="462.403" gradientUnits="userSpaceOnUse">
      <stop offset=".137" stop-color="#BDBEC2" stop-opacity="0"/>
      <stop offset=".886" stop-color="#BDBEC2" stop-opacity=".8"/>
    </linearGradient>
    <linearGradient id="o" x1="565.732" x2="587.601" y1="657.119" y2="657.119" gradientUnits="userSpaceOnUse">
      <stop offset=".137" stop-color="#BDBEC2" stop-opacity="0"/>
      <stop offset=".886" stop-color="#BDBEC2" stop-opacity=".8"/>
    </linearGradient>
    <linearGradient id="p" x1="565.732" x2="587.601" y1="640.201" y2="640.201" gradientUnits="userSpaceOnUse">
      <stop offset=".137" stop-color="#BDBEC2" stop-opacity="0"/>
      <stop offset=".886" stop-color="#BDBEC2" stop-opacity=".8"/>
    </linearGradient>
    <linearGradient id="q" x1="565.732" x2="587.601" y1="623.219" y2="623.219" gradientUnits="userSpaceOnUse">
      <stop offset=".137" stop-color="#BDBEC2" stop-opacity="0"/>
      <stop offset=".886" stop-color="#BDBEC2" stop-opacity=".8"/>
    </linearGradient>
    <linearGradient id="r" x1="565.732" x2="587.601" y1="606.301" y2="606.301" gradientUnits="userSpaceOnUse">
      <stop offset=".137" stop-color="#BDBEC2" stop-opacity="0"/>
      <stop offset=".886" stop-color="#BDBEC2" stop-opacity=".8"/>
    </linearGradient>
    <linearGradient id="s" x1="565.732" x2="587.601" y1="589.383" y2="589.383" gradientUnits="userSpaceOnUse">
      <stop offset=".137" stop-color="#BDBEC2" stop-opacity="0"/>
      <stop offset=".886" stop-color="#BDBEC2" stop-opacity=".8"/>
    </linearGradient>
    <linearGradient id="t" x1="565.732" x2="587.601" y1="572.465" y2="572.465" gradientUnits="userSpaceOnUse">
      <stop offset=".137" stop-color="#BDBEC2" stop-opacity="0"/>
      <stop offset=".886" stop-color="#BDBEC2" stop-opacity=".8"/>
    </linearGradient>
    <linearGradient id="u" x1="565.732" x2="587.687" y1="555.516" y2="555.516" gradientUnits="userSpaceOnUse">
      <stop offset=".137" stop-color="#BDBEC2" stop-opacity="0"/>
      <stop offset=".886" stop-color="#BDBEC2" stop-opacity=".8"/>
    </linearGradient>
    <linearGradient id="v" x1="565.732" x2="587.687" y1="538.566" y2="538.566" gradientUnits="userSpaceOnUse">
      <stop offset=".137" stop-color="#BDBEC2" stop-opacity="0"/>
      <stop offset=".886" stop-color="#BDBEC2" stop-opacity=".8"/>
    </linearGradient>
    <linearGradient id="w" x1="565.732" x2="587.601" y1="521.648" y2="521.648" gradientUnits="userSpaceOnUse">
      <stop offset=".137" stop-color="#BDBEC2" stop-opacity="0"/>
      <stop offset=".886" stop-color="#BDBEC2" stop-opacity=".8"/>
    </linearGradient>
    <linearGradient id="x" x1="565.732" x2="587.601" y1="504.73" y2="504.73" gradientUnits="userSpaceOnUse">
      <stop offset=".137" stop-color="#BDBEC2" stop-opacity="0"/>
      <stop offset=".886" stop-color="#BDBEC2" stop-opacity=".8"/>
    </linearGradient>
    <linearGradient id="y" x1="565.732" x2="587.601" y1="487.812" y2="487.812" gradientUnits="userSpaceOnUse">
      <stop offset=".137" stop-color="#BDBEC2" stop-opacity="0"/>
      <stop offset=".886" stop-color="#BDBEC2" stop-opacity=".8"/>
    </linearGradient>
    <linearGradient id="z" x1="565.732" x2="587.601" y1="470.831" y2="470.831" gradientUnits="userSpaceOnUse">
      <stop offset=".137" stop-color="#BDBEC2" stop-opacity="0"/>
      <stop offset=".886" stop-color="#BDBEC2" stop-opacity=".8"/>
    </linearGradient>
    <linearGradient id="A" x1="565.732" x2="587.601" y1="453.913" y2="453.913" gradientUnits="userSpaceOnUse">
      <stop offset=".137" stop-color="#BDBEC2" stop-opacity="0"/>
      <stop offset=".886" stop-color="#BDBEC2" stop-opacity=".8"/>
    </linearGradient>
    <linearGradient id="B" x1="546.349" x2="567.618" y1="661.326" y2="661.326" gradientUnits="userSpaceOnUse">
      <stop offset=".137" stop-color="#BDBEC2" stop-opacity="0"/>
      <stop offset=".886" stop-color="#BDBEC2" stop-opacity=".8"/>
    </linearGradient>
    <linearGradient id="C" x1="545.749" x2="567.619" y1="648.628" y2="648.628" gradientUnits="userSpaceOnUse">
      <stop offset=".137" stop-color="#BDBEC2" stop-opacity="0"/>
      <stop offset=".886" stop-color="#BDBEC2" stop-opacity=".8"/>
    </linearGradient>
    <linearGradient id="D" x1="545.749" x2="567.619" y1="631.71" y2="631.71" gradientUnits="userSpaceOnUse">
      <stop offset=".137" stop-color="#BDBEC2" stop-opacity="0"/>
      <stop offset=".886" stop-color="#BDBEC2" stop-opacity=".8"/>
    </linearGradient>
    <linearGradient id="E" x1="545.749" x2="567.619" y1="614.792" y2="614.792" gradientUnits="userSpaceOnUse">
      <stop offset=".137" stop-color="#BDBEC2" stop-opacity="0"/>
      <stop offset=".886" stop-color="#BDBEC2" stop-opacity=".8"/>
    </linearGradient>
    <linearGradient id="F" x1="545.749" x2="567.619" y1="597.873" y2="597.873" gradientUnits="userSpaceOnUse">
      <stop offset=".137" stop-color="#BDBEC2" stop-opacity="0"/>
      <stop offset=".886" stop-color="#BDBEC2" stop-opacity=".8"/>
    </linearGradient>
    <linearGradient id="G" x1="545.749" x2="567.619" y1="580.893" y2="580.893" gradientUnits="userSpaceOnUse">
      <stop offset=".137" stop-color="#BDBEC2" stop-opacity="0"/>
      <stop offset=".886" stop-color="#BDBEC2" stop-opacity=".8"/>
    </linearGradient>
    <linearGradient id="H" x1="545.749" x2="567.619" y1="563.975" y2="563.975" gradientUnits="userSpaceOnUse">
      <stop offset=".137" stop-color="#BDBEC2" stop-opacity="0"/>
      <stop offset=".886" stop-color="#BDBEC2" stop-opacity=".8"/>
    </linearGradient>
    <linearGradient id="I" x1="545.749" x2="567.619" y1="547.057" y2="547.057" gradientUnits="userSpaceOnUse">
      <stop offset=".137" stop-color="#BDBEC2" stop-opacity="0"/>
      <stop offset=".886" stop-color="#BDBEC2" stop-opacity=".8"/>
    </linearGradient>
    <linearGradient id="J" x1="545.749" x2="567.619" y1="530.139" y2="530.139" gradientUnits="userSpaceOnUse">
      <stop offset=".137" stop-color="#BDBEC2" stop-opacity="0"/>
      <stop offset=".886" stop-color="#BDBEC2" stop-opacity=".8"/>
    </linearGradient>
    <linearGradient id="K" x1="545.749" x2="567.619" y1="513.158" y2="513.158" gradientUnits="userSpaceOnUse">
      <stop offset=".137" stop-color="#BDBEC2" stop-opacity="0"/>
      <stop offset=".886" stop-color="#BDBEC2" stop-opacity=".8"/>
    </linearGradient>
    <linearGradient id="L" x1="545.749" x2="567.619" y1="496.24" y2="496.24" gradientUnits="userSpaceOnUse">
      <stop offset=".137" stop-color="#BDBEC2" stop-opacity="0"/>
      <stop offset=".886" stop-color="#BDBEC2" stop-opacity=".8"/>
    </linearGradient>
    <linearGradient id="M" x1="545.749" x2="567.619" y1="479.322" y2="479.322" gradientUnits="userSpaceOnUse">
      <stop offset=".137" stop-color="#BDBEC2" stop-opacity="0"/>
      <stop offset=".886" stop-color="#BDBEC2" stop-opacity=".8"/>
    </linearGradient>
    <linearGradient id="N" x1="545.749" x2="567.619" y1="462.403" y2="462.403" gradientUnits="userSpaceOnUse">
      <stop offset=".137" stop-color="#BDBEC2" stop-opacity="0"/>
      <stop offset=".886" stop-color="#BDBEC2" stop-opacity=".8"/>
    </linearGradient>
    <linearGradient id="O" x1="545.749" x2="567.619" y1="445.485" y2="445.485" gradientUnits="userSpaceOnUse">
      <stop offset=".137" stop-color="#BDBEC2" stop-opacity="0"/>
      <stop offset=".886" stop-color="#BDBEC2" stop-opacity=".8"/>
    </linearGradient>
    <linearGradient id="P" x1="525.767" x2="547.636" y1="657.119" y2="657.119" gradientUnits="userSpaceOnUse">
      <stop offset=".137" stop-color="#BDBEC2" stop-opacity="0"/>
      <stop offset=".886" stop-color="#BDBEC2" stop-opacity=".8"/>
    </linearGradient>
    <linearGradient id="Q" x1="525.767" x2="547.636" y1="640.201" y2="640.201" gradientUnits="userSpaceOnUse">
      <stop offset=".137" stop-color="#BDBEC2" stop-opacity="0"/>
      <stop offset=".886" stop-color="#BDBEC2" stop-opacity=".8"/>
    </linearGradient>
    <linearGradient id="R" x1="525.767" x2="547.636" y1="623.219" y2="623.219" gradientUnits="userSpaceOnUse">
      <stop offset=".137" stop-color="#BDBEC2" stop-opacity="0"/>
      <stop offset=".886" stop-color="#BDBEC2" stop-opacity=".8"/>
    </linearGradient>
    <linearGradient id="S" x1="525.767" x2="547.636" y1="606.301" y2="606.301" gradientUnits="userSpaceOnUse">
      <stop offset=".137" stop-color="#BDBEC2" stop-opacity="0"/>
      <stop offset=".886" stop-color="#BDBEC2" stop-opacity=".8"/>
    </linearGradient>
    <linearGradient id="T" x1="525.767" x2="547.636" y1="589.383" y2="589.383" gradientUnits="userSpaceOnUse">
      <stop offset=".137" stop-color="#BDBEC2" stop-opacity="0"/>
      <stop offset=".886" stop-color="#BDBEC2" stop-opacity=".8"/>
    </linearGradient>
    <linearGradient id="U" x1="525.767" x2="547.636" y1="572.465" y2="572.465" gradientUnits="userSpaceOnUse">
      <stop offset=".137" stop-color="#BDBEC2" stop-opacity="0"/>
      <stop offset=".886" stop-color="#BDBEC2" stop-opacity=".8"/>
    </linearGradient>
    <linearGradient id="V" x1="525.767" x2="547.636" y1="555.484" y2="555.484" gradientUnits="userSpaceOnUse">
      <stop offset=".137" stop-color="#BDBEC2" stop-opacity="0"/>
      <stop offset=".886" stop-color="#BDBEC2" stop-opacity=".8"/>
    </linearGradient>
    <linearGradient id="W" x1="525.767" x2="547.636" y1="538.566" y2="538.566" gradientUnits="userSpaceOnUse">
      <stop offset=".137" stop-color="#BDBEC2" stop-opacity="0"/>
      <stop offset=".886" stop-color="#BDBEC2" stop-opacity=".8"/>
    </linearGradient>
    <linearGradient id="X" x1="525.767" x2="547.636" y1="521.648" y2="521.648" gradientUnits="userSpaceOnUse">
      <stop offset=".137" stop-color="#BDBEC2" stop-opacity="0"/>
      <stop offset=".886" stop-color="#BDBEC2" stop-opacity=".8"/>
    </linearGradient>
    <linearGradient id="Y" x1="525.767" x2="547.636" y1="504.73" y2="504.73" gradientUnits="userSpaceOnUse">
      <stop offset=".137" stop-color="#BDBEC2" stop-opacity="0"/>
      <stop offset=".886" stop-color="#BDBEC2" stop-opacity=".8"/>
    </linearGradient>
    <linearGradient id="Z" x1="525.767" x2="547.636" y1="487.812" y2="487.812" gradientUnits="userSpaceOnUse">
      <stop offset=".137" stop-color="#BDBEC2" stop-opacity="0"/>
      <stop offset=".886" stop-color="#BDBEC2" stop-opacity=".8"/>
    </linearGradient>
    <linearGradient id="aa" x1="525.767" x2="547.636" y1="470.831" y2="470.831" gradientUnits="userSpaceOnUse">
      <stop offset=".137" stop-color="#BDBEC2" stop-opacity="0"/>
      <stop offset=".886" stop-color="#BDBEC2" stop-opacity=".8"/>
    </linearGradient>
    <linearGradient id="ab" x1="525.767" x2="547.636" y1="453.913" y2="453.913" gradientUnits="userSpaceOnUse">
      <stop offset=".137" stop-color="#BDBEC2" stop-opacity="0"/>
      <stop offset=".886" stop-color="#BDBEC2" stop-opacity=".8"/>
    </linearGradient>
    <linearGradient id="ac" x1="525.767" x2="547.636" y1="436.995" y2="436.995" gradientUnits="userSpaceOnUse">
      <stop offset=".137" stop-color="#BDBEC2" stop-opacity="0"/>
      <stop offset=".886" stop-color="#BDBEC2" stop-opacity=".8"/>
    </linearGradient>
    <linearGradient id="ad" x1="505.785" x2="527.654" y1="648.628" y2="648.628" gradientUnits="userSpaceOnUse">
      <stop offset=".137" stop-color="#BDBEC2" stop-opacity="0"/>
      <stop offset=".886" stop-color="#BDBEC2" stop-opacity=".8"/>
    </linearGradient>
    <linearGradient id="ae" x1="505.785" x2="527.654" y1="631.71" y2="631.71" gradientUnits="userSpaceOnUse">
      <stop offset=".137" stop-color="#BDBEC2" stop-opacity="0"/>
      <stop offset=".886" stop-color="#BDBEC2" stop-opacity=".8"/>
    </linearGradient>
    <linearGradient id="af" x1="505.785" x2="527.654" y1="614.792" y2="614.792" gradientUnits="userSpaceOnUse">
      <stop offset=".137" stop-color="#BDBEC2" stop-opacity="0"/>
      <stop offset=".886" stop-color="#BDBEC2" stop-opacity=".8"/>
    </linearGradient>
    <linearGradient id="ag" x1="505.785" x2="527.654" y1="597.873" y2="597.873" gradientUnits="userSpaceOnUse">
      <stop offset=".137" stop-color="#BDBEC2" stop-opacity="0"/>
      <stop offset=".886" stop-color="#BDBEC2" stop-opacity=".8"/>
    </linearGradient>
    <linearGradient id="ah" x1="505.785" x2="527.654" y1="580.893" y2="580.893" gradientUnits="userSpaceOnUse">
      <stop offset=".137" stop-color="#BDBEC2" stop-opacity="0"/>
      <stop offset=".886" stop-color="#BDBEC2" stop-opacity=".8"/>
    </linearGradient>
    <linearGradient id="ai" x1="505.785" x2="527.654" y1="563.975" y2="563.975" gradientUnits="userSpaceOnUse">
      <stop offset=".137" stop-color="#BDBEC2" stop-opacity="0"/>
      <stop offset=".886" stop-color="#BDBEC2" stop-opacity=".8"/>
    </linearGradient>
    <linearGradient id="aj" x1="505.785" x2="527.654" y1="547.057" y2="547.057" gradientUnits="userSpaceOnUse">
      <stop offset=".137" stop-color="#BDBEC2" stop-opacity="0"/>
      <stop offset=".886" stop-color="#BDBEC2" stop-opacity=".8"/>
    </linearGradient>
    <linearGradient id="ak" x1="505.785" x2="527.654" y1="530.139" y2="530.139" gradientUnits="userSpaceOnUse">
      <stop offset=".137" stop-color="#BDBEC2" stop-opacity="0"/>
      <stop offset=".886" stop-color="#BDBEC2" stop-opacity=".8"/>
    </linearGradient>
    <linearGradient id="al" x1="505.785" x2="527.654" y1="513.158" y2="513.158" gradientUnits="userSpaceOnUse">
      <stop offset=".137" stop-color="#BDBEC2" stop-opacity="0"/>
      <stop offset=".886" stop-color="#BDBEC2" stop-opacity=".8"/>
    </linearGradient>
    <linearGradient id="am" x1="505.785" x2="527.654" y1="496.24" y2="496.24" gradientUnits="userSpaceOnUse">
      <stop offset=".137" stop-color="#BDBEC2" stop-opacity="0"/>
      <stop offset=".886" stop-color="#BDBEC2" stop-opacity=".8"/>
    </linearGradient>
    <linearGradient id="an" x1="505.785" x2="527.654" y1="479.322" y2="479.322" gradientUnits="userSpaceOnUse">
      <stop offset=".137" stop-color="#BDBEC2" stop-opacity="0"/>
      <stop offset=".886" stop-color="#BDBEC2" stop-opacity=".8"/>
    </linearGradient>
    <linearGradient id="ao" x1="505.785" x2="527.654" y1="462.403" y2="462.403" gradientUnits="userSpaceOnUse">
      <stop offset=".137" stop-color="#BDBEC2" stop-opacity="0"/>
      <stop offset=".886" stop-color="#BDBEC2" stop-opacity=".8"/>
    </linearGradient>
    <linearGradient id="ap" x1="505.785" x2="527.654" y1="445.485" y2="445.485" gradientUnits="userSpaceOnUse">
      <stop offset=".137" stop-color="#BDBEC2" stop-opacity="0"/>
      <stop offset=".886" stop-color="#BDBEC2" stop-opacity=".8"/>
    </linearGradient>
    <linearGradient id="aq" x1="485.802" x2="507.671" y1="640.201" y2="640.201" gradientUnits="userSpaceOnUse">
      <stop offset=".137" stop-color="#BDBEC2" stop-opacity="0"/>
      <stop offset=".886" stop-color="#BDBEC2" stop-opacity=".8"/>
    </linearGradient>
    <linearGradient id="ar" x1="485.802" x2="507.671" y1="623.219" y2="623.219" gradientUnits="userSpaceOnUse">
      <stop offset=".137" stop-color="#BDBEC2" stop-opacity="0"/>
      <stop offset=".886" stop-color="#BDBEC2" stop-opacity=".8"/>
    </linearGradient>
    <linearGradient id="as" x1="485.802" x2="507.671" y1="606.301" y2="606.301" gradientUnits="userSpaceOnUse">
      <stop offset=".137" stop-color="#BDBEC2" stop-opacity="0"/>
      <stop offset=".886" stop-color="#BDBEC2" stop-opacity=".8"/>
    </linearGradient>
    <linearGradient id="at" x1="485.802" x2="507.671" y1="589.383" y2="589.383" gradientUnits="userSpaceOnUse">
      <stop offset=".137" stop-color="#BDBEC2" stop-opacity="0"/>
      <stop offset=".886" stop-color="#BDBEC2" stop-opacity=".8"/>
    </linearGradient>
    <linearGradient id="au" x1="485.802" x2="507.671" y1="572.465" y2="572.465" gradientUnits="userSpaceOnUse">
      <stop offset=".137" stop-color="#BDBEC2" stop-opacity="0"/>
      <stop offset=".886" stop-color="#BDBEC2" stop-opacity=".8"/>
    </linearGradient>
    <linearGradient id="av" x1="485.802" x2="507.671" y1="555.484" y2="555.484" gradientUnits="userSpaceOnUse">
      <stop offset=".137" stop-color="#BDBEC2" stop-opacity="0"/>
      <stop offset=".886" stop-color="#BDBEC2" stop-opacity=".8"/>
    </linearGradient>
    <linearGradient id="aw" x1="485.802" x2="507.671" y1="538.566" y2="538.566" gradientUnits="userSpaceOnUse">
      <stop offset=".137" stop-color="#BDBEC2" stop-opacity="0"/>
      <stop offset=".886" stop-color="#BDBEC2" stop-opacity=".8"/>
    </linearGradient>
    <linearGradient id="ax" x1="485.802" x2="507.671" y1="521.648" y2="521.648" gradientUnits="userSpaceOnUse">
      <stop offset=".137" stop-color="#BDBEC2" stop-opacity="0"/>
      <stop offset=".886" stop-color="#BDBEC2" stop-opacity=".8"/>
    </linearGradient>
    <linearGradient id="ay" x1="485.802" x2="507.671" y1="504.73" y2="504.73" gradientUnits="userSpaceOnUse">
      <stop offset=".137" stop-color="#BDBEC2" stop-opacity="0"/>
      <stop offset=".886" stop-color="#BDBEC2" stop-opacity=".8"/>
    </linearGradient>
    <linearGradient id="az" x1="485.802" x2="507.671" y1="487.812" y2="487.812" gradientUnits="userSpaceOnUse">
      <stop offset=".137" stop-color="#BDBEC2" stop-opacity="0"/>
      <stop offset=".886" stop-color="#BDBEC2" stop-opacity=".8"/>
    </linearGradient>
    <linearGradient id="aA" x1="485.802" x2="507.671" y1="470.831" y2="470.831" gradientUnits="userSpaceOnUse">
      <stop offset=".137" stop-color="#BDBEC2" stop-opacity="0"/>
      <stop offset=".886" stop-color="#BDBEC2" stop-opacity=".8"/>
    </linearGradient>
    <linearGradient id="aB" x1="485.802" x2="507.671" y1="453.913" y2="453.913" gradientUnits="userSpaceOnUse">
      <stop offset=".137" stop-color="#BDBEC2" stop-opacity="0"/>
      <stop offset=".886" stop-color="#BDBEC2" stop-opacity=".8"/>
    </linearGradient>
    <linearGradient id="aC" x1="485.802" x2="507.671" y1="436.995" y2="436.995" gradientUnits="userSpaceOnUse">
      <stop offset=".137" stop-color="#BDBEC2" stop-opacity="0"/>
      <stop offset=".886" stop-color="#BDBEC2" stop-opacity=".8"/>
    </linearGradient>
    <linearGradient id="aD" x1="465.734" x2="487.603" y1="631.71" y2="631.71" gradientUnits="userSpaceOnUse">
      <stop offset=".137" stop-color="#BDBEC2" stop-opacity="0"/>
      <stop offset=".886" stop-color="#BDBEC2" stop-opacity=".8"/>
    </linearGradient>
    <linearGradient id="aE" x1="465.734" x2="487.603" y1="614.792" y2="614.792" gradientUnits="userSpaceOnUse">
      <stop offset=".137" stop-color="#BDBEC2" stop-opacity="0"/>
      <stop offset=".886" stop-color="#BDBEC2" stop-opacity=".8"/>
    </linearGradient>
    <linearGradient id="aF" x1="465.734" x2="487.603" y1="597.873" y2="597.873" gradientUnits="userSpaceOnUse">
      <stop offset=".137" stop-color="#BDBEC2" stop-opacity="0"/>
      <stop offset=".886" stop-color="#BDBEC2" stop-opacity=".8"/>
    </linearGradient>
    <linearGradient id="aG" x1="465.734" x2="487.603" y1="580.893" y2="580.893" gradientUnits="userSpaceOnUse">
      <stop offset=".137" stop-color="#BDBEC2" stop-opacity="0"/>
      <stop offset=".886" stop-color="#BDBEC2" stop-opacity=".8"/>
    </linearGradient>
    <linearGradient id="aH" x1="465.734" x2="487.603" y1="563.975" y2="563.975" gradientUnits="userSpaceOnUse">
      <stop offset=".137" stop-color="#BDBEC2" stop-opacity="0"/>
      <stop offset=".886" stop-color="#BDBEC2" stop-opacity=".8"/>
    </linearGradient>
    <linearGradient id="aI" x1="465.734" x2="487.603" y1="547.057" y2="547.057" gradientUnits="userSpaceOnUse">
      <stop offset=".137" stop-color="#BDBEC2" stop-opacity="0"/>
      <stop offset=".886" stop-color="#BDBEC2" stop-opacity=".8"/>
    </linearGradient>
    <linearGradient id="aJ" x1="465.734" x2="487.603" y1="530.139" y2="530.139" gradientUnits="userSpaceOnUse">
      <stop offset=".137" stop-color="#BDBEC2" stop-opacity="0"/>
      <stop offset=".886" stop-color="#BDBEC2" stop-opacity=".8"/>
    </linearGradient>
    <linearGradient id="aK" x1="465.734" x2="487.603" y1="513.158" y2="513.158" gradientUnits="userSpaceOnUse">
      <stop offset=".137" stop-color="#BDBEC2" stop-opacity="0"/>
      <stop offset=".886" stop-color="#BDBEC2" stop-opacity=".8"/>
    </linearGradient>
    <linearGradient id="aL" x1="465.734" x2="487.603" y1="496.24" y2="496.24" gradientUnits="userSpaceOnUse">
      <stop offset=".137" stop-color="#BDBEC2" stop-opacity="0"/>
      <stop offset=".886" stop-color="#BDBEC2" stop-opacity=".8"/>
    </linearGradient>
    <linearGradient id="aM" x1="465.734" x2="487.603" y1="479.322" y2="479.322" gradientUnits="userSpaceOnUse">
      <stop offset=".137" stop-color="#BDBEC2" stop-opacity="0"/>
      <stop offset=".886" stop-color="#BDBEC2" stop-opacity=".8"/>
    </linearGradient>
    <linearGradient id="aN" x1="465.734" x2="487.603" y1="462.403" y2="462.403" gradientUnits="userSpaceOnUse">
      <stop offset=".137" stop-color="#BDBEC2" stop-opacity="0"/>
      <stop offset=".886" stop-color="#BDBEC2" stop-opacity=".8"/>
    </linearGradient>
    <linearGradient id="aO" x1="465.734" x2="487.603" y1="445.485" y2="445.485" gradientUnits="userSpaceOnUse">
      <stop offset=".137" stop-color="#BDBEC2" stop-opacity="0"/>
      <stop offset=".886" stop-color="#BDBEC2" stop-opacity=".8"/>
    </linearGradient>
    <linearGradient id="aP" x1="445.752" x2="467.621" y1="623.219" y2="623.219" gradientUnits="userSpaceOnUse">
      <stop offset=".137" stop-color="#BDBEC2" stop-opacity="0"/>
      <stop offset=".886" stop-color="#BDBEC2" stop-opacity=".8"/>
    </linearGradient>
    <linearGradient id="aQ" x1="445.752" x2="467.621" y1="606.301" y2="606.301" gradientUnits="userSpaceOnUse">
      <stop offset=".137" stop-color="#BDBEC2" stop-opacity="0"/>
      <stop offset=".886" stop-color="#BDBEC2" stop-opacity=".8"/>
    </linearGradient>
    <linearGradient id="aR" x1="445.752" x2="467.621" y1="589.383" y2="589.383" gradientUnits="userSpaceOnUse">
      <stop offset=".137" stop-color="#BDBEC2" stop-opacity="0"/>
      <stop offset=".886" stop-color="#BDBEC2" stop-opacity=".8"/>
    </linearGradient>
    <linearGradient id="aS" x1="445.752" x2="467.621" y1="572.465" y2="572.465" gradientUnits="userSpaceOnUse">
      <stop offset=".137" stop-color="#BDBEC2" stop-opacity="0"/>
      <stop offset=".886" stop-color="#BDBEC2" stop-opacity=".8"/>
    </linearGradient>
    <linearGradient id="aT" x1="445.752" x2="467.621" y1="555.484" y2="555.484" gradientUnits="userSpaceOnUse">
      <stop offset=".137" stop-color="#BDBEC2" stop-opacity="0"/>
      <stop offset=".886" stop-color="#BDBEC2" stop-opacity=".8"/>
    </linearGradient>
    <linearGradient id="aU" x1="445.752" x2="467.621" y1="538.566" y2="538.566" gradientUnits="userSpaceOnUse">
      <stop offset=".137" stop-color="#BDBEC2" stop-opacity="0"/>
      <stop offset=".886" stop-color="#BDBEC2" stop-opacity=".8"/>
    </linearGradient>
    <linearGradient id="aV" x1="445.752" x2="467.621" y1="521.648" y2="521.648" gradientUnits="userSpaceOnUse">
      <stop offset=".137" stop-color="#BDBEC2" stop-opacity="0"/>
      <stop offset=".886" stop-color="#BDBEC2" stop-opacity=".8"/>
    </linearGradient>
    <linearGradient id="aW" x1="445.752" x2="467.621" y1="504.73" y2="504.73" gradientUnits="userSpaceOnUse">
      <stop offset=".137" stop-color="#BDBEC2" stop-opacity="0"/>
      <stop offset=".886" stop-color="#BDBEC2" stop-opacity=".8"/>
    </linearGradient>
    <linearGradient id="aX" x1="445.752" x2="467.621" y1="487.812" y2="487.812" gradientUnits="userSpaceOnUse">
      <stop offset=".137" stop-color="#BDBEC2" stop-opacity="0"/>
      <stop offset=".886" stop-color="#BDBEC2" stop-opacity=".8"/>
    </linearGradient>
    <linearGradient id="aY" x1="445.752" x2="467.621" y1="470.831" y2="470.831" gradientUnits="userSpaceOnUse">
      <stop offset=".137" stop-color="#BDBEC2" stop-opacity="0"/>
      <stop offset=".886" stop-color="#BDBEC2" stop-opacity=".8"/>
    </linearGradient>
    <linearGradient id="aZ" x1="445.752" x2="467.621" y1="453.913" y2="453.913" gradientUnits="userSpaceOnUse">
      <stop offset=".137" stop-color="#BDBEC2" stop-opacity="0"/>
      <stop offset=".886" stop-color="#BDBEC2" stop-opacity=".8"/>
    </linearGradient>
    <linearGradient id="ba" x1="445.752" x2="467.621" y1="436.995" y2="436.995" gradientUnits="userSpaceOnUse">
      <stop offset=".137" stop-color="#BDBEC2" stop-opacity="0"/>
      <stop offset=".886" stop-color="#BDBEC2" stop-opacity=".8"/>
    </linearGradient>
    <linearGradient id="bb" x1="425.769" x2="447.638" y1="614.792" y2="614.792" gradientUnits="userSpaceOnUse">
      <stop offset=".137" stop-color="#BDBEC2" stop-opacity="0"/>
      <stop offset=".886" stop-color="#BDBEC2" stop-opacity=".8"/>
    </linearGradient>
    <linearGradient id="bc" x1="425.769" x2="447.638" y1="597.873" y2="597.873" gradientUnits="userSpaceOnUse">
      <stop offset=".137" stop-color="#BDBEC2" stop-opacity="0"/>
      <stop offset=".886" stop-color="#BDBEC2" stop-opacity=".8"/>
    </linearGradient>
    <linearGradient id="bd" x1="425.769" x2="447.638" y1="580.893" y2="580.893" gradientUnits="userSpaceOnUse">
      <stop offset=".137" stop-color="#BDBEC2" stop-opacity="0"/>
      <stop offset=".886" stop-color="#BDBEC2" stop-opacity=".8"/>
    </linearGradient>
    <linearGradient id="be" x1="425.769" x2="447.638" y1="563.975" y2="563.975" gradientUnits="userSpaceOnUse">
      <stop offset=".137" stop-color="#BDBEC2" stop-opacity="0"/>
      <stop offset=".886" stop-color="#BDBEC2" stop-opacity=".8"/>
    </linearGradient>
    <linearGradient id="bf" x1="425.769" x2="447.638" y1="547.057" y2="547.057" gradientUnits="userSpaceOnUse">
      <stop offset=".137" stop-color="#BDBEC2" stop-opacity="0"/>
      <stop offset=".886" stop-color="#BDBEC2" stop-opacity=".8"/>
    </linearGradient>
    <linearGradient id="bg" x1="425.769" x2="447.638" y1="530.139" y2="530.139" gradientUnits="userSpaceOnUse">
      <stop offset=".137" stop-color="#BDBEC2" stop-opacity="0"/>
      <stop offset=".886" stop-color="#BDBEC2" stop-opacity=".8"/>
    </linearGradient>
    <linearGradient id="bh" x1="425.769" x2="447.638" y1="513.158" y2="513.158" gradientUnits="userSpaceOnUse">
      <stop offset=".137" stop-color="#BDBEC2" stop-opacity="0"/>
      <stop offset=".886" stop-color="#BDBEC2" stop-opacity=".8"/>
    </linearGradient>
    <linearGradient id="bi" x1="425.769" x2="447.638" y1="496.24" y2="496.24" gradientUnits="userSpaceOnUse">
      <stop offset=".137" stop-color="#BDBEC2" stop-opacity="0"/>
      <stop offset=".886" stop-color="#BDBEC2" stop-opacity=".8"/>
    </linearGradient>
    <linearGradient id="bj" x1="425.769" x2="447.724" y1="479.322" y2="479.322" gradientUnits="userSpaceOnUse">
      <stop offset=".137" stop-color="#BDBEC2" stop-opacity="0"/>
      <stop offset=".886" stop-color="#BDBEC2" stop-opacity=".8"/>
    </linearGradient>
    <linearGradient id="bk" x1="425.769" x2="447.638" y1="462.403" y2="462.403" gradientUnits="userSpaceOnUse">
      <stop offset=".137" stop-color="#BDBEC2" stop-opacity="0"/>
      <stop offset=".886" stop-color="#BDBEC2" stop-opacity=".8"/>
    </linearGradient>
    <linearGradient id="bl" x1="425.769" x2="447.638" y1="445.485" y2="445.485" gradientUnits="userSpaceOnUse">
      <stop offset=".137" stop-color="#BDBEC2" stop-opacity="0"/>
      <stop offset=".886" stop-color="#BDBEC2" stop-opacity=".8"/>
    </linearGradient>
    <linearGradient id="bm" x1="405.787" x2="427.656" y1="606.301" y2="606.301" gradientUnits="userSpaceOnUse">
      <stop offset=".137" stop-color="#BDBEC2" stop-opacity="0"/>
      <stop offset=".886" stop-color="#BDBEC2" stop-opacity=".8"/>
    </linearGradient>
    <linearGradient id="bn" x1="405.787" x2="427.656" y1="589.383" y2="589.383" gradientUnits="userSpaceOnUse">
      <stop offset=".137" stop-color="#BDBEC2" stop-opacity="0"/>
      <stop offset=".886" stop-color="#BDBEC2" stop-opacity=".8"/>
    </linearGradient>
    <linearGradient id="bo" x1="405.787" x2="427.656" y1="572.465" y2="572.465" gradientUnits="userSpaceOnUse">
      <stop offset=".137" stop-color="#BDBEC2" stop-opacity="0"/>
      <stop offset=".886" stop-color="#BDBEC2" stop-opacity=".8"/>
    </linearGradient>
    <linearGradient id="bp" x1="405.787" x2="427.656" y1="555.484" y2="555.484" gradientUnits="userSpaceOnUse">
      <stop offset=".137" stop-color="#BDBEC2" stop-opacity="0"/>
      <stop offset=".886" stop-color="#BDBEC2" stop-opacity=".8"/>
    </linearGradient>
    <linearGradient id="bq" x1="405.787" x2="427.656" y1="538.566" y2="538.566" gradientUnits="userSpaceOnUse">
      <stop offset=".137" stop-color="#BDBEC2" stop-opacity="0"/>
      <stop offset=".886" stop-color="#BDBEC2" stop-opacity=".8"/>
    </linearGradient>
    <linearGradient id="br" x1="405.787" x2="427.656" y1="521.648" y2="521.648" gradientUnits="userSpaceOnUse">
      <stop offset=".137" stop-color="#BDBEC2" stop-opacity="0"/>
      <stop offset=".886" stop-color="#BDBEC2" stop-opacity=".8"/>
    </linearGradient>
    <linearGradient id="bs" x1="405.787" x2="427.656" y1="504.73" y2="504.73" gradientUnits="userSpaceOnUse">
      <stop offset=".137" stop-color="#BDBEC2" stop-opacity="0"/>
      <stop offset=".886" stop-color="#BDBEC2" stop-opacity=".8"/>
    </linearGradient>
    <linearGradient id="bt" x1="405.787" x2="427.656" y1="487.812" y2="487.812" gradientUnits="userSpaceOnUse">
      <stop offset=".137" stop-color="#BDBEC2" stop-opacity="0"/>
      <stop offset=".886" stop-color="#BDBEC2" stop-opacity=".8"/>
    </linearGradient>
    <linearGradient id="bu" x1="405.787" x2="427.656" y1="470.831" y2="470.831" gradientUnits="userSpaceOnUse">
      <stop offset=".137" stop-color="#BDBEC2" stop-opacity="0"/>
      <stop offset=".886" stop-color="#BDBEC2" stop-opacity=".8"/>
    </linearGradient>
    <linearGradient id="bv" x1="405.787" x2="427.656" y1="453.913" y2="453.913" gradientUnits="userSpaceOnUse">
      <stop offset=".137" stop-color="#BDBEC2" stop-opacity="0"/>
      <stop offset=".886" stop-color="#BDBEC2" stop-opacity=".8"/>
    </linearGradient>
    <linearGradient id="bw" x1="405.787" x2="427.656" y1="436.995" y2="436.995" gradientUnits="userSpaceOnUse">
      <stop offset=".137" stop-color="#BDBEC2" stop-opacity="0"/>
      <stop offset=".886" stop-color="#BDBEC2" stop-opacity=".8"/>
    </linearGradient>
    <linearGradient id="bx" x1="425.769" x2="447.638" y1="428.504" y2="428.504" gradientUnits="userSpaceOnUse">
      <stop offset=".137" stop-color="#BDBEC2" stop-opacity="0"/>
      <stop offset=".886" stop-color="#BDBEC2" stop-opacity=".8"/>
    </linearGradient>
    <linearGradient id="by" x1="405.787" x2="427.656" y1="420.077" y2="420.077" gradientUnits="userSpaceOnUse">
      <stop offset=".137" stop-color="#BDBEC2" stop-opacity="0"/>
      <stop offset=".886" stop-color="#BDBEC2" stop-opacity=".8"/>
    </linearGradient>
    <linearGradient id="bz" x1="465.734" x2="487.603" y1="428.504" y2="428.504" gradientUnits="userSpaceOnUse">
      <stop offset=".137" stop-color="#BDBEC2" stop-opacity="0"/>
      <stop offset=".886" stop-color="#BDBEC2" stop-opacity=".8"/>
    </linearGradient>
    <linearGradient id="bA" x1="425.769" x2="447.638" y1="411.586" y2="411.586" gradientUnits="userSpaceOnUse">
      <stop offset=".137" stop-color="#BDBEC2" stop-opacity="0"/>
      <stop offset=".886" stop-color="#BDBEC2" stop-opacity=".8"/>
    </linearGradient>
    <linearGradient id="bB" x1="405.787" x2="427.656" y1="403.159" y2="403.159" gradientUnits="userSpaceOnUse">
      <stop offset=".137" stop-color="#BDBEC2" stop-opacity="0"/>
      <stop offset=".886" stop-color="#BDBEC2" stop-opacity=".8"/>
    </linearGradient>
    <linearGradient id="bC" x1="445.752" x2="467.621" y1="420.077" y2="420.077" gradientUnits="userSpaceOnUse">
      <stop offset=".137" stop-color="#BDBEC2" stop-opacity="0"/>
      <stop offset=".886" stop-color="#BDBEC2" stop-opacity=".8"/>
    </linearGradient>
    <linearGradient id="bD" x1="425.769" x2="447.638" y1="394.667" y2="394.667" gradientUnits="userSpaceOnUse">
      <stop offset=".137" stop-color="#BDBEC2" stop-opacity="0"/>
      <stop offset=".886" stop-color="#BDBEC2" stop-opacity=".8"/>
    </linearGradient>
    <linearGradient id="bE" x1="405.787" x2="427.656" y1="386.177" y2="386.177" gradientUnits="userSpaceOnUse">
      <stop offset=".137" stop-color="#BDBEC2" stop-opacity="0"/>
      <stop offset=".886" stop-color="#BDBEC2" stop-opacity=".8"/>
    </linearGradient>
    <linearGradient id="bF" x1="445.752" x2="467.621" y1="403.159" y2="403.159" gradientUnits="userSpaceOnUse">
      <stop offset=".137" stop-color="#BDBEC2" stop-opacity="0"/>
      <stop offset=".886" stop-color="#BDBEC2" stop-opacity=".8"/>
    </linearGradient>
    <linearGradient id="bG" x1="465.734" x2="487.603" y1="411.586" y2="411.586" gradientUnits="userSpaceOnUse">
      <stop offset=".137" stop-color="#BDBEC2" stop-opacity="0"/>
      <stop offset=".886" stop-color="#BDBEC2" stop-opacity=".8"/>
    </linearGradient>
    <linearGradient id="bH" x1="485.802" x2="507.671" y1="420.077" y2="420.077" gradientUnits="userSpaceOnUse">
      <stop offset=".137" stop-color="#BDBEC2" stop-opacity="0"/>
      <stop offset=".886" stop-color="#BDBEC2" stop-opacity=".8"/>
    </linearGradient>
    <linearGradient id="bI" x1="505.785" x2="527.654" y1="428.504" y2="428.504" gradientUnits="userSpaceOnUse">
      <stop offset=".137" stop-color="#BDBEC2" stop-opacity="0"/>
      <stop offset=".886" stop-color="#BDBEC2" stop-opacity=".8"/>
    </linearGradient>
    <linearGradient id="bJ" x1="74.947" x2="527.679" y1="561.858" y2="561.858" gradientUnits="userSpaceOnUse">
      <stop offset=".137" stop-color="#BDBEC2" stop-opacity="0"/>
      <stop offset=".886" stop-color="#BDBEC2" stop-opacity=".8"/>
    </linearGradient>
    <linearGradient id="bK" x1="507.04" x2="507.04" y1="64.025" y2="369.743" gradientUnits="userSpaceOnUse">
      <stop stop-color="#BDBEC2" stop-opacity=".5"/>
      <stop offset="1" stop-color="#BDBEC2"/>
    </linearGradient>
  </defs>
</svg>
