<svg xmlns="http://www.w3.org/2000/svg" width="72" height="72" fill="none" viewBox="0 0 72 72" xmlns:xlink="http://www.w3.org/1999/xlink">
  <path fill="#F0FAFF" d="M0 0h72v72H0z"/>
  <g stroke="#63D0FF" stroke-linecap="round" stroke-linejoin="round" stroke-width="1.5" clip-path="url(#a)">
    <path d="M32.5 35.25a2 2 0 0 1 2-2h11a2 2 0 0 1 2 2v6.5a2 2 0 0 1-2 2h-11a2 2 0 0 1-2-2z" clip-rule="evenodd"/>
    <path d="M37 46.75h6m-3-3v3M41 30H31a2 2 0 0 0-2 2v7"/>
    <path d="M35 27h-7a2 2 0 0 0-2 2v5"/>
  </g>
  <defs>
    <clipPath id="a">
      <path fill="#fff" d="M24 24h24v24H24z"/>
    </clipPath>
  </defs>
</svg>
