<svg xmlns="http://www.w3.org/2000/svg" fill="none" stroke-linecap="square" stroke-miterlimit="10" viewBox="0 0 960 540">
  <clipPath id="a">
    <path d="M0 0h960v540H0z"/>
  </clipPath>
  <g clip-path="url(#a)">
    <path fill="#fff" fill-rule="evenodd" d="M0 0h960v540H0z"/>
    <defs>
      <linearGradient id="b" x1=".467" x2=".467" y1="12.749" y2="26.559" gradientTransform="scale(13.80986)" gradientUnits="userSpaceOnUse" spreadMethod="pad">
        <stop offset="0" stop-color="#fff"/>
        <stop offset=".056" stop-color="#fffeff" stop-opacity=".945"/>
        <stop offset=".111" stop-color="#fefdfe" stop-opacity=".894"/>
        <stop offset=".167" stop-color="#fffdfe" stop-opacity=".839"/>
        <stop offset=".222" stop-color="#fefbfc" stop-opacity=".788"/>
        <stop offset=".278" stop-color="#fefafb" stop-opacity=".737"/>
        <stop offset=".333" stop-color="#fef9fb" stop-opacity=".682"/>
        <stop offset=".389" stop-color="#fdf7fa" stop-opacity=".631"/>
        <stop offset=".444" stop-color="#fdf6fa" stop-opacity=".576"/>
        <stop offset=".5" stop-color="#fdf5f7" stop-opacity=".525"/>
        <stop offset=".556" stop-color="#fbf0f4" stop-opacity=".475"/>
        <stop offset=".611" stop-color="#fdf1f3" stop-opacity=".42"/>
        <stop offset=".667" stop-color="#fae9ef" stop-opacity=".369"/>
        <stop offset=".722" stop-color="#fce9ef" stop-opacity=".314"/>
        <stop offset=".778" stop-color="#f7dde8" stop-opacity=".263"/>
        <stop offset=".833" stop-color="#f6d5de" stop-opacity=".212"/>
        <stop offset=".889" stop-color="#f2bfd2" stop-opacity=".157"/>
        <stop offset=".944" stop-color="#eca1b3" stop-opacity=".106"/>
        <stop offset="1" stop-color="#e03875" stop-opacity=".055"/>
      </linearGradient>
    </defs>
    <path fill="url(#b)" fill-rule="evenodd" d="M6.446 182.033a5.96 5.96 0 0 1 5.962-5.962h935.195a5.96 5.96 0 0 1 5.961 5.962v178.785a5.96 5.96 0 0 1-5.961 5.962H12.408a5.96 5.96 0 0 1-5.962-5.962z"/>
    <path fill="#e03875" fill-opacity=".056" fill-rule="evenodd" d="M247.557 62.26a4.53 4.53 0 0 1 4.53-4.53h455.822a4.53 4.53 0 0 1 4.53 4.53v135.853a4.53 4.53 0 0 1-4.53 4.53H252.087a4.53 4.53 0 0 1-4.53-4.53z"/>
    <path fill="#fff" fill-rule="evenodd" d="M795.273 231.655a7.91 7.91 0 0 0-7.91-7.91H518.458a7.91 7.91 0 0 0-7.91 7.91v275.3a7.91 7.91 0 0 0 7.91 7.909h268.905a7.91 7.91 0 0 0 7.91-7.91z"/>
    <path stroke="#d6d6d6" stroke-linecap="butt" stroke-miterlimit="400" d="M795.273 231.655a7.91 7.91 0 0 0-7.91-7.91H518.458a7.91 7.91 0 0 0-7.91 7.91v275.3a7.91 7.91 0 0 0 7.91 7.909h268.905a7.91 7.91 0 0 0 7.91-7.91z"/>
    <path d="M585.476 260.968v-56.252"/>
    <path stroke="#e03875" stroke-dasharray="2 6" stroke-linecap="butt" stroke-miterlimit="400" stroke-width="2" d="M585.476 260.968v-56.252"/>
    <path fill="#fff" fill-rule="evenodd" d="M554.911 387.117c0-.938.76-1.698 1.698-1.698h57.73a1.7 1.7 0 0 1 1.698 1.698v57.73c0 .938-.76 1.698-1.698 1.698h-57.73c-.938 0-1.698-.76-1.698-1.698z"/>
    <path stroke="#3c78d8" stroke-linecap="butt" stroke-miterlimit="400" d="M554.911 387.117c0-.938.76-1.698 1.698-1.698h57.73a1.7 1.7 0 0 1 1.698 1.698v57.73c0 .938-.76 1.698-1.698 1.698h-57.73c-.938 0-1.698-.76-1.698-1.698z"/>
    <path d="M535.073 449.373h100.81v27.793h-100.81z"/>
    <path fill="#000" d="M574.111 454.33q1.344 0 2.125.75.782.75.782 2 0 1.235-.782 1.985-.78.75-2.125.75h-2.03v3.078h-1.891v-8.563zm-.515 4.031q.812 0 1.203-.296.39-.313.39-.985 0-.656-.39-.969-.375-.328-1.203-.328h-1.516v2.578zm7.853-1.843q.11 0 .203.015.094.016.172.047v1.578q-.14-.031-.28-.031-.142-.016-.329-.016-.86 0-1.281.532-.407.515-.407 1.406v2.844h-1.687v-6.203h1.61v1.156h.03q.266-.61.797-.969.547-.36 1.172-.36m3.967 0q1.469 0 2.344.906.875.89.875 2.375t-.89 2.375q-.876.89-2.329.89-1.437 0-2.328-.89-.875-.906-.875-2.375t.86-2.375q.874-.906 2.343-.906m-1.5 3.28q0 .985.406 1.485t1.094.5q.735 0 1.125-.515.39-.532.39-1.47 0-.921-.39-1.452-.375-.547-1.125-.547-.687 0-1.094.5-.406.5-.406 1.5m7.145-3.108 1.093 1.625 1.079-1.625h1.875l-2.032 2.906 2.297 3.297h-1.953l-1.297-1.953-1.297 1.953h-1.906l2.234-3.266-2.046-2.937zm6.054 0 1.407 4.25h.03l1.345-4.25h1.765l-2.64 7.093q-.235.625-.72.953-.484.344-1.25.344-.374 0-.64-.015-.25-.016-.515-.047v-1.407q.312.032.515.047.203.016.375.016.36 0 .563-.234.203-.22.203-.547 0-.094-.016-.172-.015-.094-.062-.219l-2.188-5.812z"/>
    <path fill="#000" fill-rule="evenodd" d="M587.631 422.125h-13.396l6.286-5.857a.73.73 0 0 0 0-1.086.87.87 0 0 0-1.166 0l-7.692 7.167a.8.8 0 0 0-.178.25.72.72 0 0 0 0 .587.8.8 0 0 0 .178.25l7.692 7.166c.161.15.372.226.584.226.21 0 .421-.076.582-.226a.73.73 0 0 0 0-1.086l-6.286-5.856h13.396c.455 0 .824-.344.824-.767 0-.425-.369-.768-.824-.768"/>
    <path d="M582.959 422.893h16.57"/>
    <path stroke="#000" stroke-linecap="butt" stroke-linejoin="round" d="M582.959 422.893h16.57"/>
    <path fill="#000" fill-rule="evenodd" d="M583.32 409.613h13.396l-6.286 5.856a.73.73 0 0 0 0 1.086c.322.3.844.3 1.166 0l7.693-7.167a.8.8 0 0 0 .177-.25.72.72 0 0 0 0-.586.8.8 0 0 0-.177-.25l-7.693-7.167a.86.86 0 0 0-.583-.225.85.85 0 0 0-.583.225.73.73 0 0 0 0 1.086l6.286 5.856H583.32c-.455 0-.824.344-.824.768s.37.768.824.768"/>
    <path d="M587.993 408.845h-16.571"/>
    <path stroke="#000" stroke-linecap="butt" stroke-linejoin="round" d="M587.993 408.845h-16.571"/>
    <path fill="#fff" fill-rule="evenodd" d="M554.909 262.666c0-.938.76-1.698 1.698-1.698h57.737a1.7 1.7 0 0 1 1.698 1.698v57.737c0 .938-.76 1.698-1.698 1.698h-57.737c-.938 0-1.698-.76-1.698-1.698z"/>
    <path stroke="#e03875" stroke-linecap="butt" stroke-miterlimit="400" d="M554.909 262.666c0-.938.76-1.698 1.698-1.698h57.737a1.7 1.7 0 0 1 1.698 1.698v57.737c0 .938-.76 1.698-1.698 1.698h-57.737c-.938 0-1.698-.76-1.698-1.698z"/>
    <path fill="#e03875" fill-rule="evenodd" d="M600.394 309.729a4.47 4.47 0 0 1 8.94 0 4.47 4.47 0 1 1-8.94 0"/>
    <path d="M524.064 325.41h122.824v27.794H524.063z"/>
    <path fill="#000" d="M551.83 330.165q1.453 0 2.484.828 1.032.813 1.204 2.25h-1.813q-.125-.671-.672-1.078-.547-.422-1.203-.422-1.11 0-1.719.813-.61.797-.61 2.125 0 1.266.595 2.062.609.797 1.734.797.813 0 1.313-.5.515-.5.625-1.406h1.828q-.157 1.625-1.188 2.563-1.015.937-2.578.937-1.234 0-2.203-.562t-1.5-1.594q-.516-1.031-.516-2.297 0-1.969 1.157-3.234 1.156-1.282 3.062-1.282m7.879 2.391q1.469 0 2.344.906.875.89.875 2.375t-.891 2.375q-.875.89-2.328.89-1.438 0-2.328-.89-.875-.906-.875-2.375t.86-2.375q.874-.906 2.343-.906m-1.5 3.281q0 .985.406 1.485t1.094.5q.734 0 1.125-.516.39-.531.39-1.469 0-.922-.39-1.453-.375-.547-1.125-.547-.688 0-1.094.5t-.406 1.5m9.377-3.281q1.187 0 1.719.61.546.593.546 1.89v3.875h-1.703v-3.563q0-.718-.25-1.093t-.843-.375q-.704 0-1.016.422-.313.421-.313 1.296v3.313h-1.687v-6.203h1.61v.86h.03q.313-.5.813-.766t1.094-.266m6.098 0q1.265 0 1.953.5.703.5.797 1.484h-1.625q-.047-.437-.344-.64-.281-.203-.828-.203-.485 0-.72.156-.218.14-.218.422t.297.468q.297.188 1.188.36 1.421.265 1.906.703.5.437.5 1.14 0 1.047-.781 1.61-.766.547-2.047.547-1.297 0-2.078-.547-.782-.547-.844-1.64h1.625q0 .484.375.765t.937.281q.5 0 .797-.219.313-.218.313-.578 0-.328-.407-.53-.39-.204-1.468-.423t-1.547-.61q-.469-.39-.469-1.062 0-.984.688-1.484.703-.5 2-.5m5.601.172v3.547q0 .703.25 1.093.25.391.86.391.703 0 1-.422.312-.437.312-1.297v-3.312h1.703v6.203h-1.625v-.86h-.031q-.328.516-.844.782-.5.25-1.062.25-1.157 0-1.704-.594t-.546-1.906v-3.875zm7.176-2.36v8.563h-1.703v-8.563zm8.693-.203q1.453 0 2.485.828 1.03.813 1.203 2.25h-1.813q-.125-.671-.672-1.078-.547-.422-1.203-.422-1.11 0-1.719.813-.609.797-.609 2.125 0 1.266.594 2.062.61.797 1.734.797.813 0 1.313-.5.515-.5.625-1.406h1.828q-.156 1.625-1.188 2.563-1.015.937-2.578.937-1.234 0-2.203-.562t-1.5-1.594q-.516-1.031-.516-2.297 0-1.969 1.157-3.234 1.156-1.282 3.062-1.282m6.63.203v8.563h-1.704v-8.563zm3.093 0v1.391h-1.703v-1.39zm0 2.36v6.203h-1.703v-6.203zm4.203-.172q1.375 0 2.203.953.828.938.828 2.422l-.015.312h-4.485q.047.797.422 1.188.39.39 1.094.39.469 0 .86-.234.39-.25.5-.578h1.5q-.345 1.047-1.063 1.578-.719.516-1.844.516-1.438 0-2.313-.906-.859-.907-.859-2.36 0-1.39.89-2.328.891-.953 2.282-.953m-1.469 2.61h2.781q-.125-.688-.453-1-.312-.329-.922-.329-.609 0-.984.36-.36.343-.422.968m9.047-2.61q1.188 0 1.719.61.547.593.547 1.89v3.875h-1.703v-3.563q0-.718-.25-1.093t-.844-.375q-.703 0-1.016.422-.312.421-.312 1.296v3.313h-1.688v-6.203h1.61v.86h.03q.313-.5.813-.766t1.094-.266m5.723-1.688v1.86h1.25v1.14h-1.25v3.11q0 .375.14.531t.579.156q.14 0 .265-.015l.266-.032v1.329q-.219.03-.485.046-.25.016-.5.016-1.109 0-1.546-.375-.422-.39-.422-1.062v-3.704h-1.032v-1.14h1.032v-1.86z"/>
    <path fill="#fff" fill-rule="evenodd" d="M689.803 387.117c0-.937.76-1.698 1.698-1.698h57.73a1.7 1.7 0 0 1 1.698 1.698v57.73c0 .938-.76 1.698-1.698 1.698H691.5c-.937 0-1.698-.76-1.698-1.698z"/>
    <path stroke="#d6d6d6" stroke-linecap="butt" stroke-miterlimit="400" d="M689.803 387.117c0-.937.76-1.698 1.698-1.698h57.73a1.7 1.7 0 0 1 1.698 1.698v57.73c0 .938-.76 1.698-1.698 1.698H691.5c-.937 0-1.698-.76-1.698-1.698z"/>
    <path d="M669.965 449.373h100.81v27.793h-100.81z"/>
    <path fill="#000" d="M697.069 454.127q1.547 0 2.484.719t.938 2.031h-1.813q-.046-.64-.453-.969-.39-.328-1.234-.328-.578 0-.953.266-.36.25-.36.719 0 .312.157.468.156.157.625.344.468.172 2.062.547 1.063.25 1.656.875.61.61.61 1.547 0 1.25-.938 2t-2.625.75q-1.61 0-2.64-.797-1.016-.797-1.016-2.203v-.047h1.828q0 .797.516 1.187.531.391 1.375.391.765 0 1.219-.266.453-.28.453-.796 0-.422-.36-.688-.343-.266-1.11-.453-.983-.219-1.78-.469t-1.328-.812q-.532-.563-.532-1.438 0-1.156.922-1.86.938-.718 2.297-.718m7.522 2.39q1.375 0 2.203.954.828.937.828 2.422l-.016.312h-4.484q.047.797.422 1.188.39.39 1.093.39.47 0 .86-.234.39-.25.5-.578h1.5q-.344 1.047-1.063 1.578-.718.516-1.843.516-1.438 0-2.313-.907-.86-.906-.86-2.359 0-1.39.891-2.328.89-.953 2.282-.953m-1.47 2.61h2.782q-.125-.687-.453-1-.313-.328-.922-.328-.61 0-.984.36-.36.343-.422.968m9.11-2.61q.11 0 .203.016t.172.047v1.578q-.14-.03-.281-.03-.14-.017-.328-.017-.86 0-1.281.532-.407.515-.407 1.406v2.844h-1.687v-6.203h1.61v1.156h.03q.266-.61.797-.969.547-.36 1.172-.36m2.395.173 1.312 4.234h.031l1.297-4.234h1.703l-2.109 6.203h-1.89l-2.126-6.203zm6.802-2.36v1.39h-1.703v-1.39zm0 2.36v6.203h-1.703v-6.203zm4.313-.172q1.203 0 2.016.625.828.625.906 1.734h-1.672q-.078-.531-.406-.797-.313-.281-.86-.281-.687 0-1.078.562-.375.563-.375 1.454 0 .89.375 1.437.375.531 1.047.531.563 0 .906-.328.36-.328.453-.937h1.641q-.172 1.218-.969 1.89-.781.657-2.015.657-1.391 0-2.266-.891-.875-.89-.875-2.297 0-1.5.86-2.422.859-.937 2.312-.937m6.781 0q1.375 0 2.203.953.828.937.828 2.422l-.015.312h-4.485q.047.797.422 1.188.39.39 1.094.39.469 0 .86-.234.39-.25.5-.578h1.5q-.344 1.047-1.063 1.578-.719.516-1.844.516-1.437 0-2.312-.907-.86-.906-.86-2.359 0-1.39.89-2.328.892-.953 2.282-.953m-1.469 2.61h2.782q-.125-.688-.453-1-.313-.329-.922-.329-.61 0-.985.36-.36.343-.422.968m13.272-4.798 3.203 8.563h-1.953l-.64-1.907h-3.204l-.672 1.907h-1.906l3.25-8.563zm-.984 2.11-1.125 3.14h2.218l-1.078-3.14z"/>
    <path fill="#000" fill-rule="evenodd" d="m709.098 410.05.004-.033 10.353 5.293v12.877l-9.52-4.868a1.55 1.55 0 0 1-.837-1.408zm10.594-6.38a1.5 1.5 0 0 1 1.355 0l9.458 4.836-10.135 5.182-10.136-5.182zm11.945 6.347c0 .01.005.02.005.03v11.876a1.56 1.56 0 0 1-.848 1.395l-9.51 4.862v-12.87zm-22.52 14.972 9.747 4.985a3.3 3.3 0 0 0 3 0l9.747-4.983a3.42 3.42 0 0 0 1.858-3.068v-11.875c0-1.31-.713-2.485-1.857-3.067l-9.748-4.983-.003-.002a3.3 3.3 0 0 0-2.985.002l-9.747 4.982c-1.146.583-1.858 1.758-1.86 3.068v11.856c-.008 1.312.698 2.494 1.847 3.085"/>
    <path fill="#e03875" fill-rule="evenodd" d="M739.084 443.09a8.31 8.31 0 1 1 16.619 0 8.31 8.31 0 0 1-16.619 0"/>
    <path fill="#fff" fill-rule="evenodd" d="M164.727 231.655a7.91 7.91 0 0 1 7.91-7.91h268.905a7.91 7.91 0 0 1 7.91 7.91v275.3a7.91 7.91 0 0 1-7.91 7.909H172.637a7.91 7.91 0 0 1-7.91-7.91z"/>
    <path stroke="#d6d6d6" stroke-linecap="butt" stroke-miterlimit="400" d="M164.727 231.655a7.91 7.91 0 0 1 7.91-7.91h268.905a7.91 7.91 0 0 1 7.91 7.91v275.3a7.91 7.91 0 0 1-7.91 7.909H172.637a7.91 7.91 0 0 1-7.91-7.91z"/>
    <path fill="#dc477d" fill-rule="evenodd" d="M587.782 86.022c0-.937.76-1.698 1.698-1.698h57.73a1.7 1.7 0 0 1 1.698 1.698v57.73c0 .938-.76 1.698-1.698 1.698h-57.73c-.937 0-1.698-.76-1.698-1.698z"/>
    <path fill="#fff" fill-rule="evenodd" d="M618.52 131.99c-9.417.008-17.056-7.644-17.064-17.09s7.62-17.109 17.036-17.117a17.02 17.02 0 0 1 11.562 4.521l-4.046 4.246c-4.591-4.162-11.677-3.802-15.826.804s-3.79 11.713.801 15.875a11.18 11.18 0 0 0 15.025 0l4.046 4.246a16.96 16.96 0 0 1-11.535 4.515m13.72-8.555a1.4 1.4 0 0 1-1.398-1.402 1.4 1.4 0 0 1 1.398-1.402 1.403 1.403 0 0 1 0 2.804"/>
    <path fill="#fff" fill-rule="evenodd" d="M618.41 118.593a3.697 3.697 0 0 1-3.69-3.703 3.697 3.697 0 0 1 3.69-3.703 3.697 3.697 0 0 1 3.692 3.703 3.7 3.7 0 0 1-3.692 3.703m15.429.053a1.4 1.4 0 0 1-1.398-1.402 1.4 1.4 0 0 1 1.398-1.402 1.403 1.403 0 0 1 0 2.804m-4.152-.16a1.4 1.4 0 0 1-1.398-1.401 1.4 1.4 0 0 1 1.398-1.402 1.4 1.4 0 0 1 1.397 1.402 1.4 1.4 0 0 1-1.397 1.401m4.152-4.552a1.4 1.4 0 0 1-1.398-1.402 1.4 1.4 0 0 1 1.398-1.401 1.403 1.403 0 0 1 0 2.804m-4.152.159a1.4 1.4 0 0 1-1.398-1.402 1.4 1.4 0 0 1 1.398-1.402 1.4 1.4 0 0 1 1.397 1.402v.003a1.4 1.4 0 0 1-1.397 1.399m2.633-4.874a1.4 1.4 0 0 1-1.4-1.399 1.4 1.4 0 0 1 1.394-1.405 1.4 1.4 0 0 1 1.4 1.399v.003a1.4 1.4 0 0 1-1.394 1.402"/>
    <path d="M549.173 148.28h138.344v27.792H549.173z"/>
    <path fill="#000" d="M600.796 153.237v1.578h-4.125v1.984h3.578v1.453h-3.578v3.547h-1.89v-8.562zm3.422 2.187q1.469 0 2.344.906.875.891.875 2.375 0 1.485-.89 2.375-.876.891-2.329.891-1.438 0-2.328-.89-.875-.907-.875-2.376t.86-2.375q.874-.906 2.343-.906m-1.5 3.281q0 .985.406 1.485t1.094.5q.734 0 1.125-.516.39-.531.39-1.469 0-.921-.39-1.453-.375-.547-1.125-.547-.688 0-1.094.5t-.406 1.5m7.58-5.468v8.562h-1.703v-8.562zm3.094 0v8.562h-1.703v-8.562zm4.344 2.187q1.468 0 2.343.906.875.891.875 2.375 0 1.485-.89 2.375-.875.891-2.328.891-1.438 0-2.329-.89-.875-.907-.875-2.376t.86-2.375q.875-.906 2.344-.906m-1.5 3.281q0 .985.406 1.485t1.094.5q.734 0 1.125-.516.39-.531.39-1.469 0-.921-.39-1.453-.375-.547-1.125-.547-.688 0-1.094.5t-.406 1.5m7.048-3.109 1.141 4.203h.016l1.03-4.203h1.657l1.063 4.203h.015l1.157-4.203h1.75l-1.97 6.203h-1.75l-1.093-4.172h-.031l-1.063 4.172h-1.75l-1.968-6.203zm11.409-.172q1.375 0 2.203.953.828.938.828 2.422l-.016.313h-4.484q.047.797.422 1.187.39.39 1.093.39.47 0 .86-.234.39-.25.5-.578h1.5q-.344 1.047-1.063 1.578-.718.516-1.843.516-1.438 0-2.313-.906-.86-.906-.86-2.36 0-1.39.891-2.328.891-.953 2.282-.953m-1.47 2.61h2.782q-.125-.688-.453-1-.313-.329-.922-.329-.61 0-.984.36-.36.344-.422.969m9.11-2.61q.11 0 .203.016.094.015.172.047v1.578q-.14-.031-.281-.031-.14-.016-.328-.016-.86 0-1.281.531-.407.516-.407 1.406v2.844h-1.687v-6.203h1.61v1.156h.03q.266-.61.797-.968.547-.36 1.172-.36"/>
    <path fill="#dc477d" fill-rule="evenodd" d="M449.439 86.022c0-.937.76-1.698 1.698-1.698h57.73a1.7 1.7 0 0 1 1.697 1.698v57.73c0 .938-.76 1.698-1.698 1.698h-57.73c-.937 0-1.697-.76-1.697-1.698z"/>
    <path fill="#fff" fill-rule="evenodd" d="M480.176 131.99c-9.417.008-17.056-7.644-17.064-17.09s7.62-17.109 17.036-17.117a17.02 17.02 0 0 1 11.562 4.521l-4.046 4.246c-4.591-4.162-11.676-3.802-15.825.804-4.15 4.606-3.79 11.713.8 15.875a11.18 11.18 0 0 0 15.025 0l4.046 4.246a16.96 16.96 0 0 1-11.534 4.515m13.719-8.555a1.4 1.4 0 0 1-1.397-1.402 1.4 1.4 0 0 1 1.397-1.402 1.403 1.403 0 0 1 0 2.804"/>
    <path fill="#fff" fill-rule="evenodd" d="M480.067 118.593a3.697 3.697 0 0 1-3.691-3.703 3.697 3.697 0 0 1 3.69-3.703 3.697 3.697 0 0 1 3.692 3.703 3.7 3.7 0 0 1-3.691 3.703m15.428.053a1.4 1.4 0 0 1-1.398-1.402 1.4 1.4 0 0 1 1.398-1.402 1.403 1.403 0 0 1 0 2.804m-4.152-.16a1.4 1.4 0 0 1-1.398-1.401 1.4 1.4 0 0 1 1.398-1.402 1.4 1.4 0 0 1 1.397 1.402 1.4 1.4 0 0 1-1.397 1.401m4.152-4.552a1.4 1.4 0 0 1-1.398-1.402 1.4 1.4 0 0 1 1.398-1.401 1.403 1.403 0 0 1 0 2.804m-4.152.159a1.4 1.4 0 0 1-1.398-1.402 1.4 1.4 0 0 1 1.398-1.402 1.4 1.4 0 0 1 1.397 1.402v.003a1.4 1.4 0 0 1-1.397 1.399m2.633-4.874a1.4 1.4 0 0 1-1.4-1.399 1.4 1.4 0 0 1 1.394-1.405 1.4 1.4 0 0 1 1.4 1.399v.003a1.4 1.4 0 0 1-1.394 1.402"/>
    <path d="M410.83 148.28h138.343v27.792H410.83z"/>
    <path fill="#000" d="M462.936 153.237v6.984h4.172v1.578h-6.063v-8.562zm7.693 2.187q1.375 0 2.203.953.828.938.828 2.422l-.015.313h-4.485q.047.797.422 1.187.39.39 1.094.39.469 0 .86-.234.39-.25.5-.578h1.5q-.344 1.047-1.063 1.578-.719.516-1.844.516-1.437 0-2.312-.906-.86-.906-.86-2.36 0-1.39.89-2.328.892-.953 2.282-.953m-1.469 2.61h2.782q-.125-.688-.453-1-.313-.329-.922-.329-.61 0-.985.36-.36.344-.422.969m8.344-2.61q1.375 0 2.047.453t.672 1.282v3.328q0 .375.047.75t.172.562h-1.735q-.047-.14-.078-.281-.031-.156-.047-.313-.36.375-.89.579-.516.187-1.188.187-.969 0-1.547-.484-.562-.485-.562-1.375 0-.875.531-1.328.547-.47 1.969-.625.984-.094 1.297-.235.328-.156.328-.531 0-.406-.25-.61-.235-.218-.844-.218-.531 0-.812.234-.282.219-.329.703h-1.703q.063-1.015.828-1.547.782-.53 2.094-.53m-1.406 4.61q0 .375.25.593.25.203.797.203.672 0 1.015-.359.36-.36.36-1.047v-.656q-.156.125-.406.187-.25.047-.891.141-.594.078-.86.313-.265.218-.265.625m11.5-6.797v8.562h-1.625v-.797h-.031q-.266.485-.75.735-.485.234-1.125.234-1.266 0-2.032-.937-.75-.938-.75-2.391 0-1.39.735-2.297.75-.922 2.015-.922.579 0 1.047.235.485.234.782.687h.03v-3.11zm-4.61 5.453q0 .86.391 1.437.406.563 1.11.563.703 0 1.078-.516.375-.531.375-1.5 0-.906-.375-1.437-.36-.532-1.094-.532-.703 0-1.094.532-.39.53-.39 1.453m8.752-3.266q1.375 0 2.204.953.828.938.828 2.422l-.016.313h-4.484q.047.797.422 1.187.39.39 1.093.39.47 0 .86-.234.39-.25.5-.578h1.5q-.344 1.047-1.063 1.578-.719.516-1.844.516-1.437 0-2.312-.906-.86-.906-.86-2.36 0-1.39.891-2.328.89-.953 2.281-.953m-1.468 2.61h2.781q-.125-.688-.453-1-.313-.329-.922-.329-.61 0-.984.36-.36.344-.422.969m9.11-2.61q.108 0 .202.016.094.015.172.047v1.578q-.14-.031-.281-.031-.14-.016-.328-.016-.86 0-1.282.531-.406.516-.406 1.406v2.844h-1.687v-6.203h1.61v1.156h.03q.266-.61.797-.968.547-.36 1.172-.36"/>
    <path d="M374.526 260.968v-57.795"/>
    <path stroke="#e03875" stroke-dasharray="2 6" stroke-linecap="butt" stroke-miterlimit="400" stroke-width="2" d="M374.526 260.968v-57.795"/>
    <path fill="#fff" fill-rule="evenodd" d="M343.96 262.666c0-.938.76-1.698 1.697-1.698h57.737a1.7 1.7 0 0 1 1.698 1.698v57.737c0 .938-.76 1.698-1.698 1.698h-57.737c-.938 0-1.698-.76-1.698-1.698z"/>
    <path stroke="#e03875" stroke-linecap="butt" stroke-miterlimit="400" d="M343.96 262.666c0-.938.76-1.698 1.697-1.698h57.737a1.7 1.7 0 0 1 1.698 1.698v57.737c0 .938-.76 1.698-1.698 1.698h-57.737c-.938 0-1.698-.76-1.698-1.698z"/>
    <path fill="#e03875" fill-rule="evenodd" d="M389.444 309.729a4.47 4.47 0 0 1 8.94 0 4.47 4.47 0 1 1-8.94 0"/>
    <path d="M313.114 325.41h122.824v27.794H313.114z"/>
    <path fill="#000" d="M340.88 330.165q1.453 0 2.485.828 1.03.813 1.203 2.25h-1.813q-.125-.671-.672-1.078-.547-.422-1.203-.422-1.11 0-1.719.813-.609.797-.609 2.125 0 1.266.594 2.062.61.797 1.734.797.813 0 1.313-.5.515-.5.625-1.406h1.828q-.156 1.625-1.188 2.563-1.015.937-2.578.937-1.234 0-2.203-.562t-1.5-1.594q-.516-1.031-.516-2.297 0-1.969 1.157-3.234 1.156-1.282 3.062-1.282m7.88 2.391q1.468 0 2.343.906.875.89.875 2.375t-.89 2.375q-.876.89-2.329.89-1.437 0-2.328-.89-.875-.906-.875-2.375t.86-2.375q.874-.906 2.343-.906m-1.5 3.281q0 .985.405 1.485.407.5 1.094.5.734 0 1.125-.516.39-.531.39-1.469 0-.922-.39-1.453-.375-.547-1.125-.547-.687 0-1.094.5-.406.5-.406 1.5m9.376-3.281q1.188 0 1.719.61.547.593.547 1.89v3.875h-1.703v-3.563q0-.718-.25-1.093t-.844-.375q-.703 0-1.016.422-.312.421-.312 1.296v3.313h-1.688v-6.203h1.61v.86h.03q.313-.5.813-.766t1.094-.266m6.098 0q1.265 0 1.953.5.703.5.797 1.484h-1.625q-.047-.437-.344-.64-.281-.203-.828-.203-.485 0-.719.156-.219.14-.219.422t.297.468q.297.188 1.188.36 1.422.265 1.906.703.5.437.5 1.14 0 1.047-.781 1.61-.766.547-2.047.547-1.297 0-2.078-.547-.782-.547-.844-1.64h1.625q0 .484.375.765t.937.281q.5 0 .797-.219.313-.218.313-.578 0-.328-.406-.53-.391-.204-1.47-.423-1.077-.219-1.546-.61-.469-.39-.469-1.062 0-.984.688-1.484.703-.5 2-.5m5.601.172v3.547q0 .703.25 1.093.25.391.86.391.703 0 1-.422.312-.437.312-1.297v-3.312h1.703v6.203h-1.625v-.86h-.031q-.328.516-.844.782-.5.25-1.062.25-1.157 0-1.703-.594-.547-.594-.547-1.906v-3.875zm7.176-2.36v8.563h-1.703v-8.563zm8.693-.203q1.454 0 2.485.828 1.031.813 1.203 2.25h-1.813q-.125-.671-.671-1.078-.547-.422-1.204-.422-1.109 0-1.718.813-.61.797-.61 2.125 0 1.266.594 2.062.61.797 1.734.797.813 0 1.313-.5.516-.5.625-1.406h1.828q-.156 1.625-1.187 2.563-1.016.937-2.579.937-1.234 0-2.203-.562t-1.5-1.594q-.515-1.031-.515-2.297 0-1.969 1.156-3.234 1.156-1.282 3.062-1.282m6.63.203v8.563h-1.704v-8.563zm3.093 0v1.391h-1.703v-1.39zm0 2.36v6.203h-1.703v-6.203zm4.203-.172q1.375 0 2.203.953.828.938.828 2.422l-.015.312h-4.485q.047.797.422 1.188.39.39 1.094.39.469 0 .86-.234.39-.25.5-.578h1.5q-.344 1.047-1.063 1.578-.719.516-1.844.516-1.437 0-2.312-.906-.86-.907-.86-2.36 0-1.39.89-2.328.892-.953 2.282-.953m-1.469 2.61h2.782q-.125-.688-.453-1-.313-.329-.922-.329-.61 0-.985.36-.36.343-.422.968m9.047-2.61q1.188 0 1.719.61.547.593.547 1.89v3.875h-1.703v-3.563q0-.718-.25-1.093t-.844-.375q-.703 0-1.016.422-.312.421-.312 1.296v3.313h-1.688v-6.203h1.61v.86h.031q.313-.5.813-.766t1.093-.266m5.723-1.688v1.86h1.25v1.14h-1.25v3.11q0 .375.14.531t.579.156q.14 0 .265-.015l.266-.032v1.329q-.219.03-.484.046-.25.016-.5.016-1.11 0-1.547-.375-.422-.39-.422-1.062v-3.704h-1.031v-1.14h1.03v-1.86z"/>
    <path d="M372.22 114.887h77.229"/>
    <path stroke="#e03875" stroke-dasharray="2 6" stroke-linecap="butt" stroke-miterlimit="400" stroke-width="2" d="M372.22 114.887h77.229"/>
    <path fill="#dc477d" fill-rule="evenodd" d="M311.095 86.022c0-.937.76-1.698 1.698-1.698h57.73a1.7 1.7 0 0 1 1.698 1.698v57.73c0 .938-.76 1.698-1.699 1.698h-57.729c-.938 0-1.698-.76-1.698-1.698z"/>
    <path fill="#fff" fill-rule="evenodd" d="M341.832 131.99c-9.416.008-17.056-7.644-17.064-17.09s7.62-17.109 17.036-17.117a17.02 17.02 0 0 1 11.562 4.521l-4.046 4.246c-4.59-4.162-11.676-3.802-15.825.804s-3.79 11.713.801 15.875a11.18 11.18 0 0 0 15.024 0l4.046 4.246a16.96 16.96 0 0 1-11.534 4.515m13.719-8.555a1.4 1.4 0 0 1-1.397-1.402 1.4 1.4 0 0 1 1.397-1.402 1.403 1.403 0 0 1 0 2.804"/>
    <path fill="#fff" fill-rule="evenodd" d="M341.723 118.593a3.697 3.697 0 0 1-3.691-3.703 3.697 3.697 0 0 1 3.691-3.703 3.697 3.697 0 0 1 3.691 3.703 3.7 3.7 0 0 1-3.69 3.703m15.427.053a1.4 1.4 0 0 1-1.397-1.402 1.4 1.4 0 0 1 1.397-1.402 1.403 1.403 0 0 1 0 2.804m-4.151-.16a1.4 1.4 0 0 1-1.398-1.401 1.4 1.4 0 0 1 1.397-1.402 1.4 1.4 0 0 1 1.398 1.402 1.4 1.4 0 0 1-1.398 1.401m4.152-4.552a1.4 1.4 0 0 1-1.397-1.402 1.4 1.4 0 0 1 1.397-1.401 1.403 1.403 0 0 1 0 2.804m-4.151.159a1.4 1.4 0 0 1-1.398-1.402 1.4 1.4 0 0 1 1.397-1.402 1.4 1.4 0 0 1 1.398 1.402v.003a1.4 1.4 0 0 1-1.398 1.399m2.633-4.874a1.4 1.4 0 0 1-1.4-1.399 1.4 1.4 0 0 1 1.394-1.405 1.4 1.4 0 0 1 1.4 1.399v.003a1.4 1.4 0 0 1-1.394 1.402"/>
    <path d="M272.485 148.28H410.83v27.792H272.485z"/>
    <path fill="#000" d="M324.109 153.237v1.578h-4.125v1.984h3.578v1.453h-3.578v3.547h-1.891v-8.562zm3.422 2.187q1.468 0 2.343.906.875.891.875 2.375 0 1.485-.89 2.375-.875.891-2.328.891-1.438 0-2.329-.89-.875-.907-.875-2.376t.86-2.375q.875-.906 2.344-.906m-1.5 3.281q0 .985.406 1.485t1.094.5q.734 0 1.125-.516.39-.531.39-1.469 0-.921-.39-1.453-.375-.547-1.125-.547-.688 0-1.094.5t-.406 1.5m7.58-5.468v8.562h-1.704v-8.562zm3.093 0v8.562h-1.703v-8.562zm4.344 2.187q1.469 0 2.344.906.875.891.875 2.375 0 1.485-.89 2.375-.876.891-2.329.891-1.437 0-2.328-.89-.875-.907-.875-2.376t.86-2.375q.874-.906 2.343-.906m-1.5 3.281q0 .985.406 1.485t1.094.5q.734 0 1.125-.516.39-.531.39-1.469 0-.921-.39-1.453-.375-.547-1.125-.547-.687 0-1.094.5-.406.5-.406 1.5m7.049-3.109 1.14 4.203h.016l1.031-4.203h1.657l1.062 4.203h.016l1.156-4.203h1.75l-1.969 6.203h-1.75l-1.093-4.172h-.032l-1.062 4.172h-1.75l-1.969-6.203zm11.408-.172q1.375 0 2.203.953.828.938.828 2.422l-.015.313h-4.485q.047.797.422 1.187.39.39 1.094.39.469 0 .86-.234.39-.25.5-.578h1.5q-.344 1.047-1.063 1.578-.719.516-1.844.516-1.437 0-2.312-.906-.86-.906-.86-2.36 0-1.39.89-2.328.892-.953 2.282-.953m-1.469 2.61h2.782q-.125-.688-.453-1-.313-.329-.922-.329-.61 0-.985.36-.36.344-.422.969m9.11-2.61q.11 0 .203.016.094.015.172.047v1.578q-.14-.031-.281-.031-.141-.016-.329-.016-.859 0-1.28.531-.407.516-.407 1.406v2.844h-1.688v-6.203h1.61v1.156h.031q.266-.61.797-.968.547-.36 1.172-.36"/>
    <path d="M410.828 25.131h138.33v27.78h-138.33z"/>
    <path fill="#000" d="M441.133 29.886q1.453 0 2.485.828 1.03.812 1.203 2.25h-1.813q-.125-.672-.672-1.078-.547-.422-1.203-.422-1.11 0-1.719.812-.609.797-.609 2.125 0 1.266.594 2.063.61.797 1.734.797.813 0 1.313-.5.515-.5.625-1.407h1.828q-.156 1.625-1.188 2.563-1.015.937-2.578.937-1.234 0-2.203-.562t-1.5-1.594q-.516-1.031-.516-2.297 0-1.969 1.157-3.234 1.156-1.281 3.062-1.281m7.88 2.39q1.468 0 2.343.906.875.891.875 2.375 0 1.485-.89 2.375-.876.891-2.329.891-1.437 0-2.328-.89-.875-.907-.875-2.376t.86-2.375q.874-.906 2.343-.906m-1.5 3.281q0 .985.405 1.485.407.5 1.094.5.734 0 1.125-.516.39-.531.39-1.469 0-.921-.39-1.453-.375-.547-1.125-.547-.687 0-1.094.5-.406.5-.406 1.5m9.376-3.28q1.188 0 1.719.609.547.593.547 1.89v3.875h-1.703V35.09q0-.719-.25-1.094t-.844-.375q-.703 0-1.016.422-.312.422-.312 1.297v3.312h-1.688v-6.203h1.61v.86h.03q.313-.5.813-.766t1.094-.266m6.098 0q1.265 0 1.953.5.703.5.797 1.484h-1.625q-.047-.438-.344-.641-.281-.203-.828-.203-.485 0-.719.156-.219.14-.219.422t.297.469 1.188.36q1.422.265 1.906.702.5.438.5 1.14 0 1.048-.781 1.61-.766.547-2.047.547-1.297 0-2.078-.547-.782-.547-.844-1.64h1.625q0 .484.375.765t.937.281q.5 0 .797-.218.313-.219.313-.578 0-.329-.406-.532-.391-.203-1.47-.422-1.077-.218-1.546-.609-.469-.39-.469-1.062 0-.985.688-1.485.703-.5 2-.5m5.601.171v3.547q0 .703.25 1.094.25.39.86.39.703 0 1-.422.312-.437.312-1.296v-3.313h1.703v6.203h-1.625v-.86h-.031q-.328.516-.844.782-.5.25-1.062.25-1.157 0-1.703-.594-.547-.593-.547-1.906v-3.875zm7.176-2.36v8.563h-1.703v-8.56zm7.803-.202q1.547 0 2.484.718.938.72.938 2.032h-1.813q-.047-.641-.453-.97-.39-.327-1.234-.327-.579 0-.954.265-.359.25-.359.72 0 .312.156.468.157.156.625.344.47.171 2.063.546 1.062.25 1.656.875.61.61.61 1.547 0 1.25-.938 2t-2.625.75q-1.61 0-2.64-.797-1.016-.796-1.016-2.203v-.047h1.828q0 .797.515 1.188.532.39 1.375.39.766 0 1.22-.265.452-.281.452-.797 0-.422-.359-.687-.344-.266-1.11-.454-.984-.218-1.78-.468-.798-.25-1.329-.813t-.531-1.437q0-1.157.922-1.86.937-.718 2.297-.718m7.521 2.39q1.375 0 2.203.953.828.938.828 2.422l-.015.313h-4.485q.047.797.422 1.187.391.39 1.094.39.469 0 .86-.234.39-.25.5-.578h1.5q-.344 1.047-1.063 1.578-.719.516-1.844.516-1.437 0-2.312-.906-.86-.906-.86-2.36 0-1.39.891-2.328.89-.953 2.281-.953m-1.469 2.61h2.782q-.125-.688-.453-1-.313-.329-.922-.329-.61 0-.985.36-.359.344-.422.969m9.11-2.61q.11 0 .203.016.094.015.172.047v1.578q-.14-.031-.281-.031-.141-.016-.329-.016-.859 0-1.28.531-.407.516-.407 1.406v2.844h-1.688v-6.203h1.61v1.156h.031q.266-.609.797-.968.547-.36 1.172-.36m2.394.172 1.313 4.234h.031l1.297-4.234h1.703l-2.11 6.203h-1.89l-2.125-6.203zm7.912-.172q1.375 0 2.204.953.828.938.828 2.422l-.016.313h-4.484q.047.797.422 1.187.39.39 1.093.39.47 0 .86-.234.39-.25.5-.578h1.5q-.344 1.047-1.063 1.578-.719.516-1.844.516-1.437 0-2.312-.906-.86-.906-.86-2.36 0-1.39.891-2.328.89-.953 2.281-.953m-1.468 2.61h2.781q-.125-.688-.453-1-.313-.329-.922-.329-.61 0-.984.36-.36.344-.422.969m9.11-2.61q.108 0 .202.016.094.015.172.047v1.578q-.14-.031-.281-.031-.14-.016-.328-.016-.86 0-1.282.531-.406.516-.406 1.406v2.844h-1.687v-6.203h1.61v1.156h.03q.266-.609.797-.968.547-.36 1.172-.36m3.59 0q1.267 0 1.954.5.703.5.797 1.485h-1.625q-.047-.438-.344-.641-.281-.203-.828-.203-.484 0-.719.156-.218.14-.218.422t.296.469 1.188.36q1.422.265 1.906.702.5.438.5 1.14 0 1.048-.781 1.61-.766.547-2.047.547-1.297 0-2.078-.547t-.844-1.64h1.625q0 .484.375.765t.938.281q.5 0 .797-.218.312-.219.312-.578 0-.329-.406-.532-.39-.203-1.469-.422-1.078-.218-1.547-.609-.469-.39-.469-1.062 0-.985.688-1.485.703-.5 2-.5"/>
    <path d="M587.782 114.887h-77.228"/>
    <path stroke="#e03875" stroke-dasharray="2 6" stroke-linecap="butt" stroke-miterlimit="400" stroke-width="2" d="M587.782 114.887h-77.228"/>
    <path fill="#fff" fill-rule="evenodd" d="M209.066 387.117c0-.937.76-1.698 1.699-1.698h57.729a1.7 1.7 0 0 1 1.698 1.698v57.73c0 .938-.76 1.698-1.698 1.698h-57.73c-.937 0-1.698-.76-1.698-1.698z"/>
    <path stroke="#d6d6d6" stroke-linecap="butt" stroke-miterlimit="400" d="M209.066 387.117c0-.937.76-1.698 1.699-1.698h57.729a1.7 1.7 0 0 1 1.698 1.698v57.73c0 .938-.76 1.698-1.698 1.698h-57.73c-.937 0-1.698-.76-1.698-1.698z"/>
    <path d="M189.228 449.373h100.81v27.793h-100.81z"/>
    <path fill="#000" d="M216.332 454.127q1.547 0 2.485.719t.937 2.031h-1.812q-.047-.64-.454-.969-.39-.328-1.234-.328-.578 0-.953.266-.36.25-.36.719 0 .312.157.468.156.157.625.344.469.172 2.062.547 1.063.25 1.657.875.609.61.609 1.547 0 1.25-.938 2t-2.625.75q-1.609 0-2.64-.797-1.016-.797-1.016-2.203v-.047h1.828q0 .797.516 1.187.531.391 1.375.391.766 0 1.219-.266.453-.28.453-.796 0-.422-.36-.688-.343-.266-1.109-.453-.984-.219-1.781-.469t-1.328-.812q-.532-.563-.532-1.438 0-1.156.922-1.86.938-.718 2.297-.718m7.522 2.39q1.375 0 2.203.954.828.937.828 2.422l-.016.312h-4.484q.047.797.422 1.188.39.39 1.094.39.468 0 .859-.234.39-.25.5-.578h1.5q-.344 1.047-1.063 1.578-.718.516-1.843.516-1.438 0-2.313-.907-.86-.906-.86-2.359 0-1.39.891-2.328.891-.953 2.282-.953m-1.47 2.61h2.782q-.125-.687-.453-1-.312-.328-.922-.328t-.984.36q-.36.343-.422.968m9.11-2.61q.11 0 .203.016t.172.047v1.578q-.14-.03-.28-.03-.142-.017-.33-.017-.858 0-1.28.532-.407.515-.407 1.406v2.844h-1.687v-6.203h1.61v1.156h.03q.266-.61.797-.969.547-.36 1.172-.36m2.395.173 1.312 4.234h.032l1.296-4.234h1.704l-2.11 6.203h-1.89l-2.125-6.203zm6.803-2.36v1.39h-1.704v-1.39zm0 2.36v6.203h-1.704v-6.203zm4.312-.172q1.203 0 2.016.625.828.625.906 1.734h-1.672q-.078-.531-.406-.797-.313-.281-.86-.281-.687 0-1.078.562-.375.563-.375 1.454 0 .89.375 1.437.375.531 1.047.531.563 0 .906-.328.36-.328.454-.937h1.64q-.172 1.218-.969 1.89-.78.657-2.015.657-1.39 0-2.266-.891-.875-.89-.875-2.297 0-1.5.86-2.422.859-.937 2.312-.937m6.781 0q1.375 0 2.203.953.829.937.829 2.422l-.016.312h-4.484q.046.797.421 1.188.391.39 1.094.39.469 0 .86-.234.39-.25.5-.578h1.5q-.344 1.047-1.063 1.578-.719.516-1.844.516-1.437 0-2.312-.907-.86-.906-.86-2.359 0-1.39.891-2.328.89-.953 2.281-.953m-1.468 2.61h2.78q-.124-.688-.452-1-.313-.329-.922-.329-.61 0-.985.36-.359.343-.421.968m13.271-4.798 3.203 8.563h-1.953l-.64-1.907h-3.204l-.672 1.907h-1.906l3.25-8.563zm-.984 2.11-1.125 3.14h2.218l-1.078-3.14z"/>
    <path fill="#000" fill-rule="evenodd" d="m228.361 410.05.004-.033 10.353 5.293v12.877l-9.52-4.868a1.55 1.55 0 0 1-.837-1.408zm10.594-6.38a1.5 1.5 0 0 1 1.355 0l9.458 4.836-10.135 5.182-10.136-5.182zm11.945 6.347c0 .01.005.02.005.03v11.876a1.56 1.56 0 0 1-.848 1.395l-9.51 4.862v-12.87zm-22.52 14.972 9.747 4.985a3.3 3.3 0 0 0 3 0l9.747-4.983a3.42 3.42 0 0 0 1.859-3.068v-11.875c0-1.31-.714-2.485-1.858-3.067l-9.748-4.983-.003-.002a3.3 3.3 0 0 0-2.984.002l-9.747 4.982a3.42 3.42 0 0 0-1.86 3.068v11.856a3.41 3.41 0 0 0 1.846 3.085"/>
    <path fill="#e03875" fill-rule="evenodd" d="M258.347 443.09a8.31 8.31 0 1 1 16.619 0 8.31 8.31 0 0 1-16.618 0"/>
    <path fill="#fff" fill-rule="evenodd" d="M343.961 387.117c0-.938.76-1.698 1.698-1.698h57.73a1.7 1.7 0 0 1 1.698 1.698v57.73c0 .938-.76 1.698-1.698 1.698h-57.73c-.937 0-1.698-.76-1.698-1.698z"/>
    <path stroke="#3c78d8" stroke-linecap="butt" stroke-miterlimit="400" d="M343.961 387.117c0-.938.76-1.698 1.698-1.698h57.73a1.7 1.7 0 0 1 1.698 1.698v57.73c0 .938-.76 1.698-1.698 1.698h-57.73c-.937 0-1.698-.76-1.698-1.698z"/>
    <path d="M324.123 449.373h100.81v27.793h-100.81z"/>
    <path fill="#000" d="M363.162 454.33q1.343 0 2.125.75.78.75.78 2 0 1.235-.78 1.985-.782.75-2.125.75h-2.032v3.078h-1.89v-8.563zm-.516 4.031q.812 0 1.203-.296.39-.313.39-.985 0-.656-.39-.969-.375-.328-1.203-.328h-1.516v2.578zm7.853-1.843q.11 0 .204.015.093.016.171.047v1.578q-.14-.031-.28-.031-.141-.016-.329-.016-.86 0-1.281.532-.406.515-.406 1.406v2.844h-1.688v-6.203h1.61v1.156h.03q.266-.61.798-.969.546-.36 1.171-.36m3.967 0q1.469 0 2.344.906.875.89.875 2.375t-.89 2.375q-.876.89-2.329.89-1.437 0-2.328-.89-.875-.906-.875-2.375t.86-2.375q.875-.906 2.343-.906m-1.5 3.28q0 .985.407 1.485t1.093.5q.735 0 1.125-.515.39-.532.39-1.47 0-.921-.39-1.452-.375-.547-1.125-.547-.687 0-1.093.5-.407.5-.407 1.5m7.145-3.108 1.094 1.625 1.078-1.625h1.875l-2.032 2.906 2.297 3.297h-1.953l-1.297-1.953-1.297 1.953h-1.906l2.235-3.266-2.047-2.937zm6.055 0 1.406 4.25h.031l1.344-4.25h1.765l-2.64 7.093q-.235.625-.719.953-.484.344-1.25.344-.375 0-.64-.015-.25-.016-.516-.047v-1.407q.312.032.515.047.204.016.375.016.36 0 .563-.234.203-.22.203-.547 0-.094-.016-.172-.015-.094-.062-.219l-2.188-5.812z"/>
    <path fill="#000" fill-rule="evenodd" d="M376.681 422.125h-13.396l6.287-5.857a.73.73 0 0 0 0-1.086.87.87 0 0 0-1.167 0l-7.692 7.167a.8.8 0 0 0-.178.25.72.72 0 0 0 0 .587.8.8 0 0 0 .178.25l7.692 7.166c.161.15.372.226.584.226.21 0 .421-.076.583-.226a.73.73 0 0 0 0-1.086l-6.287-5.856h13.396c.455 0 .825-.344.825-.767 0-.425-.37-.768-.825-.768"/>
    <path d="M372.009 422.893h16.57"/>
    <path stroke="#000" stroke-linecap="butt" stroke-linejoin="round" d="M372.009 422.893h16.57"/>
    <path fill="#000" fill-rule="evenodd" d="M372.37 409.613h13.396l-6.286 5.856a.73.73 0 0 0 0 1.086c.322.3.844.3 1.166 0l7.693-7.167a.8.8 0 0 0 .177-.25.72.72 0 0 0 0-.586.8.8 0 0 0-.177-.25l-7.693-7.167a.86.86 0 0 0-.583-.225.85.85 0 0 0-.583.225.73.73 0 0 0 0 1.086l6.286 5.856H372.37c-.454 0-.824.344-.824.768s.37.768.824.768"/>
    <path d="M377.043 408.845h-16.57"/>
    <path stroke="#000" stroke-linecap="butt" stroke-linejoin="round" d="M377.043 408.845h-16.57"/>
    <path d="M270.192 415.982h73.764"/>
    <path stroke="#d6d6d6" stroke-dasharray="2 6" stroke-linecap="butt" stroke-miterlimit="400" stroke-width="2" d="M270.192 415.982h73.764"/>
    <path d="M374.524 385.42v-32.221"/>
    <path stroke="#e03875" stroke-dasharray="2 6" stroke-linecap="butt" stroke-miterlimit="400" stroke-width="2" d="M374.524 385.42v-32.221"/>
    <path d="M689.81 415.983h-73.764"/>
    <path stroke="#d6d6d6" stroke-dasharray="2 6" stroke-linecap="butt" stroke-miterlimit="400" stroke-width="2" d="M689.81 415.983h-73.764"/>
    <path d="M585.479 385.42V353.2"/>
    <path stroke="#e03875" stroke-dasharray="2 6" stroke-linecap="butt" stroke-miterlimit="400" stroke-width="2" d="M585.479 385.42V353.2"/>
    <path fill="#e03875" fill-rule="evenodd" d="M33.031 317.049v-13.396l5.857 6.286c.3.322.786.322 1.086 0s.3-.844 0-1.166l-7.167-7.692a.8.8 0 0 0-.25-.178.72.72 0 0 0-.586 0 .8.8 0 0 0-.25.178l-7.167 7.692a.86.86 0 0 0-.225.584c0 .21.075.421.225.582.3.322.785.322 1.086 0l5.856-6.286v13.396c0 .455.344.824.768.824s.767-.37.767-.824"/>
    <path d="M32.263 312.376v34.622"/>
    <path stroke="#e03875" stroke-linecap="butt" stroke-linejoin="round" d="M32.263 312.376v34.622"/>
    <path d="M50.885 300.837h84.41v46.173h-84.41z"/>
    <path fill="#e03875" d="M57.557 305.592q1.453 0 2.485.828 1.03.812 1.203 2.25h-1.813q-.125-.672-.672-1.078-.546-.422-1.203-.422-1.11 0-1.718.812-.61.797-.61 2.125 0 1.266.594 2.063.61.797 1.734.797.813 0 1.313-.5.515-.5.625-1.407h1.828q-.156 1.625-1.188 2.563-1.015.937-2.578.937-1.234 0-2.203-.562t-1.5-1.594q-.515-1.031-.515-2.297 0-1.968 1.156-3.234 1.156-1.281 3.062-1.281m7.88 2.39q1.468 0 2.343.907.875.89.875 2.375t-.89 2.375q-.876.89-2.329.89-1.437 0-2.328-.89-.875-.907-.875-2.375 0-1.47.86-2.375.874-.907 2.343-.907m-1.5 3.282q0 .984.405 1.484.407.5 1.094.5.735 0 1.125-.516.39-.531.39-1.468 0-.922-.39-1.454-.375-.546-1.125-.546-.687 0-1.094.5-.406.5-.406 1.5m9.376-3.282q1.188 0 1.719.61.547.593.547 1.89v3.875h-1.703v-3.562q0-.719-.25-1.094t-.844-.375q-.703 0-1.016.422-.312.422-.312 1.297v3.312h-1.688v-6.203h1.61v.86h.03q.313-.5.813-.766t1.094-.266m5.723-1.687v1.86h1.25v1.14h-1.25v3.11q0 .374.14.53t.579.157q.14 0 .265-.016l.266-.031v1.328q-.219.031-.485.047-.25.015-.5.015-1.109 0-1.546-.375-.422-.39-.422-1.062v-3.703H76.3v-1.14h1.032v-1.86zm5.678 1.687q.109 0 .203.016.093.016.172.047v1.578q-.141-.031-.282-.031-.14-.016-.328-.016-.86 0-1.281.531-.406.516-.406 1.407v2.843h-1.688v-6.203h1.61v1.156h.03q.266-.609.798-.968.547-.36 1.172-.36m3.966 0q1.47 0 2.344.907.875.89.875 2.375t-.89 2.375q-.876.89-2.329.89-1.437 0-2.328-.89-.875-.907-.875-2.375 0-1.47.86-2.375.875-.907 2.343-.907m-1.5 3.282q0 .984.407 1.484t1.093.5q.735 0 1.125-.516.39-.531.39-1.468 0-.922-.39-1.454-.375-.546-1.125-.546-.687 0-1.093.5-.407.5-.407 1.5m7.58-5.47v8.563h-1.703v-8.562zm8.772 0q1.344 0 2.125.75t.781 2q0 1.235-.781 1.985t-2.125.75h-2.03v3.078h-1.89v-8.562zm-.516 4.032q.813 0 1.203-.297.391-.312.391-.984 0-.656-.39-.969-.376-.328-1.204-.328h-1.515v2.578zm6.176-4.031v8.562h-1.703v-8.562zm4.188 2.187q1.375 0 2.046.453.672.454.672 1.282v3.328q0 .375.047.75t.172.562h-1.734q-.047-.14-.078-.281-.032-.156-.047-.312-.36.375-.891.578-.516.187-1.187.187-.97 0-1.547-.484-.563-.485-.563-1.375 0-.875.531-1.328.547-.47 1.97-.625.984-.094 1.296-.235.328-.156.328-.531 0-.406-.25-.61-.234-.218-.844-.218-.53 0-.812.234-.281.219-.328.703h-1.703q.062-1.015.828-1.546.781-.532 2.094-.532m-1.407 4.61q0 .375.25.593.25.204.797.204.672 0 1.016-.36.36-.36.36-1.047v-.656q-.157.125-.407.188-.25.046-.89.14-.594.078-.86.313-.266.218-.266.625m9-4.61q1.188 0 1.719.61.547.593.547 1.89v3.875h-1.703v-3.562q0-.719-.25-1.094t-.844-.375q-.703 0-1.016.422-.312.422-.312 1.297v3.312h-1.688v-6.203h1.61v.86h.031q.313-.5.813-.766t1.093-.266m6.426 0q1.375 0 2.203.953.828.938.828 2.422l-.015.313h-4.485q.047.797.422 1.187.39.39 1.094.39.469 0 .86-.233.39-.25.5-.579h1.5q-.344 1.047-1.063 1.579-.719.515-1.844.515-1.437 0-2.312-.906-.86-.906-.86-2.36 0-1.39.89-2.328.891-.953 2.282-.953m-1.469 2.61h2.782q-.125-.688-.454-1-.312-.328-.921-.328-.61 0-.985.359-.36.344-.422.969"/>
    <path fill="#e03875" fill-rule="evenodd" d="M30.791 415.369v13.396l5.857-6.287a.73.73 0 0 1 1.086 0c.3.323.3.844 0 1.167l-7.167 7.692a.8.8 0 0 1-.25.178.72.72 0 0 1-.587 0 .8.8 0 0 1-.25-.178l-7.167-7.692a.86.86 0 0 1-.225-.584.86.86 0 0 1 .225-.583.73.73 0 0 1 1.086 0l5.857 6.287v-13.396c0-.455.344-.825.767-.825.425 0 .768.37.768.825"/>
    <path d="M30.023 420.041V385.42"/>
    <path stroke="#e03875" stroke-linecap="butt" stroke-linejoin="round" d="M30.023 420.041V385.42"/>
    <path d="M48.645 385.418h84.41v46.173h-84.41z"/>
    <path fill="#000" d="M55.223 390.376q1.719 0 2.781 1.125 1.063 1.11 1.063 3.11t-1.047 3.171q-1.031 1.156-2.797 1.156h-3.75v-8.562zm-.14 6.984q.906 0 1.5-.64.593-.657.593-1.938 0-1.484-.625-2.156t-1.797-.672h-1.39v5.406zm7.956-4.797q1.375 0 2.047.453.672.454.672 1.282v3.328q0 .375.047.75t.172.562h-1.734q-.047-.14-.079-.281-.03-.156-.046-.312-.36.375-.891.578-.516.187-1.188.187-.968 0-1.546-.484-.563-.485-.563-1.375 0-.875.531-1.328.547-.47 1.97-.625.983-.094 1.296-.235.328-.156.328-.531 0-.406-.25-.61-.234-.218-.844-.218-.53 0-.812.234-.281.219-.328.703h-1.703q.062-1.015.828-1.546.781-.532 2.093-.532m-1.406 4.61q0 .375.25.593.25.204.797.204.672 0 1.016-.36.36-.36.36-1.047v-.656q-.157.125-.407.188-.25.046-.89.14-.595.078-.86.313-.266.218-.266.625m7.61-6.297v1.86h1.25v1.14h-1.25v3.11q0 .374.14.53t.578.157q.141 0 .266-.016l.266-.031v1.328q-.22.031-.485.047-.25.015-.5.015-1.11 0-1.547-.375-.422-.39-.422-1.062v-3.703h-1.03v-1.14h1.03v-1.86zm4.912 1.687q1.375 0 2.047.453.671.454.671 1.282v3.328q0 .375.047.75t.172.562h-1.734q-.047-.14-.078-.281-.032-.156-.047-.312-.36.375-.89.578-.516.187-1.188.187-.97 0-1.547-.484-.563-.485-.563-1.375 0-.875.532-1.328.546-.47 1.968-.625.985-.094 1.297-.235.328-.156.328-.531 0-.406-.25-.61-.234-.218-.843-.218-.532 0-.813.234-.281.219-.328.703h-1.703q.062-1.015.828-1.546.781-.532 2.094-.532m-1.407 4.61q0 .375.25.593.25.204.797.204.672 0 1.016-.36.36-.36.36-1.047v-.656q-.157.125-.407.188-.25.046-.89.14-.594.078-.86.313-.266.218-.266.625m12.881-6.797q1.344 0 2.125.75.782.75.782 2 0 1.234-.782 1.984-.78.75-2.125.75H83.6v3.078h-1.892v-8.562zm-.515 4.031q.812 0 1.203-.297.39-.312.39-.984 0-.656-.39-.969-.375-.328-1.203-.328h-1.516v2.578zm6.175-4.031v8.562h-1.703v-8.562zm4.188 2.187q1.375 0 2.047.453.672.454.672 1.282v3.328q0 .375.047.75.046.375.171.562H96.68q-.047-.14-.078-.281-.031-.156-.047-.312-.36.375-.89.578-.516.187-1.188.187-.969 0-1.547-.484-.562-.485-.562-1.375 0-.875.53-1.328.548-.47 1.97-.625.984-.094 1.296-.235.329-.156.329-.531 0-.406-.25-.61-.235-.218-.844-.218-.531 0-.813.234-.28.219-.328.703h-1.703q.063-1.015.828-1.546.781-.532 2.094-.532m-1.406 4.61q0 .375.25.593.25.204.797.204.671 0 1.015-.36.36-.36.36-1.047v-.656q-.157.125-.407.188-.25.046-.89.14-.594.078-.86.313-.265.218-.265.625m9-4.61q1.187 0 1.718.61.547.593.547 1.89v3.875h-1.703v-3.562q0-.719-.25-1.094t-.844-.375q-.703 0-1.015.422-.313.422-.313 1.297v3.312h-1.687v-6.203h1.61v.86h.03q.313-.5.813-.766t1.094-.266m6.425 0q1.375 0 2.204.953.828.938.828 2.422l-.016.313h-4.484q.047.797.422 1.187.39.39 1.093.39.47 0 .86-.233.39-.25.5-.579h1.5q-.344 1.047-1.063 1.579-.719.515-1.844.515-1.437 0-2.312-.906-.86-.906-.86-2.36 0-1.39.891-2.328.89-.953 2.281-.953m-1.468 2.61h2.781q-.125-.688-.453-1-.313-.328-.922-.328-.61 0-.984.359-.36.344-.422.969"/>
  </g>
</svg>
