<svg xmlns="http://www.w3.org/2000/svg" fill="none" stroke-linecap="square" stroke-miterlimit="10" viewBox="0 0 960 540">
  <clipPath id="a">
    <path d="M0 0h960v540H0z"/>
  </clipPath>
  <g clip-path="url(#a)">
    <path fill="#fff" fill-rule="evenodd" d="M0 0h960v540H0z"/>
    <path d="M205.674 160.987h163.842v64.031H205.674z"/>
    <path fill="#000" d="M236.434 165.944v6.984h4.172v1.579h-6.063v-8.563zm7.693 2.188q1.375 0 2.203.953.829.937.829 2.422l-.016.312h-4.484q.046.797.421 1.188.391.39 1.094.39.469 0 .86-.234.39-.25.5-.578h1.5q-.344 1.047-1.063 1.578-.719.515-1.844.515-1.437 0-2.312-.906-.86-.906-.86-2.36 0-1.39.891-2.327.89-.953 2.281-.953m-1.468 2.609h2.78q-.124-.688-.452-1-.313-.328-.922-.328-.61 0-.985.36-.359.343-.421.968m8.343-2.61q1.375 0 2.047.454.672.453.672 1.28v3.329q0 .375.047.75t.172.563h-1.735q-.046-.141-.078-.282-.031-.156-.047-.312-.359.375-.89.578-.516.187-1.188.187-.968 0-1.547-.484-.562-.484-.562-1.375 0-.875.531-1.328.547-.469 1.969-.625.984-.094 1.297-.234.328-.157.328-.532 0-.406-.25-.61-.234-.218-.844-.218-.531 0-.812.235-.282.218-.328.703h-1.704q.063-1.016.829-1.547.78-.531 2.093-.531m-1.406 4.61q0 .375.25.594.25.203.797.203.672 0 1.016-.36.359-.359.359-1.046v-.657q-.156.125-.406.188-.25.047-.891.14-.594.079-.86.313-.265.219-.265.625m11.5-6.797v8.563h-1.625v-.797h-.031q-.266.484-.75.734-.485.234-1.125.234-1.266 0-2.031-.937-.75-.938-.75-2.39 0-1.391.734-2.298.75-.921 2.016-.921.578 0 1.046.234.485.234.782.687h.03v-3.109zm-4.61 5.453q0 .86.391 1.438.407.562 1.11.562t1.078-.515q.375-.532.375-1.5 0-.907-.375-1.438-.36-.531-1.094-.531-.703 0-1.094.531-.39.531-.39 1.453m8.753-3.265q1.375 0 2.203.953.828.937.828 2.422l-.016.312h-4.484q.047.797.422 1.188.39.39 1.093.39.47 0 .86-.234.39-.25.5-.578h1.5q-.344 1.047-1.063 1.578-.718.515-1.843.515-1.438 0-2.313-.906-.86-.906-.86-2.36 0-1.39.891-2.327.891-.953 2.282-.953m-1.47 2.609h2.782q-.125-.688-.453-1-.313-.328-.922-.328-.61 0-.984.36-.36.343-.422.968m9.11-2.61q.11 0 .203.016t.172.047v1.578q-.14-.031-.281-.031-.14-.016-.328-.016-.86 0-1.281.532-.407.515-.407 1.406v2.844h-1.687v-6.204h1.61v1.157h.03q.266-.61.797-.97.547-.358 1.172-.358m10.582-2.187v1.578h-4.125v1.985h3.578v1.453h-3.578v3.547h-1.89v-8.563zm3.422 2.188q1.469 0 2.344.906.875.89.875 2.375t-.89 2.375q-.876.89-2.329.89-1.437 0-2.328-.89-.875-.906-.875-2.375t.86-2.375q.874-.906 2.343-.906m-1.5 3.28q0 .985.406 1.485t1.094.5q.735 0 1.125-.515.39-.532.39-1.47 0-.921-.39-1.452-.375-.547-1.125-.547-.687 0-1.094.5-.406.5-.406 1.5m9.44-3.28q.109 0 .203.015.093.016.172.047v1.578q-.141-.031-.282-.031-.14-.016-.328-.016-.86 0-1.281.532-.406.515-.406 1.406v2.844h-1.688v-6.204h1.61v1.157h.03q.266-.61.798-.97.547-.358 1.172-.358m2.425.171 1.141 4.204h.016l1.03-4.204h1.657l1.063 4.204h.015l1.157-4.204h1.75l-1.97 6.204h-1.75l-1.093-4.172h-.031l-1.063 4.172h-1.75l-1.968-6.204zm11.393-.171q1.375 0 2.047.453t.672 1.28v3.329q0 .375.047.75.046.375.171.563h-1.734q-.047-.141-.078-.282-.031-.156-.047-.312-.36.375-.89.578-.516.187-1.188.187-.969 0-1.547-.484-.562-.484-.562-1.375 0-.875.53-1.328.548-.469 1.97-.625.984-.094 1.296-.234.329-.157.329-.532 0-.406-.25-.61-.235-.218-.844-.218-.531 0-.813.235-.28.218-.328.703h-1.703q.063-1.016.828-1.547.781-.531 2.094-.531m-1.406 4.609q0 .375.25.594.25.203.797.203.671 0 1.015-.36.36-.359.36-1.046v-.657q-.157.125-.407.188-.25.047-.89.14-.594.079-.86.313-.265.219-.265.625m9.062-4.61q.11 0 .203.016t.172.047v1.578q-.14-.031-.281-.031-.14-.016-.328-.016-.86 0-1.281.532-.407.515-.407 1.406v2.844h-1.687v-6.204h1.61v1.157h.03q.266-.61.797-.97.547-.358 1.172-.358m7.014-2.187v8.563h-1.625v-.797h-.031q-.266.484-.75.734-.485.234-1.125.234-1.266 0-2.032-.937-.75-.938-.75-2.39 0-1.391.735-2.298.75-.921 2.015-.921.579 0 1.047.234.485.234.782.687h.03v-3.109zm-4.61 5.453q0 .86.391 1.438.406.562 1.11.562.703 0 1.078-.515.375-.532.375-1.5 0-.907-.375-1.438-.36-.531-1.094-.531-.703 0-1.094.531-.39.531-.39 1.453m7.643-5.453v1.39h-1.703v-1.39zm0 2.36v6.203h-1.703v-6.204zm4.89-.172q1.188 0 1.72.609.546.594.546 1.89v3.876H331.8v-3.563q0-.719-.25-1.094t-.844-.375q-.703 0-1.015.422-.313.422-.313 1.297v3.313h-1.687v-6.204h1.61v.86h.03q.313-.5.813-.766.5-.265 1.094-.265m6.036 0q.672 0 1.11.265.452.25.734.735h.03v-.829h1.61v5.86q0 1.25-.797 1.969-.796.718-2.406.718-1.094 0-1.89-.531-.782-.516-.86-1.453h1.688q.125.453.453.656t.828.203q.656 0 1.016-.406.359-.39.359-1.094v-.86h-.031q-.25.454-.75.704-.485.25-1.11.25-1.25 0-1.953-.828t-.703-2.281q0-1.313.734-2.188.735-.89 1.938-.89m-.969 3.046q0 .875.36 1.375.375.485 1.03.485.673 0 1.063-.485.39-.5.39-1.234 0-.906-.374-1.406-.375-.5-1.094-.5-.625 0-1 .484-.375.485-.375 1.281"/>
    <path fill="#dc477d" fill-rule="evenodd" d="M33.641 172.566a3.875 3.875 0 0 1 3.876-3.875h131.777a3.875 3.875 0 0 1 3.875 3.875V304.31a3.875 3.875 0 0 1-3.875 3.876H37.517a3.875 3.875 0 0 1-3.876-3.876z"/>
    <path fill="#fff" fill-rule="evenodd" d="M103.735 277.461c-21.492.018-38.928-17.445-38.946-39.005-.017-21.559 17.39-39.05 38.883-39.068a38.85 38.85 0 0 1 26.39 10.318l-9.235 9.692c-10.48-9.5-26.65-8.678-36.12 1.834s-8.651 26.734 1.828 36.233c9.737 8.827 24.554 8.827 34.292 0l9.235 9.692a38.7 38.7 0 0 1-26.327 10.304m31.314-19.525a3.195 3.195 0 0 1-3.19-3.2c0-1.767 1.428-3.2 3.19-3.2a3.194 3.194 0 0 1 3.19 3.2 3.2 3.2 0 0 1-3.19 3.2"/>
    <path fill="#fff" fill-rule="evenodd" d="M103.487 246.883c-4.653 0-8.425-3.784-8.425-8.451s3.772-8.452 8.425-8.452 8.425 3.784 8.425 8.452c-.004 4.666-3.774 8.447-8.425 8.451m35.213.121a3.194 3.194 0 0 1-3.19-3.2 3.195 3.195 0 0 1 3.19-3.199 3.194 3.194 0 0 1 3.19 3.2 3.2 3.2 0 0 1-3.19 3.2m-9.476-.364a3.195 3.195 0 0 1-3.19-3.2c0-1.767 1.428-3.2 3.19-3.2a3.195 3.195 0 0 1 3.19 3.2c0 1.768-1.429 3.2-3.19 3.2m9.476-10.39a3.194 3.194 0 0 1-3.19-3.2c0-1.767 1.428-3.2 3.19-3.2a3.194 3.194 0 0 1 3.19 3.2 3.2 3.2 0 0 1-3.19 3.2m-9.476.364a3.195 3.195 0 0 1-3.19-3.2c0-1.767 1.428-3.2 3.19-3.2a3.195 3.195 0 0 1 3.19 3.2v.007a3.195 3.195 0 0 1-3.19 3.193m6.009-11.125a3.195 3.195 0 0 1-3.196-3.192 3.195 3.195 0 0 1 3.182-3.206 3.195 3.195 0 0 1 3.197 3.192v.007a3.195 3.195 0 0 1-3.183 3.2"/>
    <path d="M21.483 310.995h163.843v64.41H21.483z"/>
    <path fill="#000" d="M67.767 315.75q1.453 0 2.484.828 1.031.812 1.203 2.25h-1.812q-.125-.672-.672-1.078-.547-.422-1.203-.422-1.11 0-1.719.812-.61.797-.61 2.125 0 1.266.594 2.063.61.797 1.735.797.812 0 1.312-.5.516-.5.625-1.407h1.828q-.156 1.625-1.187 2.563-1.016.937-2.578.937-1.235 0-2.203-.562-.97-.563-1.5-1.594-.516-1.031-.516-2.297 0-1.969 1.156-3.234 1.156-1.281 3.063-1.281m7.879 2.39q1.468 0 2.343.906.875.891.875 2.375 0 1.485-.89 2.375-.875.891-2.328.891-1.438 0-2.329-.89-.875-.907-.875-2.376t.86-2.375q.875-.906 2.344-.906m-1.5 3.281q0 .985.406 1.485t1.094.5q.734 0 1.125-.516.39-.531.39-1.469 0-.921-.39-1.453-.375-.547-1.125-.547-.688 0-1.094.5t-.406 1.5m9.377-3.28q1.187 0 1.718.609.547.593.547 1.89v3.875h-1.703v-3.562q0-.719-.25-1.094t-.844-.375q-.703 0-1.015.422-.313.422-.313 1.297v3.312h-1.687v-6.203h1.61v.86h.03q.313-.5.813-.766t1.094-.266m6.097 0q1.266 0 1.953.5.703.5.797 1.484h-1.625q-.047-.438-.344-.641-.28-.203-.828-.203-.484 0-.718.156-.22.14-.22.422t.298.469q.297.187 1.187.36 1.422.265 1.906.702.5.438.5 1.14 0 1.048-.78 1.61-.766.547-2.048.547-1.297 0-2.078-.547t-.844-1.64h1.625q0 .484.375.765t.938.281q.5 0 .797-.218.312-.219.312-.578 0-.329-.406-.532-.39-.203-1.469-.422-1.078-.218-1.547-.609-.468-.39-.468-1.062 0-.985.687-1.485.703-.5 2-.5m5.602.171v3.547q0 .703.25 1.094.25.39.86.39.702 0 1-.422.312-.437.312-1.296v-3.313h1.703v6.203h-1.625v-.86h-.031q-.329.516-.844.782-.5.25-1.063.25-1.156 0-1.703-.594-.547-.593-.547-1.906v-3.875zm7.176-2.36v8.563h-1.704v-8.562zm7.802-.202q1.547 0 2.485.718.937.72.937 2.032h-1.812q-.047-.641-.453-.97-.391-.327-1.235-.327-.578 0-.953.265-.36.25-.36.72 0 .312.157.468.156.156.625.344.469.171 2.062.546 1.063.25 1.657.875.61.61.61 1.547 0 1.25-.938 2t-2.625.75q-1.61 0-2.641-.797-1.016-.796-1.016-2.203v-.047h1.828q0 .797.516 1.188.531.39 1.375.39.766 0 1.219-.265.453-.281.453-.797 0-.422-.36-.687-.343-.266-1.109-.454-.984-.218-1.781-.468t-1.328-.813-.531-1.437q0-1.157.921-1.86.938-.718 2.297-.718m7.522 2.39q1.375 0 2.203.953.828.938.828 2.422l-.016.313h-4.484q.047.797.422 1.187.39.39 1.094.39.468 0 .859-.234.39-.25.5-.578h1.5q-.344 1.047-1.062 1.578-.72.516-1.844.516-1.438 0-2.313-.906-.86-.906-.86-2.36 0-1.39.892-2.328.89-.953 2.28-.953m-1.469 2.61h2.781q-.125-.688-.453-1-.312-.329-.922-.329t-.984.36q-.36.344-.422.969m9.11-2.61q.109 0 .203.016.093.015.171.047v1.578q-.14-.031-.28-.031-.141-.016-.329-.016-.86 0-1.281.531-.406.516-.406 1.406v2.844h-1.688v-6.203h1.61v1.156h.03q.266-.609.798-.968.546-.36 1.171-.36m2.394.172 1.312 4.234h.032l1.297-4.234h1.703l-2.11 6.203h-1.89l-2.125-6.203zm7.912-.172q1.375 0 2.203.953.828.938.828 2.422l-.015.313H134.2q.047.797.422 1.187.39.39 1.094.39.469 0 .86-.234.39-.25.5-.578h1.5q-.344 1.047-1.063 1.578-.719.516-1.844.516-1.437 0-2.312-.906-.86-.906-.86-2.36 0-1.39.89-2.328.891-.953 2.282-.953m-1.469 2.61h2.782q-.125-.688-.454-1-.312-.329-.921-.329-.61 0-.985.36-.36.344-.422.969m9.11-2.61q.11 0 .203.016.094.015.172.047v1.578q-.14-.031-.282-.031-.14-.016-.328-.016-.86 0-1.28.531-.407.516-.407 1.406v2.844H139.7v-6.203h1.61v1.156h.03q.267-.609.798-.968.547-.36 1.172-.36M79.102 329.75q-.641 1.187-.985 2.578-.328 1.39-.328 2.86 0 1.468.313 2.843.312 1.36.984 2.672h-1.422q-.765-1.282-1.172-2.672t-.406-2.735q0-1.39.406-2.906.407-1.515 1.172-2.64zm6.754.203v1.578H81.73v1.984h3.578v1.453H81.73v3.547h-1.89v-8.562zm3.421 2.187q1.47 0 2.344.906.875.891.875 2.375 0 1.485-.89 2.375-.875.891-2.329.891-1.437 0-2.328-.89-.875-.907-.875-2.376t.86-2.375q.875-.906 2.343-.906m-1.5 3.281q0 .985.407 1.485t1.093.5q.735 0 1.125-.516.391-.531.391-1.469 0-.921-.39-1.453-.376-.547-1.126-.547-.687 0-1.093.5-.407.5-.407 1.5m7.58-5.468v8.562h-1.703v-8.562zm3.094 0v8.562h-1.703v-8.562zm4.344 2.187q1.469 0 2.344.906.875.891.875 2.375 0 1.485-.89 2.375-.876.891-2.329.891-1.437 0-2.328-.89-.875-.907-.875-2.376t.86-2.375q.874-.906 2.343-.906m-1.5 3.281q0 .985.406 1.485t1.094.5q.734 0 1.125-.516.39-.531.39-1.469 0-.921-.39-1.453-.375-.547-1.125-.547-.687 0-1.094.5-.406.5-.406 1.5m7.049-3.109 1.14 4.203h.016l1.031-4.203h1.657l1.062 4.203h.016l1.156-4.203h1.75l-1.969 6.203h-1.75l-1.094-4.172h-.03l-1.063 4.172h-1.75l-1.969-6.203zm11.408-.172q1.375 0 2.203.953.828.938.828 2.422l-.015.313h-4.485q.047.797.422 1.187.39.39 1.094.39.469 0 .86-.234.39-.25.5-.578h1.5q-.344 1.047-1.063 1.578-.719.516-1.844.516-1.437 0-2.312-.906-.86-.906-.86-2.36 0-1.39.89-2.328.891-.953 2.282-.953m-1.469 2.61h2.782q-.125-.688-.454-1-.312-.329-.921-.329-.61 0-.985.36-.36.344-.422.969m9.11-2.61q.11 0 .203.016.094.015.172.047v1.578q-.14-.031-.282-.031-.14-.016-.328-.016-.86 0-1.28.531-.407.516-.407 1.406v2.844h-1.688v-6.203h1.61v1.156h.03q.267-.609.798-.968.547-.36 1.172-.36m1.748-2.39q.781 1.265 1.187 2.656.406 1.39.406 2.75 0 1.375-.421 2.906-.407 1.516-1.172 2.64h-1.422q.656-1.25.969-2.609.328-1.375.328-2.812 0-1.5-.328-2.875-.313-1.39-.97-2.656z"/>
    <path d="m197.474 271.821 180.22.63"/>
    <path stroke="#e03875" stroke-linecap="butt" stroke-miterlimit="400" stroke-width="2" d="m209.474 271.863 168.22.588"/>
    <path fill="#e03875" fill-rule="evenodd" stroke="#e03875" stroke-linecap="butt" stroke-width="2" d="m209.486 268.56-9.088 3.272 9.065 3.335z"/>
    <path d="M213.874 234.592h163.842v34.204H213.874z"/>
    <path fill="#000" d="M268.986 239.55q1.032 0 1.735.671.719.656.719 1.688 0 .812-.344 1.343-.328.532-1.016.797v.031q.61.157.922.72.328.562.36 1.718.03 1.172.328 1.594h-1.875q-.172-.422-.235-1.344-.078-1.266-.422-1.625-.328-.375-1.031-.375h-1.922v3.344h-1.89v-8.563zm-.687 3.874q.594 0 .922-.281.344-.297.344-.953 0-.61-.329-.89-.312-.298-.937-.298h-2.094v2.422zm7.37-1.687q1.374 0 2.202.953.828.937.828 2.422l-.015.312h-4.485q.047.797.422 1.188.39.39 1.094.39.469 0 .86-.234.39-.25.5-.578h1.5q-.344 1.047-1.063 1.578-.719.516-1.844.516-1.437 0-2.312-.907-.86-.906-.86-2.36 0-1.39.89-2.327.891-.953 2.282-.953m-1.47 2.609h2.782q-.125-.687-.454-1-.312-.328-.921-.328-.61 0-.985.36-.36.343-.422.968m8.985-2.61q1.328 0 2.078.923.75.921.75 2.421 0 1.375-.75 2.297-.735.907-1.985.907-.562 0-1.062-.235-.484-.25-.797-.703h-.031v2.953h-1.688v-8.39h1.61v.78h.03q.298-.484.767-.718.484-.234 1.078-.234m-1.844 3.298q0 .89.375 1.437.375.531 1.11.531.702 0 1.077-.515.391-.516.391-1.453 0-.891-.375-1.454t-1.125-.562q-.703 0-1.078.531t-.375 1.485m7.44-5.485v8.563h-1.704v-8.563zm3.093 0v1.39h-1.703v-1.39zm0 2.36v6.203h-1.703v-6.203zm4.313-.172q1.203 0 2.015.625.828.625.907 1.734h-1.672q-.078-.531-.407-.797-.312-.281-.859-.281-.687 0-1.078.562-.375.563-.375 1.454 0 .89.375 1.437.375.531 1.047.531.562 0 .906-.328.36-.328.453-.937h1.64q-.171 1.218-.968 1.89-.781.657-2.016.657-1.39 0-2.265-.891-.875-.89-.875-2.297 0-1.5.86-2.422.859-.937 2.312-.937m6.765 0q1.375 0 2.047.453t.672 1.281v3.328q0 .375.047.75t.172.563h-1.735q-.046-.141-.078-.282-.031-.156-.047-.312-.359.375-.89.578-.516.188-1.188.188-.968 0-1.547-.485-.562-.484-.562-1.375 0-.875.531-1.328.547-.469 1.969-.625.984-.094 1.297-.234.328-.157.328-.532 0-.406-.25-.609-.234-.219-.844-.219-.531 0-.812.235-.282.218-.328.703h-1.704q.063-1.016.829-1.547.78-.531 2.093-.531m-1.406 4.609q0 .375.25.594.25.203.797.203.672 0 1.016-.36.359-.359.359-1.046v-.657q-.156.125-.406.188-.25.047-.891.14-.594.079-.86.313-.265.219-.265.625m7.61-6.297v1.86h1.25v1.14h-1.25v3.11q0 .375.14.53.14.157.578.157.14 0 .266-.016l.265-.03v1.327q-.218.032-.484.047-.25.016-.5.016-1.11 0-1.547-.375-.422-.39-.422-1.063v-3.703h-1.031v-1.14h1.031v-1.86zm3.818-.5v1.39h-1.703v-1.39zm0 2.36v6.203h-1.703v-6.203zm4.343-.172q1.47 0 2.344.906.875.89.875 2.375t-.89 2.375q-.875.89-2.329.89-1.437 0-2.328-.89-.875-.906-.875-2.375t.86-2.375q.875-.906 2.343-.906m-1.5 3.28q0 .985.407 1.485t1.093.5q.735 0 1.125-.515.391-.532.391-1.47 0-.921-.39-1.452-.376-.547-1.126-.547-.687 0-1.093.5-.407.5-.407 1.5m9.377-3.28q1.188 0 1.72.609.546.594.546 1.89v3.876h-1.703v-3.563q0-.719-.25-1.094t-.844-.375q-.703 0-1.015.422-.313.422-.313 1.297v3.313h-1.687v-6.203h1.609v.859h.031q.313-.5.813-.766.5-.265 1.093-.265"/>
    <path d="m205.674 224.49 180.22.63"/>
    <path stroke="#e03875" stroke-linecap="butt" stroke-miterlimit="400" stroke-width="2" d="m205.674 224.49 168.22.588"/>
    <path fill="#e03875" fill-rule="evenodd" stroke="#e03875" stroke-linecap="butt" stroke-width="2" d="m373.883 228.381 9.088-3.272-9.065-3.335z"/>
    <path d="M213.874 275.353h163.842v34.205H213.874z"/>
    <path fill="#000" d="M275.457 280.31v1.579h-2.562v6.984h-1.891v-6.984h-2.563v-1.578zm4.473-.202q1.453 0 2.484.828 1.031.812 1.203 2.25h-1.812q-.125-.672-.672-1.078-.547-.422-1.203-.422-1.11 0-1.719.812-.61.797-.61 2.125 0 1.266.594 2.063.61.797 1.735.797.812 0 1.312-.5.516-.5.625-1.407h1.828q-.156 1.625-1.187 2.563-1.016.937-2.578.937-1.235 0-2.203-.562-.97-.563-1.5-1.594-.516-1.031-.516-2.297 0-1.968 1.156-3.234 1.157-1.281 3.063-1.281m8.972.203q1.344 0 2.125.75.782.75.782 2 0 1.234-.782 1.984-.78.75-2.125.75h-2.03v3.078h-1.891v-8.562zm-.515 4.031q.812 0 1.203-.297.39-.312.39-.984 0-.656-.39-.969-.375-.328-1.203-.328h-1.516v2.578zm8.347-4.234-3.343 8.968h-1.375l3.36-8.968zm3.235.203q1.297 0 2.047.703t.75 1.547q0 .61-.313 1.078-.297.469-.906.687v.016q.781.188 1.172.734.39.547.39 1.329 0 1.203-.906 1.921-.906.72-2.234.72-1.39 0-2.297-.704-.89-.703-.89-1.937 0-.797.406-1.329.421-.546 1.171-.734v-.016q-.593-.171-.921-.625-.313-.468-.313-1.109 0-1.016.828-1.64.844-.641 2.016-.641m-1.297 2.437q0 .485.36.797.359.313.921.313.578 0 .922-.297t.344-.813-.328-.828q-.313-.328-.938-.328-.578 0-.937.328-.344.328-.344.828m-.188 3.578q0 .61.422 1.032.438.406 1.063.406t1.031-.406.406-1.016q0-.578-.422-.953-.406-.39-1.03-.39-.61 0-1.048.359-.422.343-.422.968m8.112-6.015q1.14 0 1.984.656t.844 1.672q0 .61-.313 1.078-.296.453-.875.625v.031q.704.157 1.094.688.406.515.406 1.219 0 1.234-.906 2-.906.765-2.219.765-1.421 0-2.28-.797-.845-.812-.845-2.172v-.093h1.625q.032.78.422 1.218t1.047.438q.61 0 .985-.375.39-.39.39-.953 0-.625-.375-.922-.375-.313-1.39-.313h-.188v-1.203h.297q.719 0 1.11-.265.39-.282.39-.782t-.344-.812q-.328-.313-.844-.313-.578 0-.937.391-.344.375-.36 1.11h-1.624q.046-1.313.843-2.094.797-.797 2.063-.797m6.69 0q1.5 0 2.296 1.094.797 1.093.797 3.234 0 2.156-.797 3.281-.781 1.125-2.297 1.125-1.5 0-2.297-1.11-.78-1.124-.78-3.296 0-2.125.78-3.219.782-1.11 2.297-1.11m-1.376 4.344q0 1.296.172 1.89.188.578.484.844.297.25.72.25.671 0 1.03-.656.36-.672.36-2.344 0-1.61-.36-2.266-.359-.672-1.046-.672-.641 0-1 .641-.36.64-.36 2.313m8.05-4.344q1.5 0 2.296 1.094.797 1.093.797 3.234 0 2.156-.797 3.281-.781 1.125-2.297 1.125-1.5 0-2.297-1.11-.781-1.124-.781-3.296 0-2.125.781-3.219.781-1.11 2.297-1.11m-1.376 4.344q0 1.296.172 1.89.187.578.484.844.297.25.72.25.67 0 1.03-.656.36-.672.36-2.344 0-1.61-.36-2.266-.36-.672-1.047-.672-.64 0-1 .641-.359.64-.359 2.313"/>
    <path fill="#dc477d" fill-rule="evenodd" d="M410.229 171.805a3.875 3.875 0 0 1 3.875-3.875h131.777a3.875 3.875 0 0 1 3.876 3.875v131.746a3.875 3.875 0 0 1-3.876 3.875H414.104a3.875 3.875 0 0 1-3.875-3.875z"/>
    <path fill="#fff" fill-rule="evenodd" d="M480.323 276.7c-21.492.018-38.929-17.445-38.946-39.004-.018-21.56 17.39-39.051 38.882-39.069a38.85 38.85 0 0 1 26.39 10.319l-9.235 9.691c-10.479-9.5-26.65-8.678-36.12 1.834s-8.65 26.734 1.828 36.234c9.738 8.827 24.555 8.827 34.292 0l9.235 9.691a38.7 38.7 0 0 1-26.326 10.304m31.313-19.525a3.195 3.195 0 0 1-3.19-3.2c0-1.767 1.429-3.2 3.19-3.2a3.194 3.194 0 0 1 3.19 3.2 3.2 3.2 0 0 1-3.19 3.2"/>
    <path fill="#fff" fill-rule="evenodd" d="M480.074 246.122c-4.653 0-8.425-3.783-8.425-8.451s3.772-8.452 8.425-8.452 8.425 3.784 8.425 8.452c-.004 4.666-3.773 8.447-8.425 8.451m35.214.122a3.194 3.194 0 0 1-3.19-3.2c0-1.767 1.428-3.2 3.19-3.2a3.194 3.194 0 0 1 3.19 3.2 3.2 3.2 0 0 1-3.19 3.2m-9.477-.364a3.195 3.195 0 0 1-3.19-3.2 3.195 3.195 0 0 1 3.19-3.199 3.195 3.195 0 0 1 3.19 3.2c0 1.767-1.428 3.2-3.19 3.2m9.477-10.391a3.194 3.194 0 0 1-3.19-3.2 3.195 3.195 0 0 1 3.19-3.199 3.194 3.194 0 0 1 3.19 3.2 3.2 3.2 0 0 1-3.19 3.2m-9.477.363a3.195 3.195 0 0 1-3.19-3.2c0-1.767 1.429-3.2 3.19-3.2a3.195 3.195 0 0 1 3.19 3.2v.007a3.195 3.195 0 0 1-3.19 3.193m6.009-11.124a3.195 3.195 0 0 1-3.196-3.193 3.195 3.195 0 0 1 3.183-3.206 3.195 3.195 0 0 1 3.196 3.192v.007a3.195 3.195 0 0 1-3.182 3.2"/>
    <path d="M398.07 310.234h163.843v64.41H398.071z"/>
    <path fill="#000" d="M444.354 314.989q1.453 0 2.485.828 1.03.812 1.203 2.25h-1.813q-.125-.672-.672-1.078-.546-.422-1.203-.422-1.11 0-1.718.812-.61.797-.61 2.125 0 1.266.594 2.063.61.797 1.734.797.813 0 1.313-.5.515-.5.625-1.406h1.828q-.156 1.625-1.188 2.562-1.015.938-2.578.938-1.234 0-2.203-.563t-1.5-1.594q-.515-1.03-.515-2.297 0-1.968 1.156-3.234 1.156-1.281 3.062-1.281m7.88 2.39q1.468 0 2.343.907.875.89.875 2.375t-.89 2.375q-.876.89-2.329.89-1.437 0-2.328-.89-.875-.907-.875-2.375 0-1.47.86-2.375.874-.907 2.343-.907m-1.5 3.282q0 .984.405 1.484.407.5 1.094.5.735 0 1.125-.516.39-.53.39-1.468 0-.922-.39-1.453-.375-.547-1.125-.547-.687 0-1.094.5-.406.5-.406 1.5m9.376-3.282q1.188 0 1.719.61.547.594.547 1.89v3.875h-1.703v-3.562q0-.719-.25-1.094t-.844-.375q-.703 0-1.016.422-.312.422-.312 1.297v3.312h-1.688v-6.203h1.61v.86h.03q.313-.5.813-.766t1.094-.266m6.098 0q1.265 0 1.953.5.703.5.797 1.485h-1.625q-.047-.438-.344-.64-.281-.204-.828-.204-.484 0-.719.156-.219.14-.219.422t.297.469 1.188.36q1.422.265 1.906.702.5.438.5 1.141 0 1.047-.781 1.61-.766.546-2.047.546-1.297 0-2.078-.547-.781-.546-.844-1.64h1.625q0 .484.375.765t.938.282q.5 0 .796-.22.313-.218.313-.577 0-.328-.406-.531-.39-.204-1.47-.422-1.077-.22-1.546-.61t-.469-1.062q0-.985.688-1.485.703-.5 2-.5m5.601.172v3.547q0 .703.25 1.094.25.39.86.39.703 0 1-.421.312-.438.312-1.297v-3.313h1.703v6.203h-1.625v-.859h-.03q-.329.516-.845.781-.5.25-1.062.25-1.156 0-1.703-.593-.547-.594-.547-1.907v-3.875zm7.176-2.36v8.563h-1.703v-8.562zm7.803-.202q1.547 0 2.484.719.938.718.938 2.03h-1.813q-.047-.64-.453-.968-.39-.328-1.234-.328-.578 0-.953.266-.36.25-.36.718 0 .313.157.47.156.155.625.343.468.172 2.062.547 1.063.25 1.656.875.61.61.61 1.547 0 1.25-.938 2t-2.625.75q-1.61 0-2.64-.797-1.016-.797-1.016-2.203v-.047h1.828q0 .797.516 1.187.53.39 1.375.39.765 0 1.218-.265.454-.281.454-.797 0-.422-.36-.687-.344-.266-1.11-.453-.984-.22-1.78-.47-.797-.25-1.329-.812-.53-.562-.53-1.437 0-1.156.921-1.86.938-.718 2.297-.718m7.521 2.39q1.375 0 2.204.954.828.937.828 2.421l-.016.313h-4.484q.047.797.422 1.187.39.391 1.093.391.469 0 .86-.234.39-.25.5-.578h1.5q-.344 1.046-1.063 1.578-.719.515-1.844.515-1.437 0-2.312-.906-.86-.906-.86-2.36 0-1.39.891-2.327.89-.954 2.281-.954m-1.468 2.61h2.78q-.124-.688-.452-1-.313-.328-.922-.328-.61 0-.984.36-.36.343-.422.968m9.109-2.61q.11 0 .203.016t.172.047v1.578q-.14-.031-.281-.031-.14-.016-.328-.016-.86 0-1.282.531-.406.516-.406 1.407v2.843h-1.687v-6.203h1.609v1.157h.031q.266-.61.797-.97.547-.359 1.172-.359m2.395.172 1.312 4.235h.031l1.297-4.235h1.703l-2.11 6.203h-1.89l-2.125-6.203zm7.912-.172q1.375 0 2.203.954.828.937.828 2.421l-.016.313h-4.484q.047.797.422 1.187.39.391 1.094.391.468 0 .859-.234.39-.25.5-.578h1.5q-.344 1.046-1.063 1.578-.718.515-1.843.515-1.438 0-2.313-.906-.86-.906-.86-2.36 0-1.39.891-2.327.891-.954 2.282-.954m-1.47 2.61h2.782q-.125-.688-.453-1-.312-.328-.922-.328t-.984.36q-.36.343-.422.968m9.11-2.61q.11 0 .203.016t.172.047v1.578q-.14-.031-.281-.031-.14-.016-.328-.016-.86 0-1.281.531-.407.516-.407 1.407v2.843h-1.687v-6.203h1.61v1.157h.03q.266-.61.797-.97.547-.359 1.172-.359m-59.598 11.61q-.641 1.187-.985 2.578-.328 1.39-.328 2.86 0 1.468.313 2.843.312 1.36.984 2.672h-1.422q-.765-1.281-1.172-2.672-.406-1.39-.406-2.734 0-1.39.406-2.907.407-1.515 1.172-2.64zm2.629.203v6.984h4.171v1.578h-6.062v-8.562zm7.693 2.187q1.375 0 2.203.954.828.937.828 2.421l-.015.313h-4.485q.047.797.422 1.187.39.391 1.094.391.469 0 .86-.234.39-.25.5-.578h1.5q-.345 1.046-1.063 1.578-.72.515-1.844.515-1.438 0-2.313-.906-.859-.906-.859-2.36 0-1.39.89-2.327.891-.954 2.282-.954m-1.469 2.61h2.781q-.125-.688-.453-1-.312-.328-.922-.328-.609 0-.984.36-.36.343-.422.968m8.344-2.61q1.375 0 2.047.454.672.453.672 1.28v3.329q0 .375.047.75.046.375.171.562h-1.734q-.047-.14-.078-.28-.031-.157-.047-.313-.36.375-.89.578-.516.187-1.188.187-.969 0-1.547-.484-.562-.484-.562-1.375 0-.875.53-1.328.548-.469 1.97-.625.984-.094 1.296-.235.329-.156.329-.53 0-.407-.25-.61-.235-.219-.844-.219-.531 0-.813.234-.28.22-.328.704h-1.703q.063-1.016.828-1.547.781-.532 2.094-.532m-1.406 4.61q0 .375.25.594.25.203.797.203.671 0 1.015-.36.36-.36.36-1.047v-.656q-.157.125-.407.188-.25.047-.89.14-.594.078-.86.313-.265.219-.265.625m11.5-6.797v8.562h-1.625v-.796h-.032q-.265.484-.75.734-.484.234-1.125.234-1.265 0-2.03-.937-.75-.938-.75-2.39 0-1.391.734-2.298.75-.922 2.015-.922.578 0 1.047.235.484.234.781.687h.032v-3.11zm-4.61 5.453q0 .86.39 1.438.407.562 1.11.562t1.078-.516q.375-.53.375-1.5 0-.906-.375-1.437-.359-.531-1.093-.531-.703 0-1.094.53-.39.532-.39 1.454m8.752-3.266q1.375 0 2.203.954.829.937.829 2.421l-.016.313h-4.484q.046.797.421 1.187.391.391 1.094.391.469 0 .86-.234.39-.25.5-.578h1.5q-.344 1.046-1.063 1.578-.719.515-1.844.515-1.437 0-2.312-.906-.86-.906-.86-2.36 0-1.39.891-2.327.89-.954 2.281-.954m-1.468 2.61h2.78q-.124-.688-.452-1-.313-.328-.922-.328-.61 0-.985.36-.359.343-.421.968m9.109-2.61q.11 0 .203.016t.172.047v1.578q-.14-.031-.281-.031-.141-.016-.328-.016-.86 0-1.282.531-.406.516-.406 1.407v2.843h-1.687v-6.203h1.609v1.157h.031q.266-.61.797-.97.547-.359 1.172-.359m1.748-2.39q.781 1.265 1.187 2.656.407 1.39.407 2.75 0 1.375-.422 2.906-.406 1.516-1.172 2.64h-1.422q.656-1.25.969-2.608.328-1.375.328-2.813 0-1.5-.328-2.875-.313-1.39-.969-2.656z"/>
    <path d="m578.203 277.2 180.22.63"/>
    <path stroke="#e03875" stroke-linecap="butt" stroke-miterlimit="400" stroke-width="2" d="m578.203 277.2 168.22.587"/>
    <path fill="#e03875" fill-rule="evenodd" stroke="#e03875" stroke-linecap="butt" stroke-width="2" d="m746.412 281.09 9.088-3.271-9.065-3.335z"/>
    <path d="M588.454 239.97h163.842v34.204H588.454z"/>
    <path fill="#000" d="M643.566 244.927q1.031 0 1.735.672.718.656.718 1.687 0 .813-.343 1.344-.329.531-1.016.797v.031q.61.157.922.72.328.562.36 1.718.03 1.172.327 1.594h-1.875q-.172-.422-.234-1.344-.078-1.266-.422-1.625-.328-.375-1.031-.375h-1.922v3.344h-1.89v-8.563zm-.687 3.875q.593 0 .922-.281.343-.297.343-.953 0-.61-.328-.89-.312-.298-.937-.298h-2.094v2.422zm7.369-1.687q1.375 0 2.203.953.828.937.828 2.422l-.016.312h-4.484q.047.797.422 1.188.39.39 1.094.39.468 0 .86-.234.39-.25.5-.578h1.5q-.345 1.047-1.063 1.578-.72.515-1.844.515-1.438 0-2.313-.906-.859-.906-.859-2.36 0-1.39.89-2.327.891-.953 2.282-.953m-1.469 2.609h2.781q-.125-.688-.453-1-.312-.328-.922-.328-.609 0-.984.36-.36.343-.422.968m8.984-2.61q1.329 0 2.079.922t.75 2.422q0 1.375-.75 2.297-.735.906-1.985.906-.562 0-1.062-.234-.485-.25-.797-.703h-.031v2.953h-1.688v-8.39h1.61v.78h.03q.298-.484.766-.718.485-.234 1.078-.234m-1.843 3.297q0 .891.375 1.438.375.531 1.11.531.702 0 1.077-.515.39-.516.39-1.454 0-.89-.374-1.453-.375-.562-1.125-.562-.703 0-1.078.531t-.375 1.484m7.44-5.484v8.563h-1.704v-8.563zm3.093 0v1.39h-1.703v-1.39zm0 2.36v6.203h-1.703v-6.204zm4.312-.172q1.204 0 2.016.625.828.625.906 1.734h-1.672q-.078-.531-.406-.797-.312-.281-.86-.281-.687 0-1.077.562-.375.563-.375 1.453t.375 1.438q.375.531 1.047.531.562 0 .906-.328.36-.328.453-.937h1.64q-.171 1.218-.968 1.89-.781.656-2.016.656-1.39 0-2.265-.89t-.875-2.297q0-1.5.859-2.422.86-.937 2.312-.937m6.766 0q1.375 0 2.047.453t.672 1.281v3.328q0 .375.047.75t.172.563h-1.735q-.047-.141-.078-.282-.031-.156-.047-.312-.36.375-.89.578-.516.187-1.188.187-.969 0-1.547-.484-.562-.484-.562-1.375 0-.875.53-1.328.548-.469 1.97-.625.984-.094 1.297-.234.328-.157.328-.532 0-.406-.25-.609-.235-.219-.844-.219-.531 0-.813.235-.28.218-.328.703h-1.703q.063-1.016.828-1.547.782-.531 2.094-.531m-1.406 4.609q0 .375.25.594.25.203.797.203.672 0 1.015-.36.36-.359.36-1.046v-.657q-.157.125-.407.188-.25.047-.89.14-.594.079-.86.313-.265.219-.265.625m7.61-6.297v1.86h1.25v1.14h-1.25v3.11q0 .374.14.53t.578.157q.14 0 .266-.016l.265-.03v1.327q-.219.031-.484.047-.25.016-.5.016-1.11 0-1.547-.375-.422-.39-.422-1.063v-3.703H681v-1.14h1.031v-1.86zm3.818-.5v1.39h-1.704v-1.39zm0 2.36v6.203h-1.704v-6.204zm4.343-.172q1.469 0 2.344.906.875.89.875 2.375t-.89 2.375q-.876.89-2.329.89-1.437 0-2.328-.89-.875-.906-.875-2.375t.86-2.375q.875-.906 2.343-.906m-1.5 3.28q0 .985.407 1.485t1.093.5q.735 0 1.125-.515.39-.532.39-1.47 0-.921-.39-1.452-.375-.547-1.125-.547-.687 0-1.093.5-.407.5-.407 1.5m9.377-3.28q1.188 0 1.719.609.547.594.547 1.89v3.876h-1.703v-3.563q0-.719-.25-1.094t-.844-.375q-.703 0-1.016.422-.312.422-.312 1.297v3.313h-1.688v-6.204h1.61v.86h.031q.312-.5.812-.766.5-.265 1.094-.265"/>
    <path d="M594.603 280.731h163.843v34.205H594.603z"/>
    <path fill="#000" d="M656.186 285.689v1.578h-2.562v6.984h-1.89v-6.984h-2.563v-1.578zm4.473-.203q1.453 0 2.484.828 1.032.812 1.203 2.25h-1.812q-.125-.672-.672-1.078-.547-.422-1.203-.422-1.11 0-1.719.812-.61.797-.61 2.125 0 1.266.595 2.063.609.797 1.734.797.812 0 1.312-.5.516-.5.625-1.407h1.829q-.157 1.625-1.188 2.563-1.016.937-2.578.937-1.234 0-2.203-.562t-1.5-1.594q-.516-1.031-.516-2.297 0-1.969 1.156-3.234 1.157-1.281 3.063-1.281m8.973.203q1.343 0 2.125.75.78.75.78 2 0 1.234-.78 1.984-.782.75-2.125.75H667.6v3.078h-1.89v-8.562zm-.516 4.03q.813 0 1.203-.296.39-.312.39-.984 0-.657-.39-.97-.375-.327-1.203-.327H667.6v2.578zm8.348-4.233-3.344 8.968h-1.375l3.36-8.968zm3.234.203q1.297 0 2.047.703t.75 1.547q0 .61-.313 1.078-.296.469-.906.687v.016q.781.187 1.172.734t.39 1.328q0 1.204-.906 1.922-.906.72-2.234.72-1.39 0-2.297-.704-.89-.703-.89-1.938 0-.796.406-1.328.422-.547 1.172-.734v-.016q-.594-.172-.922-.625-.313-.468-.313-1.11 0-1.015.828-1.64.844-.64 2.016-.64m-1.297 2.437q0 .485.36.797.359.313.921.313.579 0 .922-.297t.344-.813-.328-.828q-.313-.328-.938-.328-.578 0-.937.328-.344.328-.344.828m-.187 3.578q0 .61.422 1.032.437.406 1.062.406t1.031-.406q.407-.407.407-1.016 0-.578-.422-.953-.407-.39-1.032-.39-.609 0-1.046.359-.422.343-.422.968m8.111-6.015q1.14 0 1.984.656t.844 1.672q0 .61-.312 1.078-.297.453-.875.625v.031q.703.156 1.093.688.407.515.407 1.218 0 1.235-.907 2-.906.766-2.218.766-1.422 0-2.282-.797-.843-.812-.843-2.172v-.093h1.625q.03.78.422 1.218.39.438 1.046.438.61 0 .985-.375.39-.39.39-.953 0-.625-.375-.922-.375-.313-1.39-.313h-.188v-1.203h.297q.719 0 1.11-.265.39-.282.39-.782t-.344-.812q-.328-.313-.843-.313-.578 0-.938.39-.344.376-.36 1.11h-1.624q.047-1.312.844-2.093.796-.797 2.062-.797m6.69 0q1.5 0 2.296 1.093.797 1.094.797 3.235 0 2.156-.797 3.281-.78 1.125-2.297 1.125-1.5 0-2.296-1.11-.782-1.124-.782-3.296 0-2.125.782-3.219.78-1.11 2.296-1.11m-1.376 4.343q0 1.297.172 1.891.188.578.485.844.297.25.718.25.672 0 1.032-.656.36-.672.36-2.344 0-1.61-.36-2.266-.36-.672-1.047-.672-.64 0-1 .64-.36.642-.36 2.313m8.05-4.343q1.5 0 2.296 1.093.797 1.094.797 3.235 0 2.156-.797 3.281-.781 1.125-2.297 1.125-1.5 0-2.297-1.11-.78-1.124-.78-3.296 0-2.125.78-3.219.782-1.11 2.297-1.11m-1.376 4.343q0 1.297.172 1.891.188.578.485.844.296.25.718.25.672 0 1.032-.656.359-.672.359-2.344 0-1.61-.36-2.266-.359-.672-1.046-.672-.641 0-1 .64-.36.642-.36 2.313"/>
    <path d="M588.454 166.158h163.842v64.031H588.454z"/>
    <path fill="#000" d="M619.214 171.115v6.984h4.172v1.579h-6.063v-8.563zm7.693 2.188q1.375 0 2.203.953.828.937.828 2.422l-.015.312h-4.485q.047.797.422 1.188.39.39 1.094.39.469 0 .86-.234.39-.25.5-.578h1.5q-.344 1.047-1.063 1.578-.719.515-1.844.515-1.437 0-2.312-.906-.86-.906-.86-2.36 0-1.39.89-2.327.891-.953 2.282-.953m-1.469 2.609h2.782q-.125-.688-.454-1-.312-.328-.921-.328-.61 0-.985.36-.36.343-.422.968m8.344-2.61q1.375 0 2.047.454.672.453.672 1.28v3.33q0 .374.047.75.047.374.172.562h-1.735q-.047-.141-.078-.282-.031-.156-.047-.312-.36.375-.89.578-.516.187-1.188.187-.969 0-1.547-.484-.562-.484-.562-1.375 0-.875.53-1.328.548-.469 1.97-.625.984-.094 1.297-.234.328-.157.328-.532 0-.406-.25-.61-.235-.218-.844-.218-.531 0-.813.235-.28.218-.328.703h-1.703q.063-1.016.828-1.547.782-.531 2.094-.531m-1.406 4.61q0 .375.25.594.25.203.797.203.672 0 1.015-.36.36-.359.36-1.046v-.657q-.157.125-.407.188-.25.047-.89.14-.594.079-.86.313-.265.219-.265.625m11.5-6.797v8.563h-1.625v-.797h-.031q-.266.484-.75.734-.485.234-1.125.234-1.266 0-2.032-.937-.75-.938-.75-2.39 0-1.391.735-2.298.75-.921 2.015-.921.578 0 1.047.234.485.234.781.687h.032v-3.109zm-4.61 5.453q0 .86.391 1.438.406.562 1.11.562.703 0 1.078-.515.375-.532.375-1.5 0-.907-.375-1.438-.36-.531-1.094-.531-.703 0-1.094.531-.39.531-.39 1.453m8.752-3.265q1.375 0 2.204.953.828.937.828 2.422l-.016.312h-4.484q.047.797.422 1.188.39.39 1.093.39.469 0 .86-.234.39-.25.5-.578h1.5q-.344 1.047-1.063 1.578-.719.515-1.844.515-1.437 0-2.312-.906-.86-.906-.86-2.36 0-1.39.891-2.327.89-.953 2.281-.953m-1.468 2.609h2.78q-.124-.688-.452-1-.313-.328-.922-.328-.61 0-.984.36-.36.343-.422.968m9.109-2.61q.11 0 .203.016t.172.047v1.578q-.14-.031-.281-.031-.14-.016-.328-.016-.86 0-1.282.532-.406.515-.406 1.406v2.844h-1.687v-6.204h1.609v1.157h.031q.266-.61.797-.97.547-.358 1.172-.358m10.582-2.187v1.578h-4.125v1.985h3.578v1.453h-3.578v3.547h-1.89v-8.563zm3.422 2.188q1.469 0 2.344.906.875.89.875 2.375t-.891 2.375q-.875.89-2.328.89-1.438 0-2.328-.89-.875-.906-.875-2.375t.86-2.375q.874-.906 2.343-.906m-1.5 3.28q0 .985.406 1.485t1.094.5q.734 0 1.125-.515.39-.532.39-1.47 0-.921-.39-1.452-.375-.547-1.125-.547-.688 0-1.094.5t-.406 1.5m9.44-3.28q.109 0 .202.015.094.016.172.047v1.578q-.14-.031-.28-.031-.142-.016-.329-.016-.86 0-1.281.532-.407.515-.407 1.406v2.844h-1.687v-6.204h1.61v1.157h.03q.266-.61.797-.97.547-.358 1.172-.358m2.425.171 1.14 4.204h.016l1.032-4.204h1.656l1.062 4.204h.016l1.156-4.204h1.75l-1.968 6.204h-1.75l-1.094-4.172h-.031l-1.063 4.172h-1.75l-1.969-6.204zm11.393-.171q1.375 0 2.047.453.671.453.671 1.28v3.33q0 .374.047.75.047.374.172.562h-1.734q-.047-.141-.078-.282-.032-.156-.047-.312-.36.375-.89.578-.516.187-1.188.187-.969 0-1.547-.484-.563-.484-.563-1.375 0-.875.532-1.328.546-.469 1.968-.625.985-.094 1.297-.234.328-.157.328-.532 0-.406-.25-.61-.234-.218-.843-.218-.532 0-.813.235-.281.218-.328.703h-1.703q.062-1.016.828-1.547.781-.531 2.094-.531m-1.407 4.609q0 .375.25.594.25.203.797.203.672 0 1.016-.36.36-.359.36-1.046v-.657q-.157.125-.407.188-.25.047-.89.14-.594.079-.86.313-.266.219-.266.625m9.063-4.61q.11 0 .203.016t.172.047v1.578q-.14-.031-.281-.031-.14-.016-.328-.016-.86 0-1.282.532-.406.515-.406 1.406v2.844h-1.687v-6.204h1.609v1.157h.031q.266-.61.797-.97.547-.358 1.172-.358m7.014-2.187v8.563h-1.625v-.797h-.032q-.265.484-.75.734-.484.234-1.125.234-1.265 0-2.03-.937-.75-.938-.75-2.39 0-1.391.734-2.298.75-.921 2.015-.921.578 0 1.047.234.484.234.781.687h.032v-3.109zm-4.61 5.453q0 .86.39 1.438.407.562 1.11.562t1.078-.515q.375-.532.375-1.5 0-.907-.375-1.438-.359-.531-1.093-.531-.703 0-1.094.531-.39.531-.39 1.453m7.643-5.453v1.39h-1.703v-1.39zm0 2.36v6.203h-1.703v-6.204zm4.89-.172q1.188 0 1.72.609.546.594.546 1.89v3.876h-1.703v-3.563q0-.719-.25-1.094t-.844-.375q-.703 0-1.015.422-.313.422-.313 1.297v3.313h-1.687v-6.204h1.609v.86h.031q.313-.5.813-.766.5-.265 1.093-.265m6.036 0q.672 0 1.11.265.452.25.733.735h.032v-.829h1.61v5.86q0 1.25-.798 1.969-.797.718-2.406.718-1.094 0-1.89-.53-.782-.517-.86-1.454h1.687q.125.453.454.656.328.203.828.203.656 0 1.015-.406.36-.39.36-1.094v-.86h-.032q-.25.454-.75.704-.484.25-1.109.25-1.25 0-1.953-.828t-.703-2.281q0-1.313.734-2.188.735-.89 1.938-.89m-.97 3.046q0 .875.36 1.375.375.485 1.032.485.671 0 1.062-.485.39-.5.39-1.234 0-.906-.374-1.406-.375-.5-1.094-.5-.625 0-1 .484-.375.485-.375 1.281"/>
    <path d="m578.203 229.66 180.22.63"/>
    <path stroke="#e03875" stroke-linecap="butt" stroke-miterlimit="400" stroke-width="2" d="m590.203 229.703 168.22.588"/>
    <path fill="#e03875" fill-rule="evenodd" stroke="#e03875" stroke-linecap="butt" stroke-width="2" d="m590.215 226.4-9.088 3.271 9.065 3.335z"/>
    <path fill="#dc477d" fill-rule="evenodd" d="M786.891 176.145a3.875 3.875 0 0 1 3.875-3.875h131.777a3.875 3.875 0 0 1 3.876 3.875v131.746a3.875 3.875 0 0 1-3.876 3.875H790.766a3.875 3.875 0 0 1-3.875-3.875z"/>
    <path fill="#fff" fill-rule="evenodd" d="M856.985 281.04c-21.492.019-38.929-17.445-38.946-39.004-.018-21.56 17.39-39.051 38.882-39.069a38.85 38.85 0 0 1 26.39 10.319l-9.235 9.691c-10.479-9.499-26.65-8.678-36.12 1.834s-8.65 26.735 1.828 36.234c9.738 8.827 24.555 8.827 34.292 0l9.235 9.691a38.7 38.7 0 0 1-26.326 10.305m31.313-19.526a3.195 3.195 0 0 1-3.19-3.2 3.196 3.196 0 0 1 3.19-3.199 3.194 3.194 0 0 1 3.19 3.2 3.2 3.2 0 0 1-3.19 3.2"/>
    <path fill="#fff" fill-rule="evenodd" d="M856.736 250.463c-4.653 0-8.425-3.784-8.425-8.452 0-4.667 3.772-8.451 8.425-8.451s8.425 3.784 8.425 8.451c-.004 4.666-3.773 8.448-8.425 8.452m35.214.121a3.194 3.194 0 0 1-3.19-3.2c0-1.767 1.428-3.2 3.19-3.2a3.194 3.194 0 0 1 3.19 3.2 3.2 3.2 0 0 1-3.19 3.2m-9.477-.364a3.195 3.195 0 0 1-3.19-3.2 3.196 3.196 0 0 1 3.19-3.199 3.195 3.195 0 0 1 3.19 3.2c0 1.767-1.428 3.2-3.19 3.2m9.477-10.391a3.194 3.194 0 0 1-3.19-3.199c0-1.767 1.428-3.2 3.19-3.2a3.194 3.194 0 0 1 3.19 3.2 3.2 3.2 0 0 1-3.19 3.2m-9.477.363a3.195 3.195 0 0 1-3.19-3.2c0-1.767 1.429-3.2 3.19-3.2a3.195 3.195 0 0 1 3.19 3.2v.008a3.194 3.194 0 0 1-3.19 3.192m6.01-11.124a3.195 3.195 0 0 1-3.197-3.192 3.195 3.195 0 0 1 3.183-3.207 3.195 3.195 0 0 1 3.196 3.193v.007a3.195 3.195 0 0 1-3.182 3.2"/>
    <path d="M774.733 314.575h163.842v64.41H774.733z"/>
    <path fill="#000" d="M821.016 319.33q1.453 0 2.485.827 1.031.813 1.203 2.25h-1.813q-.125-.672-.672-1.078-.546-.422-1.203-.422-1.109 0-1.718.813-.61.797-.61 2.125 0 1.265.594 2.062.61.797 1.734.797.813 0 1.313-.5.515-.5.625-1.406h1.828q-.156 1.625-1.188 2.562-1.015.938-2.578.938-1.234 0-2.203-.563t-1.5-1.593q-.515-1.032-.515-2.297 0-1.969 1.156-3.235 1.156-1.28 3.062-1.28m7.88 2.39q1.468 0 2.343.906.875.89.875 2.375t-.89 2.375q-.876.89-2.329.89-1.437 0-2.328-.89-.875-.906-.875-2.375t.86-2.375q.875-.906 2.343-.906m-1.5 3.281q0 .984.406 1.484t1.093.5q.735 0 1.125-.515.39-.532.39-1.469 0-.922-.39-1.453-.375-.547-1.125-.547-.687 0-1.093.5-.407.5-.407 1.5m9.376-3.281q1.188 0 1.719.61.547.593.547 1.89v3.875h-1.703v-3.563q0-.719-.25-1.094t-.844-.375q-.703 0-1.016.422-.312.422-.312 1.297v3.313h-1.688v-6.203h1.61v.859h.031q.312-.5.812-.766.5-.265 1.094-.265m6.098 0q1.266 0 1.953.5.703.5.797 1.484h-1.625q-.047-.437-.344-.64-.281-.204-.828-.204-.484 0-.719.157-.218.14-.218.421 0 .282.296.47.297.187 1.188.359 1.422.265 1.906.703.5.437.5 1.14 0 1.047-.781 1.61-.766.547-2.047.547-1.297 0-2.078-.547t-.844-1.64h1.625q0 .483.375.765.375.281.938.281.5 0 .797-.219.312-.219.312-.578 0-.328-.406-.531-.39-.203-1.469-.422-1.078-.219-1.547-.61-.469-.39-.469-1.062 0-.984.688-1.484.703-.5 2-.5m5.601.172v3.546q0 .704.25 1.094t.86.39q.703 0 1-.421.312-.438.312-1.297v-3.312h1.703v6.203h-1.625v-.86h-.03q-.329.516-.845.782-.5.25-1.062.25-1.156 0-1.703-.594t-.547-1.906v-3.875zm7.176-2.36v8.563h-1.703v-8.563zm7.803-.203q1.547 0 2.484.719t.938 2.031h-1.813q-.047-.64-.453-.969-.39-.328-1.234-.328-.578 0-.953.266-.36.25-.36.719 0 .312.157.468.156.157.625.344.468.172 2.062.547 1.063.25 1.656.875.61.61.61 1.547 0 1.25-.938 2t-2.625.75q-1.61 0-2.64-.797-1.016-.797-1.016-2.203v-.047h1.828q0 .797.516 1.187.531.391 1.375.391.765 0 1.218-.266.454-.28.454-.796 0-.422-.36-.688-.344-.266-1.11-.453-.984-.219-1.78-.469-.797-.25-1.329-.812-.53-.563-.53-1.438 0-1.156.921-1.86.938-.718 2.297-.718m7.521 2.39q1.375 0 2.204.954.828.937.828 2.422l-.016.312h-4.484q.047.797.422 1.188.39.39 1.093.39.47 0 .86-.234.39-.25.5-.578h1.5q-.344 1.047-1.063 1.578-.719.516-1.844.516-1.437 0-2.312-.907-.86-.906-.86-2.359 0-1.39.891-2.328.89-.953 2.281-.953m-1.468 2.61h2.78q-.124-.687-.452-1-.313-.328-.922-.328-.61 0-.984.36-.36.343-.422.968m9.11-2.61q.108 0 .202.016t.172.047v1.578q-.14-.03-.281-.03-.14-.017-.328-.017-.86 0-1.282.532-.406.515-.406 1.406v2.844h-1.687v-6.203h1.61v1.156h.03q.266-.61.797-.969.547-.36 1.172-.36m2.394.173 1.312 4.234h.031l1.297-4.234h1.703l-2.109 6.203h-1.89l-2.126-6.203zm7.912-.172q1.375 0 2.203.953.828.937.828 2.422l-.016.312h-4.484q.047.797.422 1.188.39.39 1.094.39.468 0 .859-.234.39-.25.5-.578h1.5q-.344 1.047-1.063 1.578-.718.516-1.843.516-1.438 0-2.313-.907-.86-.906-.86-2.359 0-1.39.891-2.328.891-.953 2.282-.953m-1.469 2.61h2.781q-.125-.688-.453-1-.312-.329-.922-.329t-.984.36q-.36.343-.422.968m9.11-2.61q.109 0 .202.015.094.016.172.047v1.578q-.14-.03-.28-.03-.142-.017-.329-.017-.86 0-1.281.532-.407.515-.407 1.406v2.844h-1.687v-6.203h1.61v1.156h.03q.266-.61.797-.969.547-.36 1.172-.36m-64.205 11.611q-.64 1.187-.984 2.577-.328 1.39-.328 2.86 0 1.468.312 2.843.313 1.36.985 2.672h-1.422q-.766-1.281-1.172-2.672-.406-1.39-.406-2.734 0-1.39.406-2.906t1.172-2.64zm6.754.202v1.578h-4.125v1.985h3.578v1.453h-3.578v3.547h-1.89v-8.563zm3.422 2.188q1.469 0 2.344.906.875.89.875 2.375t-.89 2.375q-.876.89-2.329.89-1.437 0-2.328-.89-.875-.906-.875-2.375t.86-2.375q.874-.906 2.343-.906m-1.5 3.281q0 .984.406 1.484t1.094.5q.734 0 1.125-.515.39-.532.39-1.469 0-.922-.39-1.453-.375-.547-1.125-.547-.687 0-1.094.5-.406.5-.406 1.5m7.58-5.469v8.563h-1.703v-8.563zm3.094 0v8.563h-1.703v-8.563zm4.344 2.188q1.468 0 2.343.906.875.89.875 2.375t-.89 2.375q-.875.89-2.328.89-1.438 0-2.328-.89-.875-.906-.875-2.375t.859-2.375q.875-.906 2.344-.906m-1.5 3.281q0 .984.406 1.484t1.094.5q.734 0 1.125-.515.39-.532.39-1.469 0-.922-.39-1.453-.375-.547-1.125-.547-.688 0-1.094.5t-.406 1.5m7.048-3.11 1.141 4.204h.016l1.031-4.203h1.656l1.063 4.203h.015l1.157-4.203h1.75l-1.97 6.203h-1.75l-1.093-4.172h-.031l-1.063 4.172h-1.75l-1.968-6.203zm11.409-.171q1.375 0 2.203.953.828.937.828 2.422l-.016.312h-4.484q.047.797.422 1.188.39.39 1.094.39.468 0 .859-.234.39-.25.5-.578h1.5q-.344 1.047-1.063 1.578-.718.516-1.843.516-1.438 0-2.313-.907-.86-.906-.86-2.359 0-1.39.891-2.328.891-.953 2.282-.953m-1.47 2.61h2.782q-.125-.688-.453-1-.312-.329-.922-.329t-.984.36q-.36.343-.422.968m9.11-2.61q.11 0 .203.015.094.016.172.047v1.578q-.14-.03-.28-.03-.142-.017-.33-.017-.858 0-1.28.532-.407.515-.407 1.406v2.844h-1.687v-6.203h1.61v1.156h.03q.266-.61.797-.969.547-.36 1.172-.36m1.748-2.39q.782 1.265 1.188 2.655.406 1.391.406 2.75 0 1.375-.422 2.907-.406 1.515-1.172 2.64h-1.422q.657-1.25.97-2.61.327-1.374.327-2.812 0-1.5-.328-2.875-.312-1.39-.969-2.656z"/>
  </g>
</svg>
