<svg xmlns="http://www.w3.org/2000/svg" xmlns:xlink="http://www.w3.org/1999/xlink" width="473" height="285" viewBox="0 0 473 285">
  <defs>
    <path id="a" fill="#DDD" d="M27.79 40.56.1 24.56v-8l27.69 16z"/>
    <path id="b" stroke="#B5B8C4" d="M27.79 40.56.1 24.56v-8l27.69 16z"/>
    <path id="c" fill="#FFF" d="m55.5 16.58-27.69 16v8l27.69-16z"/>
    <path id="d" stroke="#B5B8C4" d="m55.5 16.58-27.69 16v8l27.69-16z"/>
    <path id="e" fill="#FFF" d="m27.8 32.57-27.69-16L27.8.57l27.69 16z"/>
    <path id="f" stroke="#CA2171" d="m27.8 32.57-27.69-16L27.8.57l27.69 16z"/>
    <path id="g" d="m47.5 16.57-5.19 3-3.47-2 5.2-3z"/>
    <path id="h" d="m43.17 15.07-3.46 2-1.73-1a1.05 1.05 0 0 1 0-2 3.83 3.83 0 0 1 3.46 0z"/>
    <path id="i" fill="#DDD" d="m28.36 40.56-27.7-16v-8l27.7 16z"/>
    <path id="j" stroke="#B5B8C4" d="m28.36 40.56-27.7-16v-8l27.7 16z"/>
    <path id="k" fill="#FFF" d="m56.07 16.58-27.69 16v8l27.69-16z"/>
    <path id="l" stroke="#B5B8C4" d="m56.07 16.58-27.69 16v8l27.69-16z"/>
    <path id="m" fill="#FFF" d="m28.37 32.57-27.7-16 27.7-16 27.69 16z"/>
    <path id="n" stroke="#CA2171" d="m28.37 32.57-27.7-16 27.7-16 27.69 16z"/>
    <path id="o" d="m48.07 16.57-5.19 3-3.47-2 5.2-3z"/>
    <path id="p" d="m43.74 15.07-3.46 2-1.73-1a1.05 1.05 0 0 1 0-2 3.83 3.83 0 0 1 3.46 0z"/>
    <path id="q" fill="#DDD" d="m27.93 40.56-27.7-16v-8l27.7 16z"/>
    <path id="r" stroke="#B5B8C4" d="m27.93 40.56-27.7-16v-8l27.7 16z"/>
    <path id="s" fill="#FFF" d="m55.64 16.58-27.69 16v8l27.69-16z"/>
    <path id="t" stroke="#B5B8C4" d="m55.64 16.58-27.69 16v8l27.69-16z"/>
    <path id="u" fill="#FFF" d="m27.94 32.57-27.7-16 27.7-16 27.69 16z"/>
    <path id="v" stroke="#CA2171" d="m27.94 32.57-27.7-16 27.7-16 27.69 16z"/>
    <path id="w" d="m47.64 16.57-5.2 3-3.46-2 5.2-3z"/>
    <path id="x" d="m43.31 15.07-3.46 2-1.74-1a1.06 1.06 0 0 1 0-2 3.86 3.86 0 0 1 3.47 0z"/>
    <path id="y" fill="#DDD" d="m28.5 40.56-27.7-16v-8l27.7 16z"/>
    <path id="z" stroke="#B5B8C4" d="m28.5 40.56-27.7-16v-8l27.7 16z"/>
    <path id="A" fill="#FFF" d="m56.21 16.58-27.69 16v8l27.69-16z"/>
    <path id="B" stroke="#B5B8C4" d="m56.21 16.58-27.69 16v8l27.69-16z"/>
    <path id="C" fill="#FFF" d="m28.51 32.57-27.7-16 27.7-16 27.69 16z"/>
    <path id="D" stroke="#CA2171" d="m28.51 32.57-27.7-16 27.7-16 27.69 16z"/>
    <path id="E" d="m48.21 16.57-5.2 3-3.46-2 5.2-3z"/>
    <path id="F" d="m43.88 15.07-3.46 2-1.74-1a1.06 1.06 0 0 1 0-2 3.86 3.86 0 0 1 3.47 0z"/>
    <path id="G" fill="#DDD" d="m28.07 40.56-27.7-16v-8l27.7 16z"/>
    <path id="H" stroke="#B5B8C4" d="m28.07 40.56-27.7-16v-8l27.7 16z"/>
    <path id="I" d="m47.78 16.57-5.2 3-3.46-2 5.19-3z"/>
  </defs>
  <g fill="none" fill-rule="evenodd">
    <path stroke="#CA2171" stroke-linejoin="round" d="m265.53 79.57 13.85 8m27.71-32 13.86 8m-96.99 40 13.85 8m-13.85-56 13.85 8m27.71-32 13.86 8m-96.99 40 13.85 8m27.72-48 13.85-8m69.28 56 13.86-8m-138.56-16 13.85-8m27.72 32 13.85-8"/>
    <path stroke="#CFD1D9" d="m277.64 28.57-138.56 80m142.02-78-138.56 80m142.03-78-138.56 80m142.02-78-138.56 80m142.03-78-138.57 80m142.03-78-138.56 80m142.02-78-138.56 80m142.03-78-138.56 80m142.02-78-138.56 80m142.03-78-138.57 80m142.03-78-138.56 80m142.03-78-138.57 80m142.03-78-138.56 80m142.02-78-138.56 80m142.03-78-138.57 80m142.03-78-138.56 80m142.03-78-138.57 80m142.03-78-138.56 80m142.02-78-138.56 80m142.03-78-138.57 80m142.03-78-138.56 80m142.03-78-138.57 80m142.03-78-138.56 80m142.02-78-138.56 80m142.03-78-138.56 80m142.02-78-138.56 80m142.03-78-138.57 80m142.03-78-138.56 80m142.03-78-138.57 80m142.03-78-138.56 80m142.02-78-138.56 80m142.03-78-138.57 80m27.72-144-138.57 80m135.1-82-138.56 80m135.1-82-138.57 80m135.1-82-138.56 80m135.1-82-138.56 80m135.1-82-138.57 80m135.1-82-138.56 80m245.95 14-138.57-80m135.1 82-138.56-80m135.1 82-138.56-80m135.1 82-138.57-80m135.1 82-138.56-80m135.1 82-138.57-80m135.1 82-138.56-80m135.1 82-138.56-80m166.27 64-138.56-80m142.03 78-138.57-80m142.03 78-138.56-80m142.03 78-138.57-80m142.03 78-138.56-80m142.02 78L243 16.57m142.03 78-138.57-80m65.82 122-138.56-80m135.1 82-138.57-80m135.1 82-138.56-80m135.1 82-138.56-80m135.1 82-138.57-80m135.1 82-138.56-80m135.1 82-138.57-80m135.1 82-138.56-80m166.28 64-138.57-80m142.03 78-138.56-80m142.02 78-138.56-80m142.03 78-138.57-80m142.03 78-138.56-80m142.03 78-138.57-80m69.28 120-138.56-80m135.1 82-138.56-80m135.1 82-138.57-80m135.1 82-138.56-80m152.42 72-138.57-80m142.03 78-138.56-80m142.03 78-138.57-80m142.03 78-138.56-80m142.03 78-138.57-80m142.03 78-138.56-80" opacity=".3"/>
    <path stroke="#CFD1D9" stroke-linejoin="round" d="m249.93 172.57-138.57-80 138.57-80 138.56 80z"/>
    <path fill="#252937" fill-rule="nonzero" d="m249.93 4.57-6.93 12 6.93-4z" opacity=".1"/>
    <path fill="#252937" fill-rule="nonzero" d="M374.65 92.57 243 16.58l6.91-4 138.54 80h-13.8z" opacity=".1"/>
    <path fill="#252937" fill-rule="nonzero" d="m236.08 172.57-138.54-80h13.83l138.55 80zm-138.57-80h13.85v-8z" opacity=".05"/>
    <path fill="#FFF" fill-rule="nonzero" d="M111.36 92.57v-8l138.57-80v8z"/>
    <path stroke="#CFD1D9" stroke-linejoin="round" d="M111.36 92.57v-8l138.57-80v8z"/>
    <path fill="#DDD" fill-rule="nonzero" d="M249.93 4.57v8l138.56 80v-8z"/>
    <path stroke="#B5B8C4" stroke-linejoin="round" d="M249.93 4.57v8l138.56 80v-8z"/>
    <g fill="#B5B8C4" fill-rule="nonzero">
      <path d="M249.93 173.07a.5.5 0 0 1-.5-.5v-.5a.5.5 0 0 1 .5-.5.51.51 0 0 1 .5.5v.5a.5.5 0 0 1-.5.5m0-3.5a.5.5 0 0 1-.5-.5v-1a.5.5 0 0 1 .5-.5.51.51 0 0 1 .5.5v1a.5.5 0 0 1-.5.5m0-4a.5.5 0 0 1-.5-.5v-.5a.5.5 0 0 1 .5-.5.51.51 0 0 1 .5.5v.5a.5.5 0 0 1-.5.5m138.13-80.25a.5.5 0 0 1-.25-.93l.43-.25a.5.5 0 0 1 .5.86l-.43.25a.47.47 0 0 1-.25.07m-135.06 78a.5.5 0 0 1-.25-.93l.87-.5a.5.5 0 1 1 .5.86l-.87.5a.47.47 0 0 1-.25.07m3.46-2a.5.5 0 0 1-.25-.93l.87-.5a.5.5 0 1 1 .5.86l-.87.5a.43.43 0 0 1-.29.07zm3.47-2a.48.48 0 0 1-.43-.25.49.49 0 0 1 .18-.68l.86-.5a.51.51 0 0 1 .69.18.49.49 0 0 1-.19.68l-.86.5a.47.47 0 0 1-.29.07zm3.46-2a.5.5 0 0 1-.25-.93l.87-.5a.5.5 0 0 1 .5.86l-.87.5a.45.45 0 0 1-.29.07zm3.47-2a.5.5 0 0 1-.25-.93l.86-.5a.5.5 0 1 1 .5.86l-.86.5a.47.47 0 0 1-.29.07zm3.46-2a.5.5 0 0 1-.25-.93l.87-.5a.5.5 0 1 1 .5.86l-.87.5a.47.47 0 0 1-.29.07zm3.46-2a.5.5 0 0 1-.25-.93l.87-.5a.5.5 0 1 1 .5.86l-.87.5a.43.43 0 0 1-.29.07zm3.47-2a.5.5 0 0 1-.25-.93l.86-.5a.51.51 0 0 1 .69.18.49.49 0 0 1-.19.68l-.86.5a.47.47 0 0 1-.29.07zm3.46-2a.5.5 0 0 1-.25-.93l.87-.5a.5.5 0 1 1 .5.86l-.87.5a.45.45 0 0 1-.29.07zm3.47-2a.5.5 0 0 1-.25-.93l.86-.5a.5.5 0 1 1 .5.86l-.86.5a.47.47 0 0 1-.29.07zm3.46-2a.5.5 0 0 1-.25-.93l.87-.5a.5.5 0 0 1 .5.86l-.87.5a.47.47 0 0 1-.29.07zm3.46-2a.5.5 0 0 1-.25-.93l.87-.5a.5.5 0 1 1 .5.86l-.87.5a.43.43 0 0 1-.29.07zm3.47-2a.5.5 0 0 1-.25-.93l.86-.5a.51.51 0 0 1 .69.18.49.49 0 0 1-.19.68l-.86.5a.47.47 0 0 1-.29.07zm3.46-2a.5.5 0 0 1-.25-.93l.87-.5a.5.5 0 1 1 .5.86l-.87.5a.45.45 0 0 1-.28.07zm3.47-2a.51.51 0 0 1-.44-.25.5.5 0 0 1 .19-.68l.86-.5a.5.5 0 1 1 .5.86l-.86.5a.47.47 0 0 1-.29.07zm3.46-2a.5.5 0 0 1-.25-.93l.87-.5a.5.5 0 1 1 .5.86l-.87.5a.47.47 0 0 1-.29.07zm3.46-2a.5.5 0 0 1-.25-.93l.87-.5a.5.5 0 1 1 .5.86l-.87.5a.43.43 0 0 1-.29.07zm3.47-2a.5.5 0 0 1-.25-.93l.86-.5a.51.51 0 0 1 .69.18.49.49 0 0 1-.19.68l-.86.5a.47.47 0 0 1-.29.07zm3.46-2a.5.5 0 0 1-.25-.93l.87-.5a.5.5 0 1 1 .5.86l-.87.5a.45.45 0 0 1-.29.07zm3.47-2a.51.51 0 0 1-.44-.25.51.51 0 0 1 .19-.68l.86-.5a.5.5 0 1 1 .5.86l-.86.5a.47.47 0 0 1-.29.07zm3.46-2a.5.5 0 0 1-.25-.93l.87-.5a.5.5 0 1 1 .5.86l-.87.5a.45.45 0 0 1-.29.07zm3.47-2a.5.5 0 0 1-.25-.93l.86-.5a.5.5 0 1 1 .5.86l-.86.5a.47.47 0 0 1-.29.07zm3.46-2a.5.5 0 0 1-.25-.93l.87-.5a.5.5 0 1 1 .5.86l-.87.5a.47.47 0 0 1-.29.07zm3.46-2a.5.5 0 0 1-.25-.93l.87-.5a.5.5 0 0 1 .5.86l-.87.5a.45.45 0 0 1-.29.07zm3.47-2a.51.51 0 0 1-.44-.25.51.51 0 0 1 .19-.68l.86-.5a.5.5 0 1 1 .5.86l-.86.5a.47.47 0 0 1-.29.07zm3.46-2a.5.5 0 0 1-.25-.93l.87-.5a.5.5 0 0 1 .5.86l-.87.5a.45.45 0 0 1-.29.07zm3.47-2a.5.5 0 0 1-.25-.93l.86-.5a.5.5 0 0 1 .5.86l-.86.5a.47.47 0 0 1-.32.07zm3.46-2a.5.5 0 0 1-.25-.93l.87-.5a.5.5 0 0 1 .5.86l-.87.5a.47.47 0 0 1-.29.07zm3.46-2a.5.5 0 0 1-.25-.93l.87-.5a.5.5 0 0 1 .5.86l-.87.5a.45.45 0 0 1-.24.07zm3.47-2a.51.51 0 0 1-.44-.25.51.51 0 0 1 .19-.68l.86-.5a.5.5 0 1 1 .5.86l-.86.5a.47.47 0 0 1-.29.07zm3.46-2a.5.5 0 0 1-.25-.93l.87-.5a.5.5 0 0 1 .5.86l-.87.5a.45.45 0 0 1-.29.07zm3.47-2a.5.5 0 0 1-.25-.93l.86-.5a.5.5 0 0 1 .5.86l-.86.5a.47.47 0 0 1-.29.07zm3.46-2a.5.5 0 0 1-.25-.93l.87-.5a.5.5 0 0 1 .5.86l-.87.5a.47.47 0 0 1-.29.07zm3.46-2a.5.5 0 0 1-.25-.93l.87-.5a.5.5 0 0 1 .5.86l-.87.5a.45.45 0 0 1-.29.07zm3.47-2a.51.51 0 0 1-.44-.25.51.51 0 0 1 .19-.68l.86-.5a.5.5 0 1 1 .5.86l-.86.5a.47.47 0 0 1-.29.07zm3.46-2a.5.5 0 0 1-.25-.93l.87-.5a.5.5 0 0 1 .5.86l-.87.5a.45.45 0 0 1-.29.07zm3.47-2a.51.51 0 0 1-.44-.25.5.5 0 0 1 .19-.68l.86-.5a.5.5 0 0 1 .5.86l-.86.5a.47.47 0 0 1-.29.07zm3.46-2a.5.5 0 0 1-.25-.93l.87-.5a.5.5 0 0 1 .5.86l-.87.5a.47.47 0 0 1-.29.07zm3.46-2a.5.5 0 0 1-.25-.93l.87-.5a.5.5 0 0 1 .5.86l-.87.5a.45.45 0 0 1-.29.07z"/>
      <path d="m249.93 165.15-.68-.4a.49.49 0 0 1-.19-.68.51.51 0 0 1 .69-.18l.18.11.18-.11a.49.49 0 0 1 .68.18.51.51 0 0 1-.18.69zm-3.03-1.83a.45.45 0 0 1-.25-.07l-.87-.5a.5.5 0 1 1 .5-.86l.87.5a.5.5 0 0 1-.25.93m-3.47-2a.47.47 0 0 1-.25-.07l-.86-.5a.5.5 0 1 1 .5-.86l.86.5a.51.51 0 0 1 .19.68.51.51 0 0 1-.44.25m-3.46-2a.45.45 0 0 1-.25-.07l-.87-.5a.5.5 0 1 1 .5-.86l.87.5a.5.5 0 0 1-.25.93m-3.47-2a.47.47 0 0 1-.25-.07l-.86-.5a.5.5 0 0 1 .5-.86l.86.5a.5.5 0 0 1-.25.93m-3.46-2a.47.47 0 0 1-.25-.07l-.87-.5a.5.5 0 0 1 .5-.86l.87.5a.5.5 0 0 1-.25.93m-3.46-2a.45.45 0 0 1-.25-.07l-.87-.5a.5.5 0 1 1 .5-.86l.87.5a.5.5 0 0 1-.25.93m-3.47-2a.47.47 0 0 1-.25-.07l-.86-.5a.5.5 0 1 1 .5-.86l.86.5a.51.51 0 0 1 .19.68.51.51 0 0 1-.44.25m-3.46-2a.45.45 0 0 1-.25-.07l-.87-.5a.5.5 0 1 1 .5-.86l.87.5a.5.5 0 0 1-.25.93m-3.47-2a.47.47 0 0 1-.25-.07l-.86-.5a.5.5 0 1 1 .5-.86l.86.5a.5.5 0 0 1-.25.93m-3.46-2a.47.47 0 0 1-.25-.07l-.87-.5a.5.5 0 1 1 .5-.86l.87.5a.5.5 0 0 1-.25.93m-3.46-2a.45.45 0 0 1-.25-.07l-.87-.5a.5.5 0 0 1 .5-.86l.87.5a.5.5 0 0 1-.25.93m-3.47-2a.47.47 0 0 1-.25-.07l-.86-.5a.49.49 0 0 1-.19-.68.51.51 0 0 1 .69-.18l.86.5a.5.5 0 0 1-.25.93m-3.46-2a.45.45 0 0 1-.25-.07l-.87-.5a.5.5 0 1 1 .5-.86l.87.5a.5.5 0 0 1-.25.93m-3.47-2a.47.47 0 0 1-.25-.07l-.86-.5a.5.5 0 1 1 .5-.86l.86.5a.5.5 0 0 1-.25.93m-3.46-2a.47.47 0 0 1-.25-.07l-.87-.5a.5.5 0 1 1 .5-.86l.87.5a.5.5 0 0 1-.25.93m-3.46-2a.43.43 0 0 1-.25-.07l-.87-.5a.5.5 0 1 1 .5-.86l.87.5a.5.5 0 0 1-.25.93m-3.47-2a.47.47 0 0 1-.25-.07l-.86-.5a.49.49 0 0 1-.19-.68.51.51 0 0 1 .69-.18l.86.5a.5.5 0 0 1-.25.93m-3.46-2a.45.45 0 0 1-.25-.07l-.87-.5a.5.5 0 0 1 .5-.86l.87.5a.5.5 0 0 1-.25.93m-3.47-2a.47.47 0 0 1-.25-.07l-.86-.5a.5.5 0 1 1 .5-.86l.86.5a.5.5 0 0 1 .19.68.51.51 0 0 1-.44.25m-3.46-2a.45.45 0 0 1-.25-.07l-.87-.5a.5.5 0 1 1 .5-.86l.87.5a.5.5 0 0 1-.25.93m-3.46-2a.43.43 0 0 1-.25-.07l-.87-.5a.5.5 0 1 1 .5-.86l.87.5a.5.5 0 0 1-.25.93m-3.47-2a.47.47 0 0 1-.25-.07l-.86-.5a.49.49 0 0 1-.19-.68.51.51 0 0 1 .69-.18l.86.5a.5.5 0 0 1-.25.93m-3.46-2a.45.45 0 0 1-.25-.07l-.87-.5a.5.5 0 1 1 .5-.86l.87.5a.5.5 0 0 1-.25.93m-3.47-2a.47.47 0 0 1-.25-.07l-.86-.5a.5.5 0 1 1 .5-.86l.86.5a.51.51 0 0 1 .19.68.52.52 0 0 1-.44.25m-3.46-2a.45.45 0 0 1-.25-.07l-.87-.5a.5.5 0 0 1 .5-.86l.87.5a.5.5 0 0 1-.25.93m-3.47-2a.47.47 0 0 1-.25-.07l-.86-.5a.5.5 0 1 1 .5-.86l.86.5a.5.5 0 0 1-.25.93m-3.46-2a.47.47 0 0 1-.25-.07l-.87-.5a.5.5 0 1 1 .5-.86l.87.5a.5.5 0 0 1-.25.93m-3.46-2a.45.45 0 0 1-.25-.07l-.87-.5a.5.5 0 1 1 .5-.86l.87.5a.5.5 0 0 1-.25.93m-3.47-2a.47.47 0 0 1-.25-.07l-.86-.5a.49.49 0 0 1-.19-.68.51.51 0 0 1 .69-.18l.86.5a.5.5 0 0 1-.25.93m-3.46-2a.45.45 0 0 1-.25-.07l-.87-.5a.5.5 0 1 1 .5-.86l.87.5a.5.5 0 0 1-.25.93m-3.47-2a.47.47 0 0 1-.25-.07l-.86-.5a.5.5 0 1 1 .5-.86l.86.5a.5.5 0 0 1-.25.93m-3.46-2a.45.45 0 0 1-.25-.07l-.87-.5a.5.5 0 0 1 .5-.86l.87.5a.5.5 0 0 1-.25.93m-3.46-2a.45.45 0 0 1-.25-.07l-.87-.5a.5.5 0 1 1 .5-.86l.87.5a.5.5 0 0 1-.25.93m-3.47-2a.47.47 0 0 1-.25-.07l-.86-.5a.49.49 0 0 1-.19-.68.51.51 0 0 1 .69-.18l.86.5a.5.5 0 0 1-.25.93m-3.46-2a.45.45 0 0 1-.25-.07l-.87-.5a.5.5 0 1 1 .5-.86l.87.5a.5.5 0 0 1-.25.93m-3.47-2a.47.47 0 0 1-.25-.07l-.86-.5a.5.5 0 0 1 .5-.86l.86.5a.51.51 0 0 1 .19.68.51.51 0 0 1-.44.25m-3.46-2a.45.45 0 0 1-.25-.07l-.87-.5a.5.5 0 1 1 .5-.86l.87.5a.5.5 0 0 1-.25.93m-3.46-2a.43.43 0 0 1-.25-.07l-.87-.5a.5.5 0 1 1 .5-.86l.87.5a.5.5 0 0 1-.25.93m-3.47-2a.47.47 0 0 1-.25-.07l-.86-.5a.49.49 0 0 1-.19-.68.51.51 0 0 1 .69-.18l.86.5a.5.5 0 0 1-.25.93m-3.46-2a.45.45 0 0 1-.25-.07l-.44-.25a.5.5 0 0 1 .5-.86l.44.25a.5.5 0 0 1-.25.93"/>
    </g>
    <path fill="#252937" fill-rule="nonzero" d="m152.8 112.57-27.69-16 27.69-16 27.69 16zm41.57 24-27.7-16 27.7-16 27.69 16zm41.57 24-27.7-16 27.7-16 27.69 16zm-41.57-72-27.7-16 27.7-16 27.69 16zm41.57 24-27.7-16 27.7-16 27.69 16zm41.57 24-27.7-16 27.7-16 27.69 16zm-41.57-72-27.7-16 27.7-16 27.69 16zm41.57 24-27.7-16 27.7-16 27.69 16zm41.56 24-27.7-16 27.7-16 27.7 16z" opacity=".08"/>
    <g transform="translate(139 48)">
      <use xlink:href="#a" fill-rule="nonzero"/>
      <use xlink:href="#b"/>
      <use xlink:href="#c" fill-rule="nonzero"/>
      <use xlink:href="#d" stroke-linejoin="round"/>
      <use xlink:href="#e" fill-rule="nonzero"/>
      <use xlink:href="#f" stroke-linejoin="round"/>
      <g stroke="#CA2171" stroke-linejoin="round">
        <use xlink:href="#g"/>
        <use xlink:href="#h"/>
      </g>
      <ellipse cx="27.65" cy="26.49" fill="#CA2171" fill-rule="nonzero" rx="2.65" ry="1.53"/>
    </g>
    <g transform="translate(180 72)">
      <use xlink:href="#i" fill-rule="nonzero"/>
      <use xlink:href="#j"/>
      <use xlink:href="#k" fill-rule="nonzero"/>
      <use xlink:href="#l" stroke-linejoin="round"/>
      <use xlink:href="#m" fill-rule="nonzero"/>
      <use xlink:href="#n" stroke-linejoin="round"/>
      <ellipse cx="28.36" cy="26.57" fill="#CA2171" fill-rule="nonzero" rx="2.65" ry="1.53"/>
      <g stroke="#CA2171" stroke-linejoin="round">
        <use xlink:href="#o"/>
        <use xlink:href="#p"/>
      </g>
    </g>
    <g transform="translate(222 96)">
      <use xlink:href="#q" fill-rule="nonzero"/>
      <use xlink:href="#r"/>
      <use xlink:href="#s" fill-rule="nonzero"/>
      <use xlink:href="#t" stroke-linejoin="round"/>
      <use xlink:href="#u" fill-rule="nonzero"/>
      <use xlink:href="#v" stroke-linejoin="round"/>
      <ellipse cx="28.07" cy="26.66" fill="#CA2171" fill-rule="nonzero" rx="2.65" ry="1.53"/>
      <g stroke="#CA2171" stroke-linejoin="round">
        <use xlink:href="#w"/>
        <use xlink:href="#x"/>
      </g>
    </g>
    <g transform="translate(180 24)">
      <use xlink:href="#i" fill-rule="nonzero"/>
      <use xlink:href="#j"/>
      <use xlink:href="#k" fill-rule="nonzero"/>
      <use xlink:href="#l" stroke-linejoin="round"/>
      <use xlink:href="#m" fill-rule="nonzero"/>
      <use xlink:href="#n" stroke-linejoin="round"/>
      <ellipse cx="28.21" cy="26.49" fill="#CA2171" fill-rule="nonzero" rx="2.65" ry="1.53"/>
      <g stroke="#CA2171" stroke-linejoin="round">
        <use xlink:href="#o"/>
        <use xlink:href="#p"/>
      </g>
    </g>
    <g transform="translate(222 48)">
      <use xlink:href="#q" fill-rule="nonzero"/>
      <use xlink:href="#r"/>
      <use xlink:href="#s" fill-rule="nonzero"/>
      <use xlink:href="#t" stroke-linejoin="round"/>
      <use xlink:href="#u" fill-rule="nonzero"/>
      <use xlink:href="#v" stroke-linejoin="round"/>
      <ellipse cx="27.93" cy="26.57" fill="#CA2171" fill-rule="nonzero" rx="2.65" ry="1.53"/>
      <g stroke="#CA2171" stroke-linejoin="round">
        <use xlink:href="#w"/>
        <use xlink:href="#x"/>
      </g>
    </g>
    <g transform="translate(263 72)">
      <use xlink:href="#y" fill-rule="nonzero"/>
      <use xlink:href="#z"/>
      <use xlink:href="#A" fill-rule="nonzero"/>
      <use xlink:href="#B" stroke-linejoin="round"/>
      <use xlink:href="#C" fill-rule="nonzero"/>
      <use xlink:href="#D" stroke-linejoin="round"/>
      <ellipse cx="28.64" cy="26.66" fill="#CA2171" fill-rule="nonzero" rx="2.65" ry="1.53"/>
      <g stroke="#CA2171" stroke-linejoin="round">
        <use xlink:href="#E"/>
        <use xlink:href="#F"/>
      </g>
    </g>
    <g transform="translate(222)">
      <use xlink:href="#q" fill-rule="nonzero"/>
      <use xlink:href="#r"/>
      <use xlink:href="#s" fill-rule="nonzero"/>
      <use xlink:href="#t" stroke-linejoin="round"/>
      <use xlink:href="#u" fill-rule="nonzero"/>
      <use xlink:href="#v" stroke-linejoin="round"/>
      <ellipse cx="27.93" cy="26.41" fill="#CA2171" fill-rule="nonzero" rx="2.65" ry="1.53"/>
      <g stroke="#CA2171" stroke-linejoin="round">
        <use xlink:href="#w"/>
        <use xlink:href="#x"/>
      </g>
    </g>
    <g transform="translate(263 24)">
      <use xlink:href="#y" fill-rule="nonzero"/>
      <use xlink:href="#z"/>
      <use xlink:href="#A" fill-rule="nonzero"/>
      <use xlink:href="#B" stroke-linejoin="round"/>
      <use xlink:href="#C" fill-rule="nonzero"/>
      <use xlink:href="#D" stroke-linejoin="round"/>
      <ellipse cx="28.64" cy="26.49" fill="#CA2171" fill-rule="nonzero" rx="2.65" ry="1.53"/>
      <g stroke="#CA2171" stroke-linejoin="round">
        <use xlink:href="#E"/>
        <use xlink:href="#F"/>
      </g>
    </g>
    <g transform="translate(305 48)">
      <use xlink:href="#G" fill-rule="nonzero"/>
      <use xlink:href="#H"/>
      <path fill="#FFF" fill-rule="nonzero" d="m55.78 16.58-27.7 16v8l27.7-16z"/>
      <path stroke="#B5B8C4" stroke-linejoin="round" d="m55.78 16.58-27.7 16v8l27.7-16z"/>
      <path fill="#FFF" fill-rule="nonzero" d="m28.07 32.57-27.7-16 27.7-16 27.7 16z"/>
      <path stroke="#CA2171" stroke-linejoin="round" d="m28.07 32.57-27.7-16 27.7-16 27.7 16z"/>
      <ellipse cx="28.35" cy="26.57" fill="#CA2171" fill-rule="nonzero" rx="2.65" ry="1.53"/>
      <g stroke="#CA2171" stroke-linejoin="round">
        <use xlink:href="#I"/>
        <path d="m43.45 15.07-3.47 2-1.73-1a1.06 1.06 0 0 1 0-2 3.86 3.86 0 0 1 3.47 0z"/>
      </g>
    </g>
    <path stroke="#CA2171" stroke-linejoin="round" d="m265.53 127.57 55.42 32m-13.86-56 55.43 32m-13.86-56 29.45 17-38.11 22 25.98 15m-6.92 4-25.99-15-34.64 20-29.44-17"/>
    <path stroke="#CFD1D9" d="m443.92 124.57-138.57 80m142.03-78-138.56 80m142.03-78-138.57 80m142.03-78-138.56 80m142.02-78-138.56 80m142.03-78-138.57 80m142.03-78-138.56 80m142.03-78-138.57 80m110.85-96-138.56 80m135.1-82-138.56 80m135.09-82-138.56 80m135.1-82-138.56 80m135.1-82-138.57 80m135.1-82-138.56 80m135.1-82-138.56 80m162.81-34-55.43-32m51.96 34-55.42-32m51.96 34-55.43-32m51.97 34-55.43-32m51.96 34-55.42-32m51.96 34-55.43-32m51.96 34-55.42-32m51.96 34-55.43-32m83.14 16-55.42-32m58.89 30-55.43-32m58.89 30-55.43-32m58.89 30-55.42-32m58.89 30-55.43-32m58.89 30-55.42-32m58.89 30-55.43-32m-17.32 74-55.43-32m51.97 34-55.43-32m51.96 34-55.42-32m51.96 34-55.43-32m51.96 34-55.42-32m51.96 34-55.43-32m51.97 34-55.43-32m51.96 34-55.42-32m83.13 16-55.42-32m58.89 30-55.43-32m58.89 30-55.42-32m58.89 30-55.43-32m58.89 30-55.43-32m58.89 30-55.42-32m-13.86 72-55.42-32m51.96 34-55.43-32m51.96 34-55.42-32m51.96 34-55.42-32m69.28 24-55.43-32m58.89 30-55.42-32m58.89 30-55.43-32m58.89 30-55.43-32m58.89 30-55.42-32m58.89 30-55.43-32" opacity=".3"/>
    <path stroke="#0478D7" stroke-linejoin="round" d="m333.07 220.57-55.43-32 138.56-80 55.43 32z"/>
    <path fill="#252937" fill-rule="nonzero" d="m416.2 100.57-6.92 12 6.92-4zm41.58 40-48.49-28 6.92-4 55.41 32z" opacity=".1"/>
    <path fill="#252937" fill-rule="nonzero" d="m319.22 220.57-55.41-32h13.86l55.41 32zm-55.43-32h13.85v-8z" opacity=".05"/>
    <path fill="#FFF" fill-rule="nonzero" d="M277.64 188.57v-8l138.56-80v8z"/>
    <path stroke="#0478D7" stroke-linejoin="round" d="M277.64 188.57v-8l138.56-80v8z"/>
    <path fill="#DDD" fill-rule="nonzero" d="M416.2 100.57v8l55.43 32v-8z"/>
    <path stroke="#0478D7" stroke-linejoin="round" d="M416.2 100.57v8l55.43 32v-8z"/>
    <g fill="#0478D7" fill-rule="nonzero">
      <path d="M471.2 133.32a.51.51 0 0 1-.44-.25.5.5 0 0 1 .19-.68l.43-.25a.49.49 0 0 1 .68.18.51.51 0 0 1-.18.69l-.43.25a.6.6 0 0 1-.25.06m-135.1 78a.48.48 0 0 1-.43-.25.49.49 0 0 1 .18-.68l.86-.5a.51.51 0 0 1 .69.18.49.49 0 0 1-.19.68l-.86.5a.47.47 0 0 1-.25.07m3.46-2a.5.5 0 0 1-.25-.93l.87-.5a.5.5 0 1 1 .5.86l-.87.5a.45.45 0 0 1-.25.07m3.47-2a.51.51 0 0 1-.44-.25.51.51 0 0 1 .19-.68l.86-.5a.5.5 0 1 1 .5.86l-.86.5a.47.47 0 0 1-.28.07zm3.46-2a.5.5 0 0 1-.25-.93l.87-.5a.5.5 0 1 1 .5.86l-.87.5a.45.45 0 0 1-.25.07m3.46-2a.5.5 0 0 1-.25-.93l.87-.5a.5.5 0 1 1 .5.86l-.87.5a.45.45 0 0 1-.2.07zm3.47-2a.5.5 0 0 1-.25-.93l.86-.5a.51.51 0 0 1 .69.18.49.49 0 0 1-.19.68l-.86.5a.47.47 0 0 1-.25.07m3.46-2a.5.5 0 0 1-.25-.93l.87-.5a.5.5 0 1 1 .5.86l-.87.5a.45.45 0 0 1-.25.07m3.47-2a.51.51 0 0 1-.44-.25.51.51 0 0 1 .19-.68l.86-.5a.5.5 0 1 1 .5.86l-.86.5a.47.47 0 0 1-.25.07m3.46-2a.5.5 0 0 1-.25-.93l.87-.5a.5.5 0 1 1 .5.86l-.87.5a.45.45 0 0 1-.25.07m3.46-2a.5.5 0 0 1-.25-.93l.87-.5a.5.5 0 1 1 .5.86l-.87.5a.43.43 0 0 1-.25.07m3.47-2a.5.5 0 0 1-.25-.93l.86-.5a.51.51 0 0 1 .69.18.49.49 0 0 1-.19.68l-.86.5a.47.47 0 0 1-.25.07m3.46-2a.5.5 0 0 1-.25-.93l.87-.5a.5.5 0 1 1 .5.86l-.87.5a.43.43 0 0 1-.25.07m3.47-2a.52.52 0 0 1-.44-.25.51.51 0 0 1 .19-.68l.86-.5a.5.5 0 1 1 .5.86l-.86.5a.47.47 0 0 1-.25.07m3.46-2a.5.5 0 0 1-.25-.93l.87-.5a.5.5 0 1 1 .5.86l-.87.5a.45.45 0 0 1-.25.07m3.46-2a.5.5 0 0 1-.25-.93l.87-.5a.5.5 0 1 1 .5.86l-.87.5a.43.43 0 0 1-.25.07m3.47-2a.5.5 0 0 1-.25-.93l.86-.5a.51.51 0 0 1 .69.18.49.49 0 0 1-.19.68l-.86.5a.47.47 0 0 1-.25.07m3.46-2a.5.5 0 0 1-.25-.93l.87-.5a.5.5 0 1 1 .5.86l-.87.5a.43.43 0 0 1-.25.07m3.47-2a.51.51 0 0 1-.44-.25.51.51 0 0 1 .19-.68l.86-.5a.5.5 0 1 1 .5.86l-.86.5a.47.47 0 0 1-.24.07zm3.46-2a.5.5 0 0 1-.25-.93l.87-.5a.5.5 0 1 1 .5.86l-.87.5a.45.45 0 0 1-.25.07m3.47-2a.5.5 0 0 1-.25-.93l.86-.5a.5.5 0 1 1 .5.86l-.86.5a.47.47 0 0 1-.25.07m3.46-2a.5.5 0 0 1-.25-.93l.87-.5a.5.5 0 1 1 .5.86l-.87.5a.47.47 0 0 1-.25.07m3.46-2a.5.5 0 0 1-.25-.93l.87-.5a.5.5 0 1 1 .5.86l-.87.5a.45.45 0 0 1-.25.07m3.47-2a.5.5 0 0 1-.25-.93l.86-.5a.51.51 0 0 1 .69.18.49.49 0 0 1-.19.68l-.86.5a.47.47 0 0 1-.25.07m3.46-2a.5.5 0 0 1-.25-.93l.87-.5a.5.5 0 1 1 .5.86l-.87.5a.45.45 0 0 1-.25.07m3.47-2a.5.5 0 0 1-.25-.93l.86-.5a.5.5 0 0 1 .5.86l-.86.5a.47.47 0 0 1-.25.07m3.46-2a.5.5 0 0 1-.25-.93l.87-.5a.5.5 0 1 1 .5.86l-.87.5a.45.45 0 0 1-.25.07m3.46-2a.5.5 0 0 1-.25-.93l.87-.5a.5.5 0 1 1 .5.86l-.87.5a.45.45 0 0 1-.25.07m3.47-2a.5.5 0 0 1-.25-.93l.86-.5a.51.51 0 0 1 .69.18.49.49 0 0 1-.19.68l-.86.5a.47.47 0 0 1-.25.07m3.46-2a.5.5 0 0 1-.25-.93l.87-.5a.5.5 0 1 1 .5.86l-.87.5a.45.45 0 0 1-.25.07m3.47-2a.5.5 0 0 1-.25-.93l.86-.5a.5.5 0 1 1 .5.86l-.86.5a.47.47 0 0 1-.25.07m3.46-2a.5.5 0 0 1-.25-.93l.87-.5a.5.5 0 1 1 .5.86l-.87.5a.45.45 0 0 1-.27.07zm3.46-2a.5.5 0 0 1-.25-.93l.87-.5a.5.5 0 0 1 .5.86l-.87.5a.43.43 0 0 1-.25.07m3.47-2a.5.5 0 0 1-.25-.93l.86-.5a.51.51 0 0 1 .69.18.49.49 0 0 1-.19.68l-.86.5a.5.5 0 0 1-.2.07zm3.46-2a.5.5 0 0 1-.25-.93l.87-.5a.5.5 0 1 1 .5.86l-.87.5a.45.45 0 0 1-.25.07m3.47-2a.51.51 0 0 1-.44-.25.5.5 0 0 1 .19-.68l.86-.5a.5.5 0 1 1 .5.86l-.86.5a.47.47 0 0 1-.25.07m3.46-2a.5.5 0 0 1-.25-.93l.87-.5a.5.5 0 1 1 .5.86l-.87.5a.45.45 0 0 1-.25.07m3.46-2a.5.5 0 0 1-.25-.93l.87-.5a.5.5 0 1 1 .5.86l-.87.5a.43.43 0 0 1-.25.07m3.47-2a.5.5 0 0 1-.25-.93l.86-.5a.51.51 0 0 1 .69.18.49.49 0 0 1-.19.68l-.86.5a.47.47 0 0 1-.25.07m3.46-2a.5.5 0 0 1-.25-.93l.87-.5a.5.5 0 0 1 .5.86l-.87.5a.45.45 0 0 1-.25.07m-134.66 77.83-.69-.4a.5.5 0 0 1 .5-.86l.19.11.18-.11a.49.49 0 0 1 .68.18.51.51 0 0 1-.18.69zm-3.07-1.83a.43.43 0 0 1-.25-.07l-.87-.5a.5.5 0 0 1 .5-.86l.87.5a.5.5 0 0 1-.25.93m-3.47-2a.47.47 0 0 1-.25-.07l-.86-.5a.49.49 0 0 1-.19-.68.51.51 0 0 1 .69-.18l.86.5a.5.5 0 0 1-.25.93m-3.46-2a.45.45 0 0 1-.25-.07l-.87-.5a.5.5 0 0 1 .5-.86l.87.5a.5.5 0 0 1-.25.93m-3.47-2a.47.47 0 0 1-.25-.07l-.86-.5a.5.5 0 1 1 .5-.86l.86.5a.51.51 0 0 1 .19.68.52.52 0 0 1-.4.25zm-3.46-2a.45.45 0 0 1-.25-.07l-.87-.5a.5.5 0 0 1 .5-.86l.87.5a.5.5 0 0 1-.25.93m-3.47-2a.47.47 0 0 1-.25-.07l-.86-.5a.5.5 0 0 1 .5-.86l.86.5a.5.5 0 0 1-.25.93m-3.46-2a.47.47 0 0 1-.25-.07l-.87-.5a.5.5 0 0 1 .5-.86l.87.5a.5.5 0 0 1-.25.93m-3.46-2a.45.45 0 0 1-.25-.07l-.87-.5a.5.5 0 0 1 .5-.86l.87.5a.5.5 0 0 1-.25.93m-3.47-2a.47.47 0 0 1-.25-.07l-.86-.5a.49.49 0 0 1-.19-.68.51.51 0 0 1 .69-.18l.86.5a.5.5 0 0 1-.25.93m-3.46-2a.45.45 0 0 1-.25-.07l-.87-.5a.5.5 0 0 1 .5-.86l.87.5a.5.5 0 0 1-.25.93m-3.47-2a.47.47 0 0 1-.25-.07l-.86-.5a.5.5 0 1 1 .5-.86l.86.5a.5.5 0 0 1-.25.93m-3.46-2a.45.45 0 0 1-.25-.07l-.87-.5a.5.5 0 0 1 .5-.86l.87.5a.5.5 0 0 1-.25.93m-3.46-2a.43.43 0 0 1-.25-.07l-.87-.5a.5.5 0 0 1 .5-.86l.87.5a.5.5 0 0 1-.25.93m-3.47-2a.47.47 0 0 1-.25-.07l-.86-.5a.49.49 0 0 1-.19-.68.51.51 0 0 1 .69-.18l.86.5a.5.5 0 0 1-.25.93m-3.46-2a.45.45 0 0 1-.25-.07l-.87-.5a.5.5 0 0 1 .5-.86l.87.5a.5.5 0 0 1-.25.93m-3.43-2a.6.6 0 0 1-.25-.06l-.43-.25a.51.51 0 0 1-.18-.69.49.49 0 0 1 .68-.18l.43.25a.5.5 0 0 1-.25.93m55 39.75a.5.5 0 0 1-.5-.5v-.5a.5.5 0 0 1 .5-.5.51.51 0 0 1 .5.5v.5a.5.5 0 0 1-.5.5m0-3.5a.5.5 0 0 1-.5-.5v-1a.5.5 0 0 1 .5-.5.51.51 0 0 1 .5.5v1a.5.5 0 0 1-.5.5"/>
      <path d="M333.07 213.57a.5.5 0 0 1-.5-.5v-.5a.5.5 0 0 1 .5-.5.51.51 0 0 1 .5.5v.5a.5.5 0 0 1-.5.5"/>
    </g>
    <path fill="#FFF" fill-rule="nonzero" d="m333.07 220.57 55.42-32 27.49 15.88-55.42 32z"/>
    <path stroke="#0478D7" stroke-linejoin="round" d="m333.07 220.57 55.42-32 27.49 15.88-55.42 32z"/>
    <path fill="#015BE2" fill-rule="nonzero" d="m370.89 207.2 3 5.18 11.29.48-8.51 6.14 15.12-8.55zm-4.06 6.21 3.48 7.86 3.88-2.74-6.25-12.35z"/>
    <path stroke="#CA2171" stroke-linejoin="round" d="m390.23 135.57 13.86-8"/>
    <path fill="#252937" fill-rule="nonzero" d="m319.08 208.57-27.7-16 27.7-16 27.69 16zm41.56-24-27.7-16 27.7-16 27.7 16zm41.57-24-27.7-16 27.7-16 27.7 16z" opacity=".08"/>
    <g transform="translate(305 144)">
      <use xlink:href="#G" fill-rule="nonzero"/>
      <use xlink:href="#H"/>
      <path fill="#FFF" fill-rule="nonzero" d="m55.78 16.58-27.69 16v8l27.69-16z"/>
      <path stroke="#B5B8C4" stroke-linejoin="round" d="m55.78 16.58-27.69 16v8l27.69-16z"/>
      <path fill="#FFF" fill-rule="nonzero" d="m28.08 32.57-27.7-16 27.7-16 27.69 16z"/>
      <path stroke="#CA2171" stroke-linejoin="round" d="m28.08 32.57-27.7-16 27.7-16 27.69 16z"/>
      <ellipse cx="28.5" cy="26.82" fill="#CA2171" fill-rule="nonzero" rx="2.65" ry="1.53"/>
      <g stroke="#CA2171" stroke-linejoin="round">
        <use xlink:href="#I"/>
        <path d="m43.45 15.07-3.46 2-1.74-1a1.06 1.06 0 0 1 0-2 3.86 3.86 0 0 1 3.47 0z"/>
      </g>
    </g>
    <g transform="translate(346 120)">
      <path fill="#DDD" fill-rule="nonzero" d="m28.64 40.56-27.7-16v-8l27.7 16z"/>
      <path stroke="#B5B8C4" d="m28.64 40.56-27.7-16v-8l27.7 16z"/>
      <path fill="#FFF" fill-rule="nonzero" d="m56.35 16.58-27.7 16v8l27.7-16z"/>
      <path stroke="#B5B8C4" stroke-linejoin="round" d="m56.35 16.58-27.7 16v8l27.7-16z"/>
      <path fill="#FFF" fill-rule="nonzero" d="m28.64 32.57-27.7-16 27.7-16 27.7 16z"/>
      <path stroke="#CA2171" stroke-linejoin="round" d="m28.64 32.57-27.7-16 27.7-16 27.7 16z"/>
      <ellipse cx="29.07" cy="26.82" fill="#CA2171" fill-rule="nonzero" rx="2.65" ry="1.53"/>
      <path stroke="#CA2171" stroke-linejoin="round" d="m48.35 16.57-5.2 3-3.46-2 5.19-3zM44 15.07l-3.47 2-1.73-1a1.06 1.06 0 0 1 0-2 3.86 3.86 0 0 1 3.47 0z"/>
    </g>
    <g transform="translate(388 96)">
      <path fill="#DDD" fill-rule="nonzero" d="m28.2 40.56-27.7-16v-8l27.7 16z"/>
      <path stroke="#B5B8C4" d="m28.2 40.56-27.7-16v-8l27.7 16z"/>
      <path fill="#FFF" fill-rule="nonzero" d="m55.92 16.58-27.7 16v8l27.7-16z"/>
      <path stroke="#B5B8C4" stroke-linejoin="round" d="m55.92 16.58-27.7 16v8l27.7-16z"/>
      <path fill="#FFF" fill-rule="nonzero" d="m28.21 32.57-27.7-16 27.7-16 27.7 16z"/>
      <path stroke="#CA2171" stroke-linejoin="round" d="m28.21 32.57-27.7-16 27.7-16 27.7 16z"/>
      <ellipse cx="28.78" cy="26.74" fill="#CA2171" fill-rule="nonzero" rx="2.65" ry="1.53"/>
      <g stroke="#CA2171" stroke-linejoin="round">
        <path d="m47.92 16.57-5.2 3-3.46-2 5.19-3z"/>
        <path d="m43.59 15.07-3.47 2-1.73-1a1.05 1.05 0 0 1 0-2 3.86 3.86 0 0 1 3.47 0z"/>
      </g>
    </g>
    <g stroke="#CA2171" stroke-linejoin="round">
      <path d="m267.26 208.57 55.42-32m-58.89 30 29.45-17-119.51-69 25.98-15"/>
      <path d="m225.69 184.57 65.82-38-29.45-17m-24.25-2-55.42 32"/>
      <path d="m222.22 182.57 25.98-15-81.4-47 29.44-17"/>
    </g>
    <path stroke="#CA2171" stroke-linejoin="round" d="m182.39 175.57 13.85 8m27.72 16 13.85 8"/>
    <path stroke="#CFD1D9" d="m277.64 252.57-138.56-80m135.1 82-138.57-80m135.1 82-138.56-80m135.1 82-138.56-80m135.1 82-138.57-80m135.1 82-138.56-80m135.1 82-138.57-80m135.1 82-138.56-80m166.28 64-138.57-80m142.03 78-138.56-80m142.02 78-138.56-80m142.03 78-138.57-80m142.03 78-138.56-80m142.03 78-138.57-80m142.03 78-138.56-80m58.89 94 55.42-32m-58.89 30 55.43-32m-58.89 30 55.42-32m-58.89 30 55.43-32m-58.89 30 55.42-32m-58.88 30 55.42-32m-58.89 30 55.43-32m-58.89 30 55.42-32m-27.71 48 55.43-32m-51.97 34 55.43-32m-51.96 34 55.42-32m-51.96 34 55.43-32m-51.96 34 55.42-32m-51.96 34 55.43-32m-51.97 34 55.43-32m-128.17-10 55.42-32m-58.89 30 55.43-32m-58.89 30 55.43-32m-58.89 30 55.42-32m-58.89 30 55.43-32m-58.89 30 55.42-32m-58.89 30 55.43-32m-58.89 30 55.43-32m-27.72 48 55.43-32m-51.96 34 55.42-32m-51.96 34 55.43-32m-51.97 34 55.43-32m-51.96 34 55.42-32m-51.96 34 55.43-32m-124.71-8 55.43-32m-58.89 30 55.42-32m-58.89 30 55.43-32m-58.89 30 55.42-32m-41.56 40 55.42-32m-51.96 34 55.42-32m-51.96 34 55.43-32m-51.96 34 55.42-32m-51.96 34 55.43-32m-51.96 34 55.42-32" opacity=".3"/>
    <path stroke="#F7971D" stroke-linejoin="round" d="m111.36 188.57 55.43-32 138.56 80-55.42 32z"/>
    <path fill="#252937" fill-rule="nonzero" d="m166.79 148.57-6.93 12 6.93-4zm124.72 88-131.62-76 6.91-4 138.55 80z" opacity=".1"/>
    <path fill="#252937" fill-rule="nonzero" d="m236.08 268.57-138.54-80h13.83l138.55 80zm-138.57-80h13.85v-8z" opacity=".05"/>
    <path fill="#FFF" fill-rule="nonzero" d="M111.36 188.57v-8l55.43-32v8z"/>
    <path stroke="#F7971D" stroke-linejoin="round" d="M111.36 188.57v-8l55.43-32v8z"/>
    <path fill="#DDD" fill-rule="nonzero" d="M166.79 148.57v8l138.56 80v-8z"/>
    <path stroke="#F7971D" stroke-linejoin="round" d="M166.79 148.57v8l138.56 80v-8z"/>
    <g fill="#F7971D" fill-rule="nonzero">
      <path d="M304.92 229.32a.5.5 0 0 1-.25-.93l.43-.25a.5.5 0 1 1 .5.86l-.43.25a.45.45 0 0 1-.25.07m-51.92 30a.5.5 0 0 1-.25-.93l.87-.5a.5.5 0 1 1 .5.86l-.87.5a.47.47 0 0 1-.25.07m3.46-2a.5.5 0 0 1-.25-.93l.87-.5a.5.5 0 1 1 .5.86l-.87.5a.45.45 0 0 1-.29.07zm3.47-2a.5.5 0 0 1-.25-.93l.86-.5a.51.51 0 0 1 .69.18.49.49 0 0 1-.19.68l-.86.5a.47.47 0 0 1-.29.07zm3.46-2a.5.5 0 0 1-.25-.93l.87-.5a.5.5 0 0 1 .5.86l-.87.5a.45.45 0 0 1-.29.07zm3.47-2a.51.51 0 0 1-.44-.25.51.51 0 0 1 .19-.68l.86-.5a.5.5 0 1 1 .5.86l-.86.5a.47.47 0 0 1-.29.07zm3.46-2a.5.5 0 0 1-.25-.93l.87-.5a.5.5 0 1 1 .5.86l-.87.5a.45.45 0 0 1-.29.07zm3.47-2a.51.51 0 0 1-.44-.25.5.5 0 0 1 .19-.68l.86-.5a.5.5 0 1 1 .5.86l-.86.5a.47.47 0 0 1-.29.07zm3.46-2a.5.5 0 0 1-.25-.93l.87-.5a.5.5 0 1 1 .5.86l-.87.5a.47.47 0 0 1-.29.07zm3.46-2a.5.5 0 0 1-.25-.93l.87-.5a.5.5 0 1 1 .5.86l-.87.5a.45.45 0 0 1-.29.07zm3.47-2a.51.51 0 0 1-.44-.25.51.51 0 0 1 .19-.68l.86-.5a.5.5 0 1 1 .5.86l-.86.5a.47.47 0 0 1-.29.07zm3.46-2a.5.5 0 0 1-.25-.93l.87-.5a.5.5 0 0 1 .5.86l-.87.5a.45.45 0 0 1-.29.07zm3.47-2a.51.51 0 0 1-.44-.25.5.5 0 0 1 .19-.68l.86-.5a.5.5 0 1 1 .5.86l-.86.5a.47.47 0 0 1-.29.07zm3.46-2a.5.5 0 0 1-.25-.93l.87-.5a.5.5 0 1 1 .5.86l-.87.5a.47.47 0 0 1-.29.07zm3.46-2a.5.5 0 0 1-.25-.93l.87-.5a.5.5 0 1 1 .5.86l-.87.5a.45.45 0 0 1-.28.07zm3.47-2a.52.52 0 0 1-.44-.25.51.51 0 0 1 .19-.68l.86-.5a.5.5 0 1 1 .5.86l-.86.5a.47.47 0 0 1-.29.07zm-51.57 29.83-.68-.4a.49.49 0 0 1-.19-.68.51.51 0 0 1 .69-.18l.18.11.18-.11a.5.5 0 1 1 .5.86zm-3.03-1.83a.45.45 0 0 1-.25-.07l-.87-.5a.5.5 0 1 1 .5-.86l.87.5a.5.5 0 0 1-.25.93m-3.47-2a.47.47 0 0 1-.25-.07l-.86-.5a.5.5 0 1 1 .5-.86l.86.5a.51.51 0 0 1 .19.68.51.51 0 0 1-.44.25m-3.46-2a.45.45 0 0 1-.25-.07l-.87-.5a.5.5 0 0 1 .5-.86l.87.5a.5.5 0 0 1-.25.93m-3.47-2a.47.47 0 0 1-.25-.07l-.86-.5a.5.5 0 1 1 .5-.86l.86.5a.5.5 0 0 1-.25.93m-3.46-2a.47.47 0 0 1-.25-.07l-.87-.5a.5.5 0 1 1 .5-.86l.87.5a.5.5 0 0 1-.25.93m-3.46-2a.45.45 0 0 1-.25-.07l-.87-.5a.5.5 0 0 1 .5-.86l.87.5a.5.5 0 0 1-.25.93m-3.47-2a.47.47 0 0 1-.25-.07l-.86-.5a.5.5 0 1 1 .5-.86l.86.5a.51.51 0 0 1 .19.68.51.51 0 0 1-.44.25m-3.46-2a.45.45 0 0 1-.25-.07l-.87-.5a.5.5 0 0 1 .5-.86l.87.5a.5.5 0 0 1-.25.93m-3.47-2a.47.47 0 0 1-.25-.07l-.86-.5a.5.5 0 0 1 .5-.86l.86.5a.5.5 0 0 1-.25.93m-3.46-2a.47.47 0 0 1-.25-.07l-.87-.5a.5.5 0 0 1 .5-.86l.87.5a.5.5 0 0 1-.25.93m-3.46-2a.45.45 0 0 1-.25-.07l-.87-.5a.5.5 0 1 1 .5-.86l.87.5a.5.5 0 0 1-.25.93m-3.47-2a.47.47 0 0 1-.25-.07l-.86-.5a.5.5 0 1 1 .5-.86l.86.5a.5.5 0 0 1-.25.93m-3.46-2a.45.45 0 0 1-.25-.07l-.87-.5a.5.5 0 0 1 .5-.86l.87.5a.5.5 0 0 1-.25.93m-3.47-2a.47.47 0 0 1-.25-.07l-.86-.5a.5.5 0 0 1 .5-.86l.86.5a.5.5 0 0 1-.25.93m-3.46-2a.47.47 0 0 1-.25-.07l-.87-.5a.5.5 0 0 1 .5-.86l.87.5a.5.5 0 0 1-.25.93m-3.46-2a.43.43 0 0 1-.25-.07l-.87-.5a.5.5 0 0 1 .5-.86l.87.5a.5.5 0 0 1-.25.93m-3.47-2a.47.47 0 0 1-.25-.07l-.86-.5a.49.49 0 0 1-.19-.68.51.51 0 0 1 .69-.18l.86.5a.5.5 0 0 1-.25.93m-3.46-2a.45.45 0 0 1-.25-.07l-.87-.5a.5.5 0 1 1 .5-.86l.87.5a.5.5 0 0 1-.25.93m-3.47-2a.47.47 0 0 1-.25-.07l-.86-.5a.5.5 0 0 1 .5-.86l.86.5a.5.5 0 0 1 .19.68.51.51 0 0 1-.44.25m-3.46-2a.45.45 0 0 1-.25-.07l-.87-.5a.5.5 0 0 1 .5-.86l.87.5a.5.5 0 0 1-.25.93m-3.46-2a.43.43 0 0 1-.25-.07l-.87-.5a.5.5 0 0 1 .5-.86l.87.5a.5.5 0 0 1-.25.93m-3.47-2a.47.47 0 0 1-.25-.07l-.86-.5a.49.49 0 0 1-.19-.68.51.51 0 0 1 .69-.18l.86.5a.5.5 0 0 1-.25.93m-3.46-2a.45.45 0 0 1-.25-.07l-.87-.5a.5.5 0 0 1 .5-.86l.87.5a.5.5 0 0 1-.25.93m-3.47-2a.47.47 0 0 1-.25-.07l-.86-.5a.5.5 0 1 1 .5-.86l.86.5a.51.51 0 0 1 .19.68.51.51 0 0 1-.44.25m-3.46-2a.45.45 0 0 1-.25-.07l-.87-.5a.5.5 0 1 1 .5-.86l.87.5a.5.5 0 0 1-.25.93m-3.47-2a.47.47 0 0 1-.25-.07l-.86-.5a.5.5 0 0 1 .5-.86l.86.5a.5.5 0 0 1-.25.93m-3.46-2a.47.47 0 0 1-.25-.07l-.87-.5a.5.5 0 0 1 .5-.86l.87.5a.5.5 0 0 1-.25.93m-3.46-2a.45.45 0 0 1-.25-.07l-.87-.5a.5.5 0 0 1 .5-.86l.87.5a.5.5 0 0 1-.25.93m-3.47-2a.47.47 0 0 1-.25-.07l-.86-.5a.5.5 0 1 1 .5-.86l.86.5a.5.5 0 0 1-.25.93m-3.46-2a.45.45 0 0 1-.25-.07l-.87-.5a.5.5 0 1 1 .5-.86l.87.5a.5.5 0 0 1-.25.93m-3.47-2a.47.47 0 0 1-.25-.07l-.86-.5a.5.5 0 1 1 .5-.86l.86.5a.5.5 0 0 1-.25.93m-3.46-2a.47.47 0 0 1-.25-.07l-.87-.5a.5.5 0 0 1 .5-.86l.87.5a.5.5 0 0 1-.25.93m-3.46-2a.43.43 0 0 1-.25-.07l-.87-.5a.5.5 0 1 1 .5-.86l.87.5a.5.5 0 0 1-.25.93m-3.47-2a.47.47 0 0 1-.25-.07l-.86-.5a.49.49 0 0 1-.19-.68.51.51 0 0 1 .69-.18l.86.5a.5.5 0 0 1-.25.93m-3.46-2a.45.45 0 0 1-.25-.07l-.87-.5a.5.5 0 1 1 .5-.86l.87.5a.5.5 0 0 1-.25.93m-3.47-2a.47.47 0 0 1-.25-.07l-.86-.5a.5.5 0 0 1 .5-.86l.86.5a.5.5 0 0 1-.25.93m-3.46-2a.47.47 0 0 1-.25-.07l-.87-.5a.5.5 0 1 1 .5-.86l.87.5a.5.5 0 0 1-.25.93m-3.46-2a.43.43 0 0 1-.25-.07l-.87-.5a.5.5 0 1 1 .5-.86l.87.5a.5.5 0 0 1-.25.93m-3.47-2a.47.47 0 0 1-.25-.07l-.86-.5a.49.49 0 0 1-.19-.68.51.51 0 0 1 .69-.18l.86.5a.5.5 0 0 1-.25.93m-3.46-2a.45.45 0 0 1-.25-.07l-.43-.25a.49.49 0 0 1-.19-.68.51.51 0 0 1 .69-.18l.43.25a.5.5 0 0 1-.25.93m138.13 87.75a.5.5 0 0 1-.5-.5v-.5a.5.5 0 0 1 1 0v.5a.5.5 0 0 1-.5.5m0-3.5a.5.5 0 0 1-.5-.5v-1a.5.5 0 0 1 1 0v1a.5.5 0 0 1-.5.5"/>
      <path d="M249.93 261.57a.5.5 0 0 1-.5-.5v-.5a.5.5 0 0 1 1 0v.5a.5.5 0 0 1-.5.5"/>
    </g>
    <path fill="#FFF" fill-rule="nonzero" d="m249.93 268.57 55.42-32 27.5 15.88-55.43 32z"/>
    <path stroke="#F7971D" stroke-linejoin="round" d="m249.93 268.57 55.42-32 27.5 15.88-55.43 32z"/>
    <path fill="#232F3E" fill-rule="nonzero" d="M301 255.59a8.6 8.6 0 0 1-1.33.62 7 7 0 0 1-1.21.33 1.2 1.2 0 0 1-.46 0 1.3 1.3 0 0 1-.26-.1l-.4-.23q-.24-.14-.06-.24a.5.5 0 0 1 .17-.07l.27-.07a8 8 0 0 0 1.13-.33 8 8 0 0 0 1-.48 2 2 0 0 0 .88-.81c.09-.25 0-.47-.33-.65a1.45 1.45 0 0 0-.76-.19 4 4 0 0 0-1.19.21l-1.48.45a5.6 5.6 0 0 1-2 .26 3.5 3.5 0 0 1-1.52-.43 1.5 1.5 0 0 1-.65-.62 1 1 0 0 1-.08-.69 1.5 1.5 0 0 1 .41-.7 3.4 3.4 0 0 1 .84-.64 6 6 0 0 1 .56-.28c.2-.09.39-.17.59-.24l.56-.19.46-.11a2.3 2.3 0 0 1 .43 0 .9.9 0 0 1 .32.11l.37.21c.16.1.18.18.07.25a2 2 0 0 1-.4.11 6.2 6.2 0 0 0-1.79.69 1.9 1.9 0 0 0-.82.73c-.1.22 0 .43.33.61a1.5 1.5 0 0 0 .78.18 5 5 0 0 0 1.28-.24l1.46-.44a5.5 5.5 0 0 1 2-.26 3.6 3.6 0 0 1 1.45.42c.285.148.527.37.7.64a1 1 0 0 1 .12.72 1.53 1.53 0 0 1-.43.75 4 4 0 0 1-.95.72zm-10.12 5.65a.9.9 0 0 1-.38.13c-.16 0-.32-.026-.47-.08l-7.83-2.42a2.5 2.5 0 0 1-.38-.14c-.12-.08-.12-.15 0-.22l.76-.44a.94.94 0 0 1 .38-.14q.241.013.47.09l6.44 2.21-3.93-3.66c-.12-.11-.17-.2-.15-.26s.09-.14.23-.23l.63-.36a1 1 0 0 1 .39-.14 1.6 1.6 0 0 1 .45.09l6.43 2.3-3.92-3.78c-.11-.12-.16-.2-.15-.27s.09-.13.23-.22l.72-.41a.33.33 0 0 1 .38 0 .3.3 0 0 1 .11.08.6.6 0 0 1 .14.14l4.13 4.55c.11.11.16.21.15.27s-.09.14-.23.22l-.67.38a.8.8 0 0 1-.39.13 1.1 1.1 0 0 1-.42-.06l-6.22-2.19 3.81 3.58c.12.11.17.2.16.27s-.08.14-.23.22zm-7.09 3.11a2.2 2.2 0 0 0 .66-.54.89.89 0 0 0 .24-.71.73.73 0 0 0-.23-.44 2.7 2.7 0 0 0-.6-.43l-.32-.19a9 9 0 0 0-.85.34 6 6 0 0 0-.77.39c-.52.3-.8.58-.85.85s.13.51.52.73a2.11 2.11 0 0 0 2.2 0m2-2.5q.369.22.78.35c.23.07.5.12.81.18a.6.6 0 0 1 .23.07.17.17 0 0 1 .08.22l-.16.47a.36.36 0 0 1-.14.16.8.8 0 0 1-.34.07 4.5 4.5 0 0 1-.64-.05c-.21 0-.44-.07-.69-.13.11.77-.3 1.41-1.21 1.94a4.26 4.26 0 0 1-2.11.58 4.1 4.1 0 0 1-2.07-.54c-.66-.38-1-.82-.89-1.33s.5-1 1.3-1.45a8 8 0 0 1 .89-.44c.32-.14.67-.28 1.06-.41l-.58-.33a3.24 3.24 0 0 0-1.61-.51 3.4 3.4 0 0 0-1.62.52 4.5 4.5 0 0 0-.74.54 7 7 0 0 0-.57.64 1.3 1.3 0 0 1-.17.22l-.1.08a.4.4 0 0 1-.41-.05l-.38-.22c-.12-.07-.2-.13-.21-.19s0-.12.05-.22a4 4 0 0 1 .63-.77 6.1 6.1 0 0 1 3.72-1.59 5.1 5.1 0 0 1 2.56.73z"/>
    <path fill="#F7971D" fill-rule="nonzero" d="M306.24 256.93c-.67 2.56-3.38 5.28-6.57 7.13a34.6 34.6 0 0 1-16 4.13c-.46 0-.54-.29-.09-.35a42.9 42.9 0 0 0 14.63-4.91 22.1 22.1 0 0 0 7-6.13c.25-.36 1.08-.3 1 .13"/>
    <path fill="#F7971D" fill-rule="nonzero" d="M306.09 255.61c-.75-.05-2.36 1.14-3.09 1.67-.22.16-.48.06-.41-.16.44-1.44 3.13-2.66 3.76-2.62s2.67 1.63 2.45 3.09a.26.26 0 0 1-.47.09c-.46-.62-1.5-2-2.24-2.07"/>
    <path fill="#252937" fill-rule="nonzero" d="m152.8 208.57-27.69-16 27.69-16 27.69 16zm83.14 48-27.7-16 27.7-16 27.69 16zm-41.57-24-27.69-16 27.69-16 27.69 16z" opacity=".08"/>
    <g transform="translate(222 192)">
      <use xlink:href="#q" fill-rule="nonzero"/>
      <use xlink:href="#r"/>
      <use xlink:href="#s" fill-rule="nonzero"/>
      <use xlink:href="#t" stroke-linejoin="round"/>
      <use xlink:href="#u" fill-rule="nonzero"/>
      <use xlink:href="#v" stroke-linejoin="round"/>
      <ellipse cx="28.51" cy="26.74" fill="#CA2171" fill-rule="nonzero" rx="2.65" ry="1.53"/>
      <g stroke="#CA2171" stroke-linejoin="round">
        <use xlink:href="#w"/>
        <path d="m43.31 15.07-3.46 2-1.73-1a1.05 1.05 0 0 1 0-2 3.83 3.83 0 0 1 3.46 0z"/>
      </g>
    </g>
    <g transform="translate(180 168)">
      <path fill="#DDD" fill-rule="nonzero" d="m28.36 40.56-27.69-16v-8l27.69 16z"/>
      <path stroke="#B5B8C4" d="m28.36 40.56-27.69-16v-8l27.69 16z"/>
      <use xlink:href="#k" fill-rule="nonzero"/>
      <use xlink:href="#l" stroke-linejoin="round"/>
      <path fill="#FFF" fill-rule="nonzero" d="m28.37 32.57-27.69-16 27.69-16 27.69 16z"/>
      <path stroke="#CA2171" stroke-linejoin="round" d="m28.37 32.57-27.69-16 27.69-16 27.69 16z"/>
      <ellipse cx="28.36" cy="26.41" fill="#CA2171" fill-rule="nonzero" rx="2.65" ry="1.53"/>
      <g stroke="#CA2171" stroke-linejoin="round">
        <use xlink:href="#o"/>
        <use xlink:href="#p"/>
      </g>
    </g>
    <g transform="translate(139 144)">
      <use xlink:href="#a" fill-rule="nonzero"/>
      <use xlink:href="#b"/>
      <use xlink:href="#c" fill-rule="nonzero"/>
      <use xlink:href="#d" stroke-linejoin="round"/>
      <use xlink:href="#e" fill-rule="nonzero"/>
      <use xlink:href="#f" stroke-linejoin="round"/>
      <ellipse cx="28.08" cy="26.57" fill="#CA2171" fill-rule="nonzero" rx="2.65" ry="1.53"/>
      <g stroke="#CA2171" stroke-linejoin="round">
        <use xlink:href="#g"/>
        <use xlink:href="#h"/>
      </g>
    </g>
    <path stroke="#CA2171" stroke-linejoin="round" d="m152.94 78.57-55.42 32m3.46 2 25.98-15 36.38 21 29.44-17"/>
    <path stroke="#CFD1D9" d="m111.36 124.57-55.42 32m58.89-30-55.43 32m58.89-30-55.42 32m58.89-30-55.43 32m58.89-30-55.42 32m58.88-30-55.42 32m58.89-30-55.43 32m58.89-30-55.42 32m27.71-48-55.42 32m51.96-34-55.43 32m51.96-34-55.42 32m51.96-34-55.43 32m51.96-34-55.42 32m51.96-34-55.43 32m51.97-34-55.43 32m79.67 14-55.42-32m51.96 34-55.43-32m51.97 34-55.43-32m51.96 34-55.42-32m51.96 34-55.43-32m51.96 34-55.42-32m51.96 34-55.43-32m51.97 34-55.43-32m83.14 16-55.43-32m58.89 30-55.42-32m58.89 30-55.43-32m58.89 30-55.42-32m58.88 30-55.42-32m58.89 30-55.43-32m58.89 30-55.42-32" opacity=".3"/>
    <path stroke="#4D8CF5" stroke-linejoin="round" d="m83.65 172.57-55.42-32 55.42-32 55.43 32z"/>
    <path fill="#252937" fill-rule="nonzero" d="m125.23 140.57-48.48-28 6.91-4 55.41 32z" opacity=".1"/>
    <path fill="#252937" fill-rule="nonzero" d="m69.81 172.57-55.41-32h13.82l55.41 32z" opacity=".05"/>
    <path fill="#FFF" fill-rule="nonzero" d="m.73 124.7 55.43-32 27.49 15.87-55.42 32z"/>
    <path stroke="#4D8CF5" stroke-linejoin="round" d="m.73 124.7 55.43-32 27.49 15.87-55.42 32z"/>
    <g fill-rule="nonzero">
      <path fill="#FBC014" d="m46.22 120-7.71-1.17-4.23-.64a2.4 2.4 0 0 1-.86-.33l1.2 2.58a1.76 1.76 0 0 0 1.23.71l10.78 1.67a3 3 0 0 0 1.69-.26l4.68-2.7a.59.59 0 0 0 0-.5l-1.23-2.57z"/>
      <path fill="#EB493C" d="m52.53 110.11-6.39-1a2.4 2.4 0 0 0-.85.25l-3.18 1.83 7.59 1.21 2.1 4.38 1.2 2.58a.59.59 0 0 1 0 .5l3.2-1.86a.84.84 0 0 0 .46-1l-1.15-2.47-1.74-3.75a1.76 1.76 0 0 0-1.24-.67"/>
      <path fill="#4D8CF5" d="M41.76 108.44a3 3 0 0 0-1.69.26L37 110.49l-4.79 2.77a.83.83 0 0 0-.45 1l1.69 3.64c.263.164.555.276.86.33l4.23.64-2-4.39 5.62-3.25 3.18-1.83a2.4 2.4 0 0 1 .85-.25z"/>
      <path fill="#E2E2E2" d="m42.11 111.2-5.62 3.25 2 4.39 7.73 1.16 5.58-3.22-2.1-4.38zm4.56 5.87a5.49 5.49 0 0 1-5 0c-1.37-.79-1.37-2.08 0-2.88a5.55 5.55 0 0 1 5 0c1.38.81 1.38 2.09 0 2.88"/>
    </g>
    <path fill="#252937" fill-rule="nonzero" d="m83.65 100.57-6.93 12 6.93-4z" opacity=".1"/>
    <path fill="#252937" fill-rule="nonzero" d="M14.37 140.57h13.86v-8z" opacity=".05"/>
    <path fill="#FFF" fill-rule="nonzero" d="M28.23 140.57v-8l55.42-32v8z"/>
    <path stroke="#4D8CF5" stroke-linejoin="round" d="M28.23 140.57v-8l55.42-32v8z"/>
    <path fill="#DDD" fill-rule="nonzero" d="M83.65 100.57v8l55.43 32v-8z"/>
    <path stroke="#4D8CF5" stroke-linejoin="round" d="M83.65 100.57v8l55.43 32v-8z"/>
    <g fill="#4D8CF5" fill-rule="nonzero">
      <path d="M138.64 133.32a.5.5 0 0 1-.25-.93l.44-.25a.5.5 0 1 1 .5.86l-.44.25a.43.43 0 0 1-.25.07m-51.96 30a.5.5 0 0 1-.25-.93l.87-.5a.5.5 0 0 1 .5.86l-.87.5a.45.45 0 0 1-.25.07m3.47-2a.51.51 0 0 1-.44-.25.51.51 0 0 1 .19-.68l.86-.5a.5.5 0 1 1 .5.86l-.86.5a.47.47 0 0 1-.25.07m3.46-2a.5.5 0 0 1-.25-.93l.87-.5a.5.5 0 0 1 .5.86l-.87.5a.45.45 0 0 1-.25.07m3.47-2a.5.5 0 0 1-.25-.93l.86-.5a.5.5 0 0 1 .5.86l-.86.5a.47.47 0 0 1-.25.07m3.46-2a.5.5 0 0 1-.25-.93l.87-.5a.5.5 0 0 1 .5.86l-.87.5a.47.47 0 0 1-.25.07m3.46-2a.5.5 0 0 1-.25-.93l.87-.5a.5.5 0 0 1 .5.86l-.87.5a.45.45 0 0 1-.25.07m3.47-2a.5.5 0 0 1-.25-.93l.86-.5a.5.5 0 1 1 .5.86l-.86.5a.47.47 0 0 1-.25.07m3.46-2a.5.5 0 0 1-.25-.93l.87-.5a.5.5 0 0 1 .5.86l-.87.5a.45.45 0 0 1-.25.07m3.47-2a.5.5 0 0 1-.25-.93l.86-.5a.5.5 0 0 1 .5.86l-.86.5a.47.47 0 0 1-.25.07m3.46-2a.5.5 0 0 1-.25-.93l.87-.5a.5.5 0 0 1 .5.86l-.87.5a.47.47 0 0 1-.25.07m3.46-2a.5.5 0 0 1-.25-.93l.87-.5a.5.5 0 0 1 .5.86l-.87.5a.45.45 0 0 1-.25.07m3.47-2a.5.5 0 0 1-.25-.93l.86-.5a.5.5 0 1 1 .5.86l-.86.5a.47.47 0 0 1-.25.07m3.46-2a.5.5 0 0 1-.25-.93l.87-.5a.5.5 0 0 1 .5.86l-.87.5a.45.45 0 0 1-.25.07m3.47-2a.51.51 0 0 1-.44-.25.5.5 0 0 1 .19-.68l.86-.5a.5.5 0 1 1 .5.86l-.86.5a.47.47 0 0 1-.25.07m3.46-2a.5.5 0 0 1-.25-.93l.87-.5a.5.5 0 1 1 .5.86l-.87.5a.47.47 0 0 1-.25.07m-51.53 29.83-.68-.39a.51.51 0 0 1-.18-.69.49.49 0 0 1 .68-.18l.18.11.18-.11a.51.51 0 0 1 .69.18.49.49 0 0 1-.19.68zm-3.03-1.83a.47.47 0 0 1-.25-.07l-.87-.5a.5.5 0 1 1 .5-.86l.87.5a.5.5 0 0 1-.25.93m-3.46-2a.45.45 0 0 1-.25-.07l-.87-.5a.5.5 0 1 1 .5-.86l.87.5a.5.5 0 0 1-.25.93m-3.47-2a.47.47 0 0 1-.25-.07l-.86-.5a.5.5 0 1 1 .5-.86l.86.5a.5.5 0 0 1-.25.93m-3.46-2a.45.45 0 0 1-.25-.07l-.87-.5a.5.5 0 1 1 .5-.86l.87.5a.5.5 0 0 1-.25.93m-3.47-2a.47.47 0 0 1-.25-.07l-.86-.5a.5.5 0 1 1 .5-.86l.86.5a.5.5 0 0 1-.25.93m-3.46-2a.47.47 0 0 1-.25-.07l-.87-.5a.5.5 0 1 1 .5-.86l.87.5a.5.5 0 0 1-.25.93m-3.46-2a.43.43 0 0 1-.25-.07l-.87-.5a.5.5 0 0 1 .5-.86l.87.5a.5.5 0 0 1-.25.93m-3.47-2a.47.47 0 0 1-.25-.07l-.86-.5a.49.49 0 0 1-.19-.68.51.51 0 0 1 .69-.18l.86.5a.5.5 0 0 1-.25.93m-3.46-2a.45.45 0 0 1-.25-.07l-.87-.5a.5.5 0 1 1 .5-.86l.87.5a.5.5 0 0 1-.25.93m-3.47-2a.47.47 0 0 1-.25-.07l-.86-.5a.5.5 0 0 1 .5-.86l.86.5a.5.5 0 0 1-.25.93m-3.46-2a.47.47 0 0 1-.25-.07l-.87-.5a.5.5 0 0 1 .5-.86l.87.5a.5.5 0 0 1-.25.93m-3.46-2a.43.43 0 0 1-.25-.07l-.87-.5a.5.5 0 0 1 .5-.86l.87.5a.5.5 0 0 1-.25.93m-3.47-2a.47.47 0 0 1-.25-.07l-.86-.5a.49.49 0 0 1-.19-.68.51.51 0 0 1 .69-.18l.86.5a.5.5 0 0 1-.25.93m-3.46-2a.45.45 0 0 1-.25-.07l-.87-.5a.5.5 0 0 1 .5-.86l.87.5a.5.5 0 0 1-.25.93m-3.47-2a.47.47 0 0 1-.25-.07l-.86-.5a.5.5 0 0 1 .5-.86l.86.5a.5.5 0 0 1 .19.68.51.51 0 0 1-.44.25m-3.46-2a.45.45 0 0 1-.25-.07L28 133a.5.5 0 1 1 .5-.86l.43.25a.5.5 0 0 1-.25.93zm54.99 39.75a.5.5 0 0 1-.5-.5v-.5a.51.51 0 0 1 .5-.5.5.5 0 0 1 .5.5v.5a.5.5 0 0 1-.5.5m0-3.5a.5.5 0 0 1-.5-.5v-1a.51.51 0 0 1 .5-.5.5.5 0 0 1 .5.5v1a.5.5 0 0 1-.5.5"/>
      <path d="M83.65 165.57a.5.5 0 0 1-.5-.5v-.5a.51.51 0 0 1 .5-.5.5.5 0 0 1 .5.5v.5a.5.5 0 0 1-.5.5"/>
    </g>
    <path fill="#252937" fill-rule="nonzero" d="M69.66 160.57 42 144.58l27.69-16 27.7 16z" opacity=".08"/>
    <g transform="translate(56 96)">
      <path fill="#DDD" fill-rule="nonzero" d="M27.65 40.56 0 24.58v-8l27.69 16z"/>
      <path stroke="#B5B8C4" d="M27.65 40.56 0 24.58v-8l27.69 16z"/>
      <path fill="#FFF" fill-rule="nonzero" d="m55.36 16.58-27.7 16v8l27.7-16z"/>
      <path stroke="#B5B8C4" stroke-linejoin="round" d="m55.36 16.58-27.7 16v8l27.7-16z"/>
      <path fill="#FFF" fill-rule="nonzero" d="M27.66 32.57 0 16.58l27.69-16 27.7 16z"/>
      <path stroke="#CA2171" stroke-linejoin="round" d="M27.66 32.57 0 16.58l27.69-16 27.7 16z"/>
      <ellipse cx="27.65" cy="26.41" fill="#CA2171" fill-rule="nonzero" rx="2.65" ry="1.53"/>
      <path stroke="#CA2171" stroke-linejoin="round" d="m46.36 16.57-5.19 3-3.47-2 5.2-3zM42 15.07l-3.46 2-1.73-1a1.05 1.05 0 0 1 0-2 3.83 3.83 0 0 1 3.46 0z"/>
    </g>
  </g>
</svg>
