<svg xmlns="http://www.w3.org/2000/svg" xmlns:xlink="http://www.w3.org/1999/xlink" width="388.739" height="456.098" viewBox="0 0 102.854 120.676">
  <defs>
    <path id="a" fill="context-stroke" stroke="context-stroke" d="m0 0 5-5-17.5 5L5 5Z"/>
    <path id="b" fill="none" d="m36.335-.44-8.368-4.253a3.1 3.1 0 0 0-2.79 0L16.81-.44A3.15 3.15 0 0 0 15.542.732a3.2 3.2 0 0 0-.47 1.675v10.108c-.007.595.15 1.18.456 1.689.304.508.744.92 1.268 1.185l8.368 4.252a3.1 3.1 0 0 0 2.803 0l8.368-4.252a3.15 3.15 0 0 0 1.267-1.172 3.2 3.2 0 0 0 .47-1.675V2.407a3.2 3.2 0 0 0-.47-1.675 3.15 3.15 0 0 0-1.267-1.173M26.1-2.74a.95.95 0 0 1 .92 0l7.645 3.877-2.881 1.47-8.105-4.117zm.46 8.022-8.105-4.118 2.881-1.471 8.119 4.131zm-8.829 8.276a1.05 1.05 0 0 1-.426-.396 1.07 1.07 0 0 1-.153-.567V2.888l8.369 4.239v10.388zm17.658 0-7.79 3.944V7.127l8.369-4.239v9.72a1.1 1.1 0 0 1-.174.52c-.102.154-.241.28-.405.363z"/>
    <path id="c" d="M60.894 32.634a1.06 1.06 0 1 1 1.057-1.049 1.06 1.06 0 0 1-1.057 1.064"/>
    <path id="d" d="M62.957 32.064a.49.49 0 1 1 .49-.479.49.49 0 0 1-.49.49m1.788.448a.452.452 0 1 1-.903-.038.452.452 0 0 1 .903.038m-.345-1.259a.49.49 0 1 1 .383-.59.5.5 0 0 1 0 .192.47.47 0 0 1-.383.383m1.739 1.221a.488.488 0 1 1-.961-.168.48.48 0 0 1 .566-.383.49.49 0 0 1 .406.52.2.2 0 0 0 0 .047m-.406-1.245a.486.486 0 1 1 .383-.559 1 1 0 0 1 0 .127.486.486 0 0 1-.406.432m-.321 2.921a.49.49 0 1 1 .06-.2.4.4 0 0 1-.06.2m-.177-4.491a.49.49 0 1 1-.481-.853.49.49 0 0 1 .481.853"/>
    <path id="e" d="M60.914 36.5a4.915 4.915 0 1 1 2.981-8.803l-.597.766a3.93 3.93 0 1 0 0 6.243l.597.784a4.85 4.85 0 0 1-2.981 1.01"/>
    <path id="h" fill="none" stroke="#ca2171" d="M511.848-342.435h2.844l-1.199-1.199m-1.645 1.199h2.844l-1.199 1.2m6.614-1.2h-2.845l1.2-1.199m1.645 1.199h-2.845l1.2 1.2m-2.428-5.173v2.845l-1.199-1.2m1.199-1.645v2.845l1.2-1.2m-1.2 6.338v-2.845l1.2 1.2m-1.2 1.645v-2.845l-1.199 1.2"/>
    <marker id="f" orient="auto" overflow="visible" refX="0" refY="0">
      <use xlink:href="#a" fill-rule="evenodd" stroke-width="1pt" transform="rotate(180 -.6 0)scale(.2)"/>
    </marker>
    <marker id="g" orient="auto" overflow="visible" refX="0" refY="0">
      <use xlink:href="#a" fill-rule="evenodd" stroke-width="1pt" transform="rotate(180 -.6 0)scale(.2)"/>
    </marker>
    <marker id="i" orient="auto" overflow="visible" refX="0" refY="0">
      <use xlink:href="#a" fill-rule="evenodd" stroke-width="1pt" transform="matrix(-.4 0 0 -.4 -4 0)"/>
    </marker>
    <marker id="j" orient="auto" overflow="visible" refX="0" refY="0">
      <use xlink:href="#a" fill-rule="evenodd" stroke-width="1pt" transform="matrix(-.4 0 0 -.4 -4 0)"/>
    </marker>
    <marker id="k" orient="auto" overflow="visible" refX="0" refY="0">
      <use xlink:href="#a" fill-rule="evenodd" stroke-width="1pt" transform="matrix(-.4 0 0 -.4 -4 0)"/>
    </marker>
  </defs>
  <g transform="translate(-62.387 -49.682)">
    <path fill="#fff" d="M42.365 42.069h139.507v138.57H42.365z" paint-order="markers stroke fill"/>
    <path fill="none" stroke="#c9d8ff" stroke-dasharray=".8 .4" stroke-width=".4" d="m97.72 94.776 14.424-.09 4.243-10.732h11.256M83.958 95.927l.997-1.086 10.403-.091m42.626-16.044h-1.99l-4.304 3.401.015 1.336M142.73 95.83l-10.58-11.47m5.72 28.982-2.05-.016-4.031-2.971-.004-25.754"/>
    <text xml:space="preserve" x="235.834" y="947.221" fill="#b6b8c2" stroke-width=".08" font-family="Open Sans" font-size="4.251" font-weight="400" style="line-height:1.25;-inkscape-font-specification:&quot;Open Sans&quot;" transform="translate(-91.804 -586.218)scale(.69136)"><tspan x="235.834" y="947.221" font-weight="700" style="-inkscape-font-specification:&quot;Open Sans Bold&quot;">DC1</tspan></text>
    <use xlink:href="#b" transform="translate(64.341 66.478)scale(.16186)"/>
    <text xml:space="preserve" x="240.735" y="945.267" fill="#b6b8c2" stroke-width=".053" font-family="sans-serif" font-size="2.113" style="line-height:1.25" transform="translate(-162.601 -876.978)" word-spacing="0"><tspan x="240.735" y="945.267">| ON PREMISES</tspan></text>
    <text xml:space="preserve" x="235.834" y="947.221" fill="#b6b8c2" stroke-width=".08" font-family="Open Sans" font-size="4.251" font-weight="400" style="line-height:1.25;-inkscape-font-specification:&quot;Open Sans&quot;" transform="translate(-32.13 -586.218)scale(.69136)"><tspan x="235.834" y="947.221" font-weight="700" style="-inkscape-font-specification:&quot;Open Sans Bold&quot;">DC2</tspan></text>
    <use xlink:href="#b" transform="translate(124.015 66.478)scale(.16186)"/>
    <text xml:space="preserve" x="296.28" y="945.618" fill="#b6b8c2" stroke-width=".053" font-family="sans-serif" font-size="2.113" style="line-height:1.25" transform="translate(-158.472 -877.329)" word-spacing="0"><tspan x="296.28" y="945.618">| CLOUD US-EAST-1</tspan></text>
    <rect width="39.41" height="62.259" x="64.3" y="62.201" fill="none" stroke="#d2d4db" stroke-linecap="round" stroke-width=".574" paint-order="markers stroke fill" rx=".338" ry=".562"/>
    <rect width="39.442" height="62.456" x="123.829" y="62.186" fill="none" stroke="#d2d4db" stroke-linecap="round" stroke-width=".544" paint-order="markers stroke fill" rx=".302" ry=".564"/>
    <path fill="none" stroke="#ffcc5b" stroke-width=".4" d="m83.933 99.302 1.048-.908h7.392"/>
    <path fill="none" stroke="#fe9150" stroke-width=".4" d="m83.954 102.215 1.049-.908h5.965"/>
    <path fill="none" stroke="#ffcc5b" stroke-width=".4" d="m142.787 99.27-1.242-.876h-7.198"/>
    <path fill="none" stroke="#648fff" stroke-width=".4" d="m137.984 78.706-4.907 4.004v14.864"/>
    <path fill="none" stroke="#ffcc5b" stroke-width=".4" d="m89.335 81.965 2.838 2.616V98.4"/>
    <path fill="none" stroke="#fe9150" stroke-width=".4" d="m89 84.701 1.777 1.59v15.134"/>
    <path fill="none" stroke="#ffcc5b" stroke-width=".4" d="m138.127 81.582-3.487 3.01v13.553M89.049 115.58l3.137-2.774V98.301"/>
    <path fill="none" stroke="#fe9150" stroke-width=".4" d="m89.01 118.664 1.778-1.59V101.51"/>
    <path fill="none" stroke="#ffcc5b" stroke-width=".4" d="m138.03 116.626-3.39-2.655V98.145"/>
    <circle cx="133.085" cy="96.723" r=".561" fill="#648fff" paint-order="markers stroke fill"/>
    <circle cx="131.728" cy="83.992" r=".561" fill="#c9d8ff" paint-order="markers stroke fill"/>
    <path fill="none" stroke="#c9d8ff" stroke-dasharray=".8 .4" stroke-width=".4" d="M89.371 78.675h1.99l3.7 3.145-.015 2.111m-6.063 28.376 2.551-.016 3.485-3.267.027-24.75"/>
    <circle cx="-95.022" cy="94.749" r=".561" fill="#c9d8ff" paint-order="markers stroke fill" transform="scale(-1 1)"/>
    <circle cx="92.126" cy="98.329" r=".561" fill="#ffcc5b" paint-order="markers stroke fill"/>
    <circle cx="90.775" cy="101.269" r=".561" fill="#fe9150" paint-order="markers stroke fill"/>
    <g transform="translate(-115.285 -965.306)">
      <path fill="none" stroke="#fe9150" stroke-width=".4" d="m258.122 1067.68-1.468-1.263h-5.094"/>
      <path fill="none" stroke="#fe9150" stroke-width=".4" d="m253.528 1050.07-1.777 1.59v14.875m1.766 18.63-1.778-1.59v-16.955"/>
      <circle cx="-251.753" cy="1066.379" r=".561" fill="#fe9150" paint-order="markers stroke fill" transform="scale(-1 1)"/>
    </g>
    <circle cx="134.659" cy="98.376" r=".561" fill="#ffcc5b" paint-order="markers stroke fill"/>
    <path fill="none" stroke="#648fff" stroke-width=".4" d="m137.87 113.342-4.793-3.623V97.284"/>
    <g fill="#fff" stroke-width=".447" transform="translate(127.794 63.108)scale(.36944)">
      <use xlink:href="#c" fill-rule="evenodd" clip-rule="evenodd" opacity=".7"/>
      <use xlink:href="#d" fill-rule="evenodd" clip-rule="evenodd"/>
      <use xlink:href="#e"/>
    </g>
    <text xml:space="preserve" x="138.814" y="79.131" fill="#fff6e7" stroke-width=".044" font-family="Open Sans" font-size="1.775" font-weight="400" style="line-height:1.25;-inkscape-font-specification:&quot;Open Sans&quot;"><tspan x="138.814" y="79.131" font-weight="700" style="-inkscape-font-specification:&quot;Open Sans&quot;">8300/tcp</tspan></text>
    <text xml:space="preserve" x="138.814" y="82.26" fill="#fff6e7" stroke-width=".044" font-family="Open Sans" font-size="1.775" font-weight="400" style="line-height:1.25;-inkscape-font-specification:&quot;Open Sans&quot;"><tspan x="138.814" y="82.26" font-weight="700" style="-inkscape-font-specification:&quot;Open Sans&quot;">8302/tcp</tspan></text>
    <g fill="#fff" stroke-width=".447" transform="translate(127.794 63.108)scale(.36944)">
      <use xlink:href="#c" fill-rule="evenodd" clip-rule="evenodd" opacity=".7"/>
      <use xlink:href="#d" fill-rule="evenodd" clip-rule="evenodd"/>
      <use xlink:href="#e"/>
    </g>
    <text xml:space="preserve" x="138.814" y="79.131" fill="#d9deff" stroke-width=".044" font-family="Open Sans" font-size="1.775" font-weight="400" style="line-height:1.25;-inkscape-font-specification:&quot;Open Sans&quot;"><tspan x="138.814" y="79.131" font-weight="700" style="-inkscape-font-specification:&quot;Open Sans&quot;">8300/tcp</tspan></text>
    <text xml:space="preserve" x="113.962" y="100.879" fill="#5d8b28" stroke-width=".057" font-family="Open Sans" font-size="1.464" font-weight="400" style="line-height:1.25;-inkscape-font-specification:&quot;Open Sans, Normal&quot;;font-variant-ligatures:normal;font-variant-caps:normal;font-variant-numeric:normal;font-variant-east-asian:normal" word-spacing="0"><tspan x="113.962" y="100.879" style="-inkscape-font-specification:&quot;Open Sans, Normal&quot;;font-variant-ligatures:normal;font-variant-caps:normal;font-variant-numeric:normal;font-variant-east-asian:normal;text-align:center" text-anchor="middle">Remote listener</tspan><tspan x="113.962" y="102.709" style="-inkscape-font-specification:&quot;Open Sans, Normal&quot;;font-variant-ligatures:normal;font-variant-caps:normal;font-variant-numeric:normal;font-variant-east-asian:normal;text-align:center" text-anchor="middle">-wan-address=ip:port</tspan></text>
    <text xml:space="preserve" x="114.028" y="105.924" fill="#8d00ff" stroke-width=".057" font-family="Open Sans" font-size="1.464" font-weight="400" style="line-height:1.25;-inkscape-font-specification:&quot;Open Sans, Normal&quot;;font-variant-ligatures:normal;font-variant-caps:normal;font-variant-numeric:normal;font-variant-east-asian:normal" word-spacing="0"><tspan x="114.028" y="105.924" style="-inkscape-font-specification:&quot;Open Sans, Normal&quot;;font-variant-ligatures:normal;font-variant-caps:normal;font-variant-numeric:normal;font-variant-east-asian:normal;text-align:center" text-anchor="middle">Local listener</tspan><tspan x="114.028" y="107.754" style="-inkscape-font-specification:&quot;Open Sans, Normal&quot;;font-variant-ligatures:normal;font-variant-caps:normal;font-variant-numeric:normal;font-variant-east-asian:normal;text-align:center" text-anchor="middle">-address=ip:port</tspan></text>
    <path fill="none" stroke="#5d8b28" stroke-dasharray=".12 .12" stroke-width=".12" d="M110.917 99.58v-3.886h-.71m7.098 3.886v-3.886h.712"/>
    <path fill="none" stroke="#8120ff" stroke-dasharray=".12 .12" stroke-opacity=".988" stroke-width=".12" d="M118.838 105.566h11.642v-9.922h-.827"/>
    <path fill="none" stroke="#648fff" stroke-width=".4" d="m142.73 95.83-1.116.912h-8.537"/>
    <circle cx="93.553" cy="96.692" r=".561" fill="#648fff" paint-order="markers stroke fill"/>
    <path fill="none" stroke="#648fff" stroke-width=".4" d="m89.371 78.675 4.218 4.039V96.71m-10.042-1.148 1.46 1.273h8.7"/>
    <text xml:space="preserve" x="71.388" y="65.492" fill="#ca2171" fill-opacity=".35" stroke-width=".068" font-family="Open Sans" font-size="1.464" style="line-height:1.25;-inkscape-font-specification:&quot;Open Sans, Normal&quot;;font-variant-ligatures:none"><tspan x="71.388" y="65.492" font-weight="600" style="-inkscape-font-specification:&quot;Open Sans Semi-Bold&quot;">PRIMARY</tspan></text>
    <text xml:space="preserve" x="131.044" y="65.492" fill="#ca2171" fill-opacity=".35" stroke-width=".068" font-family="Open Sans" font-size="1.464" style="line-height:1.25;-inkscape-font-specification:&quot;Open Sans, Normal&quot;;font-variant-ligatures:none"><tspan x="131.044" y="65.492" font-weight="600" style="-inkscape-font-specification:&quot;Open Sans Semi-Bold&quot;">SECONDARY</tspan></text>
    <path fill="none" stroke="#c9d8ff" stroke-dasharray="1 .5" stroke-width=".5" marker-end="url(#f)" d="M129.183 83.954h-.685"/>
    <g transform="translate(-49.82 -781.16)">
      <rect width="15.257" height="14.885" x="118.586" y="870.811" fill="#ca2171" fill-rule="evenodd" rx=".465" ry=".465"/>
      <g fill="#fff" stroke-width=".447" transform="translate(98.672 861.723)scale(.36944)">
        <use xlink:href="#c" fill-rule="evenodd" clip-rule="evenodd" opacity=".7"/>
        <use xlink:href="#d" fill-rule="evenodd" clip-rule="evenodd"/>
        <use xlink:href="#e"/>
      </g>
      <text xml:space="preserve" x="125.601" y="877.746" fill="#d9deff" stroke-width=".044" font-family="Open Sans" font-size="1.775" font-weight="400" style="line-height:1.25;-inkscape-font-specification:&quot;Open Sans&quot;"><tspan x="125.601" y="877.746" font-weight="700" style="-inkscape-font-specification:&quot;Open Sans&quot;">8300/tcp</tspan></text>
      <text xml:space="preserve" x="125.601" y="880.875" fill="#fff6e7" stroke-width=".044" font-family="Open Sans" font-size="1.775" font-weight="400" style="line-height:1.25;-inkscape-font-specification:&quot;Open Sans&quot;"><tspan x="125.601" y="880.875" font-weight="700" style="-inkscape-font-specification:&quot;Open Sans&quot;">8302/tcp</tspan></text>
      <text xml:space="preserve" x="124.995" y="884.066" fill="#ffd2b8" stroke-width=".044" font-family="Open Sans" font-size="1.775" font-weight="400" style="line-height:1.25;-inkscape-font-specification:&quot;Open Sans&quot;"><tspan x="124.995" y="884.066" font-weight="700" style="-inkscape-font-specification:&quot;Open Sans&quot;">8302/udp</tspan></text>
      <path fill="none" d="m124.884 872.328.31.629.694.101-.502.49.118.69-.62-.326-.621.327.118-.691-.502-.49.694-.101Z" clip-rule="evenodd"/>
      <text xml:space="preserve" x="126.437" y="873.864" stroke-width=".041" font-family="Open Sans" font-size="1.62" font-weight="400" style="line-height:1.25;-inkscape-font-specification:&quot;Open Sans&quot;"><tspan x="126.437" y="873.864" fill="#fff" font-weight="700" style="-inkscape-font-specification:&quot;Open Sans Bold&quot;">LEADER</tspan></text>
    </g>
    <g transform="translate(-49.82 -781.16)">
      <rect width="15.257" height="14.885" x="192.497" y="870.811" fill="#ca2171" fill-rule="evenodd" rx=".465" ry=".465"/>
      <g fill="#fff" stroke-width=".447" transform="translate(182.496 861.723)scale(.36944)">
        <use xlink:href="#c" fill-rule="evenodd" clip-rule="evenodd" opacity=".7"/>
        <use xlink:href="#d" fill-rule="evenodd" clip-rule="evenodd"/>
        <use xlink:href="#e"/>
      </g>
      <text xml:space="preserve" x="193.516" y="877.746" fill="#d9deff" stroke-width=".044" font-family="Open Sans" font-size="1.775" font-weight="400" style="line-height:1.25;-inkscape-font-specification:&quot;Open Sans&quot;"><tspan x="193.516" y="877.746" font-weight="700" style="-inkscape-font-specification:&quot;Open Sans&quot;">8300/tcp</tspan></text>
      <text xml:space="preserve" x="193.516" y="880.875" fill="#fff6e7" stroke-width=".044" font-family="Open Sans" font-size="1.775" font-weight="400" style="line-height:1.25;-inkscape-font-specification:&quot;Open Sans&quot;"><tspan x="193.516" y="880.875" font-weight="700" style="-inkscape-font-specification:&quot;Open Sans&quot;">8302/tcp</tspan></text>
      <text xml:space="preserve" x="193.516" y="884.066" fill="#ffd2b8" stroke-width=".044" font-family="Open Sans" font-size="1.775" font-weight="400" style="line-height:1.25;-inkscape-font-specification:&quot;Open Sans&quot;"><tspan x="193.516" y="884.066" font-weight="700" style="-inkscape-font-specification:&quot;Open Sans&quot;">8302/udp</tspan></text>
      <path fill="#fff" fill-rule="evenodd" d="m194.465 872.365.31.629.695.101-.502.49.118.69-.62-.326-.621.326.118-.69-.502-.49.694-.101z" clip-rule="evenodd"/>
      <text xml:space="preserve" x="196.019" y="873.901" stroke-width=".041" font-family="Open Sans" font-size="1.62" font-weight="400" style="line-height:1.25;-inkscape-font-specification:&quot;Open Sans&quot;"><tspan x="196.019" y="873.901" fill="#fff" font-weight="700" style="-inkscape-font-specification:&quot;Open Sans Bold&quot;">LEADER</tspan></text>
    </g>
    <g transform="translate(-48.232 -816.07)">
      <rect width="15.257" height="14.885" x="186.027" y="888.265" fill="#ca2171" fill-rule="evenodd" rx=".465" ry=".465"/>
      <g fill="#fff" stroke-width=".447" transform="translate(176.026 879.177)scale(.36944)">
        <use xlink:href="#c" fill-rule="evenodd" clip-rule="evenodd" opacity=".7"/>
        <use xlink:href="#d" fill-rule="evenodd" clip-rule="evenodd"/>
        <use xlink:href="#e"/>
      </g>
      <text xml:space="preserve" x="187.046" y="895.2" fill="#d9deff" stroke-width=".044" font-family="Open Sans" font-size="1.775" font-weight="400" style="line-height:1.25;-inkscape-font-specification:&quot;Open Sans&quot;"><tspan x="187.046" y="895.2" font-weight="700" style="-inkscape-font-specification:&quot;Open Sans&quot;">8300/tcp</tspan></text>
      <text xml:space="preserve" x="187.046" y="898.329" fill="#fff6e7" stroke-width=".044" font-family="Open Sans" font-size="1.775" font-weight="400" style="line-height:1.25;-inkscape-font-specification:&quot;Open Sans&quot;"><tspan x="187.046" y="898.329" font-weight="700" style="-inkscape-font-specification:&quot;Open Sans&quot;">8302/tcp</tspan></text>
      <text xml:space="preserve" x="187.046" y="901.52" fill="#ffd2b8" stroke-width=".044" font-family="Open Sans" font-size="1.775" font-weight="400" style="line-height:1.25;-inkscape-font-specification:&quot;Open Sans&quot;"><tspan x="187.046" y="901.52" font-weight="700" style="-inkscape-font-specification:&quot;Open Sans&quot;">8302/udp</tspan></text>
    </g>
    <g transform="translate(-48.232 -781.16)">
      <rect width="15.257" height="14.885" x="186.027" y="888.265" fill="#ca2171" fill-rule="evenodd" rx=".465" ry=".465"/>
      <g fill="#fff" stroke-width=".447" transform="translate(176.026 879.177)scale(.36944)">
        <use xlink:href="#c" fill-rule="evenodd" clip-rule="evenodd" opacity=".7"/>
        <use xlink:href="#d" fill-rule="evenodd" clip-rule="evenodd"/>
        <use xlink:href="#e"/>
      </g>
      <text xml:space="preserve" x="187.046" y="895.2" fill="#d9deff" stroke-width=".044" font-family="Open Sans" font-size="1.775" font-weight="400" style="line-height:1.25;-inkscape-font-specification:&quot;Open Sans&quot;"><tspan x="187.046" y="895.2" font-weight="700" style="-inkscape-font-specification:&quot;Open Sans&quot;">8300/tcp</tspan></text>
      <text xml:space="preserve" x="187.046" y="898.329" fill="#fff6e7" stroke-width=".044" font-family="Open Sans" font-size="1.775" font-weight="400" style="line-height:1.25;-inkscape-font-specification:&quot;Open Sans&quot;"><tspan x="187.046" y="898.329" font-weight="700" style="-inkscape-font-specification:&quot;Open Sans&quot;">8302/tcp</tspan></text>
      <text xml:space="preserve" x="187.046" y="901.52" fill="#ffd2b8" stroke-width=".044" font-family="Open Sans" font-size="1.775" font-weight="400" style="line-height:1.25;-inkscape-font-specification:&quot;Open Sans&quot;"><tspan x="187.046" y="901.52" font-weight="700" style="-inkscape-font-specification:&quot;Open Sans&quot;">8302/udp</tspan></text>
    </g>
    <path fill="none" stroke="#c9d8ff" stroke-dasharray=".8 .4" stroke-width=".4" d="M130.883 83.954h-1.177"/>
    <path fill="none" stroke="#c9d8ff" stroke-dasharray="1 .5" stroke-width=".5" marker-end="url(#g)" d="M97.24 94.73h-.684"/>
    <g transform="translate(-163.514 -915.817)">
      <rect width="15.257" height="14.885" x="237.769" y="988.013" fill="#ca2171" fill-rule="evenodd" rx=".465" ry=".465"/>
      <g fill="#fff" stroke-width=".447" transform="translate(217.855 978.925)scale(.36944)">
        <use xlink:href="#c" fill-rule="evenodd" clip-rule="evenodd" opacity=".7"/>
        <use xlink:href="#d" fill-rule="evenodd" clip-rule="evenodd"/>
        <use xlink:href="#e"/>
      </g>
      <text xml:space="preserve" x="244.784" y="994.948" fill="#d9deff" stroke-width=".044" font-family="Open Sans" font-size="1.775" font-weight="400" style="line-height:1.25;-inkscape-font-specification:&quot;Open Sans&quot;"><tspan x="244.784" y="994.948" font-weight="700" style="-inkscape-font-specification:&quot;Open Sans&quot;">8300/tcp</tspan></text>
      <text xml:space="preserve" x="244.784" y="998.077" fill="#fff6e7" stroke-width=".044" font-family="Open Sans" font-size="1.775" font-weight="400" style="line-height:1.25;-inkscape-font-specification:&quot;Open Sans&quot;"><tspan x="244.784" y="998.077" font-weight="700" style="-inkscape-font-specification:&quot;Open Sans&quot;">8302/tcp</tspan></text>
      <text xml:space="preserve" x="244.178" y="1001.268" fill="#ffd2b8" stroke-width=".044" font-family="Open Sans" font-size="1.775" font-weight="400" style="line-height:1.25;-inkscape-font-specification:&quot;Open Sans&quot;"><tspan x="244.178" y="1001.268" font-weight="700" style="-inkscape-font-specification:&quot;Open Sans&quot;">8302/udp</tspan></text>
    </g>
    <path fill="none" stroke="#8120ff" stroke-dasharray=".12 .12" stroke-opacity=".988" stroke-width=".12" d="M109.128 105.566H97.685v-9.922h.827"/>
    <path fill="none" stroke="#648fff" stroke-width=".4" d="m89.008 112.421 4.58-4.028V96.679m.001.027h39.124"/>
    <path fill="#fff" fill-opacity=".7" stroke="#ca2171" stroke-width=".522" d="M98.879 85.557h10.978v11.949H98.879z"/>
    <g stroke-width=".5" transform="translate(-224.43 308.66)scale(.63716)">
      <rect width="10.539" height="10.539" x="510.765" y="-347.704" fill="#fff" stroke="#ca2171" rx="5.269" ry="5.269"/>
      <use xlink:href="#h" stroke-linecap="round" stroke-linejoin="round"/>
    </g>
    <text xml:space="preserve" x="263.394" y="1141.57" fill="#6d00ff" stroke-width=".044" font-family="Open Sans" font-size="1.676" font-weight="400" style="line-height:1.25;-inkscape-font-specification:&quot;Open Sans&quot;" transform="translate(-162.602 -1045.397)"><tspan x="263.394" y="1141.57" fill="#000" font-weight="700" style="-inkscape-font-specification:&quot;Open Sans&quot;">8443/tcp</tspan></text>
    <path fill="none" stroke="#5d8b28" stroke-width=".4" d="m109.294 95.05-.843.612.84.639"/>
    <path fill="none" stroke="#7c1aff" stroke-opacity=".957" stroke-width=".4" d="m99.458 95.05.844.612-.84.639"/>
    <path fill="#fff" fill-opacity=".7" stroke="#ca2171" stroke-width=".522" d="M118.343 85.557h10.978v11.949h-10.978z"/>
    <g stroke-width=".5" transform="translate(-204.966 308.66)scale(.63716)">
      <rect width="10.539" height="10.539" x="510.765" y="-347.704" fill="#fff" stroke="#ca2171" rx="5.269" ry="5.269"/>
      <use xlink:href="#h" stroke-linecap="round" stroke-linejoin="round"/>
    </g>
    <text xml:space="preserve" x="282.858" y="1060.932" fill="#6d00ff" stroke-width=".044" font-family="Open Sans" font-size="1.676" font-weight="400" style="line-height:1.25;-inkscape-font-specification:&quot;Open Sans&quot;" transform="translate(-162.601 -964.711)"><tspan x="282.858" y="1060.932" fill="#000" font-weight="700" style="-inkscape-font-specification:&quot;Open Sans&quot;">8443/tcp</tspan></text>
    <path fill="none" stroke="#7c1aff" stroke-opacity=".957" stroke-width=".4" d="m128.76 95.081-.843.611.84.639"/>
    <path fill="none" stroke="#5d8b28" stroke-width=".4" d="m118.925 95.081.843.611-.84.639"/>
    <text xml:space="preserve" x="63.71" y="56.829" fill="#848484" stroke-width=".371" font-family="sans-serif" font-size="3.463" font-weight="400" style="line-height:1.25"><tspan x="63.71" y="56.829" fill="#000" font-family="Open Sans" font-weight="700" style="-inkscape-font-specification:&quot;Open Sans&quot;">With Mesh Gateways</tspan></text>
    <text xml:space="preserve" x="63.579" y="52.647" fill="#b6b8c2" stroke-width=".243" font-family="sans-serif" font-size="2.265" font-weight="400" style="line-height:1.25"><tspan x="63.579" y="52.647" font-family="Open Sans" font-weight="700" style="-inkscape-font-specification:&quot;Open Sans Bold&quot;">CROSS-DC CONTROL PLANE COMMUNICATION (WAN FEDERATION)</tspan></text>
    <path d="M140.989 153.126h22.929v10.845h-22.929z" paint-order="markers stroke fill"/>
    <text xml:space="preserve" x="414.238" y="1386.44" fill="#fff" stroke-width=".265" font-family="Open Sans" font-size="1.235" style="line-height:1.25;-inkscape-font-specification:&quot;Open Sans, Normal&quot;;font-variant-ligatures:none" transform="translate(-271.2 -1231.47)"><tspan x="414.238" y="1386.44" font-family="Courier New" font-weight="700" style="-inkscape-font-specification:&quot;Courier New&quot;">consul connect envoy \</tspan><tspan x="414.238" y="1387.999" font-family="Courier New" font-weight="700" style="-inkscape-font-specification:&quot;Courier New&quot;">  -gateway=mesh -register \</tspan><tspan x="414.238" y="1389.559" font-family="Courier New" font-weight="700" style="-inkscape-font-specification:&quot;Courier New&quot;">  -service &quot;dc1-mesh-gw&quot; \</tspan><tspan x="414.238" y="1391.118" font-family="Courier New" font-weight="700" style="-inkscape-font-specification:&quot;Courier New&quot;">  -address &quot;<tspan fill="#cfa2ff">ip1:8443</tspan>&quot; \</tspan><tspan x="414.238" y="1392.677" font-family="Courier New" font-weight="700" style="-inkscape-font-specification:&quot;Courier New&quot;">  -wan-address &quot;<tspan fill="#bbff7f">ip2:8443</tspan>&quot; \</tspan><tspan x="414.238" y="1394.232" font-family="Courier New" font-weight="700" style="-inkscape-font-specification:&quot;Courier New&quot;">  -token=&lt;used by gateway&gt;</tspan></text>
    <text xml:space="preserve" x="413.107" y="1386.589" fill="#ca2171" stroke-width=".057" font-family="Open Sans" font-size="1.372" style="line-height:1.25;-inkscape-font-specification:&quot;Open Sans, Normal&quot;;font-variant-ligatures:none" transform="translate(-271.2 -1231.47)"><tspan x="413.107" y="1386.589" font-weight="700">$</tspan></text>
    <text xml:space="preserve" x="110.267" y="132.794" fill="#648fff" stroke-width=".044" font-family="Open Sans" font-size="1.775" font-weight="400" style="line-height:1.25;-inkscape-font-specification:&quot;Open Sans&quot;"><tspan x="110.267" y="132.794" font-weight="700" style="-inkscape-font-specification:&quot;Open Sans&quot;">8300/tcp</tspan></text>
    <text xml:space="preserve" x="110.267" y="139.282" fill="#c9d8ff" fill-opacity=".957" stroke-width=".044" font-family="Open Sans" font-size="1.775" font-weight="400" style="line-height:1.25;-inkscape-font-specification:&quot;Open Sans&quot;"><tspan x="110.267" y="139.282" font-weight="700" style="-inkscape-font-specification:&quot;Open Sans&quot;">8300/tcp</tspan></text>
    <path fill="none" stroke="#c9d8ff" stroke-opacity=".957" stroke-width=".12" marker-end="url(#i)" d="M335.887 1113.874h-1.313" transform="translate(-221.401 -973.217)"/>
    <text xml:space="preserve" x="335.938" y="1114.305" fill="#c9d8ff" fill-opacity=".957" stroke-width=".026" font-family="Open Sans" font-size="1.208" font-weight="400" style="line-height:1.25;-inkscape-font-specification:&quot;Open Sans&quot;" transform="translate(-221.401 -973.217)"><tspan x="335.938" y="1114.305" font-weight="700" style="-inkscape-font-specification:&quot;Open Sans&quot;">DC2</tspan></text>
    <text xml:space="preserve" x="332.104" y="1114.305" fill="#c9d8ff" fill-opacity=".957" stroke-width=".026" font-family="Open Sans" font-size="1.208" font-weight="400" style="line-height:1.25;-inkscape-font-specification:&quot;Open Sans&quot;" transform="translate(-221.401 -973.217)"><tspan x="332.104" y="1114.305" font-weight="700" style="-inkscape-font-specification:&quot;Open Sans&quot;">DC1</tspan></text>
    <text xml:space="preserve" x="119.897" y="132.662" stroke-width=".179" font-family="Open Sans" font-size="1.94" font-weight="400" style="line-height:1.25;-inkscape-font-specification:&quot;Open Sans, Normal&quot;;font-variant-ligatures:normal;font-variant-caps:normal;font-variant-numeric:normal;font-variant-east-asian:normal"><tspan x="119.897" y="132.662" style="-inkscape-font-specification:&quot;Open Sans, Normal&quot;;font-variant-ligatures:normal;font-variant-caps:normal;font-variant-numeric:normal;font-variant-east-asian:normal">Server RPC &amp; Cross-DC WAN Gossip</tspan></text>
    <text xml:space="preserve" x="110.29" y="152.98" fill="#7c1aff" fill-opacity=".957" stroke-width=".044" font-family="Open Sans" font-size="1.775" font-weight="400" style="line-height:1.25;-inkscape-font-specification:&quot;Open Sans&quot;"><tspan x="110.29" y="152.98" font-weight="700" style="-inkscape-font-specification:&quot;Open Sans&quot;">####/tcp</tspan></text>
    <text xml:space="preserve" x="119.807" y="148.623" stroke-width=".179" font-family="Open Sans" font-size="1.94" font-weight="400" style="line-height:1.25;-inkscape-font-specification:&quot;Open Sans, Normal&quot;;font-variant-ligatures:normal;font-variant-caps:normal;font-variant-numeric:normal;font-variant-east-asian:normal"><tspan x="119.807" y="148.623" style="-inkscape-font-specification:&quot;Open Sans, Normal&quot;;font-variant-ligatures:normal;font-variant-caps:normal;font-variant-numeric:normal;font-variant-east-asian:normal">Intra-DC WAN Gossip</tspan></text>
    <text xml:space="preserve" x="119.984" y="134.583" fill="#7c7c7c" stroke-width=".03" font-family="Open Sans" font-size="1.208" font-weight="400" style="line-height:1.25;-inkscape-font-specification:&quot;Open Sans, Normal&quot;;font-variant-ligatures:normal;font-variant-caps:normal;font-variant-numeric:normal;font-variant-east-asian:normal"><tspan x="119.984" y="134.583" style="-inkscape-font-specification:&quot;Open Sans, Normal&quot;;font-variant-ligatures:normal;font-variant-caps:normal;font-variant-numeric:normal;font-variant-east-asian:normal">when using mesh gateways, cross-DC WAN gossip</tspan><tspan x="119.984" y="136.093" style="-inkscape-font-specification:&quot;Open Sans, Normal&quot;;font-variant-ligatures:normal;font-variant-caps:normal;font-variant-numeric:normal;font-variant-east-asian:normal">exclusively uses TCP over the server RPC port (8300)</tspan></text>
    <text xml:space="preserve" x="119.807" y="139.183" stroke-width=".179" font-family="Open Sans" font-size="1.94" font-weight="400" style="line-height:1.25;-inkscape-font-specification:&quot;Open Sans, Normal&quot;;font-variant-ligatures:normal;font-variant-caps:normal;font-variant-numeric:normal;font-variant-east-asian:normal"><tspan x="119.807" y="139.183" style="-inkscape-font-specification:&quot;Open Sans, Normal&quot;;font-variant-ligatures:normal;font-variant-caps:normal;font-variant-numeric:normal;font-variant-east-asian:normal">Direct Primary GW Connection</tspan></text>
    <text xml:space="preserve" x="119.984" y="141.011" fill="#7c7c7c" stroke-width=".03" font-family="Open Sans" font-size="1.208" font-weight="400" style="line-height:1.25;-inkscape-font-specification:&quot;Open Sans, Normal&quot;;font-variant-ligatures:normal;font-variant-caps:normal;font-variant-numeric:normal;font-variant-east-asian:normal"><tspan x="119.984" y="141.011" style="-inkscape-font-specification:&quot;Open Sans, Normal&quot;;font-variant-ligatures:normal;font-variant-caps:normal;font-variant-numeric:normal;font-variant-east-asian:normal">unidirectional connection from all Consul server agents</tspan><tspan x="119.984" y="142.521" style="-inkscape-font-specification:&quot;Open Sans, Normal&quot;;font-variant-ligatures:normal;font-variant-caps:normal;font-variant-numeric:normal;font-variant-east-asian:normal">in secondary DCs to the mesh gateway of the primary DC</tspan><tspan x="119.984" y="144.03" style="-inkscape-font-specification:&quot;Open Sans, Normal&quot;;font-variant-ligatures:normal;font-variant-caps:normal;font-variant-numeric:normal;font-variant-east-asian:normal">(see &quot;primary_gateways&quot; agent config option); necessary</tspan><tspan x="119.984" y="145.54" style="-inkscape-font-specification:&quot;Open Sans, Normal&quot;;font-variant-ligatures:normal;font-variant-caps:normal;font-variant-numeric:normal;font-variant-east-asian:normal">for infrequent internal operations (e.g., bootstrapping)</tspan></text>
    <text xml:space="preserve" x="119.879" y="152.79" stroke-width=".179" font-family="Open Sans" font-size="1.94" font-weight="400" style="line-height:1.25;-inkscape-font-specification:&quot;Open Sans, Normal&quot;;font-variant-ligatures:normal;font-variant-caps:normal;font-variant-numeric:normal;font-variant-east-asian:normal"><tspan x="119.879" y="152.79" style="-inkscape-font-specification:&quot;Open Sans, Normal&quot;;font-variant-ligatures:normal;font-variant-caps:normal;font-variant-numeric:normal;font-variant-east-asian:normal">GW Local Listener</tspan></text>
    <text xml:space="preserve" x="119.975" y="154.772" fill="#7c7c7c" stroke-width=".03" font-family="Open Sans" font-size="1.208" font-weight="400" style="line-height:1.25;-inkscape-font-specification:&quot;Open Sans, Normal&quot;;font-variant-ligatures:normal;font-variant-caps:normal;font-variant-numeric:normal;font-variant-east-asian:normal"><tspan x="119.975" y="154.772" style="-inkscape-font-specification:&quot;Open Sans, Normal&quot;;font-variant-ligatures:normal;font-variant-caps:normal;font-variant-numeric:normal;font-variant-east-asian:normal">see &quot;-address&quot; config option</tspan><tspan x="119.975" y="156.282" style="-inkscape-font-specification:&quot;Open Sans, Normal&quot;;font-variant-ligatures:normal;font-variant-caps:normal;font-variant-numeric:normal;font-variant-east-asian:normal">when launching gateway</tspan></text>
    <text xml:space="preserve" x="140.851" y="152.472" fill="#7c7c7c" stroke-width=".03" font-family="Open Sans" font-size="1.208" font-weight="400" style="line-height:1.25;-inkscape-font-specification:&quot;Open Sans, Normal&quot;;font-variant-ligatures:normal;font-variant-caps:normal;font-variant-numeric:normal;font-variant-east-asian:normal"><tspan x="140.851" y="152.472" style="-inkscape-font-specification:&quot;Open Sans, Normal&quot;;font-variant-ligatures:normal;font-variant-caps:normal;font-variant-numeric:normal;font-variant-east-asian:normal">EXAMPLE GATEWAY CONFIG</tspan></text>
    <text xml:space="preserve" x="110.29" y="159.411" fill="#5d8b28" stroke-width=".044" font-family="Open Sans" font-size="1.775" font-weight="400" style="line-height:1.25;-inkscape-font-specification:&quot;Open Sans&quot;"><tspan x="110.29" y="159.411" font-weight="700" style="-inkscape-font-specification:&quot;Open Sans&quot;">####/tcp</tspan></text>
    <text xml:space="preserve" x="119.879" y="159.408" stroke-width=".179" font-family="Open Sans" font-size="1.94" font-weight="400" style="line-height:1.25;-inkscape-font-specification:&quot;Open Sans, Normal&quot;;font-variant-ligatures:normal;font-variant-caps:normal;font-variant-numeric:normal;font-variant-east-asian:normal"><tspan x="119.879" y="159.408" style="-inkscape-font-specification:&quot;Open Sans, Normal&quot;;font-variant-ligatures:normal;font-variant-caps:normal;font-variant-numeric:normal;font-variant-east-asian:normal">GW Remote Listener</tspan></text>
    <text xml:space="preserve" x="119.975" y="161.39" fill="#7c7c7c" stroke-width=".03" font-family="Open Sans" font-size="1.208" font-weight="400" style="line-height:1.25;-inkscape-font-specification:&quot;Open Sans, Normal&quot;;font-variant-ligatures:normal;font-variant-caps:normal;font-variant-numeric:normal;font-variant-east-asian:normal"><tspan x="119.975" y="161.39" style="-inkscape-font-specification:&quot;Open Sans, Normal&quot;;font-variant-ligatures:normal;font-variant-caps:normal;font-variant-numeric:normal;font-variant-east-asian:normal">see &quot;-wan-address&quot; config option</tspan><tspan x="119.975" y="162.9" style="-inkscape-font-specification:&quot;Open Sans, Normal&quot;;font-variant-ligatures:normal;font-variant-caps:normal;font-variant-numeric:normal;font-variant-east-asian:normal">when launching gateway</tspan></text>
    <text xml:space="preserve" x="110.267" y="149.775" fill="#ffb000" fill-opacity=".827" stroke-width=".044" font-family="Open Sans" font-size="1.775" font-weight="400" style="line-height:1.25;-inkscape-font-specification:&quot;Open Sans&quot;"><tspan x="110.267" y="149.775" font-weight="700" style="-inkscape-font-specification:&quot;Open Sans&quot;">8302/tcp</tspan></text>
    <text xml:space="preserve" x="110.267" y="147.619" fill="#fd904f" stroke-width=".044" font-family="Open Sans" font-size="1.775" font-weight="400" style="line-height:1.25;-inkscape-font-specification:&quot;Open Sans&quot;"><tspan x="110.267" y="147.619" font-weight="700" style="-inkscape-font-specification:&quot;Open Sans&quot;">8302/udp</tspan></text>
    <text xml:space="preserve" x="77.869" y="141.027" fill="#7c7c7c" stroke-width=".03" font-family="Open Sans" font-size="1.208" font-weight="400" style="line-height:1.25;-inkscape-font-specification:&quot;Open Sans, Normal&quot;;font-variant-ligatures:normal;font-variant-caps:normal;font-variant-numeric:normal;font-variant-east-asian:normal"><tspan x="77.869" y="141.027" style="-inkscape-font-specification:&quot;Open Sans, Normal&quot;;font-variant-ligatures:normal;font-variant-caps:normal;font-variant-numeric:normal;font-variant-east-asian:normal">not shown: the Consul client agent deployed</tspan><tspan x="77.869" y="142.537" style="-inkscape-font-specification:&quot;Open Sans, Normal&quot;;font-variant-ligatures:normal;font-variant-caps:normal;font-variant-numeric:normal;font-variant-east-asian:normal">with each gateway to manage its configuration </tspan></text>
    <path fill="#fff" fill-opacity=".7" stroke="#ca2171" stroke-width=".211" d="M70.006 137.864h4.244v4.244h-4.244z"/>
    <g stroke-width=".5" transform="translate(-91.472 248.55)scale(.31703)">
      <rect width="10.539" height="10.539" x="510.765" y="-347.704" fill="#fff" stroke="#ca2171" rx="5.269" ry="5.269"/>
      <use xlink:href="#h" stroke-linecap="round" stroke-linejoin="round"/>
    </g>
    <text xml:space="preserve" x="77.692" y="139.117" stroke-width=".179" font-family="Open Sans" font-size="1.94" font-weight="400" style="line-height:1.25;-inkscape-font-specification:&quot;Open Sans, Normal&quot;;font-variant-ligatures:normal;font-variant-caps:normal;font-variant-numeric:normal;font-variant-east-asian:normal"><tspan x="77.692" y="139.117" style="-inkscape-font-specification:&quot;Open Sans, Normal&quot;;font-variant-ligatures:normal;font-variant-caps:normal;font-variant-numeric:normal;font-variant-east-asian:normal">Mesh Gateway</tspan></text>
    <text xml:space="preserve" x="358.697" y="1383.643" fill="#7c7c7c" stroke-width=".03" font-family="Open Sans" font-size="1.208" font-weight="400" style="line-height:1.25;-inkscape-font-specification:&quot;Open Sans, Normal&quot;;font-variant-ligatures:normal;font-variant-caps:normal;font-variant-numeric:normal;font-variant-east-asian:normal" transform="translate(-281.434 -1230.863)"><tspan x="358.697" y="1383.643" style="-inkscape-font-specification:&quot;Open Sans, Normal&quot;;font-variant-ligatures:normal;font-variant-caps:normal;font-variant-numeric:normal;font-variant-east-asian:normal">paths through gateways can differ for</tspan><tspan x="358.697" y="1385.153" style="-inkscape-font-specification:&quot;Open Sans, Normal&quot;;font-variant-ligatures:normal;font-variant-caps:normal;font-variant-numeric:normal;font-variant-east-asian:normal">DC1     DC2 versus DC2     DC1 because a</tspan><tspan x="358.697" y="1386.662" style="-inkscape-font-specification:&quot;Open Sans, Normal&quot;;font-variant-ligatures:normal;font-variant-caps:normal;font-variant-numeric:normal;font-variant-east-asian:normal">gateway&apos;s local listener (for internal traffic) typically</tspan><tspan x="358.697" y="1388.172" style="-inkscape-font-specification:&quot;Open Sans, Normal&quot;;font-variant-ligatures:normal;font-variant-caps:normal;font-variant-numeric:normal;font-variant-east-asian:normal">differs from its remote listener (for external traffic)</tspan></text>
    <path fill="none" stroke="#7b7b7b" stroke-width=".12" marker-end="url(#j)" d="M361.008 1384.771h1.314" transform="translate(-281.434 -1230.863)"/>
    <path fill="none" stroke="#7b7b7b" stroke-width=".12" marker-end="url(#k)" d="M371.582 1384.771h1.314" transform="translate(-281.434 -1230.863)"/>
    <path fill="none" stroke="#648fff" stroke-width=".75" d="M67.854 150.438h7.682"/>
    <path fill="none" stroke="#ffb000" stroke-opacity=".827" stroke-width=".75" d="M67.854 152.025h7.682"/>
    <text xml:space="preserve" x="357.966" y="1382.4" stroke-width=".179" font-family="Open Sans" font-size="1.94" font-weight="400" style="line-height:1.25;-inkscape-font-specification:&quot;Open Sans, Normal&quot;;font-variant-ligatures:normal;font-variant-caps:normal;font-variant-numeric:normal;font-variant-east-asian:normal" transform="translate(-280.8 -1231.54)"><tspan x="357.966" y="1382.4" style="-inkscape-font-specification:&quot;Open Sans, Normal&quot;;font-variant-ligatures:normal;font-variant-caps:normal;font-variant-numeric:normal;font-variant-east-asian:normal">Control Plane</tspan></text>
    <g transform="translate(-260.012 -794.309)scale(.97284)">
      <rect width="4.305" height="4.2" x="341.505" y="952.156" fill="#ca2171" fill-rule="evenodd" rx=".131" ry=".131"/>
      <path fill="#fff" fill-rule="evenodd" d="m342.523 954.038.103.21.232.034-.168.163.04.231-.207-.109-.207.11.04-.232-.169-.163.232-.034Z" clip-rule="evenodd"/>
      <text xml:space="preserve" x="343.041" y="954.551" stroke-width=".014" font-family="Open Sans" font-size=".541" font-weight="400" style="line-height:1.25;-inkscape-font-specification:&quot;Open Sans&quot;"><tspan x="343.041" y="954.551" fill="#fff" font-weight="700" style="-inkscape-font-specification:&quot;Open Sans Bold&quot;">LEADER</tspan></text>
      <g fill="#fff">
        <path fill-rule="evenodd" d="M344.984 953.11a.11.11 0 1 1 .11-.11.11.11 0 0 1-.11.111" clip-rule="evenodd" opacity=".7"/>
        <path fill-rule="evenodd" d="M345.199 953.05a.051.051 0 1 1 .051-.05.05.05 0 0 1-.051.051m.186.047a.047.047 0 1 1-.094-.004.047.047 0 0 1 .094.004m-.036-.131a.051.051 0 1 1 .04-.062v.02a.05.05 0 0 1-.04.04m.182.127a.05.05 0 1 1-.1-.017.05.05 0 0 1 .058-.04.05.05 0 0 1 .043.054v.005m-.043-.13a.05.05 0 1 1 .04-.058v.013a.05.05 0 0 1-.042.045m-.033.305a.051.051 0 1 1 .006-.021.04.04 0 0 1-.006.02m-.019-.467a.051.051 0 1 1-.05-.09.051.051 0 0 1 .05.09" clip-rule="evenodd"/>
        <path d="M344.986 953.512a.512.512 0 1 1 .31-.917l-.061.08a.41.41 0 1 0 0 .65l.062.082a.5.5 0 0 1-.31.105"/>
      </g>
    </g>
    <g transform="translate(72.724 120.223)scale(.13492)">
      <rect width="31.143" height="30.384" x="-36.991" y="87.118" fill="#ca2171" fill-rule="evenodd" rx=".949" ry=".949"/>
      <g fill="#fff" stroke-width=".447" transform="translate(-57.736 69.407)scale(.75411)">
        <use xlink:href="#c" fill-rule="evenodd" clip-rule="evenodd" opacity=".7"/>
        <use xlink:href="#d" fill-rule="evenodd" clip-rule="evenodd"/>
        <use xlink:href="#e"/>
      </g>
    </g>
    <text xml:space="preserve" x="77.717" y="134.832" stroke-width=".179" font-family="Open Sans" font-size="1.94" font-weight="400" style="line-height:1.25;-inkscape-font-specification:&quot;Open Sans, Normal&quot;;font-variant-ligatures:normal;font-variant-caps:normal;font-variant-numeric:normal;font-variant-east-asian:normal"><tspan x="77.717" y="134.832" style="-inkscape-font-specification:&quot;Open Sans, Normal&quot;;font-variant-ligatures:normal;font-variant-caps:normal;font-variant-numeric:normal;font-variant-east-asian:normal">Consul Server Agent</tspan></text>
    <text xml:space="preserve" x="67.62" y="129.646" stroke-width=".265" font-family="Open Sans" font-size="2.117" font-weight="700" style="line-height:1.25;-inkscape-font-specification:&quot;Open Sans, Bold&quot;;font-variant-ligatures:normal;font-variant-caps:normal;font-variant-numeric:normal;font-variant-east-asian:normal"><tspan x="67.62" y="129.646" style="-inkscape-font-specification:&quot;Open Sans, Bold&quot;;font-variant-ligatures:normal;font-variant-caps:normal;font-variant-numeric:normal;font-variant-east-asian:normal">System Components</tspan></text>
    <text xml:space="preserve" x="67.595" y="147.382" stroke-width=".265" font-family="Open Sans" font-size="2.117" font-weight="700" style="line-height:1.25;-inkscape-font-specification:&quot;Open Sans, Bold&quot;;font-variant-ligatures:normal;font-variant-caps:normal;font-variant-numeric:normal;font-variant-east-asian:normal"><tspan x="67.595" y="147.382" style="-inkscape-font-specification:&quot;Open Sans, Bold&quot;;font-variant-ligatures:normal;font-variant-caps:normal;font-variant-numeric:normal;font-variant-east-asian:normal">Communication Paths</tspan></text>
    <text xml:space="preserve" x="110.1" y="129.624" stroke-width=".265" font-family="Open Sans" font-size="2.117" font-weight="700" style="line-height:1.25;-inkscape-font-specification:&quot;Open Sans, Bold&quot;;font-variant-ligatures:normal;font-variant-caps:normal;font-variant-numeric:normal;font-variant-east-asian:normal"><tspan x="110.1" y="129.624" style="-inkscape-font-specification:&quot;Open Sans, Bold&quot;;font-variant-ligatures:normal;font-variant-caps:normal;font-variant-numeric:normal;font-variant-east-asian:normal">Ports</tspan></text>
    <text xml:space="preserve" x="63.567" y="59.307" fill="#4f4f4f" stroke-width=".037" font-family="sans-serif" font-size="1.464" font-weight="400" style="line-height:1.25" word-spacing="0"><tspan x="63.567" y="59.307">Requires server agent configuration: connect.enable_mesh_gateway_wan_federation=true</tspan></text>
    <text xml:space="preserve" x="67.718" y="166.853" fill="#7c7c7c" stroke-width=".023" font-family="Open Sans" font-size="1.464" font-weight="400" style="line-height:1.25;-inkscape-font-specification:&quot;Open Sans, Normal&quot;;font-variant-ligatures:normal;font-variant-caps:normal;font-variant-numeric:normal;font-variant-east-asian:normal"><tspan x="67.718" y="166.853" fill="#000" style="-inkscape-font-specification:&quot;Open Sans, Normal&quot;;font-variant-ligatures:normal;font-variant-caps:normal;font-variant-numeric:normal;font-variant-east-asian:normal"><tspan font-weight="700" style="-inkscape-font-specification:&quot;Open Sans, Normal&quot;;font-variant-ligatures:normal;font-variant-caps:normal;font-variant-numeric:normal;font-variant-east-asian:normal">Not shown: </tspan>Consul client agents and their LAN Serf Gossip traffic on ports 8301/{udp,tcp} are not shown</tspan><tspan x="67.718" y="168.683" fill="#000" style="-inkscape-font-specification:&quot;Open Sans, Normal&quot;;font-variant-ligatures:normal;font-variant-caps:normal;font-variant-numeric:normal;font-variant-east-asian:normal">                       because they are not involved in cross-DC communication.</tspan></text>
    <g transform="translate(-163.865 -882.163)">
      <rect width="15.257" height="14.885" x="237.769" y="988.013" fill="#ca2171" fill-rule="evenodd" rx=".465" ry=".465"/>
      <g fill="#fff" stroke-width=".447" transform="translate(217.855 978.925)scale(.36944)">
        <use xlink:href="#c" fill-rule="evenodd" clip-rule="evenodd" opacity=".7"/>
        <use xlink:href="#d" fill-rule="evenodd" clip-rule="evenodd"/>
        <use xlink:href="#e"/>
      </g>
      <text xml:space="preserve" x="244.784" y="994.948" fill="#d9deff" stroke-width=".044" font-family="Open Sans" font-size="1.775" font-weight="400" style="line-height:1.25;-inkscape-font-specification:&quot;Open Sans&quot;"><tspan x="244.784" y="994.948" font-weight="700" style="-inkscape-font-specification:&quot;Open Sans&quot;">8300/tcp</tspan></text>
      <text xml:space="preserve" x="244.784" y="998.077" fill="#fff6e7" stroke-width=".044" font-family="Open Sans" font-size="1.775" font-weight="400" style="line-height:1.25;-inkscape-font-specification:&quot;Open Sans&quot;"><tspan x="244.784" y="998.077" font-weight="700" style="-inkscape-font-specification:&quot;Open Sans&quot;">8302/tcp</tspan></text>
      <text xml:space="preserve" x="244.178" y="1001.268" fill="#ffd2b8" stroke-width=".044" font-family="Open Sans" font-size="1.775" font-weight="400" style="line-height:1.25;-inkscape-font-specification:&quot;Open Sans&quot;"><tspan x="244.178" y="1001.268" font-weight="700" style="-inkscape-font-specification:&quot;Open Sans&quot;">8302/udp</tspan></text>
    </g>
  </g>
</svg>
