<svg xmlns="http://www.w3.org/2000/svg" fill="none" stroke-linecap="square" stroke-miterlimit="10" viewBox="0 0 960 540">
  <clipPath id="a">
    <path d="M0 0h960v540H0z"/>
  </clipPath>
  <g clip-path="url(#a)">
    <path fill="#fff" fill-rule="evenodd" d="M0 0h960v540H0z"/>
    <path fill="#d6d6d6" fill-rule="evenodd" d="M102.213 113.27a7.477 7.477 0 0 1 7.476-7.477h377.425a7.477 7.477 0 0 1 7.477 7.476V367.45a7.477 7.477 0 0 1-7.477 7.477H109.689a7.477 7.477 0 0 1-7.476-7.477z"/>
    <path fill="#fff" d="M110.746 111.92q1.781 0 2.828 1t1.047 2.657-1.047 2.672q-1.047 1-2.828 1h-2.719v4.093h-2.515v-11.421zm-.703 5.376q1.078 0 1.61-.407.53-.406.53-1.312 0-.875-.515-1.281-.5-.422-1.61-.422h-2.03v3.422zm10.477-2.454q.156 0 .28.032.126.015.235.047v2.109q-.203-.031-.39-.047-.172-.031-.422-.031-1.157 0-1.703.703-.547.703-.547 1.89v3.797h-2.266v-8.28h2.156v1.546h.032q.359-.812 1.062-1.281.719-.485 1.563-.485m3.742-2.921v1.859h-2.266v-1.86zm0 3.14v8.281h-2.266v-8.28zm6.562-.219q.922 0 1.516.36.61.36.89 1.015.47-.656 1.11-1.015.64-.36 1.406-.36 1.5 0 2.25.766.766.766.766 2.125v5.61h-2.281v-4.782q0-1.14-.329-1.531-.328-.39-1.062-.39-.766 0-1.14.515-.376.516-.376 1.5v4.687h-2.281v-5.093q0-.828-.312-1.219-.313-.39-1.047-.39-.657 0-1.11.5-.437.5-.437 1.343v4.86h-2.266v-8.282h2.14v1.125h.032q.484-.672 1.11-1 .64-.344 1.421-.344m13.524 0q1.828 0 2.718.61.907.594.907 1.687v4.438q0 .5.062 1 .063.5.219.765h-2.297q-.062-.187-.11-.39-.046-.203-.062-.406-.469.5-1.187.765-.703.266-1.594.266-1.281 0-2.047-.64-.766-.657-.766-1.86 0-1.156.72-1.766.718-.61 2.624-.828 1.313-.125 1.735-.312.421-.204.421-.704 0-.546-.328-.828-.312-.28-1.125-.28-.703 0-1.078.312-.375.296-.437.937h-2.282q.094-1.36 1.125-2.062 1.032-.704 2.782-.704m-1.89 6.141q0 .5.327.781.344.282 1.078.282.907 0 1.36-.47.468-.484.468-1.405v-.875q-.203.156-.53.25-.329.078-1.204.203-.766.093-1.14.406-.36.297-.36.828m12.093-6.14q.156 0 .281.03.125.016.234.048v2.109q-.203-.031-.39-.047-.172-.031-.422-.031-1.156 0-1.703.703t-.547 1.89v3.797h-2.266v-8.28h2.157v1.546h.03q.36-.812 1.063-1.281.72-.485 1.563-.485m3.125.218 1.875 5.672h.031l1.797-5.672h2.36l-3.516 9.485q-.313.828-.969 1.265-.64.453-1.672.453-.5 0-.844-.03-.328-.017-.687-.063v-1.86q.406.047.672.063.265.015.515.015.485 0 .75-.297.266-.296.266-.75 0-.125-.016-.234-.015-.11-.093-.281l-2.922-7.766zm16.515-3.14q2.282 0 3.688 1.484 1.422 1.484 1.422 4.156t-1.39 4.235q-1.376 1.546-3.72 1.546h-5V111.92zm-.187 9.312q1.203 0 1.984-.86.797-.874.797-2.577 0-1.985-.828-2.875-.828-.891-2.39-.891h-1.86v7.203zm12.172-9.594q1.937 0 3.312 1.11 1.375 1.093 1.61 3h-2.438q-.156-.89-.89-1.438-.72-.562-1.61-.562-1.469 0-2.281 1.078t-.813 2.844q0 1.703.797 2.765.813 1.063 2.313 1.063 1.078 0 1.75-.672t.828-1.89h2.437q-.218 2.187-1.578 3.437-1.359 1.25-3.437 1.25-1.656 0-2.938-.75-1.28-.766-1.984-2.14-.703-1.376-.703-3.063 0-2.625 1.531-4.329 1.547-1.703 4.094-1.703"/>
    <path fill="#d6d6d6" fill-rule="evenodd" d="M521.472 113.27a7.477 7.477 0 0 1 7.477-7.477h377.425a7.477 7.477 0 0 1 7.476 7.476V367.45a7.477 7.477 0 0 1-7.476 7.477H528.949a7.477 7.477 0 0 1-7.477-7.477z"/>
    <path fill="#fff" d="M528.71 111.64q2.062 0 3.312.968 1.25.953 1.25 2.719h-2.422q-.063-.86-.594-1.297-.531-.438-1.656-.438-.766 0-1.25.344-.485.328-.485.953 0 .438.203.657.204.203.829.437.625.219 2.75.719 1.421.344 2.218 1.172.797.812.797 2.078 0 1.656-1.25 2.672-1.234 1-3.5 1-2.156 0-3.515-1.063-1.36-1.078-1.36-2.953v-.062h2.438q.015 1.062.703 1.593.703.516 1.828.516 1.016 0 1.61-.36.609-.374.609-1.062 0-.547-.469-.906-.453-.36-1.484-.61-1.313-.296-2.391-.625-1.063-.343-1.766-1.078-.687-.75-.687-1.922 0-1.53 1.219-2.484 1.234-.969 3.062-.969m10.023 3.202q1.843 0 2.937 1.266t1.094 3.219l-.016.422h-5.969q.047 1.078.563 1.593.516.516 1.469.516.609 0 1.125-.312.53-.329.672-.766h2q-.454 1.406-1.422 2.11-.953.687-2.453.687-1.907 0-3.063-1.219t-1.156-3.14q0-1.86 1.172-3.11 1.187-1.266 3.047-1.266m-1.954 3.47h3.704q-.172-.907-.594-1.329t-1.235-.422q-.828 0-1.312.469t-.563 1.281m11.282-3.47q1.609 0 2.703.829 1.094.828 1.187 2.312h-2.218q-.11-.719-.532-1.062-.422-.36-1.156-.36-.906 0-1.422.75-.5.75-.5 1.938t.5 1.906q.5.703 1.375.703.766 0 1.235-.437.468-.438.578-1.25h2.187q-.219 1.64-1.281 2.53-1.047.876-2.703.876-1.844 0-3.016-1.188-1.156-1.187-1.156-3.062 0-2.016 1.14-3.25 1.157-1.235 3.079-1.235m9.25 0q1.937 0 3.109 1.204t1.172 3.171q0 1.97-1.188 3.172-1.171 1.188-3.093 1.188t-3.11-1.203q-1.172-1.203-1.172-3.157 0-1.968 1.157-3.171 1.156-1.204 3.125-1.204m-2 4.375q0 1.297.53 1.97.532.671 1.47.671.968 0 1.484-.687.531-.704.531-1.954 0-1.234-.515-1.937-.5-.719-1.516-.719-.922 0-1.453.656-.531.657-.531 2m12.492-4.375q1.594 0 2.297.813.718.797.718 2.516v5.171h-2.265v-4.75q0-.968-.344-1.453-.328-.5-1.11-.5-.952 0-1.359.563-.406.562-.406 1.719v4.421h-2.266v-8.28h2.157v1.155h.047q.406-.656 1.062-1.015.672-.36 1.469-.36m12.812-2.921v11.421h-2.172v-1.062h-.03q-.36.64-1.016.969-.641.328-1.485.328-1.703 0-2.719-1.25-1-1.25-1-3.203 0-1.844.985-3.063 1-1.219 2.687-1.219.766 0 1.407.313.64.312 1.03.922h.032v-4.156zm-6.156 7.265q0 1.156.531 1.922.547.75 1.47.75.952 0 1.452-.703t.5-1.969q0-1.219-.5-1.922-.484-.703-1.453-.703-.953 0-1.484.703-.516.703-.516 1.922m11.664-4.344q1.828 0 2.719.61.906.594.906 1.687v4.438q0 .5.063 1 .062.5.218.765h-2.296q-.063-.187-.11-.39t-.062-.406q-.47.5-1.188.765-.703.266-1.594.266-1.28 0-2.046-.64-.766-.657-.766-1.86 0-1.156.719-1.766.718-.61 2.625-.828 1.312-.125 1.734-.312.422-.204.422-.704 0-.546-.328-.828-.313-.28-1.125-.28-.703 0-1.078.312-.375.296-.438.937h-2.281q.094-1.36 1.125-2.062 1.031-.704 2.781-.704m-1.89 6.141q0 .5.328.781.343.282 1.078.282.906 0 1.36-.47.468-.484.468-1.405v-.875q-.203.156-.531.25-.328.078-1.203.203-.766.093-1.141.406-.36.297-.36.828m12.093-6.14q.157 0 .282.03.125.016.234.048v2.109q-.203-.031-.39-.047-.173-.031-.423-.031-1.156 0-1.703.703t-.547 1.89v3.797h-2.265v-8.28h2.156v1.546h.031q.36-.812 1.063-1.281.719-.485 1.562-.485m3.125.218 1.875 5.672h.032l1.796-5.672h2.36l-3.516 9.485q-.312.828-.969 1.265-.64.453-1.671.453-.5 0-.844-.03-.328-.017-.688-.063v-1.86q.407.047.672.063.266.015.516.015.484 0 .75-.297.265-.296.265-.75 0-.125-.015-.234-.016-.11-.094-.281l-2.922-7.766zm16.516-3.14q2.281 0 3.687 1.484 1.422 1.484 1.422 4.156t-1.39 4.235q-1.375 1.546-3.72 1.546h-5v-11.421zm-.188 9.312q1.204 0 1.985-.86.797-.874.797-2.577 0-1.985-.828-2.875-.829-.891-2.391-.891h-1.86v7.203zm12.172-9.594q1.938 0 3.313 1.11 1.375 1.093 1.61 3h-2.438q-.157-.89-.891-1.438-.719-.562-1.61-.562-1.468 0-2.28 1.078-.813 1.078-.813 2.844 0 1.703.797 2.765.812 1.063 2.312 1.063 1.078 0 1.75-.672t.828-1.89h2.438q-.219 2.187-1.578 3.437-1.36 1.25-3.438 1.25-1.656 0-2.937-.75-1.281-.766-1.985-2.14-.703-1.376-.703-3.063 0-2.625 1.532-4.329 1.546-1.703 4.093-1.703"/>
    <path fill="#dc477d" fill-rule="evenodd" d="M152.734 11.77c0-1.222.99-2.212 2.212-2.212h237.812a2.21 2.21 0 0 1 2.212 2.212v75.198c0 1.222-.99 2.212-2.212 2.212H154.946a2.21 2.21 0 0 1-2.212-2.212z"/>
    <path fill="#fff" d="M180.173 43.807v2.11h-6.032v2.437h5.532v1.953h-5.532v2.813h6.157v2.11h-8.672V43.806zm3.57 3.14 1.453 2.173 1.437-2.172h2.516l-2.719 3.875 3.047 4.406h-2.594l-1.718-2.61-1.735 2.61h-2.547l2.985-4.36-2.719-3.921zm9.484-2.468v2.469h1.656v1.531h-1.656v4.14q0 .516.188.72.187.187.765.187.203 0 .375-.016.188-.015.328-.047v1.782q-.28.047-.625.062-.343.016-.687.016-1.469 0-2.047-.5-.578-.516-.578-1.422v-4.922h-1.375v-1.531h1.375v-2.469zm6.492 2.25q1.844 0 2.938 1.266 1.094 1.265 1.094 3.218l-.016.422h-5.969q.047 1.078.563 1.594t1.469.516q.609 0 1.125-.313.53-.328.671-.765h2q-.453 1.406-1.421 2.109-.954.687-2.454.687-1.906 0-3.062-1.218-1.156-1.219-1.156-3.14 0-1.86 1.172-3.11 1.187-1.266 3.046-1.266m-1.953 3.469h3.703q-.171-.906-.593-1.328t-1.235-.422q-.828 0-1.312.469t-.563 1.28m12.14-3.469q.157 0 .282.031.125.016.235.047v2.11q-.204-.032-.391-.047-.172-.032-.422-.032-1.156 0-1.703.704-.547.703-.547 1.89v3.797h-2.266v-8.281h2.157v1.547h.03q.36-.813 1.063-1.282.72-.484 1.563-.484m6.15 0q1.593 0 2.296.813.719.796.719 2.515v5.172h-2.266v-4.75q0-.969-.343-1.453-.329-.5-1.11-.5-.953 0-1.36.562-.405.563-.405 1.72v4.421h-2.266v-8.281h2.156v1.156h.047q.406-.656 1.063-1.016.671-.359 1.468-.359m8.546 0q1.828 0 2.719.61.906.593.906 1.687v4.437q0 .5.063 1 .062.5.218.766h-2.296q-.063-.187-.11-.39t-.062-.407q-.469.5-1.188.766-.703.265-1.594.265-1.28 0-2.046-.64-.766-.656-.766-1.86 0-1.156.719-1.765.718-.61 2.625-.828 1.312-.125 1.734-.313.422-.203.422-.703 0-.547-.328-.828-.313-.281-1.125-.281-.703 0-1.078.312-.375.297-.438.938h-2.281q.094-1.36 1.125-2.063t2.781-.703m-1.89 6.14q0 .5.328.782.343.281 1.078.281.906 0 1.36-.469.468-.484.468-1.406v-.875q-.203.156-.531.25-.328.078-1.203.203-.766.094-1.141.407-.36.296-.36.828m9.609-9.062V55.23h-2.266V43.807zm12.695 0q1.39 0 2.328.89.954.891.954 2.266 0 1.079-.454 1.782-.437.703-1.359 1.078v.031q.813.203 1.234.953.438.75.47 2.297.03 1.547.452 2.125h-2.515q-.22-.562-.297-1.797-.125-1.687-.578-2.172-.438-.5-1.375-.5h-2.563v4.47h-2.515V43.806zm-.906 5.156q.797 0 1.234-.375.438-.39.438-1.25 0-.812-.422-1.187-.422-.39-1.25-.39h-2.797v3.202zm10.023-2.234q1.938 0 3.11 1.203t1.172 3.172-1.188 3.172q-1.172 1.187-3.094 1.187t-3.109-1.203q-1.172-1.203-1.172-3.156 0-1.969 1.156-3.172 1.157-1.203 3.125-1.203m-2 4.375q0 1.297.532 1.969.531.672 1.468.672.97 0 1.485-.688.531-.703.531-1.953 0-1.234-.516-1.937-.5-.72-1.515-.72-.922 0-1.453.657-.532.656-.532 2m11.774-4.375q1.937 0 3.11 1.203 1.171 1.203 1.171 3.172T267 54.276q-1.172 1.187-3.094 1.187t-3.11-1.203q-1.171-1.203-1.171-3.156 0-1.969 1.156-3.172t3.125-1.203m-2 4.375q0 1.297.531 1.969t1.469.672q.969 0 1.484-.688.532-.703.532-1.953 0-1.234-.516-1.937-.5-.72-1.516-.72-.922 0-1.453.657-.531.656-.531 2m10.633-6.625v2.469h1.656v1.531h-1.656v4.14q0 .516.187.72.188.187.766.187.203 0 .375-.016.187-.015.328-.047v1.782q-.281.047-.625.062-.344.016-.688.016-1.468 0-2.046-.5-.579-.516-.579-1.422v-4.922h-1.375v-1.531h1.375v-2.469zm12.562-.953q1.938 0 3.313 1.11 1.375 1.093 1.61 3h-2.438q-.157-.891-.891-1.438-.719-.563-1.61-.563-1.468 0-2.28 1.078-.813 1.079-.813 2.844 0 1.703.797 2.766.812 1.062 2.312 1.062 1.078 0 1.75-.672.672-.671.828-1.89h2.438q-.219 2.187-1.578 3.437-1.36 1.25-3.438 1.25-1.656 0-2.937-.75-1.282-.765-1.985-2.14t-.703-3.063q0-2.625 1.531-4.328 1.547-1.703 4.094-1.703m12.133.281 4.281 11.406h-2.61l-.858-2.53h-4.282l-.89 2.546h-2.547l4.344-11.422zm-1.328 2.813-1.484 4.187h2.968l-1.437-4.187zm14.797-3.094q-.86 1.594-1.313 3.453-.437 1.844-.437 3.797 0 1.969.406 3.797.422 1.828 1.313 3.578h-1.875q-1.047-1.719-1.594-3.578-.531-1.86-.531-3.64 0-1.86.546-3.876.547-2.015 1.579-3.531zm4.765 3.203q1.938 0 3.11 1.203t1.172 3.172-1.188 3.172q-1.172 1.187-3.094 1.187t-3.109-1.203q-1.172-1.203-1.172-3.156 0-1.969 1.156-3.172 1.157-1.203 3.125-1.203m-2 4.375q0 1.297.532 1.969.53.672 1.468.672.97 0 1.485-.688.531-.703.531-1.953 0-1.234-.516-1.937-.5-.72-1.515-.72-.922 0-1.453.657-.532.656-.532 2m12.414-4.375q1.75 0 2.75 1.234 1 1.235 1 3.22 0 1.827-.984 3.062-.984 1.218-2.64 1.218-.766 0-1.422-.328-.657-.328-1.063-.937h-.031v3.953h-2.266V46.948h2.156v1.062h.032q.406-.656 1.031-.968.625-.313 1.437-.313m-2.468 4.39q0 1.188.5 1.907.515.719 1.484.719.938 0 1.453-.688t.516-1.937q0-1.188-.516-1.922-.5-.75-1.484-.75-.938 0-1.453.703-.5.703-.5 1.969m10.46-6.64v2.469h1.657v1.531h-1.656v4.14q0 .516.187.72.188.187.766.187.203 0 .375-.016.187-.015.328-.047v1.782q-.281.047-.625.062-.344.016-.688.016-1.468 0-2.046-.5-.579-.516-.579-1.422V48.48h-1.375v-1.531h1.375V44.48zm5.087-.672v1.86h-2.266v-1.86zm0 3.14v8.282h-2.266v-8.281zm5.812-.218q1.938 0 3.11 1.203t1.171 3.172-1.187 3.172q-1.172 1.187-3.094 1.187t-3.11-1.203q-1.171-1.203-1.171-3.156 0-1.969 1.156-3.172t3.125-1.203m-2 4.375q0 1.297.531 1.969.532.672 1.47.672.968 0 1.483-.688.532-.703.532-1.953 0-1.234-.516-1.937-.5-.72-1.516-.72-.921 0-1.453.657-.53.656-.53 2m12.492-4.375q1.594 0 2.297.813.719.796.719 2.515v5.172h-2.266v-4.75q0-.969-.343-1.453-.329-.5-1.11-.5-.953 0-1.36.562-.405.563-.405 1.72v4.421h-2.266v-8.281h2.156v1.156h.047q.406-.656 1.063-1.016.671-.359 1.468-.359m8.547 0q1.828 0 2.719.61.906.593.906 1.687v4.437q0 .5.063 1 .062.5.218.766h-2.296q-.063-.187-.11-.39t-.062-.407q-.47.5-1.188.766-.703.265-1.594.265-1.28 0-2.046-.64-.766-.656-.766-1.86 0-1.156.719-1.765.718-.61 2.625-.828 1.312-.125 1.734-.313.422-.203.422-.703 0-.547-.328-.828-.313-.281-1.125-.281-.703 0-1.078.312-.375.297-.438.938h-2.281q.094-1.36 1.125-2.063t2.781-.703m-1.89 6.14q0 .5.328.782.343.281 1.078.281.906 0 1.36-.469.468-.484.468-1.406v-.875q-.203.156-.531.25-.328.078-1.203.203-.766.094-1.141.407-.36.296-.36.828m9.609-9.062V55.23h-2.266V43.807zm2.719-.281q1.03 1.703 1.562 3.562.547 1.844.547 3.657 0 1.828-.547 3.875-.531 2.031-1.562 3.515h-1.907q.875-1.656 1.313-3.484t.437-3.75q0-1.984-.437-3.828-.422-1.86-1.297-3.547z"/>
    <path fill="#dc477d" fill-rule="evenodd" d="M152.734 173.935c0-1.221.99-2.212 2.212-2.212h237.812a2.21 2.21 0 0 1 2.212 2.212v75.199c0 1.221-.99 2.211-2.212 2.211H154.946a2.21 2.21 0 0 1-2.212-2.211z"/>
    <path fill="#fff" d="M216.5 205.973q1.782 0 2.829 1t1.047 2.656-1.047 2.672q-1.047 1-2.828 1h-2.72v4.093h-2.515v-11.421zm-.702 5.375q1.078 0 1.609-.407t.531-1.312q0-.875-.515-1.281-.5-.422-1.61-.422h-2.031v3.422zm10.476-2.454q.156 0 .281.032.125.015.235.047v2.109q-.203-.031-.39-.047-.173-.031-.423-.031-1.156 0-1.703.703t-.547 1.89v3.797h-2.265v-8.28h2.156v1.546h.031q.36-.812 1.063-1.281.718-.485 1.562-.485m3.742-2.921v1.859h-2.265v-1.86zm0 3.14v8.281h-2.265v-8.28zm6.563-.219q.922 0 1.515.36.61.36.891 1.015.469-.656 1.11-1.015.64-.36 1.406-.36 1.5 0 2.25.766.765.766.765 2.125v5.61h-2.281v-4.782q0-1.14-.328-1.531-.328-.39-1.063-.39-.765 0-1.14.515-.375.516-.375 1.5v4.687h-2.281v-5.093q0-.828-.313-1.22-.312-.39-1.047-.39-.656 0-1.11.5-.437.5-.437 1.344v4.86h-2.265v-8.282h2.14v1.125h.032q.484-.672 1.109-1 .64-.344 1.422-.344m13.523 0q1.828 0 2.719.61.906.594.906 1.687v4.438q0 .5.063 1 .062.5.218.765h-2.296q-.063-.187-.11-.39t-.062-.406q-.469.5-1.188.765-.703.266-1.594.266-1.28 0-2.046-.64-.766-.657-.766-1.86 0-1.156.719-1.766.718-.61 2.625-.828 1.312-.125 1.734-.312.422-.204.422-.704 0-.546-.328-.828-.313-.28-1.125-.28-.703 0-1.078.312-.375.296-.438.937h-2.281q.094-1.36 1.125-2.062 1.031-.704 2.781-.704m-1.89 6.141q0 .5.328.781.343.282 1.078.282.906 0 1.36-.47.468-.484.468-1.405v-.875q-.203.156-.531.25-.328.078-1.203.203-.766.093-1.141.406-.36.297-.36.828m12.093-6.14q.157 0 .282.03.125.016.234.048v2.109q-.203-.031-.39-.047-.173-.031-.423-.031-1.156 0-1.703.703t-.547 1.89v3.797h-2.265v-8.28h2.156v1.546h.031q.36-.812 1.063-1.281.719-.485 1.562-.485m3.125.218 1.875 5.672h.032l1.796-5.672h2.36l-3.516 9.485q-.312.828-.969 1.265-.64.453-1.671.453-.5 0-.844-.03-.328-.017-.688-.063v-1.86q.407.047.672.063.266.015.516.015.484 0 .75-.297.265-.296.265-.75 0-.125-.015-.234-.016-.11-.094-.281l-2.922-7.766zm17.735-3.14q1.39 0 2.328.89.953.89.953 2.266 0 1.078-.453 1.781-.438.703-1.36 1.078v.031q.813.204 1.235.954.437.75.469 2.296.03 1.547.453 2.125h-2.516q-.219-.562-.297-1.796-.125-1.688-.578-2.172-.437-.5-1.375-.5h-2.562v4.468h-2.516v-11.421zm-.907 5.156q.797 0 1.235-.375.437-.39.437-1.25 0-.813-.422-1.188-.421-.39-1.25-.39h-2.796v3.203zm10.024-2.235q1.937 0 3.11 1.204 1.171 1.203 1.171 3.171 0 1.97-1.187 3.172-1.172 1.188-3.094 1.188t-3.11-1.203Q286 215.222 286 213.268q0-1.968 1.156-3.171 1.156-1.204 3.125-1.204m-2 4.375q0 1.297.531 1.97.531.671 1.469.671.969 0 1.484-.687.532-.704.532-1.954 0-1.234-.516-1.937-.5-.719-1.516-.719-.922 0-1.453.656-.531.657-.531 2m11.773-4.375q1.938 0 3.11 1.204t1.172 3.171q0 1.97-1.188 3.172-1.172 1.188-3.094 1.188t-3.109-1.203q-1.172-1.203-1.172-3.157 0-1.968 1.156-3.171 1.157-1.204 3.125-1.204m-2 4.375q0 1.297.532 1.97.53.671 1.468.671.97 0 1.485-.687.531-.704.531-1.954 0-1.234-.516-1.937-.5-.719-1.515-.719-.922 0-1.453.656-.532.657-.532 2m10.633-6.625v2.47h1.656v1.53h-1.656v4.141q0 .516.188.719.187.187.765.187.203 0 .375-.015.188-.016.328-.047v1.781q-.28.047-.625.063-.343.015-.687.015-1.469 0-2.047-.5-.578-.515-.578-1.422v-4.922h-1.375v-1.53h1.375v-2.47zm12.563-.953q1.937 0 3.312 1.11 1.375 1.093 1.61 3h-2.438q-.156-.89-.89-1.438-.72-.562-1.61-.562-1.469 0-2.281 1.078t-.813 2.844q0 1.703.797 2.765.813 1.063 2.313 1.063 1.078 0 1.75-.672t.828-1.89h2.437q-.218 2.187-1.578 3.437t-3.437 1.25q-1.657 0-2.938-.75-1.281-.766-1.984-2.14-.703-1.376-.703-3.063 0-2.625 1.53-4.329 1.548-1.703 4.095-1.703m12.132.282 4.282 11.406h-2.61l-.859-2.531h-4.281l-.89 2.546h-2.548l4.344-11.421zm-1.328 2.812-1.484 4.188h2.969l-1.438-4.188z"/>
    <path fill="#dc477d" fill-rule="evenodd" d="M152.734 280.1c0-1.22.99-2.211 2.212-2.211h237.812a2.21 2.21 0 0 1 2.212 2.212v75.198c0 1.222-.99 2.212-2.212 2.212H154.946a2.21 2.21 0 0 1-2.212-2.212z"/>
    <path fill="#fff" d="M206.294 302.638q1.78 0 2.828 1t1.047 2.656q0 1.656-1.047 2.672-1.047 1-2.828 1h-2.72v4.094h-2.515v-11.422zm-.704 5.375q1.079 0 1.61-.406t.531-1.313q0-.875-.516-1.281-.5-.422-1.609-.422h-2.031v3.422zm10.477-2.453q.156 0 .281.031.125.016.235.047v2.11q-.203-.032-.391-.048-.172-.03-.422-.03-1.156 0-1.703.702-.547.703-.547 1.89v3.798h-2.265v-8.281h2.156v1.546h.031q.36-.812 1.063-1.28.718-.485 1.562-.485m3.742-2.922v1.86h-2.265v-1.86zm0 3.14v8.282h-2.265v-8.281zm6.563-.218q.922 0 1.515.36.61.359.891 1.015.469-.656 1.11-1.016.64-.36 1.406-.36 1.5 0 2.25.766.765.766.765 2.125v5.61h-2.281v-4.781q0-1.141-.328-1.532-.328-.39-1.063-.39-.765 0-1.14.515-.375.516-.375 1.5v4.688h-2.282v-5.094q0-.828-.312-1.219-.313-.39-1.047-.39-.656 0-1.11.5-.437.5-.437 1.343v4.86h-2.265v-8.281h2.14v1.125h.031q.485-.672 1.11-1 .64-.344 1.422-.344m13.523 0q1.828 0 2.719.61.906.593.906 1.687v4.437q0 .5.063 1 .062.5.218.766h-2.296q-.063-.188-.11-.39-.047-.204-.062-.407-.47.5-1.188.766-.703.265-1.594.265-1.28 0-2.046-.64-.766-.657-.766-1.86 0-1.156.719-1.765.718-.61 2.625-.829 1.312-.125 1.734-.312.422-.203.422-.703 0-.547-.328-.828-.313-.282-1.125-.282-.703 0-1.078.313-.375.297-.438.937h-2.281q.094-1.359 1.125-2.062t2.781-.703m-1.89 6.14q0 .5.328.782.343.28 1.078.28.906 0 1.36-.468.468-.484.468-1.406v-.875q-.203.156-.531.25-.328.078-1.203.203-.766.094-1.141.406-.36.297-.36.828m12.093-6.14q.157 0 .282.031.125.016.234.047v2.11q-.203-.032-.39-.048-.173-.03-.423-.03-1.156 0-1.703.702-.547.703-.547 1.89v3.798h-2.265v-8.281h2.156v1.546h.031q.36-.812 1.063-1.28.719-.485 1.562-.485m3.125.219 1.875 5.671h.032l1.796-5.671h2.36l-3.516 9.484q-.312.828-.969 1.266-.64.453-1.671.453-.5 0-.844-.032-.328-.015-.688-.062v-1.86q.407.047.672.063t.516.016q.484 0 .75-.297.265-.297.265-.75 0-.125-.015-.235-.016-.109-.094-.28l-2.922-7.766zm15.453-3.422q2.063 0 3.313.968 1.25.954 1.25 2.72h-2.422q-.062-.86-.594-1.298-.531-.437-1.656-.437-.766 0-1.25.344-.484.328-.484.953 0 .437.203.656.203.203.828.437.625.22 2.75.72 1.422.343 2.219 1.171.797.813.797 2.078 0 1.656-1.25 2.672-1.235 1-3.5 1-2.157 0-3.516-1.062-1.36-1.079-1.36-2.954v-.062h2.438q.016 1.062.703 1.594.703.515 1.828.515 1.016 0 1.61-.36.609-.374.609-1.062 0-.546-.469-.906-.453-.36-1.484-.61-1.313-.296-2.39-.624-1.063-.344-1.766-1.078-.688-.75-.688-1.922 0-1.531 1.219-2.485 1.234-.968 3.062-.968m8.54.28v1.86h-2.266v-1.86zm0 3.142v8.28h-2.266v-8.28zm5.078-.22q.906 0 1.5.345.593.328.968.984h.032v-1.11h2.156v7.813q0 1.672-1.063 2.64-1.047.97-3.203.97-1.469 0-2.515-.704-1.047-.703-1.141-1.953h2.25q.156.594.594.86.437.28 1.093.28.875 0 1.344-.53.485-.532.485-1.47v-1.155h-.032q-.328.609-.984.953-.656.328-1.5.328-1.672 0-2.61-1.11-.921-1.109-.921-3.046 0-1.75.968-2.922.985-1.172 2.579-1.172m-1.266 4.063q0 1.172.469 1.828.484.657 1.36.657.905 0 1.421-.657.516-.656.516-1.64 0-1.219-.5-1.875-.485-.656-1.438-.656-.844 0-1.344.64-.484.64-.484 1.703m12.492-4.062q1.594 0 2.297.812.719.797.719 2.516v5.172h-2.266v-4.75q0-.969-.344-1.453-.328-.5-1.109-.5-.953 0-1.36.562-.406.563-.406 1.719v4.422h-2.265v-8.281h2.156v1.156h.047q.406-.656 1.062-1.016.672-.36 1.47-.36m7.078-2.922v1.86h-2.265v-1.86zm0 3.14v8.282h-2.265v-8.281zm6.532-.218q1.593 0 2.296.812.72.797.72 2.516v5.172h-2.266v-4.75q0-.969-.344-1.453-.328-.5-1.11-.5-.953 0-1.359.562t-.406 1.719v4.422h-2.266v-8.281h2.156v1.156h.047q.407-.656 1.063-1.016.672-.36 1.469-.36m8.03 0q.907 0 1.5.344.595.328.97.984h.03v-1.11h2.157v7.813q0 1.672-1.062 2.64-1.047.97-3.204.97-1.468 0-2.515-.704-1.047-.703-1.14-1.953h2.25q.155.594.593.86.437.28 1.094.28.875 0 1.343-.53.485-.532.485-1.47v-1.155h-.031q-.329.609-.985.953-.656.328-1.5.328-1.672 0-2.61-1.11-.921-1.109-.921-3.046 0-1.75.969-2.922.984-1.172 2.578-1.172m-1.265 4.062q0 1.172.469 1.828.484.657 1.36.657.906 0 1.421-.657.516-.656.516-1.64 0-1.219-.5-1.875-.485-.656-1.438-.656-.843 0-1.343.64-.485.64-.485 1.703m17.563-7.265q1.937 0 3.312 1.109 1.375 1.094 1.61 3h-2.438q-.156-.89-.89-1.437-.72-.563-1.61-.563-1.469 0-2.281 1.078t-.813 2.844q0 1.703.797 2.766.813 1.062 2.313 1.062 1.078 0 1.75-.672t.828-1.89h2.437q-.218 2.187-1.578 3.437t-3.437 1.25q-1.657 0-2.938-.75-1.281-.766-1.984-2.14-.703-1.376-.703-3.063 0-2.625 1.53-4.328 1.548-1.703 4.095-1.703m12.132.28 4.282 11.407h-2.61l-.859-2.531h-4.281l-.89 2.547h-2.548l4.344-11.422zm-1.328 2.813-1.484 4.188h2.969l-1.438-4.188zm-110.622 15.908q-.86 1.593-1.312 3.453-.438 1.844-.438 3.797 0 1.968.407 3.797.421 1.828 1.312 3.578h-1.875q-1.047-1.72-1.594-3.578-.531-1.86-.531-3.641 0-1.86.547-3.875.547-2.016 1.578-3.531zm4.703 3.203q1.61 0 2.704.828 1.093.828 1.187 2.312h-2.219q-.11-.718-.531-1.062-.422-.36-1.156-.36-.906 0-1.422.75-.5.75-.5 1.938t.5 1.906q.5.703 1.375.703.766 0 1.234-.437.469-.438.578-1.25h2.188q-.219 1.64-1.281 2.531-1.047.875-2.703.875-1.844 0-3.016-1.187-1.156-1.188-1.156-3.063 0-2.015 1.14-3.25 1.157-1.234 3.078-1.234m9.25 0q1.938 0 3.11 1.203t1.172 3.172-1.188 3.172q-1.172 1.187-3.094 1.187t-3.109-1.203q-1.172-1.203-1.172-3.156 0-1.969 1.156-3.172 1.157-1.203 3.125-1.203m-2 4.375q0 1.297.532 1.969.53.671 1.468.671.97 0 1.485-.687.531-.703.531-1.953 0-1.235-.516-1.938-.5-.718-1.515-.718-.922 0-1.453.656-.532.656-.532 2m12.493-4.375q1.593 0 2.296.812.72.797.72 2.516v5.172h-2.266v-4.75q0-.969-.344-1.453-.328-.5-1.11-.5-.953 0-1.359.562t-.406 1.719v4.422h-2.266v-8.281h2.156v1.156h.047q.407-.656 1.063-1.016.672-.36 1.469-.36m12.812-2.922v11.422h-2.172v-1.063h-.031q-.36.64-1.016.969-.64.328-1.484.328-1.703 0-2.719-1.25-1-1.25-1-3.203 0-1.844.985-3.062 1-1.22 2.687-1.22.766 0 1.406.313.641.313 1.032.922h.03v-4.156zm-6.156 7.266q0 1.156.531 1.921.547.75 1.469.75.953 0 1.453-.703t.5-1.968q0-1.22-.5-1.922-.484-.703-1.453-.703-.953 0-1.485.703-.515.703-.515 1.922m10.195-7.266v1.86h-2.265v-1.86zm0 3.14v8.282h-2.265v-8.281zm4.672-2.468v2.469h1.656v1.53h-1.656v4.141q0 .516.188.72.187.187.765.187.203 0 .375-.016.188-.016.328-.047v1.781q-.281.047-.625.063t-.687.016q-1.469 0-2.047-.5-.578-.516-.578-1.422v-4.922h-1.375v-1.531h1.375v-2.47zm5.086-.672v1.86h-2.266v-1.86zm0 3.14v8.282h-2.266v-8.281zm5.812-.218q1.938 0 3.11 1.203t1.172 3.172-1.188 3.172q-1.172 1.187-3.094 1.187t-3.109-1.203q-1.172-1.203-1.172-3.156 0-1.969 1.156-3.172 1.157-1.203 3.125-1.203m-2 4.375q0 1.297.532 1.969.531.671 1.468.671.97 0 1.485-.687.531-.703.531-1.953 0-1.235-.516-1.938-.5-.718-1.515-.718-.922 0-1.453.656-.532.656-.532 2m12.493-4.375q1.593 0 2.297.812.718.797.718 2.516v5.172h-2.265v-4.75q0-.969-.344-1.453-.328-.5-1.11-.5-.953 0-1.359.562t-.406 1.719v4.422h-2.266v-8.281h2.157v1.156h.046q.407-.656 1.063-1.016.672-.36 1.469-.36m8.547 0q1.828 0 2.718.61.907.593.907 1.687v4.437q0 .5.062 1 .063.5.219.766h-2.297q-.063-.188-.11-.39-.046-.204-.062-.407-.469.5-1.187.766-.704.265-1.594.265-1.281 0-2.047-.64-.766-.657-.766-1.86 0-1.156.719-1.765.719-.61 2.625-.829 1.313-.125 1.734-.312.422-.203.422-.703 0-.547-.328-.828-.312-.282-1.125-.282-.703 0-1.078.313-.375.297-.437.937h-2.282q.094-1.359 1.125-2.062 1.032-.703 2.782-.703m-1.891 6.14q0 .5.328.782.344.28 1.078.28.906 0 1.36-.468.468-.484.468-1.406v-.875q-.203.156-.531.25-.328.078-1.203.203-.766.094-1.14.406-.36.297-.36.828m9.61-9.062v11.422H313v-11.422zm2.718-.281q1.031 1.703 1.563 3.562.546 1.844.546 3.656 0 1.829-.546 3.875-.532 2.032-1.563 3.516h-1.906q.875-1.656 1.312-3.484t.438-3.75q0-1.985-.438-3.828-.422-1.86-1.297-3.547z"/>
    <path fill="#dc477d" fill-rule="evenodd" d="M607.461 280.1c0-1.22.99-2.211 2.212-2.211h237.812a2.21 2.21 0 0 1 2.212 2.212v75.198c0 1.222-.99 2.212-2.212 2.212H609.673a2.21 2.21 0 0 1-2.212-2.212z"/>
    <path fill="#fff" d="M648.466 311.857q2.062 0 3.312.968 1.25.954 1.25 2.72h-2.421q-.063-.86-.594-1.298-.531-.437-1.656-.437-.766 0-1.25.344-.485.328-.485.953 0 .437.203.656.203.203.828.437.625.22 2.75.72 1.422.343 2.22 1.171.796.813.796 2.078 0 1.656-1.25 2.672-1.234 1-3.5 1-2.156 0-3.516-1.062-1.359-1.079-1.359-2.954v-.062h2.438q.015 1.062.703 1.594.703.515 1.828.515 1.015 0 1.61-.36.609-.374.609-1.062 0-.546-.47-.906-.452-.36-1.484-.61-1.312-.296-2.39-.624-1.063-.344-1.766-1.078-.687-.75-.687-1.922 0-1.531 1.218-2.485 1.235-.968 3.063-.968m10.023 3.203q1.844 0 2.938 1.265 1.094 1.266 1.094 3.22l-.016.421h-5.969q.047 1.078.563 1.594.515.515 1.469.515.609 0 1.125-.312.53-.328.671-.766h2q-.453 1.407-1.421 2.11-.954.687-2.454.687-1.906 0-3.062-1.219-1.156-1.218-1.156-3.14 0-1.86 1.172-3.11 1.187-1.265 3.046-1.265m-1.953 3.469h3.703q-.171-.907-.593-1.329t-1.235-.421q-.828 0-1.312.468t-.563 1.282m11.282-3.47q1.609 0 2.703.829 1.093.828 1.187 2.312h-2.219q-.109-.718-.53-1.062-.423-.36-1.157-.36-.906 0-1.422.75-.5.75-.5 1.938t.5 1.906q.5.703 1.375.703.766 0 1.234-.437.47-.438.579-1.25h2.187q-.219 1.64-1.281 2.531-1.047.875-2.703.875-1.844 0-3.016-1.187-1.156-1.188-1.156-3.063 0-2.015 1.14-3.25 1.157-1.234 3.079-1.234m9.25 0q1.937 0 3.109 1.204t1.172 3.172-1.188 3.172q-1.172 1.187-3.093 1.187t-3.11-1.203q-1.172-1.203-1.172-3.156 0-1.969 1.157-3.172 1.156-1.203 3.125-1.203m-2 4.376q0 1.297.53 1.969.532.671 1.47.671.968 0 1.484-.687.531-.703.531-1.953 0-1.235-.515-1.938-.5-.718-1.516-.718-.922 0-1.453.656t-.531 2m12.492-4.375q1.593 0 2.297.812.718.797.718 2.516v5.172h-2.265v-4.75q0-.969-.344-1.453-.328-.5-1.11-.5-.953 0-1.359.562t-.406 1.719v4.422h-2.266v-8.281h2.157v1.156h.046q.407-.656 1.063-1.016.672-.36 1.469-.36m12.812-2.922v11.422H698.2v-1.063h-.03q-.36.64-1.017.969-.64.328-1.484.328-1.703 0-2.719-1.25-1-1.25-1-3.203 0-1.844.985-3.062 1-1.22 2.687-1.22.766 0 1.406.313.641.313 1.032.922h.03v-4.156zm-6.156 7.266q0 1.156.531 1.921.547.75 1.469.75.953 0 1.453-.703t.5-1.968q0-1.22-.5-1.922-.484-.703-1.453-.703-.953 0-1.484.703-.516.703-.516 1.922m11.664-4.344q1.828 0 2.719.61.906.593.906 1.687v4.437q0 .5.063 1 .062.5.218.766h-2.297q-.062-.188-.109-.39-.047-.204-.062-.407-.47.5-1.188.766-.703.265-1.594.265-1.281 0-2.047-.64-.765-.657-.765-1.86 0-1.156.719-1.765.718-.61 2.625-.829 1.312-.125 1.734-.312.422-.203.422-.703 0-.547-.328-.828-.313-.282-1.125-.282-.703 0-1.078.313-.375.297-.438.937h-2.281q.094-1.359 1.125-2.062t2.781-.703m-1.89 6.14q0 .5.328.782.343.28 1.078.28.906 0 1.359-.468.469-.484.469-1.406v-.875q-.203.156-.531.25-.329.078-1.204.203-.765.094-1.14.406-.36.297-.36.828m12.093-6.14q.156 0 .281.031.125.016.235.047v2.11q-.203-.032-.39-.048-.173-.03-.423-.03-1.156 0-1.703.702-.547.703-.547 1.89v3.798h-2.265v-8.281h2.156v1.546h.031q.36-.812 1.063-1.28.718-.485 1.562-.485m3.125.219 1.875 5.671h.031l1.797-5.671h2.36l-3.516 9.484q-.312.828-.969 1.266-.64.453-1.672.453-.5 0-.843-.032-.328-.015-.688-.062v-1.86q.406.047.672.063t.516.016q.484 0 .75-.297.265-.297.265-.75 0-.125-.015-.235-.016-.109-.094-.28l-2.922-7.766zm15.453-3.422q2.063 0 3.313.968 1.25.954 1.25 2.72h-2.422q-.063-.86-.594-1.298-.531-.437-1.656-.437-.766 0-1.25.344-.484.328-.484.953 0 .437.203.656.203.203.828.437.625.22 2.75.72 1.422.343 2.219 1.171.796.813.796 2.078 0 1.656-1.25 2.672-1.234 1-3.5 1-2.156 0-3.515-1.062-1.36-1.079-1.36-2.954v-.062h2.438q.016 1.062.703 1.594.703.515 1.828.515 1.016 0 1.61-.36.609-.374.609-1.062 0-.546-.469-.906-.453-.36-1.484-.61-1.313-.296-2.39-.624-1.063-.344-1.766-1.078-.688-.75-.688-1.922 0-1.531 1.219-2.485 1.234-.968 3.062-.968m8.54.28v1.86h-2.266v-1.86zm0 3.142v8.28h-2.266v-8.28zm5.077-.22q.907 0 1.5.345.594.328.97.984h.03v-1.11h2.157v7.813q0 1.672-1.063 2.64-1.047.97-3.203.97-1.469 0-2.516-.704-1.046-.703-1.14-1.953h2.25q.156.594.594.86.437.28 1.093.28.875 0 1.344-.53.484-.532.484-1.47v-1.155h-.03q-.329.609-.985.953-.656.328-1.5.328-1.672 0-2.61-1.11-.921-1.109-.921-3.046 0-1.75.968-2.922.985-1.172 2.578-1.172m-1.265 4.063q0 1.172.469 1.828.484.657 1.359.657.906 0 1.422-.657.515-.656.515-1.64 0-1.219-.5-1.875-.484-.656-1.437-.656-.844 0-1.344.64-.484.64-.484 1.703m12.492-4.062q1.594 0 2.297.812.719.797.719 2.516v5.172h-2.266v-4.75q0-.969-.344-1.453-.328-.5-1.11-.5-.952 0-1.358.562t-.407 1.719v4.422h-2.265v-8.281h2.156v1.156h.047q.406-.656 1.062-1.016.672-.36 1.469-.36m7.078-2.922v1.86h-2.265v-1.86zm0 3.14v8.282h-2.265v-8.281zm6.531-.218q1.594 0 2.297.812.719.797.719 2.516v5.172h-2.266v-4.75q0-.969-.343-1.453-.328-.5-1.11-.5-.953 0-1.36.562-.405.563-.405 1.719v4.422h-2.266v-8.281h2.156v1.156h.047q.406-.656 1.063-1.016.672-.36 1.468-.36m8.032 0q.906 0 1.5.344.593.328.968.984h.032v-1.11h2.156v7.813q0 1.672-1.063 2.64-1.046.97-3.203.97-1.468 0-2.515-.704-1.047-.703-1.141-1.953h2.25q.156.594.594.86.437.28 1.094.28.875 0 1.343-.53.485-.532.485-1.47v-1.155h-.032q-.328.609-.984.953-.656.328-1.5.328-1.672 0-2.61-1.11-.921-1.109-.921-3.046 0-1.75.969-2.922.984-1.172 2.578-1.172m-1.266 4.062q0 1.172.469 1.828.484.657 1.36.657.905 0 1.421-.657.516-.656.516-1.64 0-1.219-.5-1.875-.485-.656-1.438-.656-.844 0-1.344.64-.484.64-.484 1.703m17.563-7.265q1.937 0 3.312 1.109 1.375 1.094 1.61 3h-2.438q-.156-.89-.89-1.437-.72-.563-1.61-.563-1.469 0-2.281 1.078t-.813 2.844q0 1.703.797 2.766.813 1.062 2.313 1.062 1.078 0 1.75-.672t.828-1.89h2.437q-.219 2.187-1.578 3.437-1.36 1.25-3.437 1.25-1.657 0-2.938-.75-1.281-.766-1.984-2.14-.703-1.376-.703-3.063 0-2.625 1.53-4.328 1.548-1.703 4.095-1.703m12.132.28 4.282 11.407h-2.61l-.86-2.531h-4.28l-.891 2.547h-2.547l4.344-11.422zm-1.328 2.813-1.484 4.188h2.969l-1.438-4.188z"/>
    <path fill="#dc477d" fill-rule="evenodd" d="M76.903 411.69c0-.694.563-1.257 1.257-1.257h186.147a1.257 1.257 0 0 1 1.257 1.257v42.745c0 .695-.563 1.257-1.257 1.257H78.16a1.257 1.257 0 0 1-1.257-1.257z"/>
    <path fill="#fff" d="M117.698 418v9.313h5.563v2.11h-8.078V418zm10.258 2.923q1.844 0 2.938 1.265 1.093 1.266 1.093 3.219l-.015.422h-5.969q.047 1.078.562 1.594.516.515 1.47.515.609 0 1.124-.312.531-.328.672-.766h2q-.453 1.406-1.422 2.11-.953.687-2.453.687-1.906 0-3.062-1.219-1.157-1.219-1.157-3.14 0-1.86 1.172-3.11 1.188-1.265 3.047-1.265m-1.953 3.468h3.703q-.172-.906-.594-1.328t-1.234-.422q-.828 0-1.313.47-.484.468-.562 1.28m11.125-3.468q1.828 0 2.719.609.906.594.906 1.687v4.438q0 .5.062 1 .063.5.22.766h-2.298q-.062-.188-.11-.391-.046-.203-.062-.406-.468.5-1.187.765-.703.266-1.594.266-1.281 0-2.047-.64-.765-.657-.765-1.86 0-1.156.718-1.766.72-.61 2.625-.828 1.313-.125 1.735-.312.422-.203.422-.703 0-.547-.328-.829-.313-.28-1.125-.28-.704 0-1.079.312-.375.297-.437.937h-2.281q.093-1.36 1.125-2.062 1.03-.703 2.78-.703m-1.89 6.14q0 .5.327.781.344.282 1.079.282.906 0 1.359-.469.469-.484.469-1.406v-.875q-.203.156-.532.25-.328.078-1.203.203-.765.094-1.14.406-.36.297-.36.828m10.53-9.062q.235 0 .626.031.39.016.578.031v1.688l-.438-.032q-.203-.015-.375-.015-.484 0-.687.219-.188.203-.188.843v.375h1.563v1.532h-1.563v6.75h-2.281v-6.75h-1.36v-1.532h1.36v-.562q0-1.297.75-1.938.75-.64 2.016-.64m10.477 2.922q1.61 0 2.703.828 1.094.828 1.188 2.312h-2.219q-.11-.719-.531-1.062-.422-.36-1.156-.36-.907 0-1.422.75-.5.75-.5 1.938t.5 1.906q.5.703 1.375.703.765 0 1.234-.437.469-.438.578-1.25h2.188q-.22 1.64-1.282 2.531-1.046.875-2.703.875-1.843 0-3.015-1.188-1.157-1.187-1.157-3.062 0-2.016 1.141-3.25 1.156-1.234 3.078-1.234m9.047 0q1.844 0 2.938 1.265 1.093 1.266 1.093 3.219l-.015.422h-5.97q.048 1.078.563 1.594.516.515 1.47.515.609 0 1.124-.312.531-.328.672-.766h2q-.453 1.406-1.422 2.11-.953.687-2.453.687-1.906 0-3.062-1.219-1.157-1.219-1.157-3.14 0-1.86 1.172-3.11 1.188-1.265 3.047-1.265m-1.953 3.468h3.703q-.172-.906-.594-1.328t-1.234-.422q-.828 0-1.313.47-.484.468-.562 1.28m12.14-3.468q.157 0 .282.03.125.016.234.048v2.11q-.203-.032-.39-.048-.172-.031-.422-.031-1.157 0-1.703.703-.547.703-.547 1.89v3.798h-2.266v-8.282h2.156v1.547h.032q.359-.812 1.062-1.281.719-.484 1.563-.484m4.336-2.25v2.468h1.657v1.532h-1.657v4.14q0 .516.188.719.187.187.766.187.203 0 .375-.015.187-.016.328-.047v1.781q-.282.047-.625.063-.344.015-.688.015-1.469 0-2.047-.5-.578-.515-.578-1.422v-4.921h-1.375v-1.532h1.375v-2.468zm5.086-.672v1.86h-2.265V418zm0 3.14v8.282h-2.265v-8.282zm5.047-3.14q.235 0 .625.031.39.016.578.031v1.688l-.437-.032q-.203-.015-.375-.015-.484 0-.688.219-.187.203-.187.843v.375h1.562v1.532h-1.562v6.75h-2.281v-6.75h-1.36v-1.532h1.36v-.562q0-1.297.75-1.938.75-.64 2.015-.64m4.407 0v1.86h-2.266V418zm0 3.14v8.282h-2.266v-8.282zm5.75-.218q1.609 0 2.703.828t1.187 2.312h-2.219q-.109-.719-.53-1.062-.423-.36-1.157-.36-.906 0-1.422.75-.5.75-.5 1.938t.5 1.906q.5.703 1.375.703.766 0 1.234-.437.47-.438.579-1.25h2.187q-.219 1.64-1.281 2.531-1.047.875-2.703.875-1.844 0-3.016-1.188-1.156-1.187-1.156-3.062 0-2.016 1.14-3.25 1.157-1.234 3.079-1.234m9.03 0q1.829 0 2.72.609.906.594.906 1.687v4.438q0 .5.062 1 .063.5.219.766h-2.297q-.062-.188-.11-.391-.046-.203-.062-.406-.468.5-1.187.765-.703.266-1.594.266-1.281 0-2.047-.64-.765-.657-.765-1.86 0-1.156.718-1.766.719-.61 2.625-.828 1.313-.125 1.735-.312.422-.203.422-.703 0-.547-.329-.829-.312-.28-1.125-.28-.703 0-1.078.312-.375.297-.437.937h-2.281q.093-1.36 1.125-2.062 1.03-.703 2.78-.703m-1.89 6.14q0 .5.328.781.344.282 1.078.282.907 0 1.36-.469.469-.484.469-1.406v-.875q-.204.156-.532.25-.328.078-1.203.203-.765.094-1.14.406-.36.297-.36.828m10.156-8.39v2.468h1.657v1.532H217.4v4.14q0 .516.188.719.187.187.766.187.203 0 .375-.015.187-.016.328-.047v1.781q-.282.047-.625.063-.344.015-.688.015-1.469 0-2.047-.5-.578-.515-.578-1.422v-4.921h-1.375v-1.532h1.375v-2.468zm6.493 2.25q1.843 0 2.937 1.265 1.094 1.266 1.094 3.219l-.016.422h-5.969q.047 1.078.563 1.594.516.515 1.469.515.61 0 1.125-.312.531-.328.672-.766h2q-.454 1.406-1.422 2.11-.953.687-2.453.687-1.907 0-3.063-1.219t-1.156-3.14q0-1.86 1.172-3.11 1.187-1.265 3.047-1.265m-1.954 3.468h3.704q-.172-.906-.594-1.328t-1.235-.422q-.828 0-1.312.47-.484.468-.563 1.28m-96.195 12.329q-.86 1.593-1.312 3.453-.438 1.843-.438 3.796 0 1.97.406 3.797.422 1.828 1.313 3.578h-1.875q-1.047-1.718-1.594-3.578-.531-1.86-.531-3.64 0-1.86.547-3.875.547-2.016 1.578-3.532zm4.703 3.203q1.61 0 2.703.828 1.094.828 1.188 2.312h-2.219q-.11-.719-.531-1.062-.422-.36-1.156-.36-.907 0-1.422.75-.5.75-.5 1.938t.5 1.906q.5.703 1.375.703.765 0 1.234-.437.469-.438.578-1.25h2.188q-.219 1.64-1.281 2.531-1.047.875-2.704.875-1.843 0-3.015-1.188-1.156-1.187-1.156-3.062 0-2.016 1.14-3.25 1.156-1.234 3.078-1.234m7.563-2.922v11.422h-2.266V437zm4.125 0v1.86h-2.266V437zm0 3.14v8.282h-2.266v-8.282zm5.61-.218q1.843 0 2.937 1.265 1.093 1.266 1.093 3.219l-.015.422h-5.969q.047 1.078.563 1.594.515.515 1.468.515.61 0 1.125-.312.532-.328.672-.766h2q-.453 1.406-1.422 2.11-.953.687-2.453.687-1.906 0-3.062-1.219-1.157-1.219-1.157-3.14 0-1.86 1.172-3.11 1.188-1.265 3.047-1.265m-1.954 3.468h3.703q-.172-.906-.594-1.328-.421-.422-1.234-.422-.828 0-1.312.47-.485.468-.563 1.28m12.063-3.468q1.593 0 2.296.812.72.797.72 2.516v5.172h-2.266v-4.75q0-.97-.344-1.454-.328-.5-1.11-.5-.953 0-1.359.563t-.406 1.719v4.422h-2.266v-8.282h2.156v1.157h.047q.407-.657 1.063-1.016.672-.36 1.469-.36m7.625-2.25v2.468h1.656v1.532h-1.656v4.14q0 .516.187.719.188.187.766.187.203 0 .375-.015.187-.016.328-.047v1.781q-.281.047-.625.063-.344.015-.688.015-1.468 0-2.047-.5-.578-.515-.578-1.422v-4.921h-1.375v-1.532h1.375v-2.468zm13.125-.672 4.28 11.406h-2.609l-.859-2.531h-4.281l-.89 2.547h-2.548L176.042 437zm-1.329 2.812L175.791 444h2.969l-1.438-4.188zm9.649.11q.906 0 1.5.343.594.328.969.985h.03v-1.11h2.157v7.813q0 1.672-1.062 2.64-1.047.97-3.204.97-1.468 0-2.515-.704-1.047-.703-1.14-1.953h2.25q.155.594.593.86.437.28 1.094.28.875 0 1.343-.53.485-.532.485-1.47v-1.156h-.031q-.329.61-.985.953-.656.329-1.5.329-1.672 0-2.61-1.11-.921-1.11-.921-3.047 0-1.75.969-2.922.984-1.171 2.578-1.171m-1.266 4.062q0 1.172.469 1.828.484.656 1.36.656.906 0 1.421-.656.516-.656.516-1.64 0-1.22-.5-1.875-.485-.657-1.438-.657-.843 0-1.343.64-.485.642-.485 1.704m11.57-4.062q1.844 0 2.938 1.265 1.094 1.266 1.094 3.219l-.016.422h-5.969q.047 1.078.563 1.594.516.515 1.469.515.609 0 1.125-.312.53-.328.672-.766h2q-.454 1.406-1.422 2.11-.953.687-2.453.687-1.907 0-3.063-1.219t-1.156-3.14q0-1.86 1.172-3.11 1.187-1.265 3.047-1.265m-1.953 3.468h3.704q-.172-.906-.594-1.328t-1.235-.422q-.828 0-1.312.47-.484.468-.563 1.28m12.063-3.468q1.594 0 2.297.812.719.797.719 2.516v5.172h-2.266v-4.75q0-.97-.344-1.454-.328-.5-1.11-.5-.952 0-1.359.563-.406.562-.406 1.719v4.422h-2.265v-8.282h2.156v1.157h.047q.406-.657 1.062-1.016.672-.36 1.469-.36m7.625-2.25v2.468h1.656v1.532h-1.656v4.14q0 .516.187.719.188.187.766.187.203 0 .375-.015.188-.016.328-.047v1.781q-.281.047-.625.063-.344.015-.687.015-1.47 0-2.047-.5-.578-.515-.578-1.422v-4.921h-1.375v-1.532h1.375v-2.468zm3.68-.954q1.03 1.704 1.562 3.563.547 1.844.547 3.656 0 1.828-.547 3.875-.531 2.031-1.562 3.516h-1.907q.875-1.656 1.313-3.485t.437-3.75q0-1.984-.437-3.828-.422-1.86-1.297-3.547z"/>
    <path fill="#dc477d" fill-rule="evenodd" d="M305.93 411.69c0-.694.563-1.257 1.258-1.257h186.146a1.257 1.257 0 0 1 1.258 1.257v42.745c0 .695-.563 1.257-1.258 1.257H307.188a1.257 1.257 0 0 1-1.258-1.257z"/>
    <path fill="#fff" d="M346.726 418v9.313h5.562v2.11h-8.078V418zm10.258 2.923q1.843 0 2.937 1.265 1.094 1.266 1.094 3.219l-.016.422h-5.968q.046 1.078.562 1.594.516.515 1.469.515.61 0 1.125-.312.531-.328.672-.766h2q-.453 1.406-1.422 2.11-.953.687-2.453.687-1.907 0-3.063-1.219t-1.156-3.14q0-1.86 1.172-3.11 1.187-1.265 3.047-1.265m-1.953 3.468h3.703q-.172-.906-.594-1.328t-1.234-.422q-.829 0-1.313.47-.484.468-.562 1.28m11.125-3.468q1.828 0 2.718.609.907.594.907 1.687v4.438q0 .5.062 1 .063.5.219.766h-2.297q-.063-.188-.11-.391-.046-.203-.062-.406-.469.5-1.187.765-.704.266-1.594.266-1.281 0-2.047-.64-.766-.657-.766-1.86 0-1.156.719-1.766t2.625-.828q1.313-.125 1.734-.312.422-.203.422-.703 0-.547-.328-.829-.312-.28-1.125-.28-.703 0-1.078.312-.375.297-.437.937h-2.282q.094-1.36 1.125-2.062 1.032-.703 2.782-.703m-1.891 6.14q0 .5.328.781.344.282 1.078.282.906 0 1.36-.469.468-.484.468-1.406v-.875q-.203.156-.531.25-.328.078-1.203.203-.766.094-1.14.406-.36.297-.36.828m10.531-9.062q.235 0 .625.031.39.016.578.031v1.688l-.437-.032q-.203-.015-.375-.015-.485 0-.688.219-.187.203-.187.843v.375h1.562v1.532h-1.562v6.75h-2.281v-6.75h-1.36v-1.532h1.36v-.562q0-1.297.75-1.938.75-.64 2.015-.64m10.477 2.922q1.61 0 2.703.828 1.094.828 1.187 2.312h-2.218q-.11-.719-.532-1.062-.422-.36-1.156-.36-.906 0-1.422.75-.5.75-.5 1.938t.5 1.906q.5.703 1.375.703.766 0 1.235-.437.468-.438.578-1.25h2.187q-.219 1.64-1.281 2.531-1.047.875-2.703.875-1.844 0-3.016-1.188-1.156-1.187-1.156-3.062 0-2.016 1.14-3.25 1.157-1.234 3.079-1.234m9.047 0q1.843 0 2.937 1.265 1.094 1.266 1.094 3.219l-.016.422h-5.969q.047 1.078.563 1.594.516.515 1.469.515.61 0 1.125-.312.531-.328.672-.766h2q-.454 1.406-1.422 2.11-.953.687-2.453.687-1.907 0-3.063-1.219t-1.156-3.14q0-1.86 1.172-3.11 1.187-1.265 3.047-1.265m-1.954 3.468h3.704q-.172-.906-.594-1.328t-1.235-.422q-.828 0-1.312.47-.484.468-.563 1.28m12.141-3.468q.156 0 .281.03.125.016.235.048v2.11q-.203-.032-.39-.048-.173-.031-.423-.031-1.156 0-1.703.703t-.547 1.89v3.798h-2.265v-8.282h2.156v1.547h.031q.36-.812 1.063-1.281.718-.484 1.562-.484m4.336-2.25v2.468h1.656v1.532h-1.656v4.14q0 .516.188.719.187.187.765.187.203 0 .375-.015.188-.016.328-.047v1.781q-.281.047-.625.063-.343.015-.687.015-1.469 0-2.047-.5-.578-.515-.578-1.422v-4.921h-1.375v-1.532h1.375v-2.468zm5.086-.672v1.86h-2.266V418zm0 3.14v8.282h-2.266v-8.282zm5.047-3.14q.234 0 .625.031.39.016.578.031v1.688l-.438-.032q-.203-.015-.375-.015-.484 0-.687.219-.188.203-.188.843v.375h1.563v1.532h-1.563v6.75h-2.28v-6.75h-1.36v-1.532h1.36v-.562q0-1.297.75-1.938.75-.64 2.015-.64m4.406 0v1.86h-2.266V418zm0 3.14v8.282h-2.266v-8.282zm5.75-.218q1.61 0 2.703.828 1.094.828 1.188 2.312h-2.219q-.11-.719-.531-1.062-.422-.36-1.157-.36-.906 0-1.421.75-.5.75-.5 1.938t.5 1.906q.5.703 1.375.703.765 0 1.234-.437.469-.438.578-1.25h2.188q-.22 1.64-1.282 2.531-1.047.875-2.703.875-1.844 0-3.015-1.188-1.157-1.187-1.157-3.062 0-2.016 1.141-3.25 1.156-1.234 3.078-1.234m9.031 0q1.828 0 2.72.609.905.594.905 1.687v4.438q0 .5.063 1 .062.5.219.766h-2.297q-.063-.188-.11-.391t-.062-.406q-.469.5-1.188.765-.703.266-1.593.266-1.282 0-2.047-.64-.766-.657-.766-1.86 0-1.156.719-1.766t2.625-.828q1.312-.125 1.734-.312.422-.203.422-.703 0-.547-.328-.829-.313-.28-1.125-.28-.703 0-1.078.312-.375.297-.438.937h-2.28q.093-1.36 1.124-2.062 1.031-.703 2.781-.703m-1.89 6.14q0 .5.328.781.344.282 1.078.282.906 0 1.36-.469.468-.484.468-1.406v-.875q-.203.156-.531.25-.328.078-1.203.203-.766.094-1.14.406-.36.297-.36.828m10.156-8.39v2.468h1.656v1.532h-1.656v4.14q0 .516.187.719.188.187.766.187.203 0 .375-.015.188-.016.328-.047v1.781q-.281.047-.625.063-.344.015-.687.015-1.469 0-2.047-.5-.578-.515-.578-1.422v-4.921h-1.375v-1.532h1.375v-2.468zm6.492 2.25q1.844 0 2.938 1.265 1.093 1.266 1.093 3.219l-.015.422h-5.969q.047 1.078.563 1.594.515.515 1.468.515.61 0 1.125-.312.532-.328.672-.766h2q-.453 1.406-1.422 2.11-.953.687-2.453.687-1.906 0-3.062-1.219-1.157-1.219-1.157-3.14 0-1.86 1.172-3.11 1.188-1.265 3.047-1.265m-1.953 3.468h3.703q-.172-.906-.594-1.328-.421-.422-1.234-.422-.828 0-1.312.47-.485.468-.563 1.28M371.98 436.72q-.86 1.593-1.313 3.453-.437 1.843-.437 3.796 0 1.97.406 3.797.422 1.828 1.312 3.578h-1.875q-1.046-1.718-1.593-3.578-.532-1.86-.532-3.64 0-1.86.547-3.875.547-2.016 1.578-3.532zm4.922 0q2.062 0 3.312.968 1.25.953 1.25 2.719h-2.422q-.062-.86-.594-1.297-.53-.437-1.656-.437-.765 0-1.25.343-.484.328-.484.953 0 .438.203.657.203.203.828.437.625.219 2.75.719 1.422.344 2.219 1.172.797.812.797 2.078 0 1.656-1.25 2.672-1.235 1-3.5 1-2.157 0-3.516-1.063-1.36-1.078-1.36-2.953v-.062h2.438q.016 1.062.703 1.593.703.516 1.828.516 1.016 0 1.61-.36.61-.374.61-1.062 0-.547-.47-.906-.453-.36-1.484-.61-1.312-.296-2.39-.624-1.063-.344-1.766-1.079-.688-.75-.688-1.921 0-1.532 1.22-2.485 1.233-.969 3.062-.969m10.023 3.203q1.844 0 2.938 1.265 1.093 1.266 1.093 3.219l-.015.422h-5.97q.048 1.078.563 1.594.516.515 1.47.515.609 0 1.124-.312.531-.328.672-.766h2q-.453 1.406-1.422 2.11-.953.687-2.453.687-1.906 0-3.062-1.219-1.157-1.219-1.157-3.14 0-1.86 1.172-3.11 1.188-1.265 3.047-1.265m-1.953 3.468h3.703q-.172-.906-.594-1.328t-1.234-.422q-.828 0-1.313.47-.484.468-.562 1.28m12.14-3.468q.157 0 .282.03.125.016.234.048v2.11q-.203-.032-.39-.048-.172-.031-.422-.031-1.157 0-1.703.703-.547.703-.547 1.89v3.798H392.3v-8.282h2.156v1.547h.032q.359-.812 1.062-1.281.719-.484 1.563-.484m3.204.218 1.75 5.657h.03l1.735-5.657h2.266l-2.813 8.282h-2.515l-2.844-8.282zm9.054-3.14v1.86h-2.265V437zm0 3.14v8.282h-2.265v-8.282zm5.75-.218q1.61 0 2.703.828 1.094.828 1.188 2.312h-2.219q-.11-.719-.531-1.062-.422-.36-1.156-.36-.907 0-1.422.75-.5.75-.5 1.938t.5 1.906q.5.703 1.375.703.765 0 1.234-.437.469-.438.578-1.25h2.188q-.219 1.64-1.281 2.531-1.047.875-2.704.875-1.843 0-3.015-1.188-1.156-1.187-1.156-3.062 0-2.016 1.14-3.25 1.156-1.234 3.078-1.234m9.047 0q1.844 0 2.938 1.265 1.093 1.266 1.093 3.219l-.015.422h-5.969q.047 1.078.563 1.594.515.515 1.468.515.61 0 1.125-.312.532-.328.672-.766h2q-.453 1.406-1.422 2.11-.953.687-2.453.687-1.906 0-3.062-1.219-1.157-1.219-1.157-3.14 0-1.86 1.172-3.11 1.188-1.265 3.047-1.265m-1.953 3.468h3.703q-.172-.906-.594-1.328-.421-.422-1.234-.422-.828 0-1.312.47-.485.468-.563 1.28m8.25-6.672q1.031 1.704 1.563 3.563.546 1.844.546 3.656 0 1.828-.546 3.875-.532 2.031-1.563 3.516h-1.906q.875-1.656 1.312-3.485t.438-3.75q0-1.984-.438-3.828-.422-1.86-1.297-3.547z"/>
    <path fill="#dc477d" fill-rule="evenodd" d="M517.256 411.69c0-.694.563-1.257 1.257-1.257H704.66a1.257 1.257 0 0 1 1.257 1.257v42.745c0 .695-.563 1.257-1.257 1.257H518.513a1.257 1.257 0 0 1-1.257-1.257z"/>
    <path fill="#fff" d="M558.051 418v9.313h5.563v2.11h-8.078V418zm10.258 2.923q1.844 0 2.938 1.265 1.093 1.266 1.093 3.219l-.015.422h-5.969q.047 1.078.562 1.594.516.515 1.47.515.609 0 1.124-.312.531-.328.672-.766h2q-.453 1.406-1.422 2.11-.953.687-2.453.687-1.906 0-3.062-1.219-1.157-1.219-1.157-3.14 0-1.86 1.172-3.11 1.188-1.265 3.047-1.265m-1.953 3.468h3.703q-.172-.906-.594-1.328t-1.234-.422q-.828 0-1.313.47-.484.468-.562 1.28m11.125-3.468q1.828 0 2.719.609.906.594.906 1.687v4.438q0 .5.062 1 .063.5.22.766h-2.298q-.062-.188-.109-.391t-.063-.406q-.468.5-1.187.765-.703.266-1.594.266-1.281 0-2.047-.64-.765-.657-.765-1.86 0-1.156.718-1.766.72-.61 2.625-.828 1.313-.125 1.735-.312.422-.203.422-.703 0-.547-.328-.829-.313-.28-1.125-.28-.704 0-1.079.312-.375.297-.437.937h-2.281q.093-1.36 1.125-2.062 1.031-.703 2.781-.703m-1.89 6.14q0 .5.327.781.344.282 1.079.282.906 0 1.359-.469.469-.484.469-1.406v-.875q-.203.156-.532.25-.328.078-1.203.203-.765.094-1.14.406-.36.297-.36.828m10.53-9.062q.235 0 .626.031.39.016.578.031v1.688l-.438-.032q-.203-.015-.375-.015-.484 0-.687.219-.188.203-.188.843v.375h1.563v1.532h-1.563v6.75h-2.281v-6.75h-1.36v-1.532h1.36v-.562q0-1.297.75-1.938.75-.64 2.016-.64m10.477 2.922q1.61 0 2.703.828 1.094.828 1.188 2.312h-2.219q-.11-.719-.531-1.062-.422-.36-1.156-.36-.907 0-1.422.75-.5.75-.5 1.938t.5 1.906q.5.703 1.375.703.765 0 1.234-.437.469-.438.578-1.25h2.188q-.22 1.64-1.282 2.531-1.046.875-2.703.875-1.843 0-3.015-1.188-1.157-1.187-1.157-3.062 0-2.016 1.141-3.25 1.156-1.234 3.078-1.234m9.047 0q1.844 0 2.938 1.265 1.093 1.266 1.093 3.219l-.015.422h-5.97q.048 1.078.563 1.594.516.515 1.47.515.609 0 1.124-.312.531-.328.672-.766h2q-.453 1.406-1.422 2.11-.953.687-2.453.687-1.906 0-3.062-1.219-1.157-1.219-1.157-3.14 0-1.86 1.172-3.11 1.188-1.265 3.047-1.265m-1.953 3.468h3.703q-.172-.906-.594-1.328t-1.234-.422q-.828 0-1.313.47-.484.468-.562 1.28m12.14-3.468q.157 0 .282.03.125.016.234.048v2.11q-.203-.032-.39-.048-.172-.031-.422-.031-1.157 0-1.703.703-.547.703-.547 1.89v3.798h-2.266v-8.282h2.156v1.547h.032q.359-.812 1.062-1.281.719-.484 1.563-.484m4.336-2.25v2.468h1.657v1.532h-1.657v4.14q0 .516.188.719.187.187.766.187.203 0 .375-.015.187-.016.328-.047v1.781q-.282.047-.625.063-.344.015-.688.015-1.469 0-2.047-.5-.578-.515-.578-1.422v-4.921h-1.375v-1.532h1.375v-2.468zm5.086-.672v1.86h-2.265V418zm0 3.14v8.282h-2.265v-8.282zm5.047-3.14q.235 0 .625.031.39.016.578.031v1.688l-.437-.032q-.203-.015-.375-.015-.484 0-.688.219-.187.203-.187.843v.375h1.562v1.532h-1.562v6.75h-2.281v-6.75h-1.36v-1.532h1.36v-.562q0-1.297.75-1.938.75-.64 2.015-.64m4.407 0v1.86h-2.266V418zm0 3.14v8.282h-2.266v-8.282zm5.75-.218q1.609 0 2.703.828t1.187 2.312h-2.219q-.109-.719-.53-1.062-.423-.36-1.157-.36-.906 0-1.422.75-.5.75-.5 1.938t.5 1.906q.5.703 1.375.703.766 0 1.234-.437.47-.438.579-1.25h2.187q-.219 1.64-1.281 2.531-1.047.875-2.703.875-1.844 0-3.016-1.188-1.156-1.187-1.156-3.062 0-2.016 1.14-3.25 1.157-1.234 3.079-1.234m9.03 0q1.829 0 2.72.609.906.594.906 1.687v4.438q0 .5.062 1 .063.5.219.766h-2.297q-.062-.188-.11-.391-.046-.203-.062-.406-.468.5-1.187.765-.703.266-1.594.266-1.281 0-2.047-.64-.765-.657-.765-1.86 0-1.156.718-1.766.719-.61 2.625-.828 1.313-.125 1.735-.312.422-.203.422-.703 0-.547-.329-.829-.312-.28-1.125-.28-.703 0-1.078.312-.375.297-.437.937h-2.281q.093-1.36 1.125-2.062 1.03-.703 2.78-.703m-1.89 6.14q0 .5.328.781.344.282 1.078.282.907 0 1.36-.469.469-.484.469-1.406v-.875q-.204.156-.532.25-.328.078-1.203.203-.765.094-1.14.406-.36.297-.36.828m10.156-8.39v2.468h1.657v1.532h-1.657v4.14q0 .516.188.719.187.187.766.187.203 0 .375-.015.187-.016.328-.047v1.781q-.282.047-.625.063-.344.015-.688.015-1.469 0-2.047-.5-.578-.515-.578-1.422v-4.921h-1.375v-1.532h1.375v-2.468zm6.493 2.25q1.843 0 2.937 1.265 1.094 1.266 1.094 3.219l-.016.422h-5.969q.047 1.078.563 1.594.516.515 1.469.515.61 0 1.125-.312.531-.328.672-.766h2q-.454 1.406-1.422 2.11-.953.687-2.453.687-1.907 0-3.063-1.219t-1.156-3.14q0-1.86 1.172-3.11 1.187-1.265 3.047-1.265m-1.954 3.468h3.704q-.172-.906-.594-1.328t-1.235-.422q-.828 0-1.312.47-.484.468-.563 1.28m-96.196 12.329q-.86 1.593-1.312 3.453-.438 1.843-.438 3.796 0 1.97.406 3.797.422 1.828 1.313 3.578h-1.875q-1.047-1.718-1.594-3.578-.531-1.86-.531-3.64 0-1.86.547-3.875.547-2.016 1.578-3.532zm4.703 3.203q1.61 0 2.703.828 1.094.828 1.188 2.312h-2.219q-.11-.719-.531-1.062-.422-.36-1.156-.36-.907 0-1.422.75-.5.75-.5 1.938t.5 1.906q.5.703 1.375.703.765 0 1.234-.437.469-.438.578-1.25h2.188q-.219 1.64-1.281 2.531-1.047.875-2.704.875-1.843 0-3.015-1.188-1.156-1.187-1.156-3.062 0-2.016 1.14-3.25 1.156-1.234 3.078-1.234m7.563-2.922v11.422h-2.266V437zm4.125 0v1.86h-2.266V437zm0 3.14v8.282h-2.266v-8.282zm5.61-.218q1.843 0 2.937 1.265 1.093 1.266 1.093 3.219l-.015.422h-5.969q.047 1.078.563 1.594.515.515 1.468.515.61 0 1.125-.312.532-.328.672-.766h2q-.453 1.406-1.422 2.11-.953.687-2.453.687-1.906 0-3.062-1.219-1.157-1.219-1.157-3.14 0-1.86 1.172-3.11 1.188-1.265 3.047-1.265m-1.954 3.468h3.703q-.172-.906-.594-1.328-.421-.422-1.234-.422-.828 0-1.312.47-.485.468-.563 1.28m12.063-3.468q1.593 0 2.296.812.72.797.72 2.516v5.172h-2.266v-4.75q0-.97-.344-1.454-.328-.5-1.11-.5-.953 0-1.359.563t-.406 1.719v4.422h-2.266v-8.282h2.156v1.157h.047q.407-.657 1.063-1.016.672-.36 1.469-.36m7.625-2.25v2.468h1.656v1.532h-1.656v4.14q0 .516.187.719.188.187.766.187.203 0 .375-.015.187-.016.328-.047v1.781q-.281.047-.625.063-.344.015-.688.015-1.468 0-2.047-.5-.578-.515-.578-1.422v-4.921h-1.375v-1.532h1.375v-2.468zm13.125-.672 4.28 11.406h-2.609l-.859-2.531h-4.281l-.89 2.547h-2.548L616.395 437zm-1.329 2.812L616.144 444h2.969l-1.438-4.188zm9.649.11q.906 0 1.5.343.594.328.969.985h.03v-1.11h2.157v7.813q0 1.672-1.062 2.64-1.047.97-3.204.97-1.468 0-2.515-.704-1.047-.703-1.14-1.953h2.25q.155.594.593.86.437.28 1.094.28.875 0 1.343-.53.485-.532.485-1.47v-1.156h-.031q-.329.61-.985.953-.656.329-1.5.329-1.672 0-2.61-1.11-.921-1.11-.921-3.047 0-1.75.969-2.922.984-1.171 2.578-1.171m-1.266 4.062q0 1.172.469 1.828.484.656 1.36.656.906 0 1.421-.656.516-.656.516-1.64 0-1.22-.5-1.875-.485-.657-1.438-.657-.843 0-1.343.64-.485.642-.485 1.704m11.57-4.062q1.844 0 2.938 1.265 1.094 1.266 1.094 3.219l-.016.422h-5.969q.047 1.078.563 1.594.516.515 1.469.515.609 0 1.125-.312.53-.328.672-.766h2q-.454 1.406-1.422 2.11-.953.687-2.453.687-1.907 0-3.063-1.219t-1.156-3.14q0-1.86 1.172-3.11 1.187-1.265 3.047-1.265m-1.953 3.468h3.704q-.172-.906-.594-1.328t-1.235-.422q-.828 0-1.312.47-.484.468-.563 1.28m12.063-3.468q1.594 0 2.297.812.719.797.719 2.516v5.172h-2.266v-4.75q0-.97-.344-1.454-.328-.5-1.11-.5-.952 0-1.359.563-.406.562-.406 1.719v4.422h-2.265v-8.282h2.156v1.157h.047q.406-.657 1.062-1.016.672-.36 1.469-.36m7.625-2.25v2.468h1.656v1.532h-1.656v4.14q0 .516.187.719.188.187.766.187.203 0 .375-.015.188-.016.328-.047v1.781q-.281.047-.625.063-.344.015-.687.015-1.47 0-2.047-.5-.578-.515-.578-1.422v-4.921h-1.375v-1.532h1.375v-2.468zm3.68-.954q1.03 1.704 1.562 3.563.547 1.844.547 3.656 0 1.828-.547 3.875-.531 2.031-1.562 3.516h-1.907q.875-1.656 1.313-3.485t.437-3.75q0-1.984-.437-3.828-.422-1.86-1.297-3.547z"/>
    <path fill="#dc477d" fill-rule="evenodd" d="M750.06 411.69c0-.694.563-1.257 1.258-1.257h186.146a1.257 1.257 0 0 1 1.258 1.257v42.745c0 .695-.563 1.257-1.258 1.257H751.318a1.257 1.257 0 0 1-1.258-1.257z"/>
    <path fill="#fff" d="M790.856 418v9.313h5.562v2.11h-8.078V418zm10.258 2.923q1.843 0 2.937 1.265 1.094 1.266 1.094 3.219l-.016.422h-5.969q.047 1.078.563 1.594.516.515 1.469.515.609 0 1.125-.312.53-.328.672-.766h2q-.454 1.406-1.422 2.11-.953.687-2.453.687-1.907 0-3.063-1.219t-1.156-3.14q0-1.86 1.172-3.11 1.187-1.265 3.047-1.265m-1.954 3.468h3.704q-.172-.906-.594-1.328t-1.235-.422q-.828 0-1.312.47-.484.468-.563 1.28m11.125-3.468q1.829 0 2.72.609.905.594.905 1.687v4.438q0 .5.063 1 .062.5.219.766h-2.297q-.063-.188-.11-.391-.046-.203-.062-.406-.469.5-1.188.765-.703.266-1.593.266-1.282 0-2.047-.64-.766-.657-.766-1.86 0-1.156.719-1.766t2.625-.828q1.312-.125 1.734-.312.422-.203.422-.703 0-.547-.328-.829-.312-.28-1.125-.28-.703 0-1.078.312-.375.297-.438.937h-2.28q.093-1.36 1.124-2.062 1.031-.703 2.781-.703m-1.89 6.14q0 .5.328.781.344.282 1.078.282.906 0 1.36-.469.468-.484.468-1.406v-.875q-.203.156-.531.25-.328.078-1.203.203-.766.094-1.14.406-.36.297-.36.828m10.531-9.062q.234 0 .625.031.39.016.578.031v1.688l-.437-.032q-.203-.015-.375-.015-.485 0-.688.219-.187.203-.187.843v.375h1.562v1.532h-1.562v6.75h-2.282v-6.75h-1.359v-1.532h1.36v-.562q0-1.297.75-1.938.75-.64 2.015-.64m10.477 2.922q1.609 0 2.703.828t1.187 2.312h-2.219q-.109-.719-.53-1.062-.423-.36-1.157-.36-.906 0-1.422.75-.5.75-.5 1.938t.5 1.906q.5.703 1.375.703.766 0 1.234-.437.47-.438.579-1.25h2.187q-.219 1.64-1.281 2.531-1.047.875-2.703.875-1.844 0-3.016-1.188-1.156-1.187-1.156-3.062 0-2.016 1.14-3.25 1.157-1.234 3.079-1.234m9.046 0q1.844 0 2.938 1.265 1.094 1.266 1.094 3.219l-.016.422h-5.969q.047 1.078.563 1.594.515.515 1.469.515.609 0 1.125-.312.53-.328.671-.766h2q-.453 1.406-1.421 2.11-.954.687-2.454.687-1.906 0-3.062-1.219t-1.156-3.14q0-1.86 1.172-3.11 1.187-1.265 3.046-1.265m-1.953 3.468h3.703q-.171-.906-.593-1.328t-1.235-.422q-.828 0-1.312.47-.485.468-.563 1.28m12.14-3.468q.157 0 .282.03.125.016.235.048v2.11q-.204-.032-.391-.048-.172-.031-.422-.031-1.156 0-1.703.703t-.547 1.89v3.798h-2.266v-8.282h2.157v1.547h.03q.36-.812 1.063-1.281.72-.484 1.563-.484m4.337-2.25v2.468h1.656v1.532h-1.656v4.14q0 .516.187.719.188.187.766.187.203 0 .375-.015.188-.016.328-.047v1.781q-.281.047-.625.063-.344.015-.687.015-1.47 0-2.047-.5-.578-.515-.578-1.422v-4.921h-1.375v-1.532h1.375v-2.468zm5.086-.672v1.86h-2.266V418zm0 3.14v8.282h-2.266v-8.282zm5.047-3.14q.234 0 .625.031.39.016.578.031v1.688l-.438-.032q-.203-.015-.375-.015-.484 0-.687.219-.188.203-.188.843v.375h1.563v1.532h-1.563v6.75h-2.28v-6.75h-1.36v-1.532h1.36v-.562q0-1.297.75-1.938.75-.64 2.015-.64m4.406 0v1.86h-2.266V418zm0 3.14v8.282h-2.266v-8.282zm5.75-.218q1.61 0 2.703.828 1.094.828 1.188 2.312h-2.22q-.109-.719-.53-1.062-.422-.36-1.157-.36-.906 0-1.422.75-.5.75-.5 1.938t.5 1.906q.5.703 1.375.703.766 0 1.235-.437.469-.438.578-1.25h2.187q-.218 1.64-1.28 2.531-1.048.875-2.704.875-1.844 0-3.016-1.188-1.156-1.187-1.156-3.062 0-2.016 1.14-3.25 1.157-1.234 3.079-1.234m9.031 0q1.828 0 2.719.609.906.594.906 1.687v4.438q0 .5.063 1 .062.5.219.766h-2.297q-.063-.188-.11-.391t-.062-.406q-.469.5-1.188.765-.703.266-1.593.266-1.282 0-2.047-.64-.766-.657-.766-1.86 0-1.156.719-1.766t2.625-.828q1.312-.125 1.734-.312.422-.203.422-.703 0-.547-.328-.829-.313-.28-1.125-.28-.703 0-1.078.312-.375.297-.438.937h-2.281q.094-1.36 1.125-2.062 1.031-.703 2.781-.703m-1.89 6.14q0 .5.328.781.344.282 1.078.282.906 0 1.36-.469.468-.484.468-1.406v-.875q-.203.156-.531.25-.328.078-1.203.203-.766.094-1.141.406-.36.297-.36.828m10.156-8.39v2.468h1.656v1.532h-1.656v4.14q0 .516.187.719.188.187.766.187.203 0 .375-.015.188-.016.328-.047v1.781q-.281.047-.625.063-.344.015-.687.015-1.47 0-2.047-.5-.578-.515-.578-1.422v-4.921h-1.375v-1.532h1.375v-2.468zm6.492 2.25q1.844 0 2.938 1.265 1.093 1.266 1.093 3.219l-.015.422h-5.97q.048 1.078.563 1.594.516.515 1.47.515.609 0 1.124-.312.531-.328.672-.766h2q-.453 1.406-1.422 2.11-.953.687-2.453.687-1.906 0-3.062-1.219-1.157-1.219-1.157-3.14 0-1.86 1.172-3.11 1.188-1.265 3.047-1.265m-1.953 3.468h3.703q-.172-.906-.594-1.328t-1.234-.422q-.828 0-1.313.47-.484.468-.562 1.28M816.11 436.72q-.86 1.593-1.313 3.453-.437 1.843-.437 3.796 0 1.97.406 3.797.422 1.828 1.312 3.578h-1.875q-1.047-1.718-1.593-3.578-.532-1.86-.532-3.64 0-1.86.547-3.875.547-2.016 1.578-3.532zm4.921 0q2.063 0 3.313.968 1.25.953 1.25 2.719h-2.422q-.062-.86-.594-1.297-.53-.437-1.656-.437-.766 0-1.25.343-.484.328-.484.953 0 .438.203.657.203.203.828.437.625.219 2.75.719 1.422.344 2.219 1.172.797.812.797 2.078 0 1.656-1.25 2.672-1.235 1-3.5 1-2.157 0-3.516-1.063-1.36-1.078-1.36-2.953v-.062h2.438q.016 1.062.703 1.593.703.516 1.828.516 1.016 0 1.61-.36.61-.374.61-1.062 0-.547-.47-.906-.453-.36-1.484-.61-1.313-.296-2.39-.624-1.063-.344-1.766-1.079-.688-.75-.688-1.921 0-1.532 1.219-2.485 1.234-.969 3.062-.969m10.024 3.203q1.844 0 2.937 1.265 1.094 1.266 1.094 3.219l-.015.422h-5.97q.048 1.078.563 1.594.516.515 1.469.515.61 0 1.125-.312.531-.328.672-.766h2q-.453 1.406-1.422 2.11-.953.687-2.453.687-1.906 0-3.063-1.219-1.156-1.219-1.156-3.14 0-1.86 1.172-3.11 1.188-1.265 3.047-1.265m-1.953 3.468h3.703q-.172-.906-.594-1.328t-1.234-.422q-.828 0-1.313.47-.484.468-.562 1.28m12.14-3.468q.157 0 .282.03.125.016.234.048v2.11q-.203-.032-.39-.048-.172-.031-.422-.031-1.157 0-1.704.703t-.546 1.89v3.798h-2.266v-8.282h2.156v1.547h.031q.36-.812 1.063-1.281.719-.484 1.562-.484m3.204.218 1.75 5.657h.03l1.735-5.657h2.266l-2.813 8.282H844.9l-2.844-8.282zM853.5 437v1.86h-2.265V437zm0 3.14v8.282h-2.265v-8.282zm5.75-.218q1.61 0 2.703.828 1.094.828 1.188 2.312h-2.219q-.11-.719-.531-1.062-.422-.36-1.156-.36-.907 0-1.422.75-.5.75-.5 1.938t.5 1.906q.5.703 1.375.703.765 0 1.234-.437.469-.438.578-1.25h2.188q-.219 1.64-1.282 2.531-1.046.875-2.703.875-1.843 0-3.015-1.188-1.157-1.187-1.157-3.062 0-2.016 1.141-3.25 1.156-1.234 3.078-1.234m9.047 0q1.844 0 2.938 1.265 1.093 1.266 1.093 3.219l-.015.422h-5.969q.047 1.078.562 1.594.516.515 1.47.515.609 0 1.124-.312.531-.328.672-.766h2q-.453 1.406-1.422 2.11-.953.687-2.453.687-1.906 0-3.062-1.219-1.157-1.219-1.157-3.14 0-1.86 1.172-3.11 1.188-1.265 3.047-1.265m-1.953 3.468h3.703q-.172-.906-.594-1.328t-1.234-.422q-.828 0-1.313.47-.484.468-.562 1.28m8.25-6.672q1.031 1.704 1.562 3.563.547 1.844.547 3.656 0 1.828-.547 3.875-.53 2.031-1.562 3.516h-1.906q.875-1.656 1.312-3.485t.438-3.75q0-1.984-.438-3.828-.422-1.86-1.297-3.547z"/>
    <path d="M273.852 89.18v82.551"/>
    <path stroke="#2a1c73" stroke-dasharray="4 3" stroke-linecap="butt" stroke-linejoin="round" d="M273.852 89.18v76.551"/>
    <path fill="#2a1c73" fill-rule="evenodd" stroke="#2a1c73" stroke-linecap="butt" d="m272.2 165.731 1.652 4.538 1.652-4.538z"/>
    <path d="M273.852 251.345v26.552"/>
    <path stroke="#2a1c73" stroke-dasharray="4 3" stroke-linecap="butt" stroke-linejoin="round" d="M273.852 251.345v20.552"/>
    <path fill="#2a1c73" fill-rule="evenodd" stroke="#2a1c73" stroke-linecap="butt" d="m272.2 271.897 1.652 4.538 1.652-4.538z"/>
    <path d="M394.97 211.534h112.71v106.174h99.794"/>
    <path stroke="#2a1c73" stroke-linecap="butt" stroke-linejoin="round" d="M394.97 211.534h112.71v106.174h93.794"/>
    <path fill="#2a1c73" fill-rule="evenodd" stroke="#2a1c73" stroke-linecap="butt" d="m601.474 319.36 4.538-1.652-4.538-1.652z"/>
    <path d="M273.852 357.51v26.462H171.238v26.452"/>
    <path stroke="#2a1c73" stroke-linecap="butt" stroke-linejoin="round" d="M273.852 357.51v26.462H171.238v20.452"/>
    <path fill="#2a1c73" fill-rule="evenodd" stroke="#2a1c73" stroke-linecap="butt" d="m169.586 404.424 1.652 4.538 1.652-4.538z"/>
    <path d="M273.852 357.51v26.462h126.394v26.452"/>
    <path stroke="#2a1c73" stroke-linecap="butt" stroke-linejoin="round" d="M273.852 357.51v26.462h126.394v20.452"/>
    <path fill="#2a1c73" fill-rule="evenodd" stroke="#2a1c73" stroke-linecap="butt" d="m398.594 404.424 1.652 4.538 1.652-4.538z"/>
    <path d="M728.58 357.51v26.462H611.57v26.452"/>
    <path stroke="#2a1c73" stroke-linecap="butt" stroke-linejoin="round" d="M728.58 357.51v26.462H611.57v20.452"/>
    <path fill="#2a1c73" fill-rule="evenodd" stroke="#2a1c73" stroke-linecap="butt" d="m609.92 404.424 1.651 4.538 1.652-4.538z"/>
    <path d="M728.58 357.51v26.462h115.81v26.452"/>
    <path stroke="#2a1c73" stroke-linecap="butt" stroke-linejoin="round" d="M728.58 357.51v26.462h115.81v20.452"/>
    <path fill="#2a1c73" fill-rule="evenodd" stroke="#2a1c73" stroke-linecap="butt" d="m842.739 404.424 1.651 4.538 1.652-4.538z"/>
  </g>
</svg>
