<svg xmlns="http://www.w3.org/2000/svg" width="21.333" height="21.333" version="1.0" viewBox="0 0 16 16">
  <path d="M2.25.009c0 .008-.012.017-.026.022a.5.5 0 0 0-.13.075.3.3 0 0 1-.05.031 9 9 0 0 0-.489.297 72 72 0 0 0-.852.51 2 2 0 0 1-.156.098c-.167.102-.175.105-.231.136-.028.014-.055.04-.06.06a28 28 0 0 0-.003.789l.005.758.036.078c.02.042.044.092.05.11.006.017.028.065.045.106.019.042.049.115.067.164.018.05.04.097.046.106.008.01.01.022.003.027q-.007.01.008.01.016 0 .015.012a.1.1 0 0 0 .011.043c.006.017.096.232.199.477.101.244.184.453.184.464s.008.02.016.02q.015.001.012.011a.2.2 0 0 0 .017.06l.054.133a.3.3 0 0 0 .047.09c.006.004.01.02.01.033 0 .016.013.052.027.081a29 29 0 0 0 .366.87c.003.018.03.084.054.14a12 12 0 0 1 .163.394c.008.014.056.138.11.275.053.138.107.274.118.3.013.028.08.194.149.368.07.175.134.334.144.356l.02.055c.003.014.047.122.105.258l.026.073.002.023q.001.012.014.013.015.001.015.025c0 .014.01.044.022.066.013.023.049.109.082.19.03.082.064.155.071.164a.1.1 0 0 1 .013.035c0 .01.014.05.031.087a41 41 0 0 1 .357.86c.018.042.034.08.034.083s.014.037.03.073l.086.207c.03.076.064.154.07.171.125.291.155.366.147.374q-.008.009.008.01c.01 0 .018.012.018.028a.1.1 0 0 0 .013.043 1 1 0 0 1 .056.124l.103.25c.033.076.094.222.133.32l.13.308c.01.02.016.036.01.036-.005 0-.004.01.006.019.007.01.034.069.057.13.024.059.055.137.072.172s.086.203.157.375l.147.36c.012.024.043.102.07.171.026.069.062.152.08.185.015.034.03.073.03.087s.006.033.013.042c.008.008.041.077.072.152.032.075.064.156.074.18l.02.05.028.068.027.068c0 .003.018.047.04.095.024.048.043.095.046.105l.03.078c.013.034.032.076.038.094l.035.078.022.054.019.047.064.154c.036.089.057.121.098.146.136.083.18.108.206.118.014.004.027.014.027.022q.002.012.016.014c.009 0 .101.048.204.109.103.06.194.11.202.11q.015.001.016.012c0 .006.023.023.051.036.027.014.114.06.19.106.156.09.238.14.368.21.047.026.09.053.09.06q.008.012.02.013c.007 0 .054.024.104.053.196.114.264.152.291.161.014.005.027.014.027.022q.001.013.014.014c.007 0 .137.072.289.161.151.088.301.172.334.19a.3.3 0 0 1 .066.038l.07.041.07.04a1 1 0 0 0 .126.073 1 1 0 0 1 .112.064l.058.037.06-.036c.078-.05.098-.06.195-.114a1 1 0 0 0 .106-.062 1 1 0 0 1 .094-.055 1 1 0 0 0 .094-.058.1.1 0 0 1 .046-.025.1.1 0 0 0 .032-.014c.01-.013.347-.21.45-.264a1 1 0 0 0 .081-.047 1 1 0 0 1 .078-.049c.04-.02.074-.042.075-.05.003-.006.013-.01.02-.01.012 0 .15-.08.32-.183l.07-.036a.3.3 0 0 0 .066-.043c.015-.014.028-.018.028-.01q.001.01.012-.004c.014-.02.202-.13.224-.13.007 0 .014-.009.014-.017q0-.014.015-.015a1 1 0 0 0 .144-.077l.274-.16a19 19 0 0 1 .339-.198c.139-.076.176-.108.187-.151a.2.2 0 0 0 .008-.049q0-.01.013-.02a1 1 0 0 0 .076-.166 1 1 0 0 1 .074-.165.03.03 0 0 0 .012-.02l.006-.047c.004-.016.011-.035.02-.04a.1.1 0 0 0 .016-.033.3.3 0 0 1 .02-.054l.048-.117.053-.133c.01-.027.036-.086.055-.133l.048-.117c.006-.018.031-.077.053-.133.024-.056.056-.133.074-.172l.036-.086a1 1 0 0 1 .056-.144c.015-.037.03-.07.03-.075 0-.006.012-.039.03-.075l.055-.136.016-.039a14 14 0 0 0 .203-.492.2.2 0 0 0 .017-.04c.002-.009.04-.103.085-.21l.086-.211a.4.4 0 0 1 .02-.055l.096-.235a3 3 0 0 1 .128-.289 3 3 0 0 1 .115-.297.5.5 0 0 0 .038-.106l.047-.108a.6.6 0 0 0 .048-.13c0-.012.008-.023.016-.023q.015-.002.015-.025c0-.013.018-.061.036-.105.02-.045.064-.148.097-.23.053-.137.07-.171.116-.28.008-.023.042-.104.072-.18.031-.079.069-.166.081-.196a.3.3 0 0 0 .025-.075c0-.01.006-.019.014-.019.006 0 .013-.017.013-.037s.004-.04.012-.044c.006-.003.063-.134.127-.294a18 18 0 0 1 .183-.445 1 1 0 0 1 .033-.086c.053-.12.09-.21.092-.222l.006-.02.006-.024c0-.01.01-.022.017-.028.01-.006.018-.022.02-.035a3 3 0 0 1 .1-.257c.013-.035.045-.108.066-.165l.057-.132.045-.11c.016-.044.055-.137.084-.21.058-.138.15-.365.266-.654.038-.092.075-.181.081-.199l.016-.039c.002-.004.017-.042.036-.083a1 1 0 0 0 .044-.114c.004-.02.015-.042.023-.047a.02.02 0 0 0 .006-.023q-.007-.013.008-.014.016-.001.008-.014c-.005-.008-.001-.019.008-.025s.012-.017.008-.025q-.009-.013.008-.014.015-.001.009-.014c-.005-.007.001-.027.014-.042a.1.1 0 0 0 .023-.05c0-.011.014-.049.03-.086.033-.07.136-.32.314-.762l.124-.304c.03-.07.062-.149.142-.344.044-.113.088-.218.094-.235.092-.215.114-.265.117-.28a2 2 0 0 1 .07-.173c.038-.083.06-.148.05-.148a1.5 1.5 0 0 0 .106-.234l.085-.212.002-.728v-.727l-.035-.034c-.02-.02-.036-.032-.036-.027a.5.5 0 0 1-.14-.07c-.03-.018-.232-.132-.465-.26a1 1 0 0 1-.089-.055.1.1 0 0 0-.042-.014c-.016 0-.03-.006-.033-.014a.5.5 0 0 0-.098-.064l-.282-.156-.18-.099-.156-.087a1 1 0 0 0-.086-.049.3.3 0 0 1-.054-.032 1 1 0 0 0-.094-.052 2 2 0 0 1-.188-.103c-.028-.028-.239-.127-.248-.116-.01.014-.03.027-.158.099a1 1 0 0 0-.09.06.08.08 0 0 1-.07.021q-.011 0-.012.016c0 .007-.02.023-.047.03-.025.01-.047.023-.047.029 0 .008-.028.025-.062.04-.035.016-.063.033-.063.04 0 .008-.017.017-.039.022-.022.006-.039.017-.039.025q0 .014-.016.015c-.007 0-.095.049-.195.11-.1.06-.187.11-.195.11q-.015 0-.016.012c0 .007-.028.026-.062.042-.035.015-.063.034-.063.042q-.001.01-.014.012c-.013 0-.064.03-.264.149l-.34.202-.367.22a7 7 0 0 1-.469.274q-.014 0-.015.012c0 .006-.033.028-.074.05a1 1 0 0 0-.09.052 2 2 0 0 1-.26.151q-.013.001-.014.013c0 .006-.019.02-.042.03a.6.6 0 0 0-.145.084l-.07.044-.063.034v.714c.001.646-.002.72-.025.765-.016.026-.024.053-.019.057q.008.009-.008.01c-.01 0-.019.006-.019.015a1 1 0 0 1-.05.12 5 5 0 0 1-.105.231l-.134.29c-.045.099-.104.228-.134.29l-.053.117-.052.112c-.151.32-.269.597-.269.632q0 .02-.015.021c-.008 0-.016.015-.016.03 0 .017-.008.036-.016.04q-.014.011-.007.024.006.013-.008.024c-.008.004-.016.023-.016.04 0 .016-.006.03-.012.03-.008 0-.014.01-.014.019a.3.3 0 0 1-.025.075c-.013.03-.075.178-.136.328l-.13.313a.3.3 0 0 0-.019.054l-.031.079a2 2 0 0 0-.07.17l-.027.066-.028.068a12 12 0 0 0-.145.352c-.036.086-.104.25-.15.366a2 2 0 0 0-.088.23q-.001.02-.013.021c-.007 0-.014.01-.014.02a3 3 0 0 1-.13.327 2 2 0 0 0-.062.152c-.055.14-.07.16-.086.108a1 1 0 0 0-.039-.099l-.094-.218-.095-.222a.7.7 0 0 1-.064-.166q0-.01-.013-.011-.014-.002-.015-.022c0-.01-.033-.094-.072-.183l-.108-.248a.2.2 0 0 0-.023-.047.2.2 0 0 1-.02-.042 2 2 0 0 0-.091-.22c-.016-.037-.03-.07-.03-.073s-.016-.039-.035-.081c-.018-.042-.035-.08-.035-.084l-.096-.216a1 1 0 0 1-.037-.09l-.038-.088-.084-.192-.075-.172-.03-.07c-.006-.02-.04-.1-.069-.162-.015-.036-.06-.136-.095-.222l-.094-.219-.101-.234-.085-.195-.11-.258a2 2 0 0 0-.117-.246q-.014-.01-.006-.012c.011 0-.008-.049-.076-.203-.138-.304-.257-.6-.249-.62.005-.01.002-.021-.008-.021q-.015 0 .002-.03.015-.03 0-.04-.016-.01 0-.038.014-.029-.002-.044c-.012-.012-.01-.026 0-.05q.02-.034.002-.033-.015-.001-.008-.017c.016-.023.019-.123.005-.123-.005 0-.005-.022.003-.047.008-.027.01-.047.003-.047-.014 0-.012-.083.003-.106q.008-.016-.006-.027c-.01-.006-.013-.017-.006-.025.014-.025.015-.123.001-.123-.006 0-.004-.014.005-.03q.015-.03 0-.04-.016-.012 0-.038.014-.03-.002-.044-.016-.018 0-.05.02-.034.002-.033-.015-.002-.008-.017c.014-.02.019-.124.008-.124s-.006-.092.005-.104c.006-.005.003-.019-.007-.03q-.015-.018.002-.03c.036-.022-.024-.07-.253-.203a3 3 0 0 0-.261-.144.3.3 0 0 0-.114-.068c-.025-.01-.044-.024-.044-.03 0-.008-.014-.017-.03-.024a4 4 0 0 1-.256-.14 2 2 0 0 0-.244-.133q-.016 0-.017-.013c0-.006-.027-.025-.058-.042a27 27 0 0 1-.578-.33.2.2 0 0 0-.047-.023.2.2 0 0 1-.05-.031.13.13 0 0 0-.058-.03q-.02-.001-.022-.014c0-.008-.025-.023-.055-.034S3.736.844 3.736.837s-.013-.014-.027-.02a.3.3 0 0 1-.06-.028 2 2 0 0 0-.203-.122c-.004 0-.118-.064-.253-.144a20 20 0 0 0-.386-.22 2 2 0 0 0-.275-.157c0 .007-.012-.001-.027-.014a2 2 0 0 0-.243-.137q-.01.001-.011.014"/>
</svg>
