<svg xmlns="http://www.w3.org/2000/svg" xmlns:xlink="http://www.w3.org/1999/xlink" viewBox="0 0 1182 790">
  <defs>
    <filter id="b" width="112.7%" height="112.7%" x="-6.3%" y="-5.7%" filterUnits="objectBoundingBox">
      <feOffset dy="1" in="SourceAlpha" result="shadowOffsetOuter1"/>
      <feGaussianBlur in="shadowOffsetOuter1" result="shadowBlurOuter1" stdDeviation="3"/>
      <feColorMatrix in="shadowBlurOuter1" values="0 0 0 0 0.37254902 0 0 0 0 0.388235294 0 0 0 0 0.407843137 0 0 0 0.5 0"/>
    </filter>
    <rect id="a" width="150" height="150" rx="2"/>
  </defs>
  <g fill="none" fill-rule="evenodd">
    <path fill="#3C4043" d="M91.797 207.879q-.476 4.06-2.997 6.267-2.523 2.206-6.706 2.206-4.536 0-7.269-3.252t-2.733-8.702v-2.46q0-3.57 1.274-6.276t3.613-4.157q2.337-1.45 5.414-1.45 4.077 0 6.539 2.276 2.46 2.276 2.865 6.302h-3.393q-.439-3.06-1.907-4.43-1.468-1.371-4.104-1.371-3.235 0-5.072 2.39t-1.837 6.803v2.479q0 4.165 1.74 6.627 1.74 2.46 4.87 2.46 2.812 0 4.315-1.274t1.995-4.438zM99.426 216h-3.252v-27h3.252zm8.736 0h-3.252v-19.02h3.252zm-3.516-24.064q0-.792.484-1.336.483-.546 1.433-.545.949 0 1.44.545.493.544.493 1.336 0 .79-.492 1.318-.492.527-1.442.527-.949 0-1.432-.527-.484-.528-.484-1.318m16.612 24.416q-3.867 0-6.293-2.54t-2.426-6.794v-.598q0-2.83 1.081-5.054 1.08-2.223 3.024-3.48 1.941-1.257 4.21-1.257 3.708 0 5.765 2.443t2.057 6.996v1.354H115.79q.07 2.813 1.644 4.544 1.572 1.731 3.999 1.731 1.722 0 2.918-.703a7.3 7.3 0 0 0 2.091-1.863l1.987 1.547q-2.391 3.674-7.172 3.674zm-.404-17.051q-1.97 0-3.305 1.432-1.336 1.433-1.653 4.017h9.528v-.246q-.141-2.479-1.336-3.84-1.195-1.364-3.234-1.363m14.66-2.32.105 2.39q2.18-2.742 5.695-2.742 6.03 0 6.082 6.803V216h-3.251v-12.586q-.018-2.057-.94-3.041-.924-.984-2.875-.984-1.582 0-2.777.843a5.73 5.73 0 0 0-1.864 2.215V216h-3.251v-19.02h3.076zm21.199-4.606v4.605h3.55v2.514h-3.55v11.795q0 1.143.475 1.714.474.57 1.617.571.562 0 1.547-.21V216a9.4 9.4 0 0 1-2.497.352q-2.179 0-3.287-1.319-1.107-1.318-1.107-3.744v-11.795h-3.463v-2.514h3.463v-4.605zm821.084 15.504q-.476 4.06-2.997 6.267-2.523 2.206-6.706 2.206-4.536 0-7.269-3.252t-2.733-8.702v-2.46q0-3.57 1.274-6.276t3.613-4.157q2.337-1.45 5.414-1.45 4.077 0 6.539 2.276 2.46 2.276 2.865 6.302h-3.393q-.439-3.06-1.907-4.43-1.468-1.371-4.104-1.371-3.235 0-5.072 2.39-1.836 2.391-1.837 6.803v2.479q0 4.165 1.74 6.627 1.74 2.46 4.87 2.46 2.812 0 4.315-1.274t1.995-4.438zm7.629 8.121h-3.252v-27h3.252zm4.342-9.686q0-2.795 1.098-5.027t3.059-3.445 4.473-1.213q3.885 0 6.285 2.69 2.4 2.688 2.399 7.154v.228q0 2.778-1.063 4.984-1.064 2.206-3.041 3.436-1.978 1.23-4.544 1.23-3.868 0-6.267-2.689t-2.4-7.119v-.229zm3.27.387q0 3.165 1.467 5.08t3.929 1.916q2.478 0 3.937-1.942 1.46-1.943 1.46-5.44 0-3.13-1.486-5.072c-1.486-1.942-2.306-1.942-3.947-1.942q-2.408 0-3.884 1.916-1.477 1.915-1.477 5.484zm29.864 7.418q-1.898 2.233-5.572 2.233-3.04 0-4.632-1.767-1.59-1.766-1.608-5.23V196.98h3.252v12.288q0 4.324 3.515 4.324 3.727 0 4.957-2.778V196.98h3.252V216h-3.093l-.07-1.88zm7.313-7.787q0-4.377 2.074-7.04t5.432-2.663q3.34 0 5.29 2.285V189h3.253v27h-2.989l-.158-2.04q-1.95 2.392-5.431 2.392-3.306 0-5.388-2.707-2.083-2.707-2.083-7.067zm3.252.37q0 3.233 1.336 5.062 1.335 1.828 3.691 1.828 3.095 0 4.518-2.778v-8.736q-1.46-2.69-4.483-2.69-2.39 0-3.726 1.846-1.336 1.845-1.336 5.467zm30.885 9.298h-3.375v-25.594h3.375zm20.619-6.68h-10.723l-2.408 6.68h-3.48l9.773-25.594h2.953l9.791 25.594h-3.463zm-9.703-2.777h8.7l-4.359-11.97zm23.414-16.137 8.367 20.883 8.367-20.883h4.377V216h-3.375v-9.967l.316-10.758-8.402 20.725h-2.584l-8.385-20.672.334 10.705V216h-3.375v-25.594z"/>
    <g fill-rule="nonzero">
      <path fill="#4285F4" d="M1119.539 72.397 1085.53 13.25a14.95 14.95 0 0 0-12.75-7.603h-68.03A14.94 14.94 0 0 0 992 13.25l-34.022 58.991a14.85 14.85 0 0 0 0 14.793l34.01 59.483a15.22 15.22 0 0 0 12.75 7.875h68.03a15.17 15.17 0 0 0 12.762-7.836l34.009-59.147a15.17 15.17 0 0 0 0-15.012"/>
      <path fill="#000" d="m1071.086 55.224-50.43-1.086-3.88 44.612 2.935 10.086 45.517 45.517h7.54a15.17 15.17 0 0 0 12.762-7.836l28.06-48.789z" opacity=".07"/>
      <path fill="#FFF" d="m1038.759 40.858-32.328 14.366V76.78c0 19.94 13.797 38.573 32.328 43.1 18.53-4.527 32.327-23.173 32.327-43.1V55.224zm0 15.22c5.713 0 10.344 4.631 10.344 10.344 0 5.714-4.631 10.345-10.344 10.345-5.714 0-10.345-4.631-10.345-10.345 0-5.713 4.631-10.344 10.345-10.344m19.396 42.775c0 .258-.076.51-.22.725-.232.349-.465.71-.724 1.047a36.04 36.04 0 0 1-18.452 13.228 36.04 36.04 0 0 1-18.453-13.163c-.259-.337-.491-.699-.724-1.048a1.3 1.3 0 0 1-.22-.724v-5.806c0-7.927 12.931-11.922 19.397-11.922s19.396 3.982 19.396 11.922z"/>
    </g>
    <path fill="#000" fill-rule="nonzero" d="M596.754 740.299h9.297l-14.126 48.09h-13.222l-14.119-48.09h9.294l11.451 40.007zm35.18 47.997h-7.102l-.629-2.288a18.66 18.66 0 0 1-10.279 3.092c-6.32 0-9.022-4.4-9.022-10.444 0-7.153 3.058-9.871 10.092-9.871h8.309v-3.687c0-3.891-1.054-5.267-6.61-5.267a47.7 47.7 0 0 0-9.582 1.07l-1.053-6.711a44.6 44.6 0 0 1 11.876-1.648c10.874 0 14.068 3.89 14.068 12.692v23.056zm-8.665-13.257h-6.406c-2.837 0-3.636.798-3.636 3.457 0 2.656.799 3.526 3.483 3.526a13.4 13.4 0 0 0 6.542-1.808l.034-5.175zm22.291-21.824v24.503c0 1.878.798 2.815 2.786 2.815a23.7 23.7 0 0 0 9.04-2.952v-24.364h8.664v35.101h-6.609l-.85-3.044a34.2 34.2 0 0 1-13.779 3.755c-5.742 0-7.798-4.098-7.798-10.373v-25.451h8.597zm25.078 35.081v-49.441l8.665-1.212v50.677zm34.524-.732a23.8 23.8 0 0 1-7.595 1.376c-6.32 0-9.514-3.024-9.514-9.298v-19.573h-5.182v-6.881h5.199v-8.716l8.648-1.24v9.956h8.869l-.544 6.864h-8.325v18.315a2.84 2.84 0 0 0 .798 2.345 2.69 2.69 0 0 0 2.328.747 17 17 0 0 0 4.332-.713l1.037 6.779-.051.04zM548 535l87.194 175L723 535zm97.572 35.13h10.15v10.085h-10.15zm-20.212 40.693h-10.15V600.56h10.15zm0-15.214h-10.15v-10.262h10.15zm0-15.214h-10.15v-10.262h10.15zm15.329 45.53h-10.262v-10.15h10.262zm0-15.215h-10.262v-10.143h10.262v10.16zm0-15.206h-10.262v-10.143h10.262v10.16zm0-15.274h-10.262v-10.075h10.262v10.092zm4.995 5.063h10.152v10.16h-10.28l.102-10.143zm0 25.366v-10.075h10.152v10.16l-10.16-.068z"/>
    <g fill-rule="nonzero">
      <g transform="translate(41 5)">
        <use xlink:href="#a" fill="#000" filter="url(#b)"/>
        <use xlink:href="#a" fill="#FFF"/>
      </g>
      <path fill="#9AA0A6" d="M95.418 75.588c-9.259 0-16.765-7.506-16.765-16.764 0-9.26 7.506-16.765 16.765-16.765s16.765 7.506 16.765 16.765c0 9.258-7.506 16.764-16.765 16.764m42.353 0c-9.259 0-16.765-7.506-16.765-16.764 0-9.26 7.506-16.765 16.765-16.765s16.765 7.506 16.765 16.765c0 9.258-7.506 16.764-16.765 16.764m-79.124 40.87v-16.161q9.902-14.706 36.507-14.706c26.605 0 29.906 4.902 36.508 14.706v16.16H58.647zm84.406.6q.034-15.167-1.709-20.404-1.742-5.238-8.744-11.022 13.241-.007 23.818 3.027t18.547 11.9v16.499z"/>
    </g>
    <path fill="#5F6368" fill-rule="nonzero" d="M413 82.75H261v12l-29-14.5 29-14.5v12h152zm324 0v-5h159v-12l29 14.5-29 14.5v-12z"/>
    <path stroke="#5F6368" stroke-linecap="square" stroke-width="5" d="M727.5 628.5h311"/>
    <path fill="#5F6368" fill-rule="nonzero" d="M1042 422h-5V288h-12l14.5-29 14.5 29h-12zm0 62v147h-5V484z"/>
    <path fill="#3C4043" d="M449.255 89h-2.361V73.347l-4.736 1.739v-2.133l6.729-2.526h.368zm7.173-1.231q0-.61.362-1.016.361-.405 1.085-.406c.724-.001.848.135 1.098.406q.375.406.375 1.016 0 .584-.375.977c-.375.393-.616.394-1.098.394q-.723 0-1.085-.394-.363-.393-.362-.977m27.244-1.194q-.939 1.346-2.622 2.012-1.682.667-3.916.667-2.26 0-4.012-1.06t-2.71-3.015q-.96-1.955-.984-4.533v-1.612q0-4.177 1.948-6.474 1.95-2.298 5.478-2.298 2.895 0 4.66 1.479 1.764 1.478 2.158 4.196h-2.438q-.685-3.67-4.367-3.67-2.45 0-3.713 1.72-1.263 1.722-1.276 4.984v1.51q0 3.11 1.422 4.945t3.846 1.835q1.372 0 2.4-.305t1.701-1.028v-4.152h-4.278v-1.98h6.703zm9.394 2.679q-2.793 0-4.545-1.835-1.75-1.834-1.751-4.906v-.432q0-2.045.78-3.65t2.184-2.514a5.5 5.5 0 0 1 3.04-.907q2.679 0 4.164 1.764 1.486 1.765 1.486 5.053v.978h-9.306q.051 2.031 1.187 3.281t2.888 1.25q1.244 0 2.108-.507a5.3 5.3 0 0 0 1.51-1.346l1.435 1.118q-1.726 2.652-5.18 2.653m-.292-12.315q-1.422 0-2.386 1.035t-1.194 2.901h6.881v-.178q-.102-1.79-.965-2.774t-2.336-.984m10.588-1.675.076 1.726q1.575-1.98 4.114-1.98 4.354 0 4.392 4.913V89h-2.348v-9.09q-.013-1.485-.68-2.196-.666-.711-2.075-.711-1.143 0-2.006.61a4.14 4.14 0 0 0-1.346 1.599V89h-2.348V75.264zm17.825 13.99q-2.793 0-4.545-1.835t-1.752-4.906v-.432q0-2.045.78-3.65t2.184-2.514a5.5 5.5 0 0 1 3.04-.907q2.679 0 4.165 1.764 1.485 1.765 1.485 5.053v.978h-9.306q.051 2.031 1.187 3.281t2.888 1.25q1.245 0 2.108-.507a5.3 5.3 0 0 0 1.51-1.346l1.435 1.118q-1.725 2.652-5.18 2.653zm-.292-12.315q-1.422 0-2.387 1.035c-.965 1.035-1.041 1.657-1.194 2.901h6.881v-.178q-.1-1.79-.965-2.774-.863-.984-2.335-.984m15.005.432a7 7 0 0 0-1.155-.089q-2.31 0-3.136 1.968V89h-2.348V75.264h2.285l.038 1.587q1.155-1.841 3.275-1.841.686 0 1.041.177zM546.031 89q-.203-.406-.33-1.447-1.638 1.7-3.91 1.7-2.031 0-3.333-1.148-1.3-1.149-1.3-2.914 0-2.145 1.63-3.332 1.632-1.187 4.59-1.187h2.285v-1.08q0-1.23-.736-1.96-.737-.73-2.171-.73-1.256 0-2.108.634-.85.635-.85 1.536h-2.361q0-1.028.73-1.987.729-.958 1.98-1.517t2.749-.558q2.373 0 3.72 1.187 1.344 1.186 1.396 3.269v6.322q0 1.891.482 3.009V89zm-3.897-1.79a4.13 4.13 0 0 0 2.095-.571q.99-.571 1.434-1.486v-2.818h-1.84q-4.317 0-4.317 2.526 0 1.105.736 1.727.737.622 1.892.622m12.746-15.272v3.326h2.564v1.815h-2.564v8.519q0 .825.343 1.237.342.413 1.168.413.406 0 1.117-.152V89a6.8 6.8 0 0 1-1.803.254q-1.574 0-2.374-.952t-.8-2.704v-8.519h-2.5v-1.815h2.5v-3.326zm11.007 17.316q-2.793 0-4.545-1.835t-1.752-4.906v-.432q0-2.045.78-3.65.782-1.605 2.184-2.514a5.5 5.5 0 0 1 3.04-.907q2.68 0 4.165 1.764t1.485 5.053v.978h-9.306q.051 2.031 1.187 3.281t2.889 1.25q1.245 0 2.107-.507a5.3 5.3 0 0 0 1.51-1.346l1.435 1.118q-1.725 2.653-5.18 2.653zm-.292-12.315q-1.422 0-2.387 1.035c-.965 1.035-1.041 1.657-1.193 2.901h6.88v-.178q-.101-1.79-.964-2.774-.864-.984-2.336-.984m20.617 3.822q-3.136-.902-4.564-2.216t-1.428-3.243q0-2.184 1.745-3.612t4.539-1.428q1.904 0 3.396.736t2.31 2.031q.82 1.296.82 2.831h-2.45q0-1.676-1.067-2.634t-3.01-.958q-1.8 0-2.811.793c-1.011.793-1.01 1.263-1.01 2.203q0 1.13.96 1.91.957.78 3.262 1.429 2.304.646 3.605 1.428 1.302.78 1.93 1.822.628 1.04.628 2.45 0 2.246-1.752 3.599-1.753 1.352-4.684 1.352a8.7 8.7 0 0 1-3.555-.73q-1.65-.73-2.545-2t-.895-2.881h2.45q0 1.676 1.238 2.647t3.307.97q1.929 0 2.958-.786 1.028-.787 1.028-2.146t-.952-2.1q-.952-.744-3.453-1.467M598.374 89h-2.349V75.264h2.349zm-2.539-17.38q0-.57.35-.965.348-.393 1.034-.393t1.04.393q.357.394.356.965c-.001.571-.118.698-.355.952s-.584.381-1.041.381q-.685 0-1.035-.38-.35-.382-.349-.953m5.738 10.398q0-3.213 1.486-5.11t3.935-1.898q2.514 0 3.923 1.777l.114-1.523h2.146V88.67q0 2.666-1.58 4.202-1.582 1.536-4.247 1.536-1.486 0-2.908-.635-1.422-.634-2.17-1.739l1.218-1.409q1.51 1.866 3.695 1.866 1.713 0 2.672-.965.958-.964.958-2.716v-1.181q-1.409 1.625-3.846 1.625-2.412 0-3.904-1.942-1.492-1.943-1.492-5.294m2.362.266q0 2.324.952 3.65.951 1.327 2.666 1.327 2.22 0 3.262-2.019v-6.271q-1.079-1.968-3.237-1.968-1.713 0-2.679 1.333-.964 1.334-.964 3.948m15.005-7.02.077 1.726q1.574-1.98 4.113-1.98 4.354 0 4.392 4.913V89h-2.348v-9.09q-.013-1.485-.68-2.196-.666-.711-2.075-.711-1.142 0-2.006.61a4.14 4.14 0 0 0-1.346 1.599V89h-2.348V75.264zm17.825 13.99q-2.793 0-4.545-1.835t-1.752-4.906v-.432q0-2.045.78-3.65.781-1.605 2.184-2.514a5.5 5.5 0 0 1 3.04-.907q2.679 0 4.165 1.764 1.485 1.765 1.485 5.053v.978h-9.306q.051 2.031 1.187 3.281t2.889 1.25q1.243 0 2.107-.507a5.3 5.3 0 0 0 1.51-1.346l1.435 1.118q-1.725 2.652-5.18 2.653zm-.292-12.315q-1.422 0-2.387 1.035c-.965 1.035-1.041 1.657-1.193 2.901h6.88v-.178q-.101-1.79-.964-2.774-.864-.984-2.336-.984m7.795 5.079q0-3.162 1.498-5.085t3.922-1.923q2.413 0 3.822 1.65V69.5h2.348V89H653.7l-.114-1.473q-1.41 1.727-3.923 1.727-2.387 0-3.891-1.955t-1.504-5.104zm2.348.266q0 2.336.965 3.656t2.666 1.32q2.235 0 3.263-2.005v-6.31q-1.054-1.942-3.238-1.942-1.726 0-2.69 1.333-.966 1.334-.966 3.948m27.435-11.768h2.45v13.088q0 2.654-1.593 4.152t-4.247 1.498q-2.755 0-4.29-1.41-1.537-1.408-1.537-3.948h2.437q0 1.588.87 2.476.87.89 2.52.889 1.51 0 2.444-.952.933-.953.946-2.666zm10.588 12.657.355 2.437.52-2.196 3.657-12.898h2.057l3.567 12.898.508 2.234.393-2.488 2.87-12.644h2.45L696.534 89h-2.221l-3.81-13.47-.291-1.409-.292 1.41L685.972 89h-2.222l-4.469-18.484h2.438zm32.03-10.652h-5.941V89h-2.425V72.521h-5.929v-2.005h14.295z"/>
    <path fill="#5F6368" fill-rule="nonzero" d="M119 422h-5V248h5zm0 62v147h-5V484zm395 147H119v-5h395v-12l29 14.5-29 14.5z"/>
    <path fill="#3C4043" d="M12.647 464H.537v-1.688l6.398-7.11q1.42-1.613 1.961-2.621.54-1.01.54-2.089 0-1.447-.876-2.374t-2.336-.927q-1.752 0-2.724.997-.97.996-.97 2.774H.18q0-2.552 1.645-4.126 1.644-1.575 4.399-1.574 2.577 0 4.075 1.352 1.498 1.351 1.498 3.599 0 2.73-3.479 6.5l-4.95 5.37h9.28zm2.78-1.231q0-.61.363-1.016.361-.405 1.085-.406c.724-.001.848.135 1.098.406q.375.406.375 1.016 0 .584-.375.977c-.375.393-.616.394-1.098.394q-.723 0-1.085-.394-.363-.393-.362-.977zm19.044-7.008q-3.136-.902-4.564-2.216t-1.428-3.243q0-2.184 1.745-3.612t4.539-1.428q1.904 0 3.396.736t2.31 2.031q.82 1.295.82 2.831h-2.451q0-1.675-1.067-2.634-1.065-.958-3.008-.958-1.803 0-2.812.793-1.01.793-1.01 2.203 0 1.13.959 1.91c.959.78 1.726.997 3.263 1.429q2.304.646 3.605 1.428 1.301.78 1.93 1.822.628 1.04.628 2.45 0 2.247-1.752 3.599t-4.684 1.352a8.7 8.7 0 0 1-3.555-.73q-1.65-.73-2.545-2t-.895-2.881h2.45q0 1.676 1.238 2.647t3.307.97q1.929 0 2.958-.786 1.028-.787 1.028-2.146t-.952-2.1q-.953-.744-3.453-1.467m15.31 8.493q-2.793 0-4.545-1.835t-1.752-4.906v-.432q0-2.045.781-3.65.78-1.605 2.184-2.514a5.5 5.5 0 0 1 3.04-.907q2.679 0 4.164 1.764t1.486 5.053v.978h-9.306q.051 2.031 1.187 3.281t2.888 1.25q1.245 0 2.108-.507a5.3 5.3 0 0 0 1.51-1.346l1.435 1.118q-1.727 2.652-5.18 2.653m-.292-12.315q-1.422 0-2.386 1.035t-1.194 2.901h6.881v-.178q-.102-1.79-.965-2.774t-2.336-.984m10.588-1.675.076 1.726q1.574-1.98 4.114-1.98 4.355 0 4.392 4.913V464h-2.348v-9.09q-.013-1.485-.68-2.196-.666-.711-2.075-.711-1.142 0-2.006.61a4.14 4.14 0 0 0-1.346 1.599V464h-2.349v-13.736zm11.553 6.754q0-3.162 1.498-5.085t3.923-1.923q2.412 0 3.821 1.65v-7.16h2.349V464h-2.159l-.114-1.473q-1.41 1.727-3.923 1.727-2.386 0-3.89-1.955t-1.505-5.104zm2.349.266q0 2.336.964 3.656.965 1.32 2.666 1.32 2.235 0 3.263-2.005v-6.31q-1.053-1.942-3.237-1.942-1.726 0-2.692 1.333-.964 1.333-.964 3.948m25.136-1.523q-3.136-.902-4.564-2.216t-1.428-3.243q0-2.184 1.746-3.612t4.538-1.428q1.905 0 3.396.736 1.493.736 2.31 2.031.82 1.295.82 2.831h-2.45q0-1.675-1.067-2.634t-3.009-.958q-1.803 0-2.812.793c-1.009.793-1.01 1.263-1.01 2.203q0 1.13.96 1.91.957.78 3.262 1.429 2.304.646 3.606 1.428 1.3.78 1.93 1.822.627 1.04.628 2.45 0 2.247-1.752 3.599t-4.685 1.352a8.7 8.7 0 0 1-3.555-.73q-1.65-.73-2.545-2t-.895-2.881h2.45q0 1.676 1.238 2.647t3.307.97q1.93 0 2.958-.786 1.029-.787 1.029-2.146t-.953-2.1q-.951-.744-3.453-1.467M111.277 464h-2.348v-13.736h2.348zm-2.539-17.38q0-.57.35-.965.348-.393 1.034-.393.685 0 1.041.393.356.394.356.965c0 .571-.119.698-.356.952s-.584.381-1.04.381q-.687 0-1.036-.38-.349-.382-.349-.953m5.739 10.398q0-3.213 1.485-5.11 1.485-1.899 3.935-1.898 2.514 0 3.923 1.777l.115-1.523h2.145v13.406q0 2.666-1.58 4.202t-4.247 1.536q-1.486 0-2.907-.635-1.422-.634-2.171-1.739l1.219-1.409q1.51 1.866 3.694 1.866 1.713 0 2.672-.965.96-.964.959-2.716v-1.181q-1.41 1.625-3.847 1.625-2.413 0-3.904-1.942-1.491-1.943-1.491-5.294m2.36.266q0 2.324.953 3.65.952 1.327 2.666 1.327 2.222 0 3.263-2.019v-6.271q-1.08-1.968-3.238-1.968-1.713 0-2.678 1.333-.965 1.334-.965 3.948zm15.007-7.02.076 1.726q1.574-1.98 4.113-1.98 4.354 0 4.393 4.913V464h-2.349v-9.09q-.012-1.485-.68-2.196-.665-.711-2.075-.711-1.142 0-2.006.61a4.14 4.14 0 0 0-1.345 1.599V464h-2.349v-13.736zm17.824 13.99q-2.793 0-4.545-1.835t-1.752-4.906v-.432q0-2.045.78-3.65.782-1.605 2.184-2.514a5.5 5.5 0 0 1 3.041-.907q2.679 0 4.164 1.764t1.485 5.053v.978h-9.305q.051 2.031 1.187 3.281t2.888 1.25q1.245 0 2.107-.507a5.3 5.3 0 0 0 1.511-1.346l1.435 1.118q-1.727 2.652-5.18 2.653m-.292-12.315q-1.422 0-2.387 1.035c-.965 1.035-1.04 1.657-1.193 2.901h6.88v-.178q-.101-1.79-.964-2.774t-2.336-.984m7.795 5.079q0-3.162 1.498-5.085t3.923-1.923q2.412 0 3.821 1.65v-7.16h2.349V464h-2.158l-.115-1.473q-1.41 1.727-3.923 1.727-2.386 0-3.89-1.955t-1.505-5.104zm2.349.266q0 2.336.964 3.656.966 1.32 2.666 1.32 2.235 0 3.263-2.005v-6.31q-1.053-1.942-3.237-1.942-1.726 0-2.692 1.333-.964 1.333-.964 3.948m27.434-11.768h2.45v13.088q0 2.654-1.593 4.152t-4.247 1.498q-2.754 0-4.29-1.41t-1.537-3.948h2.438q0 1.587.87 2.476.87.89 2.52.889 1.51 0 2.443-.952.934-.953.946-2.666zm10.588 12.657.355 2.437.521-2.196 3.656-12.898h2.057l3.567 12.898.508 2.234.394-2.488 2.869-12.644h2.45L209.437 464h-2.221l-3.809-13.47-.292-1.409-.292 1.41L198.875 464h-2.222l-4.468-18.484h2.437zm32.03-10.652h-5.941V464h-2.425v-16.479h-5.929v-2.005h14.295zm670.379 6.094h1.765q1.663-.026 2.615-.876t.952-2.298q0-3.25-3.237-3.25-1.524 0-2.431.87-.908.87-.908 2.304h-2.349q0-2.196 1.606-3.65t4.082-1.453q2.615 0 4.1 1.384 1.486 1.383 1.486 3.846 0 1.206-.78 2.336-.781 1.13-2.127 1.689 1.523.481 2.355 1.6.831 1.116.831 2.729 0 2.489-1.625 3.948t-4.227 1.46-4.234-1.41q-1.632-1.409-1.632-3.719h2.362q0 1.46.952 2.336t2.552.876q1.7 0 2.602-.889.902-.888.902-2.552 0-1.612-.99-2.475-.99-.864-2.857-.889h-1.765zm11.477 9.154q0-.61.362-1.016.361-.405 1.085-.406c.724-.001.848.135 1.098.406q.375.406.375 1.016 0 .584-.375.977c-.375.393-.616.394-1.098.394q-.723 0-1.085-.394-.362-.393-.362-.977m19.716-2.006 5.28-15.247h2.667L932.235 464h-2.158l-6.843-18.484h2.654zm15.196 3.49q-2.793.001-4.545-1.834t-1.752-4.906v-.432q0-2.045.78-3.65.782-1.605 2.184-2.514a5.5 5.5 0 0 1 3.04-.907q2.68 0 4.165 1.764t1.485 5.053v.978h-9.305q.05 2.031 1.187 3.281 1.136 1.25 2.888 1.25 1.245 0 2.107-.507a5.3 5.3 0 0 0 1.511-1.346l1.435 1.118q-1.728 2.652-5.18 2.653zm-.292-12.314q-1.422 0-2.387 1.035c-.965 1.035-1.04 1.657-1.193 2.901h6.88v-.178q-.101-1.79-.964-2.774t-2.336-.984m15.006.432a7 7 0 0 0-1.156-.089q-2.31 0-3.135 1.968V464h-2.349v-13.736h2.285l.038 1.587q1.155-1.841 3.276-1.841.686 0 1.04.178v2.183zm4.71 11.629h-2.349v-13.736h2.349zm-2.54-17.38q0-.57.35-.965.348-.393 1.034-.393.685 0 1.041.393.356.394.356.965c0 .571-.119.698-.356.952s-.584.381-1.04.381q-.687 0-1.035-.38-.35-.382-.35-.953m7.453 17.38v-11.92h-2.171v-1.816h2.17v-1.41q0-2.208 1.181-3.415t3.34-1.206q.811 0 1.612.216l-.127 1.905a7 7 0 0 0-1.27-.115q-1.143 0-1.765.667-.621.666-.622 1.91v1.448h2.933v1.815h-2.933V464zm12.365-3.44 3.2-10.296h2.513l-5.523 15.856q-1.282 3.428-4.075 3.428l-.444-.038-.876-.165v-1.905l.635.051q1.192 0 1.86-.482.666-.483 1.098-1.765l.52-1.396-4.9-13.584h2.564zm20.059-4.8q-3.135-.9-4.564-2.215t-1.429-3.243q0-2.184 1.746-3.612t4.539-1.428q1.904 0 3.396.736t2.31 2.031.819 2.831h-2.45q0-1.675-1.067-2.634-1.065-.958-3.008-.958-1.803 0-2.812.793-1.01.793-1.01 2.203 0 1.13.959 1.91c.959.78 1.726.997 3.262 1.429q2.305.646 3.606 1.428 1.3.78 1.93 1.822.628 1.04.628 2.45 0 2.246-1.752 3.599-1.753 1.352-4.684 1.352a8.7 8.7 0 0 1-3.555-.73q-1.65-.73-2.546-2t-.895-2.881h2.45q0 1.676 1.238 2.647t3.308.97q1.929 0 2.958-.786 1.028-.787 1.028-2.146t-.952-2.1q-.952-.744-3.453-1.467zm15.31 8.494q-2.793 0-4.545-1.835t-1.752-4.906v-.432q0-2.045.781-3.65.78-1.605 2.184-2.514a5.5 5.5 0 0 1 3.04-.907q2.679 0 4.164 1.764 1.486 1.765 1.486 5.053v.978h-9.306q.051 2.031 1.187 3.281t2.888 1.25q1.245 0 2.108-.507a5.3 5.3 0 0 0 1.51-1.346l1.435 1.118q-1.727 2.652-5.18 2.653m-.292-12.315q-1.421 0-2.387 1.035-.964 1.035-1.193 2.901h6.88v-.178q-.1-1.79-.964-2.774-.863-.984-2.336-.984m15.006.432a7 7 0 0 0-1.155-.089q-2.31 0-3.136 1.968V464h-2.349v-13.736h2.286l.038 1.587q1.155-1.841 3.275-1.841.686 0 1.041.178zm6.919 8.442 3.402-10.55h2.4L1040.92 464h-1.79l-4.977-13.736h2.4l3.49 10.55zm10.613 3.187h-2.348v-13.736h2.348zm-2.539-17.38q0-.57.35-.965.348-.393 1.034-.393t1.041.393q.355.394.355.965c0 .571-.118.698-.355.952s-.584.381-1.041.381q-.686 0-1.035-.38-.349-.382-.349-.953m11.807 15.717q1.257 0 2.196-.762.939-.761 1.041-1.904h2.222q-.064 1.18-.813 2.247-.75 1.066-2 1.701a5.8 5.8 0 0 1-2.646.635q-2.805 0-4.463-1.873-1.656-1.873-1.656-5.122v-.394q0-2.005.736-3.567.735-1.562 2.114-2.425 1.377-.863 3.256-.863 2.31 0 3.84 1.384t1.632 3.592h-2.222q-.101-1.332-1.01-2.19-.906-.856-2.24-.857-1.79 0-2.774 1.289-.984 1.29-.984 3.726v.444q0 2.375.978 3.657t2.793 1.282m13.8 1.917q-2.793 0-4.545-1.835t-1.752-4.906v-.432q0-2.045.78-3.65.782-1.605 2.184-2.514a5.5 5.5 0 0 1 3.04-.907q2.679 0 4.165 1.764 1.485 1.765 1.485 5.053v.978h-9.306q.051 2.031 1.187 3.281t2.889 1.25q1.243 0 2.107-.507a5.3 5.3 0 0 0 1.51-1.346l1.435 1.118q-1.725 2.652-5.18 2.653zm-.292-12.315q-1.422 0-2.387 1.035c-.965 1.035-1.041 1.657-1.193 2.901h6.88v-.178q-.101-1.79-.964-2.774-.864-.984-2.336-.984m25.378 7.237h-7.745l-1.739 4.824h-2.514l7.06-18.484h2.132l7.071 18.484h-2.5zm-7.008-2.006h6.284l-3.149-8.646zm18.903 5.167q1.257 0 2.196-.762.94-.761 1.041-1.904h2.222q-.063 1.18-.812 2.247t-2 1.701a5.8 5.8 0 0 1-2.647.635q-2.805 0-4.462-1.873t-1.657-5.122v-.394q0-2.005.736-3.567.737-1.562 2.114-2.425t3.256-.863q2.31 0 3.84 1.384t1.632 3.592h-2.222q-.101-1.332-1.009-2.19-.908-.856-2.24-.857-1.791 0-2.775 1.289-.983 1.29-.983 3.726v.444q0 2.375.977 3.657.978 1.282 2.793 1.282m13.61 0q1.256 0 2.196-.762.94-.761 1.04-1.904h2.222q-.063 1.18-.812 2.247t-2 1.701a5.8 5.8 0 0 1-2.647.635q-2.805 0-4.462-1.873t-1.657-5.122v-.394q0-2.005.737-3.567.736-1.562 2.113-2.425t3.257-.863q2.31 0 3.84 1.384t1.631 3.592h-2.221q-.102-1.332-1.01-2.19-.908-.856-2.24-.857-1.79 0-2.774 1.289-.984 1.29-.984 3.726v.444q0 2.375.977 3.657.978 1.282 2.793 1.282zm7.477-5.332q0-2.019.793-3.631.794-1.612 2.21-2.488t3.23-.876q2.806 0 4.539 1.942t1.733 5.167v.165q0 2.005-.768 3.6-.768 1.592-2.197 2.481-1.428.89-3.281.889-2.793 0-4.526-1.942-1.733-1.943-1.733-5.142zm2.361.28q0 2.285 1.06 3.668t2.838 1.384q1.79 0 2.844-1.403 1.053-1.402 1.053-3.93 0-2.259-1.073-3.662t-2.85-1.403q-1.74 0-2.805 1.384-1.067 1.384-1.067 3.961zm21.57 5.357q-1.371 1.611-4.025 1.612-2.196 0-3.345-1.276t-1.162-3.777v-8.937h2.349v8.874q0 3.123 2.54 3.123 2.69 0 3.58-2.006v-9.991h2.348V464h-2.235zm8.074-12.378.076 1.726q1.574-1.98 4.113-1.98 4.354 0 4.393 4.913V464h-2.349v-9.09q-.012-1.485-.679-2.196-.666-.711-2.076-.711-1.142 0-2.005.61a4.14 4.14 0 0 0-1.346 1.599V464h-2.349v-13.736zm15.31-3.327v3.327h2.565v1.815h-2.565v8.519q0 .825.343 1.237.343.414 1.168.413.406 0 1.117-.152V464a6.8 6.8 0 0 1-1.802.254q-1.575 0-2.374-.952t-.8-2.704v-8.519h-2.501v-1.815h2.5v-3.327h2.35z"/>
  </g>
</svg>
