<svg xmlns="http://www.w3.org/2000/svg" width="456" height="588" fill="none" xmlns:xlink="http://www.w3.org/1999/xlink">
  <g opacity=".9">
    <g fill="#DC477D" clip-path="url(#a)">
      <path d="M0 11.688V10.09a187.3 187.3 0 0 1 71.712 14.057 186.2 186.2 0 0 1 60.723 40.392 184.6 184.6 0 0 1 40.691 60.277A183.5 183.5 0 0 1 187.289 196h-1.61a181.95 181.95 0 0 0-14.039-70.572 183 183 0 0 0-40.342-59.759 184.6 184.6 0 0 0-60.201-40.045A185.7 185.7 0 0 0 0 11.688m123.541 61.681a172.2 172.2 0 0 1 37.961 56.227A171.2 171.2 0 0 1 174.712 196h1.61a172.7 172.7 0 0 0-13.333-67.015 173.8 173.8 0 0 0-38.311-56.745 175.3 175.3 0 0 0-57.166-38.028A176.3 176.3 0 0 0 .001 20.976H0v1.598a174.7 174.7 0 0 1 66.896 13.114 173.7 173.7 0 0 1 56.645 37.681m-7.758 7.701a161.4 161.4 0 0 1 35.576 52.697A160.5 160.5 0 0 1 163.74 196h1.61a162 162 0 0 0-12.502-62.846 163 163 0 0 0-35.927-53.214 164.3 164.3 0 0 0-53.609-35.662A165.3 165.3 0 0 0 .001 31.868H0v1.597a163.7 163.7 0 0 1 62.695 12.29 162.8 162.8 0 0 1 53.088 35.315M119.861 196h1.61c-.036-31.968-12.846-62.616-35.618-85.221C63.081 88.175 32.206 75.459.001 75.423H0v1.598c31.779.036 62.245 12.583 84.715 34.888s35.111 52.547 35.146 84.091m-10.967 0h1.61c-.033-29.082-11.686-56.963-32.402-77.526C57.386 97.91 29.298 86.342.001 86.309H0v1.598c28.871.032 56.55 11.431 76.965 31.696 20.414 20.264 31.897 47.739 31.929 76.397m-8.627-99.535a139.8 139.8 0 0 1 30.811 45.638A138.95 138.95 0 0 1 141.801 196h1.61a140.55 140.55 0 0 0-10.844-54.507 141.4 141.4 0 0 0-31.156-46.157A142.6 142.6 0 0 0 54.912 64.41 143.4 143.4 0 0 0 .001 53.645H0v1.598a141.8 141.8 0 0 1 54.293 10.642 140.9 140.9 0 0 1 45.974 30.58m7.757-7.694a150.6 150.6 0 0 1 33.197 49.165A149.7 149.7 0 0 1 152.773 196h1.61a151.25 151.25 0 0 0-11.674-58.676 152.2 152.2 0 0 0-33.546-49.683 153.4 153.4 0 0 0-50.051-33.299A154.3 154.3 0 0 0 0 42.753v1.599a152.7 152.7 0 0 1 58.495 11.467 151.8 151.8 0 0 1 49.529 32.952m-15.509 15.395a129 129 0 0 1 28.425 42.108A128.2 128.2 0 0 1 130.833 196h1.61a129.8 129.8 0 0 0-10.014-50.338 130.6 130.6 0 0 0-28.776-42.625 131.6 131.6 0 0 0-42.94-28.564A132.4 132.4 0 0 0 0 64.532v1.597a130.8 130.8 0 0 1 50.096 9.822 130.1 130.1 0 0 1 42.42 28.215Z"/>
      <path d="M0 185.91v-1.598a11.84 11.84 0 0 1 8.323 3.427A11.66 11.66 0 0 1 11.775 196h-1.61a10.06 10.06 0 0 0-2.98-7.131A10.2 10.2 0 0 0 0 185.91M21.139 196h1.609a22.52 22.52 0 0 0-6.67-15.959A22.86 22.86 0 0 0 .001 173.42H0v1.598a21.24 21.24 0 0 1 14.94 6.153A20.93 20.93 0 0 1 21.138 196Zm65.817 0h1.61c-.026-23.308-9.365-45.653-25.969-62.135S23.482 108.113.002 108.087H0v1.598c23.054.026 45.157 9.129 61.458 25.31C77.76 151.177 86.93 173.116 86.955 196Zm-10.972 0h1.61c-.024-20.42-8.206-39.997-22.752-54.436-14.547-14.44-34.269-22.562-54.84-22.585H0v1.598c20.145.023 39.459 7.976 53.703 22.116S75.96 176.004 75.983 196Zm-43.879 0h1.61a33.38 33.38 0 0 0-9.885-23.652A33.88 33.88 0 0 0 0 162.535v1.597a32.26 32.26 0 0 1 22.69 9.345A31.78 31.78 0 0 1 32.105 196m10.973 0h1.609c-.013-11.76-4.725-23.035-13.103-31.35S11.849 151.656.002 151.643H0v1.598c11.421.013 22.37 4.522 30.446 12.538S43.064 184.663 43.077 196Zm10.966 0h1.61c-.016-14.646-5.885-28.688-16.318-39.044C28.9 146.599 14.755 140.773 0 140.757v1.597c14.329.017 28.065 5.674 38.197 15.731 10.131 10.057 15.83 23.692 15.846 37.915Zm10.973 0h1.61c-.02-17.534-7.046-34.344-19.536-46.743C34.6 136.859 17.665 129.884 0 129.864v1.599c17.238.019 33.763 6.825 45.952 18.924S64.997 178.89 65.016 196Z"/>
    </g>
    <g clip-path="url(#b)">
      <path fill="#000" d="M227.999 305.686H228v-1.599h-.001c-23.48.027-45.992 9.298-62.595 25.779s-25.943 38.827-25.969 62.135h1.61c.026-22.885 9.195-44.824 25.497-61.005 16.301-16.182 38.404-25.284 61.457-25.31m-65.015 86.315h-1.61c.02-17.534 7.046-34.345 19.536-46.743s29.425-19.373 47.089-19.393H228v1.598h-.001c-17.237.02-33.762 6.826-45.951 18.924-12.188 12.099-19.045 28.503-19.064 45.614m-10.966 0h-1.61c.023-20.42 8.205-39.998 22.751-54.437s34.269-22.561 54.84-22.584H228v1.598h-.001c-20.144.022-39.457 7.976-53.702 22.116-14.244 14.139-22.257 33.31-22.279 53.307m21.939 0h-1.61c.016-14.647 5.885-28.688 16.318-39.045 10.434-10.356 24.58-16.182 39.334-16.199H228v1.598h-.001c-14.328.016-28.064 5.673-38.196 15.73s-15.83 23.693-15.846 37.916m43.878 0h-1.61a11.65 11.65 0 0 1 3.453-8.261 11.83 11.83 0 0 1 8.321-3.427H228v1.598h-.001a10.22 10.22 0 0 0-7.184 2.958 10.07 10.07 0 0 0-2.98 7.132m-32.912 0h-1.609c.013-11.761 4.725-23.035 13.103-31.351s19.735-12.993 31.582-13.007H228v1.598h-.001c-11.42.013-22.369 4.522-30.445 12.538s-12.618 18.885-12.631 30.222m10.973 0h-1.61a33.38 33.38 0 0 1 9.885-23.653 33.88 33.88 0 0 1 23.828-9.813H228v1.597h-.001a32.27 32.27 0 0 0-22.69 9.345 31.8 31.8 0 0 0-9.413 22.524m10.966 0h-1.609a22.52 22.52 0 0 1 6.67-15.959 22.86 22.86 0 0 1 16.076-6.621H228v1.598h-.001a21.24 21.24 0 0 0-14.939 6.152 20.93 20.93 0 0 0-6.198 14.83"/>
      <path fill="#DC477D" d="M227.999 283.907H228v-1.597h-.001c-29.297.033-57.385 11.6-78.101 32.164s-32.369 48.445-32.402 77.527h1.61c.032-28.658 11.515-56.133 31.93-76.398s48.093-31.663 76.963-31.696m-100.266 8.559a139.8 139.8 0 0 0-30.81 45.637 139 139 0 0 0-10.724 53.898h-1.61a140.55 140.55 0 0 1 10.844-54.508 141.4 141.4 0 0 1 31.156-46.156 142.6 142.6 0 0 1 46.499-30.927A143.4 143.4 0 0 1 228 249.646v1.597h-.001a141.8 141.8 0 0 0-54.292 10.642 140.9 140.9 0 0 0-45.974 30.581m-19.594 99.535h-1.61c.037-31.968 12.846-62.616 35.618-85.22 22.772-22.605 53.648-35.32 85.852-35.356H228v1.596h-.001c-31.778.036-62.244 12.583-84.714 34.888-22.471 22.306-35.11 52.547-35.146 84.092m27.346-91.834a129 129 0 0 0-28.425 42.107 128.2 128.2 0 0 0-9.893 49.727h-1.61a129.8 129.8 0 0 1 10.014-50.339 130.6 130.6 0 0 1 28.777-42.624 131.6 131.6 0 0 1 42.94-28.565 132.4 132.4 0 0 1 50.711-9.941H228v1.599h-.001a130.8 130.8 0 0 0-50.094 9.821 130 130 0 0 0-42.42 28.215m-15.509-15.395a150.6 150.6 0 0 0-33.197 49.164 149.7 149.7 0 0 0-11.552 58.065h-1.61a151.3 151.3 0 0 1 11.674-58.677 152.2 152.2 0 0 1 33.547-49.682 153.4 153.4 0 0 1 50.05-33.299 154.4 154.4 0 0 1 59.111-11.589H228v1.598h-.001a152.7 152.7 0 0 0-58.494 11.468 151.8 151.8 0 0 0-49.529 32.952m-15.517-15.402a172.2 172.2 0 0 0-37.961 56.227 171.2 171.2 0 0 0-13.21 66.404h-1.61a172.8 172.8 0 0 1 13.333-67.015 173.8 173.8 0 0 1 38.311-56.745 175.3 175.3 0 0 1 57.166-38.029 176.3 176.3 0 0 1 67.511-13.236H228v1.599h-.001a174.7 174.7 0 0 0-66.895 13.114 173.7 173.7 0 0 0-56.645 37.681m7.758 7.701a161.4 161.4 0 0 0-35.576 52.696 160.45 160.45 0 0 0-12.38 62.234h-1.61a162 162 0 0 1 12.501-62.846 163 163 0 0 1 35.927-53.214 164.3 164.3 0 0 1 53.609-35.663 165.3 165.3 0 0 1 63.311-12.409H228v1.598h-.001a163.7 163.7 0 0 0-62.694 12.29 162.8 162.8 0 0 0-53.088 35.314M96.702 261.67a183 183 0 0 0-40.342 59.758 181.9 181.9 0 0 0-14.039 70.573h-1.61a183.5 183.5 0 0 1 14.163-71.184 184.6 184.6 0 0 1 40.69-60.277 186.2 186.2 0 0 1 60.724-40.393 187.3 187.3 0 0 1 71.711-14.057H228v1.599h-.001a185.7 185.7 0 0 0-71.095 13.935 184.5 184.5 0 0 0-60.202 40.046M0 271.425v1.596c20.571-.023 40.292-8.146 54.838-22.585s22.726-34.016 22.749-54.435h-1.61c-.022 19.995-8.034 39.166-22.277 53.306S20.144 271.401 0 271.425m54.038-75.424h1.61c-.016 14.645-5.884 28.686-16.316 39.043C28.899 245.4 14.755 251.227 0 251.244v-1.598c14.328-.017 28.064-5.674 38.194-15.731s15.828-23.693 15.844-37.914m10.972 0h1.61c-.02 17.532-7.045 34.341-19.534 46.738C34.596 255.137 17.663 262.111 0 262.131v-1.599c17.236-.019 33.76-6.824 45.948-18.922s19.043-28.501 19.062-45.609m21.94 0h1.61c-.027 23.306-9.366 45.65-25.968 62.13S23.48 283.882 0 283.908v-1.598c23.053-.026 45.154-9.128 61.454-25.308 16.3-16.181 25.47-38.119 25.495-61.001Zm-43.879 0h1.61c-.013 11.758-4.725 23.031-13.101 31.346S11.846 240.339 0 240.352v-1.598c11.42-.013 22.367-4.521 30.442-12.536s12.616-18.882 12.63-30.217Zm-10.972 0h1.61a33.38 33.38 0 0 1-9.883 23.651A33.87 33.87 0 0 1 0 229.466v-1.597a32.26 32.26 0 0 0 22.688-9.346 31.78 31.78 0 0 0 9.41-22.522Zm-21.94 0h1.61a11.66 11.66 0 0 1-3.45 8.259A11.83 11.83 0 0 1 0 207.688v-1.598a10.2 10.2 0 0 0 7.182-2.959 10.06 10.06 0 0 0 2.977-7.13m10.972 0h1.61a22.52 22.52 0 0 1-6.668 15.954A22.85 22.85 0 0 1 0 218.575v-1.599a21.23 21.23 0 0 0 14.935-6.15 20.92 20.92 0 0 0 6.196-14.825"/>
    </g>
    <g fill="#DC477D" clip-path="url(#c)">
      <path d="M227.999 576.313H228v1.598h-.001a187.3 187.3 0 0 1-71.711-14.057 186.2 186.2 0 0 1-60.723-40.393 184.6 184.6 0 0 1-40.691-60.277 183.5 183.5 0 0 1-14.163-71.183h1.61a181.9 181.9 0 0 0 14.04 70.572 183 183 0 0 0 40.341 59.758 184.5 184.5 0 0 0 60.202 40.046 185.7 185.7 0 0 0 71.095 13.936m-123.54-61.682a172.2 172.2 0 0 1-37.961-56.227 171.2 171.2 0 0 1-13.21-66.403h-1.61a172.8 172.8 0 0 0 13.333 67.015 173.8 173.8 0 0 0 38.311 56.745 175.3 175.3 0 0 0 57.166 38.028 176.3 176.3 0 0 0 67.511 13.236H228v-1.599h-.001a174.7 174.7 0 0 1-66.895-13.114 173.7 173.7 0 0 1-56.645-37.681m7.758-7.701a161.4 161.4 0 0 1-35.576-52.696 160.4 160.4 0 0 1-12.38-62.233h-1.61a162 162 0 0 0 12.501 62.845 163 163 0 0 0 35.927 53.214 164.3 164.3 0 0 0 53.609 35.663 165.3 165.3 0 0 0 63.311 12.409H228v-1.597h-.001a163.7 163.7 0 0 1-62.694-12.29 162.7 162.7 0 0 1-53.088-35.315m-4.078-114.929h-1.61c.036 31.967 12.846 62.615 35.618 85.22s53.648 35.32 85.852 35.357H228v-1.598h-.001c-31.778-.036-62.244-12.583-84.714-34.888-22.471-22.305-35.11-52.547-35.146-84.091m10.967 0h-1.61c.033 29.081 11.686 56.962 32.402 77.526s48.804 32.131 78.101 32.164H228v-1.597h-.001c-28.87-.033-56.549-11.432-76.963-31.696-20.415-20.264-31.898-47.739-31.93-76.397m8.627 99.535a139.8 139.8 0 0 1-30.81-45.638 138.95 138.95 0 0 1-10.724-53.897h-1.61a140.5 140.5 0 0 0 10.844 54.507 141.4 141.4 0 0 0 31.156 46.156 142.6 142.6 0 0 0 46.499 30.927 143.4 143.4 0 0 0 54.911 10.764H228v-1.597h-.001a141.8 141.8 0 0 1-54.292-10.642 141 141 0 0 1-45.974-30.58m-7.757 7.693a150.6 150.6 0 0 1-33.197-49.164 149.7 149.7 0 0 1-11.552-58.064h-1.61a151.3 151.3 0 0 0 11.674 58.676 152.2 152.2 0 0 0 33.547 49.682 153.4 153.4 0 0 0 50.05 33.299A154.3 154.3 0 0 0 228 545.247v-1.598h-.001a152.7 152.7 0 0 1-58.494-11.467 151.8 151.8 0 0 1-49.529-32.953m15.509-15.395a129 129 0 0 1-28.425-42.107 128.2 128.2 0 0 1-9.893-49.726h-1.61a129.8 129.8 0 0 0 10.014 50.338 130.5 130.5 0 0 0 28.777 42.624 131.6 131.6 0 0 0 42.94 28.565 132.4 132.4 0 0 0 50.711 9.941H228v-1.598h-.001a130.8 130.8 0 0 1-50.095-9.821 130 130 0 0 1-42.419-28.216"/>
      <path d="M227.999 402.09H228v1.599h-.001a11.83 11.83 0 0 1-8.321-3.428 11.65 11.65 0 0 1-3.453-8.26h1.61a10.07 10.07 0 0 0 2.98 7.131 10.22 10.22 0 0 0 7.184 2.958m-21.137-10.089h-1.609a22.52 22.52 0 0 0 6.67 15.958 22.86 22.86 0 0 0 16.076 6.621H228v-1.598h-.001a21.24 21.24 0 0 1-14.939-6.152 20.93 20.93 0 0 1-6.198-14.829m-65.817 0h-1.61c.026 23.307 9.366 45.653 25.969 62.134s39.115 25.752 62.595 25.779H228v-1.599h-.001c-23.053-.026-45.156-9.128-61.457-25.31s-25.471-38.12-25.497-61.004m10.972 0h-1.61c.024 20.42 8.206 39.997 22.752 54.436 14.547 14.439 34.269 22.561 54.84 22.584H228v-1.597h-.001c-20.144-.023-39.457-7.977-53.702-22.116-14.244-14.14-22.257-33.311-22.279-53.307zm43.879 0h-1.61a33.38 33.38 0 0 0 9.885 23.652 33.88 33.88 0 0 0 23.828 9.813H228v-1.597h-.001a32.27 32.27 0 0 1-22.69-9.345 31.8 31.8 0 0 1-9.413-22.523m-10.973 0h-1.609c.013 11.76 4.725 23.034 13.103 31.35s19.735 12.993 31.582 13.007H228v-1.598h-.001c-11.42-.013-22.369-4.522-30.445-12.538a42.65 42.65 0 0 1-12.631-30.221m-10.966 0h-1.61c.016 14.646 5.885 28.687 16.318 39.044s24.58 16.182 39.334 16.199H228v-1.598h-.001c-14.328-.016-28.064-5.673-38.196-15.73s-15.83-23.693-15.846-37.915m-10.973 0h-1.61c.02 17.534 7.046 34.344 19.536 46.742 12.49 12.399 29.425 19.373 47.089 19.393H228v-1.598h-.001c-17.237-.02-33.762-6.825-45.951-18.924s-19.045-28.503-19.064-45.613"/>
    </g>
    <g fill="#DC477D" clip-path="url(#d)">
      <path d="M228 403.688v-1.598a10.2 10.2 0 0 0 7.181-2.96 10.06 10.06 0 0 0 2.977-7.13h1.611a11.66 11.66 0 0 1-3.45 8.26 11.83 11.83 0 0 1-8.319 3.428M272.681 392h-1.61c-.013 11.335-4.555 22.202-12.629 30.217S239.419 434.741 228 434.754v1.598c11.846-.013 23.203-4.69 31.58-13.005s13.088-19.588 13.101-31.347m-10.973 0h-1.609a31.8 31.8 0 0 1-9.411 22.523A32.26 32.26 0 0 1 228 423.868v1.598a33.88 33.88 0 0 0 23.826-9.814A33.38 33.38 0 0 0 261.708 392m-10.967 0h-1.609a20.93 20.93 0 0 1-6.196 14.825A21.23 21.23 0 0 1 228 412.976v1.599a22.85 22.85 0 0 0 16.073-6.62A22.52 22.52 0 0 0 250.741 392M228 512.577v-1.598c20.571.024 40.292 8.147 54.838 22.586s22.726 34.016 22.748 54.435h-1.609c-.022-19.995-8.034-39.166-22.277-53.306-14.243-14.139-33.556-22.093-53.7-22.117M293.01 588h1.61c-.02-17.532-7.045-34.341-19.534-46.738-12.49-12.398-29.423-19.371-47.086-19.391v1.597c17.236.02 33.76 6.825 45.948 18.923 12.187 12.098 19.043 28.5 19.062 45.609m21.939 0h1.61c-.026-23.306-9.365-45.65-25.967-62.131-16.602-16.48-39.112-25.75-62.592-25.777v1.599c23.053.026 45.153 9.127 61.454 25.308 16.3 16.181 25.469 38.119 25.495 61.001m-32.911 0h1.609c-.016-14.645-5.883-28.686-16.315-39.043s-24.577-16.183-39.332-16.2v1.598c14.328.017 28.064 5.674 38.194 15.731s15.828 23.692 15.844 37.914m-32.906 0h1.609a22.52 22.52 0 0 0-6.668-15.955A22.85 22.85 0 0 0 228 565.426v1.598a21.24 21.24 0 0 1 14.935 6.151A20.92 20.92 0 0 1 249.132 588m-10.974 0h1.611a11.66 11.66 0 0 0-3.45-8.259 11.83 11.83 0 0 0-8.319-3.429v1.599a10.2 10.2 0 0 1 7.181 2.959 10.06 10.06 0 0 1 2.977 7.13m21.941 0h1.609a33.37 33.37 0 0 0-9.882-23.651A33.88 33.88 0 0 0 228 554.535v1.597a32.26 32.26 0 0 1 22.688 9.346A31.8 31.8 0 0 1 260.099 588m10.972 0h1.61c-.013-11.758-4.725-23.032-13.101-31.346s-19.734-12.992-31.58-13.006v1.599c11.419.013 22.367 4.521 30.442 12.536s12.616 18.882 12.629 30.217"/>
    </g>
  </g>
  <defs>
    <clipPath id="a">
      <path fill="#fff" d="M228 196H0V0h228z"/>
    </clipPath>
    <clipPath id="b">
      <path fill="#fff" d="M228 392H0V196h228z"/>
    </clipPath>
    <clipPath id="c">
      <path fill="#fff" d="M0 392.001h228v196H0z"/>
    </clipPath>
    <clipPath id="d">
      <path fill="#fff" d="M456 588H228V392h228z"/>
    </clipPath>
  </defs>
</svg>
