<svg xmlns="http://www.w3.org/2000/svg" width="1800" height="560" viewBox="0 0 900 280" xmlns:xlink="http://www.w3.org/1999/xlink">
  <defs>
    <style>
      @font-face{font-family:&quot;Virgil&quot;;src:url(https://excalidraw.com/Virgil.woff2)}@font-face{font-family:&quot;Cascadia&quot;;src:url(https://excalidraw.com/Cascadia.woff2)}
    </style>
  </defs>
  <path fill="#fff" d="M0 0h900v280H0z"/>
  <path fill="none" stroke="#000" stroke-linecap="round" d="M350 30h180m-180 0h180m0 0v80m0-80v80m0 0H350m180 0H350m0 0V30m0 80V30"/>
  <text x="85" y="13" font-family="Helvetica, Segoe UI Emoji" font-size="16" style="white-space:pre" text-anchor="middle" transform="translate(355 53)">Terminating</text>
  <text x="85" y="30" font-family="Helvetica, Segoe UI Emoji" font-size="16" style="white-space:pre" text-anchor="middle" transform="translate(355 53)">Gateway</text>
  <path fill="none" stroke="#000" stroke-linecap="round" d="M690 30h180m-180 0h180m0 0v80m0-80v80m0 0H690m180 0H690m0 0V30m0 80V30"/>
  <text x="85" y="13" font-family="Helvetica, Segoe UI Emoji" font-size="16" style="white-space:pre" text-anchor="middle" transform="translate(695 61.5)">Connect Proxy</text>
  <path fill="none" stroke="#000" stroke-linecap="round" d="M690 170h180m-180 0h180m0 0v80m0-80v80m0 0H690m180 0H690m0 0v-80m0 80v-80"/>
  <text x="85" y="13" font-family="Helvetica, Segoe UI Emoji" font-size="16" style="white-space:pre" text-anchor="middle" transform="translate(695 201.5)">Service</text>
  <path fill="none" stroke="#000" stroke-linecap="round" d="M670 10h220m-220 0h220m0 0v260m0-260v260m0 0H670m220 0H670m0 0V10m0 260V10m120 160v-60m0 60v-60m10.26 28.19c-2.68-7.36-5.36-14.72-10.26-28.19m10.26 28.19c-4.03-11.06-8.05-22.13-10.26-28.19m-10.26 28.19c2.68-7.36 5.36-14.72 10.26-28.19m-10.26 28.19c4.03-11.06 8.05-22.13 10.26-28.19M690 70H530m160 0H530m28.19-10.26c-8.8 3.2-17.6 6.4-28.19 10.26m28.19-10.26C550.69 62.47 543.18 65.2 530 70m28.19 10.26c-8.8-3.2-17.6-6.4-28.19-10.26m28.19 10.26C550.69 77.53 543.18 74.8 530 70"/>
  <text y="13" font-family="Helvetica, Segoe UI Emoji" font-size="16" style="white-space:pre" transform="translate(812.808 133.68)">1</text>
  <text y="13" font-family="Helvetica, Segoe UI Emoji" font-size="16" style="white-space:pre" transform="translate(610 50)">2</text>
  <path fill="none" stroke="#000" stroke-linecap="round" d="M350 70H190m160 0H190m28.19-10.26C210.9 62.39 203.61 65.05 190 70m28.19-10.26c-8.53 3.1-17.05 6.21-28.19 10.26m28.19 10.26C210.9 77.61 203.61 74.95 190 70m28.19 10.26c-8.53-3.1-17.05-6.21-28.19-10.26M10 30h180M10 30h180m0 0v80m0-80v80m0 0H10m180 0H10m0 0V30m0 80V30"/>
  <text x="85" y="13" font-family="Helvetica, Segoe UI Emoji" font-size="16" style="white-space:pre" text-anchor="middle" transform="translate(15 61.5)">Lambda</text>
  <text y="13" font-family="Helvetica, Segoe UI Emoji" font-size="16" style="white-space:pre" transform="translate(270 50)">3</text>
</svg>
