<svg xmlns="http://www.w3.org/2000/svg" width="420" height="503" fill="none" xmlns:xlink="http://www.w3.org/1999/xlink">
  <mask id="a" width="420" height="503" x="0" y="0" maskUnits="userSpaceOnUse" style="mask-type:alpha">
    <path fill="#C4C4C4" d="M0 0h420v503H0z"/>
  </mask>
  <g mask="url(#a)">
    <path fill="#000" d="M85.798 92.398c-.164-.218-.479-.35-.806-.35a1.1 1.1 0 0 0-.467.094 1 1 0 0 0-.352.265L1.639 199.924l-.05.076h2.154L85.004 94.15l75.832 98.783.164.218v-2.795l-75.177-97.91z"/>
    <path fill="#000" d="M85.647 59.25a1.2 1.2 0 0 0-.19-.114 1.1 1.1 0 0 0-.453-.095 1.3 1.3 0 0 0-.466.095l-.088.038v.01a.9.9 0 0 0-.265.227L-23.68 199.923l-.05.076h2.154L84.992 61.144l75.844 98.792.164.208v-2.804L85.798 59.392a.7.7 0 0 0-.151-.143Z"/>
    <path fill="#000" d="M85.798 75.895c-.164-.218-.479-.35-.806-.35a1.1 1.1 0 0 0-.467.094 1 1 0 0 0-.352.265l-95.193 124.02-.05.076h2.14L85.005 77.647l75.832 98.782.164.218v-2.804l-75.177-97.91z"/>
    <path fill="#000" d="M85.798 26.395c-.164-.218-.479-.35-.806-.35a1.1 1.1 0 0 0-.467.094 1 1 0 0 0-.352.265l-133.197 173.52-.05.076h2.14L85.004 28.147l75.832 98.782.164.218v-2.804l-75.177-97.91z"/>
    <path fill="#000" d="M85.823 42.822h-.088l-.013-.01-.012-.037-.076-.029c-.025-.019-.05-.038-.088-.056-.025-.01-.05-.029-.088-.048s-.076-.028-.114-.038a.7.7 0 0 0-.226-.047c-.05-.01-.089-.01-.126-.01a1 1 0 0 0-.177.02c-.025 0-.063.009-.113.018l-.1.029c-.026.01-.051.01-.077.028l-.088.038c-.05.019-.075.047-.1.066l-.126.076v.038c-.013.019-.038.038-.05.057L-36.366 199.924l-.05.076h2.154L85.004 44.65l75.832 98.783.164.208v-2.804l-75.177-97.91zm-.428-.038s0-.01 0 0"/>
    <path fill="#000" d="M-59.593 200 85.004 11.654l75.832 98.782.164.218v-2.814L89.841 15.15l-4.005-5.22-.026-.038c-.163-.218-.478-.35-.806-.35a1.1 1.1 0 0 0-.466.094 1 1 0 0 0-.353.265l-145.87 190.014-.05.076h2.142z"/>
    <g clip-path="url(#b)">
      <path fill="#BFBFC0" d="M41.47 297.652a.55.55 0 0 1 0 .694l-75.731 97.653h-2.142l75.996-98-75.945-97.925-.05-.075h2.14l75.707 97.625zm-12.672 0a1 1 0 0 1 .088.159l.013.029v.028l.012.047v.028c0 .009.013.028.013.075 0 .019 0 .028-.013.056 0 .038-.012.066-.025.103a.3.3 0 0 0-.038.094l-.037.075-75.732 97.653h-2.141l75.995-97.991-75.945-97.934-.05-.075h2.154l75.706 97.616zm25.344.009a.65.65 0 0 1 .114.272.48.48 0 0 1-.089.366l-75.768 97.7h-2.142l75.996-97.991-75.945-97.934-.051-.075h2.142l75.668 97.587zm-38.004 0c.05.075.088.15.113.272a.48.48 0 0 1-.088.366l-75.756 97.7h-2.141l75.995-97.991-75.945-97.934-.05-.075h2.154l75.668 97.587zm50.664.685-75.731 97.653h-2.142l75.996-98-75.945-97.925-.05-.075h2.14l75.732 97.653a.55.55 0 0 1 0 .694m12.672 0-75.73 97.653H1.601l75.995-98-75.945-97.925-.05-.075h2.141l75.731 97.653a.55.55 0 0 1 0 .694Z"/>
      <path fill="#000" d="m14.261 395.999 146.575-189.004.164-.206v2.776L16.415 395.999zm12.672 0 133.903-172.668.164-.206v2.767L29.088 395.999zm12.66 0 121.243-156.331.164-.206v2.766L41.747 395.999zm12.672 0 108.571-140.004.164-.216v2.776L54.42 395.999h-2.154Zm25.332 0 83.239-107.34.164-.216v2.776l-81.249 104.78zm-12.672 0 95.911-123.668.164-.215v2.776L67.079 395.999z"/>
    </g>
    <g fill="#BFBFC0" clip-path="url(#c)">
      <path d="m307.675 395.929.054.07h-2.148L161 209.556v-2.768zm-63.276.07h-2.147L161 291.224v-2.768l83.344 107.473zm37.997 0h-2.148L161 242.224v-2.768l121.341 156.473zm12.67 0h-2.148L161 225.893v-2.768l134.011 172.804zm-25.333 0h-2.148L161 258.561v-2.768l108.678 140.136zm-12.67 0h-2.148L161 274.893v-2.768l96.008 123.804zm-90.805 0L161 389.215v-2.769l7.405 9.553zm65.485 0h-2.148L161 307.541v-2.758l70.688 91.146zm-12.671 0h-2.147L161 323.873v-2.763l58.017 74.819zm-12.663 0h-2.147L161 340.21v-2.763l45.354 58.482zm-27.481 0L161 372.873v-2.758l20.075 25.884zm12.664 0L161 356.541v-2.763l32.739 42.221z"/>
    </g>
    <g fill="#000" clip-path="url(#d)">
      <path d="m242.261 395.999 146.575 190.933.164.208v-2.804L244.415 395.999zm12.672 0 133.903 174.429.164.209v-2.795L257.088 395.999zm12.66 0 121.243 157.926.164.209v-2.795l-119.253-155.34zm12.672 0 108.571 141.433.164.218v-2.805L282.419 395.999zm25.332 0 83.239 108.436.164.218v-2.805l-81.249-105.849zm-12.672 0 95.911 124.929.164.209v-2.804l-93.921-122.334zm-131.761 91.933 70.579-91.933h-2.141l-68.589 89.356v2.795zM161 402.848l5.266-6.849h2.141L161 405.643zm0 68.798v-2.794l55.929-72.853h2.142l-57.907 75.439zm0-16.503v-2.795l43.257-56.349h2.142l-45.248 58.936zm0-32.997v-2.794l17.925-23.353h2.154l-19.915 25.939zm0 16.504v-2.795l30.597-39.856h2.142l-32.575 42.433zm0 63.198v2.795l68.589 89.356h2.141l-70.579-91.933zm0 82.507 7.407 9.644h-2.142L161 587.15zm.164-65.795 57.907 75.439h-2.142L161 521.146v-2.794zm0 16.503 45.247 58.936h-2.141l-43.257-56.349v-2.795zm0 32.997 19.915 25.939h-2.154L161 570.646v-2.794zm0-16.494 32.575 42.433h-2.142L161 554.143v-2.795z"/>
    </g>
  </g>
  <defs>
    <clipPath id="b">
      <path fill="#fff" d="M161 205.999a6 6 0 0 0-6-6H-61a6 6 0 0 0-6 6v184a6 6 0 0 0 6 6h216a6 6 0 0 0 6-6z"/>
    </clipPath>
    <clipPath id="c">
      <path fill="#fff" d="M389 205.999a6 6 0 0 0-6-6H167a6 6 0 0 0-6 6v184a6 6 0 0 0 6 6h216a6 6 0 0 0 6-6z"/>
    </clipPath>
    <clipPath id="d">
      <path fill="#fff" d="M389 401.999a6 6 0 0 0-6-6H167a6 6 0 0 0-6 6v186a6 6 0 0 0 6 6h216a6 6 0 0 0 6-6z"/>
    </clipPath>
  </defs>
</svg>
