<svg xmlns="http://www.w3.org/2000/svg" width="684" height="588" fill="none" xmlns:xlink="http://www.w3.org/1999/xlink">
  <g fill="#000" clip-path="url(#a)">
    <path d="M683.999 380.312v1.598h-.001a187.2 187.2 0 0 1-71.711-14.057 186.2 186.2 0 0 1-60.723-40.392 184.6 184.6 0 0 1-40.691-60.277A183.5 183.5 0 0 1 496.711 196h1.61a181.95 181.95 0 0 0 14.039 70.572 183 183 0 0 0 40.342 59.759 184.6 184.6 0 0 0 60.202 40.045 185.7 185.7 0 0 0 71.095 13.936m-123.54-61.681a172.2 172.2 0 0 1-37.961-56.227A171.2 171.2 0 0 1 509.288 196h-1.61a172.7 172.7 0 0 0 13.333 67.015 173.8 173.8 0 0 0 38.311 56.745 175.3 175.3 0 0 0 57.166 38.028 176.3 176.3 0 0 0 67.511 13.236H684v-1.598h-.001a174.7 174.7 0 0 1-66.895-13.114 173.7 173.7 0 0 1-56.645-37.681m7.758-7.701a161.4 161.4 0 0 1-35.575-52.697A160.4 160.4 0 0 1 520.26 196h-1.61a162 162 0 0 0 12.502 62.846 163 163 0 0 0 35.927 53.214 164.3 164.3 0 0 0 53.609 35.662 165.3 165.3 0 0 0 63.311 12.41H684v-1.597h-.001a163.7 163.7 0 0 1-62.694-12.291 162.8 162.8 0 0 1-53.088-35.314M564.139 196h-1.61c.036 31.968 12.846 62.616 35.618 85.221 22.772 22.604 53.648 35.32 85.852 35.356H684v-1.598h-.001c-31.778-.036-62.244-12.583-84.714-34.888-22.471-22.305-35.11-52.547-35.146-84.091m10.967 0h-1.61c.033 29.082 11.686 56.963 32.402 77.526 20.716 20.564 48.804 32.132 78.101 32.165H684v-1.598h-.001c-28.87-.032-56.549-11.431-76.963-31.696-20.415-20.264-31.898-47.739-31.93-76.397m8.627 99.535a139.8 139.8 0 0 1-30.811-45.638A138.95 138.95 0 0 1 542.199 196h-1.61a140.55 140.55 0 0 0 10.844 54.507 141.4 141.4 0 0 0 31.156 46.157 142.6 142.6 0 0 0 46.499 30.927 143.4 143.4 0 0 0 54.911 10.763H684v-1.597h-.001a141.8 141.8 0 0 1-54.292-10.642 140.9 140.9 0 0 1-45.974-30.58m-7.757 7.694a150.6 150.6 0 0 1-33.197-49.165A149.7 149.7 0 0 1 531.227 196h-1.61a151.25 151.25 0 0 0 11.674 58.676 152.2 152.2 0 0 0 33.547 49.683 153.4 153.4 0 0 0 50.05 33.299A154.4 154.4 0 0 0 684 349.247v-1.599h-.001a152.7 152.7 0 0 1-58.494-11.467 151.8 151.8 0 0 1-49.529-32.952m15.509-15.395a129 129 0 0 1-28.425-42.108A128.2 128.2 0 0 1 553.167 196h-1.61a129.8 129.8 0 0 0 10.014 50.338 130.6 130.6 0 0 0 28.777 42.625 131.6 131.6 0 0 0 42.94 28.564 132.4 132.4 0 0 0 50.711 9.941H684v-1.597h-.001a130.8 130.8 0 0 1-50.095-9.822 130.1 130.1 0 0 1-42.419-28.215"/>
    <path d="M683.999 206.09v1.598h-.001a11.83 11.83 0 0 1-8.321-3.427 11.65 11.65 0 0 1-3.453-8.261h1.61a10.06 10.06 0 0 0 2.98 7.131 10.22 10.22 0 0 0 7.184 2.959M662.862 196h-1.609a22.52 22.52 0 0 0 6.67 15.959 22.86 22.86 0 0 0 16.076 6.621H684v-1.598h-.001a21.24 21.24 0 0 1-14.939-6.153A20.92 20.92 0 0 1 662.862 196m-65.817 0h-1.61c.026 23.308 9.366 45.653 25.969 62.135s39.115 25.752 62.595 25.778H684v-1.598h-.001c-23.053-.026-45.156-9.129-61.457-25.31-16.302-16.182-25.471-38.121-25.497-61.005m10.972 0h-1.61c.024 20.42 8.206 39.997 22.752 54.436 14.547 14.44 34.269 22.562 54.84 22.585H684v-1.598h-.001c-20.144-.023-39.457-7.976-53.702-22.116S608.04 215.996 608.017 196m43.879 0h-1.61a33.38 33.38 0 0 0 9.885 23.652 33.88 33.88 0 0 0 23.828 9.813H684v-1.597h-.001a32.26 32.26 0 0 1-22.69-9.345A31.78 31.78 0 0 1 651.896 196m-10.973 0h-1.609c.013 11.76 4.725 23.035 13.103 31.35s19.735 12.994 31.582 13.007H684v-1.598h-.001c-11.42-.013-22.369-4.522-30.445-12.538S640.936 207.337 640.923 196m-10.966 0h-1.61c.016 14.646 5.885 28.688 16.318 39.044 10.434 10.357 24.58 16.183 39.334 16.199H684v-1.597h-.001c-14.328-.017-28.064-5.674-38.196-15.731s-15.83-23.692-15.846-37.915m-10.973 0h-1.61c.02 17.534 7.046 34.344 19.536 46.743 12.49 12.398 29.425 19.373 47.089 19.393H684v-1.599h-.001c-17.237-.019-33.762-6.825-45.951-18.924S619.003 213.11 618.984 196"/>
  </g>
  <path fill="#000" d="M683.999 87.907v-1.598h-.001c-29.297.033-57.385 11.6-78.101 32.165-20.716 20.563-32.369 48.444-32.402 77.526h1.61c.032-28.658 11.515-56.133 31.93-76.397s48.093-31.664 76.963-31.696m-100.266 8.558a139.8 139.8 0 0 0-30.811 45.638A138.95 138.95 0 0 0 542.199 196h-1.61a141.5 141.5 0 0 1 10.913-54.479 142.3 142.3 0 0 1 31.087-46.185 143.5 143.5 0 0 1 46.528-30.858 144.3 144.3 0 0 1 54.882-10.832H684v1.597h-.001a141.8 141.8 0 0 0-54.292 10.642 140.9 140.9 0 0 0-45.974 30.58M564.139 196h-1.61c.037-31.968 12.846-62.615 35.618-85.22s53.648-35.32 85.852-35.356H684v1.597h-.001c-31.778.036-62.244 12.583-84.714 34.888-22.471 22.305-35.111 52.547-35.146 84.091m27.346-91.834a129 129 0 0 0-28.425 42.108A128.2 128.2 0 0 0 553.167 196h-1.61a130.6 130.6 0 0 1 10.08-50.311 131.4 131.4 0 0 1 28.71-42.651 132.5 132.5 0 0 1 42.968-28.5 133.3 133.3 0 0 1 50.684-10.006H684v1.598h-.001a130.8 130.8 0 0 0-50.094 9.821 130 130 0 0 0-42.42 28.215m-15.509-15.395a150.6 150.6 0 0 0-33.197 49.165A149.7 149.7 0 0 0 531.227 196h-1.61c.002-40.643 16.268-79.62 45.22-108.358 28.952-28.74 68.218-44.886 109.162-44.889H684v1.599h-.001a152.7 152.7 0 0 0-58.495 11.467 151.8 151.8 0 0 0-49.528 32.952M560.459 73.37a172.2 172.2 0 0 0-37.961 56.227A171.2 171.2 0 0 0 509.288 196h-1.61c0-46.419 18.577-90.936 51.644-123.76s77.914-51.263 124.677-51.264H684v1.598h-.001a174.7 174.7 0 0 0-66.895 13.114 173.7 173.7 0 0 0-56.645 37.681Zm7.758 7.701a161.4 161.4 0 0 0-35.575 52.697A160.4 160.4 0 0 0 520.26 196h-1.61a163.1 163.1 0 0 1 12.586-62.811 164.1 164.1 0 0 1 35.843-53.248 165.4 165.4 0 0 1 53.643-35.58 166.4 166.4 0 0 1 63.277-12.493H684v1.598h-.001a163.7 163.7 0 0 0-62.694 12.29 162.8 162.8 0 0 0-53.088 35.314Zm-15.515-15.4a183 183 0 0 0-40.342 59.758A181.95 181.95 0 0 0 498.321 196h-1.61a184.7 184.7 0 0 1 14.255-71.146 185.8 185.8 0 0 1 40.598-60.314 187.4 187.4 0 0 1 60.762-40.3 188.5 188.5 0 0 1 71.673-14.15H684v1.598h-.001a185.7 185.7 0 0 0-71.095 13.936 184.6 184.6 0 0 0-60.202 40.045ZM456 75.424v1.597c20.571-.024 40.292-8.147 54.838-22.586S533.564 20.42 533.587 0h-1.61c-.022 19.996-8.034 39.166-22.277 53.306S476.145 75.4 456 75.424M510.038 0h1.61c-.016 14.646-5.884 28.687-16.316 39.043C484.899 49.4 470.755 55.226 456 55.243v-1.598c14.328-.016 28.063-5.674 38.194-15.73C504.324 27.856 510.022 14.221 510.038 0m10.972 0h1.61c-.02 17.533-7.045 34.341-19.534 46.739C490.596 59.136 473.663 66.11 456 66.13v-1.598c17.236-.02 33.76-6.825 45.948-18.923C514.135 33.511 520.991 17.11 521.01 0m21.939 0h1.61c-.026 23.306-9.365 45.65-25.967 62.13C501.99 78.612 479.48 87.882 456 87.909V86.31c23.053-.026 45.154-9.127 61.454-25.308S542.923 22.884 542.949.001Zm-43.878 0h1.61c-.013 11.759-4.725 23.032-13.101 31.347-8.377 8.314-19.734 12.991-31.58 13.005v-1.599c11.419-.013 22.367-4.52 30.442-12.536S499.058 11.335 499.071 0m-10.972 0h1.61a33.38 33.38 0 0 1-9.883 23.652A33.88 33.88 0 0 1 456 33.466v-1.598a32.26 32.26 0 0 0 22.688-9.346A31.8 31.8 0 0 0 488.099 0m-21.94 0h1.61a11.66 11.66 0 0 1-3.45 8.26A11.83 11.83 0 0 1 456 11.687v-1.599a10.2 10.2 0 0 0 7.182-2.959A10.06 10.06 0 0 0 466.159 0m10.972 0h1.61a22.5 22.5 0 0 1-6.668 15.955A22.85 22.85 0 0 1 456 22.575v-1.6a21.23 21.23 0 0 0 14.935-6.15A20.92 20.92 0 0 0 477.131 0m-249.13 87.907H228v-1.598h.001c29.297.033 57.385 11.6 78.101 32.165 20.716 20.563 32.369 48.444 32.402 77.526h-1.61c-.032-28.658-11.515-56.133-31.93-76.397s-48.093-31.664-76.963-31.696m100.266 8.558a139.8 139.8 0 0 1 30.811 45.638A138.95 138.95 0 0 1 369.801 196h1.61a140.55 140.55 0 0 0-10.844-54.507 141.4 141.4 0 0 0-31.156-46.157 142.6 142.6 0 0 0-46.499-30.927 143.4 143.4 0 0 0-54.911-10.764H228v1.598h.001a141.8 141.8 0 0 1 54.292 10.642 140.9 140.9 0 0 1 45.974 30.58M347.861 196h1.61c-.037-31.968-12.846-62.615-35.618-85.22s-53.648-35.32-85.852-35.356H228v1.597h.001c31.778.036 62.244 12.583 84.714 34.888 22.471 22.305 35.111 52.547 35.146 84.091m-27.346-91.834a129 129 0 0 1 28.425 42.108A128.2 128.2 0 0 1 358.833 196h1.61a129.8 129.8 0 0 0-10.014-50.338 130.6 130.6 0 0 0-28.777-42.625 131.6 131.6 0 0 0-42.94-28.564 132.4 132.4 0 0 0-50.711-9.941H228v1.598h.001a130.8 130.8 0 0 1 50.094 9.821 130 130 0 0 1 42.42 28.215m15.509-15.395a150.6 150.6 0 0 1 33.197 49.165A149.7 149.7 0 0 1 380.773 196h1.61a151.25 151.25 0 0 0-11.674-58.676 152.2 152.2 0 0 0-33.546-49.683 153.4 153.4 0 0 0-50.051-33.299 154.3 154.3 0 0 0-59.111-11.589H228v1.599h.001a152.7 152.7 0 0 1 58.494 11.467 151.8 151.8 0 0 1 49.529 32.952m15.517-15.402a172.2 172.2 0 0 1 37.961 56.227A171.2 171.2 0 0 1 402.712 196h1.61a172.7 172.7 0 0 0-13.333-67.015 173.8 173.8 0 0 0-38.311-56.745 175.3 175.3 0 0 0-57.166-38.028 176.3 176.3 0 0 0-67.511-13.236H228v1.598h.001a174.7 174.7 0 0 1 66.895 13.114 173.7 173.7 0 0 1 56.645 37.681m-7.758 7.701a161.4 161.4 0 0 1 35.575 52.697A160.4 160.4 0 0 1 391.74 196h1.61a162 162 0 0 0-12.502-62.846 163 163 0 0 0-35.927-53.214 164.3 164.3 0 0 0-53.609-35.662 165.3 165.3 0 0 0-63.311-12.41H228v1.598h.001a163.7 163.7 0 0 1 62.694 12.29 162.8 162.8 0 0 1 53.088 35.314m15.515-15.4a183 183 0 0 1 40.342 59.758A181.95 181.95 0 0 1 413.679 196h1.61a183.5 183.5 0 0 0-14.163-71.184 184.6 184.6 0 0 0-40.691-60.277 186.2 186.2 0 0 0-60.723-40.392 187.3 187.3 0 0 0-71.711-14.057H228v1.598h.001a185.7 185.7 0 0 1 71.095 13.936 184.6 184.6 0 0 1 60.202 40.045ZM456 75.424v1.597c-20.571-.024-40.292-8.147-54.838-22.586S378.436 20.42 378.413 0h1.61c.022 19.996 8.034 39.166 22.277 53.306S435.856 75.4 456 75.424M401.962 0h-1.61c.016 14.646 5.884 28.687 16.316 39.043C427.101 49.4 441.245 55.226 456 55.243v-1.598c-14.328-.016-28.063-5.674-38.194-15.73C407.676 27.856 401.978 14.221 401.962 0M390.99 0h-1.61c.02 17.533 7.045 34.341 19.534 46.739C421.404 59.136 438.337 66.11 456 66.13v-1.598c-17.236-.02-33.76-6.825-45.948-18.923C397.865 33.511 391.009 17.11 390.99 0m-21.939 0h-1.61c.026 23.306 9.365 45.65 25.967 62.13C410.01 78.612 432.52 87.882 456 87.909V86.31c-23.053-.026-45.153-9.127-61.454-25.308-16.3-16.18-25.469-38.118-25.495-61.001Zm43.878 0h-1.61c.013 11.759 4.725 23.032 13.101 31.347 8.377 8.314 19.734 12.991 31.58 13.005v-1.599c-11.419-.012-22.367-4.52-30.442-12.536S412.942 11.335 412.929 0m10.972 0h-1.61a33.38 33.38 0 0 0 9.883 23.652A33.88 33.88 0 0 0 456 33.466v-1.598a32.26 32.26 0 0 1-22.688-9.346A31.78 31.78 0 0 1 423.902 0zm21.94 0h-1.61a11.66 11.66 0 0 0 3.45 8.26A11.83 11.83 0 0 0 456 11.687v-1.599a10.2 10.2 0 0 1-7.182-2.959A10.06 10.06 0 0 1 445.841 0m-10.972 0h-1.61a22.5 22.5 0 0 0 6.668 15.955A22.85 22.85 0 0 0 456 22.575v-1.6a21.23 21.23 0 0 1-14.935-6.15A20.92 20.92 0 0 1 434.869 0m-74.434 523.461a184.6 184.6 0 0 0 40.691-60.277A183.5 183.5 0 0 0 415.289 392h-1.609a181.9 181.9 0 0 1-14.04 70.572 183 183 0 0 1-40.342 59.759 184.6 184.6 0 0 1-60.202 40.045 185.6 185.6 0 0 1-71.095 13.936H228v1.598h.001a187.3 187.3 0 0 0 71.711-14.057 186.2 186.2 0 0 0 60.723-40.392m-132.434 43.563H228v-1.598h.001a174.7 174.7 0 0 0 66.895-13.114 173.7 173.7 0 0 0 56.644-37.681 172.2 172.2 0 0 0 37.962-56.227A171.2 171.2 0 0 0 402.712 392h1.611a172.8 172.8 0 0 1-13.334 67.015 173.8 173.8 0 0 1-38.311 56.744 175.2 175.2 0 0 1-57.165 38.029 176.3 176.3 0 0 1-67.512 13.236m0-21.777H228v-1.599h.001a152.7 152.7 0 0 0 58.495-11.467 151.8 151.8 0 0 0 49.528-32.952 150.6 150.6 0 0 0 33.197-49.165A149.7 149.7 0 0 0 380.773 392h1.611a151.3 151.3 0 0 1-11.675 58.676 152.2 152.2 0 0 1-33.546 49.683 153.4 153.4 0 0 1-50.051 33.299 154.4 154.4 0 0 1-59.111 11.589m0-10.893H228v-1.597h.001a141.8 141.8 0 0 0 54.293-10.642 141 141 0 0 0 45.973-30.58 139.8 139.8 0 0 0 30.811-45.638A138.95 138.95 0 0 0 369.801 392h1.609a140.55 140.55 0 0 1-10.844 54.507 141.4 141.4 0 0 1-31.155 46.157 142.6 142.6 0 0 1-46.499 30.927 143.4 143.4 0 0 1-54.911 10.763m0-10.886H228v-1.598h.001a130.8 130.8 0 0 0 50.095-9.821 130.1 130.1 0 0 0 42.419-28.215 129 129 0 0 0 28.425-42.108A128.2 128.2 0 0 0 358.833 392h1.61a129.8 129.8 0 0 1-10.014 50.338 130.6 130.6 0 0 1-28.777 42.625 131.6 131.6 0 0 1-42.94 28.564 132.4 132.4 0 0 1-50.711 9.941m0-10.892H228v-1.597h.001c31.778-.036 62.244-12.583 84.715-34.888 22.47-22.305 35.11-52.547 35.146-84.091h1.608c-.036 31.967-12.845 62.615-35.617 85.22s-53.647 35.32-85.852 35.356m0 43.556H228v-1.598h.001a163.7 163.7 0 0 0 62.694-12.29 162.8 162.8 0 0 0 53.088-35.314 161.4 161.4 0 0 0 35.576-52.697A160.4 160.4 0 0 0 391.74 392h1.61a162 162 0 0 1-12.502 62.846 163 163 0 0 1-35.927 53.214 164.3 164.3 0 0 1-53.609 35.662 165.3 165.3 0 0 1-63.311 12.41m0-54.441H228v-1.598h.001c28.87-.032 56.549-11.431 76.963-31.696 20.415-20.264 31.898-47.739 31.93-76.397h1.61c-.033 29.082-11.686 56.963-32.402 77.526-20.716 20.564-48.804 32.132-78.101 32.165"/>
  <g clip-path="url(#b)">
    <path fill="#000" d="M228 75.423v1.598c-20.571-.024-40.292-8.147-54.838-22.586S150.436 20.42 150.414 0h1.609c.022 19.996 8.034 39.166 22.277 53.306S207.856 75.4 228 75.423M162.99 0h-1.61c.02 17.532 7.045 34.341 19.534 46.739 12.49 12.397 29.423 19.37 47.086 19.39v-1.597c-17.236-.02-33.76-6.825-45.948-18.923C169.865 33.511 163.009 17.11 162.99 0m-21.939 0h-1.61c.026 23.306 9.365 45.65 25.967 62.13C182.01 78.612 204.52 87.882 228 87.909V86.31c-23.053-.026-45.153-9.127-61.454-25.308-16.3-16.18-25.469-38.118-25.495-61.001Zm32.911 0h-1.609c.016 14.646 5.883 28.687 16.316 39.043C199.101 49.4 213.245 55.226 228 55.243v-1.598c-14.328-.016-28.064-5.674-38.194-15.73C179.676 27.856 173.978 14.221 173.962 0m32.906 0h-1.609a22.52 22.52 0 0 0 6.668 15.955A22.85 22.85 0 0 0 228 22.575v-1.6a21.23 21.23 0 0 1-14.935-6.15A20.92 20.92 0 0 1 206.868 0m10.974 0h-1.611a11.66 11.66 0 0 0 3.45 8.26A11.83 11.83 0 0 0 228 11.687v-1.599a10.2 10.2 0 0 1-7.181-2.96A10.06 10.06 0 0 1 217.842 0m-21.941 0h-1.609a33.38 33.38 0 0 0 9.882 23.651A33.88 33.88 0 0 0 228 33.465v-1.597a32.26 32.26 0 0 1-22.688-9.346A31.8 31.8 0 0 1 195.901 0m-10.972 0h-1.61c.013 11.759 4.725 23.032 13.101 31.347 8.377 8.314 19.734 12.992 31.58 13.005v-1.599c-11.419-.013-22.367-4.52-30.442-12.536S184.942 11.335 184.929 0"/>
  </g>
  <defs>
    <clipPath id="a">
      <path fill="#fff" d="M456 196h228v196H456z"/>
    </clipPath>
    <clipPath id="b">
      <path fill="#fff" d="M0 0h228v196H0z"/>
    </clipPath>
  </defs>
</svg>
