<svg xmlns="http://www.w3.org/2000/svg" width="664" height="576" fill="none" viewBox="0 0 664 576" xmlns:xlink="http://www.w3.org/1999/xlink">
  <g clip-path="url(#a)">
    <path fill="#EC585D" fill-opacity=".5" d="M247.437 191.681h3.126L442.667 80.769v-1.804L247.675 191.543zm-18.206-.138L442.667 68.316v1.804L232.119 191.681h-3.126zm55.333 0 158.103-91.281v1.804l-155.216 89.615h-3.125zm-18.444 0 176.547-101.93v1.804l-173.66 100.264h-3.125zm36.889 0 139.658-80.632v1.804l-136.771 78.966h-3.126zm18.444 0 121.214-69.984v1.804L324.34 191.681h-3.125z"/>
  </g>
  <g fill="#EC585D" fill-opacity=".5" clip-path="url(#b)">
    <path d="m442.804 165.87 44.719 25.811h3.12l-47.839-27.622zm0-10.652 63.161 36.463h3.126l-66.287-38.268zm0 21.298 26.271 15.165h3.126l-29.397-16.97zm0 10.652 7.822 4.513h3.131l-10.953-6.324zm103.178 4.513-102.939-59.428-.239-.138v1.805l100.052 57.761zm-103.178-47.109 81.604 47.109h3.125l-84.49-48.782-.239-.138zm157.963-80.541.238-.137-47.283-27.301-.389-.223-110.666 63.888v1.805L553.333 38.17l44.547 25.724L542.785 95.7l-.238.138L663.92 165.91l.08.046v-1.805L545.672 95.838zm18.448 0 .238-.137-65.731-37.953-.389-.223-110.666 63.894v1.805l110.666-63.893 62.995 36.37L561.233 95.7l-.238.138 102.925 59.427.08.046v-1.805l-99.88-57.668zm-36.89 0 .237-.137-29.229-16.878-110.666 63.893v1.806l110.666-63.893 26.105 15.072L524.342 95.7l-.238.138 139.816 80.725.08.046v-1.805L527.229 95.838zm55.333 0 .238-.137-84.174-48.6-.389-.222L442.667 78.96v1.806l110.666-63.894 81.438 47.022L579.675 95.7l-.237.138 84.482 48.776.08.046v-1.806l-81.438-47.016zm-73.776 0 .238-.137-10.787-6.232-110.666 63.894v1.805l110.666-63.893 7.662 4.426L505.899 95.7l-.237.138 158.258 91.371.08.046v-1.805L508.786 95.838zm92.219 0 .237-.137L553.722 4.643l-.389-.222-110.666 63.893v1.805L553.333 6.226l99.88 57.668L598.118 95.7l-.238.138 66.04 38.129.08.046v-1.805l-62.995-36.37z"/>
  </g>
  <g fill="#EC585D" fill-opacity=".5" clip-path="url(#c)">
    <path d="M637.901 383.362 664 368.29v-1.8l-29.23 16.872zm-58.464 0h3.131L664 336.346v-1.806l-84.325 48.684zm21.573 0 62.99-36.37v-1.806l-66.12 38.176zm55.334 0 7.656-4.42v-1.806l-10.787 6.226zm-36.891 0L664 357.644v-1.805l-47.672 27.523zm-58.459 0h3.126L664 325.694v-1.805l-102.767 59.335zm-33.765-191.681h-3.13l-81.432 47.016v1.806l84.324-48.685zm18.443 0h-3.125l-99.88 57.662v1.806l102.767-59.331zm-76.906 0-26.099 15.072v1.806l29.229-16.878zm18.447 0-44.546 25.718v1.806l47.671-27.524zm-36.89 0-7.656 4.421v1.805l10.787-6.226zm55.333 0-62.989 36.365v1.805l66.12-38.17zm-7.404 38.026 65.869-38.026h-3.131l-63.517 36.672zm-10.004 5.164 9.752 5.632 84.325-48.685.238-.137h-3.131L498 238.697l-8.966-5.173zm-26.881 14.622-.785 1.353 37.027 21.377.391.23 139.658-80.635.238-.137h-3.13L498 270.646l-36.496-21.074zm18.442-10.646-.784 1.353L498 251.155l102.767-59.337.238-.137h-3.125L498 249.349l-18.053-10.423zm-10.002 6.677L498 261.8l121.216-69.982.238-.137h-3.131L498 259.995l-27.415-15.826zm-17.664 9.292-.785 1.353 46.253 26.707.39.222 158.1-91.28.237-.137h-3.125L498 281.293l-45.72-26.398z"/>
  </g>
  <g fill="#EC585D" fill-opacity=".5" clip-path="url(#d)">
    <path d="M527.23 383.362h-3.126l-81.437 47.018v1.805l84.325-48.686zm-76.904 0-7.659 4.422v1.805l10.785-6.227zm95.348 0h-3.126l-99.881 57.667v1.805l102.77-59.335zm-58.459 0-44.548 25.72v1.805l47.674-27.525zm18.445 0-62.993 36.369v1.805l66.119-38.174zm-36.889 0-26.104 15.071v1.805l29.23-16.876zm73.778 191.681h3.126l54.158-31.271.138-.08-.781-1.353zm48.203-36.674-.781-1.353-65.868 38.027h3.126l63.386-36.594zm-36.89-21.297-.782-1.354-102.515 59.187-.239.138h3.127l100.271-57.892zm18.442 10.651-.781-1.353-84.067 48.535-.239.138h3.126l81.824-47.24zm9.224 5.323-.781-1.353-75.087 43.35h3.126l72.605-41.917zm-18.442-10.652-.782-1.354-93.296 53.865-.239.138h3.126l91.053-52.569zm-109.634-75.138 110.428-63.757.238-.137h-3.126l-110.427 63.756-.239.138 157.95 91.193.391.225L664 506.727v-1.805l-55.333 31.948zm18.444 0 110.428-63.757.238-.137h-3.125l-110.428 63.756-.238.138L608.276 527.8l.391.225L664 496.078v-1.804l-55.333 31.947zm18.445 0 110.428-63.757.238-.137h-3.126l-110.427 63.756-.239.138 121.061 69.895.391.225L664 485.429v-1.805l-55.333 31.948zm55.333 0 110.428-63.757.238-.137h-3.126l-110.427 63.756-.238.138 65.727 37.948.391.225L664 453.482v-1.804l-55.333 31.946zm-18.444 0 110.428-63.757.238-.137h-3.126l-110.428 63.756-.238.138 84.172 48.597.391.225L664 464.131v-1.804l-55.333 31.947zm-18.445 0 110.429-63.757.237-.137h-3.125l-110.428 63.756-.238.138 102.616 59.246.391.225L664 474.78v-1.805l-55.333 31.948z"/>
  </g>
  <g fill="#EC585D" fill-opacity=".5" clip-path="url(#e)">
    <path d="M358.103 383.713h3.127l81.437 47.018v1.805l-84.326-48.686zm76.904 0 7.66 4.422v1.805l-10.786-6.227zm-95.348 0h3.126l99.882 57.667v1.805l-102.77-59.335zm58.46 0 44.548 25.72v1.805l-47.675-27.525zm-18.445 0 62.993 36.369v1.805l-66.119-38.174zm36.889 0 26.104 15.071v1.805l-29.23-16.876zm-73.779 191.681h-3.126L285.5 544.123l-.137-.08.781-1.353zm-48.203-36.674.781-1.353 65.869 38.027h-3.126L294.719 538.8zm36.891-21.297.781-1.354 102.515 59.187.239.138h-3.126l-100.272-57.892zm-18.443 10.651.782-1.353 84.066 48.535.239.138h-3.126l-81.823-47.24zm-9.224 5.323.781-1.353 75.088 43.35h-3.127l-72.604-41.918zm18.443-10.652.781-1.354 93.296 53.865.239.138h-3.126l-91.053-52.569zm109.633-75.138L321.453 383.85l-.238-.137h3.126l110.428 63.756.238.138-157.95 91.193-.39.225-55.334-31.947v-1.805l55.334 31.948zm-18.444 0L303.009 383.85l-.238-.137h3.126l110.427 63.756.239.138-139.506 80.544-.39.225-55.334-31.947v-1.804l55.334 31.947zm-18.444 0L284.564 383.85l-.237-.137h3.125l110.428 63.756.238.138-121.061 69.895-.39.225-55.333-31.947v-1.805l55.333 31.948zm-55.334 0L229.231 383.85l-.238-.137h3.126l110.428 63.756.238.138-65.728 37.948-.39.225-55.333-31.947v-1.804l55.333 31.946zm18.445 0L247.676 383.85l-.238-.137h3.126l110.427 63.756.238.138-84.172 48.597-.39.225-55.333-31.947v-1.804l55.333 31.947zm18.444 0L266.12 383.85l-.238-.137h3.126l110.427 63.756.239.138-102.617 59.246-.39.225-55.333-31.947v-1.805l55.333 31.948z"/>
  </g>
  <g fill="#EC585D" fill-opacity=".5" clip-path="url(#f)">
    <path d="M99.882 575.043h3.127l54.158-31.271.137-.08-.781-1.353zm48.203-36.674-.78-1.353-65.87 38.027h3.127l63.386-36.594zm-18.448-10.646-.781-1.353-84.067 48.535-.238.138h3.125l81.824-47.24zm9.224 5.323-.78-1.354-75.088 43.351h3.126l72.605-41.917zm-27.666-15.974-.781-1.354L7.899 574.905l-.24.138h3.127l100.271-57.892zm9.224 5.322-.781-1.354-93.296 53.865-.24.138h3.127l91.052-52.569zm-35.856-75.138L194.99 383.5l.239-.138h-3.126L81.676 447.118l-.239.138 84.173 48.597.39.225 55.333-31.947v-1.804L166 494.274zm-18.445 0 110.43-63.756.239-.138h-3.127L63.231 447.118l-.238.138 102.616 59.246.391.225 55.333-31.947v-1.804L166 504.923zm36.889 0L213.436 383.5l.238-.138h-3.126L100.12 447.118l-.238.138 65.728 37.948.39.225 55.333-31.946v-1.805L166 483.625zm-92.222 0L121.213 383.5l.239-.138h-3.126L7.898 447.118l-.238.138 157.949 91.193.391.225 55.333-31.947v-1.805L166 536.87zm18.445 0L139.658 383.5l.239-.138h-3.126L26.343 447.118l-.24.138L165.61 527.8l.391.225 55.333-31.947v-1.804L166 526.221zm18.444 0L158.102 383.5l.239-.138h-3.126L44.787 447.118l-.239.138 121.061 69.895.391.225 55.333-31.947v-1.805L166 515.572z"/>
  </g>
  <g fill="#EC585D" fill-opacity=".5" clip-path="url(#g)">
    <path d="M358.103 192.032h3.127l81.437 47.018v1.805l-84.326-48.686zm76.904 0 7.66 4.422v1.805l-10.786-6.227zm-95.348 0h3.126l99.882 57.667v1.805l-102.77-59.335zm58.46 0 44.548 25.72v1.805l-47.675-27.525zm-18.445 0 62.993 36.369v1.805l-66.119-38.174zm36.889 0 26.104 15.071v1.805l-29.23-16.876zm-73.779 191.681h-3.126L285.5 352.442l-.137-.08.781-1.353zm-48.203-36.674.781-1.353 65.869 38.027h-3.126l-63.386-36.594zm36.891-21.297.781-1.354 102.515 59.187.239.138h-3.126l-100.272-57.892zm-18.443 10.651.782-1.353 84.066 48.535.239.138h-3.126l-81.823-47.24zm-9.224 5.323.781-1.353 75.088 43.35h-3.127l-72.604-41.918zm18.443-10.652.781-1.354 93.296 53.865.239.138h-3.126l-91.053-52.569zm109.633-75.138-110.428-63.757-.238-.137h3.126l110.428 63.756.238.138-157.95 91.193-.39.225-55.334-31.947v-1.805l55.334 31.948zm-18.444 0-110.428-63.757-.238-.137h3.126l110.427 63.756.239.138-139.506 80.544-.39.225-55.334-31.947v-1.805l55.334 31.948zm-18.444 0-110.429-63.757-.237-.137h3.125l110.428 63.756.238.138-121.061 69.895-.39.225-55.333-31.947v-1.805l55.333 31.948zm-55.334 0-110.428-63.757-.238-.137h3.126l110.428 63.756.238.138-65.728 37.948-.39.225-55.333-31.947v-1.804l55.333 31.946zm18.445 0-110.428-63.757-.238-.137h3.126l110.427 63.756.238.138-84.172 48.597-.39.225-55.333-31.947v-1.804l55.333 31.946zm18.444 0L266.12 192.169l-.238-.137h3.126l110.427 63.756.239.138-102.617 59.246-.39.225-55.333-31.947v-1.805l55.333 31.948z"/>
  </g>
  <defs>
    <clipPath id="a">
      <path fill="#fff" d="M221.333 0h221.333v191.681H221.333z"/>
    </clipPath>
    <clipPath id="b">
      <path fill="#fff" d="M442.667 0H664v191.681H442.667z"/>
    </clipPath>
    <clipPath id="c">
      <path fill="#fff" d="M442.667 191.681H664v191.681H442.667z"/>
    </clipPath>
    <clipPath id="d">
      <path fill="#fff" d="M442.667 383.362H664v191.681H442.667z"/>
    </clipPath>
    <clipPath id="e">
      <path fill="#fff" d="M221.333 383.713h221.333v191.681H221.333z"/>
    </clipPath>
    <clipPath id="f">
      <path fill="#fff" d="M0 383.362h221.333v191.681H0z"/>
    </clipPath>
    <clipPath id="g">
      <path fill="#fff" d="M221.333 192.032h221.333v191.681H221.333z"/>
    </clipPath>
  </defs>
</svg>
