<svg xmlns="http://www.w3.org/2000/svg" width="400" height="200" fill="none" viewBox="0 0 400 200">
  <path fill="#00BECA" d="M128 74.338c0-5.132 3.663-9.338 9.554-9.338 6.177 0 9.553 4.42 9.553 9.552 0 5.703-4.166 9.125-9.481 9.125-5.747 0-9.626-3.85-9.626-9.339m.072 17.109c0-.856.503-1.497 1.508-1.497h16.09c.863 0 1.438.641 1.438 1.497v24.45c0 4.135 2.37 8.982 9.769 8.982 7.183 0 10.918-4.42 10.918-13.472v-1.925l7.615 14.4 1.005 4.918s-7.47 7.2-21.047 7.2c-6.752 0-27.224-1.07-27.224-23.31V91.447z"/>
  <path fill="#8C7B11" d="m176.343 128.8 7.614-19.531 2.442-2.424v3.422c0 8.197 4.023 14.542 14.439 14.542 9.482 0 16.162-5.347 16.162-13.616 0-4.206-2.083-7.556-2.083-7.556l10.775 5.346.934 12.974s-7.184 13.972-27.369 13.972c-15.73 0-22.914-7.128-22.914-7.128"/>
  <path fill="#000" d="M176.343 128.8s-8.62-6.558-8.62-18.748v-35c0-2.78 1.796-5.276 9.482-5.276 8.332 0 9.266 3.208 9.266 5.632V89.95h14.798c1.077 0 1.508.641 1.508 1.568v8.697c0 .784-.359 1.497-1.293 1.497h-9.913c-2.514 0-5.172-.998-5.172-.998v5.845c0 7.343-1.867 14.828-10.056 22.241"/>
  <path fill="#FFAB00" d="m226.626 121.957 2.37-25.592 1.078-4.42s4.67 6.773 16.593 28.586c7.543-13.687 12.427-30.01 12.427-30.01.36-1.141 1.221-1.355 2.514-1.07l8.19 2.495c1.005.356 1.508.713 1.005 2.566-6.824 19.604-17.455 35.857-17.455 35.857-2.084 2.993-4.167 5.56-11.062 5.56-5.603 0-7.543-1.854-9.482-4.776z"/>
  <path fill="#C80063" d="m226.626 121.957-12.714-19.96c-.79-1.426-1.365-2.281-1.365-3.992 0-2.495 1.293-4.277 5.675-6.986.934-.641 4.381-1.996 7.183-1.996 3.735 0 6.537 3.85 6.537 11.905 0 13.188-5.316 21.029-5.316 21.029"/>
</svg>
