<svg xmlns="http://www.w3.org/2000/svg" width="225" height="84" fill="none" viewBox="0 0 225 84">
  <style>
    @media (prefers-color-scheme:dark){:root{--text-color:#FFFFFF;--background-color:#0d1117}}@media (prefers-color-scheme:light){:root{--text-color:#000000;--background-color:#FFFFFF}}.text{fill:var(--text-color)}
  </style>
  <path fill="var(--background-color)" d="M0 0h225v84H0z"/>
  <path fill="#000" d="M84.23 19.86v-3.23h-3v3.23h-1.46v-7.75h1.51v3.25h3v-3.25h1.51v7.75zm7 0h-1.2l-.03-.38a3.3 3.3 0 0 1-1.78.52c-1.06 0-1.52-.7-1.52-1.66 0-1.14.51-1.57 1.7-1.57h1.4v-.62c0-.62-.18-.84-1.11-.84-.54.005-1.08.062-1.61.17l-.18-1.07a8 8 0 0 1 2-.26c1.83 0 2.37.62 2.37 2zm-1.43-2.11h-1.08c-.48 0-.61.13-.61.55s.13.56.59.56a2.4 2.4 0 0 0 1.1-.29zM94.31 20a7.1 7.1 0 0 1-2-.32l.2-1.07a6.8 6.8 0 0 0 1.73.24c.65 0 .74-.14.74-.56s-.07-.52-1-.73c-1.42-.33-1.59-.68-1.59-1.76s.51-1.62 2.18-1.62c.589.002 1.176.07 1.75.2l-.14 1.11a11 11 0 0 0-1.6-.16c-.63 0-.74.14-.74.48s0 .48.82.68c1.63.41 1.78.62 1.78 1.77S96.07 20 94.31 20m6.69-.14V16c0-.3-.13-.45-.47-.45A4.1 4.1 0 0 0 99 16v3.86h-1.46V12l1.46.22v2.47a5.3 5.3 0 0 1 2.13-.54c1 0 1.32.65 1.32 1.65v4.06zm2.68-6.38v-1.37h1.46v1.37zm0 6.38v-5.59h1.46v5.59zm2.62-5.54c0-1.4.85-2.22 2.83-2.22a9.4 9.4 0 0 1 2.16.25l-.17 1.25a12 12 0 0 0-1.95-.2c-1 0-1.37.34-1.37 1.16v2.94c0 .81.33 1.16 1.37 1.16a12 12 0 0 0 1.95-.2l.17 1.25a9.4 9.4 0 0 1-2.16.29c-2 0-2.83-.81-2.83-2.22zm8.21 5.68c-1.99 0-2.51-1.08-2.51-2.23v-1.41c0-1.15.54-2.2 2.53-2.2s2.47 1.05 2.47 2.2v1.41c0 1.15-.49 2.23-2.49 2.23m0-4.63c-.78 0-1.08.33-1.08 1v1.5c0 .63.3 1 1.08 1s1.08-.33 1.08-1v-1.56c0-.63-.3-.96-1.08-.96zm6.64.09a11.6 11.6 0 0 0-1.54.81v3.6h-1.46v-5.6h1.23l.1.62c.473-.31.984-.56 1.52-.74zM127 18a1.726 1.726 0 0 1-1.128 1.913 1.7 1.7 0 0 1-.792.087 8.4 8.4 0 0 1-1.55-.16v2.26l-1.53.21v-8h1.16l.14.47a3.15 3.15 0 0 1 1.84-.59c1.17 0 1.79.67 1.79 1.94zm-3.48.63q.638.137 1.29.15c.53 0 .73-.24.73-.75v-2c0-.46-.18-.71-.72-.71a2.1 2.1 0 0 0-1.3.51z" class="text"/>
  <path fill="#02a8ef" d="m23 19.34 19.45 11.24v41.43L23 60.77z"/>
  <path fill="#02a8ef" d="M52.07 24.19 30.94 12v8.47l14.37 8.3v25.36L52.07 58c4.19 2.42 7.61 1 7.61-3.22V36.19c0-4.19-3.42-9.59-7.61-12"/>
  <path fill="#000" d="M79.77 26.1h12.48c7.4 0 10.13 3 10.13 8.65v4.37c0 5.57-3 8.6-10.42 8.6h-6.14v10.37h-6.05zm12.15 5.33h-6.1v11h6.1c3.41 0 4.42-1.25 4.42-3.89v-3.32c0-2.64-1.11-3.79-4.42-3.79m30.93 26.66H118l-.43-1.58a12.8 12.8 0 0 1-7 2.07c-4.27 0-6.1-2.93-6.1-7 0-4.76 2.07-6.58 6.82-6.58H117v-2.43c0-2.59-.72-3.51-4.47-3.51a32.7 32.7 0 0 0-6.48.72l-.72-4.47a30.5 30.5 0 0 1 8-1.1c7.35 0 9.51 2.59 9.51 8.45zM117 49.25h-4.33c-1.92 0-2.45.53-2.45 2.31s.53 2.35 2.35 2.35a9.2 9.2 0 0 0 4.43-1.2zm9.35.34V43.2c0-6.29 2.74-9 10.09-9 1.938.01 3.865.3 5.72.86l-.72 4.8a21.3 21.3 0 0 0-4.85-.62c-3.36 0-4.37 1-4.37 3.89v6.48c0 2.88 1 3.89 4.37 3.89a19.8 19.8 0 0 0 4.85-.62l.72 4.8a19.3 19.3 0 0 1-5.72.86c-7.35.03-10.09-2.66-10.09-8.95m19.5 8.5V25.14l5.86-.82v33.77zm19.89-23.39-6.87 11.58L166 58.09h-6.44l-7.06-11.82 6.68-11.58zm12.2 19.06a24.5 24.5 0 0 0 7.16-1.1l.91 4.42a25.1 25.1 0 0 1-8.6 1.49c-7.35 0-9.89-3.41-9.89-9v-6.2c0-4.95 2.21-9.13 9.7-9.13s9.17 4.37 9.17 9.41v5h-13v1.2c-.02 2.81.99 3.91 4.55 3.91m-4.56-9.85h7.44v-1.14c0-2.21-.67-3.75-3.55-3.75s-3.89 1.54-3.89 3.75zM202 39.6a46 46 0 0 0-6.2 3.41v15.08H190V34.7h4.95l.38 2.59a26.2 26.2 0 0 1 6.15-3.07z" class="text"/>
</svg>
