<svg xmlns="http://www.w3.org/2000/svg" width="388" height="335" fill="none" viewBox="0 0 388 335">
  <path fill="#63D0FF" d="M285.752 167h-2.754L195 116.758v-1.572l90.542 51.694zm-81.25 0L195 161.574v1.572l6.749 3.854zm64.791-.12L195 124.463v1.573L266.749 167h2.753zm-16.25 0L195 133.74v1.573L250.499 167h2.754zm-32.5 0L195 152.296v1.573L217.998 167h2.754zm16.249 0L195 143.018v1.573L234.249 167h2.753zM299.248 0h2.754L390 50.242v1.572L299.457.12zm81.25 0L390 5.426V3.854L383.251 0zm-64.791.12L390 42.537v-1.573L318.251 0h-2.754zm16.25 0L390 33.26v-1.573L334.501 0h-2.754zm32.5 0L390 14.704V13.13L367.001 0h-2.754zm-16.25 0L390 23.982v-1.573L350.751 0h-2.753z"/>
  <path fill="#63D0FF" d="M217.88 167h2.74L389 264.209v1.582l-170.911-98.67zm-15.958.121L389 275.124v-1.581L204.453 167h-2.74zm48.5 0L389 247.125v-1.582L252.953 167h-2.74zm-16.166 0L389 256.458v-1.581L236.786 167h-2.739zm32.333 0L389 237.792v-1.582L269.12 167h-2.74zm16.166 0L389 228.459v-1.582L285.286 167h-2.74zM366.12 335h-2.74L195 237.791v-1.582l170.911 98.67zm15.958-.121L195 226.876v1.581L379.547 335h2.739zm-48.5 0L195 254.875v1.582L331.047 335h2.739zm16.166 0L195 245.542v1.581L347.214 335h2.739zm-32.333 0L195 264.208v1.582L314.88 335h2.74zm-16.166 0L195 273.541v1.582L298.714 335h2.739zm-15.958.121h-2.74L195 284.457v-1.582l90.078 52.004zm-80.834 0L195 329.542v1.581l6.714 3.877zm64.459-.121L195 292.209v1.581L266.381 335h2.739zm-16.167 0L195 301.541v1.582L250.214 335h2.74zm-32.333 0L195 320.208v1.583L217.88 335h2.74zm16.166 0L195 310.875v1.581L234.047 335h2.74zm152.352-41.128L195 181.79v-1.58l.07.04L389 292.209v1.582zm.07 9.373v-1.582l-193.93-111.96-.07-.04v1.582l193.93 111.96zm0-18.666v-1.583L195.07 170.916l-.07-.04v1.581l193.93 111.961zm0 27.999v-1.581l-193.93-111.96-.07-.04v1.581l193.93 111.96zm0 9.334v-1.582l-193.93-111.96-.07-.04v1.582L388.93 321.75zm0 9.333v-1.581l-193.93-111.96-.07-.041v1.582l193.93 111.96zM1 273.647a.684.684 0 0 0-.67.821.69.69 0 0 0 .537.539.68.68 0 0 0 .701-.292.69.69 0 0 0-.306-1.016.7.7 0 0 0-.262-.052m0-9.334a.685.685 0 0 0-.67.821.69.69 0 0 0 .537.54.684.684 0 0 0 .765-.937.7.7 0 0 0-.37-.372.7.7 0 0 0-.262-.052m0 18.667a.68.68 0 0 0-.631.424.69.69 0 0 0 .498.937.684.684 0 0 0 .765-.937.68.68 0 0 0-.632-.424m0-37.334a.688.688 0 0 0-.133 1.361.684.684 0 0 0 .765-.937.68.68 0 0 0-.37-.371.7.7 0 0 0-.262-.053m0 9.334a.685.685 0 0 0-.67.821.678.678 0 0 0 .932.5.68.68 0 0 0 .422-.634.69.69 0 0 0-.422-.635.7.7 0 0 0-.262-.052m0 65.333a.685.685 0 0 0-.67.821.69.69 0 0 0 .537.54.684.684 0 0 0 .765-.937.7.7 0 0 0-.37-.372.7.7 0 0 0-.262-.052m0-9.333a.68.68 0 0 0-.631.424.69.69 0 0 0 .148.748.68.68 0 0 0 1.051-.104A.687.687 0 0 0 1 310.98m0-18.667a.685.685 0 0 0-.67.821.69.69 0 0 0 .537.54.684.684 0 0 0 .765-.937.7.7 0 0 0-.37-.372.7.7 0 0 0-.262-.052m0 9.333a.685.685 0 0 0-.67.821.686.686 0 0 0 .932.501.684.684 0 0 0 .37-.897.67.67 0 0 0-.37-.372.7.7 0 0 0-.262-.053m0-74.666a.68.68 0 0 0-.631.424.69.69 0 0 0 .148.748.68.68 0 0 0 1.051-.104A.687.687 0 0 0 1 226.98m0-37.333a.684.684 0 0 0-.67.821.69.69 0 0 0 .537.539.68.68 0 0 0 .701-.292.69.69 0 0 0-.306-1.016.7.7 0 0 0-.262-.052m0-9.334a.685.685 0 0 0-.67.821.69.69 0 0 0 .537.54.684.684 0 0 0 .765-.937.7.7 0 0 0-.37-.372.7.7 0 0 0-.262-.052m0-9.333a.685.685 0 0 0-.67.821.678.678 0 0 0 .932.5.68.68 0 0 0 .422-.634.69.69 0 0 0-.422-.635.7.7 0 0 0-.262-.052m0 28a.68.68 0 0 0-.631.424.69.69 0 0 0 .498.937.684.684 0 0 0 .765-.937.68.68 0 0 0-.632-.424m0 18.666a.685.685 0 0 0-.67.821.686.686 0 0 0 .932.501.684.684 0 0 0 .37-.897.67.67 0 0 0-.37-.372.7.7 0 0 0-.262-.053m0-9.333a.685.685 0 0 0-.67.821.69.69 0 0 0 .537.54.684.684 0 0 0 .765-.937.7.7 0 0 0-.37-.372.7.7 0 0 0-.262-.052m0 121.333a.688.688 0 0 0-.133 1.361.684.684 0 0 0 .765-.937.68.68 0 0 0-.37-.371.7.7 0 0 0-.262-.053m0-93.333a.685.685 0 0 0-.67.821.69.69 0 0 0 .537.54.684.684 0 0 0 .765-.937.7.7 0 0 0-.37-.372.7.7 0 0 0-.262-.052m72.375-70a.685.685 0 0 0-.67.821.69.69 0 0 0 .537.54.684.684 0 0 0 .764-.937.7.7 0 0 0-.37-.372.7.7 0 0 0-.261-.052m16.084 0a.686.686 0 0 0-.67.821.69.69 0 0 0 .536.54.684.684 0 0 0 .817-.674.684.684 0 0 0-.683-.687m16.083 0a.69.69 0 0 0-.631.424.68.68 0 0 0 .148.749.69.69 0 0 0 .745.149.686.686 0 0 0 .369-.898.68.68 0 0 0-.631-.424m80.417 0a.69.69 0 0 0-.484 1.173.69.69 0 0 0 .745.149.68.68 0 0 0 .422-.635.684.684 0 0 0-.683-.687m-144.75 0a.686.686 0 0 0-.67.821.69.69 0 0 0 .536.54.684.684 0 0 0 .817-.674.684.684 0 0 0-.683-.687m128.666 0a.69.69 0 0 0-.631.424.69.69 0 0 0 .148.749.69.69 0 0 0 .745.149.684.684 0 0 0 .221-1.121.68.68 0 0 0-.483-.201m-144.75 0a.686.686 0 0 0-.67.821.69.69 0 0 0 .537.54.684.684 0 0 0 .817-.674.684.684 0 0 0-.683-.687zm96.5 0a.69.69 0 0 0-.631.424.69.69 0 0 0 .148.749.69.69 0 0 0 .745.149.684.684 0 0 0 .221-1.121.7.7 0 0 0-.483-.201m-64.333 0a.684.684 0 0 0-.67.821.69.69 0 0 0 .537.54.684.684 0 0 0 .764-.937.7.7 0 0 0-.37-.372.7.7 0 0 0-.261-.052m80.417 0a.69.69 0 0 0-.484 1.173.69.69 0 0 0 .745.149.68.68 0 0 0 .422-.635.684.684 0 0 0-.683-.687m-128.667 0a.685.685 0 0 0-.67.821.69.69 0 0 0 .537.54.684.684 0 0 0 .764-.937.7.7 0 0 0-.37-.372.7.7 0 0 0-.261-.052m144.75 0a.69.69 0 0 0-.631.424.68.68 0 0 0 .148.749.69.69 0 0 0 .745.149.686.686 0 0 0 .369-.898.68.68 0 0 0-.631-.424m-88.458 98a.68.68 0 0 0-.631.424.69.69 0 0 0 .497.937.684.684 0 0 0 .817-.674.684.684 0 0 0-.683-.687m0 56a.685.685 0 0 0-.67.821.69.69 0 0 0 .536.54.684.684 0 0 0 .617-1.159.68.68 0 0 0-.483-.202m0-28a.685.685 0 0 0-.67.821.69.69 0 0 0 .536.54.684.684 0 0 0 .817-.674.684.684 0 0 0-.683-.687m0 18.667a.684.684 0 0 0-.67.821.686.686 0 0 0 .93.5.68.68 0 0 0 .423-.634.7.7 0 0 0-.2-.486.68.68 0 0 0-.483-.201m0-28a.68.68 0 0 0-.632.424.69.69 0 0 0 .148.748.676.676 0 0 0 1.052-.104.69.69 0 0 0-.085-.867.68.68 0 0 0-.483-.201m0-9.333a.68.68 0 0 0-.632.423.69.69 0 0 0 .498.937.68.68 0 0 0 .702-.292.69.69 0 0 0-.085-.867.68.68 0 0 0-.483-.201m0 27.999a.685.685 0 0 0-.67.821.69.69 0 0 0 .536.54.684.684 0 0 0 .817-.674.69.69 0 0 0-.683-.687m0-130.666a.68.68 0 0 0-.631.424.69.69 0 0 0 .497.936.68.68 0 0 0 .702-.292.687.687 0 0 0-.568-1.068m8.041 154a.68.68 0 0 0-.631.424.69.69 0 0 0 .498.937.684.684 0 0 0 .764-.937.68.68 0 0 0-.631-.424m-8.041-144.667a.68.68 0 0 0-.631.424.69.69 0 0 0 .497.937.684.684 0 0 0 .817-.674.684.684 0 0 0-.683-.687m8.041 126a.68.68 0 0 0-.631.424.69.69 0 0 0 .148.749.69.69 0 0 0 .745.149.69.69 0 0 0 0-1.27.7.7 0 0 0-.262-.052m-8.041-116.666a.68.68 0 0 0-.632.423.69.69 0 0 0 .498.937.68.68 0 0 0 .702-.292.69.69 0 0 0-.085-.867.68.68 0 0 0-.483-.201m8.041 126a.684.684 0 0 0-.67.821.687.687 0 0 0 .932.5.68.68 0 0 0 .422-.635.684.684 0 0 0-.684-.686M65.334 198.98a.68.68 0 0 0-.632.424.69.69 0 0 0 .148.748.676.676 0 0 0 1.052-.104.69.69 0 0 0-.085-.867.68.68 0 0 0-.483-.201m0 37.333a.685.685 0 0 0-.67.821.69.69 0 0 0 .536.54.684.684 0 0 0 .617-1.159.68.68 0 0 0-.483-.202m0 18.667a.68.68 0 0 0-.631.424.69.69 0 0 0 .497.936.68.68 0 0 0 .702-.292.687.687 0 0 0-.568-1.068m0-28a.684.684 0 0 0-.67.821.686.686 0 0 0 .93.5.68.68 0 0 0 .423-.634.7.7 0 0 0-.2-.486.68.68 0 0 0-.483-.201m0 18.666a.685.685 0 0 0-.67.821.69.69 0 0 0 .536.54.684.684 0 0 0 .617-1.159.7.7 0 0 0-.483-.202m0-28a.685.685 0 0 0-.67.821.69.69 0 0 0 .536.54.684.684 0 0 0 .817-.674.69.69 0 0 0-.683-.687m0-9.333a.685.685 0 0 0-.67.821.69.69 0 0 0 .536.54.684.684 0 0 0 .817-.674.684.684 0 0 0-.683-.687m-16.084-28a.68.68 0 0 0-.632.424.69.69 0 0 0 .499.937.684.684 0 0 0 .817-.674.684.684 0 0 0-.683-.687zm8.042 144.667a.68.68 0 0 0-.631.424.69.69 0 0 0 .498.937.684.684 0 0 0 .764-.937.68.68 0 0 0-.631-.424m0-18.667a.685.685 0 0 0-.67.821.69.69 0 0 0 .537.54.684.684 0 0 0 .764-.937.7.7 0 0 0-.37-.372.7.7 0 0 0-.261-.052m0-28a.684.684 0 0 0-.67.821.69.69 0 0 0 .537.54.684.684 0 0 0 .764-.937.7.7 0 0 0-.37-.372.7.7 0 0 0-.261-.052m0 9.333a.688.688 0 1 0 .262 1.322.68.68 0 0 0 .421-.635.7.7 0 0 0-.2-.486.68.68 0 0 0-.483-.201m0 9.334a.685.685 0 0 0-.67.821.678.678 0 0 0 .932.5.684.684 0 0 0 .37-.897.68.68 0 0 0-.632-.424m0 18.667a.683.683 0 0 0-.67.821.69.69 0 0 0 .537.539.68.68 0 0 0 .701-.292.69.69 0 0 0-.307-1.016.7.7 0 0 0-.261-.052M49.25 170.98a.68.68 0 0 0-.632.424.69.69 0 0 0 .498.936.68.68 0 0 0 .701-.292.687.687 0 0 0-.567-1.068m0 37.333a.686.686 0 0 0-.67.821.69.69 0 0 0 .536.54.684.684 0 0 0 .817-.674.684.684 0 0 0-.683-.687m0 9.333a.685.685 0 0 0-.671.821.69.69 0 0 0 .537.54.684.684 0 0 0 .817-.674.69.69 0 0 0-.683-.687m0-27.999a.68.68 0 0 0-.632.423.69.69 0 0 0 .148.749.68.68 0 0 0 1.051-.104.69.69 0 0 0-.084-.867.68.68 0 0 0-.483-.201m0 9.333a.68.68 0 0 0-.632.424.69.69 0 0 0 .148.749.68.68 0 0 0 .745.148.68.68 0 0 0 .422-.634.7.7 0 0 0-.2-.486.68.68 0 0 0-.483-.201m8.04 42a.68.68 0 0 0-.63.424.69.69 0 0 0 .498.937.684.684 0 0 0 .764-.937.68.68 0 0 0-.631-.424zm0-46.667a.684.684 0 0 0-.67.821.69.69 0 0 0 .538.54.684.684 0 0 0 .764-.937.7.7 0 0 0-.37-.372.7.7 0 0 0-.261-.052zm0 74.667a.68.68 0 0 0-.631.424.69.69 0 0 0 .149.748.68.68 0 0 0 1.051-.104.688.688 0 0 0-.568-1.068zm0-84a.68.68 0 0 0-.631.424.69.69 0 0 0 .149.748.68.68 0 0 0 1.051-.104.688.688 0 0 0-.568-1.068zm0 28a.685.685 0 0 0-.67.821.678.678 0 0 0 .932.5.684.684 0 0 0 .37-.897.68.68 0 0 0-.631-.424zm0-37.334a.684.684 0 0 0-.67.821.685.685 0 0 0 .932.501.68.68 0 0 0 .422-.635.7.7 0 0 0-.2-.485.67.67 0 0 0-.483-.202zm0 28a.688.688 0 1 0 .262 1.322.68.68 0 0 0 .422-.635.7.7 0 0 0-.2-.486.68.68 0 0 0-.483-.201zm0 46.667a.684.684 0 0 0-.67.821.69.69 0 0 0 .538.54.684.684 0 0 0 .764-.937.7.7 0 0 0-.37-.372.7.7 0 0 0-.261-.052zm0 9.333a.684.684 0 0 0-.67.821.685.685 0 0 0 .932.501.684.684 0 0 0 .37-.897.67.67 0 0 0-.37-.372.7.7 0 0 0-.261-.053zm0-37.333a.685.685 0 0 0-.67.821.69.69 0 0 0 .538.54.684.684 0 0 0 .764-.937.7.7 0 0 0-.37-.372.7.7 0 0 0-.261-.052zm0 9.334a.683.683 0 0 0-.67.821.69.69 0 0 0 .538.539.68.68 0 0 0 .701-.292.69.69 0 0 0-.307-1.016.7.7 0 0 0-.261-.052zm8.043 97.999a.685.685 0 0 0-.67.821.69.69 0 0 0 .536.54.684.684 0 0 0 .617-1.159.7.7 0 0 0-.483-.202m16.083-46.666a.68.68 0 0 0-.631.424.69.69 0 0 0 .498.937.684.684 0 0 0 .764-.937.68.68 0 0 0-.631-.424m8.042 23.333a.68.68 0 0 0-.631.424.69.69 0 0 0 .497.937.684.684 0 0 0 .817-.674.684.684 0 0 0-.683-.687m0-37.333a.684.684 0 0 0-.67.821.686.686 0 0 0 .93.5.68.68 0 0 0 .423-.634.7.7 0 0 0-.2-.486.68.68 0 0 0-.483-.201m0 28a.68.68 0 0 0-.631.424.69.69 0 0 0 .497.936.68.68 0 0 0 .702-.292.687.687 0 0 0-.568-1.068m0-9.334a.685.685 0 0 0-.67.821.69.69 0 0 0 .536.54.684.684 0 0 0 .617-1.159.7.7 0 0 0-.483-.202m0 37.334a.68.68 0 0 0-.632.424.69.69 0 0 0 .498.936.68.68 0 0 0 .702-.292.69.69 0 0 0-.085-.867.68.68 0 0 0-.483-.201m0-46.667a.685.685 0 0 0-.67.821.69.69 0 0 0 .536.54.684.684 0 0 0 .617-1.159.68.68 0 0 0-.483-.202m0 37.334a.684.684 0 0 0-.67.82.686.686 0 0 0 .93.501.68.68 0 0 0 .423-.635.69.69 0 0 0-.683-.686M81.417 170.98a.685.685 0 0 0-.67.821.678.678 0 0 0 .932.5.684.684 0 0 0 .37-.897.68.68 0 0 0-.632-.424m0 37.333a.684.684 0 0 0-.67.821.69.69 0 0 0 .537.54.684.684 0 0 0 .764-.937.7.7 0 0 0-.37-.372.7.7 0 0 0-.261-.052m0 9.333a.684.684 0 0 0-.67.821.685.685 0 0 0 .931.501.684.684 0 0 0 .37-.897.67.67 0 0 0-.37-.372.7.7 0 0 0-.261-.053m0-37.333a.685.685 0 0 0-.67.821.69.69 0 0 0 .537.54.684.684 0 0 0 .764-.937.7.7 0 0 0-.37-.372.7.7 0 0 0-.261-.052m0 18.667a.68.68 0 0 0-.631.424.69.69 0 0 0 .498.937.684.684 0 0 0 .764-.937.68.68 0 0 0-.631-.424m8.042-4.667a.685.685 0 0 0-.67.821.69.69 0 0 0 .536.54.684.684 0 0 0 .617-1.159.68.68 0 0 0-.483-.202m0 65.333a.685.685 0 0 0-.67.821.69.69 0 0 0 .536.54.684.684 0 0 0 .817-.674.69.69 0 0 0-.683-.687m0-74.666a.684.684 0 0 0-.67.821.686.686 0 0 0 .93.5.68.68 0 0 0 .423-.634.7.7 0 0 0-.2-.486.68.68 0 0 0-.483-.201m-8.042 42a.68.68 0 0 0-.631.424.69.69 0 0 0 .148.748.68.68 0 0 0 1.051-.104.688.688 0 0 0-.568-1.068m-8.042 70a.68.68 0 0 0-.631.424.69.69 0 0 0 .148.749.68.68 0 0 0 .745.148.68.68 0 0 0 .422-.634.69.69 0 0 0-.684-.687m-24.124-70a.684.684 0 0 0-.671.821.686.686 0 0 0 .932.5.68.68 0 0 0 .422-.634.7.7 0 0 0-.2-.486.68.68 0 0 0-.483-.201m40.208-23.334a.685.685 0 0 0-.67.821.69.69 0 0 0 .536.54.684.684 0 0 0 .617-1.159.7.7 0 0 0-.483-.202m0 46.667a.685.685 0 0 0-.67.821.69.69 0 0 0 .536.54.684.684 0 0 0 .817-.674.684.684 0 0 0-.683-.687m0-9.333a.68.68 0 0 0-.632.424.69.69 0 0 0 .498.936.68.68 0 0 0 .702-.292.69.69 0 0 0-.085-.867.68.68 0 0 0-.483-.201m0-18.667a.68.68 0 0 0-.631.424.69.69 0 0 0 .497.937.684.684 0 0 0 .817-.674.684.684 0 0 0-.683-.687m0 9.334a.68.68 0 0 0-.632.423.69.69 0 0 0 .498.937.68.68 0 0 0 .702-.292.69.69 0 0 0-.085-.867.68.68 0 0 0-.483-.201m0-18.667a.68.68 0 0 0-.631.424.69.69 0 0 0 .497.936.68.68 0 0 0 .702-.292.687.687 0 0 0-.568-1.068m0-37.334a.685.685 0 0 0-.67.821.69.69 0 0 0 .536.54.684.684 0 0 0 .817-.674.69.69 0 0 0-.683-.687m-16.084 46.667a.68.68 0 0 0-.631.424.69.69 0 0 0 .148.749.69.69 0 0 0 .745.149.69.69 0 0 0 0-1.27.7.7 0 0 0-.262-.052m0 9.334a.684.684 0 0 0-.67.821.687.687 0 0 0 .932.5.68.68 0 0 0 .422-.635.684.684 0 0 0-.684-.686m0-18.667a.68.68 0 0 0-.631.424.69.69 0 0 0 .148.749.68.68 0 0 0 .745.148.68.68 0 0 0 .422-.634.69.69 0 0 0-.684-.687m0-9.334a.688.688 0 0 0-.133 1.361.684.684 0 0 0 .764-.937.68.68 0 0 0-.37-.371.7.7 0 0 0-.261-.053m0-9.333a.685.685 0 0 0-.67.821.69.69 0 0 0 .537.54.684.684 0 0 0 .764-.937.7.7 0 0 0-.37-.371.7.7 0 0 0-.261-.053m0 46.667a.68.68 0 0 0-.631.424.69.69 0 0 0 .498.937.684.684 0 0 0 .764-.937.68.68 0 0 0-.631-.424m0 46.666a.688.688 0 0 0-.133 1.361.684.684 0 0 0 .764-.937.68.68 0 0 0-.37-.371.7.7 0 0 0-.261-.053m0-9.333a.685.685 0 0 0-.67.821.69.69 0 0 0 .537.54.684.684 0 0 0 .764-.937.7.7 0 0 0-.37-.371.7.7 0 0 0-.261-.053m0-18.667a.684.684 0 0 0-.67.821.69.69 0 0 0 .537.54.684.684 0 0 0 .817-.674.69.69 0 0 0-.684-.687m0-9.333a.685.685 0 0 0-.67.821.69.69 0 0 0 .537.54.684.684 0 0 0 .764-.937.7.7 0 0 0-.37-.372.7.7 0 0 0-.261-.052m0 18.667a.68.68 0 0 0-.631.424.69.69 0 0 0 .148.748.68.68 0 0 0 1.051-.104.687.687 0 0 0-.568-1.068m8.042-23.334a.688.688 0 1 0 .262 1.322.68.68 0 0 0 .421-.635.7.7 0 0 0-.2-.485.67.67 0 0 0-.483-.202m0 46.667a.685.685 0 0 0-.67.821.69.69 0 0 0 .537.54.684.684 0 0 0 .764-.937.7.7 0 0 0-.37-.372.7.7 0 0 0-.261-.052m0-28a.68.68 0 0 0-.631.424.69.69 0 0 0 .498.937c.132.026.27.012.395-.039a.69.69 0 0 0 .221-1.121.7.7 0 0 0-.483-.201m0 9.334a.684.684 0 0 0-.67.821.69.69 0 0 0 .537.539.68.68 0 0 0 .701-.292.69.69 0 0 0-.307-1.016.7.7 0 0 0-.261-.052m-8.042-88.667a.68.68 0 0 0-.631.424.69.69 0 0 0 .148.748.68.68 0 0 0 1.051-.104.687.687 0 0 0-.568-1.068m8.042 70a.685.685 0 0 0-.67.821.678.678 0 0 0 .932.5.684.684 0 0 0 .37-.897.68.68 0 0 0-.632-.424m0-18.667a.684.684 0 0 0-.67.821.69.69 0 0 0 .537.54.684.684 0 0 0 .764-.937.7.7 0 0 0-.37-.372.7.7 0 0 0-.261-.052m0 65.333a.684.684 0 0 0-.67.821.685.685 0 0 0 .931.501.684.684 0 0 0 .37-.897.67.67 0 0 0-.37-.372.7.7 0 0 0-.261-.053m-8.042-126a.684.684 0 0 0-.67.821.69.69 0 0 0 .537.54.684.684 0 0 0 .817-.674.686.686 0 0 0-.684-.687m8.042 154a.688.688 0 1 0 .262 1.322.68.68 0 0 0 .421-.635.7.7 0 0 0-.2-.485.67.67 0 0 0-.483-.202m0-9.333a.684.684 0 0 0-.67.821.69.69 0 0 0 .537.54.684.684 0 0 0 .764-.937.7.7 0 0 0-.37-.372.7.7 0 0 0-.261-.052m0-9.333a.68.68 0 0 0-.631.424.69.69 0 0 0 .148.748.68.68 0 0 0 1.051-.104.688.688 0 0 0-.568-1.068m0-121.333a.683.683 0 0 0-.67.821.69.69 0 0 0 .537.539.68.68 0 0 0 .701-.292.69.69 0 0 0-.307-1.016.7.7 0 0 0-.261-.052m-56.291 13.999a.685.685 0 0 0-.671.821.69.69 0 0 0 .537.54.684.684 0 0 0 .616-1.159.7.7 0 0 0-.483-.202zm-8.042 60.667a.685.685 0 0 0-.67.821.69.69 0 0 0 .537.54.684.684 0 0 0 .816-.674.68.68 0 0 0-.683-.687m0-65.333a.68.68 0 0 0-.631.424.69.69 0 0 0 .498.937.684.684 0 0 0 .816-.674.69.69 0 0 0-.683-.687m0-28a.685.685 0 0 0-.67.821.678.678 0 0 0 .932.5.68.68 0 0 0 .421-.634.68.68 0 0 0-.683-.687m0 37.333a.684.684 0 0 0-.67.821.69.69 0 0 0 .537.54.684.684 0 0 0 .816-.674.685.685 0 0 0-.683-.687m8.041 116.667a.68.68 0 0 0-.631.424.69.69 0 0 0 .148.748.676.676 0 0 0 1.052-.104.69.69 0 0 0-.086-.867.68.68 0 0 0-.483-.201m-8.041-107.334a.684.684 0 0 0-.67.821.685.685 0 0 0 .931.501.68.68 0 0 0 .422-.635.69.69 0 0 0-.683-.687m0 28a.688.688 0 1 0 .262 1.322.68.68 0 0 0 .421-.635.686.686 0 0 0-.683-.687m8.041 70.001a.684.684 0 0 0-.67.82.69.69 0 0 0 .537.54.68.68 0 0 0 .701-.292.69.69 0 0 0-.085-.867.68.68 0 0 0-.483-.201m24.126-79.334a.686.686 0 0 0-.67.821.69.69 0 0 0 .536.54.684.684 0 0 0 .617-1.159.68.68 0 0 0-.483-.202m-32.167-9.333a.68.68 0 0 0-.631.424.69.69 0 0 0 .148.748.68.68 0 0 0 1.051-.104.687.687 0 0 0-.568-1.068m0 9.333a.684.684 0 0 0-.67.821.69.69 0 0 0 .537.54.684.684 0 0 0 .816-.674.685.685 0 0 0-.683-.687m0-46.666a.683.683 0 0 0-.67.821.69.69 0 0 0 .537.539.68.68 0 0 0 .701-.292.69.69 0 0 0-.085-.867.68.68 0 0 0-.483-.201m8.041 60.666a.686.686 0 0 0-.67.821.69.69 0 0 0 .537.54.684.684 0 0 0 .817-.674.684.684 0 0 0-.683-.687zm0-9.333a.68.68 0 0 0-.631.424.69.69 0 0 0 .148.749.68.68 0 0 0 .745.148.68.68 0 0 0 .422-.634.7.7 0 0 0-.2-.486.68.68 0 0 0-.484-.201m0-9.333a.68.68 0 0 0-.631.423.69.69 0 0 0 .148.749.68.68 0 0 0 1.051-.104.69.69 0 0 0-.085-.867.68.68 0 0 0-.483-.201m0-9.334a.68.68 0 0 0-.631.424.69.69 0 0 0 .498.937.684.684 0 0 0 .817-.674.684.684 0 0 0-.683-.687zm0-9.333a.68.68 0 0 0-.631.424.69.69 0 0 0 .498.936.68.68 0 0 0 .701-.292.687.687 0 0 0-.568-1.068m0 93.333a.68.68 0 0 0-.631.424.69.69 0 0 0 .498.937.684.684 0 0 0 .817-.674.684.684 0 0 0-.683-.687zm0-18.667a.685.685 0 0 0-.67.821.69.69 0 0 0 .537.54.684.684 0 0 0 .616-1.159.7.7 0 0 0-.483-.202m0 9.334a.68.68 0 0 0-.631.424.69.69 0 0 0 .498.936.68.68 0 0 0 .701-.292.687.687 0 0 0-.568-1.068m0-18.667a.686.686 0 0 0-.67.821.69.69 0 0 0 .537.54.684.684 0 0 0 .616-1.159.68.68 0 0 0-.483-.202m0-9.333a.684.684 0 0 0-.67.821.686.686 0 0 0 .932.5.68.68 0 0 0 .422-.634.7.7 0 0 0-.2-.486.68.68 0 0 0-.484-.201m0-9.334a.685.685 0 0 0-.67.821.69.69 0 0 0 .537.54.684.684 0 0 0 .817-.674.69.69 0 0 0-.684-.687m-8.041-79.333a.685.685 0 0 0-.67.821.69.69 0 0 0 .537.54.684.684 0 0 0 .816-.674.68.68 0 0 0-.683-.687m-8.042 79.333a.685.685 0 0 0-.67.821.686.686 0 0 0 .931.501.684.684 0 0 0 .37-.897.67.67 0 0 0-.37-.372.7.7 0 0 0-.261-.053m0 9.334a.68.68 0 0 0-.631.424.69.69 0 0 0 .148.748.68.68 0 0 0 1.051-.104.687.687 0 0 0-.568-1.068m0-28a.68.68 0 0 0-.631.424.69.69 0 0 0 .498.937.684.684 0 0 0 .764-.937.68.68 0 0 0-.631-.424m0 37.333a.685.685 0 0 0-.67.821.69.69 0 0 0 .537.54.684.684 0 0 0 .764-.937.7.7 0 0 0-.37-.372.7.7 0 0 0-.261-.052m0-28a.685.685 0 0 0-.67.821.69.69 0 0 0 .537.54.684.684 0 0 0 .764-.937.7.7 0 0 0-.37-.372.7.7 0 0 0-.261-.052m0 65.334a.684.684 0 0 0-.67.821.69.69 0 0 0 .537.539.68.68 0 0 0 .701-.292.69.69 0 0 0-.307-1.016.7.7 0 0 0-.261-.052m0-93.334a.685.685 0 0 0-.67.821.69.69 0 0 0 .537.54.684.684 0 0 0 .764-.937.7.7 0 0 0-.37-.372.7.7 0 0 0-.261-.052m0 102.667a.68.68 0 0 0-.631.424.69.69 0 0 0 .498.937.684.684 0 0 0 .764-.937.68.68 0 0 0-.631-.424m0-28a.685.685 0 0 0-.67.821.678.678 0 0 0 .932.5.68.68 0 0 0 .421-.634.69.69 0 0 0-.422-.635.7.7 0 0 0-.261-.052m0-9.334a.688.688 0 0 0-.133 1.361.684.684 0 0 0 .764-.937.7.7 0 0 0-.37-.371.7.7 0 0 0-.261-.053m0 18.667a.685.685 0 0 0-.67.821.69.69 0 0 0 .537.54.684.684 0 0 0 .764-.937.7.7 0 0 0-.37-.372.7.7 0 0 0-.261-.052m8.042-14a.684.684 0 0 0-.67.821.69.69 0 0 0 .537.54.684.684 0 0 0 .816-.674.685.685 0 0 0-.683-.687m0 28a.684.684 0 0 0-.67.821.69.69 0 0 0 .537.54.684.684 0 0 0 .816-.674.685.685 0 0 0-.683-.687m0-9.333a.68.68 0 0 0-.631.424.69.69 0 0 0 .148.748.68.68 0 0 0 1.051-.104.687.687 0 0 0-.568-1.068m0-9.334a.684.684 0 0 0-.67.821.685.685 0 0 0 .931.501.68.68 0 0 0 .422-.635.69.69 0 0 0-.683-.687m0-18.666a.68.68 0 0 0-.631.424.69.69 0 0 0 .498.937.684.684 0 0 0 .816-.674.69.69 0 0 0-.683-.687m-8.042-70a.685.685 0 0 0-.67.821.678.678 0 0 0 .932.5.68.68 0 0 0 .421-.634.69.69 0 0 0-.422-.635.7.7 0 0 0-.261-.052m8.042 60.667a.683.683 0 0 0-.67.821.69.69 0 0 0 .537.539.68.68 0 0 0 .701-.292.69.69 0 0 0-.085-.867.68.68 0 0 0-.483-.201m-8.042-79.334a.685.685 0 0 0-.67.821.69.69 0 0 0 .537.54.684.684 0 0 0 .764-.937.7.7 0 0 0-.37-.372.7.7 0 0 0-.261-.052m0 9.333a.688.688 0 0 0-.133 1.361.684.684 0 0 0 .764-.937.7.7 0 0 0-.37-.371.7.7 0 0 0-.261-.053m8.042 126a.688.688 0 1 0 .262 1.322.68.68 0 0 0 .421-.635.686.686 0 0 0-.683-.687m-8.042-154a.685.685 0 0 0-.67.821.686.686 0 0 0 .931.501.68.68 0 0 0 .422-.635.7.7 0 0 0-.2-.485.67.67 0 0 0-.483-.202m0 9.334a.68.68 0 0 0-.631.424.69.69 0 0 0 .148.748.68.68 0 0 0 1.051-.104.687.687 0 0 0-.568-1.068m8.042 70a.685.685 0 0 0-.67.821.678.678 0 0 0 .932.5.68.68 0 0 0 .421-.634.68.68 0 0 0-.683-.687m24.125-42a.68.68 0 0 0-.632.424.69.69 0 0 0 .498.936.68.68 0 0 0 .702-.292.687.687 0 0 0-.568-1.068m0 84a.68.68 0 0 0-.632.424.69.69 0 0 0 .498.936.68.68 0 0 0 .702-.292.687.687 0 0 0-.568-1.068m0-65.333a.68.68 0 0 0-.632.423.69.69 0 0 0 .498.937.68.68 0 0 0 .702-.292.69.69 0 0 0-.085-.867.68.68 0 0 0-.483-.201m0-28.001a.686.686 0 0 0-.484 1.173.69.69 0 0 0 .745.149.68.68 0 0 0 .422-.635.69.69 0 0 0-.683-.687m0-9.333a.68.68 0 0 0-.632.424.69.69 0 0 0 .498.937.684.684 0 0 0 .617-1.159.68.68 0 0 0-.483-.202m0 46.667a.68.68 0 0 0-.632.424.69.69 0 0 0 .148.749.68.68 0 0 0 .745.148.68.68 0 0 0 .422-.634.7.7 0 0 0-.2-.486.68.68 0 0 0-.483-.201m0 9.333a.68.68 0 0 0-.632.424.69.69 0 0 0 .498.937.684.684 0 0 0 .817-.674.684.684 0 0 0-.683-.687m0 28a.68.68 0 0 0-.632.424.69.69 0 0 0 .498.937.684.684 0 0 0 .617-1.159.68.68 0 0 0-.483-.202m0 9.333a.686.686 0 0 0-.484 1.173.69.69 0 0 0 .745.149.68.68 0 0 0 .422-.635.69.69 0 0 0-.683-.687m0-28a.685.685 0 0 0-.67.821.69.69 0 0 0 .536.54.684.684 0 0 0 .817-.674.69.69 0 0 0-.683-.687m0-74.666a.685.685 0 0 0-.484 1.172.68.68 0 0 0 1.052-.104.687.687 0 0 0-.568-1.068m0 84a.685.685 0 0 0-.484 1.172.68.68 0 0 0 1.052-.104.687.687 0 0 0-.568-1.068m0-46.667a.68.68 0 0 0-.632.424.69.69 0 0 0 .498.937.684.684 0 0 0 .817-.674.684.684 0 0 0-.683-.687m0-46.667a.685.685 0 0 0-.67.821.69.69 0 0 0 .536.54.684.684 0 0 0 .817-.674.69.69 0 0 0-.683-.687m8.041 98.001a.68.68 0 0 0-.631.423.69.69 0 0 0 .148.749.68.68 0 0 0 1.051-.104.69.69 0 0 0-.084-.867.68.68 0 0 0-.483-.201zm0 9.333a.68.68 0 0 0-.631.424.69.69 0 0 0 .148.748.676.676 0 0 0 1.051-.104.69.69 0 0 0-.085-.867.68.68 0 0 0-.482-.201zm0-37.334a.685.685 0 0 0-.67.821.69.69 0 0 0 .537.54.684.684 0 0 0 .617-1.159.7.7 0 0 0-.483-.202zm0 9.334a.68.68 0 0 0-.632.424.69.69 0 0 0 .499.936.68.68 0 0 0 .701-.292.687.687 0 0 0-.567-1.068zm0 9.333a.68.68 0 0 0-.632.424.69.69 0 0 0 .499.937.684.684 0 0 0 .817-.674.684.684 0 0 0-.683-.687zm0 28a.686.686 0 0 0-.67.821.69.69 0 0 0 .537.54.684.684 0 0 0 .817-.674.684.684 0 0 0-.683-.687zm0 28a.686.686 0 0 0-.67.821.69.69 0 0 0 .537.54.684.684 0 0 0 .617-1.159.68.68 0 0 0-.483-.202zm0 9.333a.685.685 0 0 0-.67.821.69.69 0 0 0 .537.54.684.684 0 0 0 .617-1.159.7.7 0 0 0-.483-.202zm0-28a.685.685 0 0 0-.67.821.69.69 0 0 0 .537.54.684.684 0 0 0 .817-.674.69.69 0 0 0-.683-.687zm0 9.334a.684.684 0 0 0-.67.821.686.686 0 0 0 .932.5.68.68 0 0 0 .422-.634.7.7 0 0 0-.2-.486.68.68 0 0 0-.483-.201zm-16.083-9.334a.684.684 0 0 0-.67.821.685.685 0 0 0 .931.501.684.684 0 0 0 .37-.897.67.67 0 0 0-.37-.372.7.7 0 0 0-.261-.053m0-18.666a.68.68 0 0 0-.631.424.69.69 0 0 0 .498.937.684.684 0 0 0 .764-.937.68.68 0 0 0-.631-.424m0 9.333a.684.684 0 0 0-.67.821.69.69 0 0 0 .537.54.684.684 0 0 0 .764-.937.7.7 0 0 0-.37-.372.7.7 0 0 0-.261-.052m0-37.333a.685.685 0 0 0-.67.821.678.678 0 0 0 .932.5.684.684 0 0 0 .37-.897.68.68 0 0 0-.632-.424m0 9.333a.685.685 0 0 0-.67.821.69.69 0 0 0 .537.54c.132.026.27.012.395-.039a.69.69 0 0 0 .221-1.121.7.7 0 0 0-.483-.201m-8.042-70a.686.686 0 0 0-.67.821.69.69 0 0 0 .537.54.684.684 0 0 0 .616-1.159.68.68 0 0 0-.483-.202m8.042 79.334a.683.683 0 0 0-.67.821.69.69 0 0 0 .537.539.68.68 0 0 0 .701-.292.69.69 0 0 0-.307-1.016.7.7 0 0 0-.261-.052m-8.042-88.667a.684.684 0 0 0-.67.821.686.686 0 0 0 .932.5.68.68 0 0 0 .422-.634.7.7 0 0 0-.2-.486.68.68 0 0 0-.484-.201m0-9.334a.685.685 0 0 0-.67.821.69.69 0 0 0 .537.54.684.684 0 0 0 .817-.674.69.69 0 0 0-.684-.687m8.042 135.334a.68.68 0 0 0-.631.424.69.69 0 0 0 .148.748.68.68 0 0 0 1.051-.104.688.688 0 0 0-.568-1.068m0 9.333a.684.684 0 0 0-.67.821.69.69 0 0 0 .537.54.684.684 0 0 0 .764-.937.7.7 0 0 0-.37-.372.7.7 0 0 0-.261-.052m0 9.333a.688.688 0 1 0 .262 1.322.68.68 0 0 0 .421-.635.7.7 0 0 0-.2-.485.67.67 0 0 0-.483-.202m0-139.999a.683.683 0 0 0-.67.821.69.69 0 0 0 .537.539.68.68 0 0 0 .701-.292.69.69 0 0 0-.307-1.016.7.7 0 0 0-.261-.052m8.042 116.666a.68.68 0 0 0-.632.424.69.69 0 0 0 .498.937.684.684 0 0 0 .817-.674.684.684 0 0 0-.683-.687M33.167 170.98a.685.685 0 0 0-.67.821.678.678 0 0 0 .932.5.684.684 0 0 0 .37-.897.68.68 0 0 0-.632-.424m0 9.333a.685.685 0 0 0-.67.821.69.69 0 0 0 .537.54.684.684 0 0 0 .764-.937.7.7 0 0 0-.37-.372.7.7 0 0 0-.261-.052m8.042 135.334a.685.685 0 0 0-.484 1.172.68.68 0 0 0 1.052-.104.69.69 0 0 0-.085-.867.68.68 0 0 0-.483-.201m0 9.333a.68.68 0 0 0-.632.424.69.69 0 0 0 .148.749.68.68 0 0 0 .745.148.68.68 0 0 0 .422-.634.7.7 0 0 0-.2-.486.68.68 0 0 0-.483-.201m-8.042-107.334a.684.684 0 0 0-.67.821.685.685 0 0 0 .931.501.684.684 0 0 0 .37-.897.67.67 0 0 0-.37-.372.7.7 0 0 0-.261-.053m0 9.334a.68.68 0 0 0-.631.424.69.69 0 0 0 .148.748.68.68 0 0 0 1.051-.104.688.688 0 0 0-.568-1.068m0 9.333a.684.684 0 0 0-.67.821.69.69 0 0 0 .537.54.684.684 0 0 0 .764-.937.7.7 0 0 0-.37-.372.7.7 0 0 0-.261-.052m0 9.333a.688.688 0 1 0 .262 1.322.68.68 0 0 0 .421-.635.7.7 0 0 0-.2-.486.68.68 0 0 0-.483-.201m0-37.333a.684.684 0 0 0-.67.821.69.69 0 0 0 .537.54.684.684 0 0 0 .764-.937.7.7 0 0 0-.37-.372.7.7 0 0 0-.261-.052m0-9.333a.68.68 0 0 0-.631.424.69.69 0 0 0 .498.937.684.684 0 0 0 .764-.937.68.68 0 0 0-.631-.424M9.042 231.647a.684.684 0 0 0-.67.821.69.69 0 0 0 .537.539.68.68 0 0 0 .701-.292.69.69 0 0 0-.307-1.016.7.7 0 0 0-.261-.052m144.75-28.001a.685.685 0 0 0-.67.821.68.68 0 0 0 .537.54.685.685 0 0 0 .394-1.308.7.7 0 0 0-.261-.053m0-18.666a.68.68 0 0 0-.631.424.68.68 0 0 0 .148.748.68.68 0 0 0 1.051-.104.688.688 0 0 0-.568-1.068m0 9.333a.69.69 0 0 0-.631.424.68.68 0 0 0 .148.749.69.69 0 0 0 .745.149.686.686 0 0 0 .369-.898.68.68 0 0 0-.631-.424m0-18.667a.69.69 0 0 0-.631.424.68.68 0 0 0 .148.749.683.683 0 0 0 1.114-.749.7.7 0 0 0-.148-.222.7.7 0 0 0-.222-.149.7.7 0 0 0-.261-.053m8.042 154a.685.685 0 0 0-.671.821.687.687 0 0 0 .932.501.68.68 0 0 0 .422-.635.69.69 0 0 0-.683-.687m0-9.333a.69.69 0 0 0-.484 1.173.69.69 0 0 0 .745.149.68.68 0 0 0 .422-.635.686.686 0 0 0-.683-.687m-8.042-107.333a.68.68 0 0 0-.631.424.68.68 0 0 0 .148.749.68.68 0 0 0 .745.148.686.686 0 0 0 .221-1.12.68.68 0 0 0-.483-.201m0 37.333a.69.69 0 0 0-.631.424.68.68 0 0 0 .148.749.69.69 0 0 0 .745.149.686.686 0 0 0 .369-.898.68.68 0 0 0-.631-.424m0 9.333a.69.69 0 0 0-.631.425.7.7 0 0 0-.039.396.68.68 0 0 0 .537.54.68.68 0 0 0 .816-.674.7.7 0 0 0-.052-.262.7.7 0 0 0-.148-.223.7.7 0 0 0-.222-.149.7.7 0 0 0-.261-.053m8.042 51.334a.684.684 0 0 0-.484 1.172.68.68 0 0 0 1.052-.104.688.688 0 0 0-.568-1.068m0-130.667a.685.685 0 0 0-.671.821.687.687 0 0 0 .932.501.68.68 0 0 0 .422-.635.684.684 0 0 0-.683-.687m-8.042 42a.68.68 0 0 0-.631.424.68.68 0 0 0 .148.749.69.69 0 0 0 .745.149.69.69 0 0 0 .421-.635.68.68 0 0 0-.2-.486.68.68 0 0 0-.483-.201m0 9.334a.685.685 0 0 0-.67.821.68.68 0 0 0 .537.539.68.68 0 0 0 .701-.292.69.69 0 0 0-.307-1.016.65.65 0 0 0-.261-.052m8.042 42a.684.684 0 0 0-.484 1.172.68.68 0 0 0 1.052-.104.69.69 0 0 0-.085-.867.68.68 0 0 0-.483-.201m0-65.334a.69.69 0 0 0-.484 1.173.69.69 0 0 0 .745.149.68.68 0 0 0 .422-.635.684.684 0 0 0-.683-.687m0 9.333a.685.685 0 0 0-.671.821.687.687 0 0 0 .932.501.684.684 0 0 0 .222-1.12.7.7 0 0 0-.483-.202m0 9.334a.684.684 0 0 0-.484 1.172.68.68 0 0 0 1.052-.104.688.688 0 0 0-.568-1.068m0-28a.685.685 0 0 0-.671.821.682.682 0 0 0 1.239.247.69.69 0 0 0-.085-.867.68.68 0 0 0-.483-.201m0-9.333a.68.68 0 0 0-.632.423.69.69 0 0 0 .148.749.68.68 0 0 0 1.052-.104.69.69 0 0 0-.085-.867.68.68 0 0 0-.483-.201m0 46.666a.69.69 0 0 0-.484 1.173.69.69 0 0 0 .745.149.68.68 0 0 0 .422-.635.686.686 0 0 0-.683-.687m0 56a.69.69 0 0 0-.484 1.173.69.69 0 0 0 .745.149.68.68 0 0 0 .422-.635.684.684 0 0 0-.683-.687m-8.042-23.333a.68.68 0 0 0-.631.424.68.68 0 0 0 .148.748.68.68 0 0 0 1.051-.104.688.688 0 0 0-.568-1.068m8.042-23.334a.685.685 0 0 0-.671.821.687.687 0 0 0 .932.501.68.68 0 0 0 .422-.635.69.69 0 0 0-.683-.687m0 56a.685.685 0 0 0-.671.821.687.687 0 0 0 .932.501.684.684 0 0 0 .222-1.12.7.7 0 0 0-.483-.202m0-18.666a.685.685 0 0 0-.671.821.682.682 0 0 0 1.239.247.69.69 0 0 0-.085-.867.68.68 0 0 0-.483-.201m0-28a.685.685 0 0 0-.484 1.172.68.68 0 0 0 1.052-.104.688.688 0 0 0-.568-1.068m0 9.333a.685.685 0 0 0-.671.821.687.687 0 0 0 .932.501.68.68 0 0 0 .422-.635.684.684 0 0 0-.683-.687m-8.042-23.333a.68.68 0 0 0-.631.424.68.68 0 0 0 .148.749.685.685 0 0 0 1.114-.749.67.67 0 0 0-.37-.372.7.7 0 0 0-.261-.052m-8.042 32.667a.7.7 0 0 0-.38.115.69.69 0 0 0-.103 1.057.68.68 0 0 0 1.051-.104.684.684 0 0 0-.085-.867.66.66 0 0 0-.483-.201m0 18.666a.69.69 0 0 0-.631.424.69.69 0 0 0 .148.749.69.69 0 0 0 .745.149.684.684 0 0 0 .221-1.121.7.7 0 0 0-.483-.201m0-28a.68.68 0 0 0-.631.424.69.69 0 0 0 .148.749.69.69 0 0 0 .745.149.687.687 0 0 0-.262-1.322m0 18.667a.68.68 0 0 0-.631.424.69.69 0 0 0 .148.749.685.685 0 0 0 1.115-.749.69.69 0 0 0-.632-.424m0-37.334a.7.7 0 0 0-.38.116.69.69 0 0 0-.103 1.057.68.68 0 0 0 1.051-.104.684.684 0 0 0-.085-.867.67.67 0 0 0-.483-.202m0-9.333a.69.69 0 0 0-.631.424.69.69 0 0 0 .148.749.69.69 0 0 0 .745.149.684.684 0 0 0 .221-1.121.68.68 0 0 0-.483-.201m0 18.667a.68.68 0 0 0-.631.424.69.69 0 0 0 .148.749.68.68 0 0 0 .745.148.7.7 0 0 0 .306-.253.68.68 0 0 0 .064-.644.7.7 0 0 0-.37-.372.7.7 0 0 0-.262-.052m-8.041-79.334a.685.685 0 0 0-.671.821.687.687 0 0 0 .932.501.689.689 0 0 0-.261-1.322m0 9.334a.684.684 0 0 0-.484 1.172.68.68 0 0 0 1.052-.104.688.688 0 0 0-.568-1.068m8.041 144.666a.7.7 0 0 0-.38.116.69.69 0 0 0-.103 1.057.69.69 0 0 0 .745.149.684.684 0 0 0 .221-1.12.67.67 0 0 0-.483-.202m0-18.666a.68.68 0 0 0-.631.424.69.69 0 0 0 .148.748.68.68 0 0 0 1.051-.104.68.68 0 0 0 .064-.644.69.69 0 0 0-.632-.424m0-9.334a.69.69 0 0 0-.631.424.69.69 0 0 0 .148.749.69.69 0 0 0 .745.149.69.69 0 0 0 .422-.635.68.68 0 0 0-.201-.485.68.68 0 0 0-.483-.202m8.042-23.333a.69.69 0 0 0-.631.424.68.68 0 0 0 .148.749.69.69 0 0 0 .745.149.686.686 0 0 0 .369-.898.68.68 0 0 0-.631-.424m-8.042 42a.69.69 0 0 0-.631.424.69.69 0 0 0 .148.749.69.69 0 0 0 .745.149.684.684 0 0 0 .221-1.121.68.68 0 0 0-.483-.201m8.042-4.666a.685.685 0 0 0-.67.821.68.68 0 0 0 .537.539.68.68 0 0 0 .701-.292.69.69 0 0 0-.307-1.016.65.65 0 0 0-.261-.052m-8.042-88.667a.68.68 0 0 0-.631.424.69.69 0 0 0 .148.748.68.68 0 0 0 1.051-.104.68.68 0 0 0 .064-.644.69.69 0 0 0-.632-.424m8.042 98a.68.68 0 0 0-.631.424.68.68 0 0 0 .148.749.685.685 0 0 0 1.114-.749.67.67 0 0 0-.37-.372.7.7 0 0 0-.261-.052m0-37.334a.685.685 0 0 0-.67.821.68.68 0 0 0 .537.54.685.685 0 0 0 .394-1.308.7.7 0 0 0-.261-.053M145.75 170.98a.68.68 0 0 0-.631.424.69.69 0 0 0 .148.749.68.68 0 0 0 .745.148.7.7 0 0 0 .306-.253.68.68 0 0 0 .064-.644.7.7 0 0 0-.37-.372.7.7 0 0 0-.262-.052m-8.041 23.333a.69.69 0 0 0-.484 1.173.69.69 0 0 0 .745.149.68.68 0 0 0 .422-.635.686.686 0 0 0-.683-.687m16.083 112a.68.68 0 0 0-.631.424.68.68 0 0 0 .148.749.69.69 0 0 0 .745.149.69.69 0 0 0 .421-.635.68.68 0 0 0-.2-.486.68.68 0 0 0-.483-.201m-8.042-98a.69.69 0 0 0-.631.424.69.69 0 0 0 .148.749.69.69 0 0 0 .745.149.684.684 0 0 0 .221-1.121.7.7 0 0 0-.483-.201m0 9.333a.69.69 0 0 0-.631.424.69.69 0 0 0 .148.749.69.69 0 0 0 .745.149.69.69 0 0 0 .422-.635.68.68 0 0 0-.201-.485.68.68 0 0 0-.483-.202m0-27.999a.7.7 0 0 0-.38.115.69.69 0 0 0-.103 1.057.68.68 0 0 0 1.051-.104.684.684 0 0 0-.085-.867.66.66 0 0 0-.483-.201m0 9.333a.68.68 0 0 0-.631.424.69.69 0 0 0 .148.749.685.685 0 0 0 1.115-.749.69.69 0 0 0-.632-.424m0-18.667a.68.68 0 0 0-.631.424.69.69 0 0 0 .148.749.69.69 0 0 0 .745.149.687.687 0 0 0-.262-1.322m8.042 116.667a.68.68 0 0 0-.631.424.68.68 0 0 0 .148.749.68.68 0 0 0 .745.148.686.686 0 0 0 .221-1.12.68.68 0 0 0-.483-.201m32.167 28a.685.685 0 0 0-.484 1.172.68.68 0 0 0 .745.149.68.68 0 0 0 .422-.634.7.7 0 0 0-.2-.486.68.68 0 0 0-.483-.201m0-9.333a.68.68 0 0 0-.632.423.69.69 0 0 0 .148.749.68.68 0 0 0 1.052-.104.69.69 0 0 0-.085-.867.68.68 0 0 0-.483-.201m-8.042-144.667a.68.68 0 0 0-.631.424.68.68 0 0 0 .148.749.68.68 0 0 0 .745.148.686.686 0 0 0 .221-1.12.68.68 0 0 0-.483-.201m8.042 116.666a.685.685 0 0 0-.671.821.687.687 0 0 0 .932.501.68.68 0 0 0 .422-.635.69.69 0 0 0-.683-.687m0 9.334a.685.685 0 0 0-.484 1.172.68.68 0 0 0 1.052-.104.688.688 0 0 0-.568-1.068m-8.042-116.667a.68.68 0 0 0-.631.424.68.68 0 0 0 .148.749.686.686 0 0 0 .966-.972.68.68 0 0 0-.483-.201m8.042 126a.685.685 0 0 0-.671.821.687.687 0 0 0 .932.501.68.68 0 0 0 .422-.635.684.684 0 0 0-.683-.687m-8.042-79.333a.68.68 0 0 0-.631.424.68.68 0 0 0 .148.748.68.68 0 0 0 1.051-.104.688.688 0 0 0-.568-1.068m0-37.333a.685.685 0 0 0-.67.821.68.68 0 0 0 .537.539.68.68 0 0 0 .701-.292.69.69 0 0 0-.307-1.016.65.65 0 0 0-.261-.052m0 46.666a.69.69 0 0 0-.631.424.68.68 0 0 0 .148.749.69.69 0 0 0 .745.149.686.686 0 0 0 .369-.898.68.68 0 0 0-.631-.424m0-18.667a.69.69 0 0 0-.631.424.68.68 0 0 0 .148.749.683.683 0 0 0 1.114-.749.7.7 0 0 0-.148-.222.7.7 0 0 0-.222-.149.7.7 0 0 0-.261-.053m0-9.333a.69.69 0 0 0-.631.424.68.68 0 0 0 .148.749.69.69 0 0 0 .745.149.686.686 0 0 0 .369-.898.68.68 0 0 0-.631-.424m0-9.333a.68.68 0 0 0-.631.424.68.68 0 0 0 .148.749.685.685 0 0 0 1.114-.749.67.67 0 0 0-.37-.372.7.7 0 0 0-.261-.052m8.042-14a.684.684 0 0 0-.484 1.172.68.68 0 0 0 1.052-.104.688.688 0 0 0-.568-1.068m0 18.666a.685.685 0 0 0-.671.821.687.687 0 0 0 .932.501.68.68 0 0 0 .422-.635.69.69 0 0 0-.683-.687m0 18.667a.685.685 0 0 0-.671.821.687.687 0 0 0 .932.501.68.68 0 0 0 .422-.635.684.684 0 0 0-.683-.687m0-9.333a.685.685 0 0 0-.484 1.172.68.68 0 0 0 1.052-.104.688.688 0 0 0-.568-1.068m0-18.667a.69.69 0 0 0-.484 1.173.69.69 0 0 0 .745.149.68.68 0 0 0 .422-.635.686.686 0 0 0-.683-.687m-8.042 51.333a.685.685 0 0 0-.67.821.68.68 0 0 0 .537.54.685.685 0 0 0 .394-1.308.7.7 0 0 0-.261-.053m8.042 32.667a.69.69 0 0 0-.484 1.173.69.69 0 0 0 .745.149.68.68 0 0 0 .422-.635.686.686 0 0 0-.683-.687m0-102.667a.685.685 0 0 0-.671.821.687.687 0 0 0 .932.501.684.684 0 0 0 .222-1.12.7.7 0 0 0-.483-.202m0 84a.685.685 0 0 0-.671.821.687.687 0 0 0 .932.501.684.684 0 0 0 .222-1.12.7.7 0 0 0-.483-.202m0-27.999a.68.68 0 0 0-.632.423.69.69 0 0 0 .148.749.68.68 0 0 0 1.052-.104.69.69 0 0 0-.085-.867.68.68 0 0 0-.483-.201m0 37.333a.684.684 0 0 0-.484 1.172.68.68 0 0 0 1.052-.104.688.688 0 0 0-.568-1.068m0-18.667a.69.69 0 0 0-.484 1.173.69.69 0 0 0 .745.149.68.68 0 0 0 .422-.635.684.684 0 0 0-.683-.687m0-9.333a.685.685 0 0 0-.484 1.172.68.68 0 0 0 .745.149.68.68 0 0 0 .422-.634.7.7 0 0 0-.2-.486.68.68 0 0 0-.483-.201m-16.084-65.334a.69.69 0 0 0-.631.424.69.69 0 0 0 .148.749.69.69 0 0 0 .745.149.69.69 0 0 0 .37-.898.68.68 0 0 0-.37-.371.7.7 0 0 0-.262-.053m0 65.334a.68.68 0 0 0-.631.424.69.69 0 0 0 .148.749.685.685 0 0 0 1.115-.749.69.69 0 0 0-.632-.424m0 9.333a.69.69 0 0 0-.631.424.69.69 0 0 0 .148.749.69.69 0 0 0 .745.149.684.684 0 0 0 .221-1.121.68.68 0 0 0-.483-.201m0 9.333a.69.69 0 0 0-.631.424.69.69 0 0 0 .148.749.69.69 0 0 0 .745.149.69.69 0 0 0 .37-.897.68.68 0 0 0-.37-.372.7.7 0 0 0-.262-.053m0-27.999a.7.7 0 0 0-.38.115.69.69 0 0 0-.103 1.057.68.68 0 0 0 1.051-.104.684.684 0 0 0-.085-.867.66.66 0 0 0-.483-.201m0-9.334a.68.68 0 0 0-.631.424.69.69 0 0 0 .148.749.69.69 0 0 0 .745.149.687.687 0 0 0-.262-1.322m0 46.667a.68.68 0 0 0-.631.424.69.69 0 0 0 .148.748.68.68 0 0 0 1.051-.104.68.68 0 0 0 .064-.644.69.69 0 0 0-.632-.424m0 18.666a.69.69 0 0 0-.631.425.688.688 0 0 0 .498.936.684.684 0 0 0 .616-1.159.67.67 0 0 0-.483-.202m0 28.001a.7.7 0 0 0-.38.115.69.69 0 0 0-.103 1.057.68.68 0 0 0 1.051-.104.684.684 0 0 0-.085-.867.66.66 0 0 0-.483-.201m8.042-60.667a.68.68 0 0 0-.631.424.68.68 0 0 0 .148.749.68.68 0 0 0 .745.148.686.686 0 0 0 .221-1.12.68.68 0 0 0-.483-.201m-8.042 51.333a.68.68 0 0 0-.631.424.69.69 0 0 0 .148.749.69.69 0 0 0 .745.149.687.687 0 0 0-.262-1.322m0-9.333a.68.68 0 0 0-.631.424.69.69 0 0 0 .148.749.68.68 0 0 0 .745.148.7.7 0 0 0 .306-.253.68.68 0 0 0 .064-.644.69.69 0 0 0-.632-.424m0-84a.68.68 0 0 0-.631.424.69.69 0 0 0 .148.749.68.68 0 0 0 .745.148.7.7 0 0 0 .306-.253.68.68 0 0 0 .064-.644.69.69 0 0 0-.632-.424m0 65.333a.69.69 0 0 0-.631.424.69.69 0 0 0 .148.749.69.69 0 0 0 .745.149.684.684 0 0 0 .221-1.121.7.7 0 0 0-.483-.201m0 46.667a.68.68 0 0 0-.631.424.69.69 0 0 0 .148.749.685.685 0 0 0 1.115-.749.69.69 0 0 0-.632-.424m8.042-14a.68.68 0 0 0-.631.424.68.68 0 0 0 .148.748.68.68 0 0 0 1.051-.104.688.688 0 0 0-.568-1.068m0-18.667a.69.69 0 0 0-.631.424.68.68 0 0 0 .148.749.69.69 0 0 0 .745.149.686.686 0 0 0 .369-.898.68.68 0 0 0-.631-.424m0 9.333a.69.69 0 0 0-.631.424.68.68 0 0 0 .148.749.683.683 0 0 0 1.114-.748.7.7 0 0 0-.148-.223.7.7 0 0 0-.222-.149.7.7 0 0 0-.261-.053m0-18.666a.68.68 0 0 0-.631.424.68.68 0 0 0 .148.749.685.685 0 0 0 1.114-.749.67.67 0 0 0-.37-.372.7.7 0 0 0-.261-.052m0-9.333a.685.685 0 0 0-.67.821.68.68 0 0 0 .537.539.68.68 0 0 0 .701-.292.69.69 0 0 0-.307-1.016.65.65 0 0 0-.261-.052m0-9.334a.68.68 0 0 0-.631.424.68.68 0 0 0 .148.749.69.69 0 0 0 .745.149.69.69 0 0 0 .421-.635.68.68 0 0 0-.2-.486.68.68 0 0 0-.483-.201m-8.042-70a.69.69 0 0 0-.631.424.69.69 0 0 0 .148.749.69.69 0 0 0 .745.149.684.684 0 0 0 .221-1.121.7.7 0 0 0-.483-.201m8.042 126a.69.69 0 0 0-.631.424.68.68 0 0 0 .148.749.69.69 0 0 0 .745.149.686.686 0 0 0 .369-.898.68.68 0 0 0-.631-.424m-8.042-116.667a.7.7 0 0 0-.38.116.69.69 0 0 0-.103 1.057.68.68 0 0 0 1.051-.104.684.684 0 0 0-.085-.867.67.67 0 0 0-.483-.202m0-18.666a.68.68 0 0 0-.631.424.69.69 0 0 0 .148.748.68.68 0 0 0 1.051-.104.68.68 0 0 0 .064-.644.69.69 0 0 0-.632-.424m8.042 144.666a.685.685 0 0 0-.67.821.68.68 0 0 0 .537.54.685.685 0 0 0 .394-1.308.7.7 0 0 0-.261-.053M161.834 170.98a.685.685 0 0 0-.484 1.172.68.68 0 0 0 1.052-.104.688.688 0 0 0-.568-1.068m-48.25 112a.685.685 0 0 0-.671.821.682.682 0 0 0 1.239.247.69.69 0 0 0-.085-.867.68.68 0 0 0-.483-.201m0 46.666a.685.685 0 0 0-.671.821.687.687 0 0 0 .932.501.68.68 0 0 0 .422-.635.69.69 0 0 0-.683-.687m0-9.333a.69.69 0 0 0-.484 1.173.69.69 0 0 0 .745.149.68.68 0 0 0 .422-.635.686.686 0 0 0-.683-.687m-8.042-144.667a.69.69 0 0 0-.631.424.68.68 0 0 0 .148.749.683.683 0 0 0 1.114-.749.7.7 0 0 0-.148-.222.7.7 0 0 0-.222-.149.7.7 0 0 0-.261-.053m0 9.334a.68.68 0 0 0-.631.424.68.68 0 0 0 .148.748.68.68 0 0 0 1.051-.104.688.688 0 0 0-.568-1.068m8.042 126a.684.684 0 0 0-.484 1.172.68.68 0 0 0 1.052-.104.688.688 0 0 0-.568-1.068m0-9.334a.685.685 0 0 0-.671.821.69.69 0 0 0 .537.54.685.685 0 0 0 .617-1.159.7.7 0 0 0-.483-.202m-8.042-79.333a.68.68 0 0 0-.631.424.68.68 0 0 0 .148.749.69.69 0 0 0 .745.149.69.69 0 0 0 .421-.635.68.68 0 0 0-.2-.486.68.68 0 0 0-.483-.201m0-28a.69.69 0 0 0-.631.424.68.68 0 0 0 .148.749.69.69 0 0 0 .745.149.686.686 0 0 0 .369-.898.68.68 0 0 0-.631-.424m0 37.334a.685.685 0 0 0-.67.821.68.68 0 0 0 .537.539.68.68 0 0 0 .701-.292.69.69 0 0 0-.307-1.016.65.65 0 0 0-.261-.052m0 9.333a.68.68 0 0 0-.631.424.68.68 0 0 0 .148.749.685.685 0 0 0 1.114-.749.67.67 0 0 0-.37-.372.7.7 0 0 0-.261-.052m8.042 51.333a.69.69 0 0 0-.484 1.173.69.69 0 0 0 .745.149.68.68 0 0 0 .422-.635.684.684 0 0 0-.683-.687m-8.042-42a.69.69 0 0 0-.631.424.68.68 0 0 0 .148.749.69.69 0 0 0 .745.149.686.686 0 0 0 .369-.898.68.68 0 0 0-.631-.424m0-46.667a.685.685 0 0 0-.67.821.68.68 0 0 0 .537.54.685.685 0 0 0 .394-1.308.7.7 0 0 0-.261-.053m0 9.334a.68.68 0 0 0-.631.424.68.68 0 0 0 .148.749.68.68 0 0 0 .745.148.686.686 0 0 0 .221-1.12.68.68 0 0 0-.483-.201m8.042-4.667a.69.69 0 0 0-.484 1.173.69.69 0 0 0 .745.149.68.68 0 0 0 .422-.635.684.684 0 0 0-.683-.687m0-9.333a.685.685 0 0 0-.671.821.682.682 0 0 0 1.239.247.69.69 0 0 0-.085-.867.68.68 0 0 0-.483-.201m0 28a.684.684 0 0 0-.484 1.172.68.68 0 0 0 1.052-.104.688.688 0 0 0-.568-1.068m0-9.334a.685.685 0 0 0-.671.821.69.69 0 0 0 .537.54.685.685 0 0 0 .617-1.159.7.7 0 0 0-.483-.202m0-37.333a.685.685 0 0 0-.671.821.687.687 0 0 0 .932.501.68.68 0 0 0 .422-.635.684.684 0 0 0-.683-.687m0 9.334a.68.68 0 0 0-.632.423.69.69 0 0 0 .148.749.68.68 0 0 0 1.052-.104.69.69 0 0 0-.085-.867.68.68 0 0 0-.483-.201M97.5 329.646a.688.688 0 0 0-.133 1.361.684.684 0 0 0 .764-.937.68.68 0 0 0-.37-.371.7.7 0 0 0-.261-.053m16.084-65.333a.685.685 0 0 0-.671.821.687.687 0 0 0 .932.501.68.68 0 0 0 .422-.635.684.684 0 0 0-.683-.687m0-28a.69.69 0 0 0-.484 1.173.69.69 0 0 0 .745.149.68.68 0 0 0 .422-.635.686.686 0 0 0-.683-.687m0 37.334a.684.684 0 0 0-.484 1.172.68.68 0 0 0 1.052-.104.69.69 0 0 0-.085-.867.68.68 0 0 0-.483-.201m0-18.667a.685.685 0 0 0-.484 1.172.68.68 0 0 0 1.052-.104.688.688 0 0 0-.568-1.068m0-9.334a.685.685 0 0 0-.671.821.687.687 0 0 0 .932.501.68.68 0 0 0 .422-.635.69.69 0 0 0-.683-.687m-8.042 51.334a.68.68 0 0 0-.631.424.68.68 0 0 0 .148.749.68.68 0 0 0 .745.148.686.686 0 0 0 .221-1.12.68.68 0 0 0-.483-.201M97.5 245.646a.688.688 0 1 0 .262 1.322.68.68 0 0 0 .422-.635.7.7 0 0 0-.2-.485.67.67 0 0 0-.484-.202m0 9.334a.68.68 0 0 0-.631.424.69.69 0 0 0 .148.749.68.68 0 0 0 .745.148.68.68 0 0 0 .422-.634.69.69 0 0 0-.684-.687m0 9.333a.68.68 0 0 0-.631.424.69.69 0 0 0 .148.749.69.69 0 0 0 .745.149.69.69 0 0 0 0-1.27.7.7 0 0 0-.262-.052m0 9.334a.684.684 0 0 0-.67.821.687.687 0 0 0 .932.5.68.68 0 0 0 .422-.635.684.684 0 0 0-.684-.686m0-37.334a.685.685 0 0 0-.67.821.69.69 0 0 0 .537.54.684.684 0 0 0 .764-.937.7.7 0 0 0-.37-.371.7.7 0 0 0-.261-.053m0-9.333a.68.68 0 0 0-.631.424.69.69 0 0 0 .148.748.68.68 0 0 0 1.051-.104.687.687 0 0 0-.568-1.068m0 74.666a.684.684 0 0 0-.67.821.69.69 0 0 0 .537.54.684.684 0 0 0 .817-.674.686.686 0 0 0-.684-.687m0-18.666a.68.68 0 0 0-.631.424.69.69 0 0 0 .498.937.684.684 0 0 0 .764-.937.68.68 0 0 0-.631-.424m0 28a.68.68 0 0 0-.631.424.69.69 0 0 0 .148.748.68.68 0 0 0 1.051-.104.687.687 0 0 0-.568-1.068m0 9.333a.685.685 0 0 0-.67.821.69.69 0 0 0 .537.54.684.684 0 0 0 .764-.937.7.7 0 0 0-.37-.371.7.7 0 0 0-.261-.053m0-28a.685.685 0 0 0-.67.821.69.69 0 0 0 .537.54.684.684 0 0 0 .764-.937.7.7 0 0 0-.37-.372.7.7 0 0 0-.261-.052m0-74.667a.684.684 0 0 0-.67.821.69.69 0 0 0 .537.54.684.684 0 0 0 .817-.674.69.69 0 0 0-.684-.687m0-9.333a.685.685 0 0 0-.67.821.69.69 0 0 0 .537.54.684.684 0 0 0 .764-.937.7.7 0 0 0-.37-.372.7.7 0 0 0-.261-.052m8.042 107.334a.685.685 0 0 0-.67.821.68.68 0 0 0 .537.539.68.68 0 0 0 .701-.292.69.69 0 0 0-.307-1.016.65.65 0 0 0-.261-.052m0-28.001a.685.685 0 0 0-.67.821.68.68 0 0 0 .537.54.685.685 0 0 0 .394-1.308.7.7 0 0 0-.261-.053m0-28a.69.69 0 0 0-.631.425.7.7 0 0 0-.039.396.68.68 0 0 0 .537.54.68.68 0 0 0 .816-.674.7.7 0 0 0-.052-.262.7.7 0 0 0-.148-.223.7.7 0 0 0-.222-.149.7.7 0 0 0-.261-.053m8.042-88.666a.685.685 0 0 0-.484 1.172.68.68 0 0 0 1.052-.104.688.688 0 0 0-.568-1.068m-8.042 107.333a.69.69 0 0 0-.631.424.68.68 0 0 0 .148.749.69.69 0 0 0 .745.149.686.686 0 0 0 .369-.898.68.68 0 0 0-.631-.424m0-9.333a.68.68 0 0 0-.631.424.68.68 0 0 0 .148.748.68.68 0 0 0 1.051-.104.688.688 0 0 0-.568-1.068m0 37.333a.68.68 0 0 0-.631.424.68.68 0 0 0 .148.749.69.69 0 0 0 .745.149.69.69 0 0 0 .421-.635.68.68 0 0 0-.2-.486.68.68 0 0 0-.483-.201M97.5 198.98a.68.68 0 0 0-.631.424.69.69 0 0 0 .498.937.684.684 0 0 0 .764-.937.68.68 0 0 0-.631-.424m0-9.333a.684.684 0 0 0-.67.821.687.687 0 0 0 .932.5.68.68 0 0 0 .422-.635.684.684 0 0 0-.684-.686m0-9.334a.68.68 0 0 0-.631.424.69.69 0 0 0 .148.749.69.69 0 0 0 .745.149.69.69 0 0 0 0-1.27.7.7 0 0 0-.262-.052m0-9.333a.68.68 0 0 0-.631.424.69.69 0 0 0 .148.749.68.68 0 0 0 .745.148.68.68 0 0 0 .422-.634.69.69 0 0 0-.684-.687m8.042 154a.68.68 0 0 0-.631.424.68.68 0 0 0 .148.749.685.685 0 0 0 1.114-.749.67.67 0 0 0-.37-.372.7.7 0 0 0-.261-.052m16.083-28a.68.68 0 0 0-.631.424.69.69 0 0 0 .148.749.68.68 0 0 0 .745.148.7.7 0 0 0 .306-.253.68.68 0 0 0 .064-.644.7.7 0 0 0-.37-.372.7.7 0 0 0-.262-.052m8.042-98a.68.68 0 0 0-.631.424.68.68 0 0 0 .148.749.685.685 0 0 0 1.114-.749.67.67 0 0 0-.37-.372.7.7 0 0 0-.261-.052m0-9.333a.685.685 0 0 0-.67.821.68.68 0 0 0 .537.539.68.68 0 0 0 .701-.292.69.69 0 0 0-.307-1.016.65.65 0 0 0-.261-.052m0 27.999a.69.69 0 0 0-.631.425.7.7 0 0 0-.039.396.68.68 0 0 0 .537.54.68.68 0 0 0 .816-.674.7.7 0 0 0-.052-.262.7.7 0 0 0-.148-.223.7.7 0 0 0-.222-.149.7.7 0 0 0-.261-.053m0-9.333a.69.69 0 0 0-.631.424.68.68 0 0 0 .148.749.69.69 0 0 0 .745.149.686.686 0 0 0 .369-.898.68.68 0 0 0-.631-.424m0-37.333a.68.68 0 0 0-.631.424.68.68 0 0 0 .148.749.68.68 0 0 0 .745.148.686.686 0 0 0 .221-1.12.68.68 0 0 0-.483-.201m0 9.333a.68.68 0 0 0-.631.424.68.68 0 0 0 .148.749.69.69 0 0 0 .745.149.69.69 0 0 0 .421-.635.68.68 0 0 0-.2-.486.68.68 0 0 0-.483-.201m0 93.334a.685.685 0 0 0-.67.821.68.68 0 0 0 .537.539.68.68 0 0 0 .701-.292.69.69 0 0 0-.307-1.016.65.65 0 0 0-.261-.052m0-9.334a.68.68 0 0 0-.631.424.68.68 0 0 0 .148.749.69.69 0 0 0 .745.149.69.69 0 0 0 .421-.635.68.68 0 0 0-.2-.486.68.68 0 0 0-.483-.201m8.042 60.667a.685.685 0 0 0-.671.821.682.682 0 0 0 1.239.247.69.69 0 0 0-.085-.867.68.68 0 0 0-.483-.201m-8.042-98a.68.68 0 0 0-.631.424.68.68 0 0 0 .148.748.68.68 0 0 0 1.051-.104.688.688 0 0 0-.568-1.068m0 28a.68.68 0 0 0-.631.424.68.68 0 0 0 .148.749.68.68 0 0 0 .745.148.686.686 0 0 0 .221-1.12.68.68 0 0 0-.483-.201m0-18.667a.69.69 0 0 0-.631.424.68.68 0 0 0 .148.749.69.69 0 0 0 .745.149.686.686 0 0 0 .369-.898.68.68 0 0 0-.631-.424m8.042 14a.69.69 0 0 0-.484 1.173.69.69 0 0 0 .745.149.68.68 0 0 0 .422-.635.684.684 0 0 0-.683-.687m0-9.333a.685.685 0 0 0-.671.821.682.682 0 0 0 1.239.247.69.69 0 0 0-.085-.867.68.68 0 0 0-.483-.201m-8.042 42a.68.68 0 0 0-.631.424.68.68 0 0 0 .148.749.685.685 0 0 0 1.114-.749.67.67 0 0 0-.37-.372.7.7 0 0 0-.261-.052m8.042-51.333a.68.68 0 0 0-.632.423.69.69 0 0 0 .148.749.68.68 0 0 0 1.052-.104.69.69 0 0 0-.085-.867.68.68 0 0 0-.483-.201m0 84a.684.684 0 0 0-.484 1.172.68.68 0 0 0 1.052-.104.69.69 0 0 0-.085-.867.68.68 0 0 0-.483-.201m0-56.001a.685.685 0 0 0-.671.821.687.687 0 0 0 .932.501.684.684 0 0 0 .222-1.12.7.7 0 0 0-.483-.202m0-46.666a.685.685 0 0 0-.484 1.172.68.68 0 0 0 1.052-.104.688.688 0 0 0-.568-1.068m0 9.333a.685.685 0 0 0-.671.821.687.687 0 0 0 .932.501.68.68 0 0 0 .422-.635.684.684 0 0 0-.683-.687m0 74.667a.685.685 0 0 0-.484 1.172.68.68 0 0 0 1.052-.104.688.688 0 0 0-.568-1.068m0 9.333a.685.685 0 0 0-.671.821.687.687 0 0 0 .932.501.68.68 0 0 0 .422-.635.684.684 0 0 0-.683-.687m0-28a.69.69 0 0 0-.484 1.173.69.69 0 0 0 .745.149.68.68 0 0 0 .422-.635.686.686 0 0 0-.683-.687m0 9.333a.685.685 0 0 0-.671.821.687.687 0 0 0 .932.501.68.68 0 0 0 .422-.635.69.69 0 0 0-.683-.687m0-18.666a.684.684 0 0 0-.484 1.172.68.68 0 0 0 1.052-.104.688.688 0 0 0-.568-1.068m-8.042-23.334a.685.685 0 0 0-.67.821.68.68 0 0 0 .537.54.685.685 0 0 0 .394-1.308.7.7 0 0 0-.261-.053m-8.042-13.999a.7.7 0 0 0-.38.115.69.69 0 0 0-.103 1.057.68.68 0 0 0 1.051-.104.684.684 0 0 0-.085-.867.66.66 0 0 0-.483-.201m0 55.999a.7.7 0 0 0-.38.116.69.69 0 0 0-.103 1.057.69.69 0 0 0 .745.149.684.684 0 0 0 .221-1.12.67.67 0 0 0-.483-.202m0 18.667a.68.68 0 0 0-.631.424.69.69 0 0 0 .148.749.69.69 0 0 0 .745.149.687.687 0 0 0-.262-1.322m16.084-102.667a.685.685 0 0 0-.671.821.687.687 0 0 0 .932.501.68.68 0 0 0 .422-.635.69.69 0 0 0-.683-.687m-16.084 112.001a.7.7 0 0 0-.38.115.69.69 0 0 0-.103 1.057.68.68 0 0 0 1.051-.104.684.684 0 0 0-.085-.867.66.66 0 0 0-.483-.201m0-93.334a.68.68 0 0 0-.631.424.69.69 0 0 0 .148.749.69.69 0 0 0 .745.149.687.687 0 0 0-.262-1.322m0-9.333a.68.68 0 0 0-.631.424.69.69 0 0 0 .148.749.68.68 0 0 0 .745.148.7.7 0 0 0 .306-.253.68.68 0 0 0 .064-.644.7.7 0 0 0-.37-.372.7.7 0 0 0-.262-.052m0 56a.68.68 0 0 0-.631.424.69.69 0 0 0 .148.748.68.68 0 0 0 1.051-.104.68.68 0 0 0 .064-.644.69.69 0 0 0-.632-.424m0-9.334a.69.69 0 0 0-.631.424.69.69 0 0 0 .148.749.69.69 0 0 0 .745.149.69.69 0 0 0 .422-.635.685.685 0 0 0-.684-.687m0-18.666a.68.68 0 0 0-.631.424.69.69 0 0 0 .148.749.685.685 0 0 0 1.115-.749.69.69 0 0 0-.632-.424m0 9.333a.69.69 0 0 0-.631.424.69.69 0 0 0 .148.749.69.69 0 0 0 .745.149.684.684 0 0 0 .221-1.121.7.7 0 0 0-.483-.201m8.042 42a.69.69 0 0 0-.631.424.68.68 0 0 0 .148.749.69.69 0 0 0 .745.149.686.686 0 0 0 .369-.898.68.68 0 0 0-.631-.424m-8.042-98a.69.69 0 0 0-.631.424.69.69 0 0 0 .148.749.69.69 0 0 0 .745.149.684.684 0 0 0 .221-1.121.68.68 0 0 0-.483-.201m8.042 126a.69.69 0 0 0-.631.424.68.68 0 0 0 .148.749.69.69 0 0 0 .745.149.686.686 0 0 0 .369-.898.68.68 0 0 0-.631-.424m-8.042 4.667a.68.68 0 0 0-.631.424.69.69 0 0 0 .148.749.685.685 0 0 0 1.115-.749.69.69 0 0 0-.632-.424m8.042 4.666a.685.685 0 0 0-.67.821.68.68 0 0 0 .537.54.685.685 0 0 0 .394-1.308.7.7 0 0 0-.261-.053m0-28a.69.69 0 0 0-.631.425.7.7 0 0 0-.039.396.68.68 0 0 0 .537.54.68.68 0 0 0 .816-.674.7.7 0 0 0-.052-.262.7.7 0 0 0-.148-.223.7.7 0 0 0-.222-.149.7.7 0 0 0-.261-.053m0 9.334a.68.68 0 0 0-.631.424.68.68 0 0 0 .148.748.68.68 0 0 0 1.051-.104.688.688 0 0 0-.568-1.068m-8.042-135.334a.69.69 0 0 0-.631.424.69.69 0 0 0 .148.749.69.69 0 0 0 .745.149.69.69 0 0 0 .422-.635.68.68 0 0 0-.201-.485.68.68 0 0 0-.483-.202m0 28a.7.7 0 0 0-.38.116.69.69 0 0 0-.103 1.057.68.68 0 0 0 1.051-.104.684.684 0 0 0-.085-.867.67.67 0 0 0-.483-.202m0 74.667a.69.69 0 0 0-.631.424.69.69 0 0 0 .148.749.69.69 0 0 0 .745.149.684.684 0 0 0 .221-1.121.68.68 0 0 0-.483-.201m0-93.333a.68.68 0 0 0-.631.424.69.69 0 0 0 .148.748.68.68 0 0 0 1.051-.104.68.68 0 0 0 .064-.644.69.69 0 0 0-.632-.424"/>
</svg>
