<svg xmlns="http://www.w3.org/2000/svg" xmlns:xlink="http://www.w3.org/1999/xlink" fill="none" stroke-linecap="square" stroke-miterlimit="10" viewBox="0 0 960 540">
  <clipPath id="a">
    <path d="M0 0h960v540H0z"/>
  </clipPath>
  <g clip-path="url(#a)">
    <path fill="#fff" fill-rule="evenodd" d="M0 0h960v540H0z"/>
    <g filter="url(#b)">
      <use xlink:href="#c" transform="translate(0 7.333)"/>
    </g>
    <defs>
      <filter id="b" filterUnits="userSpaceOnUse">
        <feGaussianBlur in="SourceAlpha" result="blur" stdDeviation="5.333"/>
        <feComponentTransfer color-interpolation-filters="sRGB" in="blur">
          <feFuncR slope="0" type="linear"/>
          <feFuncG slope="0" type="linear"/>
          <feFuncB slope="0" type="linear"/>
          <feFuncA slope=".063" type="linear"/>
        </feComponentTransfer>
      </filter>
    </defs>
    <g id="c" fill-rule="evenodd">
      <path fill="#fff" d="M144.513 105.68q0-.002.002-.002l251.683.002a.002.002 0 0 1 .003.002l-.003 374.864-.002.002-251.683-.002-.002-.002z"/>
      <path stroke="#d2d4db" stroke-linecap="butt" stroke-miterlimit="400" d="M144.513 105.68q0-.002.002-.002l251.683.002a.002.002 0 0 1 .003.002l-.003 374.864-.002.002-251.683-.002-.002-.002z"/>
    </g>
    <g filter="url(#d)">
      <use xlink:href="#e" transform="translate(0 7.333)"/>
    </g>
    <defs>
      <filter id="d" filterUnits="userSpaceOnUse">
        <feGaussianBlur in="SourceAlpha" result="blur" stdDeviation="5.333"/>
        <feComponentTransfer color-interpolation-filters="sRGB" in="blur">
          <feFuncR slope="0" type="linear"/>
          <feFuncG slope="0" type="linear"/>
          <feFuncB slope="0" type="linear"/>
          <feFuncA slope=".063" type="linear"/>
        </feComponentTransfer>
      </filter>
    </defs>
    <g id="e" fill-rule="evenodd">
      <path fill="#fff" d="M569.616 105.68q0-.002.002-.002l251.683.002h.001v.002l-.001 374.864-.002.002-251.683-.002-.002-.002z"/>
      <path stroke="#d2d4db" stroke-linecap="butt" stroke-miterlimit="400" d="M569.616 105.68q0-.002.002-.002l251.683.002h.001v.002l-.001 374.864-.002.002-251.683-.002-.002-.002z"/>
    </g>
    <g filter="url(#f)">
      <use xlink:href="#g" transform="translate(0 7.333)"/>
    </g>
    <defs>
      <filter id="f" filterUnits="userSpaceOnUse">
        <feGaussianBlur in="SourceAlpha" result="blur" stdDeviation="5.333"/>
        <feComponentTransfer color-interpolation-filters="sRGB" in="blur">
          <feFuncR slope="0" type="linear"/>
          <feFuncG slope="0" type="linear"/>
          <feFuncB slope="0" type="linear"/>
          <feFuncA slope=".063" type="linear"/>
        </feComponentTransfer>
      </filter>
    </defs>
    <g id="g" fill-rule="evenodd">
      <path fill="#fff" d="M343.096 85.56c0-.675.547-1.223 1.222-1.223h41.555a1.22 1.22 0 0 1 1.223 1.223v41.555c0 .675-.548 1.222-1.223 1.222h-41.555a1.22 1.22 0 0 1-1.222-1.222z"/>
      <path stroke="#ca2171" stroke-linecap="butt" stroke-miterlimit="400" d="M343.096 85.56c0-.675.547-1.223 1.222-1.223h41.555a1.22 1.22 0 0 1 1.223 1.223v41.555c0 .675-.548 1.222-1.223 1.222h-41.555a1.22 1.22 0 0 1-1.222-1.222z"/>
    </g>
    <path fill="#8e134a" fill-rule="evenodd" d="M364.609 109.007c-1.528 0-2.837-1.194-2.837-2.715 0-1.556 1.237-2.823 2.764-2.823 1.528 0 2.837 1.23 2.837 2.75.036 1.594-1.237 2.788-2.764 2.788"/>
    <path fill="#ca2171" fill-rule="evenodd" d="M370.04 107.575c-.721 0-1.298-.567-1.298-1.24a1.28 1.28 0 0 1 1.297-1.274c.685 0 1.261.567 1.261 1.275 0 .672-.576 1.239-1.26 1.239m4.683 1.015a1.28 1.28 0 0 1-1.503.915c-.68-.176-1.074-.88-.93-1.477.179-.704.859-1.055 1.503-.95.644.211 1.073.81.93 1.442.072 0 .072.07 0 .07m-.71-3.191c-.725.105-1.45-.282-1.56-.95-.144-.703.254-1.371.98-1.477.688-.14 1.414.246 1.522.95.073.175.073.28 0 .492-.072.422-.435.844-.942.985m4.474 3.141c-.143.713-.787 1.105-1.467.998-.716-.142-1.145-.748-1.002-1.425.107-.713.751-1.14 1.467-.998.609.107 1.11.677 1.074 1.319 0 .035-.072.106-.072.106m-.951-3.177c-.755.141-1.397-.386-1.548-.984-.113-.704.415-1.301 1.057-1.442.755-.106 1.397.387 1.548 1.02v.281c0 .563-.491 1.055-1.057 1.125m-1.066 7.635c-.393.609-1.145.788-1.717.501-.609-.394-.823-1.146-.501-1.72.393-.645 1.145-.824 1.717-.502.43.251.68.753.609 1.183.071.143 0 .323-.108.538m-.338-11.763c-.645.286-1.396.071-1.718-.538-.322-.645-.143-1.362.5-1.684.645-.323 1.397-.144 1.719.501.107.251.179.502.107.753-.072.394-.25.753-.608.968"/>
    <path fill="#ca2171" fill-rule="evenodd" d="M364.675 119.201c-3.537 0-6.815-1.339-9.284-3.763a12.73 12.73 0 0 1-3.831-9.12c0-3.439 1.363-6.696 3.831-9.12 2.469-2.425 5.747-3.764 9.284-3.764 2.91 0 5.637.868 7.92 2.605l-1.62 2.027a10.58 10.58 0 0 0-6.374-2.099 10.55 10.55 0 0 0-7.405 3.004 10.18 10.18 0 0 0-3.057 7.274c0 2.75 1.105 5.356 3.057 7.274a10.55 10.55 0 0 0 7.405 3.004c2.321 0 4.532-.724 6.374-2.099l1.62 2.027c-2.283 1.773-5.01 2.75-7.92 2.75"/>
    <path d="M333.993 59.454h62.205v24.882h-62.205z"/>
    <path fill="#9396a2" d="m354.062 61.758 1.562 4.578h.016l1.469-4.562.015-.016h2.047v6.656h-1.375v-4.719h-.015l-1.625 4.72h-1.125l-1.641-4.673h-.016v4.672H352v-6.656zm11.384 0v1.234h-3.515v1.422h3.219v1.14h-3.22v1.626h3.595v1.234h-5.063v-6.656zm3.357-.156q1.203 0 1.938.562.734.547.734 1.578h-1.422q-.031-.5-.344-.75-.312-.265-.968-.265-.438 0-.735.203-.281.203-.281.562 0 .25.11.375.124.125.484.266.375.125 1.609.422.828.187 1.297.672.469.484.469 1.203 0 .969-.735 1.562-.718.578-2.031.578-1.266 0-2.062-.609-.782-.625-.782-1.719v-.03h1.422q0 .608.406.921.407.297 1.063.297.594 0 .937-.203.36-.219.36-.625 0-.313-.281-.516-.266-.219-.86-.375-.765-.172-1.39-.36-.625-.187-1.032-.624-.406-.438-.406-1.125 0-.89.719-1.438.719-.562 1.781-.562m5.225.156v2.547h2.703v-2.547h1.453v6.656h-1.453V65.54h-2.703v2.875h-1.469v-6.656zM346.29 75.042q1.077 0 1.874.625.813.625.938 1.718h-1.407q-.14-.562-.515-.843-.36-.282-.89-.282-.86 0-1.345.641-.468.625-.468 1.656 0 .97.468 1.594.47.625 1.344.625.703 0 1.11-.36.406-.359.484-1.077h-1.484v-1.094h2.812v3.61h-.937l-.157-.75q-.36.452-.812.687-.453.218-1.016.218-.953 0-1.703-.437-.75-.438-1.156-1.234-.406-.813-.406-1.782 0-1.547.89-2.53.906-.985 2.375-.985m7.421.156 2.484 6.656h-1.515l-.5-1.484h-2.5l-.516 1.484h-1.484l2.531-6.656zm-.781 1.64-.86 2.438h1.72l-.829-2.437zm7.942-1.64v1.234h-2v5.422h-1.453v-5.422h-2v-1.234zm5.745 0v1.234H363.1v1.422h3.22v1.14h-3.22v1.626h3.594v1.234h-5.062v-6.656zm1.92 0 1.046 4.531h.016l1.156-4.531h1.375l1.14 4.578h.016l1.094-4.578h1.437l-1.796 6.656h-1.454l-1.125-4.531h-.015l-1.11 4.531h-1.484l-1.766-6.656zm11.076 0 2.485 6.656h-1.516l-.5-1.484h-2.5l-.516 1.484h-1.484l2.531-6.656zm-.781 1.64-.86 2.438h1.72l-.829-2.437zm4.036-1.64 1.563 2.625 1.547-2.625h1.625l-2.47 4.094v2.562h-1.452V79.26l-2.453-4.062z"/>
    <g filter="url(#h)">
      <use xlink:href="#i" transform="translate(0 7.333)"/>
    </g>
    <defs>
      <filter id="h" filterUnits="userSpaceOnUse">
        <feGaussianBlur in="SourceAlpha" result="blur" stdDeviation="5.333"/>
        <feComponentTransfer color-interpolation-filters="sRGB" in="blur">
          <feFuncR slope="0" type="linear"/>
          <feFuncG slope="0" type="linear"/>
          <feFuncB slope="0" type="linear"/>
          <feFuncA slope=".063" type="linear"/>
        </feComponentTransfer>
      </filter>
    </defs>
    <g id="i" fill-rule="evenodd">
      <path fill="#fff" d="M578.718 85.56c0-.675.547-1.223 1.222-1.223h41.555a1.22 1.22 0 0 1 1.223 1.223v41.555c0 .675-.548 1.222-1.223 1.222H579.94a1.22 1.22 0 0 1-1.222-1.222z"/>
      <path stroke="#ca2171" stroke-linecap="butt" stroke-miterlimit="400" d="M578.718 85.56c0-.675.547-1.223 1.222-1.223h41.555a1.22 1.22 0 0 1 1.223 1.223v41.555c0 .675-.548 1.222-1.223 1.222H579.94a1.22 1.22 0 0 1-1.222-1.222z"/>
    </g>
    <path fill="#8e134a" fill-rule="evenodd" d="M600.23 109.007c-1.527 0-2.836-1.194-2.836-2.715 0-1.556 1.237-2.823 2.764-2.823 1.528 0 2.837 1.23 2.837 2.75.036 1.594-1.237 2.788-2.764 2.788"/>
    <path fill="#ca2171" fill-rule="evenodd" d="M605.661 107.575c-.72 0-1.297-.567-1.297-1.24a1.28 1.28 0 0 1 1.297-1.274c.685 0 1.261.567 1.261 1.275 0 .672-.576 1.239-1.26 1.239m4.683 1.015a1.28 1.28 0 0 1-1.503.915c-.68-.176-1.073-.88-.93-1.477.179-.704.859-1.055 1.503-.95.644.211 1.073.81.93 1.442.072 0 .072.07 0 .07m-.71-3.191c-.725.105-1.45-.282-1.56-.95-.144-.703.254-1.371.98-1.477.689-.14 1.414.246 1.523.95.072.175.072.28 0 .492-.073.422-.436.844-.943.985m4.475 3.141c-.144.713-.788 1.105-1.468.998-.716-.142-1.145-.748-1.002-1.425.107-.713.751-1.14 1.467-.998.609.107 1.11.677 1.074 1.319 0 .035-.072.106-.072.106m-.951-3.177c-.755.141-1.397-.386-1.548-.984-.113-.704.415-1.301 1.057-1.442.755-.106 1.397.387 1.548 1.02v.281c0 .563-.491 1.055-1.057 1.125m-1.065 7.635c-.394.609-1.146.788-1.718.501-.609-.394-.823-1.146-.501-1.72.393-.645 1.145-.824 1.717-.502.43.251.68.753.609 1.183.071.143 0 .323-.108.538m-.338-11.763c-.645.286-1.396.071-1.718-.538-.322-.645-.143-1.362.5-1.684.645-.323 1.397-.144 1.719.501.107.251.179.502.107.753-.072.394-.25.753-.608.968"/>
    <path fill="#ca2171" fill-rule="evenodd" d="M600.297 119.201c-3.537 0-6.815-1.339-9.284-3.763a12.73 12.73 0 0 1-3.831-9.12c0-3.439 1.363-6.696 3.831-9.12 2.469-2.425 5.747-3.764 9.284-3.764 2.91 0 5.637.868 7.921 2.605l-1.621 2.027a10.58 10.58 0 0 0-6.373-2.099c-2.8 0-5.453 1.086-7.405 3.004a10.18 10.18 0 0 0-3.058 7.274c0 2.75 1.105 5.356 3.058 7.274a10.55 10.55 0 0 0 7.405 3.004c2.32 0 4.531-.724 6.373-2.099l1.621 2.027c-2.284 1.773-5.01 2.75-7.92 2.75"/>
    <path d="M569.616 59.454h62.204v24.882h-62.205z"/>
    <path fill="#9396a2" d="m589.684 61.758 1.562 4.578h.016l1.469-4.562.015-.016h2.047v6.656h-1.375v-4.719h-.015l-1.625 4.72h-1.125l-1.641-4.673h-.016v4.672h-1.375v-6.656zm11.384 0v1.234h-3.515v1.422h3.219v1.14h-3.22v1.626h3.595v1.234h-5.063v-6.656zm3.357-.156q1.203 0 1.938.562.734.547.734 1.578h-1.422q-.031-.5-.344-.75-.312-.265-.968-.265-.438 0-.735.203-.281.203-.281.562 0 .25.11.375.124.125.484.266.375.125 1.61.422.827.187 1.296.672.469.484.469 1.203 0 .969-.735 1.562-.718.578-2.03.578-1.267 0-2.063-.609-.782-.625-.782-1.719v-.03h1.422q0 .608.406.921.407.297 1.063.297.594 0 .937-.203.36-.219.36-.625 0-.313-.281-.516-.266-.219-.86-.375-.765-.172-1.39-.36-.625-.187-1.032-.624-.406-.438-.406-1.125 0-.89.719-1.438.719-.562 1.781-.562m5.225.156v2.547h2.703v-2.547h1.454v6.656h-1.454V65.54h-2.703v2.875h-1.468v-6.656zm-27.739 13.284q1.078 0 1.875.625.813.625.938 1.718h-1.407q-.14-.562-.515-.843-.36-.282-.89-.282-.86 0-1.345.641-.468.625-.468 1.656 0 .97.468 1.594.47.625 1.344.625.703 0 1.11-.36.406-.359.484-1.077h-1.484v-1.094h2.812v3.61h-.937l-.157-.75q-.36.452-.812.687-.453.218-1.016.218-.953 0-1.703-.437-.75-.438-1.156-1.234-.406-.813-.406-1.782 0-1.547.89-2.53.906-.985 2.375-.985m7.422.156 2.484 6.656h-1.515l-.5-1.484h-2.5l-.516 1.484h-1.484l2.531-6.656zm-.781 1.64-.86 2.438h1.72l-.829-2.437zm7.942-1.64v1.234h-2v5.422h-1.453v-5.422h-2v-1.234zm5.745 0v1.234h-3.516v1.422h3.22v1.14h-3.22v1.626h3.594v1.234h-5.062v-6.656zm1.92 0 1.046 4.531h.016l1.156-4.531h1.375l1.14 4.578h.016l1.094-4.578h1.437l-1.796 6.656h-1.454l-1.125-4.531h-.015l-1.11 4.531h-1.484l-1.766-6.656zm11.076 0 2.485 6.656h-1.516l-.5-1.484h-2.5l-.516 1.484h-1.484l2.531-6.656zm-.781 1.64-.86 2.438h1.72l-.829-2.437zm4.036-1.64 1.563 2.625 1.547-2.625h1.625l-2.47 4.094v2.562h-1.452V79.26l-2.453-4.062z"/>
    <path d="M131.392 79.706h161.071v30.709h-161.07z"/>
    <path fill="#9396a2" d="M149.62 91.01q1.047 0 1.656.594.61.578.61 1.547 0 .953-.61 1.546-.61.579-1.656.579h-1.578v2.39h-1.469V91.01zm-.406 3.125q.64 0 .937-.234.313-.235.313-.75 0-.516-.297-.75-.297-.25-.938-.25h-1.187v1.984zm7.206-3.125q.812 0 1.36.516.562.515.562 1.328 0 .625-.266 1.047-.266.406-.797.609v.016q.469.125.719.562t.281 1.344q.016.906.25 1.234h-1.453q-.14-.328-.187-1.047-.063-.984-.329-1.265-.25-.282-.796-.282h-1.5v2.594h-1.47V91.01zm-.516 3.016q.453 0 .703-.22.266-.234.266-.734 0-.484-.25-.703t-.719-.218h-1.64v1.875zM161 91.01v6.656h-1.469V91.01zm3.345 0 1.562 4.578h.016l1.469-4.562.015-.016h2.047v6.656h-1.375v-4.719h-.015l-1.625 4.72h-1.125l-1.641-4.673h-.016v4.672h-1.375V91.01zm9.728 0 2.485 6.656h-1.516l-.5-1.484h-2.5l-.516 1.484h-1.484l2.531-6.656zm-.781 1.64-.86 2.438h1.72l-.829-2.437zm7.468-1.64q.813 0 1.36.516.562.515.562 1.328 0 .625-.265 1.047-.266.406-.797.609v.016q.468.125.718.562t.282 1.344q.015.906.25 1.234h-1.453q-.141-.328-.188-1.047-.062-.984-.328-1.265-.25-.282-.797-.282h-1.5v2.594h-1.469V91.01zm-.515 3.016q.453 0 .703-.22.265-.234.265-.734 0-.484-.25-.703t-.718-.218h-1.64v1.875zm4.398-3.016 1.563 2.625 1.547-2.625h1.625l-2.469 4.094v2.562h-1.453v-2.594l-2.453-4.062zm10.814 0q1.328 0 2.156.875.828.86.828 2.422 0 1.547-.812 2.453t-2.172.906h-2.922V91.01zm-.11 5.422q.704 0 1.157-.5.468-.5.468-1.5 0-1.156-.484-1.672t-1.406-.516h-1.078v4.188zm7.207-5.422 2.484 6.656h-1.515l-.5-1.484h-2.5l-.516 1.484h-1.484l2.53-6.656zm-.781 1.64-.86 2.438h1.719l-.828-2.437zm7.942-1.64v1.234h-2v5.422h-1.453v-5.422h-2V91.01zm3.25 0 2.484 6.656h-1.515l-.5-1.484h-2.5l-.516 1.484h-1.484l2.531-6.656zm-.781 1.64-.86 2.438h1.72l-.829-2.437zm6.659-1.796q1.14 0 1.937.64.797.641.938 1.75h-1.422q-.094-.53-.516-.843-.421-.329-.937-.329-.86 0-1.344.625-.469.625-.469 1.672 0 .985.47 1.61.484.61 1.343.61.64 0 1.031-.392.39-.39.485-1.093h1.421q-.125 1.265-.921 2-.797.718-2.016.718-.953 0-1.703-.437-.75-.438-1.156-1.234-.407-.813-.407-1.782 0-1.547.891-2.53.906-.985 2.375-.985m8.914.156v1.234h-3.516v1.422h3.22v1.14h-3.22v1.626h3.594v1.234h-5.062V91.01zm2.513 0 2.781 4.469h.016V91.01h1.375v6.656h-1.453l-2.781-4.453h-.016v4.453h-1.375V91.01zm10.398 0v1.234h-2v5.422h-1.453v-5.422h-2V91.01zm5.745 0v1.234h-3.515v1.422h3.218v1.14h-3.218v1.626h3.593v1.234h-5.062V91.01zm4.685 0q.813 0 1.36.516.562.515.562 1.328 0 .625-.266 1.047-.265.406-.796.609v.016q.468.125.718.562t.282 1.344q.015.906.25 1.234h-1.454q-.14-.328-.187-1.047-.063-.984-.328-1.265-.25-.282-.797-.282h-1.5v2.594h-1.469V91.01zm-.515 3.016q.453 0 .703-.22.265-.234.265-.734 0-.484-.25-.703t-.718-.218h-1.641v1.875zm8.406-3.172q-.5.922-.766 2-.25 1.078-.25 2.218 0 1.141.235 2.22.25 1.062.765 2.077h-1.094q-.609-1-.921-2.078-.313-1.094-.313-2.125 0-1.078.313-2.25.328-1.187.921-2.062zm5.135.156v6.656h-1.266v-.61h-.015q-.203.36-.594.548-.375.187-.86.187-1 0-1.593-.719-.578-.734-.578-1.859 0-1.078.578-1.781.578-.719 1.562-.719.453 0 .828.188.375.171.594.53h.016V91.01zm-3.578 4.234q0 .672.312 1.125.313.438.844.438.563 0 .844-.406.297-.422.297-1.157 0-.703-.282-1.109-.28-.422-.859-.422-.547 0-.86.422-.296.406-.296 1.11m6.885-2.53q.938 0 1.578.483.641.485.688 1.344H268.4q-.062-.406-.312-.61-.235-.218-.657-.218-.547 0-.843.438-.282.437-.282 1.125 0 .703.282 1.125.296.406.812.406.438 0 .703-.25.281-.266.344-.735h1.281q-.125.954-.75 1.47-.61.5-1.578.5-1.062 0-1.75-.688-.672-.688-.672-1.782 0-1.171.656-1.89.672-.719 1.797-.719m6.2-1.579v6.531h-1.328v-4.234h-1.64v-1h.093q.797 0 1.25-.328.47-.328.563-.969zm2.579-.281q.61.984.922 2.062t.312 2.14-.328 2.25q-.312 1.188-.906 2.048h-1.11q.516-.969.766-2.016.25-1.062.25-2.187 0-1.172-.25-2.235-.25-1.078-.75-2.062z"/>
    <path d="M655.127 79.706h173.48v30.709h-173.48z"/>
    <path fill="#9396a2" d="M670.96 90.854q1.203 0 1.937.562.734.547.734 1.578h-1.421q-.032-.5-.344-.75-.313-.265-.969-.265-.437 0-.734.203-.282.203-.282.562 0 .25.11.375.125.125.484.266.375.125 1.61.422.828.187 1.296.672.47.484.47 1.203 0 .969-.735 1.562-.719.578-2.031.578-1.266 0-2.063-.609-.781-.625-.781-1.719v-.03h1.422q0 .608.406.921.406.297 1.062.297.594 0 .938-.203.36-.219.36-.625 0-.313-.282-.516-.266-.219-.86-.375-.765-.172-1.39-.36-.625-.187-1.031-.624-.406-.438-.406-1.125 0-.89.718-1.438.719-.562 1.782-.562m8.74.156v1.234h-3.515v1.422h3.218v1.14h-3.218v1.626h3.593v1.234h-5.062V91.01zm4.044-.156q1.141 0 1.938.64.797.641.937 1.75h-1.421q-.094-.53-.516-.843-.422-.329-.938-.329-.859 0-1.343.625-.47.625-.47 1.672 0 .985.47 1.61.484.61 1.343.61.641 0 1.032-.392.39-.39.484-1.093h1.422q-.125 1.265-.922 2-.797.718-2.016.718-.953 0-1.703-.437-.75-.438-1.156-1.234-.406-.813-.406-1.782 0-1.547.89-2.53.907-.985 2.375-.985m6.915 0q1.484 0 2.375 1 .906.984.906 2.515 0 1.485-.906 2.47-.891.983-2.375.983-.954 0-1.704-.437-.75-.438-1.156-1.234-.406-.813-.406-1.782 0-1.547.89-2.53.907-.985 2.376-.985m-1.813 3.515q0 .985.469 1.61.484.61 1.344.61.859 0 1.328-.61.484-.61.484-1.61 0-1.062-.484-1.672-.47-.625-1.328-.625-.86 0-1.344.625-.469.625-.469 1.672m7.537-3.359 2.781 4.469h.016V91.01h1.375v6.656h-1.453l-2.782-4.453h-.015v4.453h-1.375V91.01zm8.383 0q1.328 0 2.156.875.828.86.828 2.422 0 1.547-.812 2.453t-2.172.906h-2.922V91.01zm-.11 5.422q.704 0 1.157-.5.468-.5.468-1.5 0-1.156-.484-1.672t-1.406-.516h-1.078v4.188zm7.207-5.422 2.484 6.656h-1.515l-.5-1.484h-2.5l-.516 1.484h-1.484l2.53-6.656zm-.781 1.64-.86 2.438h1.719l-.828-2.437zm7.468-1.64q.813 0 1.36.516.562.515.562 1.328 0 .625-.266 1.047-.265.406-.797.609v.016q.47.125.72.562t.28 1.344q.016.906.25 1.234h-1.453q-.14-.328-.187-1.047-.063-.984-.328-1.265-.25-.282-.797-.282h-1.5v2.594h-1.469V91.01zm-.516 3.016q.454 0 .704-.22.265-.234.265-.734 0-.484-.25-.703t-.719-.218h-1.64v1.875zm4.4-3.016 1.562 2.625 1.546-2.625h1.625l-2.468 4.094v2.562h-1.453v-2.594l-2.454-4.062zm10.812 0q1.329 0 2.157.875.828.86.828 2.422 0 1.547-.813 2.453t-2.172.906h-2.921V91.01zm-.109 5.422q.703 0 1.156-.5.47-.5.47-1.5 0-1.156-.485-1.672t-1.407-.516h-1.078v4.188zm7.207-5.422 2.484 6.656h-1.516l-.5-1.484h-2.5l-.515 1.484h-1.485l2.532-6.656zm-.782 1.64-.86 2.438h1.72l-.828-2.437zm7.943-1.64v1.234h-2v5.422h-1.453v-5.422h-2V91.01zm3.25 0 2.484 6.656h-1.515l-.5-1.484h-2.5l-.516 1.484h-1.484l2.53-6.656zm-.781 1.64-.86 2.438h1.719l-.828-2.437zm6.659-1.796q1.14 0 1.937.64.797.641.938 1.75h-1.422q-.094-.53-.516-.843-.422-.329-.937-.329-.86 0-1.344.625-.469.625-.469 1.672 0 .985.469 1.61.484.61 1.344.61.64 0 1.031-.392.39-.39.484-1.093h1.422q-.125 1.265-.922 2-.797.718-2.015.718-.953 0-1.703-.437-.75-.438-1.157-1.234-.406-.813-.406-1.782 0-1.547.89-2.53.907-.985 2.376-.985m8.914.156v1.234h-3.516v1.422h3.219v1.14h-3.219v1.626h3.594v1.234h-5.063V91.01zm2.513 0 2.781 4.469h.016V91.01h1.375v6.656h-1.454l-2.78-4.453h-.016v4.453h-1.375V91.01zm10.398 0v1.234h-2v5.422h-1.453v-5.422h-2V91.01zm5.745 0v1.234h-3.516v1.422h3.22v1.14h-3.22v1.626h3.594v1.234h-5.062V91.01zm4.685 0q.812 0 1.36.516.562.515.562 1.328 0 .625-.266 1.047-.266.406-.797.609v.016q.469.125.719.562t.281 1.344q.016.906.25 1.234h-1.453q-.14-.328-.187-1.047-.063-.984-.329-1.265-.25-.282-.796-.282h-1.5v2.594h-1.47V91.01zm-.516 3.016q.453 0 .703-.22.266-.234.266-.734 0-.484-.25-.703t-.719-.218h-1.64v1.875zm8.407-3.172q-.5.922-.766 2-.25 1.078-.25 2.218 0 1.141.234 2.22.25 1.062.766 2.077h-1.094q-.61-1-.922-2.078-.312-1.094-.312-2.125 0-1.078.312-2.25.328-1.187.922-2.062zm5.135.156v6.656h-1.266v-.61h-.016q-.203.36-.593.548-.375.187-.86.187-1 0-1.593-.719-.579-.734-.579-1.859 0-1.078.579-1.781.578-.719 1.562-.719.453 0 .828.188.375.171.594.53h.016V91.01zm-3.578 4.234q0 .672.312 1.125.313.438.844.438.562 0 .844-.406.296-.422.296-1.157 0-.703-.28-1.109-.282-.422-.86-.422-.547 0-.86.422-.296.406-.296 1.11m6.885-2.53q.938 0 1.578.483.64.485.688 1.344h-1.297q-.063-.406-.313-.61-.234-.218-.656-.218-.547 0-.844.438-.281.437-.281 1.125 0 .703.281 1.125.297.406.813.406.437 0 .703-.25.281-.266.344-.735h1.28q-.124.954-.75 1.47-.608.5-1.577.5-1.063 0-1.75-.688-.672-.688-.672-1.782 0-1.171.656-1.89.672-.719 1.797-.719m5.263-1.704q.953 0 1.593.578.641.563.641 1.453 0 .64-.312 1.14-.297.5-1.25 1.11-.672.422-1 .703-.313.282-.485.532h3.078v1.14h-4.781q0-.64.219-1.14.234-.5.656-.891.438-.406 1.656-1.203.453-.313.672-.61.219-.312.219-.671 0-.438-.266-.72-.265-.28-.703-.28-.5 0-.765.406-.266.39-.282 1.094h-1.265v-.125q0-1.141.64-1.829.657-.687 1.735-.687m3.516-.156q.609.984.922 2.062.312 1.078.312 2.14t-.328 2.25q-.313 1.188-.906 2.048h-1.11q.516-.969.766-2.016.25-1.062.25-2.187 0-1.172-.25-2.235-.25-1.078-.75-2.062z"/>
    <g filter="url(#j)">
      <use xlink:href="#k" transform="translate(0 7.333)"/>
    </g>
    <defs>
      <filter id="j" filterUnits="userSpaceOnUse">
        <feGaussianBlur in="SourceAlpha" result="blur" stdDeviation="5.333"/>
        <feComponentTransfer color-interpolation-filters="sRGB" in="blur">
          <feFuncR slope="0" type="linear"/>
          <feFuncG slope="0" type="linear"/>
          <feFuncB slope="0" type="linear"/>
          <feFuncA slope=".063" type="linear"/>
        </feComponentTransfer>
      </filter>
    </defs>
    <g id="k" fill-rule="evenodd">
      <path fill="#fff" d="M174.134 178.099c0-.675.547-1.222 1.222-1.222h41.555a1.22 1.22 0 0 1 1.223 1.222v41.555c0 .675-.547 1.223-1.223 1.223h-41.555a1.22 1.22 0 0 1-1.222-1.223z"/>
      <path stroke="#ca2171" stroke-linecap="butt" stroke-miterlimit="400" d="M174.134 178.099c0-.675.547-1.222 1.222-1.222h41.555a1.22 1.22 0 0 1 1.223 1.222v41.555c0 .675-.547 1.223-1.223 1.223h-41.555a1.22 1.22 0 0 1-1.222-1.223z"/>
    </g>
    <path fill="#8e134a" fill-rule="evenodd" d="M195.647 201.547c-1.528 0-2.837-1.195-2.837-2.715 0-1.557 1.237-2.824 2.764-2.824 1.528 0 2.837 1.23 2.837 2.751.036 1.593-1.237 2.788-2.764 2.788"/>
    <path fill="#ca2171" fill-rule="evenodd" d="M201.077 200.114c-.72 0-1.297-.566-1.297-1.239a1.28 1.28 0 0 1 1.297-1.274c.685 0 1.261.566 1.261 1.274 0 .673-.576 1.239-1.26 1.239m4.683 1.016a1.28 1.28 0 0 1-1.503.914c-.68-.176-1.074-.879-.93-1.477.179-.703.859-1.055 1.503-.95.644.212 1.073.81.93 1.442.072 0 .072.07 0 .07m-.711-3.191c-.724.105-1.45-.281-1.558-.95-.145-.703.253-1.371.979-1.477.689-.14 1.414.247 1.522.95.073.176.073.281 0 .492-.072.422-.435.844-.942.985m4.474 3.142c-.143.712-.787 1.104-1.467.997-.716-.142-1.145-.748-1.002-1.425.107-.712.752-1.14 1.467-.997.609.107 1.11.677 1.074 1.318 0 .036-.072.107-.072.107m-.951-3.177c-.755.14-1.397-.387-1.548-.985-.113-.703.415-1.301 1.057-1.442.755-.105 1.397.387 1.548 1.02v.281c0 .563-.491 1.055-1.057 1.126m-1.065 7.634c-.394.61-1.146.788-1.718.502-.609-.394-.823-1.147-.501-1.72.393-.646 1.145-.825 1.718-.502.429.25.68.752.608 1.182.071.144 0 .323-.107.538m-.339-11.763c-.645.287-1.396.072-1.718-.538-.322-.645-.143-1.361.5-1.684.645-.323 1.397-.143 1.719.502.107.25.179.501.107.752-.072.395-.25.753-.608.968"/>
    <path fill="#ca2171" fill-rule="evenodd" d="M195.713 211.74c-3.537 0-6.815-1.338-9.284-3.763a12.73 12.73 0 0 1-3.831-9.12c0-3.438 1.363-6.695 3.831-9.12s5.747-3.764 9.284-3.764c2.91 0 5.637.869 7.921 2.606l-1.621 2.026a10.58 10.58 0 0 0-6.373-2.099c-2.8 0-5.453 1.086-7.406 3.004a10.18 10.18 0 0 0-3.057 7.274c0 2.751 1.105 5.357 3.057 7.275a10.55 10.55 0 0 0 7.406 3.004c2.32 0 4.531-.724 6.373-2.1l1.621 2.027c-2.284 1.774-5.01 2.75-7.92 2.75"/>
    <path d="M165.032 151.994h62.204v24.881h-62.204z"/>
    <path fill="#ca2171" d="M179.968 154.141q1.141 0 1.938.64.797.641.937 1.75h-1.421q-.094-.53-.516-.843-.422-.328-.938-.328-.859 0-1.343.625-.469.625-.469 1.672 0 .984.469 1.61.484.608 1.343.608.641 0 1.032-.39.39-.39.484-1.094h1.422q-.125 1.266-.922 2-.797.719-2.016.719-.953 0-1.703-.438-.75-.437-1.156-1.234-.406-.813-.406-1.781 0-1.547.89-2.532.907-.984 2.375-.984m6.915 0q1.484 0 2.375 1 .906.984.906 2.516 0 1.484-.906 2.468-.891.985-2.375.985-.954 0-1.704-.438-.75-.437-1.156-1.234-.406-.813-.406-1.781 0-1.547.89-2.532.907-.984 2.376-.984m-1.813 3.516q0 .984.469 1.61.484.608 1.344.608.859 0 1.328-.609.484-.61.484-1.61 0-1.062-.484-1.671-.469-.625-1.328-.625t-1.344.625q-.469.625-.469 1.672m7.537-3.36 2.781 4.47h.016v-4.47h1.375v6.657h-1.453l-2.781-4.454h-.016v4.454h-1.375v-6.657zm7.758-.156q1.203 0 1.937.563.735.546.735 1.578h-1.422q-.031-.5-.344-.75-.312-.266-.969-.266-.437 0-.734.203-.281.203-.281.563 0 .25.11.375.124.125.484.265.375.125 1.609.422.828.188 1.297.672t.469 1.203q0 .969-.735 1.563-.719.578-2.031.578-1.266 0-2.063-.61-.78-.625-.78-1.718v-.032h1.421q0 .61.406.922.407.297 1.063.297.594 0 .937-.203.36-.219.36-.625 0-.312-.282-.516-.265-.218-.859-.375-.766-.171-1.39-.359-.626-.187-1.032-.625-.406-.437-.406-1.125 0-.89.719-1.437.718-.563 1.78-.563m5.194.156v4.172q0 .719.328 1.063t1.047.343q.765 0 1.062-.328.313-.343.313-1.062v-4.188h1.469v4.188q0 1.234-.735 1.937-.719.688-2.11.688-1.405 0-2.124-.688t-.719-1.937v-4.188zm6.945 0v5.422h3.25v1.235h-4.719v-6.657zM177.3 167.581q1.203 0 1.937.563.735.546.735 1.578h-1.422q-.032-.5-.344-.75-.313-.266-.969-.266-.437 0-.734.203-.281.203-.281.563 0 .25.109.375.125.125.484.265.375.125 1.61.422.828.188 1.297.672t.468 1.203q0 .969-.734 1.563-.719.578-2.031.578-1.266 0-2.063-.61-.781-.625-.781-1.718v-.032h1.422q0 .61.406.922.406.297 1.063.297.593 0 .937-.203.36-.219.36-.625 0-.312-.282-.516-.265-.218-.86-.375-.765-.171-1.39-.359t-1.031-.625-.406-1.125q0-.89.718-1.437.72-.563 1.782-.563m8.74.156v1.235h-3.515v1.422h3.219v1.14h-3.22v1.625h3.595v1.235h-5.063v-6.657zm4.685 0q.813 0 1.36.516.562.516.562 1.328 0 .625-.266 1.047-.265.406-.796.61v.015q.468.125.718.562t.282 1.344q.015.906.25 1.235h-1.454q-.14-.329-.187-1.047-.063-.985-.328-1.266-.25-.281-.797-.281h-1.5v2.594H187.1v-6.657zm-.515 3.016q.453 0 .703-.219.265-.234.265-.734 0-.485-.25-.703-.25-.219-.718-.219h-1.641v1.875zm4.424-3.016 1.484 4.672h.016l1.5-4.672h1.515l-2.219 6.657h-1.64l-2.172-6.657zm10.063 0v1.235h-3.516v1.422h3.219v1.14h-3.219v1.625h3.594v1.235h-5.063v-6.657zm4.684 0q.813 0 1.36.516.562.516.562 1.328 0 .625-.265 1.047-.266.406-.797.61v.015q.469.125.719.562t.28 1.344q.016.906.25 1.235h-1.452q-.14-.329-.188-1.047-.062-.985-.328-1.266-.25-.281-.797-.281h-1.5v2.594h-1.469v-6.657zm-.515 3.016q.453 0 .703-.219.266-.234.266-.734 0-.485-.25-.703-.25-.219-.72-.219h-1.64v1.875zm5.924-3.172q1.203 0 1.937.563.735.546.735 1.578h-1.422q-.031-.5-.344-.75-.312-.266-.969-.266-.437 0-.734.203-.281.203-.281.563 0 .25.11.375.124.125.483.265.375.125 1.61.422.828.188 1.297.672t.468 1.203q0 .969-.734 1.563-.719.578-2.031.578-1.266 0-2.063-.61-.78-.625-.78-1.718v-.032h1.42q0 .61.407.922.406.297 1.063.297.593 0 .937-.203.36-.219.36-.625 0-.312-.282-.516-.265-.218-.86-.375-.765-.171-1.39-.359t-1.03-.625q-.407-.437-.407-1.125 0-.89.719-1.437.718-.563 1.78-.563"/>
    <g filter="url(#l)">
      <use xlink:href="#m" transform="translate(0 7.333)"/>
    </g>
    <defs>
      <filter id="l" filterUnits="userSpaceOnUse">
        <feGaussianBlur in="SourceAlpha" result="blur" stdDeviation="5.333"/>
        <feComponentTransfer color-interpolation-filters="sRGB" in="blur">
          <feFuncR slope="0" type="linear"/>
          <feFuncG slope="0" type="linear"/>
          <feFuncB slope="0" type="linear"/>
          <feFuncA slope=".063" type="linear"/>
        </feComponentTransfer>
      </filter>
    </defs>
    <g id="m" fill-rule="evenodd">
      <path fill="#fff" d="M174.167 272.822c0-.675.547-1.222 1.222-1.222h41.555a1.22 1.22 0 0 1 1.223 1.222v41.555c0 .676-.548 1.223-1.223 1.223H175.39a1.22 1.22 0 0 1-1.222-1.223z"/>
      <path stroke="#ca2171" stroke-linecap="butt" stroke-miterlimit="400" d="M174.167 272.822c0-.675.547-1.222 1.222-1.222h41.555a1.22 1.22 0 0 1 1.223 1.222v41.555c0 .676-.548 1.223-1.223 1.223H175.39a1.22 1.22 0 0 1-1.222-1.223z"/>
    </g>
    <path fill="#8e134a" fill-rule="evenodd" d="M195.68 296.27c-1.528 0-2.837-1.195-2.837-2.715 0-1.557 1.236-2.824 2.764-2.824s2.837 1.23 2.837 2.751c.036 1.593-1.237 2.788-2.764 2.788"/>
    <path fill="#ca2171" fill-rule="evenodd" d="M201.11 294.837c-.72 0-1.297-.566-1.297-1.239a1.28 1.28 0 0 1 1.297-1.274c.684 0 1.26.566 1.26 1.274 0 .673-.576 1.239-1.26 1.239m4.684 1.016a1.28 1.28 0 0 1-1.503.914c-.68-.176-1.074-.879-.93-1.477.178-.703.858-1.055 1.503-.95.644.212 1.073.81.93 1.443.072 0 .072.07 0 .07m-.71-3.192c-.726.105-1.45-.281-1.56-.95-.145-.703.254-1.37.98-1.476.688-.141 1.414.246 1.522.949.073.176.073.281 0 .492-.072.422-.435.844-.942.985m4.474 3.142c-.143.712-.787 1.104-1.467.998-.716-.143-1.145-.749-1.002-1.426.107-.712.751-1.14 1.467-.997.608.107 1.11.677 1.074 1.318 0 .036-.072.107-.072.107m-.951-3.177c-.755.14-1.397-.387-1.548-.985-.113-.703.415-1.3 1.057-1.442.755-.105 1.397.387 1.548 1.02v.282c0 .562-.491 1.054-1.057 1.125m-1.066 7.634c-.393.61-1.145.789-1.717.502-.609-.394-.824-1.147-.501-1.72.393-.646 1.145-.825 1.717-.502.43.25.68.752.609 1.183.071.143 0 .322-.108.537m-.339-11.763c-.644.287-1.395.072-1.717-.537-.323-.646-.144-1.362.5-1.685.645-.322 1.396-.143 1.719.502.107.25.178.502.107.752-.072.395-.25.753-.609.968"/>
    <path fill="#ca2171" fill-rule="evenodd" d="M195.746 306.464c-3.537 0-6.816-1.34-9.284-3.764a12.73 12.73 0 0 1-3.831-9.12c0-3.438 1.363-6.695 3.831-9.12s5.747-3.764 9.284-3.764c2.91 0 5.637.869 7.92 2.606l-1.62 2.027a10.58 10.58 0 0 0-6.374-2.1 10.55 10.55 0 0 0-7.405 3.004 10.18 10.18 0 0 0-3.057 7.275c0 2.75 1.105 5.356 3.057 7.274a10.55 10.55 0 0 0 7.405 3.004c2.321 0 4.532-.724 6.374-2.1l1.62 2.027c-2.283 1.774-5.01 2.75-7.92 2.75"/>
    <path d="M165.064 246.717h62.205v24.882h-62.205z"/>
    <path fill="#ca2171" d="M180.001 248.864q1.14 0 1.938.64.797.641.937 1.75h-1.422q-.093-.53-.515-.843-.422-.328-.938-.328-.86 0-1.343.625-.47.625-.47 1.672 0 .984.47 1.61.484.609 1.343.609.64 0 1.032-.391.39-.39.484-1.094h1.422q-.125 1.266-.922 2-.797.719-2.016.719-.953 0-1.703-.438-.75-.437-1.156-1.234-.406-.812-.406-1.781 0-1.547.89-2.531.907-.985 2.375-.985m6.914 0q1.485 0 2.375 1 .907.985.907 2.516 0 1.484-.907 2.469-.89.984-2.375.984-.953 0-1.703-.438-.75-.437-1.156-1.234-.406-.812-.406-1.781 0-1.547.89-2.531.907-.985 2.375-.985m-1.812 3.516q0 .984.469 1.61.484.609 1.343.609.86 0 1.329-.61.484-.61.484-1.61 0-1.062-.484-1.671-.47-.625-1.329-.625t-1.343.625q-.47.625-.47 1.672m7.537-3.36 2.781 4.47h.016v-4.47h1.375v6.657h-1.453l-2.782-4.453h-.015v4.453h-1.375v-6.657zm7.758-.156q1.203 0 1.937.563.735.547.735 1.578h-1.422q-.032-.5-.344-.75-.313-.266-.969-.266-.437 0-.734.203-.281.203-.281.563 0 .25.109.375.125.125.484.265.375.125 1.61.422.828.188 1.297.672t.468 1.203q0 .97-.734 1.563-.719.578-2.031.578-1.266 0-2.063-.61-.781-.624-.781-1.718v-.031h1.422q0 .609.406.921.406.297 1.063.297.593 0 .937-.203.36-.219.36-.625 0-.312-.282-.515-.265-.22-.86-.375-.765-.172-1.39-.36-.625-.187-1.031-.625-.406-.437-.406-1.125 0-.89.718-1.437.72-.563 1.782-.563m5.194.156v4.172q0 .72.328 1.063.328.344 1.047.344.765 0 1.062-.329.313-.343.313-1.062v-4.188h1.468v4.188q0 1.234-.734 1.937-.719.688-2.11.688-1.406 0-2.124-.688-.72-.687-.72-1.937v-4.188zm6.945 0v5.422h3.25v1.235h-4.719v-6.657zm-32.621 13.284q1.14 0 1.937.64.797.641.938 1.75h-1.422q-.094-.53-.516-.843-.422-.328-.937-.328-.86 0-1.344.625-.469.625-.469 1.672 0 .984.469 1.61.484.609 1.344.609.64 0 1.031-.391.39-.39.484-1.094h1.422q-.125 1.266-.922 2-.796.719-2.015.719-.953 0-1.703-.438-.75-.437-1.157-1.234-.406-.812-.406-1.781 0-1.547.89-2.531.907-.985 2.376-.985m5.398.156v5.422h3.25v1.235h-4.718v-6.657zm5.53 0v6.657h-1.469v-6.657zm6.266 0v1.235h-3.515v1.422h3.219v1.14h-3.22v1.625h3.595v1.235h-5.063v-6.657zm2.513 0 2.782 4.47h.015v-4.47h1.375v6.657h-1.453l-2.781-4.453h-.016v4.453h-1.375v-6.657zm10.399 0v1.235h-2v5.422h-1.453v-5.422h-2v-1.235zm2.907-.156q1.203 0 1.937.563.735.547.735 1.578h-1.422q-.031-.5-.344-.75-.312-.266-.969-.266-.437 0-.734.203-.281.203-.281.563 0 .25.109.375.125.125.484.265.375.125 1.61.422.828.188 1.297.672t.468 1.203q0 .97-.734 1.563-.719.578-2.031.578-1.266 0-2.063-.61-.781-.624-.781-1.718v-.031h1.422q0 .609.406.921.406.297 1.063.297.593 0 .937-.203.36-.219.36-.625 0-.312-.282-.515-.265-.22-.86-.375-.765-.172-1.39-.36-.625-.187-1.031-.625-.406-.437-.406-1.125 0-.89.719-1.437.718-.563 1.78-.563"/>
    <g filter="url(#n)">
      <use xlink:href="#o" transform="translate(0 7.333)"/>
    </g>
    <defs>
      <filter id="n" filterUnits="userSpaceOnUse">
        <feGaussianBlur in="SourceAlpha" result="blur" stdDeviation="5.333"/>
        <feComponentTransfer color-interpolation-filters="sRGB" in="blur">
          <feFuncR slope="0" type="linear"/>
          <feFuncG slope="0" type="linear"/>
          <feFuncB slope="0" type="linear"/>
          <feFuncA slope=".063" type="linear"/>
        </feComponentTransfer>
      </filter>
    </defs>
    <g id="o" fill-rule="evenodd">
      <path fill="#fff" d="M174.51 367.544c0-.675.548-1.222 1.223-1.222h41.555a1.22 1.22 0 0 1 1.222 1.222v41.555c0 .675-.547 1.223-1.222 1.223h-41.555a1.22 1.22 0 0 1-1.223-1.223z"/>
      <path stroke="#ca2171" stroke-linecap="butt" stroke-miterlimit="400" d="M174.51 367.544c0-.675.548-1.222 1.223-1.222h41.555a1.22 1.22 0 0 1 1.222 1.222v41.555c0 .675-.547 1.223-1.222 1.223h-41.555a1.22 1.22 0 0 1-1.223-1.223z"/>
    </g>
    <path fill="#8e134a" fill-rule="evenodd" d="M196.023 390.992c-1.527 0-2.836-1.195-2.836-2.716 0-1.556 1.236-2.823 2.764-2.823s2.837 1.23 2.837 2.751c.036 1.593-1.237 2.787-2.765 2.787"/>
    <path fill="#ca2171" fill-rule="evenodd" d="M201.454 389.559c-.72 0-1.297-.567-1.297-1.24a1.28 1.28 0 0 1 1.297-1.273c.684 0 1.26.566 1.26 1.274 0 .672-.576 1.239-1.26 1.239m4.684 1.016a1.28 1.28 0 0 1-1.503.914c-.68-.176-1.074-.88-.93-1.477.178-.703.858-1.055 1.502-.95.645.212 1.074.81.93 1.442.072 0 .072.07 0 .07m-.71-3.191c-.725.105-1.45-.282-1.559-.95-.145-.703.254-1.371.98-1.477.688-.14 1.413.246 1.522.95.073.176.073.281 0 .492-.072.422-.435.844-.943.985m4.475 3.142c-.143.712-.787 1.104-1.467.997-.716-.142-1.146-.748-1.002-1.425.107-.712.751-1.14 1.467-.997.608.106 1.11.677 1.074 1.318 0 .035-.072.107-.072.107m-.952-3.177c-.755.14-1.396-.387-1.547-.985-.114-.703.415-1.301 1.057-1.442.755-.105 1.396.387 1.547 1.02v.281c0 .563-.49 1.055-1.057 1.126m-1.065 7.634c-.393.61-1.145.788-1.718.502-.608-.395-.823-1.147-.5-1.72.393-.646 1.145-.825 1.717-.502.43.25.68.752.609 1.182.071.144 0 .323-.108.538m-.339-11.763c-.644.287-1.395.072-1.718-.538-.322-.645-.143-1.362.501-1.684.645-.323 1.396-.144 1.718.502.108.25.18.501.108.752-.072.394-.25.753-.609.968"/>
    <path fill="#ca2171" fill-rule="evenodd" d="M196.09 401.186c-3.537 0-6.816-1.34-9.284-3.764a12.73 12.73 0 0 1-3.832-9.12c0-3.438 1.364-6.695 3.832-9.12s5.747-3.764 9.284-3.764c2.91 0 5.637.869 7.92 2.606l-1.62 2.026a10.58 10.58 0 0 0-6.374-2.099 10.55 10.55 0 0 0-7.405 3.004 10.18 10.18 0 0 0-3.058 7.274c0 2.75 1.106 5.357 3.058 7.275a10.55 10.55 0 0 0 7.405 3.003c2.321 0 4.532-.723 6.374-2.099l1.62 2.027c-2.283 1.773-5.01 2.75-7.92 2.75"/>
    <path d="M157.408 341.439h77.449v24.881h-77.449z"/>
    <path fill="#ca2171" d="M179.967 343.586q1.14 0 1.938.64.797.641.937 1.75h-1.422q-.093-.53-.515-.843-.422-.328-.938-.328-.86 0-1.344.625-.468.625-.468 1.672 0 .984.468 1.609.485.61 1.344.61.64 0 1.031-.391.391-.39.485-1.094h1.422q-.125 1.266-.922 2-.797.719-2.016.719-.953 0-1.703-.438-.75-.437-1.156-1.234-.406-.813-.406-1.781 0-1.547.89-2.532.906-.984 2.375-.984m6.914 0q1.485 0 2.375 1 .907.984.907 2.516 0 1.484-.907 2.468-.89.985-2.375.985-.953 0-1.703-.438-.75-.437-1.156-1.234-.406-.813-.406-1.781 0-1.547.89-2.532.907-.984 2.375-.984m-1.812 3.516q0 .984.469 1.609.484.61 1.343.61.86 0 1.328-.61.485-.61.485-1.61 0-1.062-.485-1.671-.468-.625-1.328-.625t-1.343.625q-.47.625-.47 1.672m7.537-3.36 2.781 4.469h.016v-4.469h1.375v6.656h-1.454l-2.78-4.453h-.016v4.454h-1.375v-6.657zm7.758-.156q1.203 0 1.937.563.734.546.734 1.578h-1.421q-.032-.5-.344-.75-.313-.266-.969-.266-.437 0-.734.203-.282.203-.282.563 0 .25.11.375.125.125.484.265.375.125 1.61.422.828.188 1.296.672.47.484.47 1.203 0 .969-.735 1.563-.719.578-2.031.578-1.266 0-2.063-.61-.781-.625-.781-1.718v-.032h1.422q0 .61.406.922.406.297 1.062.297.594 0 .938-.203.36-.219.36-.625 0-.312-.282-.516-.266-.218-.86-.375-.765-.171-1.39-.359t-1.031-.625-.406-1.125q0-.89.718-1.437.72-.563 1.782-.563m5.193.156v4.172q0 .719.329 1.063.328.343 1.046.343.766 0 1.063-.328.312-.344.312-1.062v-4.188h1.47v4.188q0 1.234-.735 1.937-.719.688-2.11.688-1.406 0-2.125-.688-.718-.687-.718-1.937v-4.188zm6.946 0v5.422h3.25v1.235h-4.719v-6.657zm-46.536 13.284q1.14 0 1.937.64.797.641.938 1.75h-1.422q-.094-.53-.516-.843-.421-.328-.937-.328-.86 0-1.344.625-.469.625-.469 1.672 0 .984.47 1.609.484.61 1.343.61.64 0 1.031-.391.39-.39.485-1.094h1.421q-.125 1.266-.921 2-.797.719-2.016.719-.953 0-1.703-.438-.75-.437-1.156-1.234-.407-.813-.407-1.781 0-1.547.89-2.532.907-.984 2.376-.984m6.914 0q1.484 0 2.375 1 .906.984.906 2.516 0 1.484-.906 2.468-.89.985-2.375.985-.953 0-1.703-.438-.75-.437-1.156-1.234-.407-.813-.407-1.781 0-1.547.891-2.532.906-.984 2.375-.984m-1.812 3.516q0 .984.468 1.609.485.61 1.344.61t1.328-.61q.485-.61.485-1.61 0-1.062-.485-1.671-.469-.625-1.328-.625t-1.344.625q-.468.625-.468 1.672m8.146-3.36 1.562 4.578h.016l1.469-4.562.015-.016h2.047v6.656h-1.375v-4.718h-.015l-1.625 4.719h-1.125l-1.641-4.672h-.016v4.672h-1.375v-6.657zm9.447 0q1.047 0 1.656.594.61.578.61 1.547 0 .953-.61 1.547-.61.578-1.656.578h-1.578v2.39h-1.469v-6.656zm-.406 3.125q.64 0 .937-.234.313-.234.313-.75t-.297-.75q-.297-.25-.938-.25h-1.187v1.984zm6.565-3.281q1.485 0 2.375 1 .906.984.906 2.516 0 1.484-.906 2.468-.89.985-2.375.985-.953 0-1.703-.438-.75-.437-1.156-1.234-.406-.813-.406-1.781 0-1.547.89-2.532.906-.984 2.375-.984m-1.812 3.516q0 .984.468 1.609.485.61 1.344.61t1.328-.61q.485-.61.485-1.61 0-1.062-.485-1.671-.468-.625-1.328-.625t-1.344.625q-.468.625-.468 1.672m7.537-3.36 2.781 4.469h.016v-4.469h1.375v6.656h-1.454l-2.78-4.453h-.016v4.454h-1.375v-6.657zm10.445 0v1.235h-3.516v1.422h3.22v1.14h-3.22v1.625h3.594v1.235h-5.062v-6.657zm2.513 0 2.781 4.469h.016v-4.469h1.375v6.656h-1.453l-2.782-4.453h-.015v4.454h-1.375v-6.657zm10.398 0v1.235h-2v5.422h-1.453v-5.422h-2v-1.235zm2.907-.156q1.204 0 1.938.563.734.546.734 1.578h-1.422q-.03-.5-.343-.75-.313-.266-.97-.266-.437 0-.733.203-.282.203-.282.563 0 .25.11.375.125.125.484.265.375.125 1.61.422.828.188 1.296.672.47.484.47 1.203 0 .969-.735 1.563-.72.578-2.032.578-1.265 0-2.062-.61-.781-.625-.781-1.718v-.032h1.422q0 .61.406.922.406.297 1.062.297.594 0 .938-.203.36-.219.36-.625 0-.312-.282-.516-.266-.218-.86-.375-.765-.171-1.39-.359t-1.031-.625q-.407-.437-.407-1.125 0-.89.72-1.437.718-.563 1.78-.563"/>
    <g filter="url(#p)">
      <use xlink:href="#q" transform="translate(0 7.333)"/>
    </g>
    <defs>
      <filter id="p" filterUnits="userSpaceOnUse">
        <feGaussianBlur in="SourceAlpha" result="blur" stdDeviation="5.333"/>
        <feComponentTransfer color-interpolation-filters="sRGB" in="blur">
          <feFuncR slope="0" type="linear"/>
          <feFuncG slope="0" type="linear"/>
          <feFuncB slope="0" type="linear"/>
          <feFuncA slope=".063" type="linear"/>
        </feComponentTransfer>
      </filter>
    </defs>
    <g id="q" fill-rule="evenodd">
      <path fill="#fff" d="M321.993 272.87c0-.676.547-1.223 1.222-1.223h41.555a1.22 1.22 0 0 1 1.223 1.222v41.556c0 .675-.548 1.222-1.223 1.222h-41.555a1.22 1.22 0 0 1-1.223-1.222z"/>
      <path stroke="#000001" stroke-linecap="butt" stroke-miterlimit="400" d="M321.993 272.87c0-.676.547-1.223 1.222-1.223h41.555a1.22 1.22 0 0 1 1.223 1.222v41.556c0 .675-.548 1.222-1.223 1.222h-41.555a1.22 1.22 0 0 1-1.223-1.222z"/>
    </g>
    <path d="M312.891 246.764h62.205v24.882H312.89z"/>
    <path fill="#000001" d="m331.04 249.068 1.485 4.672h.016l1.5-4.672h1.515l-2.218 6.656h-1.641l-2.172-6.656zm8.07 0 2.485 6.656h-1.516l-.5-1.484h-2.5l-.516 1.484h-1.484l2.531-6.656zm-.781 1.64-.86 2.438h1.72l-.829-2.438zm5.167-1.64v4.172q0 .718.328 1.062t1.047.344q.766 0 1.063-.328.312-.344.312-1.063v-4.187h1.469v4.187q0 1.235-.735 1.938-.718.687-2.109.687-1.406 0-2.125-.687t-.719-1.938v-4.187zm6.945 0v5.422h3.25v1.234h-4.718v-6.656zm7.823 0v1.234h-2v5.422h-1.453v-5.422h-2v-1.234zm-30.078 13.283q1.203 0 1.937.563.735.547.735 1.578h-1.422q-.031-.5-.344-.75-.312-.266-.969-.266-.437 0-.734.204-.281.203-.281.562 0 .25.11.375.124.125.483.266.375.125 1.61.422.828.187 1.297.671t.468 1.204q0 .968-.734 1.562-.719.578-2.031.578-1.266 0-2.063-.61-.78-.624-.78-1.718v-.031h1.421q0 .61.406.922.406.297 1.063.297.593 0 .937-.204.36-.218.36-.625 0-.312-.282-.515-.265-.219-.859-.375-.766-.172-1.39-.36-.626-.187-1.032-.625-.406-.437-.406-1.125 0-.89.719-1.437.718-.563 1.78-.563m8.74.157v1.234h-3.515v1.422h3.219v1.14h-3.219v1.626h3.594v1.234h-5.063v-6.656zm4.685 0q.813 0 1.36.515.562.516.562 1.328 0 .625-.265 1.047-.266.407-.797.61v.015q.469.125.719.563t.28 1.344q.016.906.25 1.234h-1.452q-.141-.328-.188-1.047-.062-.984-.328-1.266-.25-.28-.797-.28h-1.5v2.593h-1.469v-6.656zm-.515 3.015q.453 0 .703-.218.266-.235.266-.735 0-.484-.25-.703t-.72-.219h-1.64v1.875zm4.424-3.015 1.484 4.672h.016l1.5-4.672h1.515l-2.218 6.656h-1.641l-2.172-6.656zm10.063 0v1.234h-3.516v1.422h3.219v1.14h-3.219v1.626h3.594v1.234h-5.062v-6.656zm4.685 0q.812 0 1.359.515.563.516.563 1.328 0 .625-.266 1.047-.266.407-.797.61v.015q.469.125.719.563t.281 1.344q.016.906.25 1.234h-1.453q-.14-.328-.188-1.047-.062-.984-.328-1.266-.25-.28-.797-.28h-1.5v2.593h-1.468v-6.656zm-.516 3.015q.453 0 .703-.218.266-.235.266-.735 0-.484-.25-.703t-.719-.219h-1.64v1.875z"/>
    <path fill="#000" fill-rule="evenodd" d="m330.702 280.584 13.237 26.086 13.31-26.086zm14.777 5.26h1.54v1.514h-1.54zm-3.044 6.017h-1.54v-1.513h1.54zm0-2.27h-1.54v-1.513h1.54zm0-2.233h-1.54v-1.514h1.54zm2.274 6.81h-1.54v-1.514h1.54zm0-2.307h-1.54v-1.513h1.54zm0-2.27h-1.54v-1.513h1.54zm0-2.233h-1.54v-1.514h1.54zm.77.756h1.54v1.55h-1.54zm0 3.747v-1.513h1.54v1.513z"/>
    <g filter="url(#r)">
      <use xlink:href="#s" transform="translate(0 7.333)"/>
    </g>
    <defs>
      <filter id="r" filterUnits="userSpaceOnUse">
        <feGaussianBlur in="SourceAlpha" result="blur" stdDeviation="5.333"/>
        <feComponentTransfer color-interpolation-filters="sRGB" in="blur">
          <feFuncR slope="0" type="linear"/>
          <feFuncG slope="0" type="linear"/>
          <feFuncB slope="0" type="linear"/>
          <feFuncA slope=".063" type="linear"/>
        </feComponentTransfer>
      </filter>
    </defs>
    <g id="s" fill-rule="evenodd">
      <path fill="#fff" d="M321.993 178.1c0-.675.547-1.222 1.222-1.222h41.555a1.22 1.22 0 0 1 1.223 1.222v41.556c0 .675-.548 1.222-1.223 1.222h-41.555a1.22 1.22 0 0 1-1.223-1.222z"/>
      <path stroke="#000001" stroke-linecap="butt" stroke-miterlimit="400" d="M321.993 178.1c0-.675.547-1.222 1.222-1.222h41.555a1.22 1.22 0 0 1 1.223 1.222v41.556c0 .675-.548 1.222-1.223 1.222h-41.555a1.22 1.22 0 0 1-1.223-1.222z"/>
    </g>
    <path d="M312.891 151.995h62.205v24.882H312.89z"/>
    <path fill="#000001" d="m331.04 154.299 1.485 4.672h.016l1.5-4.672h1.515l-2.218 6.656h-1.641l-2.172-6.656zm8.07 0 2.485 6.656h-1.516l-.5-1.484h-2.5l-.516 1.484h-1.484l2.531-6.656zm-.781 1.64-.86 2.438h1.72l-.829-2.438zm5.167-1.64v4.172q0 .718.328 1.062t1.047.344q.766 0 1.063-.328.312-.344.312-1.063V154.3h1.469v4.187q0 1.235-.735 1.938-.718.687-2.109.687-1.406 0-2.125-.687t-.719-1.938V154.3zm6.945 0v5.422h3.25v1.234h-4.718v-6.656zm7.823 0v1.234h-2v5.422h-1.453v-5.422h-2V154.3zm-35.645 13.44v6.656h-1.47v-6.656zm2.735 0 2.781 4.468h.016v-4.468h1.375v6.656h-1.453l-2.781-4.453h-.016v4.453h-1.375v-6.656zm9.367 0v4.61q0 1.062-.562 1.64-.563.562-1.656.562-.97 0-1.594-.547-.61-.547-.61-1.484v-.61h1.329v.25q0 .672.203.922.218.235.656.235.375 0 .562-.203.204-.203.204-.828v-4.547zm6.266 0v1.234h-3.515v1.422h3.218v1.14h-3.218v1.626h3.593v1.234h-5.062v-6.656zm4.044-.157q1.141 0 1.938.641.797.64.937 1.75h-1.421q-.094-.531-.516-.844-.422-.328-.938-.328-.859 0-1.343.625-.469.625-.469 1.672 0 .984.469 1.61.484.609 1.343.609.641 0 1.032-.39.39-.391.484-1.095h1.422q-.125 1.266-.922 2-.797.72-2.016.72-.953 0-1.703-.438t-1.156-1.235q-.406-.812-.406-1.78 0-1.548.89-2.532.907-.985 2.375-.985m8.644.157v1.234h-2v5.422h-1.453v-5.422h-2v-1.234zm3.435-.157q1.485 0 2.375 1 .907.985.907 2.516 0 1.484-.907 2.469-.89.984-2.375.984-.953 0-1.703-.437-.75-.438-1.156-1.235-.406-.812-.406-1.78 0-1.548.89-2.532.907-.985 2.375-.985m-1.812 3.516q0 .984.469 1.61.484.609 1.343.609.86 0 1.329-.61.484-.609.484-1.609 0-1.062-.484-1.672-.47-.625-1.329-.625t-1.343.625q-.47.625-.47 1.672m9.709-3.36q.812 0 1.36.516.562.516.562 1.328 0 .625-.266 1.047-.266.407-.797.61v.015q.469.125.719.563t.281 1.344q.016.906.25 1.234h-1.453q-.14-.328-.188-1.047-.062-.984-.328-1.266-.25-.28-.797-.28h-1.5v2.593h-1.468v-6.656zm-.516 3.016q.453 0 .703-.218.266-.235.266-.735 0-.484-.25-.703t-.719-.219h-1.64v1.875z"/>
    <path fill="#000" fill-rule="evenodd" d="m330.702 185.815 13.237 26.086 13.31-26.086zm14.777 5.26h1.54v1.514h-1.54zm-3.044 6.017h-1.54v-1.513h1.54zm0-2.27h-1.54v-1.513h1.54zm0-2.233h-1.54v-1.514h1.54zm2.274 6.81h-1.54v-1.514h1.54zm0-2.307h-1.54v-1.513h1.54zm0-2.27h-1.54v-1.513h1.54zm0-2.233h-1.54v-1.514h1.54zm.77.756h1.54v1.55h-1.54zm0 3.747v-1.513h1.54v1.513z"/>
    <g filter="url(#t)">
      <use xlink:href="#u" transform="translate(0 7.333)"/>
    </g>
    <defs>
      <filter id="t" filterUnits="userSpaceOnUse">
        <feGaussianBlur in="SourceAlpha" result="blur" stdDeviation="5.333"/>
        <feComponentTransfer color-interpolation-filters="sRGB" in="blur">
          <feFuncR slope="0" type="linear"/>
          <feFuncG slope="0" type="linear"/>
          <feFuncB slope="0" type="linear"/>
          <feFuncA slope=".063" type="linear"/>
        </feComponentTransfer>
      </filter>
    </defs>
    <g id="u" fill-rule="evenodd">
      <path fill="#fff" d="M736.869 178.099c0-.675.547-1.222 1.222-1.222h41.555a1.22 1.22 0 0 1 1.223 1.222v41.555c0 .675-.548 1.223-1.223 1.223h-41.555a1.22 1.22 0 0 1-1.222-1.223z"/>
      <path stroke="#ca2171" stroke-linecap="butt" stroke-miterlimit="400" d="M736.869 178.099c0-.675.547-1.222 1.222-1.222h41.555a1.22 1.22 0 0 1 1.223 1.222v41.555c0 .675-.548 1.223-1.223 1.223h-41.555a1.22 1.22 0 0 1-1.222-1.223z"/>
    </g>
    <path fill="#8e134a" fill-rule="evenodd" d="M758.382 201.547c-1.528 0-2.837-1.195-2.837-2.715 0-1.557 1.237-2.824 2.764-2.824 1.528 0 2.837 1.23 2.837 2.751.036 1.593-1.237 2.788-2.764 2.788"/>
    <path fill="#ca2171" fill-rule="evenodd" d="M763.812 200.114c-.72 0-1.297-.566-1.297-1.239a1.28 1.28 0 0 1 1.297-1.274c.685 0 1.26.566 1.26 1.274 0 .673-.575 1.239-1.26 1.239m4.684 1.016a1.28 1.28 0 0 1-1.503.914c-.68-.176-1.074-.879-.93-1.477.179-.703.858-1.055 1.503-.95.644.212 1.073.81.93 1.442.072 0 .072.07 0 .07m-.71-3.191c-.726.105-1.45-.281-1.56-.95-.144-.703.254-1.371.98-1.477.688-.14 1.414.247 1.522.95.073.176.073.281 0 .492-.072.422-.435.844-.942.985m4.474 3.142c-.143.712-.787 1.104-1.467.997-.716-.142-1.145-.748-1.002-1.425.107-.712.751-1.14 1.467-.997.609.107 1.11.677 1.074 1.318 0 .036-.072.107-.072.107m-.951-3.177c-.755.14-1.397-.387-1.548-.985-.113-.703.415-1.301 1.057-1.442.755-.105 1.397.387 1.548 1.02v.281c0 .563-.491 1.055-1.057 1.126m-1.066 7.634c-.393.61-1.145.788-1.717.502-.609-.394-.823-1.147-.501-1.72.393-.646 1.145-.825 1.717-.502.43.25.68.752.609 1.182.071.144 0 .323-.108.538m-.338-11.763c-.645.287-1.396.072-1.718-.538-.322-.645-.143-1.361.5-1.684.645-.323 1.396-.143 1.719.502.107.25.179.501.107.752-.072.395-.25.753-.608.968"/>
    <path fill="#ca2171" fill-rule="evenodd" d="M758.448 211.74c-3.537 0-6.816-1.338-9.284-3.763a12.73 12.73 0 0 1-3.831-9.12c0-3.438 1.363-6.695 3.831-9.12s5.747-3.764 9.284-3.764c2.91 0 5.637.869 7.92 2.606l-1.62 2.026a10.58 10.58 0 0 0-6.374-2.099 10.55 10.55 0 0 0-7.405 3.004 10.18 10.18 0 0 0-3.057 7.274c0 2.751 1.105 5.357 3.057 7.275a10.55 10.55 0 0 0 7.405 3.004c2.321 0 4.532-.724 6.374-2.1l1.62 2.027c-2.283 1.774-5.01 2.75-7.92 2.75"/>
    <path d="M727.766 151.994h62.205v24.881h-62.205z"/>
    <path fill="#ca2171" d="M742.703 154.141q1.141 0 1.938.64.797.641.937 1.75h-1.422q-.093-.53-.515-.843-.422-.328-.938-.328-.859 0-1.343.625-.47.625-.47 1.672 0 .984.47 1.61.484.608 1.343.608.641 0 1.032-.39.39-.39.484-1.094h1.422q-.125 1.266-.922 2-.797.719-2.016.719-.953 0-1.703-.438-.75-.437-1.156-1.234-.406-.813-.406-1.781 0-1.547.89-2.532.907-.984 2.375-.984m6.914 0q1.485 0 2.375 1 .907.984.907 2.516 0 1.484-.907 2.468-.89.985-2.375.985-.953 0-1.703-.438-.75-.437-1.156-1.234-.406-.813-.406-1.781 0-1.547.89-2.532.907-.984 2.375-.984m-1.812 3.516q0 .984.469 1.61.484.608 1.343.608.86 0 1.329-.609.484-.61.484-1.61 0-1.062-.484-1.671-.47-.625-1.329-.625t-1.343.625q-.469.625-.469 1.672m7.537-3.36 2.781 4.47h.016v-4.47h1.375v6.657h-1.453l-2.782-4.454h-.015v4.454h-1.375v-6.657zm7.758-.156q1.203 0 1.937.563.735.546.735 1.578h-1.422q-.031-.5-.344-.75-.312-.266-.969-.266-.437 0-.734.203-.281.203-.281.563 0 .25.109.375.125.125.484.265.375.125 1.61.422.828.188 1.297.672t.468 1.203q0 .969-.734 1.563-.719.578-2.031.578-1.266 0-2.063-.61-.781-.625-.781-1.718v-.032h1.422q0 .61.406.922.406.297 1.063.297.593 0 .937-.203.36-.219.36-.625 0-.312-.282-.516-.265-.218-.86-.375-.765-.171-1.39-.359t-1.031-.625-.406-1.125q0-.89.719-1.437.718-.563 1.78-.563m5.194.156v4.172q0 .719.328 1.063t1.047.343q.765 0 1.062-.328.313-.343.313-1.062v-4.188h1.468v4.188q0 1.234-.734 1.937-.719.688-2.11.688-1.406 0-2.124-.688t-.719-1.937v-4.188zm6.945 0v5.422h3.25v1.235h-4.719v-6.657zm-35.203 13.284q1.203 0 1.937.563.734.546.734 1.578h-1.421q-.032-.5-.344-.75-.313-.266-.969-.266-.437 0-.734.203-.282.203-.282.563 0 .25.11.375.125.125.484.265.375.125 1.61.422.828.188 1.296.672.47.484.47 1.203 0 .969-.735 1.563-.719.578-2.031.578-1.266 0-2.063-.61-.781-.625-.781-1.718v-.032h1.422q0 .61.406.922.406.297 1.062.297.594 0 .938-.203.36-.219.36-.625 0-.312-.282-.516-.266-.218-.86-.375-.765-.171-1.39-.359t-1.031-.625-.406-1.125q0-.89.718-1.437.719-.563 1.782-.563m8.74.156v1.235h-3.515v1.422h3.218v1.14h-3.218v1.625h3.593v1.235h-5.062v-6.657zm4.685 0q.813 0 1.36.516.562.516.562 1.328 0 .625-.266 1.047-.265.406-.797.61v.015q.47.125.72.562t.28 1.344q.016.906.25 1.235h-1.453q-.14-.329-.187-1.047-.063-.985-.328-1.266-.25-.281-.797-.281h-1.5v2.594h-1.469v-6.657zm-.516 3.016q.454 0 .704-.219.265-.234.265-.734 0-.485-.25-.703-.25-.219-.719-.219h-1.64v1.875zm4.424-3.016 1.485 4.672h.015l1.5-4.672h1.516l-2.219 6.657h-1.64l-2.172-6.657zm10.064 0v1.235h-3.516v1.422h3.219v1.14h-3.219v1.625h3.594v1.235h-5.063v-6.657zm4.684 0q.813 0 1.36.516.562.516.562 1.328 0 .625-.265 1.047-.266.406-.797.61v.015q.469.125.719.562t.28 1.344q.016.906.25 1.235h-1.452q-.141-.329-.188-1.047-.062-.985-.328-1.266-.25-.281-.797-.281h-1.5v2.594h-1.469v-6.657zm-.515 3.016q.453 0 .703-.219.266-.234.266-.734 0-.485-.25-.703-.25-.219-.72-.219h-1.64v1.875zm5.924-3.172q1.203 0 1.937.563.735.546.735 1.578h-1.422q-.032-.5-.344-.75-.313-.266-.969-.266-.437 0-.734.203-.281.203-.281.563 0 .25.109.375.125.125.484.265.375.125 1.61.422.828.188 1.297.672t.468 1.203q0 .969-.734 1.563-.719.578-2.031.578-1.266 0-2.063-.61-.781-.625-.781-1.718v-.032h1.422q0 .61.406.922.406.297 1.063.297.593 0 .937-.203.36-.219.36-.625 0-.312-.282-.516-.265-.218-.86-.375-.765-.171-1.39-.359t-1.031-.625-.406-1.125q0-.89.718-1.437.72-.563 1.782-.563"/>
    <g filter="url(#v)">
      <use xlink:href="#w" transform="translate(0 7.333)"/>
    </g>
    <defs>
      <filter id="v" filterUnits="userSpaceOnUse">
        <feGaussianBlur in="SourceAlpha" result="blur" stdDeviation="5.333"/>
        <feComponentTransfer color-interpolation-filters="sRGB" in="blur">
          <feFuncR slope="0" type="linear"/>
          <feFuncG slope="0" type="linear"/>
          <feFuncB slope="0" type="linear"/>
          <feFuncA slope=".063" type="linear"/>
        </feComponentTransfer>
      </filter>
    </defs>
    <g id="w" fill-rule="evenodd">
      <path fill="#fff" d="M736.862 272.822c0-.675.547-1.222 1.222-1.222h41.556a1.22 1.22 0 0 1 1.222 1.222v41.555c0 .676-.547 1.223-1.222 1.223h-41.556a1.22 1.22 0 0 1-1.222-1.223z"/>
      <path stroke="#ca2171" stroke-linecap="butt" stroke-miterlimit="400" d="M736.862 272.822c0-.675.547-1.222 1.222-1.222h41.556a1.22 1.22 0 0 1 1.222 1.222v41.555c0 .676-.547 1.223-1.222 1.223h-41.556a1.22 1.22 0 0 1-1.222-1.223z"/>
    </g>
    <path fill="#8e134a" fill-rule="evenodd" d="M758.375 296.27c-1.527 0-2.837-1.195-2.837-2.715 0-1.557 1.237-2.824 2.764-2.824 1.528 0 2.837 1.23 2.837 2.751.037 1.593-1.236 2.788-2.764 2.788"/>
    <path fill="#ca2171" fill-rule="evenodd" d="M763.806 294.837c-.72 0-1.297-.566-1.297-1.239a1.28 1.28 0 0 1 1.297-1.274c.684 0 1.26.566 1.26 1.274 0 .673-.576 1.239-1.26 1.239m4.684 1.016a1.28 1.28 0 0 1-1.504.914c-.68-.176-1.073-.879-.93-1.477.179-.703.859-1.055 1.503-.95.644.212 1.074.81.93 1.443.072 0 .072.07 0 .07m-.709-3.192c-.726.105-1.451-.281-1.56-.95-.145-.703.254-1.37.979-1.476.689-.141 1.414.246 1.523.949.072.176.072.281 0 .492-.073.422-.435.844-.943.985m4.475 3.142c-.143.712-.788 1.104-1.468.998-.715-.143-1.145-.749-1.002-1.426.108-.712.752-1.14 1.468-.997.608.107 1.109.677 1.073 1.318 0 .036-.071.107-.071.107m-.952-3.177c-.755.14-1.397-.387-1.548-.985-.113-.703.416-1.3 1.057-1.442.755-.105 1.397.387 1.548 1.02v.282c0 .562-.49 1.054-1.057 1.125m-1.065 7.634c-.394.61-1.145.789-1.718.502-.608-.394-.823-1.147-.5-1.72.393-.646 1.144-.825 1.717-.502.43.25.68.752.608 1.183.072.143 0 .322-.107.537m-.339-11.763c-.644.287-1.396.072-1.718-.537-.322-.646-.143-1.362.501-1.685s1.396-.143 1.718.502c.107.25.179.502.107.752-.071.395-.25.753-.608.968"/>
    <path fill="#ca2171" fill-rule="evenodd" d="M758.442 306.464c-3.537 0-6.816-1.34-9.284-3.764a12.73 12.73 0 0 1-3.832-9.12c0-3.438 1.363-6.695 3.832-9.12s5.747-3.764 9.283-3.764c2.911 0 5.637.869 7.921 2.606l-1.62 2.027a10.58 10.58 0 0 0-6.374-2.1c-2.8 0-5.453 1.086-7.405 3.004a10.18 10.18 0 0 0-3.058 7.275c0 2.75 1.105 5.356 3.058 7.274a10.55 10.55 0 0 0 7.405 3.004c2.32 0 4.531-.724 6.373-2.1l1.621 2.027c-2.284 1.774-5.01 2.75-7.92 2.75"/>
    <path d="M727.76 246.717h62.205v24.882H727.76z"/>
    <path fill="#ca2171" d="M742.697 248.864q1.14 0 1.937.64.797.641.938 1.75h-1.422q-.094-.53-.516-.843-.422-.328-.937-.328-.86 0-1.344.625-.469.625-.469 1.672 0 .984.47 1.61.483.609 1.343.609.64 0 1.031-.391.39-.39.484-1.094h1.422q-.125 1.266-.922 2-.796.719-2.015.719-.953 0-1.703-.438-.75-.437-1.157-1.234-.406-.812-.406-1.781 0-1.547.89-2.531.907-.985 2.376-.985m6.914 0q1.484 0 2.375 1 .906.985.906 2.516 0 1.484-.906 2.469-.89.984-2.375.984-.953 0-1.703-.438-.75-.437-1.156-1.234-.407-.812-.407-1.781 0-1.547.89-2.531.907-.985 2.376-.985m-1.813 3.516q0 .984.47 1.61.484.609 1.343.609.86 0 1.328-.61.484-.61.484-1.61 0-1.062-.484-1.671-.469-.625-1.328-.625t-1.344.625q-.469.625-.469 1.672m7.537-3.36 2.782 4.47h.015v-4.47h1.375v6.657h-1.453l-2.781-4.453h-.016v4.453h-1.375v-6.657zm7.758-.156q1.203 0 1.938.563.734.547.734 1.578h-1.422q-.031-.5-.343-.75-.313-.266-.97-.266-.437 0-.734.203-.28.203-.28.563 0 .25.109.375.125.125.484.265.375.125 1.61.422.827.188 1.296.672t.469 1.203q0 .97-.734 1.563-.72.578-2.032.578-1.265 0-2.062-.61-.781-.624-.781-1.718v-.031h1.421q0 .609.407.921.406.297 1.062.297.594 0 .938-.203.359-.219.359-.625 0-.312-.281-.515-.266-.22-.86-.375-.765-.172-1.39-.36-.625-.187-1.031-.625-.407-.437-.407-1.125 0-.89.719-1.437.719-.563 1.781-.563m5.194.156v4.172q0 .72.328 1.063.328.344 1.047.344.766 0 1.063-.329.312-.343.312-1.062v-4.188h1.469v4.188q0 1.234-.734 1.937-.72.688-2.11.688-1.406 0-2.125-.688t-.719-1.937v-4.188zm6.945 0v5.422h3.25v1.235h-4.718v-6.657zm-32.622 13.284q1.14 0 1.938.64.797.641.937 1.75h-1.422q-.093-.53-.515-.843-.422-.328-.938-.328-.86 0-1.343.625-.47.625-.47 1.672 0 .984.47 1.61.484.609 1.343.609.64 0 1.032-.391.39-.39.484-1.094h1.422q-.125 1.266-.922 2-.797.719-2.016.719-.953 0-1.703-.438-.75-.437-1.156-1.234-.406-.812-.406-1.781 0-1.547.89-2.531.907-.985 2.375-.985m5.399.156v5.422h3.25v1.235h-4.719v-6.657zm5.53 0v6.657h-1.47v-6.657zm6.266 0v1.235h-3.516v1.422h3.22v1.14h-3.22v1.625h3.594v1.235h-5.062v-6.657zm2.513 0 2.781 4.47h.016v-4.47h1.375v6.657h-1.453l-2.782-4.453h-.015v4.453h-1.375v-6.657zm10.398 0v1.235h-2v5.422h-1.453v-5.422h-2v-1.235zm2.907-.156q1.203 0 1.938.563.734.547.734 1.578h-1.422q-.03-.5-.343-.75-.313-.266-.97-.266-.437 0-.734.203-.28.203-.28.563 0 .25.109.375.125.125.484.265.375.125 1.61.422.827.188 1.296.672t.469 1.203q0 .97-.734 1.563-.72.578-2.032.578-1.265 0-2.062-.61-.781-.624-.781-1.718v-.031h1.421q0 .609.407.921.406.297 1.062.297.594 0 .938-.203.36-.219.36-.625 0-.312-.282-.515-.266-.22-.86-.375-.765-.172-1.39-.36-.625-.187-1.031-.625-.407-.437-.407-1.125 0-.89.72-1.437.718-.563 1.78-.563"/>
    <g filter="url(#x)">
      <use xlink:href="#y" transform="translate(0 7.333)"/>
    </g>
    <defs>
      <filter id="x" filterUnits="userSpaceOnUse">
        <feGaussianBlur in="SourceAlpha" result="blur" stdDeviation="5.333"/>
        <feComponentTransfer color-interpolation-filters="sRGB" in="blur">
          <feFuncR slope="0" type="linear"/>
          <feFuncG slope="0" type="linear"/>
          <feFuncB slope="0" type="linear"/>
          <feFuncA slope=".063" type="linear"/>
        </feComponentTransfer>
      </filter>
    </defs>
    <g id="y" fill-rule="evenodd">
      <path fill="#fff" d="M737.248 367.731c0-.675.547-1.222 1.222-1.222h41.556a1.22 1.22 0 0 1 1.222 1.222v41.555c0 .676-.547 1.223-1.222 1.223H738.47a1.22 1.22 0 0 1-1.222-1.223z"/>
      <path stroke="#ca2171" stroke-linecap="butt" stroke-miterlimit="400" d="M737.248 367.731c0-.675.547-1.222 1.222-1.222h41.556a1.22 1.22 0 0 1 1.222 1.222v41.555c0 .676-.547 1.223-1.222 1.223H738.47a1.22 1.22 0 0 1-1.222-1.223z"/>
    </g>
    <path fill="#8e134a" fill-rule="evenodd" d="M758.761 391.179c-1.527 0-2.837-1.195-2.837-2.715 0-1.557 1.237-2.824 2.764-2.824 1.528 0 2.837 1.23 2.837 2.751.036 1.593-1.236 2.788-2.764 2.788"/>
    <path fill="#ca2171" fill-rule="evenodd" d="M764.191 389.746c-.72 0-1.296-.566-1.296-1.239a1.28 1.28 0 0 1 1.296-1.274c.685 0 1.261.566 1.261 1.274 0 .673-.576 1.239-1.26 1.239m4.683 1.016a1.28 1.28 0 0 1-1.503.914c-.68-.176-1.073-.879-.93-1.477.179-.703.859-1.055 1.503-.95.644.212 1.074.81.93 1.443.072 0 .072.07 0 .07m-.71-3.192c-.725.105-1.45-.281-1.56-.95-.144-.703.255-1.371.98-1.476.689-.141 1.414.246 1.523.949.072.176.072.281 0 .492-.073.422-.435.844-.943.985m4.475 3.142c-.144.712-.788 1.104-1.468.997-.716-.142-1.145-.748-1.002-1.425.108-.712.752-1.14 1.467-.997.609.107 1.11.677 1.074 1.318 0 .036-.071.107-.071.107m-.952-3.177c-.755.14-1.397-.387-1.548-.985-.113-.703.415-1.301 1.057-1.442.755-.105 1.397.387 1.548 1.02v.281c0 .563-.49 1.055-1.057 1.126m-1.065 7.635c-.394.608-1.145.788-1.718.5-.608-.393-.823-1.146-.501-1.72.394-.645 1.145-.824 1.718-.501.43.25.68.752.608 1.183.072.143 0 .322-.107.537m-.339-11.763c-.644.287-1.396.072-1.718-.538-.322-.645-.143-1.361.501-1.684s1.396-.143 1.718.502c.107.25.179.502.107.752-.071.395-.25.753-.608.968"/>
    <path fill="#ca2171" fill-rule="evenodd" d="M758.827 401.373c-3.536 0-6.815-1.34-9.284-3.764a12.73 12.73 0 0 1-3.831-9.12c0-3.438 1.363-6.695 3.831-9.12s5.748-3.764 9.284-3.764c2.91 0 5.637.869 7.921 2.606l-1.62 2.026a10.58 10.58 0 0 0-6.374-2.099c-2.8 0-5.453 1.086-7.405 3.004a10.18 10.18 0 0 0-3.058 7.275c0 2.75 1.105 5.356 3.058 7.274a10.55 10.55 0 0 0 7.405 3.004c2.32 0 4.531-.724 6.373-2.1l1.621 2.027c-2.284 1.774-5.01 2.75-7.92 2.75"/>
    <path d="M720.146 341.626h77.448v24.882h-77.448z"/>
    <path fill="#ca2171" d="M742.705 343.773q1.14 0 1.937.64.797.641.938 1.75h-1.422q-.094-.53-.516-.843-.422-.328-.937-.328-.86 0-1.344.625-.469.625-.469 1.672 0 .984.469 1.61.484.609 1.344.609.64 0 1.03-.391.392-.39.485-1.094h1.422q-.125 1.266-.922 2-.797.719-2.015.719-.953 0-1.703-.438-.75-.437-1.157-1.234-.406-.812-.406-1.781 0-1.547.89-2.531.907-.985 2.376-.985m6.914 0q1.484 0 2.375 1 .906.985.906 2.516 0 1.484-.906 2.469-.89.984-2.375.984-.953 0-1.703-.438-.75-.437-1.157-1.234-.406-.812-.406-1.781 0-1.547.89-2.531.907-.985 2.376-.985m-1.813 3.516q0 .984.469 1.61.484.609 1.344.609t1.328-.61q.484-.61.484-1.61 0-1.062-.484-1.671-.469-.625-1.328-.625t-1.344.625q-.469.625-.469 1.672m7.537-3.36 2.781 4.47h.016v-4.47h1.375v6.657h-1.453l-2.781-4.453h-.016v4.453h-1.375v-6.657zm7.758-.156q1.203 0 1.938.563.734.547.734 1.578h-1.422q-.031-.5-.344-.75-.312-.266-.968-.266-.438 0-.735.203-.281.203-.281.563 0 .25.11.375.124.125.484.265.375.125 1.61.422.827.188 1.296.672t.469 1.203q0 .97-.735 1.563-.718.578-2.03.578-1.267 0-2.063-.61-.782-.624-.782-1.718v-.031h1.422q0 .609.406.921.407.297 1.063.297.594 0 .937-.203.36-.219.36-.625 0-.312-.281-.515-.266-.22-.86-.375-.765-.172-1.39-.36-.625-.187-1.032-.625-.406-.437-.406-1.125 0-.89.719-1.437.719-.563 1.781-.563m5.194.156v4.172q0 .72.328 1.063.328.344 1.047.344.766 0 1.063-.329.312-.343.312-1.062v-4.188h1.469v4.188q0 1.234-.735 1.937-.718.688-2.109.688-1.406 0-2.125-.688t-.719-1.937v-4.188zm6.945 0v5.422h3.25v1.235h-4.718v-6.657zm-46.537 13.284q1.141 0 1.938.64.797.641.937 1.75h-1.421q-.094-.53-.516-.843-.422-.328-.938-.328-.859 0-1.343.625-.47.625-.47 1.672 0 .984.47 1.61.484.609 1.343.609.641 0 1.032-.391.39-.39.484-1.094h1.422q-.125 1.266-.922 2-.797.719-2.016.719-.953 0-1.703-.438-.75-.437-1.156-1.234-.406-.812-.406-1.781 0-1.547.89-2.531.907-.985 2.375-.985m6.915 0q1.484 0 2.375 1 .906.985.906 2.516 0 1.484-.906 2.469-.891.984-2.375.984-.954 0-1.704-.438-.75-.437-1.156-1.234-.406-.812-.406-1.781 0-1.547.89-2.531.907-.985 2.376-.985m-1.813 3.516q0 .984.469 1.61.484.609 1.344.609.859 0 1.328-.61.484-.61.484-1.61 0-1.062-.484-1.671-.47-.625-1.328-.625-.86 0-1.344.625-.469.625-.469 1.672m8.146-3.36 1.563 4.579h.015l1.47-4.563.015-.016h2.047v6.657h-1.375v-4.72h-.016l-1.625 4.72h-1.125l-1.64-4.672h-.016v4.672h-1.375v-6.657zm9.447 0q1.047 0 1.657.594.61.578.61 1.547 0 .953-.61 1.547-.61.578-1.657.578h-1.578v2.39h-1.468v-6.656zm-.406 3.125q.64 0 .938-.234.312-.234.312-.75t-.297-.75q-.297-.25-.937-.25h-1.188v1.984zm6.566-3.28q1.484 0 2.375 1 .906.984.906 2.515 0 1.484-.906 2.469-.89.984-2.375.984-.953 0-1.703-.438-.75-.437-1.157-1.234-.406-.812-.406-1.781 0-1.547.89-2.531.907-.985 2.376-.985m-1.813 3.515q0 .984.469 1.61.484.609 1.344.609t1.328-.61q.484-.61.484-1.61 0-1.062-.484-1.671-.469-.625-1.328-.625t-1.344.625q-.469.625-.469 1.672m7.537-3.36 2.781 4.47h.016v-4.47h1.375v6.657h-1.453l-2.781-4.453h-.016v4.453h-1.375v-6.657zm10.446 0v1.235h-3.516v1.422h3.219v1.14h-3.22v1.625h3.595v1.235h-5.063v-6.657zm2.512 0 2.782 4.47h.015v-4.47h1.375v6.657h-1.453l-2.781-4.453h-.016v4.453h-1.375v-6.657zm10.399 0v1.235h-2v5.422h-1.453v-5.422h-2v-1.235zm2.907-.156q1.203 0 1.937.563.735.547.735 1.578h-1.422q-.031-.5-.344-.75-.312-.266-.969-.266-.437 0-.734.203-.281.203-.281.563 0 .25.11.375.124.125.484.265.375.125 1.609.422.828.188 1.297.672t.469 1.203q0 .97-.735 1.563-.719.578-2.031.578-1.266 0-2.063-.61-.78-.624-.78-1.718v-.031h1.421q0 .609.406.921.407.297 1.063.297.594 0 .937-.203.36-.219.36-.625 0-.312-.282-.515-.265-.22-.859-.375-.766-.172-1.39-.36-.626-.187-1.032-.625-.406-.437-.406-1.125 0-.89.719-1.437.718-.563 1.78-.563"/>
    <g filter="url(#z)">
      <use xlink:href="#A" transform="translate(0 7.333)"/>
    </g>
    <defs>
      <filter id="z" filterUnits="userSpaceOnUse">
        <feGaussianBlur in="SourceAlpha" result="blur" stdDeviation="5.333"/>
        <feComponentTransfer color-interpolation-filters="sRGB" in="blur">
          <feFuncR slope="0" type="linear"/>
          <feFuncG slope="0" type="linear"/>
          <feFuncB slope="0" type="linear"/>
          <feFuncA slope=".063" type="linear"/>
        </feComponentTransfer>
      </filter>
    </defs>
    <g id="A" fill-rule="evenodd">
      <path fill="#fff" d="M599.355 178.1c0-.675.547-1.222 1.222-1.222h41.555a1.22 1.22 0 0 1 1.223 1.222v41.556c0 .675-.548 1.222-1.223 1.222h-41.555a1.22 1.22 0 0 1-1.222-1.222z"/>
      <path stroke="#000001" stroke-linecap="butt" stroke-miterlimit="400" d="M599.355 178.1c0-.675.547-1.222 1.222-1.222h41.555a1.22 1.22 0 0 1 1.223 1.222v41.556c0 .675-.548 1.222-1.223 1.222h-41.555a1.22 1.22 0 0 1-1.222-1.222z"/>
    </g>
    <path d="M590.253 151.995h62.205v24.882h-62.205z"/>
    <path fill="#000001" d="m608.403 154.299 1.484 4.672h.016l1.5-4.672h1.515l-2.218 6.656h-1.64l-2.173-6.656zm8.07 0 2.484 6.656h-1.516l-.5-1.484h-2.5l-.515 1.484h-1.485l2.531-6.656zm-.782 1.64-.86 2.438h1.72l-.829-2.438zm5.167-1.64v4.172q0 .718.328 1.062.329.344 1.047.344.766 0 1.063-.328.312-.344.312-1.063V154.3h1.469v4.187q0 1.235-.734 1.938-.72.687-2.11.687-1.406 0-2.125-.687-.718-.688-.718-1.938V154.3zm6.946 0v5.422h3.25v1.234h-4.72v-6.656zm7.822 0v1.234h-2v5.422h-1.453v-5.422h-2V154.3zm-35.646 13.44v6.656h-1.468v-6.656zm2.736 0 2.782 4.468h.015v-4.468h1.375v6.656h-1.453l-2.781-4.453h-.016v4.453h-1.375v-6.656zm9.368 0v4.61q0 1.062-.563 1.64-.562.562-1.656.562-.969 0-1.594-.547-.61-.547-.61-1.484v-.61h1.329v.25q0 .672.203.922.219.235.656.235.375 0 .563-.203.203-.203.203-.828v-4.547zm6.266 0v1.234h-3.516v1.422h3.219v1.14h-3.22v1.626h3.595v1.234h-5.063v-6.656zm4.044-.157q1.14 0 1.937.641.797.64.938 1.75h-1.422q-.094-.531-.516-.844-.422-.328-.937-.328-.86 0-1.344.625-.469.625-.469 1.672 0 .984.469 1.61.484.609 1.344.609.64 0 1.03-.39.392-.391.485-1.095h1.422q-.125 1.266-.922 2-.797.72-2.015.72-.953 0-1.703-.438t-1.157-1.235q-.406-.812-.406-1.78 0-1.548.89-2.532.907-.985 2.376-.985m8.644.157v1.234h-2v5.422h-1.454v-5.422h-2v-1.234zm3.435-.157q1.484 0 2.375 1 .906.985.906 2.516 0 1.484-.906 2.469-.891.984-2.375.984-.954 0-1.704-.437-.75-.438-1.156-1.235-.406-.812-.406-1.78 0-1.548.89-2.532.907-.985 2.376-.985m-1.813 3.516q0 .984.469 1.61.484.609 1.344.609.859 0 1.328-.61.484-.609.484-1.609 0-1.062-.484-1.672-.469-.625-1.328-.625t-1.344.625q-.469.625-.469 1.672m9.709-3.36q.812 0 1.36.516.562.516.562 1.328 0 .625-.266 1.047-.265.407-.797.61v.015q.47.125.72.563t.28 1.344q.016.906.25 1.234h-1.453q-.14-.328-.187-1.047-.063-.984-.328-1.266-.25-.28-.797-.28h-1.5v2.593h-1.469v-6.656zm-.516 3.016q.453 0 .703-.218.266-.235.266-.735 0-.484-.25-.703t-.719-.219h-1.64v1.875z"/>
    <path fill="#000" fill-rule="evenodd" d="M608.064 185.815 621.3 211.9l13.31-26.086zm14.777 5.26h1.54v1.514h-1.54zm-3.043 6.017h-1.54v-1.513h1.54zm0-2.27h-1.54v-1.513h1.54zm0-2.233h-1.54v-1.514h1.54zm2.273 6.81h-1.54v-1.514h1.54zm0-2.307h-1.54v-1.513h1.54zm0-2.27h-1.54v-1.513h1.54zm0-2.233h-1.54v-1.514h1.54zm.77.756h1.54v1.55h-1.54zm0 3.747v-1.513h1.54v1.513z"/>
    <g filter="url(#B)">
      <use xlink:href="#C" transform="translate(0 7.333)"/>
    </g>
    <defs>
      <filter id="B" filterUnits="userSpaceOnUse">
        <feGaussianBlur in="SourceAlpha" result="blur" stdDeviation="5.333"/>
        <feComponentTransfer color-interpolation-filters="sRGB" in="blur">
          <feFuncR slope="0" type="linear"/>
          <feFuncG slope="0" type="linear"/>
          <feFuncB slope="0" type="linear"/>
          <feFuncA slope=".063" type="linear"/>
        </feComponentTransfer>
      </filter>
    </defs>
    <g id="C" fill-rule="evenodd">
      <path fill="#fff" d="M205.592 400.787c0-.295.24-.534.534-.534h21.011a.534.534 0 0 1 .534.534v18.145a.534.534 0 0 1-.534.534h-21.011a.534.534 0 0 1-.534-.534z"/>
      <path stroke="#000001" stroke-linecap="butt" stroke-miterlimit="400" d="M205.592 400.787c0-.295.24-.534.534-.534h21.011a.534.534 0 0 1 .534.534v18.145a.534.534 0 0 1-.534.534h-21.011a.534.534 0 0 1-.534-.534z"/>
    </g>
    <path fill="#000" fill-rule="evenodd" d="m209.96 404.153 6.638 11.383 6.675-11.383zm7.41 2.296h.773v.66h-.773zm-1.526 2.625h-.772v-.66h.772zm0-.99h-.772v-.66h.772zm0-.975h-.772v-.66h.772zm1.14 2.971h-.772v-.66h.772zm0-1.006h-.772v-.66h.772zm0-.99h-.772v-.66h.772zm0-.975h-.772v-.66h.772zm.386.33h.773v.676h-.773zm0 1.635v-.66h.773v.66z"/>
    <g filter="url(#D)">
      <use xlink:href="#E" transform="translate(0 7.333)"/>
    </g>
    <defs>
      <filter id="D" filterUnits="userSpaceOnUse">
        <feGaussianBlur in="SourceAlpha" result="blur" stdDeviation="5.333"/>
        <feComponentTransfer color-interpolation-filters="sRGB" in="blur">
          <feFuncR slope="0" type="linear"/>
          <feFuncG slope="0" type="linear"/>
          <feFuncB slope="0" type="linear"/>
          <feFuncA slope=".063" type="linear"/>
        </feComponentTransfer>
      </filter>
    </defs>
    <g id="E" fill-rule="evenodd">
      <path fill="#fff" d="M205.255 306.065c0-.294.239-.533.534-.533H226.8a.534.534 0 0 1 .534.533v18.145a.534.534 0 0 1-.534.534h-21.011a.534.534 0 0 1-.534-.534z"/>
      <path stroke="#000001" stroke-linecap="butt" stroke-miterlimit="400" d="M205.255 306.065c0-.294.239-.533.534-.533H226.8a.534.534 0 0 1 .534.533v18.145a.534.534 0 0 1-.534.534h-21.011a.534.534 0 0 1-.534-.534z"/>
    </g>
    <path fill="#000" fill-rule="evenodd" d="m209.623 309.431 6.638 11.383 6.675-11.383zm7.41 2.296h.772v.66h-.772zm-1.526 2.625h-.772v-.66h.772zm0-.99h-.772v-.66h.772zm0-.975h-.772v-.66h.772zm1.14 2.972h-.772v-.66h.772zm0-1.007h-.772v-.66h.772zm0-.99h-.772v-.66h.772zm0-.975h-.772v-.66h.772zm.386.33h.772v.676h-.772zm0 1.635v-.66h.772v.66z"/>
    <g filter="url(#F)">
      <use xlink:href="#G" transform="translate(0 7.333)"/>
    </g>
    <defs>
      <filter id="F" filterUnits="userSpaceOnUse">
        <feGaussianBlur in="SourceAlpha" result="blur" stdDeviation="5.333"/>
        <feComponentTransfer color-interpolation-filters="sRGB" in="blur">
          <feFuncR slope="0" type="linear"/>
          <feFuncG slope="0" type="linear"/>
          <feFuncB slope="0" type="linear"/>
          <feFuncA slope=".063" type="linear"/>
        </feComponentTransfer>
      </filter>
    </defs>
    <g id="G" fill-rule="evenodd">
      <path fill="#fff" d="M205.222 211.342c0-.295.24-.534.534-.534h21.011a.534.534 0 0 1 .534.534v18.145a.534.534 0 0 1-.534.534h-21.011a.534.534 0 0 1-.534-.534z"/>
      <path stroke="#000001" stroke-linecap="butt" stroke-miterlimit="400" d="M205.222 211.342c0-.295.24-.534.534-.534h21.011a.534.534 0 0 1 .534.534v18.145a.534.534 0 0 1-.534.534h-21.011a.534.534 0 0 1-.534-.534z"/>
    </g>
    <path fill="#000" fill-rule="evenodd" d="m209.59 214.708 6.638 11.383 6.675-11.383zm7.41 2.296h.773v.66H217zm-1.526 2.625h-.772v-.66h.772zm0-.99h-.772v-.66h.772zm0-.975h-.772v-.66h.772zm1.14 2.972h-.772v-.66h.772zm0-1.007h-.772v-.66h.772zm0-.99h-.772v-.66h.772zm0-.975h-.772v-.66h.772zm.386.33h.773v.676H217zm0 1.635v-.66h.773v.66z"/>
    <g filter="url(#H)">
      <use xlink:href="#I" transform="translate(0 7.333)"/>
    </g>
    <defs>
      <filter id="H" filterUnits="userSpaceOnUse">
        <feGaussianBlur in="SourceAlpha" result="blur" stdDeviation="5.333"/>
        <feComponentTransfer color-interpolation-filters="sRGB" in="blur">
          <feFuncR slope="0" type="linear"/>
          <feFuncG slope="0" type="linear"/>
          <feFuncB slope="0" type="linear"/>
          <feFuncA slope=".063" type="linear"/>
        </feComponentTransfer>
      </filter>
    </defs>
    <g id="I" fill-rule="evenodd">
      <path fill="#fff" d="M727.759 306.065c0-.294.239-.533.534-.533h21.01a.534.534 0 0 1 .535.533v18.145a.534.534 0 0 1-.534.534h-21.011a.534.534 0 0 1-.534-.534z"/>
      <path stroke="#000001" stroke-linecap="butt" stroke-miterlimit="400" d="M727.759 306.065c0-.294.239-.533.534-.533h21.01a.534.534 0 0 1 .535.533v18.145a.534.534 0 0 1-.534.534h-21.011a.534.534 0 0 1-.534-.534z"/>
    </g>
    <path fill="#000" fill-rule="evenodd" d="m732.126 309.431 6.639 11.383 6.675-11.383zm7.411 2.296h.772v.66h-.772zm-1.526 2.625h-.773v-.66h.773zm0-.99h-.773v-.66h.773zm0-.975h-.773v-.66h.773zm1.14 2.972h-.772v-.66h.772zm0-1.007h-.772v-.66h.772zm0-.99h-.772v-.66h.772zm0-.975h-.772v-.66h.772zm.386.33h.772v.676h-.772zm0 1.635v-.66h.772v.66z"/>
    <g filter="url(#J)">
      <use xlink:href="#K" transform="translate(0 7.333)"/>
    </g>
    <defs>
      <filter id="J" filterUnits="userSpaceOnUse">
        <feGaussianBlur in="SourceAlpha" result="blur" stdDeviation="5.333"/>
        <feComponentTransfer color-interpolation-filters="sRGB" in="blur">
          <feFuncR slope="0" type="linear"/>
          <feFuncG slope="0" type="linear"/>
          <feFuncB slope="0" type="linear"/>
          <feFuncA slope=".063" type="linear"/>
        </feComponentTransfer>
      </filter>
    </defs>
    <g id="K" fill-rule="evenodd">
      <path fill="#fff" d="M728.138 401.936c0-.295.24-.534.534-.534h21.011a.534.534 0 0 1 .534.534v18.145a.534.534 0 0 1-.534.534h-21.011a.534.534 0 0 1-.534-.534z"/>
      <path stroke="#000001" stroke-linecap="butt" stroke-miterlimit="400" d="M728.138 401.936c0-.295.24-.534.534-.534h21.011a.534.534 0 0 1 .534.534v18.145a.534.534 0 0 1-.534.534h-21.011a.534.534 0 0 1-.534-.534z"/>
    </g>
    <path fill="#000" fill-rule="evenodd" d="m732.506 405.302 6.638 11.383 6.675-11.383zm7.41 2.296h.773v.66h-.773zm-1.526 2.625h-.772v-.66h.772zm0-.99h-.772v-.66h.772zm0-.975h-.772v-.66h.772zm1.14 2.972h-.772v-.66h.772zm0-1.007h-.772v-.66h.772zm0-.99h-.772v-.66h.772zm0-.975h-.772v-.66h.772zm.386.33h.773v.676h-.773zm0 1.635v-.66h.773v.66z"/>
    <g filter="url(#L)">
      <use xlink:href="#M" transform="translate(0 7.333)"/>
    </g>
    <defs>
      <filter id="L" filterUnits="userSpaceOnUse">
        <feGaussianBlur in="SourceAlpha" result="blur" stdDeviation="5.333"/>
        <feComponentTransfer color-interpolation-filters="sRGB" in="blur">
          <feFuncR slope="0" type="linear"/>
          <feFuncG slope="0" type="linear"/>
          <feFuncB slope="0" type="linear"/>
          <feFuncA slope=".063" type="linear"/>
        </feComponentTransfer>
      </filter>
    </defs>
    <g id="M" fill-rule="evenodd">
      <path fill="#fff" d="M727.752 211.342c0-.295.24-.534.534-.534h21.011a.534.534 0 0 1 .534.534v18.145a.534.534 0 0 1-.534.534h-21.01a.534.534 0 0 1-.535-.534z"/>
      <path stroke="#000001" stroke-linecap="butt" stroke-miterlimit="400" d="M727.752 211.342c0-.295.24-.534.534-.534h21.011a.534.534 0 0 1 .534.534v18.145a.534.534 0 0 1-.534.534h-21.01a.534.534 0 0 1-.535-.534z"/>
    </g>
    <path fill="#000" fill-rule="evenodd" d="m732.12 214.708 6.638 11.383 6.675-11.383zm7.41 2.296h.773v.66h-.773zm-1.526 2.625h-.772v-.66h.772zm0-.99h-.772v-.66h.772zm0-.975h-.772v-.66h.772zm1.14 2.972h-.772v-.66h.772zm0-1.007h-.772v-.66h.772zm0-.99h-.772v-.66h.772zm0-.975h-.772v-.66h.772zm.386.33h.773v.676h-.773zm0 1.635v-.66h.773v.66z"/>
  </g>
</svg>
