<svg xmlns="http://www.w3.org/2000/svg" xmlns:xlink="http://www.w3.org/1999/xlink" viewBox="0 0 811 452">
  <defs>
    <path id="a" d="M16.878 0h316.456v210.97H16.878z"/>
    <path id="b" d="M0 0h123v192H0z"/>
    <path id="f" stroke="#555" d="M24.5 25.5h74m-74 24h74m-51 25h51"/>
    <mask id="c" width="316.456" height="210.97" x="0" y="0" fill="#fff" maskContentUnits="userSpaceOnUse" maskUnits="objectBoundingBox">
      <use xlink:href="#a"/>
    </mask>
    <mask id="d" width="123" height="192" x="0" y="0" fill="#fff" maskContentUnits="userSpaceOnUse" maskUnits="objectBoundingBox">
      <use xlink:href="#b"/>
    </mask>
    <mask id="g" width="123" height="192" x="0" y="0" fill="#fff" maskContentUnits="userSpaceOnUse" maskUnits="objectBoundingBox">
      <use xlink:href="#b"/>
    </mask>
  </defs>
  <g fill="none" fill-rule="evenodd">
    <g transform="translate(0 202)">
      <path fill="#555" d="m350.67 226.793-96.45 22.978H95.991L0 226.793z"/>
      <use xlink:href="#a" stroke="#555" stroke-width="30" mask="url(#c)"/>
    </g>
    <path stroke="#555" stroke-linecap="square" stroke-width="15" d="M525.5 97.5h-106m0 208h-79m79 0V98.983m264-1.483h-25"/>
    <g transform="translate(528)">
      <use xlink:href="#b" stroke="#555" stroke-width="10" mask="url(#d)"/>
      <use xlink:href="#f" stroke-linecap="square" stroke-width="15"/>
      <circle cx="24.5" cy="74.5" r="7.5" fill="#555"/>
    </g>
    <g transform="translate(688)">
      <use xlink:href="#b" stroke="#555" stroke-width="10" mask="url(#g)"/>
      <use xlink:href="#f" stroke-linecap="square" stroke-width="15"/>
      <circle cx="24.5" cy="74.5" r="7.5" fill="#555"/>
    </g>
  </g>
</svg>
