<svg xmlns="http://www.w3.org/2000/svg" width="121" height="44" fill="none">
  <path fill="#fff" d="M0 0h44v44H0z"/>
  <path fill="#0036A4" d="m12.015 10.66-.159-.152c-1.11-1.066-1.97-2.3-2.488-3.758-.146-.408-.255-.824-.236-1.263l.005-.125c.039-.568.418-.854.973-.72q.263.068.504.193c.606.305 1.1.754 1.555 1.247a9.9 9.9 0 0 1 1.912 2.942q.015.039.034.076c.006.011.02.018.05.045a15.5 15.5 0 0 1 7.129-2.187c-.015-.078-.025-.136-.04-.194a9.9 9.9 0 0 1-.233-3.252 7.4 7.4 0 0 1 .391-1.915c.104-.326.268-.63.482-.896a1.4 1.4 0 0 1 .279-.248.62.62 0 0 1 .706-.005c.22.15.398.354.514.593.217.405.373.84.463 1.291a10 10 0 0 1 .187 2.905 8.4 8.4 0 0 1-.307 1.752c.627.115 1.25.205 1.861.35q.915.212 1.799.528.891.328 1.74.754c.558.279 1.09.61 1.647.927.018-.038.044-.083.062-.132a9.56 9.56 0 0 1 2.895-4.115c.307-.263.66-.469 1.04-.606q.158-.054.324-.074c.551-.063.783.284.824.698.03.305.007.614-.069.911a7.7 7.7 0 0 1-.944 2.173c-.597.965-1.307 1.835-2.208 2.537-.027.02-.05.046-.095.087a15.7 15.7 0 0 1 2.34 2.718 1 1 0 0 1-.148.026c-.933.001-1.865-.002-2.798.004a.35.35 0 0 1-.279-.149 13.01 13.01 0 0 0-10.424-4.199 12.9 12.9 0 0 0-7.263 2.8q-.805.634-1.494 1.393a.42.42 0 0 1-.34.155c-.89-.006-1.781-.003-2.672-.003h-.19c.055-.212.602-.963 1.222-1.633.462-.5.952-.974 1.45-1.48Zm22.702 19.957a15.5 15.5 0 0 1-2.11 2.39l.164.137a9.53 9.53 0 0 1 2.965 4.237c.154.404.22.837.193 1.269q-.012.166-.066.325a.634.634 0 0 1-.717.442 2 2 0 0 1-.596-.177 4.5 4.5 0 0 1-.807-.512 9.47 9.47 0 0 1-2.899-4.11c-.016-.045-.034-.09-.063-.165a17 17 0 0 1-2.201 1.233 16 16 0 0 1-2.349.855c-.817.222-1.65.38-2.49.475.014.073.023.132.038.19a9.6 9.6 0 0 1 .261 3.206 7.1 7.1 0 0 1-.389 1.979q-.16.395-.366.769a1.2 1.2 0 0 1-.206.261c-.35.362-.769.365-1.11-.006a2.4 2.4 0 0 1-.344-.494c-.27-.509-.41-1.061-.51-1.625a10.3 10.3 0 0 1-.12-2.329 8.3 8.3 0 0 1 .255-1.688q.018-.07.032-.142c.003-.012-.005-.026-.015-.065a15.5 15.5 0 0 1-7.125-2.2l-.097.216a9.7 9.7 0 0 1-2.72 3.645 3.4 3.4 0 0 1-1.06.612c-.181.073-.38.095-.573.062a.63.63 0 0 1-.475-.395c-.125-.301-.103-.615-.06-.925a5 5 0 0 1 .379-1.255 9.9 9.9 0 0 1 2.333-3.323q.061-.056.121-.114a.3.3 0 0 0 .032-.058 15.7 15.7 0 0 1-2.505-2.756c.087-.007.145-.015.203-.015.925-.001 1.85.002 2.775-.004a.42.42 0 0 1 .326.143 13 13 0 0 0 3.468 2.542 12.3 12.3 0 0 0 4.374 1.3q6.22.605 10.7-3.771a.67.67 0 0 1 .528-.215c.862.01 1.725.004 2.588.004h.223zm-3.851-13.214c.245 0 .481.017.714-.004.264-.024.452.07.645.247 1.11 1.023 2.23 2.033 3.349 3.048l.185.164c.068-.058.13-.11.19-.164q1.729-1.573 3.455-3.15a.48.48 0 0 1 .37-.144c.283.012.567.003.866.003v9.273c-.152.044-2.19.053-2.433.005v-4.696l-.047-.022-2.397 2.186-2.416-2.177-.046.017-.001 1.176v3.533h-2.414c-.045-.156-.066-8.77-.02-9.295m-22.274.01h2.399c.048.154.058 9.062.008 9.286H8.598c-.013-.59-.004-1.177-.006-1.765-.002-.583 0-1.166 0-1.764H5.618v3.498c-.18.054-2.229.06-2.433.01v-9.264H5.61v3.273c.173.05 2.721.06 2.98.011l.003-.798zm5.276 9.284V17.44c.142-.046 5.416-.064 5.76-.018v1.973c-.077.005-.157.016-.237.016q-1.408.002-2.817 0h-.261v1.535h2.934v2.04H16.34c-.049.176-.062 1.393-.022 1.73.074.005.154.015.233.015h3.079v1.965h-5.761Zm8.51.003c-.044-.248-.035-9.117.008-9.285h2.39v6.843c.104.005.185.013.265.013h3.095v2.43h-5.758Z"/>
  <path fill="#BFBFC0" d="M60.235 18.045a.75.75 0 0 1 1.03-1.09l4.5 4.25a.75.75 0 0 1 0 1.09l-4.5 4.25a.75.75 0 0 1-1.03-1.09l3.129-2.955H54.75a.75.75 0 0 1 0-1.5h8.614z"/>
  <path fill="#2265D8" d="m97.028 18.067.278-4.906a9.64 9.64 0 0 0-5.639 2.7l4.024 2.851.008-.004a.824.824 0 0 0 1.31-.631zm8.227-2.204a9.7 9.7 0 0 0-5.605-2.702l.278 4.898.004.002a.825.825 0 0 0 1.31.63l.015.005zm-11.373 5.115-3.674-3.285a9.63 9.63 0 0 0-1.367 6.096l4.709-1.359.004-.015a.824.824 0 0 0 .324-1.417zm14.044-.34a9.7 9.7 0 0 0-1.206-2.943l-3.654 3.269.002.01a.824.824 0 0 0 .324 1.417l.004.02 4.734 1.362c.1-1.02.039-2.077-.204-3.135m-8.697.594h-1.505l-.938 1.166.336 1.46 1.355.65 1.351-.649.336-1.459zm3.51 4.014a.82.82 0 0 0-.506.068c-.4.192-.574.665-.4 1.069l-.006.008 1.891 4.565a9.64 9.64 0 0 0 3.9-4.897l-4.871-.823zm-7.58.647a.825.825 0 0 0-.954-.627l-.007-.01-4.83.819a9.7 9.7 0 0 0 3.888 4.863l1.871-4.52-.014-.017a.8.8 0 0 0 .046-.508m3.674 1.421a.82.82 0 0 0-1.084.354h-.003l-2.375 4.291a9.7 9.7 0 0 0 5.279.272q.487-.11.951-.266l-2.38-4.3h-.018a.82.82 0 0 0-.37-.351"/>
  <path fill="#2265D8" fill-rule="evenodd" d="M97.177.492a3.01 3.01 0 0 1 2.595 0l15.631 7.46c.404.194.76.475 1.04.823s.477.754.577 1.188l3.862 16.767a2.95 2.95 0 0 1-.578 2.508L109.49 42.685a2.99 2.99 0 0 1-2.337 1.113l-17.348.004a3.01 3.01 0 0 1-2.336-1.115L76.65 29.242a2.95 2.95 0 0 1-.576-2.508L79.93 9.967c.1-.434.297-.84.577-1.188s.636-.63 1.04-.823zm.365 6.455c0-.573.418-1.039.935-1.039s.935.466.935 1.04l.002.094a3 3 0 0 1 0 .171 4 4 0 0 1-.077.59q-.027.145-.05.3l-.006.049c-.077.63-.14 1.157-.1 1.647.032.217.145.32.254.42l.052.047c.002.068.013.293.022.418a12.26 12.26 0 0 1 7.765 3.75l.356-.254.049.004c.133.01.359.027.519-.066.408-.274.781-.653 1.228-1.107l.033-.033q.104-.113.198-.221a4 4 0 0 1 .419-.433c.042-.035.099-.08.151-.12l.057-.046c.449-.357 1.073-.32 1.396.084s.218 1.021-.23 1.379l-.068.056c-.048.039-.098.08-.138.11-.175.128-.34.216-.508.305a7 7 0 0 0-.27.148c-.56.346-1.023.632-1.391.977-.15.161-.161.315-.171.462l-.005.068-.142.127-.19.17a12.1 12.1 0 0 1 1.753 4.05c.339 1.476.392 2.95.196 4.367l.378.11.027.038c.074.11.204.3.377.367.476.15 1.012.206 1.657.274l.02.002q.157.012.306.017c.19.007.378.014.591.055.049.009.111.024.171.04l.101.024c.552.133.906.64.792 1.139s-.653.802-1.208.683l-.007-.001-.007-.001q-.008-.004-.018-.006l-.089-.019a2 2 0 0 1-.152-.033 4 4 0 0 1-.558-.207 7 7 0 0 0-.282-.117l-.028-.01c-.607-.217-1.111-.398-1.603-.47-.219-.017-.345.071-.466.155l-.058.04a12 12 0 0 0-.4-.07 12.17 12.17 0 0 1-5.392 6.781l.05.131c.039.105.081.22.105.247l-.025.065c-.055.136-.112.277-.047.486.182.47.476.931.83 1.485q.089.13.176.248c.113.153.224.304.326.497.025.049.057.116.086.177l.036.075c.24.514.064 1.106-.398 1.329-.466.224-1.044-.013-1.293-.53a4 4 0 0 1-.116-.24c-.088-.2-.138-.383-.189-.568q-.038-.142-.083-.289l-.009-.025c-.208-.611-.381-1.118-.633-1.547-.123-.183-.271-.228-.413-.27l-.065-.02-.199-.36a12.1 12.1 0 0 1-8.633-.022l-.212.384c-.158.042-.31.085-.404.196-.239.286-.377.693-.524 1.125q-.091.276-.2.555-.047.15-.084.294c-.05.183-.099.364-.186.563-.02.046-.049.105-.077.16l-.038.078v.002l-.002.002c-.25.515-.827.751-1.292.528-.462-.223-.638-.815-.398-1.33l.043-.09c.026-.056.054-.116.077-.16a4 4 0 0 1 .328-.502q.087-.118.174-.246c.354-.554.665-1.05.847-1.522.046-.156-.022-.37-.083-.528l.17-.408a12.17 12.17 0 0 1-5.395-6.733l-.408.07-.041-.024c-.118-.068-.312-.18-.497-.166-.492.07-.997.252-1.604.47l-.027.01a7 7 0 0 0-.277.114c-.177.076-.35.15-.562.207-.048.013-.11.026-.17.039l-.072.015-.009.003-.01.003-.013.002c-.555.12-1.093-.184-1.208-.683s.24-1.006.792-1.14l.014-.003.004-.001.004-.001.075-.018c.06-.015.125-.03.175-.04.213-.04.4-.048.591-.055q.149-.005.306-.017l.022-.002c.644-.068 1.18-.124 1.655-.274.135-.055.265-.226.365-.357l.037-.049.392-.113a12.1 12.1 0 0 1 1.909-8.436l-.3-.268-.007-.044c-.019-.13-.053-.36-.18-.496-.369-.345-.833-.631-1.392-.977q-.137-.078-.267-.147c-.168-.09-.334-.177-.509-.306-.04-.03-.09-.071-.138-.11l-.056-.046-.006-.005-.007-.005c-.45-.358-.552-.975-.23-1.379a.9.9 0 0 1 .745-.33c.224.008.455.09.652.246l.056.044c.053.041.11.086.152.122.166.143.29.285.415.43q.095.11.2.224l.017.016c.454.461.83.844 1.245 1.122.19.111.343.088.489.064l.066-.01c.054.04.235.17.338.24a12.03 12.03 0 0 1 6.113-3.49c.564-.129 1.13-.214 1.69-.26l.023-.396c.124-.12.264-.294.303-.483.04-.5-.024-1.037-.102-1.683l-.002-.014a6 6 0 0 0-.05-.298c-.035-.188-.07-.373-.077-.59-.002-.047 0-.106 0-.163l.002-.078-.001-.012z" clip-rule="evenodd"/>
</svg>
