<svg xmlns="http://www.w3.org/2000/svg" width="191" height="44" fill="none" xmlns:xlink="http://www.w3.org/1999/xlink">
  <g clip-path="url(#a)">
    <path fill="#828282" d="M23.123 15.184v-.334l-1.037.072q-.441.027-.663.186a.51.51 0 0 0-.223.442q0 .276.22.439t.59.163q.237 0 .44-.073.205-.072.355-.2a.9.9 0 0 0 .318-.695m-2.04-13.44C9.778 1.744.825 10.697.825 22s8.953 20.256 20.256 20.256S41.338 33.304 41.338 22 32.386 1.744 21.082 1.744Zm3.931 12.006a2 2 0 0 1 .405-.69 1.8 1.8 0 0 1 .63-.442 2.1 2.1 0 0 1 .823-.155q.408 0 .737.122.33.12.564.328a1.57 1.57 0 0 1 .539 1.063h-.813a1 1 0 0 0-.11-.315.9.9 0 0 0-.208-.252 1 1 0 0 0-.305-.166 1.2 1.2 0 0 0-.395-.06q-.26 0-.47.104t-.36.294q-.15.192-.231.464a2 2 0 0 0-.083.607q0 .346.083.62.081.273.234.46.15.19.364.29.213.1.468.1.416 0 .68-.196.263-.196.342-.574h.814a1.6 1.6 0 0 1-.185.61q-.15.274-.386.469-.24.195-.56.3a2.3 2.3 0 0 1-.708.107 2.2 2.2 0 0 1-.826-.151 1.8 1.8 0 0 1-.634-.435 1.95 1.95 0 0 1-.407-.688 2.7 2.7 0 0 1-.143-.913q-.002-.496.141-.9Zm-11.57-1.232h.813v.724h.016a1.2 1.2 0 0 1 .473-.565 1.3 1.3 0 0 1 .345-.153q.19-.053.398-.053.448 0 .756.214.309.214.438.615h.02a1.3 1.3 0 0 1 .217-.345 1.4 1.4 0 0 1 .686-.427q.206-.057.434-.057.314 0 .572.101.258.1.44.283.184.183.282.444.098.26.098.58v2.91h-.849v-2.706q0-.42-.217-.651-.216-.23-.617-.23-.195 0-.36.069a.8.8 0 0 0-.281.193.9.9 0 0 0-.184.297 1 1 0 0 0-.068.378v2.65h-.837v-2.776a.9.9 0 0 0-.058-.334.7.7 0 0 0-.42-.419 1 1 0 0 0-.341-.057.9.9 0 0 0-.365.073.86.86 0 0 0-.473.508c-.043.117-.113.246-.113.385v2.62h-.806v-4.27Zm1.847 20.44c-3.734 0-6.075-2.594-6.075-6.735s2.341-6.744 6.075-6.744 6.067 2.603 6.067 6.744c0 4.14-2.333 6.736-6.067 6.736Zm6.914-16.18a1.7 1.7 0 0 1-.423.053q-.319 0-.584-.09a1.4 1.4 0 0 1-.456-.256 1.15 1.15 0 0 1-.296-.4 1.2 1.2 0 0 1-.107-.521q0-.562.419-.879.419-.315 1.213-.368l1.152-.066v-.33q0-.37-.234-.562t-.663-.193a1.2 1.2 0 0 0-.323.043q-.15.044-.263.124a.7.7 0 0 0-.291.444h-.799q.008-.284.14-.524.131-.24.358-.417a1.7 1.7 0 0 1 .533-.275q.308-.098.669-.098.39 0 .705.098.317.1.541.281.225.183.346.44.121.259.122.577v2.93h-.813v-.713h-.02q-.091.174-.23.313a1.5 1.5 0 0 1-.696.39Zm5.372 16.18c-2.848 0-4.784-1.49-4.918-3.833h1.853c.145 1.339 1.438 2.225 3.21 2.225 1.7 0 2.92-.886 2.92-2.098 0-1.048-.741-1.682-2.458-2.115l-1.673-.416c-2.406-.597-3.499-1.69-3.499-3.49 0-2.215 1.935-3.753 4.693-3.753 2.694 0 4.574 1.547 4.646 3.77h-1.835c-.127-1.338-1.22-2.16-2.848-2.16-1.62 0-2.74.831-2.74 2.034 0 .948.705 1.51 2.423 1.943l1.41.353c2.686.65 3.79 1.709 3.79 3.608-.002 2.423-1.918 3.933-4.974 3.933ZM15.29 21.142c-2.558 0-4.158 1.962-4.158 5.081 0 3.11 1.6 5.072 4.158 5.072 2.55 0 4.159-1.962 4.159-5.072 0-3.119-1.609-5.081-4.159-5.081"/>
  </g>
  <g clip-path="url(#b)">
    <path fill="#2496ED" d="M81.582 10.528 94.66 8.754l.005 12.564-13.071.074zm13.071 12.238.01 12.574-13.07-1.79-.002-10.869zm1.585-14.244 17.34-2.52v15.156l-17.34.137zm17.344 14.362-.004 15.088-17.34-2.437-.024-12.68z"/>
  </g>
  <g clip-path="url(#c)">
    <path fill="#020204" d="M171.89 0c-1.06-.011-2.133.204-3.066.708a5.53 5.53 0 0 0-2.304 2.401c-.5 1.01-.697 2.09-.727 3.278-.056 2.257.051 4.625.221 6.771.045.654.127 1.036.044 1.707-.279 1.425-1.525 2.385-2.189 3.638-.733 1.381-1.042 2.944-1.595 4.407-.506 1.338-1.216 2.594-1.696 3.943-.67 1.885-.871 3.958-.428 5.91.338 1.488 1.043 2.883 1.994 4.077-.138.248-.271.499-.413.745-.44.762-.979 1.484-1.23 2.328-.125.422-.174.873-.093 1.305.081.433.299.847.643 1.122.225.18.496.295.777.36.28.065.57.08.858.075 1.093-.024 2.152-.357 3.21-.635a37 37 0 0 1 1.893-.442c2.254-.462 4.769-.278 6.861.026a24 24 0 0 1 2.108.416c1.091.265 2.178.602 3.3.635.295.008.593-.005.881-.07a1.96 1.96 0 0 0 .799-.365c.344-.275.563-.69.644-1.124.081-.433.031-.885-.096-1.307-.253-.845-.797-1.566-1.247-2.324-.178-.3-.343-.606-.52-.906 1.356-1.525 2.447-3.288 3.078-5.224.689-2.114.816-4.39.525-6.594s-.988-4.342-1.907-6.366c-1.153-2.538-2.122-3.455-2.824-5.683-.759-2.409-.133-5.259-.697-7.444a7.7 7.7 0 0 0-.935-2.101 7.2 7.2 0 0 0-1.827-1.972C174.768.451 173.327.016 171.89 0"/>
    <path fill="#FDFDFB" d="M167.733 12.715a1.8 1.8 0 0 0-.316.669 3.6 3.6 0 0 0-.093.738c-.019.496.012 1.002-.119 1.481-.141.513-.455.957-.763 1.389-.533.75-1.072 1.518-1.335 2.4a4.3 4.3 0 0 0-.155 1.652 17.6 17.6 0 0 0-1.541 2.781c-.648 1.472-1.093 3.04-1.25 4.641-.192 1.96.059 3.978.832 5.79.559 1.31 1.393 2.508 2.467 3.441.547.475 1.153.88 1.803 1.2 2.249 1.107 5.029 1.109 7.241-.072 1.156-.617 2.131-1.519 3.072-2.431.567-.55 1.13-1.113 1.562-1.774.833-1.272 1.122-2.818 1.302-4.328.315-2.641.325-5.43-.831-7.825a8.6 8.6 0 0 0-1.564-2.241 12.3 12.3 0 0 0-.99-3.338c-.35-.764-.779-1.49-1.104-2.264-.134-.318-.25-.644-.399-.955a2.9 2.9 0 0 0-.58-.85 2.4 2.4 0 0 0-.907-.527 4 4 0 0 0-1.04-.18c-.704-.035-1.41.058-2.115.03-.561-.023-1.12-.121-1.681-.088a2.6 2.6 0 0 0-.82.172c-.261.106-.501.27-.676.49"/>
    <g filter="url(#d)" opacity=".2">
      <path fill="url(#e)" d="M169.799 18.524a9 9 0 0 1-.103.643c-.021.105-.044.21-.083.31a.7.7 0 0 1-.174.266 1 1 0 0 1-.24.145 3.6 3.6 0 0 1-1.051.299q.218.016.434.04c.091.01.182.02.271.043a.7.7 0 0 1 .249.112c.081.06.145.14.192.23.095.176.126.379.144.578q.033.383.005.768.026-.258.106-.503a2.2 2.2 0 0 1 .462-.798 1.52 1.52 0 0 1 1.344-.505 1.66 1.66 0 0 1-1.063-.33 1.4 1.4 0 0 1-.382-.43 1.2 1.2 0 0 1-.111-.868"/>
    </g>
    <g filter="url(#f)" opacity=".11">
      <path fill="#000" d="M168.89 23.565q-.273 1.041-.374 2.114c-.094 1.008-.071 2.024-.125 3.036-.046.858-.147 1.726.002 2.573.071.403.199.797.378 1.165a4 4 0 0 0 .062-.425c.063-.687-.052-1.375-.091-2.064-.069-1.206.098-2.412.166-3.618.052-.926.046-1.856-.018-2.781"/>
    </g>
    <g filter="url(#g)" opacity=".25">
      <path fill="#7C7C7C" d="M165.646 16.742c-.018-.213-.321-.244-.456-.138-.114.09-.222.395-.123.515.16.194.602-.085.579-.377"/>
    </g>
    <g filter="url(#h)" opacity=".75">
      <path fill="#7C7C7C" d="M180.937 22.55c.176-.028 1.26.895 1.111 1.238-.148.342-.426.136-.625.138s-.744.25-.835.094c-.092-.157.241-.522.414-.827.14-.245-.24-.617-.065-.644Z"/>
    </g>
    <g filter="url(#i)" opacity=".3">
      <path fill="#000" d="M166.687 13.265c.489.303.928.674 1.296 1.098.343.393.633.84 1.08 1.13a2.4 2.4 0 0 0 1.078.357c.451.042.908-.025 1.343-.143.403-.11.793-.263 1.151-.467.68-.386 1.247-.953 1.997-1.208.164-.055.334-.095.492-.163.158-.069.306-.171.382-.316.072-.14.069-.3.093-.454.025-.164.082-.322.113-.485s.035-.337-.042-.487a.66.66 0 0 0-.31-.284 1.1 1.1 0 0 0-.43-.098c-.296-.013-.589.057-.885.082-.392.033-.786-.014-1.179-.003-.49.014-.972.116-1.46.137-.558.025-1.114-.057-1.672-.075a4 4 0 0 0-.723.035 1.9 1.9 0 0 0-.672.235c-.195.12-.354.282-.533.422a1.6 1.6 0 0 1-.289.183.9.9 0 0 1-.336.088c-.06.002-.121-.002-.18.006a.4.4 0 0 0-.252.144.33.33 0 0 0-.062.266"/>
    </g>
    <path fill="#020204" d="M181.396 21.842c.899.725 1.47 1.82 1.647 2.962.138.891.048 1.806-.152 2.685-.201.879-.511 1.729-.818 2.576-.123.338-.246.68-.295 1.036s-.018.733.154 1.05c.197.362.564.611.958.728.39.116.811.114 1.205.015.395-.098 1.058-.225 1.379-.475.816-.634 1.01-1.735 1.203-2.702.201-1.009.103-2.066-.074-3.085a21 21 0 0 0-1.165-4.058 14.2 14.2 0 0 0-1.448-2.743c-.569-.839-1.376-1.494-1.973-2.315-.207-.285-.456-.582-.66-.87-.438-.622-.339-.506-.611-.908-.198-.292-.51-.392-.838-.52a1.65 1.65 0 0 0-1.036-.07c-.447.126-.812.479-1.006.9-.194.423-.228.908-.152 1.366.097.592.367 1.14.672 1.657.344.583.743 1.144 1.262 1.577.542.453 1.198.751 1.748 1.194m-16.95-4.502c-1.046 1.19-2.122 2.341-2.712 3.628-.293.653-.431 1.363-.631 2.05a15.4 15.4 0 0 1-.883 2.271c-.32.68-.672 1.342-1.026 2.005-.257.481-.518.974-.607 1.513-.07.426-.029.865.079 1.283s.282.816.479 1.2c.838 1.64 2.095 3.054 3.584 4.135.676.491 1.4.916 2.159 1.263.411.188.845.356 1.297.364.226.004.454-.034.662-.125.207-.09.391-.237.514-.427a1.23 1.23 0 0 0 .173-.8 1.9 1.9 0 0 0-.283-.78c-.354-.58-.912-1-1.449-1.417a49 49 0 0 1-3.353-2.85c-.303-.282-.606-.573-.818-.93-.206-.347-.318-.742-.393-1.139-.207-1.088-.154-2.233.216-3.277.144-.408.336-.798.52-1.19.319-.68.622-1.372 1.042-1.995.523-.774 1.223-1.43 1.649-2.262.36-.702.506-1.491.645-2.268.109-.608.318-1.203.424-1.811-.208.394-.878 1.042-1.288 1.558Z"/>
    <g filter="url(#j)" opacity=".2">
      <path fill="url(#k)" d="M187.45 37.047a2.4 2.4 0 0 1-.311.653c-.301.446-.737.781-1.173 1.091-.744.528-1.519 1.013-2.212 1.613a11 11 0 0 0-1.278 1.327c-.336.406-.651.832-1.033 1.193a3.6 3.6 0 0 1-1.329.819 3.2 3.2 0 0 1-1.796.038c-.402-.103-.793-.282-1.042-.606-.25-.326-.331-.763-.36-1.193-.051-.759.04-1.535.122-2.306.069-.64.132-1.281.158-1.92a19.4 19.4 0 0 0-.187-3.447c-.026-.19-.055-.38-.039-.575a.93.93 0 0 1 .218-.549.9.9 0 0 1 .478-.262c.176-.04.354-.043.531-.047.416-.011.834-.036 1.244 0 .259.024.512.07.77.096.431.041.878.02 1.31-.108.465-.136.909-.392 1.382-.462.194-.03.388-.026.577 0 .192.027.384.08.532.198.112.09.194.212.259.343.096.195.154.41.188.631.03.196.041.397.091.586.083.311.27.576.496.79.226.216.49.386.753.554.263.167.527.332.807.47.132.065.267.123.393.197s.243.166.326.287a.8.8 0 0 1 .125.589"/>
    </g>
    <path fill="url(#l)" d="M189.984 38.303c-.388.461-.927.766-1.464 1.04-.915.466-1.863.876-2.723 1.438a11 11 0 0 0-1.606 1.295c-.425.407-.829.842-1.306 1.187a3.75 3.75 0 0 1-1.625.688c-.714.108-1.452-.031-2.114-.32-.464-.203-.91-.492-1.178-.922-.268-.432-.329-.961-.33-1.47-.001-.9.166-1.79.322-2.676a33 33 0 0 0 .335-2.218c.145-1.352.144-2.717.047-4.073-.016-.228-.035-.457-.001-.682s.126-.45.298-.598a.97.97 0 0 1 .583-.21c.21-.012.419.022.627.052.49.072.983.128 1.462.255.302.079.596.186.898.268.503.136 1.03.201 1.548.14.557-.065 1.098-.274 1.659-.26.23.005.459.048.678.118.224.07.445.172.61.34.125.127.212.288.278.454.097.248.15.512.172.777.02.235.017.473.061.705.074.381.274.729.522 1.027.249.298.546.55.842.8s.593.497.912.715c.15.103.304.199.446.312s.273.243.362.402c.12.214.157.475.079.722a2.1 2.1 0 0 1-.394.694"/>
    <g filter="url(#m)">
      <path fill="#CD8907" d="M189.94 37.134a2.3 2.3 0 0 1-.38.63c-.355.417-.847.69-1.336.935-.836.42-1.701.787-2.487 1.293a10.3 10.3 0 0 0-1.467 1.164c-.389.366-.758.758-1.192 1.068-.441.314-.949.54-1.484.619-.652.096-1.325-.029-1.931-.289-.423-.18-.831-.44-1.075-.829-.244-.387-.301-.863-.302-1.32-.002-.81.151-1.61.294-2.407.12-.661.233-1.325.305-1.993.132-1.216.126-2.443.044-3.663-.014-.204-.03-.41.001-.613.032-.202.115-.404.27-.538a.9.9 0 0 1 .532-.19c.192-.01.383.021.573.049.447.066.898.115 1.335.229.276.07.545.167.82.24.46.123.941.182 1.413.127.509-.059 1.004-.247 1.516-.235.21.005.418.045.619.107.204.063.407.153.557.305.113.115.191.26.254.409.092.221.152.459.157.699.005.25-.049.502-.016.75.028.203.113.393.222.565s.242.327.373.483c.254.3.509.606.827.837.363.263.793.416 1.168.662.111.073.219.155.298.263.133.182.168.43.092.643"/>
    </g>
    <g filter="url(#n)">
      <path fill="#F5C021" d="M189.888 36.876a2.8 2.8 0 0 1-.391.637c-.364.443-.855.748-1.373.943-.852.323-1.782.366-2.618.733-.51.224-.969.561-1.433.88-.376.257-.759.505-1.172.685-.465.203-.961.318-1.457.397a4.5 4.5 0 0 1-.956.071 2.06 2.06 0 0 1-.921-.256 1.3 1.3 0 0 1-.52-.532c-.126-.257-.148-.558-.145-.848.007-.775.173-1.541.168-2.316-.004-.675-.138-1.34-.176-2.014-.074-1.294.203-2.611-.041-3.881-.039-.204-.091-.407-.089-.614a.9.9 0 0 1 .053-.305.5.5 0 0 1 .397-.34.7.7 0 0 1 .242.002c.161.024.313.088.469.134.447.133.918.13 1.372.23.285.064.561.167.842.244.474.13.967.185 1.452.128.522-.06 1.033-.25 1.557-.237.216.006.429.046.637.108.207.061.415.15.572.308.113.115.194.261.26.413.097.22.164.461.162.705-.001.128-.02.254-.031.38-.012.127-.015.256.015.38.03.123.094.234.166.335s.155.194.23.292c.209.277.359.6.523.911s.347.62.605.843c.352.305.808.427 1.199.668.115.07.226.154.307.267a.74.74 0 0 1 .095.649"/>
    </g>
    <g filter="url(#o)">
      <path fill="url(#p)" d="M178.765 31.2c.484-.131.897.236 1.248.514.227.194.555.145.833.154.462-.016.921.078 1.382.02.909-.076 1.799-.3 2.712-.339.436-.027.926-.052 1.303.203.152.106.376.554.527.385-.062-.47-.411-.926-.878-1.051-.366-.058-.738.043-1.107.01-1.098-.026-2.188-.23-3.288-.172-.765.007-1.53-.029-2.294-.058-.3-.062-.406.205-.569.308"/>
    </g>
    <path fill="url(#q)" d="M159.583 30.071a1.35 1.35 0 0 1 .755-.07c.251.047.489.156.701.3.423.288.737.707 1.038 1.122a39 39 0 0 1 1.959 2.936c.489.82.938 1.667 1.502 2.437.369.502.785.968 1.156 1.469.37.5.699 1.045.863 1.646a3.3 3.3 0 0 1-.24 2.362 3.1 3.1 0 0 1-1.15 1.235 2.96 2.96 0 0 1-1.628.425c-.905-.034-1.73-.486-2.571-.822-1.712-.683-3.572-.897-5.337-1.429-.542-.163-1.076-.357-1.622-.507-.243-.067-.489-.126-.718-.23-.23-.104-.444-.259-.571-.476a1.07 1.07 0 0 1-.138-.56c.003-.196.048-.388.115-.571.132-.366.346-.698.49-1.06.236-.59.279-1.242.247-1.877-.032-.636-.135-1.266-.178-1.9-.02-.284-.027-.57.027-.85.054-.279.174-.551.378-.748.189-.182.439-.29.695-.343a3.4 3.4 0 0 1 .781-.05c.261.006.523.02.784-.002s.523-.08.75-.21c.215-.123.392-.307.538-.508.147-.202.265-.422.386-.64a4 4 0 0 1 .405-.625c.159-.192.354-.359.583-.454"/>
    <g filter="url(#r)">
      <path fill="#D99A03" d="M159.959 30.48a1.15 1.15 0 0 1 .684-.046 1.6 1.6 0 0 1 .619.303c.366.284.621.684.866 1.077.587.952 1.16 1.915 1.702 2.897.411.74.802 1.495 1.307 2.174.335.45.717.863 1.058 1.308s.647.93.798 1.471a2.9 2.9 0 0 1-.221 2.108c-.243.46-.614.85-1.063 1.112a2.73 2.73 0 0 1-1.491.368c-.828-.038-1.584-.452-2.363-.733-1.494-.543-3.113-.615-4.645-1.04-.55-.149-1.085-.348-1.637-.487-.244-.062-.493-.112-.725-.21s-.45-.25-.576-.469a1 1 0 0 1-.125-.54 1.7 1.7 0 0 1 .119-.548c.134-.35.344-.668.478-1.018.204-.529.229-1.11.191-1.677-.038-.566-.136-1.127-.17-1.693a3 3 0 0 1 .033-.757c.051-.249.159-.49.339-.669.196-.193.465-.3.736-.34.272-.042.548-.024.822 0 .273.025.548.056.822.04.274-.017.552-.084.779-.239a1.56 1.56 0 0 0 .48-.562c.118-.219.202-.453.292-.684a3.3 3.3 0 0 1 .328-.668c.142-.205.331-.385.563-.479"/>
    </g>
    <g filter="url(#s)">
      <path fill="#F5BD0C" d="M159.758 29.941a1.06 1.06 0 0 1 .682-.078c.229.047.441.159.621.305.36.292.588.709.801 1.117.489.939.944 1.898 1.529 2.782.424.641.913 1.238 1.342 1.877.582.865 1.055 1.816 1.251 2.836.131.686.127 1.426-.203 2.044-.217.407-.569.74-.985.95a2.55 2.55 0 0 1-1.359.251c-.733-.064-1.398-.425-2.087-.676-1.224-.447-2.546-.554-3.805-.89-.532-.142-1.052-.325-1.59-.438-.238-.05-.48-.086-.706-.171-.227-.086-.442-.228-.558-.438a.9.9 0 0 1-.096-.488c.012-.168.062-.331.127-.486.132-.31.326-.595.428-.916.15-.471.088-.982-.024-1.464-.113-.481-.275-.954-.325-1.445a2 2 0 0 1 .028-.657c.05-.214.152-.42.312-.574.206-.198.495-.297.781-.324s.576.01.861.05c.285.042.572.087.86.074.287-.014.58-.09.806-.266.223-.174.363-.434.443-.703s.107-.55.14-.828c.033-.279.074-.56.182-.819.107-.26.29-.498.544-.625"/>
    </g>
    <g filter="url(#t)">
      <path fill="url(#u)" d="M162.368 32.284c.385.698.62 1.499 1.003 2.203.351.647.751 1.314 1.108 1.911.159.266.53.674.905 1.308.34.575.683 1.377.875 1.646-.11-.315-.337-1.161-.607-1.765-.253-.564-.548-.886-.729-1.189-.357-.597-.742-1.134-1.109-1.703-.506-.785-.892-1.663-1.446-2.41Z"/>
    </g>
    <g filter="url(#v)" opacity=".35">
      <path fill="url(#w)" d="M185.296 32.236a.8.8 0 0 0-.404-.355 1.4 1.4 0 0 0-.537-.092c-.366.003-.73.098-1.094.066-.308-.026-.601-.142-.901-.215-.31-.076-.639-.105-.947-.021-.329.09-.619.31-.801.599a1.9 1.9 0 0 0-.26.855c-.024.3.001.602.032.902.022.217.046.434.099.646.052.211.133.418.261.594.183.254.456.435.749.544a2.08 2.08 0 0 0 1.498-.026 4.13 4.13 0 0 0 1.977-1.821c.154-.288.275-.595.352-.913.031-.126.055-.255.056-.385a.8.8 0 0 0-.08-.378"/>
    </g>
    <g filter="url(#x)" opacity=".35">
      <path fill="url(#y)" d="M185.296 31.77c-.084-.119-.235-.207-.404-.258a1.8 1.8 0 0 0-.537-.066c-.366.002-.73.07-1.094.048-.308-.02-.601-.103-.901-.156a2.6 2.6 0 0 0-.947-.015c-.329.064-.619.224-.801.433-.16.184-.237.401-.26.618-.024.218.001.436.032.652.022.157.046.314.099.467.052.153.133.302.261.43.183.183.456.314.749.393a2.83 2.83 0 0 0 1.498-.019c.837-.263 1.545-.735 1.977-1.316a2.4 2.4 0 0 0 .352-.66.9.9 0 0 0 .056-.279.46.46 0 0 0-.08-.273"/>
    </g>
    <path fill="#020204" d="M185.991 30.71a1.1 1.1 0 0 0-.294-.425 1.6 1.6 0 0 0-.441-.274c-.32-.136-.668-.187-1.01-.252-.322-.06-.642-.134-.965-.189-.336-.057-.683-.093-1.015-.018-.291.065-.56.216-.78.417a2.2 2.2 0 0 0-.515.724c-.218.478-.286 1.017-.245 1.54.031.39.13.792.386 1.087.207.239.501.388.803.477.522.155 1.09.147 1.606-.023a4.23 4.23 0 0 0 2.119-1.596c.168-.244.312-.51.378-.8.049-.22.051-.456-.027-.668"/>
    <path fill="url(#z)" d="M167.96 6.578a1.15 1.15 0 0 0-.708.316 1.6 1.6 0 0 0-.412.667c-.167.5-.129 1.044-.091 1.57.034.478.069.964.248 1.408.089.222.214.43.381.601s.377.303.609.361c.217.055.449.043.663-.024a1.44 1.44 0 0 0 .569-.346c.233-.229.39-.528.481-.843a3.3 3.3 0 0 0 .111-.971 4 4 0 0 0-.187-1.209 2.7 2.7 0 0 0-.617-1.05 1.8 1.8 0 0 0-.473-.354 1.2 1.2 0 0 0-.574-.126"/>
    <path fill="#020204" d="M167.325 8.762c-.055.333-.057.682.057.999.076.21.2.4.351.563.099.106.211.204.342.267s.284.09.425.054a.63.63 0 0 0 .328-.222c.084-.105.14-.23.18-.358a2 2 0 0 0-.018-1.174c-.085-.276-.227-.543-.447-.73a.9.9 0 0 0-.363-.19.63.63 0 0 0-.405.033.7.7 0 0 0-.318.32 1.5 1.5 0 0 0-.132.438"/>
    <g filter="url(#A)">
      <path fill="url(#B)" d="M168.028 8.522c.035.094.156.128.221.204.065.074.132.15.167.24.067.175-.067.433.074.556.044.039.132.04.175 0 .17-.154.132-.466.065-.685a.83.83 0 0 0-.396-.482c-.086-.044-.215-.08-.288-.018-.047.04-.04.128-.018.185"/>
    </g>
    <g filter="url(#C)">
      <path fill="url(#D)" d="M169.044 6.284a3.5 3.5 0 0 1 .832 1.23c-.082-.5-.211-.903-.536-1.23a2.5 2.5 0 0 0-.684-.467 1.8 1.8 0 0 0-.618-.167c-.143-.003-.178 0-.207.002-.03.001-.053.002.04.013s.301.067.524.167c.222.1.449.265.649.452"/>
    </g>
    <path fill="url(#E)" d="M172.621 6.578c-.412.283-.756.678-.925 1.148-.212.592-.131 1.255.074 1.85.21.61.561 1.191 1.091 1.557.265.183.572.309.892.347s.652-.014.938-.164c.347-.181.613-.499.778-.856.164-.356.234-.75.257-1.143a3.9 3.9 0 0 0-.185-1.48c-.179-.514-.502-.988-.957-1.284a1.9 1.9 0 0 0-.756-.286 1.6 1.6 0 0 0-.801.089 2 2 0 0 0-.406.222"/>
    <path fill="#020204" d="M173.567 7.821a.95.95 0 0 0-.436.147 1.2 1.2 0 0 0-.331.323c-.176.255-.253.57-.265.88-.009.232.016.468.093.688s.208.423.387.572a1.095 1.095 0 0 0 1.328.061c.156-.108.282-.258.371-.425.089-.168.143-.353.168-.542a1.7 1.7 0 0 0-.159-.978 1.37 1.37 0 0 0-.729-.66 1 1 0 0 0-.427-.066"/>
    <g filter="url(#F)">
      <path fill="#141413" d="M173.937 8.836c-.128.05-.331.019-.387.145-.033.074.014.197.089.228.153.062.389-.05.451-.204.027-.066-.014-.172-.08-.2-.024-.01-.049.021-.073.031"/>
    </g>
    <g filter="url(#G)">
      <path fill="url(#H)" d="M174.523 9.169c.172-.172-.122-.628-.351-.814-.166-.136-.649-.277-.628-.13s.238.336.384.48c.179.176.514.546.595.464"/>
    </g>
    <g filter="url(#I)">
      <path fill="url(#J)" d="M174.047 5.358a1.5 1.5 0 0 0-.185.292c.317.068.621.199.892.379.524.349.922.858 1.201 1.425q.099-.107.176-.236c-.281-.59-.687-1.124-1.229-1.485a2.6 2.6 0 0 0-.855-.375"/>
    </g>
    <path fill="url(#K)" d="M169.198 10.057c.261-.294.44-.653.691-.956.125-.151.27-.29.441-.387a1 1 0 0 1 .564-.137 1 1 0 0 1 .582.277c.159.15.277.34.372.537.09.19.162.391.293.555.139.176.334.296.51.433.088.07.172.144.242.231a.7.7 0 0 1 .147.299.63.63 0 0 1-.028.336.75.75 0 0 1-.186.282 1.1 1.1 0 0 1-.611.274c-.45.064-.904-.07-1.358-.058-.46.013-.908.175-1.368.159a1.2 1.2 0 0 1-.651-.196.8.8 0 0 1-.236-.248.7.7 0 0 1-.099-.327.75.75 0 0 1 .065-.32c.044-.1.106-.193.175-.278.139-.17.309-.311.455-.476"/>
    <path fill="url(#L)" d="M166.705 12.896a.4.4 0 0 0 .049.125.55.55 0 0 0 .158.164c.062.046.129.083.194.124.345.217.626.523.876.845.335.433.632.913 1.08 1.228.316.222.694.348 1.078.387.451.045.908-.028 1.343-.156a4.7 4.7 0 0 0 1.15-.506c.68-.42 1.248-1.036 1.998-1.312.164-.06.334-.103.492-.178.158-.074.306-.185.382-.343.072-.151.069-.326.093-.492.025-.178.082-.35.113-.527s.034-.366-.042-.529a.7.7 0 0 0-.31-.308 1.1 1.1 0 0 0-.43-.106c-.296-.014-.589.062-.885.089-.392.036-.786-.015-1.18-.003-.489.014-.971.125-1.46.149-.557.027-1.114-.06-1.672-.082a3.5 3.5 0 0 0-.723.033 1.7 1.7 0 0 0-.671.26c-.194.134-.349.317-.527.471a1.3 1.3 0 0 1-.29.2.75.75 0 0 1-.341.081c-.061-.001-.123-.011-.181.007a.24.24 0 0 0-.095.06.6.6 0 0 0-.07.089q-.075.11-.129.23"/>
    <g filter="url(#M)">
      <path fill="#D9B30D" d="M168.894 13.499a1 1 0 0 0 .095.706 1 1 0 0 0 .548.456c.292.097.622.05.895-.093a1 1 0 0 0 .395-.354.7.7 0 0 0 .089-.25.55.55 0 0 0-.027-.265.6.6 0 0 0-.17-.236.8.8 0 0 0-.256-.14 1.6 1.6 0 0 0-.582-.054 6 6 0 0 0-.882.112"/>
    </g>
    <g filter="url(#N)">
      <path fill="#604405" d="M167.933 11.66a9 9 0 0 0-.576.38c-.097.069-.197.143-.249.25a.6.6 0 0 0-.045.248c-.001.085.004.17-.007.253-.008.057-.023.114-.026.171a.3.3 0 0 0 .009.086.2.2 0 0 0 .04.075.2.2 0 0 0 .096.055q.054.015.109.025c.174.041.325.148.458.267.132.12.251.254.39.367.375.306.871.432 1.354.44s.962-.093 1.434-.2c.37-.083.741-.17 1.098-.302a4.8 4.8 0 0 0 1.496-.892c.199-.174.387-.365.611-.506.198-.124.42-.207.622-.326a.4.4 0 0 0 .052-.035.2.2 0 0 0 .04-.048.14.14 0 0 0 .005-.106.3.3 0 0 0-.053-.094 1 1 0 0 0-.084-.085c-.211-.18-.496-.247-.773-.268-.276-.022-.556-.007-.829-.053-.257-.043-.502-.139-.75-.218a5.27 5.27 0 0 0-2.716-.147 5.6 5.6 0 0 0-1.706.663"/>
    </g>
    <path fill="url(#O)" d="M167.871 10.99a3.5 3.5 0 0 0-.759.693 1.7 1.7 0 0 0-.3.506c-.049.146-.066.302-.097.454-.011.056-.025.114-.025.172a.3.3 0 0 0 .013.085.2.2 0 0 0 .043.075c.034.035.08.053.127.063s.096.011.143.017c.215.024.413.129.592.252.178.123.342.265.525.381.404.256.887.37 1.365.389.477.018.954-.054 1.423-.148a6.4 6.4 0 0 0 1.098-.303c.542-.214 1.03-.543 1.496-.892.212-.158.421-.321.611-.505.065-.063.127-.128.197-.185a.7.7 0 0 1 .231-.134.86.86 0 0 1 .406-.007c.102.017.204.04.307.035a.5.5 0 0 0 .151-.03.3.3 0 0 0 .124-.089.3.3 0 0 0 .066-.188.4.4 0 0 0-.055-.193.67.67 0 0 0-.311-.251c-.17-.076-.353-.113-.534-.157a7.7 7.7 0 0 1-1.602-.585c-.253-.126-.5-.266-.75-.4a4.4 4.4 0 0 0-.796-.355c-.623-.189-1.304-.127-1.919.087a4.1 4.1 0 0 0-1.77 1.213"/>
    <g filter="url(#P)">
      <path fill="#F6DA4A" d="M172.247 11.127a.26.26 0 0 0-.133-.087.4.4 0 0 0-.161-.008.75.75 0 0 0-.29.137c-.253.175-.476.39-.671.627-.258.314-.471.677-.542 1.077a.7.7 0 0 0-.012.204.32.32 0 0 0 .083.184.28.28 0 0 0 .159.078q.091.011.178-.02a.9.9 0 0 0 .298-.198c.493-.442.939-.973 1.117-1.61a.7.7 0 0 0 .033-.197.3.3 0 0 0-.059-.187"/>
    </g>
    <g filter="url(#Q)" opacity=".8">
      <path fill="url(#R)" d="M171.067 10.21c.034.11.211.092.313.144.09.046.162.148.263.15.096.004.246-.032.259-.128.016-.126-.168-.207-.287-.253-.152-.06-.348-.09-.491-.01-.032.018-.068.061-.057.097"/>
    </g>
    <g filter="url(#S)" opacity=".8">
      <path fill="url(#T)" d="M169.378 10.147c-.131-.043-.349.19-.278.308.02.033.079.074.119.052.061-.034.111-.153.176-.2.044-.03.034-.143-.017-.16"/>
    </g>
    <g filter="url(#U)">
      <path fill="url(#V)" d="M175.648 11.882a.64.64 0 0 1-.165.37.5.5 0 0 1-.15.114.34.34 0 0 1-.448-.113.55.55 0 0 1-.082-.37.67.67 0 0 1 .165-.37.5.5 0 0 1 .15-.114.4.4 0 0 1 .166-.04q.084 0 .157.04a.4.4 0 0 1 .125.113.5.5 0 0 1 .072.17.6.6 0 0 1 .01.2"/>
    </g>
  </g>
  <defs>
    <filter id="d" width="6.349" height="6.576" x="166.577" y="16.953" color-interpolation-filters="sRGB" filterUnits="userSpaceOnUse">
      <feFlood flood-opacity="0" result="BackgroundImageFix"/>
      <feBlend in="SourceGraphic" in2="BackgroundImageFix" result="shape"/>
      <feGaussianBlur result="effect1_foregroundBlur" stdDeviation=".785"/>
    </filter>
    <filter id="f" width="6.414" height="14.674" x="165.422" y="20.672" color-interpolation-filters="sRGB" filterUnits="userSpaceOnUse">
      <feFlood flood-opacity="0" result="BackgroundImageFix"/>
      <feBlend in="SourceGraphic" in2="BackgroundImageFix" result="shape"/>
      <feGaussianBlur result="effect1_foregroundBlur" stdDeviation="1.446"/>
    </filter>
    <filter id="g" width="3.177" height="3.197" x="163.749" y="15.265" color-interpolation-filters="sRGB" filterUnits="userSpaceOnUse">
      <feFlood flood-opacity="0" result="BackgroundImageFix"/>
      <feBlend in="SourceGraphic" in2="BackgroundImageFix" result="shape"/>
      <feGaussianBlur result="effect1_foregroundBlur" stdDeviation=".64"/>
    </filter>
    <filter id="h" width="10.659" height="10.691" x="175.988" y="17.964" color-interpolation-filters="sRGB" filterUnits="userSpaceOnUse">
      <feFlood flood-opacity="0" result="BackgroundImageFix"/>
      <feBlend in="SourceGraphic" in2="BackgroundImageFix" result="shape"/>
      <feGaussianBlur result="effect1_foregroundBlur" stdDeviation="2.292"/>
    </filter>
    <filter id="i" width="12.628" height="7.695" x="164.892" y="9.956" color-interpolation-filters="sRGB" filterUnits="userSpaceOnUse">
      <feFlood flood-opacity="0" result="BackgroundImageFix"/>
      <feBlend in="SourceGraphic" in2="BackgroundImageFix" result="shape"/>
      <feGaussianBlur result="effect1_foregroundBlur" stdDeviation=".894"/>
    </filter>
    <filter id="j" width="19.514" height="20.464" x="172.424" y="27.904" color-interpolation-filters="sRGB" filterUnits="userSpaceOnUse">
      <feFlood flood-opacity="0" result="BackgroundImageFix"/>
      <feBlend in="SourceGraphic" in2="BackgroundImageFix" result="shape"/>
      <feGaussianBlur result="effect1_foregroundBlur" stdDeviation="2.239"/>
    </filter>
    <filter id="m" width="30.809" height="30.991" x="168.729" y="21.442" color-interpolation-filters="sRGB" filterUnits="userSpaceOnUse">
      <feFlood flood-opacity="0" result="BackgroundImageFix"/>
      <feBlend in="SourceGraphic" in2="BackgroundImageFix" result="shape"/>
      <feGaussianBlur result="effect1_foregroundBlur" stdDeviation="4.779"/>
    </filter>
    <filter id="n" width="26.221" height="26.18" x="171.234" y="22.577" color-interpolation-filters="sRGB" filterUnits="userSpaceOnUse">
      <feFlood flood-opacity="0" result="BackgroundImageFix"/>
      <feBlend in="SourceGraphic" in2="BackgroundImageFix" result="shape"/>
      <feGaussianBlur result="effect1_foregroundBlur" stdDeviation="3.765"/>
    </filter>
    <filter id="o" width="10.054" height="3.236" x="177.675" y="29.898" color-interpolation-filters="sRGB" filterUnits="userSpaceOnUse">
      <feFlood flood-opacity="0" result="BackgroundImageFix"/>
      <feBlend in="SourceGraphic" in2="BackgroundImageFix" result="shape"/>
      <feGaussianBlur result="effect1_foregroundBlur" stdDeviation=".479"/>
    </filter>
    <filter id="r" width="28.646" height="28.547" x="146.299" y="22.555" color-interpolation-filters="sRGB" filterUnits="userSpaceOnUse">
      <feFlood flood-opacity="0" result="BackgroundImageFix"/>
      <feBlend in="SourceGraphic" in2="BackgroundImageFix" result="shape"/>
      <feGaussianBlur result="effect1_foregroundBlur" stdDeviation="3.924"/>
    </filter>
    <filter id="s" width="21.131" height="21.854" x="149.763" y="25.01" color-interpolation-filters="sRGB" filterUnits="userSpaceOnUse">
      <feFlood flood-opacity="0" result="BackgroundImageFix"/>
      <feBlend in="SourceGraphic" in2="BackgroundImageFix" result="shape"/>
      <feGaussianBlur result="effect1_foregroundBlur" stdDeviation="2.415"/>
    </filter>
    <filter id="t" width="5.372" height="8.549" x="161.627" y="31.544" color-interpolation-filters="sRGB" filterUnits="userSpaceOnUse">
      <feFlood flood-opacity="0" result="BackgroundImageFix"/>
      <feBlend in="SourceGraphic" in2="BackgroundImageFix" result="shape"/>
      <feGaussianBlur result="effect1_foregroundBlur" stdDeviation=".37"/>
    </filter>
    <filter id="v" width="16.412" height="15.696" x="174.653" y="25.879" color-interpolation-filters="sRGB" filterUnits="userSpaceOnUse">
      <feFlood flood-opacity="0" result="BackgroundImageFix"/>
      <feBlend in="SourceGraphic" in2="BackgroundImageFix" result="shape"/>
      <feGaussianBlur result="effect1_foregroundBlur" stdDeviation="2.844"/>
    </filter>
    <filter id="x" width="9.444" height="7.532" x="178.137" y="29.081" color-interpolation-filters="sRGB" filterUnits="userSpaceOnUse">
      <feFlood flood-opacity="0" result="BackgroundImageFix"/>
      <feBlend in="SourceGraphic" in2="BackgroundImageFix" result="shape"/>
      <feGaussianBlur result="effect1_foregroundBlur" stdDeviation="1.103"/>
    </filter>
    <filter id="A" width="2.826" height="3.298" x="166.986" y="7.279" color-interpolation-filters="sRGB" filterUnits="userSpaceOnUse">
      <feFlood flood-opacity="0" result="BackgroundImageFix"/>
      <feBlend in="SourceGraphic" in2="BackgroundImageFix" result="shape"/>
      <feGaussianBlur result="effect1_foregroundBlur" stdDeviation=".513"/>
    </filter>
    <filter id="C" width="2.61" height="2.405" x="167.535" y="5.379" color-interpolation-filters="sRGB" filterUnits="userSpaceOnUse">
      <feFlood flood-opacity="0" result="BackgroundImageFix"/>
      <feBlend in="SourceGraphic" in2="BackgroundImageFix" result="shape"/>
      <feGaussianBlur result="effect1_foregroundBlur" stdDeviation=".135"/>
    </filter>
    <filter id="F" width="1.555" height="1.418" x="173.041" y="8.306" color-interpolation-filters="sRGB" filterUnits="userSpaceOnUse">
      <feFlood flood-opacity="0" result="BackgroundImageFix"/>
      <feBlend in="SourceGraphic" in2="BackgroundImageFix" result="shape"/>
      <feGaussianBlur result="effect1_foregroundBlur" stdDeviation=".249"/>
    </filter>
    <filter id="G" width="3.11" height="3.096" x="172.504" y="7.124" color-interpolation-filters="sRGB" filterUnits="userSpaceOnUse">
      <feFlood flood-opacity="0" result="BackgroundImageFix"/>
      <feBlend in="SourceGraphic" in2="BackgroundImageFix" result="shape"/>
      <feGaussianBlur result="effect1_foregroundBlur" stdDeviation=".519"/>
    </filter>
    <filter id="I" width="2.859" height="2.686" x="173.567" y="5.063" color-interpolation-filters="sRGB" filterUnits="userSpaceOnUse">
      <feFlood flood-opacity="0" result="BackgroundImageFix"/>
      <feBlend in="SourceGraphic" in2="BackgroundImageFix" result="shape"/>
      <feGaussianBlur result="effect1_foregroundBlur" stdDeviation=".147"/>
    </filter>
    <filter id="M" width="5.648" height="5.041" x="167.07" y="11.468" color-interpolation-filters="sRGB" filterUnits="userSpaceOnUse">
      <feFlood flood-opacity="0" result="BackgroundImageFix"/>
      <feBlend in="SourceGraphic" in2="BackgroundImageFix" result="shape"/>
      <feGaussianBlur result="effect1_foregroundBlur" stdDeviation=".899"/>
    </filter>
    <filter id="N" width="10.854" height="6.427" x="165.514" y="9.367" color-interpolation-filters="sRGB" filterUnits="userSpaceOnUse">
      <feFlood flood-opacity="0" result="BackgroundImageFix"/>
      <feBlend in="SourceGraphic" in2="BackgroundImageFix" result="shape"/>
      <feGaussianBlur result="effect1_foregroundBlur" stdDeviation=".758"/>
    </filter>
    <filter id="P" width="5.266" height="5.711" x="168.737" y="9.329" color-interpolation-filters="sRGB" filterUnits="userSpaceOnUse">
      <feFlood flood-opacity="0" result="BackgroundImageFix"/>
      <feBlend in="SourceGraphic" in2="BackgroundImageFix" result="shape"/>
      <feGaussianBlur result="effect1_foregroundBlur" stdDeviation=".849"/>
    </filter>
    <filter id="Q" width="1.279" height=".882" x="170.844" y="9.844" color-interpolation-filters="sRGB" filterUnits="userSpaceOnUse">
      <feFlood flood-opacity="0" result="BackgroundImageFix"/>
      <feBlend in="SourceGraphic" in2="BackgroundImageFix" result="shape"/>
      <feGaussianBlur result="effect1_foregroundBlur" stdDeviation=".11"/>
    </filter>
    <filter id="S" width=".778" height=".813" x="168.866" y="9.921" color-interpolation-filters="sRGB" filterUnits="userSpaceOnUse">
      <feFlood flood-opacity="0" result="BackgroundImageFix"/>
      <feBlend in="SourceGraphic" in2="BackgroundImageFix" result="shape"/>
      <feGaussianBlur result="effect1_foregroundBlur" stdDeviation=".11"/>
    </filter>
    <filter id="U" width="2.22" height="2.413" x="174.116" y="10.676" color-interpolation-filters="sRGB" filterUnits="userSpaceOnUse">
      <feFlood flood-opacity="0" result="BackgroundImageFix"/>
      <feBlend in="SourceGraphic" in2="BackgroundImageFix" result="shape"/>
      <feGaussianBlur result="effect1_foregroundBlur" stdDeviation=".342"/>
    </filter>
    <linearGradient id="k" x1="178.679" x2="179.213" y1="36.42" y2="40.508" gradientUnits="userSpaceOnUse">
      <stop/>
      <stop offset="1" stop-opacity="0"/>
    </linearGradient>
    <linearGradient id="l" x1="179.463" x2="186.588" y1="43.475" y2="31.941" gradientUnits="userSpaceOnUse">
      <stop stop-color="#3E2A06"/>
      <stop offset="1" stop-color="#AD780A"/>
    </linearGradient>
    <linearGradient id="p" x1="181.404" x2="181.195" y1="31.043" y2="32.927" gradientUnits="userSpaceOnUse">
      <stop stop-color="#F3CD0C"/>
      <stop offset="1" stop-color="#F3CD0C" stop-opacity="0"/>
    </linearGradient>
    <linearGradient id="q" x1="157.448" x2="164.52" y1="33.11" y2="44.958" gradientUnits="userSpaceOnUse">
      <stop stop-color="#B98309"/>
      <stop offset="1" stop-color="#382605"/>
    </linearGradient>
    <linearGradient id="u" x1="164.532" x2="166.758" y1="36.172" y2="40.357" gradientUnits="userSpaceOnUse">
      <stop stop-color="#EBC40C"/>
      <stop offset="1" stop-color="#EBC40C" stop-opacity="0"/>
    </linearGradient>
    <linearGradient id="B" x1="167.933" x2="168.798" y1="8.015" y2="9.559" gradientUnits="userSpaceOnUse">
      <stop stop-color="#757574" stop-opacity="0"/>
      <stop offset=".263" stop-color="#757574"/>
      <stop offset=".5" stop-color="#757574"/>
      <stop offset="1" stop-color="#757574" stop-opacity="0"/>
    </linearGradient>
    <linearGradient id="D" x1="167.812" x2="169.796" y1="5.587" y2="7.495" gradientUnits="userSpaceOnUse">
      <stop stop-color="#646464" stop-opacity="0"/>
      <stop offset=".306" stop-color="#646464" stop-opacity=".583"/>
      <stop offset=".47" stop-color="#646464"/>
      <stop offset=".728" stop-color="#646464" stop-opacity=".257"/>
      <stop offset="1" stop-color="#646464" stop-opacity="0"/>
    </linearGradient>
    <linearGradient id="H" x1="173.694" x2="174.689" y1="8.119" y2="9.295" gradientUnits="userSpaceOnUse">
      <stop stop-color="#949494" stop-opacity=".392"/>
      <stop offset=".5" stop-color="#949494"/>
      <stop offset="1" stop-color="#949494" stop-opacity=".392"/>
    </linearGradient>
    <linearGradient id="J" x1="173.914" x2="176.021" y1="5.423" y2="7.409" gradientUnits="userSpaceOnUse">
      <stop stop-color="#646464" stop-opacity="0"/>
      <stop offset=".306" stop-color="#646464" stop-opacity=".583"/>
      <stop offset=".47" stop-color="#646464"/>
      <stop offset=".728" stop-color="#646464" stop-opacity=".257"/>
      <stop offset="1" stop-color="#646464" stop-opacity="0"/>
    </linearGradient>
    <linearGradient id="O" x1="166.869" x2="175.22" y1="11.902" y2="11.836" gradientUnits="userSpaceOnUse">
      <stop stop-color="#AD780A"/>
      <stop offset=".12" stop-color="#D89E08"/>
      <stop offset=".255" stop-color="#EDB80B"/>
      <stop offset=".392" stop-color="#EBC80D"/>
      <stop offset=".527" stop-color="#F5D838"/>
      <stop offset=".769" stop-color="#F6D811"/>
      <stop offset="1" stop-color="#F5CD31"/>
    </linearGradient>
    <linearGradient id="V" x1="175.214" x2="175.342" y1="11.598" y2="12.189" gradientUnits="userSpaceOnUse">
      <stop stop-color="#F5CE2D"/>
      <stop offset="1" stop-color="#D79B08"/>
    </linearGradient>
    <radialGradient id="e" cx="0" cy="0" r="1" gradientTransform="matrix(1.60358 0 0 1.71711 169.634 21.903)" gradientUnits="userSpaceOnUse">
      <stop/>
      <stop offset="1" stop-opacity=".249"/>
    </radialGradient>
    <radialGradient id="w" cx="0" cy="0" r="1" gradientTransform="matrix(3.25843 .87437 -.91898 3.4247 182.588 33.425)" gradientUnits="userSpaceOnUse">
      <stop stop-color="#110800"/>
      <stop offset=".591" stop-color="#A65A00" stop-opacity=".8"/>
      <stop offset="1" stop-color="#FF921E" stop-opacity="0"/>
    </radialGradient>
    <radialGradient id="y" cx="0" cy="0" r="1" gradientTransform="matrix(3.25843 .6321 -.49619 2.5578 182.588 32.629)" gradientUnits="userSpaceOnUse">
      <stop stop-color="#110800"/>
      <stop offset=".591" stop-color="#A65A00" stop-opacity=".8"/>
      <stop offset="1" stop-color="#FF921E" stop-opacity="0"/>
    </radialGradient>
    <radialGradient id="z" cx="0" cy="0" r="1" gradientTransform="matrix(1.75653 -.07404 .11341 2.69077 168.31 8.834)" gradientUnits="userSpaceOnUse">
      <stop stop-color="#FEFEFC"/>
      <stop offset=".757" stop-color="#FEFEFC"/>
      <stop offset="1" stop-color="#D4D4D4"/>
    </radialGradient>
    <radialGradient id="E" cx="0" cy="0" r="1" gradientTransform="matrix(2.33944 -.07404 .08522 2.69285 173.726 8.834)" gradientUnits="userSpaceOnUse">
      <stop stop-color="#FEFEFC"/>
      <stop offset=".757" stop-color="#FEFEFC"/>
      <stop offset="1" stop-color="#D4D4D4"/>
    </radialGradient>
    <radialGradient id="K" cx="0" cy="0" r="1" gradientTransform="matrix(1.58716 -1.15518 1.04899 1.44125 170.222 10.33)" gradientUnits="userSpaceOnUse">
      <stop stop-color="#020204"/>
      <stop offset=".734" stop-color="#020204"/>
      <stop offset="1" stop-color="#5C5C5C"/>
    </radialGradient>
    <radialGradient id="L" cx="0" cy="0" r="1" gradientTransform="matrix(4.30653 -1.78008 1.25126 3.02715 172.303 12.133)" gradientUnits="userSpaceOnUse">
      <stop stop-color="#D2940A"/>
      <stop offset=".751" stop-color="#D89C08"/>
      <stop offset=".866" stop-color="#B67E07"/>
      <stop offset="1" stop-color="#946106"/>
    </radialGradient>
    <radialGradient id="R" cx="0" cy="0" r="1" gradientTransform="matrix(.4776 0 0 .279 171.425 10.259)" gradientUnits="userSpaceOnUse">
      <stop stop-color="#3A2903"/>
      <stop offset=".555" stop-color="#735208"/>
      <stop offset="1" stop-color="#AC8C04"/>
    </radialGradient>
    <radialGradient id="T" cx="0" cy="0" r="1" gradientTransform="matrix(.22696 0 0 .24437 169.274 10.288)" gradientUnits="userSpaceOnUse">
      <stop stop-color="#3A2903"/>
      <stop offset=".555" stop-color="#735208"/>
      <stop offset="1" stop-color="#AC8C04"/>
    </radialGradient>
    <clipPath id="a">
      <path fill="#fff" d="M.582 1.5h41v41h-41z"/>
    </clipPath>
    <clipPath id="b">
      <path fill="#fff" d="M81.582 6h32v32h-32z"/>
    </clipPath>
    <clipPath id="c">
      <path fill="#fff" d="M153.582 0h36.837v44h-36.837z"/>
    </clipPath>
  </defs>
</svg>
