<svg xmlns="http://www.w3.org/2000/svg" xmlns:xlink="http://www.w3.org/1999/xlink" fill="none" stroke-linecap="square" stroke-miterlimit="10" viewBox="0 0 728.486 225.391">
  <defs>
    <path id="a" d="M0 0h728.486v225.391H0z"/>
  </defs>
  <clipPath id="b">
    <use xlink:href="#a"/>
  </clipPath>
  <g clip-path="url(#b)">
    <use xlink:href="#a"/>
    <path fill="#fff" fill-rule="evenodd" d="M8 72.231a4.8 4.8 0 0 1 4.798-4.798h53.774a4.8 4.8 0 0 1 4.798 4.798v19.191a4.8 4.8 0 0 1-4.798 4.798H12.798A4.8 4.8 0 0 1 8 91.422z"/>
    <path stroke="#000" stroke-linecap="butt" stroke-linejoin="round" d="M8 72.231a4.8 4.8 0 0 1 4.798-4.798h53.774a4.8 4.8 0 0 1 4.798 4.798v19.191a4.8 4.8 0 0 1-4.798 4.798H12.798A4.8 4.8 0 0 1 8 91.422z"/>
    <path fill="#000" d="m26.206 83.564 1.203-.11q.078.72.39 1.188.313.454.953.735.657.281 1.47.281.718 0 1.265-.219.562-.218.828-.578.266-.375.266-.828t-.266-.781q-.25-.328-.844-.563-.39-.156-1.703-.468-1.312-.313-1.844-.594-.672-.36-1.015-.89-.328-.532-.328-1.188 0-.72.406-1.344t1.187-.953q.797-.328 1.766-.328 1.047 0 1.86.343.812.344 1.25 1.016.437.656.468 1.484l-1.203.094q-.11-.906-.672-1.36-.562-.468-1.656-.468-1.14 0-1.672.422-.516.422-.516 1.016 0 .515.36.843.375.328 1.906.688 1.547.344 2.11.594.843.39 1.234.984.39.578.39 1.36 0 .75-.437 1.437-.422.672-1.25 1.047-.813.359-1.828.359-1.297 0-2.172-.375t-1.375-1.125q-.5-.766-.531-1.719m11.733 2.016.172 1.031q-.5.11-.89.11-.641 0-1-.204-.344-.203-.485-.53-.14-.329-.14-1.391v-3.97h-.86v-.905h.86V78l1.171-.702v2.422h1.172v.906h-1.172v4.047q0 .5.047.64.063.14.203.235.14.078.406.078.204 0 .516-.047m5.656.187q-.656.563-1.266.797-.593.219-1.28.219-1.141 0-1.75-.547-.61-.562-.61-1.437 0-.5.219-.922.234-.422.609-.672t.844-.39q.343-.079 1.047-.173 1.421-.171 2.093-.406v-.297q0-.718-.328-1.015-.453-.391-1.344-.391-.812 0-1.218.297-.39.281-.578 1.016l-1.141-.157q.156-.734.516-1.187.359-.453 1.03-.688.673-.25 1.563-.25.891 0 1.438.203.562.204.812.532.266.312.375.797.047.296.047 1.078v1.562q0 1.625.078 2.063.078.437.297.828H43.83q-.187-.36-.234-.86m-.094-2.609q-.64.266-1.922.438-.718.109-1.015.25-.297.125-.469.375-.156.25-.156.546 0 .47.344.782.359.312 1.046.312.672 0 1.204-.297.53-.297.78-.812.188-.39.188-1.172zm2.975 3.469V79.72h1.063v1.046q.406-.734.734-.968.344-.235.766-.235.594 0 1.203.375l-.406 1.078q-.438-.25-.86-.25-.39 0-.703.235-.297.234-.422.64-.203.625-.203 1.36v3.625zm7.017-1.047.172 1.031q-.5.11-.89.11-.642 0-1-.204-.345-.203-.485-.53-.14-.329-.14-1.391v-3.97h-.86v-.905h.86V78l1.171-.702v2.422h1.172v.906H52.32v4.047q0 .5.047.64.062.14.203.235.14.078.406.078.203 0 .516-.047"/>
    <path fill="#fff" fill-rule="evenodd" d="M263.769 67.328a7.25 7.25 0 0 1 7.25-7.25h136.43a7.25 7.25 0 0 1 7.25 7.25v28.997a7.25 7.25 0 0 1-7.25 7.25h-136.43a7.25 7.25 0 0 1-7.25-7.25z"/>
    <path stroke="#000" stroke-linecap="butt" stroke-linejoin="round" d="M263.769 67.328a7.25 7.25 0 0 1 7.25-7.25h136.43a7.25 7.25 0 0 1 7.25 7.25v28.997a7.25 7.25 0 0 1-7.25 7.25h-136.43a7.25 7.25 0 0 1-7.25-7.25z"/>
    <path fill="#000" d="M286.195 74.892v-1.125l4.031-.015v3.547q-.921.75-1.921 1.125-.985.359-2.032.359-1.406 0-2.562-.594-1.14-.61-1.735-1.734-.578-1.14-.578-2.547 0-1.406.578-2.61.594-1.202 1.688-1.78 1.094-.594 2.516-.594 1.03 0 1.859.343.844.329 1.312.938.485.594.735 1.547l-1.14.312q-.22-.718-.532-1.14t-.906-.672-1.313-.25q-.875 0-1.515.265-.625.266-1.016.704-.375.421-.594.937-.36.875-.36 1.922 0 1.266.438 2.125.438.86 1.266 1.281.844.422 1.797.422.812 0 1.594-.312.78-.329 1.187-.688v-1.766zm10.477 1.516 1.203.14q-.281 1.063-1.063 1.657-.765.578-1.968.578-1.516 0-2.407-.937-.89-.938-.89-2.61 0-1.75.89-2.703.907-.969 2.344-.969 1.39 0 2.266.938.875.937.875 2.656v.313h-5.157q.063 1.14.641 1.75.578.593 1.438.593.656 0 1.109-.328.453-.344.719-1.078m-3.844-1.906h3.86q-.079-.86-.438-1.297-.563-.688-1.453-.688-.813 0-1.36.547-.547.532-.61 1.438m6.522 4.125V71.72h1.062v.984q.75-1.14 2.188-1.14.625 0 1.156.218.531.219.781.594.266.36.375.86.063.327.063 1.14v4.25h-1.172v-4.203q0-.72-.14-1.063-.141-.36-.485-.562-.344-.22-.813-.22-.75 0-1.297.47-.546.468-.546 1.797v3.78zm12.147-2.219 1.203.14q-.282 1.063-1.063 1.657-.765.578-1.969.578-1.515 0-2.406-.937-.89-.938-.89-2.61 0-1.75.89-2.703.906-.969 2.344-.969 1.39 0 2.266.938.875.937.875 2.656v.313h-5.157q.063 1.14.641 1.75.578.593 1.437.593.657 0 1.11-.328.453-.344.719-1.078m-3.844-1.906h3.86q-.079-.86-.438-1.297-.563-.688-1.453-.688-.813 0-1.36.547-.547.532-.61 1.438m6.506 4.125V71.72h1.063v1.046q.406-.734.734-.968.344-.235.766-.235.593 0 1.203.375l-.407 1.078q-.437-.25-.859-.25-.39 0-.703.235-.297.234-.422.64-.203.625-.203 1.36v3.625zm8.97-.86q-.657.563-1.266.797-.594.219-1.281.219-1.14 0-1.75-.547-.61-.562-.61-1.437 0-.5.22-.922.234-.422.609-.672t.843-.39q.344-.079 1.047-.173 1.422-.171 2.094-.406v-.297q0-.718-.328-1.015-.453-.391-1.344-.391-.812 0-1.219.297-.39.281-.578 1.016l-1.14-.157q.156-.734.515-1.187.36-.453 1.031-.688.672-.25 1.563-.25t1.437.203q.563.204.813.532.266.312.375.797.047.296.047 1.078v1.562q0 1.625.078 2.063.078.437.297.828h-1.219q-.187-.36-.234-.86m-.094-2.609q-.64.266-1.922.438-.719.109-1.016.25-.296.125-.468.375-.157.25-.157.546 0 .47.344.782.36.312 1.047.312.672 0 1.203-.297t.781-.812q.188-.39.188-1.172zm5.553 2.422.172 1.031q-.5.11-.89.11-.641 0-1-.204-.344-.203-.485-.53-.14-.329-.14-1.391v-3.97h-.86v-.905h.86V70l1.171-.702v2.422h1.172v.906h-1.172v4.047q0 .5.047.64.063.14.203.235.14.078.406.078.204 0 .516-.047m5.875-1.172 1.203.14q-.281 1.063-1.062 1.657-.766.578-1.97.578-1.515 0-2.405-.937-.891-.938-.891-2.61 0-1.75.89-2.703.907-.969 2.344-.969 1.39 0 2.266.938.875.937.875 2.656v.313h-5.156q.062 1.14.64 1.75.578.593 1.438.593.656 0 1.11-.328.452-.344.718-1.078m-3.844-1.906h3.86q-.079-.86-.438-1.297-.562-.688-1.453-.688-.813 0-1.36.547-.546.532-.609 1.438m14.74 1.594 1.157.156q-.188 1.187-.969 1.86-.781.671-1.922.671-1.406 0-2.281-.922-.86-.937-.86-2.656 0-1.125.376-1.969.375-.844 1.125-1.25.765-.422 1.656-.422 1.125 0 1.844.578.718.563.921 1.61l-1.14.172q-.172-.703-.594-1.047-.406-.36-.984-.36-.89 0-1.453.641-.547.64-.547 2 0 1.406.531 2.031.547.625 1.406.625.688 0 1.14-.422.47-.421.595-1.296m6.665 1.671q-.657.563-1.266.797-.594.219-1.281.219-1.14 0-1.75-.547-.61-.562-.61-1.437 0-.5.22-.922.234-.422.609-.672t.843-.39q.344-.079 1.047-.173 1.422-.171 2.094-.406v-.297q0-.718-.328-1.015-.453-.391-1.344-.391-.812 0-1.219.297-.39.281-.578 1.016l-1.14-.157q.156-.734.515-1.187.36-.453 1.031-.688.672-.25 1.563-.25t1.437.203q.563.204.813.532.266.312.375.797.047.296.047 1.078v1.562q0 1.625.078 2.063.078.437.297.828h-1.219q-.187-.36-.234-.86m-.094-2.609q-.64.266-1.922.438-.719.109-1.016.25-.296.125-.468.375-.157.25-.157.546 0 .47.344.782.36.312 1.047.312.672 0 1.203-.297t.781-.812q.188-.39.188-1.172zm2.99 3.469V71.72h1.063v.984q.75-1.14 2.188-1.14.625 0 1.156.218.531.219.781.594.266.36.375.86.063.327.063 1.14v4.25h-1.172v-4.203q0-.72-.141-1.063-.14-.36-.484-.562-.344-.22-.813-.22-.75 0-1.297.47-.547.468-.547 1.797v3.78zm11.897 0v-.875q-.656 1.031-1.937 1.031-.813 0-1.516-.453-.687-.453-1.078-1.266-.375-.828-.375-1.89 0-1.032.344-1.875.344-.844 1.031-1.282.703-.453 1.547-.453.625 0 1.11.266.5.25.796.672V69.08h1.172v9.547zm-3.703-3.453q0 1.328.563 1.984t1.328.656 1.297-.625.531-1.906q0-1.422-.547-2.078-.547-.672-1.344-.672-.78 0-1.312.64-.516.626-.516 2m6.647-4.735v-1.36h1.172v1.36zm0 8.188V71.72h1.172v6.906zm7.43 0v-.875q-.656 1.031-1.938 1.031-.812 0-1.515-.453-.688-.453-1.078-1.266-.375-.828-.375-1.89 0-1.032.343-1.875.344-.844 1.032-1.282.703-.453 1.547-.453.625 0 1.109.266.5.25.797.672v-3.42h1.172v9.547zm-3.703-3.453q0 1.328.562 1.984t1.328.656 1.297-.625.532-1.906q0-1.422-.547-2.078-.547-.672-1.344-.672-.781 0-1.313.64-.515.626-.515 2m11.147 2.593q-.657.563-1.266.797-.594.219-1.281.219-1.14 0-1.75-.547-.61-.562-.61-1.437 0-.5.22-.922.234-.422.609-.672t.843-.39q.344-.079 1.047-.173 1.422-.171 2.094-.406v-.297q0-.718-.328-1.015-.453-.391-1.344-.391-.812 0-1.219.297-.39.281-.578 1.016l-1.14-.157q.156-.734.515-1.187.36-.453 1.031-.688.672-.25 1.563-.25t1.437.203q.563.204.813.532.266.312.375.797.047.296.047 1.078v1.562q0 1.625.078 2.063.078.437.297.828h-1.219q-.187-.36-.234-.86m-.094-2.609q-.64.266-1.922.438-.719.109-1.016.25-.296.125-.468.375-.157.25-.157.546 0 .47.344.782.36.312 1.047.312.672 0 1.203-.297t.781-.812q.188-.39.188-1.172zm5.553 2.422.172 1.031q-.5.11-.89.11-.641 0-1-.204-.344-.203-.485-.53-.14-.329-.14-1.391v-3.97h-.86v-.905h.86V70l1.171-.702v2.422h1.172v.906h-1.172v4.047q0 .5.047.64.063.14.203.235.14.078.406.078.204 0 .516-.047m5.875-1.172 1.203.14q-.281 1.063-1.063 1.657-.765.578-1.968.578-1.516 0-2.407-.937-.89-.938-.89-2.61 0-1.75.89-2.703.907-.969 2.344-.969 1.39 0 2.266.938.875.937.875 2.656v.313h-5.156q.062 1.14.64 1.75.578.593 1.438.593.656 0 1.11-.328.452-.344.718-1.078m-3.844-1.906h3.86q-.079-.86-.438-1.297-.563-.688-1.453-.688-.813 0-1.36.547-.546.532-.609 1.438m-80.536 22.782v-9.562h1.078v.89q.375-.531.844-.781.484-.266 1.156-.266.875 0 1.547.453.687.454 1.031 1.282t.344 1.828q0 1.047-.375 1.906-.375.844-1.11 1.297-.718.453-1.53.453-.579 0-1.048-.25-.468-.25-.765-.625v3.375zm1.062-6.078q0 1.344.532 1.984.546.625 1.312.625.781 0 1.344-.656.562-.656.562-2.047 0-1.312-.547-1.969-.546-.671-1.296-.671t-1.329.703-.578 2.03m10.866 2.562q-.656.563-1.266.797-.593.219-1.28.219-1.142 0-1.75-.547-.61-.562-.61-1.437 0-.5.218-.922.235-.422.61-.672t.844-.39q.343-.079 1.046-.173 1.422-.171 2.094-.406v-.297q0-.718-.328-1.015-.453-.391-1.344-.391-.812 0-1.218.297-.391.281-.579 1.016l-1.14-.157q.156-.734.515-1.187.36-.453 1.032-.688.672-.25 1.562-.25t1.438.203q.562.204.812.532.266.312.375.797.047.296.047 1.078v1.562q0 1.625.078 2.063.078.437.297.828h-1.219q-.187-.36-.234-.86m-.094-2.609q-.64.266-1.922.438-.718.109-1.015.25-.297.125-.47.375-.155.25-.155.546 0 .47.343.782.36.312 1.047.312.672 0 1.203-.297.532-.297.782-.812.187-.39.187-1.172zm2.522 1.406 1.156-.187q.11.703.547 1.078.453.36 1.25.36.813 0 1.203-.329.39-.328.39-.765 0-.391-.358-.625-.235-.157-1.188-.391-1.297-.328-1.797-.563-.484-.25-.75-.656-.25-.422-.25-.937 0-.453.203-.844.219-.406.578-.672.282-.187.75-.328.47-.14 1.016-.14.813 0 1.422.234.61.234.906.64.297.39.406 1.063l-1.14.156q-.078-.531-.453-.828-.375-.313-1.063-.313-.812 0-1.156.266t-.344.625q0 .234.14.422.157.187.454.312.172.063 1.031.297 1.25.328 1.735.547.5.203.78.61.282.406.282 1 0 .593-.344 1.109t-1 .797q-.64.281-1.453.281-1.344 0-2.047-.562t-.906-1.657m6.664 0 1.156-.187q.11.703.547 1.078.453.36 1.25.36.813 0 1.203-.329.391-.328.391-.765 0-.391-.36-.625-.234-.157-1.187-.391-1.297-.328-1.797-.563-.484-.25-.75-.656-.25-.422-.25-.937 0-.453.203-.844.22-.406.578-.672.282-.187.75-.328.47-.14 1.016-.14.813 0 1.422.234.61.234.906.64.297.39.406 1.063l-1.14.156q-.078-.531-.453-.828-.375-.313-1.063-.313-.812 0-1.156.266t-.344.625q0 .234.14.422.157.187.454.312.172.063 1.031.297 1.25.328 1.735.547.5.203.78.61.282.406.282 1 0 .593-.344 1.109t-1 .797q-.64.281-1.453.281-1.344 0-2.047-.562t-.906-1.657m8.414 2.063-2.125-6.906h1.219l1.094 3.984.422 1.484q.015-.11.359-1.422l1.094-4.046h1.203l1.031 4 .344 1.328.406-1.344 1.172-3.984h1.14l-2.156 6.906h-1.218l-1.094-4.14-.266-1.173-1.406 5.313zm7.907-3.453q0-1.922 1.078-2.844.89-.766 2.172-.766 1.421 0 2.328.938.906.922.906 2.578 0 1.328-.406 2.094-.39.765-1.157 1.187-.765.422-1.671.422-1.454 0-2.36-.922-.89-.937-.89-2.687m1.203 0q0 1.328.578 1.984.594.656 1.469.656t1.453-.656q.578-.672.578-2.031 0-1.281-.594-1.938-.578-.656-1.437-.656-.875 0-1.47.656-.577.657-.577 1.985m6.63 3.453V87.72h1.063v1.046q.407-.734.735-.968.344-.235.765-.235.594 0 1.204.375l-.407 1.078q-.437-.25-.86-.25-.39 0-.702.235-.297.234-.422.64-.203.625-.203 1.36v3.625zm8.94 0v-.875q-.657 1.031-1.938 1.031-.813 0-1.516-.453-.687-.453-1.078-1.266-.375-.828-.375-1.89 0-1.032.344-1.875.344-.844 1.031-1.282.703-.453 1.547-.453.625 0 1.11.266.5.25.796.672V85.08h1.172v9.547zm-3.704-3.453q0 1.328.563 1.984t1.328.656 1.297-.625q.53-.625.53-1.906 0-1.422-.546-2.078-.547-.672-1.344-.672-.781 0-1.312.64-.516.626-.516 2"/>
    <path d="M216.404 81.825h47.37"/>
    <path stroke="#000" stroke-linecap="butt" stroke-linejoin="round" d="M216.404 81.825h41.37"/>
    <path fill="#000" fill-rule="evenodd" stroke="#000" stroke-linecap="butt" d="m257.774 83.477 4.538-1.652-4.538-1.651z"/>
    <path d="M414.698 81.827h47.37"/>
    <path stroke="#000" stroke-linecap="butt" stroke-linejoin="round" d="M414.698 81.827h41.37"/>
    <path fill="#000" fill-rule="evenodd" stroke="#000" stroke-linecap="butt" d="m456.068 83.479 4.538-1.652-4.538-1.652z"/>
    <path fill="#fff" fill-rule="evenodd" d="M462.063 81.835 510.898 33l48.834 48.835-48.834 48.834z"/>
    <path stroke="#000" stroke-linecap="butt" stroke-linejoin="round" d="M462.063 81.835 510.898 33l48.834 48.835-48.834 48.834z"/>
    <path fill="#000" d="M488.595 78.635v-9.547h3.594q.953 0 1.453.094.703.125 1.172.453.484.328.765.922.297.593.297 1.296 0 1.22-.781 2.063-.766.844-2.797.844h-2.437v3.875zm1.266-5h2.453q1.234 0 1.75-.453.515-.47.515-1.282 0-.61-.312-1.031-.297-.422-.797-.562-.313-.094-1.172-.094h-2.437zm11.983 4.14q-.656.563-1.266.797-.593.219-1.28.219-1.141 0-1.75-.547-.61-.562-.61-1.437 0-.5.219-.922.234-.422.609-.672t.844-.39q.343-.079 1.047-.173 1.421-.172 2.093-.406v-.297q0-.719-.328-1.015-.453-.391-1.344-.391-.812 0-1.218.297-.391.281-.578 1.015l-1.141-.156q.156-.734.516-1.187.359-.453 1.03-.688.673-.25 1.563-.25t1.438.203q.562.203.812.532.266.312.375.796.047.297.047 1.079v1.562q0 1.625.078 2.063.078.437.297.828h-1.219q-.187-.36-.234-.86m-.094-2.61q-.64.267-1.922.438-.718.11-1.015.25-.297.125-.469.375-.156.25-.156.547 0 .469.344.782.359.312 1.046.312.672 0 1.204-.297.53-.297.78-.812.188-.391.188-1.172zm2.522 1.407 1.156-.187q.11.703.547 1.078.453.36 1.25.36.813 0 1.203-.329.391-.328.391-.766 0-.39-.36-.625-.234-.156-1.187-.39-1.297-.328-1.797-.563-.484-.25-.75-.656-.25-.422-.25-.937 0-.454.203-.844.22-.406.579-.672.28-.188.75-.328.468-.14 1.015-.14.813 0 1.422.234.61.234.906.64.297.39.407 1.063l-1.141.156q-.078-.531-.453-.828-.375-.313-1.063-.313-.812 0-1.156.266t-.344.625q0 .234.14.422.157.187.454.312.172.063 1.031.297 1.25.328 1.735.547.5.203.78.61.282.406.282 1 0 .593-.344 1.109-.343.515-1 .797-.64.28-1.453.28-1.343 0-2.047-.562-.703-.562-.906-1.656m6.664 0 1.156-.187q.11.703.547 1.078.453.36 1.25.36.813 0 1.203-.329.391-.328.391-.766 0-.39-.36-.625-.234-.156-1.187-.39-1.297-.328-1.797-.563-.484-.25-.75-.656-.25-.422-.25-.937 0-.454.203-.844.22-.406.579-.672.28-.188.75-.328.468-.14 1.015-.14.813 0 1.422.234.61.234.906.64.297.39.407 1.063l-1.141.156q-.078-.531-.453-.828-.375-.313-1.063-.313-.812 0-1.156.266t-.344.625q0 .234.14.422.157.187.454.312.172.063 1.031.297 1.25.328 1.735.547.5.203.78.61.282.406.282 1 0 .593-.344 1.109-.343.515-1 .797-.64.28-1.453.28-1.343 0-2.047-.562-.703-.562-.906-1.656m15.352 1.203q-.657.563-1.266.797-.594.219-1.281.219-1.14 0-1.75-.547-.61-.562-.61-1.437 0-.5.22-.922.233-.422.608-.672t.844-.39q.344-.079 1.047-.173 1.422-.172 2.094-.406v-.297q0-.719-.328-1.015-.453-.391-1.344-.391-.813 0-1.219.297-.39.281-.578 1.015l-1.14-.156q.156-.734.515-1.187.36-.453 1.031-.688.672-.25 1.563-.25t1.437.203q.563.203.813.532.265.312.375.796.047.297.047 1.079v1.562q0 1.625.078 2.063.078.437.297.828h-1.219q-.188-.36-.234-.86m-.094-2.61q-.64.267-1.922.438-.719.11-1.016.25-.297.125-.468.375-.157.25-.157.547 0 .469.344.782.36.312 1.047.312.672 0 1.203-.297t.781-.812q.188-.391.188-1.172zm2.975 3.47v-9.547h1.172v9.547zm2.96 0v-9.547h1.173v9.547zm-38.522 16v-6.907h1.062v1.047q.406-.734.734-.968.344-.235.766-.235.594 0 1.203.375l-.406 1.078q-.438-.25-.86-.25-.39 0-.703.235-.296.234-.421.64-.204.625-.204 1.36v3.625zm8.985 0v-1.016q-.813 1.172-2.188 1.172-.61 0-1.14-.234-.532-.235-.797-.579-.25-.359-.36-.875-.062-.343-.062-1.093v-4.282h1.172v3.829q0 .921.062 1.234.11.469.469.734.36.25.89.25.516 0 .985-.265.469-.266.656-.735t.188-1.343v-3.704h1.172v6.907zm2.865 0v-9.547h1.172v9.547zm7.711-2.22 1.204.142q-.282 1.062-1.063 1.656-.766.578-1.969.578-1.515 0-2.406-.938-.89-.937-.89-2.609 0-1.75.89-2.703.906-.969 2.344-.969 1.39 0 2.265.938t.875 2.656v.312h-5.156q.063 1.141.64 1.75.579.594 1.438.594.657 0 1.11-.328.453-.344.718-1.078m-3.843-1.905h3.86q-.079-.86-.438-1.297-.563-.688-1.454-.688-.812 0-1.359.547-.547.531-.61 1.438m6.053 2.062 1.156-.187q.11.703.547 1.078.453.36 1.25.36.812 0 1.203-.329.39-.328.39-.766 0-.39-.359-.625-.234-.156-1.187-.39-1.297-.328-1.797-.563-.484-.25-.75-.656-.25-.422-.25-.937 0-.454.203-.844.219-.406.578-.672.281-.188.75-.328t1.016-.14q.812 0 1.422.234t.906.64q.297.39.406 1.063l-1.14.156q-.079-.531-.454-.828-.375-.313-1.062-.313-.813 0-1.156.266-.344.266-.344.625 0 .234.14.422.157.187.454.312.172.063 1.03.297 1.25.328 1.735.547.5.203.782.61.28.406.28 1 0 .593-.343 1.109-.344.515-1 .797-.64.28-1.453.28-1.344 0-2.047-.562t-.906-1.656m9.336-.281q-.016-.234-.016-.36 0-.687.203-1.187.14-.375.453-.766.235-.28.844-.812.61-.531.781-.844.188-.328.188-.703 0-.687-.531-1.203-.532-.516-1.297-.516-.75 0-1.25.469t-.657 1.453l-1.218-.14q.172-1.329.968-2.032.813-.718 2.125-.718 1.407 0 2.235.765.828.75.828 1.844 0 .625-.297 1.156-.281.516-1.14 1.266-.563.515-.75.765-.172.235-.266.547-.078.313-.078 1.016zm-.078 2.344v-1.328h1.328v1.328z"/>
    <path d="M510.896 8h33.733v18.079h-33.733z"/>
    <path fill="#000" d="M520.26 20.8v-9.547h1.296l5.016 7.5v-7.5h1.203V20.8h-1.297l-5.016-7.5v7.5zm9.046-3.453q0-1.922 1.078-2.844.891-.765 2.172-.765 1.422 0 2.328.937.907.922.907 2.578 0 1.328-.407 2.094-.39.765-1.156 1.187t-1.672.422q-1.453 0-2.359-.922-.89-.937-.89-2.687m1.203 0q0 1.328.579 1.984.593.657 1.468.657t1.453-.657q.579-.672.579-2.031 0-1.281-.594-1.937-.578-.657-1.438-.657-.875 0-1.468.657-.579.656-.579 1.984"/>
    <path fill="#fff" fill-rule="evenodd" d="m118.735 81.825 48.835-48.834 48.834 48.834-48.834 48.835z"/>
    <path stroke="#000" stroke-linecap="butt" stroke-linejoin="round" d="m118.735 81.825 48.835-48.834 48.834 48.834-48.834 48.835z"/>
    <path fill="#000" d="M152.755 78.625v-8.421h-3.14v-1.125h7.562v1.125h-3.156v8.421zm5.084-8.187v-1.36h1.172v1.36zm0 8.187V71.72h1.172v6.906zm2.946 0V71.72h1.047v.969q.328-.516.859-.813.547-.312 1.234-.312.782 0 1.266.312.484.313.687.891.829-1.203 2.141-1.203 1.031 0 1.578.578.563.563.563 1.734v4.75h-1.172v-4.359q0-.703-.125-1-.11-.312-.406-.5-.297-.187-.704-.187-.718 0-1.203.484-.484.484-.484 1.547v4.015h-1.172v-4.484q0-.781-.297-1.172-.281-.39-.922-.39-.5 0-.922.265-.421.25-.609.75-.187.5-.187 1.453v3.578zm15.836-2.218 1.204.14q-.282 1.063-1.063 1.657-.766.578-1.969.578-1.515 0-2.406-.938-.89-.937-.89-2.61 0-1.75.89-2.702.906-.969 2.344-.969 1.39 0 2.265.937t.875 2.657v.312h-5.156q.063 1.14.64 1.75.579.594 1.438.594.657 0 1.11-.328.453-.344.718-1.078m-3.843-1.907h3.86q-.079-.859-.438-1.296-.563-.688-1.454-.688-.812 0-1.359.547-.547.531-.61 1.437m11.006 4.125v-.875q-.656 1.032-1.938 1.032-.812 0-1.515-.453-.688-.454-1.078-1.266-.375-.828-.375-1.89 0-1.032.343-1.876t1.032-1.28q.703-.454 1.547-.454.625 0 1.109.266.5.25.797.671v-3.42h1.172v9.546zm-3.703-3.453q0 1.328.562 1.985.563.656 1.328.656t1.297-.625.532-1.906q0-1.422-.547-2.078-.547-.672-1.344-.672-.781 0-1.313.64-.515.625-.515 2m-26.317 14.813q0-2.375 1.28-3.719 1.282-1.344 3.298-1.344 1.312 0 2.375.625t1.61 1.766q.562 1.125.562 2.562 0 1.438-.594 2.594-.578 1.14-1.656 1.735-1.063.578-2.313.578-1.344 0-2.406-.64-1.063-.657-1.61-1.782-.546-1.125-.546-2.375m1.312.015q0 1.72.922 2.72.922.984 2.328.984 1.422 0 2.344-1t.922-2.844q0-1.156-.406-2.031-.391-.875-1.157-1.344-.75-.485-1.687-.485-1.344 0-2.313.922-.953.922-.953 3.078m13.82 4.625V93.61q-.812 1.172-2.187 1.172-.61 0-1.14-.235-.532-.234-.798-.578-.25-.36-.359-.875-.063-.344-.063-1.094v-4.28h1.172v3.827q0 .922.063 1.235.11.468.469.734.359.25.89.25.516 0 .985-.266.468-.265.656-.734.187-.469.187-1.344V87.72h1.172v6.906zm5.444-1.046.172 1.03q-.5.11-.89.11-.641 0-1-.203-.344-.203-.485-.531-.14-.328-.14-1.39v-3.97h-.86v-.906h.86V86l1.171-.703v2.422h1.172v.906h-1.172v4.047q0 .5.047.641.063.14.203.234.14.078.406.078.204 0 .516-.046m3.344-1.297q-.016-.235-.016-.36 0-.687.203-1.187.14-.375.453-.766.235-.281.844-.812.61-.532.781-.844.188-.328.188-.703 0-.688-.531-1.203-.532-.516-1.297-.516-.75 0-1.25.469t-.657 1.453l-1.218-.14q.172-1.329.968-2.032.813-.719 2.125-.719 1.407 0 2.235.766.828.75.828 1.844 0 .625-.297 1.156-.281.516-1.14 1.266-.563.515-.75.765-.172.235-.266.547-.078.313-.078 1.016zm-.078 2.343v-1.328h1.328v1.328z"/>
    <path d="M71.37 81.827h47.37"/>
    <path stroke="#000" stroke-linecap="butt" stroke-linejoin="round" d="M71.37 81.827h41.37"/>
    <path fill="#000" fill-rule="evenodd" stroke="#000" stroke-linecap="butt" d="m112.74 83.479 4.538-1.652-4.538-1.652z"/>
    <path d="M225.44 63.75h29.292v18.078h-29.291z"/>
    <path fill="#000" d="M232.583 76.55v-9.548h1.297l5.016 7.5v-7.5h1.203v9.547h-1.297l-5.016-7.5v7.5zm9.047-3.454q0-1.922 1.078-2.844.891-.765 2.172-.765 1.422 0 2.328.937.907.922.907 2.578 0 1.329-.407 2.094-.39.766-1.156 1.188t-1.672.422q-1.453 0-2.36-.922-.89-.938-.89-2.688m1.203 0q0 1.328.579 1.985.593.656 1.468.656t1.453-.656q.579-.672.579-2.032 0-1.28-.594-1.937-.578-.656-1.438-.656-.875 0-1.468.656-.579.656-.579 1.984"/>
    <path d="M167.57 130.66v55.055"/>
    <path stroke="#000" stroke-linecap="butt" stroke-linejoin="round" d="M167.57 130.66v49.055"/>
    <path fill="#000" fill-rule="evenodd" stroke="#000" stroke-linecap="butt" d="m165.918 179.715 1.652 4.538 1.651-4.538z"/>
    <path fill="#fff" fill-rule="evenodd" d="M622.034 67.337a7.25 7.25 0 0 1 7.25-7.25h83.17a7.25 7.25 0 0 1 7.25 7.25v28.997a7.25 7.25 0 0 1-7.25 7.25h-83.17a7.25 7.25 0 0 1-7.25-7.25z"/>
    <path stroke="#000" stroke-linecap="butt" stroke-linejoin="round" d="M622.034 67.337a7.25 7.25 0 0 1 7.25-7.25h83.17a7.25 7.25 0 0 1 7.25 7.25v28.997a7.25 7.25 0 0 1-7.25 7.25h-83.17a7.25 7.25 0 0 1-7.25-7.25z"/>
    <path fill="#000" d="M660.067 74.9v-1.124l4.03-.016v3.547q-.921.75-1.921 1.125-.985.36-2.031.36-1.407 0-2.563-.594-1.14-.61-1.734-1.735-.578-1.14-.578-2.546 0-1.407.578-2.61.594-1.203 1.687-1.781 1.094-.594 2.516-.594 1.031 0 1.86.344.843.328 1.312.937.484.594.734 1.547l-1.14.313q-.22-.719-.532-1.14-.312-.423-.906-.673t-1.312-.25q-.875 0-1.516.266-.625.266-1.016.703-.375.422-.593.938-.36.875-.36 1.921 0 1.266.438 2.125.437.86 1.265 1.282.844.422 1.797.422.813 0 1.594-.313.781-.328 1.187-.687V74.9zm5.304.282q0-1.922 1.078-2.844.89-.765 2.172-.765 1.422 0 2.328.937.906.922.906 2.578 0 1.329-.406 2.094-.39.766-1.156 1.188t-1.672.422q-1.453 0-2.36-.922-.89-.938-.89-2.688m1.203 0q0 1.328.578 1.985.594.656 1.47.656.874 0 1.452-.656.578-.672.578-2.032 0-1.28-.593-1.937-.579-.656-1.438-.656-.875 0-1.469.656-.578.656-.578 1.984m6.21 0q0-1.922 1.078-2.844.89-.765 2.172-.765 1.421 0 2.328.937.906.922.906 2.578 0 1.329-.406 2.094-.391.766-1.157 1.188-.765.422-1.671.422-1.454 0-2.36-.922-.89-.938-.89-2.688m1.203 0q0 1.328.578 1.985.594.656 1.469.656t1.453-.656q.578-.672.578-2.032 0-1.28-.594-1.937-.578-.656-1.437-.656-.875 0-1.47.656-.577.656-.577 1.984m11.13 3.453v-.875q-.655 1.032-1.937 1.032-.812 0-1.515-.454-.688-.453-1.078-1.265-.375-.828-.375-1.89 0-1.032.343-1.876t1.032-1.281q.703-.453 1.547-.453.625 0 1.109.265.5.25.797.672v-3.422h1.172v9.547zm-3.702-3.453q0 1.328.562 1.985.563.656 1.328.656t1.297-.625.532-1.906q0-1.422-.547-2.079-.547-.671-1.344-.671-.781 0-1.313.64-.515.625-.515 2M642.64 94.635v-9.547h3.594q.953 0 1.453.094.704.125 1.172.453.485.328.766.922.297.594.297 1.297 0 1.219-.781 2.063-.766.843-2.797.843h-2.438v3.875zm1.266-5h2.453q1.235 0 1.75-.453.516-.469.516-1.281 0-.61-.313-1.031-.296-.422-.796-.563-.313-.094-1.172-.094h-2.438zm11.984 4.14q-.657.563-1.266.798-.594.219-1.281.219-1.14 0-1.75-.547-.61-.563-.61-1.438 0-.5.22-.922.234-.422.609-.672t.843-.39q.344-.078 1.047-.172 1.422-.172 2.094-.406v-.297q0-.719-.328-1.016-.453-.39-1.344-.39-.812 0-1.219.296-.39.282-.578 1.016l-1.14-.156q.156-.735.515-1.188.36-.453 1.031-.687.672-.25 1.563-.25t1.437.203q.563.203.813.531.266.313.375.797.047.297.047 1.078v1.563q0 1.625.078 2.062.078.438.297.828h-1.219q-.187-.36-.234-.86m-.094-2.608q-.64.265-1.922.437-.719.11-1.016.25-.296.125-.468.375-.157.25-.157.547 0 .469.344.781.36.313 1.047.313.672 0 1.203-.297t.781-.813q.188-.39.188-1.172zm2.522 1.406 1.156-.188q.11.703.547 1.078.453.36 1.25.36.812 0 1.203-.328.39-.328.39-.766 0-.39-.359-.625-.234-.156-1.187-.39-1.297-.329-1.797-.563-.484-.25-.75-.656-.25-.422-.25-.938 0-.453.203-.844.219-.406.578-.671.281-.188.75-.329.469-.14 1.016-.14.812 0 1.422.234t.906.64q.297.391.406 1.063l-1.14.157q-.079-.532-.454-.829-.375-.312-1.062-.312-.813 0-1.156.266-.344.265-.344.625 0 .234.14.421.157.188.454.313.172.062 1.03.297 1.25.328 1.735.547.5.203.782.61.28.405.28 1 0 .593-.343 1.108t-1 .797q-.64.282-1.453.282-1.344 0-2.047-.563t-.906-1.656m6.664 0 1.156-.188q.11.703.547 1.078.453.36 1.25.36.812 0 1.203-.328.39-.328.39-.766 0-.39-.359-.625-.234-.156-1.187-.39-1.297-.329-1.797-.563-.484-.25-.75-.656-.25-.422-.25-.938 0-.453.203-.844.219-.406.578-.671.281-.188.75-.329.469-.14 1.016-.14.812 0 1.422.234t.906.64q.297.391.406 1.063l-1.14.157q-.079-.532-.454-.829-.375-.312-1.062-.312-.813 0-1.156.266-.344.265-.344.625 0 .234.14.421.157.188.454.313.172.062 1.031.297 1.25.328 1.734.547.5.203.782.61.28.405.28 1 0 .593-.343 1.108t-1 .797q-.64.282-1.453.282-1.344 0-2.047-.563t-.906-1.656m8.414 2.062-2.125-6.906h1.219l1.093 3.984.422 1.485q.016-.11.36-1.422l1.093-4.047h1.204l1.03 4 .345 1.328.406-1.344 1.172-3.984h1.14l-2.156 6.906h-1.219l-1.093-4.14-.266-1.172-1.406 5.312zm7.906-3.453q0-1.922 1.078-2.844.891-.765 2.172-.765 1.422 0 2.328.937.907.922.907 2.578 0 1.329-.407 2.094-.39.766-1.156 1.188t-1.672.422q-1.453 0-2.359-.922-.89-.938-.89-2.688m1.203 0q0 1.328.579 1.985.593.656 1.468.656t1.453-.656q.579-.672.579-2.032 0-1.28-.594-1.937-.578-.656-1.438-.656-.875 0-1.468.656-.579.656-.579 1.984m6.632 3.453V87.73h1.062v1.047q.406-.734.735-.969.343-.234.765-.234.594 0 1.203.375l-.406 1.078q-.437-.25-.86-.25-.39 0-.702.234-.297.235-.422.64-.203.626-.203 1.36v3.625zm8.938 0v-.875q-.656 1.032-1.937 1.032-.813 0-1.516-.454-.688-.453-1.078-1.265-.375-.828-.375-1.89 0-1.032.344-1.876t1.03-1.281q.704-.453 1.548-.453.625 0 1.109.265.5.25.797.672v-3.422h1.172v9.547zm-3.703-3.453q0 1.328.562 1.985.563.656 1.329.656.765 0 1.296-.625.532-.625.532-1.906 0-1.422-.547-2.079-.547-.671-1.344-.671-.781 0-1.312.64-.516.625-.516 2"/>
    <path d="M559.732 81.835h62.3"/>
    <path stroke="#000" stroke-linecap="butt" stroke-linejoin="round" d="M559.732 81.835h56.3"/>
    <path fill="#000" fill-rule="evenodd" stroke="#000" stroke-linecap="butt" d="m616.032 83.486 4.538-1.651-4.538-1.652z"/>
    <path d="M574.016 63.749h33.732v18.078h-33.732z"/>
    <path fill="#000" d="M583.73 76.549v-4.047l-3.688-5.5h1.547l1.875 2.875q.515.812.969 1.625.437-.75 1.047-1.688l1.843-2.812h1.469l-3.797 5.5v4.047zm9.556-2.22 1.203.142q-.281 1.062-1.062 1.656-.766.578-1.97.578-1.515 0-2.405-.938-.891-.937-.891-2.609 0-1.75.89-2.703.907-.969 2.344-.969 1.39 0 2.266.938.875.937.875 2.656v.312h-5.156q.062 1.141.64 1.75.578.594 1.438.594.656 0 1.11-.328.452-.344.718-1.078m-3.844-1.905h3.86q-.079-.86-.438-1.297-.562-.688-1.453-.688-.813 0-1.36.547-.546.531-.609 1.438m6.053 2.062 1.156-.187q.11.703.547 1.078.453.36 1.25.36.813 0 1.203-.329.391-.328.391-.766 0-.39-.36-.625-.234-.156-1.187-.39-1.297-.328-1.797-.563-.484-.25-.75-.656-.25-.422-.25-.937 0-.454.203-.844.22-.406.579-.672.28-.188.75-.328.468-.14 1.015-.14.813 0 1.422.234.61.234.906.64.297.39.407 1.063l-1.141.156q-.078-.531-.453-.828-.375-.313-1.063-.313-.812 0-1.156.266t-.344.625q0 .234.141.422.156.187.453.312.172.063 1.031.297 1.25.328 1.735.547.5.203.781.61t.281 1-.344 1.109-1 .797q-.64.28-1.453.28-1.343 0-2.047-.562-.703-.562-.906-1.656"/>
    <path d="M167.57 149.15h33.732v18.078H167.57z"/>
    <path fill="#000" d="M177.283 161.95v-4.047l-3.687-5.5h1.547l1.875 2.875q.515.812.968 1.625.438-.75 1.047-1.688l1.844-2.812h1.469l-3.797 5.5v4.047zm9.557-2.22 1.203.141q-.281 1.063-1.063 1.657-.765.578-1.968.578-1.516 0-2.407-.938-.89-.937-.89-2.609 0-1.75.89-2.703.907-.969 2.344-.969 1.39 0 2.266.938.875.937.875 2.656v.312h-5.157q.063 1.141.641 1.75.578.594 1.438.594.656 0 1.109-.328.453-.344.719-1.078m-3.844-1.905h3.86q-.079-.86-.438-1.297-.563-.688-1.453-.688-.813 0-1.36.547-.547.531-.61 1.438m6.053 2.062 1.156-.187q.11.703.547 1.078.453.36 1.25.36.813 0 1.203-.329.39-.328.39-.766 0-.39-.358-.625-.235-.156-1.188-.39-1.297-.328-1.797-.563-.484-.25-.75-.656-.25-.422-.25-.938 0-.453.203-.843.219-.407.578-.672.282-.188.75-.328.47-.14 1.016-.14.813 0 1.422.233.61.235.906.641.297.39.406 1.063l-1.14.156q-.078-.531-.453-.828-.375-.313-1.063-.313-.812 0-1.156.266-.344.265-.344.625 0 .234.14.422.157.187.454.312.172.063 1.031.297 1.25.328 1.735.547.5.203.78.61.282.406.282 1 0 .593-.344 1.109-.343.515-1 .797-.64.28-1.453.28-1.344 0-2.047-.562t-.906-1.656"/>
    <path fill="#fff" fill-rule="evenodd" d="M135.885 190.515a4.8 4.8 0 0 1 4.798-4.798h53.774a4.8 4.8 0 0 1 4.798 4.798v19.191a4.8 4.8 0 0 1-4.798 4.798h-53.774a4.8 4.8 0 0 1-4.798-4.798z"/>
    <path stroke="#000" stroke-linecap="butt" stroke-linejoin="round" d="M135.885 190.515a4.8 4.8 0 0 1 4.798-4.798h53.774a4.8 4.8 0 0 1 4.798 4.798v19.191a4.8 4.8 0 0 1-4.798 4.798h-53.774a4.8 4.8 0 0 1-4.798-4.798z"/>
    <path fill="#000" d="M153.808 204.91v-9.547h6.906v1.125h-5.64v2.922h5.28v1.125h-5.28v3.25h5.859v1.125zm8.702 0v-6.906h1.063v1.047q.406-.735.734-.969.344-.234.766-.234.593 0 1.203.375l-.407 1.078q-.437-.25-.859-.25-.39 0-.703.234-.297.235-.422.64-.203.626-.203 1.36v3.625zm4.438 0v-6.906h1.063v1.047q.406-.735.734-.969.344-.234.766-.234.594 0 1.203.375l-.406 1.078q-.438-.25-.86-.25-.39 0-.703.234-.297.235-.422.64-.203.626-.203 1.36v3.625zm4.017-3.453q0-1.922 1.078-2.844.89-.765 2.172-.765 1.422 0 2.328.937.906.922.906 2.578 0 1.328-.406 2.094-.39.766-1.156 1.188t-1.672.421q-1.453 0-2.36-.921-.89-.938-.89-2.688m1.203 0q0 1.328.578 1.984.594.657 1.469.657t1.453-.657q.578-.671.578-2.03 0-1.282-.594-1.938-.578-.657-1.437-.657-.875 0-1.469.657-.578.656-.578 1.984m6.631 3.453v-6.906h1.063v1.047q.406-.735.734-.969.344-.234.766-.234.593 0 1.203.375l-.406 1.078q-.438-.25-.86-.25-.39 0-.703.234-.297.235-.422.64-.203.626-.203 1.36v3.625z"/>
    <path d="M510.898 33V8H39.685v59.425"/>
    <path stroke="#000" stroke-linecap="butt" stroke-linejoin="round" d="M510.898 33V8H39.685v53.425"/>
    <path fill="#000" fill-rule="evenodd" stroke="#000" stroke-linecap="butt" d="m38.033 61.425 1.652 4.538 1.652-4.538z"/>
  </g>
</svg>
