<svg xmlns="http://www.w3.org/2000/svg" xmlns:xlink="http://www.w3.org/1999/xlink" viewBox="0 0 669 497">
  <defs>
    <path id="a" d="M0 0h411v463H0z"/>
    <path id="b" d="M418 0h251v463H418z"/>
    <mask id="c" width="411" height="463" x="0" y="0" fill="#fff">
      <use xlink:href="#a"/>
    </mask>
    <mask id="d" width="251" height="463" x="0" y="0" fill="#fff">
      <use xlink:href="#b"/>
    </mask>
  </defs>
  <g fill="none" fill-rule="evenodd">
    <g fill="#000" fill-rule="nonzero">
      <path d="m93.835 51.16-6.223-23.05-.212-.213-1.626 1.627 5.868 21L76.086 66.08l-21.213-5.655-5.728-21.142 15.557-15.557 13.435 3.536 1.626-1.625-15.627-4.172-17.183 17.182 4.172 15.627-32.88 32.88 15.627 4.173 27.082-27.082 15.698 4.1 17.183-17.182zm-60.6 37.973-11.172-2.97L51.69 56.535l1.486 5.586 5.586 1.49-25.527 25.53z"/>
      <path d="m76.51 37.373 1.415 1.414L64.49 52.222l-1.415-1.414zm3.536 7.777 1.414 1.415-9.192 9.192-1.414-1.414zM68.732 33.837l1.414 1.414-9.192 9.2-1.414-1.41z"/>
    </g>
    <g fill="#000" fill-rule="nonzero">
      <path d="m93.835 138.16-6.223-23.05-.212-.213-1.626 1.627 5.868 21-15.556 15.557-21.213-5.65-5.728-21.14 15.557-15.55 13.435 3.54 1.626-1.62-15.627-4.17-17.183 17.19 4.172 15.63-32.88 32.88 15.627 4.17 27.082-27.08 15.698 4.1 17.183-17.18zm-60.6 37.973-11.172-2.97 29.628-29.628 1.49 5.586 5.59 1.49-25.53 25.53z"/>
      <path d="m76.51 124.373 1.415 1.414-13.435 13.435-1.415-1.414zm3.536 7.777 1.414 1.415-9.192 9.192-1.414-1.414zm-11.314-11.313 1.414 1.414-9.192 9.2-1.414-1.41z"/>
    </g>
    <g fill="#000" fill-rule="nonzero">
      <path d="m93.835 224.16-6.223-23.05-.212-.213-1.626 1.627 5.868 21-15.556 15.557-21.213-5.65-5.728-21.14 15.557-15.55 13.435 3.54 1.626-1.62-15.627-4.17-17.183 17.19 4.172 15.63-32.88 32.88 15.627 4.17 27.082-27.08 15.698 4.1 17.183-17.18zm-60.6 37.973-11.172-2.97 29.628-29.628 1.49 5.586 5.59 1.49-25.53 25.53z"/>
      <path d="m76.51 210.373 1.415 1.414-13.435 13.435-1.415-1.414zm3.536 7.777 1.414 1.415-9.192 9.192-1.414-1.414zm-11.314-11.313 1.414 1.414-9.192 9.2-1.414-1.41z"/>
    </g>
    <g fill="#000" fill-rule="nonzero">
      <path d="m93.835 311.16-6.223-23.05-.212-.213-1.626 1.627 5.868 21-15.556 15.557-21.213-5.65-5.728-21.14 15.557-15.55 13.435 3.54 1.626-1.62-15.627-4.17-17.183 17.19 4.172 15.63-32.88 32.88 15.627 4.17 27.082-27.08 15.698 4.1 17.183-17.18zm-60.6 37.973-11.172-2.97 29.628-29.628 1.49 5.586 5.59 1.49-25.53 25.53z"/>
      <path d="m76.51 297.373 1.415 1.414-13.435 13.435-1.415-1.414zm3.536 7.777 1.414 1.415-9.192 9.192-1.414-1.414zm-11.314-11.313 1.414 1.414-9.192 9.2-1.414-1.41z"/>
    </g>
    <g fill="#000" fill-rule="nonzero">
      <path d="m93.835 397.16-6.223-23.05-.212-.213-1.626 1.627 5.868 21-15.556 15.557-21.213-5.65-5.728-21.14 15.557-15.55 13.435 3.54 1.626-1.62-15.627-4.17-17.183 17.19 4.172 15.63-32.88 32.88 15.627 4.17 27.082-27.08 15.698 4.1 17.183-17.18zm-60.6 37.973-11.172-2.97 29.628-29.628 1.49 5.586 5.59 1.49-25.53 25.53z"/>
      <path d="m76.51 383.373 1.415 1.414-13.435 13.435-1.415-1.414zm3.536 7.777 1.414 1.415-9.192 9.192-1.414-1.414zm-11.314-11.313 1.414 1.414-9.192 9.2-1.414-1.41z"/>
    </g>
    <g fill="#000" fill-rule="nonzero">
      <path d="m363.073 205.532-10.675-38.114-.354-.354-2.652 2.652 10.056 34.728-25.363 25.363-35.074-9.71-9.82-34.958 25.37-25.37 22.22 6.07 2.65-2.65-25.84-7.16-28.01 28.01 7.16 25.83-53.6 53.61 25.84 7.16 44.16-44.15 25.95 7.04 28.02-28.02zm-99.212 61.5-18.47-5.098 48.31-48.306 2.55 9.236 9.24 2.55-41.62 41.62z"/>
      <path d="m334.263 182.488 2.357 2.356-21.905 21.905-2.356-2.36zm5.97 12.887 2.357 2.356-14.988 14.99-2.356-2.35zm-18.856-18.857 2.357 2.357-14.988 14.988-2.357-2.357z"/>
    </g>
    <g fill="#000" fill-rule="nonzero">
      <path d="m572.308 205.766-10.676-38.114-.354-.354-2.652 2.652 10.056 34.728-25.363 25.363-35.08-9.71-9.83-34.95 25.36-25.36 22.21 6.07 2.65-2.65-25.84-7.16-28.02 28.02 7.16 25.84-53.61 53.61 25.84 7.16 44.15-44.15 25.95 7.05"/>
      <path d="m543.497 182.72 2.357 2.358-21.905 21.905-2.36-2.357zm5.97 12.888 2.357 2.357-14.988 14.988-2.357-2.357zm-18.857-18.856 2.358 2.357-14.988 14.98-2.357-2.36z"/>
    </g>
    <path fill="#000" d="M114.92 224.624h125v2h-125zm-10.282-83 148.44 56.98-.718 1.868-148.44-56.98zM102.92 298.42l116.698-44.796.717 1.867-116.698 44.8zm5.148-239.797L276.814 176.78l-1.148 1.638L106.92 60.262zm-2.148 323.362 137.618-96.36 1.147 1.637-137.617 96.36zm252-153.36h102v2h-102zM524.102 264h-7.27v-12.85h7.27v1.776h-5.168v3.498h4.842v1.758h-4.842v4.034h5.168zm11.11 0h-2.075v-5.977q0-1.125-.453-1.678-.452-.555-1.437-.554-1.31 0-1.916.78c-.4.52-.6 1.38-.6 2.6V264h-2.06v-9.72h1.62l.29 1.274h.11c.3-.463.71-.82 1.25-1.073.54-.25 1.14-.37 1.8-.37 2.34 0 3.5 1.19 3.5 3.56V264zm6.793.176q-2.205 0-3.353-1.288-1.147-1.287-1.147-3.696 0-2.45 1.2-3.77t3.467-1.318q1.538 0 2.768.57l-.624 1.662q-1.309-.51-2.162-.51-2.521 0-2.522 3.35 0 1.634.628 2.455c.42.55 1.033.83 1.842.83.92 0 1.79-.23 2.61-.68v1.8c-.37.22-.763.38-1.182.47-.42.1-.927.14-1.525.14zm9.923-10.072q.625 0 1.028.087l-.202 1.93c-.293-.07-.598-.1-.914-.1q-1.24 0-2.008.81-.77.81-.77 2.1V264h-2.065v-9.72h1.617l.273 1.713h.105q.484-.87 1.26-1.38.78-.51 1.676-.51zm1.353.175h2.25l1.98 5.51c.3.78.5 1.52.6 2.21h.07c.06-.32.15-.72.29-1.18s.89-2.65 2.24-6.56h2.24l-4.16 11.01q-1.125 3.03-3.78 3.03c-.45 0-.9-.05-1.33-.15v-1.64c.31.07.67.1 1.06.1q1.5 0 2.1-1.74l.36-.92-3.9-9.72zm16.06 9.89c-1.23 0-2.18-.45-2.86-1.33h-.12c.09.82.13 1.31.13 1.49v3.98h-2.06v-14.04h1.67c.05.18.15.61.29 1.3h.11c.65-.99 1.61-1.48 2.9-1.48 1.22 0 2.16.44 2.84 1.32s1.02 2.11 1.02 3.7-.34 2.82-1.03 3.72c-.69.89-1.64 1.33-2.85 1.33zm-.5-8.39c-.82 0-1.42.24-1.79.72s-.56 1.25-.56 2.3v.31c0 1.18.19 2.04.56 2.57.38.53.99.79 1.84.79.72 0 1.27-.3 1.66-.88.39-.59.58-1.42.58-2.51s-.19-1.92-.57-2.48-.95-.84-1.69-.84zm10.41 6.71c.51 0 1.01-.08 1.51-.24v1.55c-.23.1-.52.18-.88.25s-.73.1-1.12.1c-1.96 0-2.93-1.03-2.93-3.1v-5.24h-1.33v-.92l1.43-.76.71-2.06h1.28v2.16h2.77v1.56h-2.77V261c0 .495.13.863.38 1.1.25.24.58.357.98.357zm5.52 1.49h-2.07v-9.72h2.07V264zm-2.19-12.3c0-.37.1-.66.31-.86s.49-.3.87-.3c.37 0 .65.1.85.3.21.2.31.48.31.85 0 .35-.1.63-.3.83q-.3.3-.84.3c-.38 0-.66-.1-.87-.31-.2-.2-.3-.48-.3-.83zm13.77 7.41c0 1.59-.4 2.83-1.22 3.72-.81.89-1.94 1.33-3.4 1.33-.91 0-1.71-.21-2.41-.62-.69-.41-1.23-1-1.6-1.77s-.56-1.66-.56-2.67c0-1.58.41-2.81 1.22-3.69.81-.89 1.95-1.33 3.42-1.33 1.41 0 2.52.452 3.34 1.36q1.23 1.365 1.23 3.66zm-7.07 0c0 2.24.83 3.37 2.49 3.37 1.65 0 2.47-1.12 2.47-3.37 0-2.22-.83-3.33-2.48-3.33-.87 0-1.49.29-1.88.86s-.58 1.4-.58 2.47zm18 4.88h-2.08V258q0-1.125-.45-1.68c-.3-.37-.78-.552-1.43-.552-.87 0-1.51.26-1.91.776q-.6.773-.6 2.59V264h-2.06v-9.72h1.62l.29 1.274h.11c.29-.463.71-.82 1.25-1.073.54-.25 1.14-.37 1.79-.37 2.33 0 3.5 1.19 3.5 3.56V264zm17.58 0h-2.43l-4.03-5.82-1.24 1.01V264h-2.1v-12.85h2.1v6.135c.58-.703 1.15-1.38 1.72-2.03l3.47-4.105h2.39a807 807 0 0 1-4.82 5.634l4.95 7.216zm5.72.17c-1.51 0-2.69-.44-3.54-1.33-.85-.88-1.28-2.1-1.28-3.64 0-1.59.4-2.84 1.19-3.75s1.88-1.36 3.26-1.36c1.29 0 2.3.39 3.04 1.16.75.78 1.12 1.85 1.12 3.22v1.11h-6.48c.03.94.29 1.67.77 2.17.48.51 1.16.76 2.03.76.58 0 1.11-.057 1.61-.16.5-.11 1.03-.29 1.6-.54v1.68c-.5.24-1.01.41-1.53.502-.51.1-1.1.15-1.76.15zm-.37-8.51c-.65 0-1.18.21-1.58.62-.39.41-.63 1.02-.71 1.82h4.42c-.01-.81-.2-1.41-.58-1.83-.37-.42-.89-.62-1.54-.62zm5.03-1.39h2.25l1.98 5.51c.3.78.5 1.52.6 2.21h.07c.05-.32.15-.71.29-1.17s.89-2.64 2.23-6.55h2.24l-4.16 11.01q-1.125 3.03-3.78 3.03c-.45 0-.9-.05-1.33-.15v-1.63c.31.07.67.1 1.07.1.99 0 1.7-.58 2.1-1.73l.36-.92-3.9-9.72zM76.58 439h-2.44l-4.034-5.818-1.24 1.01V439h-2.1v-12.85h2.1v6.135a80 80 0 0 1 1.715-2.03l3.48-4.105h2.39a807 807 0 0 1-4.82 5.634zm5.72.176q-2.263 0-3.547-1.323c-.85-.882-1.28-2.096-1.28-3.643 0-1.588.4-2.836 1.19-3.744s1.88-1.362 3.26-1.362c1.29 0 2.3.39 3.04 1.168.75.78 1.12 1.852 1.12 3.217v1.11H79.6c.03.94.283 1.67.764 2.17.48.5 1.157.76 2.03.76.574 0 1.11-.06 1.604-.17a8.7 8.7 0 0 0 1.595-.54v1.68q-.755.36-1.53.51-.773.15-1.766.15zm-.38-8.508q-.99 0-1.58.624c-.39.416-.63 1.022-.7 1.82h4.41c-.01-.803-.2-1.41-.58-1.824-.37-.413-.89-.62-1.54-.62zm5.023-1.39h2.25l1.98 5.512q.45 1.177.6 2.215h.07c.06-.322.15-.713.29-1.173.15-.46.89-2.644 2.24-6.553h2.23l-4.15 11.01q-1.131 3.03-3.78 3.03c-.454 0-.9-.05-1.33-.15v-1.64c.31.07.66.1 1.06.1.997 0 1.697-.58 2.1-1.73l.36-.92-3.9-9.72zm23.43 6.233c0 1.15-.41 2.04-1.235 2.69-.827.65-1.967.98-3.42.98s-2.64-.22-3.568-.67v-1.98c.59.28 1.21.49 1.87.65s1.28.24 1.84.24c.84 0 1.45-.15 1.84-.47.4-.31.6-.74.6-1.27 0-.48-.18-.88-.54-1.22-.36-.33-1.11-.73-2.25-1.19-1.17-.47-2-1.01-2.48-1.62q-.72-.915-.72-2.19c0-1.07.38-1.91 1.15-2.53.76-.61 1.783-.92 3.066-.92q1.846 0 3.675.81l-.67 1.72c-1.14-.48-2.16-.72-3.05-.72-.68 0-1.2.15-1.55.44-.35.3-.53.69-.53 1.18 0 .34.07.62.21.86s.37.46.7.67q.48.315 1.74.84c.95.398 1.64.76 2.08 1.1s.76.72.97 1.15.31.93.31 1.51zm10.82 3.49h-2.07v-5.97q0-1.125-.453-1.68c-.3-.37-.78-.55-1.437-.55q-1.3 0-1.91.78c-.4.52-.61 1.39-.61 2.61V439h-2.06v-13.676h2.07v3.472c0 .557-.03 1.15-.1 1.784h.13a2.86 2.86 0 0 1 1.176-1.09c.5-.258 1.08-.386 1.75-.386 2.35 0 3.53 1.186 3.53 3.56V439zm8.96 0-.413-1.35h-.07c-.47.59-.94 1-1.416 1.21-.473.22-1.083.32-1.827.32-.955 0-1.7-.26-2.237-.77q-.81-.765-.81-2.19c0-1 .37-1.76 1.11-2.27s1.88-.79 3.4-.83l1.68-.05v-.52c0-.62-.15-1.08-.44-1.39s-.74-.46-1.35-.46c-.5 0-.977.07-1.43.22-.46.15-.9.32-1.32.52l-.67-1.48c.53-.27 1.104-.48 1.73-.63a8.2 8.2 0 0 1 1.775-.21c1.24 0 2.17.27 2.8.81s.947 1.39.947 2.54V439h-1.48zm-3.076-1.4q1.125 0 1.806-.63c.454-.42.68-1 .68-1.76v-.84l-1.247.06c-.973.04-1.68.2-2.123.49-.44.29-.66.74-.66 1.33 0 .44.13.77.386 1.01s.64.36 1.16.36zm12.366-8.49q.625 0 1.03.09l-.2 1.93c-.29-.07-.6-.1-.91-.1q-1.23 0-2.01.81c-.51.54-.77 1.24-.77 2.1V439h-2.06v-9.72h1.62l.28 1.713h.102q.484-.87 1.26-1.38a3 3 0 0 1 1.674-.51zm7.075 10.07q-2.27 0-3.547-1.32c-.85-.88-1.28-2.09-1.28-3.64 0-1.58.4-2.83 1.19-3.74s1.87-1.36 3.26-1.36c1.28 0 2.29.39 3.04 1.17.74.78 1.11 1.85 1.11 3.22v1.12h-6.48c.03.95.28 1.67.76 2.18s1.16.76 2.03.76c.57 0 1.11-.05 1.6-.16s1.03-.29 1.59-.54v1.68q-.75.36-1.53.51c-.51.1-1.1.15-1.76.15zm-.38-8.51q-.982 0-1.576.63c-.396.42-.63 1.02-.708 1.82h4.412c-.012-.8-.205-1.41-.58-1.82s-.89-.62-1.547-.62zm13.035 5.57q.002 1.425-1.035 2.19c-.69.51-1.68.76-2.97.76-1.295 0-2.335-.2-3.12-.59v-1.78c1.142.53 2.205.79 3.19.79 1.27 0 1.907-.38 1.907-1.15 0-.24-.07-.45-.21-.61q-.21-.255-.693-.51-.495-.27-1.35-.6c-1.12-.43-1.88-.87-2.27-1.3-.4-.43-.6-1-.6-1.69 0-.83.33-1.48 1-1.94s1.58-.69 2.74-.69c1.14 0 2.22.23 3.24.7l-.67 1.56c-1.05-.43-1.93-.65-2.648-.65-1.09 0-1.63.31-1.63.93q-.001.465.424.78.423.315 1.86.87c.8.31 1.383.59 1.75.85q.54.39.81.9c.17.34.26.74.26 1.21zM308.64 264l-3.728-10.73h-.07q.15 2.388.15 4.48V264h-1.908v-12.85h2.962l3.568 10.222h.053l3.674-10.222h2.98V264h-2.02v-6.354c0-.64.02-1.47.05-2.497.04-1.03.06-1.65.09-1.87h-.07L310.5 264h-1.855zm16.918 0-.413-1.354h-.07q-.704.888-1.416 1.21-.72.32-1.83.32c-.96 0-1.7-.258-2.24-.774q-.81-.773-.81-2.188 0-1.503 1.11-2.268c.74-.51 1.88-.788 3.4-.835l1.67-.05v-.52c0-.62-.15-1.08-.44-1.39s-.74-.46-1.35-.46c-.5 0-.98.07-1.44.22s-.9.32-1.32.52l-.67-1.48c.53-.27 1.1-.48 1.73-.63.63-.14 1.22-.21 1.78-.21 1.23 0 2.17.27 2.8.81s.94 1.39.94 2.54V264h-1.48zm-3.077-1.406c.75 0 1.36-.21 1.81-.63.46-.418.68-1.005.68-1.76v-.845l-1.24.05c-.97.03-1.68.2-2.12.49s-.66.73-.66 1.33c0 .43.13.77.39 1s.65.35 1.16.35zm13.97-1.363c0 .95-.34 1.68-1.03 2.19s-1.68.76-2.97.76-2.33-.19-3.12-.59v-1.78c1.15.53 2.21.79 3.19.79 1.27 0 1.91-.38 1.91-1.15 0-.24-.07-.45-.21-.61q-.21-.24-.69-.51c-.32-.17-.77-.37-1.34-.59-1.12-.43-1.87-.86-2.27-1.3-.39-.43-.59-.99-.59-1.69 0-.83.34-1.47 1.01-1.93s1.59-.69 2.74-.69c1.14 0 2.23.23 3.24.7l-.67 1.56c-1.04-.43-1.93-.65-2.64-.65-1.09 0-1.63.31-1.63.93 0 .31.15.57.43.78q.435.315 1.86.87c.8.31 1.39.6 1.75.86.37.26.64.56.81.89.18.34.27.74.27 1.21zm5.86 1.28c.51 0 1.01-.08 1.51-.23v1.56c-.23.1-.52.19-.88.25-.36.07-.73.1-1.12.1-1.95 0-2.93-1.03-2.93-3.09v-5.24h-1.32v-.91l1.43-.75.71-2.06h1.28v2.17h2.77v1.57h-2.77v5.2c0 .5.13.87.38 1.11s.58.36.98.36zm7.7 1.67q-2.265 0-3.54-1.32c-.85-.88-1.28-2.09-1.28-3.64 0-1.58.4-2.83 1.19-3.74s1.88-1.36 3.26-1.36c1.29 0 2.3.39 3.04 1.17.75.78 1.12 1.85 1.12 3.22v1.12h-6.49c.03.95.29 1.67.77 2.18s1.16.76 2.03.76c.58 0 1.11-.05 1.61-.16q.735-.165 1.59-.54v1.68q-.765.36-1.53.51-.78.15-1.77.15zm-.38-8.51c-.65 0-1.18.21-1.58.63-.39.42-.63 1.02-.7 1.82h4.41c-.01-.8-.2-1.41-.58-1.82-.37-.41-.89-.62-1.54-.62zm11.44-1.56c.42 0 .76.03 1.03.09l-.2 1.93c-.29-.07-.6-.1-.91-.1q-1.23 0-2.01.81c-.51.54-.77 1.24-.77 2.1V264h-2.06v-9.72h1.62l.28 1.713h.11c.32-.58.75-1.04 1.26-1.38q.78-.51 1.68-.51zm17.52 9.89h-2.43l-4.03-5.81-1.24 1.01v4.8h-2.1v-12.85h2.1v6.14c.58-.7 1.15-1.38 1.72-2.03l3.47-4.1h2.39q-3.375 3.96-4.83 5.64l4.96 7.22zm5.73.18q-2.265 0-3.54-1.32c-.85-.88-1.28-2.09-1.28-3.64 0-1.58.4-2.83 1.19-3.74s1.88-1.36 3.26-1.36c1.29 0 2.3.39 3.05 1.17.74.78 1.12 1.85 1.12 3.22v1.11h-6.48c.03.94.29 1.67.77 2.17.48.51 1.15.76 2.03.76.57 0 1.1-.05 1.6-.16q.735-.165 1.59-.54v1.68q-.75.36-1.53.51c-.52.1-1.1.15-1.77.15zm-.38-8.51c-.65 0-1.18.21-1.58.63-.39.42-.63 1.02-.71 1.82h4.41c-.01-.8-.21-1.41-.58-1.82-.38-.41-.89-.62-1.55-.62zm5.03-1.39h2.25l1.98 5.51c.29.79.49 1.53.59 2.22h.07c.05-.32.15-.71.29-1.17s.88-2.64 2.23-6.55h2.23l-4.15 11.01q-1.125 3.03-3.78 3.03c-.45 0-.9-.05-1.33-.15v-1.64c.31.07.67.11 1.07.11 1 0 1.7-.58 2.1-1.73l.36-.91-3.9-9.72zM182.21 485.13h1.46q1.466 0 2.125-.54.66-.546.66-1.618-.002-1.091-.713-1.565-.712-.471-2.145-.472h-1.38v4.2zm0 1.74V492h-2.1v-12.85h3.63q2.486 0 3.68.932 1.195.932 1.195 2.813c0 1.6-.84 2.74-2.5 3.418l3.63 5.687h-2.39l-3.08-5.133h-2.07zm13.43 5.31q-2.269 0-3.548-1.32-1.28-1.323-1.28-3.643 0-2.38 1.186-3.742 1.186-1.36 3.26-1.36 1.926 0 3.042 1.167t1.116 3.217v1.11h-6.47c.03.94.29 1.67.77 2.17s1.157.76 2.03.76c.575 0 1.11-.06 1.605-.17.5-.11 1.03-.29 1.6-.54v1.68q-.75.36-1.53.51c-.52.1-1.1.15-1.77.15zm-.38-8.51q-.983 0-1.58.63-.591.621-.706 1.82h4.41c-.01-.804-.21-1.41-.58-1.825-.38-.414-.89-.62-1.55-.62zm8.5 3.2 1.168-1.46 2.935-3.13h2.38l-3.92 4.18 4.16 5.547h-2.43l-3.12-4.265-1.13.93V492h-2.046v-13.676h2.05v6.67l-.104 1.873h.05zm12.54 5.31q-2.266 0-3.545-1.32c-.86-.882-1.28-2.096-1.28-3.643 0-1.586.39-2.834 1.18-3.742s1.88-1.36 3.26-1.36c1.28 0 2.3.39 3.04 1.167q1.112 1.168 1.113 3.217v1.11h-6.477c.03.94.29 1.67.77 2.17s1.16.76 2.03.76c.58 0 1.11-.06 1.61-.17s1.03-.29 1.6-.54v1.68c-.5.24-1.01.41-1.52.51s-1.1.15-1.76.15zm-.377-8.51q-.981 0-1.58.63c-.4.415-.64 1.02-.71 1.82h4.41c-.01-.804-.21-1.41-.58-1.825-.38-.414-.89-.62-1.55-.62zm5.028-1.39h2.25l1.98 5.51q.45 1.185.6 2.22h.07c.06-.32.15-.712.29-1.172s.89-2.64 2.24-6.55h2.23l-4.15 11.01c-.75 2.02-2.01 3.04-3.78 3.04-.45 0-.9-.05-1.33-.15v-1.63c.31.07.67.105 1.07.105 1 0 1.7-.58 2.1-1.732l.36-.91-3.9-9.72zm305.62 2.85h1.46q1.47 0 2.13-.54.66-.546.66-1.618c0-.727-.23-1.25-.71-1.565-.47-.314-1.19-.472-2.14-.472h-1.39v4.2zm0 1.74V492h-2.1v-12.85h3.63q2.49 0 3.69.932t1.2 2.813q0 2.4-2.49 3.418l3.63 5.687h-2.39l-3.08-5.133h-2.07zm17.81.26c0 1.587-.4 2.826-1.22 3.717-.81.89-1.94 1.338-3.4 1.338-.91 0-1.71-.204-2.41-.614-.69-.41-1.23-.99-1.6-1.76s-.56-1.66-.56-2.67c0-1.57.41-2.8 1.22-3.69.81-.88 1.95-1.33 3.42-1.33 1.41 0 2.52.45 3.34 1.36q1.23 1.365 1.23 3.66zm-7.07 0q0 3.365 2.49 3.365 2.46 0 2.46-3.367c0-2.22-.82-3.33-2.48-3.33-.87 0-1.49.286-1.88.86-.38.575-.58 1.398-.58 2.47zm13.07 3.383c.5 0 1.01-.08 1.51-.237v1.55c-.23.1-.52.18-.88.25s-.73.1-1.12.1c-1.95 0-2.93-1.03-2.93-3.1v-5.237h-1.33v-.92l1.43-.76.71-2.06h1.28v2.16h2.77v1.56h-2.76v5.2c0 .5.13.86.37 1.1.25.24.58.35.98.35zm9.53 1.49-.41-1.353h-.07q-.705.886-1.41 1.21c-.47.212-1.08.32-1.82.32-.95 0-1.7-.26-2.23-.775s-.8-1.245-.8-2.188c0-1.002.38-1.758 1.12-2.268.75-.51 1.88-.79 3.4-.84l1.68-.05v-.52c0-.62-.14-1.08-.43-1.39s-.74-.46-1.35-.46c-.5 0-.97.07-1.43.22s-.9.32-1.32.52l-.67-1.48c.53-.27 1.11-.48 1.73-.63.63-.14 1.22-.21 1.78-.21 1.24 0 2.17.27 2.8.81s.94 1.39.94 2.54V492h-1.48zm-3.07-1.405c.75 0 1.35-.21 1.81-.63.46-.418.68-1.005.68-1.76v-.845l-1.24.05c-.97.03-1.68.2-2.12.49s-.66.73-.66 1.33c0 .43.13.77.39 1s.65.35 1.16.35zm11.06-.088c.51 0 1.01-.08 1.52-.238v1.55c-.23.1-.52.18-.88.25s-.73.1-1.12.1c-1.95 0-2.93-1.03-2.93-3.1v-5.24h-1.33v-.918l1.43-.758.71-2.058h1.28v2.162h2.77v1.562h-2.77v5.203c0 .5.13.866.38 1.103.25.24.58.357.98.357zm7.7 1.67q-2.265.001-3.54-1.324c-.85-.882-1.28-2.096-1.28-3.643 0-1.587.4-2.835 1.19-3.743s1.88-1.362 3.26-1.362c1.29 0 2.3.39 3.05 1.168.75.78 1.12 1.852 1.12 3.217v1.11h-6.48c.03.94.28 1.67.76 2.17s1.16.76 2.03.76c.58 0 1.11-.06 1.61-.17.5-.107 1.03-.287 1.6-.54v1.68q-.75.36-1.53.51c-.51.1-1.1.15-1.76.15zm-.38-8.51c-.65 0-1.18.208-1.57.624s-.63 1.022-.7 1.82h4.41c-.01-.803-.2-1.41-.58-1.824-.37-.414-.89-.62-1.54-.62z"/>
    <use xlink:href="#a" stroke="#000" stroke-dasharray="5" stroke-width="4" mask="url(#c)"/>
    <use xlink:href="#b" stroke="#000" stroke-dasharray="5" stroke-width="4" mask="url(#d)"/>
  </g>
</svg>
