<svg xmlns="http://www.w3.org/2000/svg" width="757" height="468" fill="none" stroke-linecap="square" stroke-miterlimit="10" viewBox="0 0 757 468">
  <path fill="#fff" d="M0 0h757v468H0z"/>
  <path stroke="#ccc" stroke-linecap="butt" d="M106.5 70.5v322m104-322v322m105-322v322m104-322v322m105-322v322m105-322v322m104-322v322"/>
  <path stroke="#333" stroke-linecap="butt" d="M85.5 392.5h648"/>
  <path stroke="#ccc" stroke-linecap="butt" d="M85.5 311.5h648m-648-80h648m-648-81h648m-648-80h648"/>
  <clipPath id="a">
    <path d="M85.4 70h648.2v322.6H85.4z"/>
  </clipPath>
  <path stroke="#4285f4" stroke-linecap="butt" stroke-width="2" d="m85.4 228.818 10.455-19.911 10.455-17.387 10.455-15.09 10.454-13.062 10.455-11.304 10.455-9.794 10.455-8.503 10.455-7.402 10.455-6.463 10.454-5.658 10.455-4.967 10.455-4.372 10.455-3.856 10.455-3.409 10.455-3.018 10.454-2.676 10.455-2.377 10.455-2.112 10.455-1.88 10.455-1.673 10.455-1.491 10.454-1.33 10.455-1.185 10.455-1.057 10.455-.944 10.455-.843 10.455-.752 10.454-.672 10.455-.6 10.455-.535 10.455-.479 10.455-.428 10.455-.382 10.454-.34 10.455-.306 10.455-.272 10.455-.244 10.455-.217 10.455-.195 10.455-.173 10.454-.155 10.455-.14 10.455-.123 10.455-.11 10.455-.1 10.455-.088 10.454-.08 10.455-.07 10.455-.063 10.455-.056 10.455-.05 10.455-.046 10.454-.04 10.455-.036 10.455-.032 10.455-.029 10.455-.025 10.455-.023 10.455-.02 10.454-.02 10.455-.016 10.455-.014" clip-path="url(#a)"/>
  <path d="M88.4 228.818a3 3 0 1 1-6 0 3 3 0 0 1 6 0m10.455-19.911a3 3 0 1 1-6 0 3 3 0 0 1 6 0m10.455-17.387a3 3 0 1 1-6 0 3 3 0 0 1 6 0m10.455-15.09a3 3 0 1 1-6 0 3 3 0 0 1 6 0m10.455-13.062a3 3 0 1 1-6 0 3 3 0 0 1 6 0m10.454-11.304a3 3 0 1 1-6 0 3 3 0 0 1 6 0m10.455-9.794a3 3 0 1 1-6 0 3 3 0 0 1 6 0m10.455-8.503a3 3 0 1 1-6 0 3 3 0 0 1 6 0m10.455-7.402a3 3 0 1 1-6 0 3 3 0 0 1 6 0m10.455-6.463a3 3 0 1 1-6 0 3 3 0 0 1 6 0m10.454-5.658a3 3 0 1 1-6 0 3 3 0 0 1 6 0m10.455-4.967a3 3 0 1 1-6 0 3 3 0 0 1 6 0m10.455-4.372a3 3 0 1 1-6 0 3 3 0 0 1 6 0m10.455-3.856a3 3 0 1 1-6 0 3 3 0 0 1 6 0m10.455-3.409a3 3 0 1 1-6 0 3 3 0 0 1 6 0m10.455-3.018a3 3 0 1 1-6 0 3 3 0 0 1 6 0m10.454-2.676a3 3 0 1 1-6 0 3 3 0 0 1 6 0m10.455-2.376a3 3 0 1 1-6 0 3 3 0 0 1 6 0m10.455-2.113a3 3 0 1 1-6 0 3 3 0 0 1 6 0m10.455-1.88a3 3 0 1 1-6 0 3 3 0 0 1 6 0m10.455-1.673a3 3 0 1 1-6 0 3 3 0 0 1 6 0m10.455-1.491a3 3 0 1 1-6 0 3 3 0 0 1 6 0m10.454-1.329a3 3 0 1 1-6 0 3 3 0 0 1 6 0m10.455-1.186a3 3 0 1 1-6 0 3 3 0 0 1 6 0m10.455-1.058a3 3 0 1 1-6 0 3 3 0 0 1 6 0m10.455-.943a3 3 0 1 1-6 0 3 3 0 0 1 6 0m10.455-.843a3 3 0 1 1-6 0 3 3 0 0 1 6 0m10.454-.752a3 3 0 1 1-6 0 3 3 0 0 1 6 0m10.456-.672a3 3 0 1 1-6 0 3 3 0 0 1 6 0m10.454-.6a3 3 0 1 1-6 0 3 3 0 0 1 6 0m10.455-.535a3 3 0 1 1-6 0 3 3 0 0 1 6 0m10.455-.479a3 3 0 1 1-6 0 3 3 0 0 1 6 0m10.455-.428a3 3 0 1 1-6 0 3 3 0 0 1 6 0m10.455-.382a3 3 0 1 1-6 0 3 3 0 0 1 6 0m10.455-.341a3 3 0 1 1-6 0 3 3 0 0 1 6 0m10.455-.305a3 3 0 1 1-6 0 3 3 0 0 1 6 0m10.454-.272a3 3 0 1 1-6 0 3 3 0 0 1 6 0m10.455-.244a3 3 0 1 1-6 0 3 3 0 0 1 6 0m10.455-.217a3 3 0 1 1-6 0 3 3 0 0 1 6 0m10.455-.195a3 3 0 1 1-6 0 3 3 0 0 1 6 0m10.455-.173a3 3 0 1 1-6 0 3 3 0 0 1 6 0m10.454-.155a3 3 0 1 1-6 0 3 3 0 0 1 6 0m10.455-.139a3 3 0 1 1-6 0 3 3 0 0 1 6 0m10.455-.125a3 3 0 1 1-6 0 3 3 0 0 1 6 0m10.455-.11a3 3 0 1 1-6 0 3 3 0 0 1 6 0m10.455-.099a3 3 0 1 1-6 0 3 3 0 0 1 6 0m10.455-.088a3 3 0 1 1-6 0 3 3 0 0 1 6 0m10.454-.079a3 3 0 1 1-6 0 3 3 0 0 1 6 0m10.455-.071a3 3 0 1 1-6 0 3 3 0 0 1 6 0m10.455-.063a3 3 0 1 1-6 0 3 3 0 0 1 6 0m10.455-.056a3 3 0 1 1-6 0 3 3 0 0 1 6 0m10.455-.051a3 3 0 1 1-6 0 3 3 0 0 1 6 0m10.455-.045a3 3 0 1 1-6 0 3 3 0 0 1 6 0m10.455-.04a3 3 0 1 1-6 0 3 3 0 0 1 6 0m10.454-.036a3 3 0 1 1-6 0 3 3 0 0 1 6 0m10.455-.032a3 3 0 1 1-6 0 3 3 0 0 1 6 0m10.455-.029a3 3 0 1 1-6 0 3 3 0 0 1 6 0m10.455-.025a3 3 0 1 1-6 0 3 3 0 0 1 6 0m10.454-.023a3 3 0 1 1-6 0 3 3 0 0 1 6 0m10.456-.021a3 3 0 1 1-6 0 3 3 0 0 1 6 0m10.454-.018a3 3 0 1 1-6 0 3 3 0 0 1 6 0m10.455-.017a3 3 0 1 1-6 0 3 3 0 0 1 6 0m10.455-.014a3 3 0 1 1-6 0 3 3 0 0 1 6 0" clip-path="url(#a)"/>
  <path fill="#000" d="M362.922 441.6v-8.594h3.25q.844 0 1.297.078.64.11 1.062.407.438.297.688.828.265.531.265 1.172 0 1.093-.703 1.859-.687.75-2.515.75h-2.204v3.5zm1.14-4.5h2.22q1.109 0 1.562-.406.469-.422.469-1.172 0-.531-.282-.906-.265-.391-.703-.516-.297-.078-1.062-.078h-2.204zm10.797 3.734q-.593.5-1.14.704-.531.203-1.156.203-1.032 0-1.579-.5t-.546-1.282q0-.453.203-.828.203-.39.546-.61.344-.233.766-.343.297-.094.938-.172 1.265-.14 1.875-.36v-.265q0-.656-.297-.922-.406-.343-1.203-.343-.735 0-1.094.265-.36.25-.531.907l-1.032-.141q.141-.656.47-1.063.327-.406.937-.625.609-.218 1.406-.218t1.297.187.734.469.328.719q.047.265.047.968v1.407q0 1.468.063 1.859.078.39.28.75h-1.108q-.157-.328-.204-.766m-.093-2.359q-.579.234-1.72.406-.655.094-.921.219-.266.11-.422.328-.14.219-.14.5 0 .422.312.703.328.282.938.282t1.078-.266q.484-.266.703-.734.172-.36.172-1.047zm2.609 1.266 1.031-.157q.094.625.485.954.406.328 1.14.328.719 0 1.063-.282.36-.296.36-.703 0-.36-.313-.562-.22-.14-1.079-.36-1.156-.296-1.609-.5-.437-.218-.672-.593-.234-.375-.234-.844 0-.406.187-.766.188-.36.516-.593.25-.172.672-.297t.922-.125q.719 0 1.265.218.563.204.829.563.265.36.359.953l-1.031.14q-.063-.468-.407-.734-.328-.281-.953-.281-.719 0-1.031.25-.312.234-.312.563 0 .203.125.359.14.172.406.281.156.063.937.266 1.125.312 1.563.5.437.187.687.547.25.359.25.906 0 .531-.312 1-.297.453-.875.719-.578.25-1.313.25-1.219 0-1.86-.5-.624-.516-.796-1.5m6 0 1.031-.157q.094.625.485.954.406.328 1.14.328.719 0 1.063-.282.36-.296.36-.703 0-.36-.313-.562-.22-.14-1.079-.36-1.156-.296-1.609-.5-.437-.218-.672-.593-.234-.375-.234-.844 0-.406.187-.766.188-.36.516-.593.25-.172.672-.297t.922-.125q.719 0 1.265.218.563.204.829.563.265.36.359.953l-1.031.14q-.063-.468-.407-.734-.328-.281-.953-.281-.719 0-1.031.25-.312.234-.312.563 0 .203.125.359.14.172.406.281.156.063.937.266 1.125.312 1.563.5.437.187.687.547.25.359.25.906 0 .531-.312 1-.297.453-.875.719-.578.25-1.313.25-1.219 0-1.86-.5-.624-.516-.796-1.5m7.563 1.859-1.907-6.219h1.094l.984 3.594.375 1.328q.032-.094.329-1.281l.984-3.64h1.078l.938 3.609.312 1.187.36-1.203 1.062-3.594h1.031l-1.953 6.219h-1.094l-.984-3.734-.25-1.047-1.25 4.781zm7.468-3.11q0-1.734.953-2.562.797-.687 1.954-.687 1.28 0 2.093.843.828.829.828 2.313 0 1.203-.359 1.89-.36.688-1.062 1.079-.688.375-1.5.375-1.297 0-2.11-.828-.797-.844-.797-2.422m1.078 0q0 1.188.516 1.782.531.594 1.313.594.796 0 1.312-.594t.516-1.813q0-1.156-.532-1.75-.515-.593-1.296-.593-.782 0-1.313.593-.516.579-.516 1.782m6.297 3.11v-6.219h.953v.938q.36-.656.657-.86.312-.218.687-.218.531 0 1.078.328l-.36.984q-.39-.234-.765-.234-.36 0-.64.219-.266.203-.375.578-.188.562-.188 1.218v3.266zm8.047 0v-.781q-.594.922-1.734.922-.75 0-1.375-.407-.625-.421-.969-1.156t-.344-1.687q0-.922.313-1.688.312-.765.937-1.156.625-.406 1.39-.406.563 0 1 .234t.72.61v-3.079h1.046v8.594zm-3.328-3.11q0 1.204.5 1.798.5.578 1.188.578t1.171-.563.485-1.719q0-1.28-.5-1.875-.485-.593-1.203-.593-.704 0-1.172.578-.469.562-.469 1.797m9.375 3.11v-8.594h1.14v7.578h4.235v1.016zm11.172-2 1.094.125q-.25.953-.954 1.484-.703.532-1.78.532-1.36 0-2.173-.844-.796-.844-.796-2.36 0-1.562.812-2.421.813-.875 2.094-.875 1.25 0 2.031.843.797.844.797 2.391v.281h-4.64q.062 1.032.577 1.578.516.532 1.297.532.578 0 .985-.297.421-.313.656-.969m-3.453-1.703h3.469q-.063-.797-.391-1.188-.516-.609-1.313-.609-.734 0-1.234.484-.484.485-.531 1.313m6.203 3.703v-6.219h.937v.875q.688-1.015 1.985-1.015.562 0 1.031.203.484.203.719.531t.328.766q.047.297.047 1.03v3.829h-1.047v-3.781q0-.656-.125-.969t-.438-.5q-.312-.203-.734-.203-.672 0-1.172.437-.484.422-.484 1.61v3.406zm6.797.516 1.031.156q.063.469.36.687.39.297 1.062.297.734 0 1.125-.297.406-.296.547-.812.094-.328.078-1.36-.688.813-1.719.813-1.281 0-1.984-.922-.703-.937-.703-2.219 0-.89.312-1.64.328-.766.938-1.172t1.437-.406q1.11 0 1.828.89v-.75h.969v5.375q0 1.453-.297 2.063t-.937.953q-.641.36-1.579.36-1.109 0-1.796-.5t-.672-1.516m.875-3.735q0 1.219.484 1.782.485.562 1.219.562t1.219-.562q.5-.563.5-1.75 0-1.141-.516-1.72-.5-.577-1.219-.577-.703 0-1.203.578-.484.562-.484 1.687m8.625 2.282.156.921q-.453.094-.797.094-.578 0-.89-.172-.313-.187-.454-.484-.125-.297-.125-1.25v-3.578h-.765v-.813h.765v-1.547l1.047-.625v2.172h1.063v.813h-1.063v3.64q0 .454.047.579.063.125.188.203t.359.078q.188 0 .469-.031m.703.937v-8.594h1.047v3.078q.734-.843 1.86-.843.702 0 1.202.28.516.267.735.75.218.47.218 1.392v3.937h-1.046v-3.937q0-.797-.344-1.157t-.969-.36q-.469 0-.89.25-.407.235-.594.657-.172.406-.172 1.14v3.407zM34.4 265.878h-8.594v-3.25q0-.844.078-1.297.11-.64.407-1.062.297-.438.828-.688.531-.265 1.172-.265 1.093 0 1.859.703.75.687.75 2.515v2.204h3.5zm-4.5-1.14v-2.22q0-1.109-.406-1.562-.422-.469-1.172-.469-.531 0-.906.282-.391.265-.516.703-.078.297-.078 1.062v2.204zm4.5-6.72h-6.219v-.952h.938q-.656-.36-.86-.657-.218-.312-.218-.687 0-.531.328-1.078l.984.36q-.234.39-.234.765 0 .36.219.64.203.266.578.375.562.188 1.218.188H34.4zm-3.11-3.624q-1.734 0-2.562-.953-.687-.797-.687-1.953 0-1.282.843-2.094.829-.828 2.313-.828 1.203 0 1.89.359.688.36 1.079 1.063.375.687.375 1.5 0 1.296-.828 2.109-.844.797-2.422.797m0-1.078q1.188 0 1.782-.516.594-.531.594-1.312 0-.797-.594-1.313t-1.813-.516q-1.156 0-1.75.532-.593.515-.593 1.297 0 .78.593 1.312.579.516 1.782.516m3.11-7.282v.985h-8.594v-1.063h3.063q-.828-.672-.828-1.703 0-.578.234-1.078.219-.516.64-.844.423-.343 1.016-.531.594-.187 1.266-.187 1.594 0 2.469.796.875.797.875 1.891 0 1.11-.922 1.734zm-3.156.016q1.11 0 1.61-.312.812-.5.812-1.344 0-.688-.594-1.188-.594-.515-1.797-.515-1.219 0-1.797.484t-.578 1.172.61 1.203q.593.5 1.734.5m2.39-10.11q.5.594.704 1.141.203.532.203 1.157 0 1.03-.5 1.578-.5.547-1.282.547-.453 0-.828-.204-.39-.203-.61-.546-.233-.344-.343-.766-.094-.297-.172-.938-.14-1.265-.36-1.875h-.265q-.656 0-.922.297-.343.407-.343 1.203 0 .735.265 1.094.25.36.907.531l-.141 1.032q-.656-.141-1.063-.47-.406-.327-.625-.937-.218-.609-.218-1.406t.187-1.297.469-.734.719-.328q.265-.047.968-.047h1.407q1.468 0 1.859-.063.39-.078.75-.28v1.109q-.328.156-.766.203m-2.359.094q.234.579.406 1.72.094.655.219.921.11.266.328.422.219.14.5.14.422 0 .703-.312.282-.328.282-.937 0-.61-.266-1.079-.266-.484-.734-.703-.36-.172-1.047-.172zm3.125-4v.985h-8.594v-1.063h3.063q-.828-.672-.828-1.703 0-.578.234-1.078.219-.516.64-.844.423-.343 1.016-.531.594-.187 1.266-.187 1.594 0 2.469.796.875.797.875 1.891 0 1.11-.922 1.734zm-3.156.016q1.11 0 1.61-.312.812-.5.812-1.344 0-.688-.594-1.188-.594-.515-1.797-.515-1.219 0-1.797.484t-.578 1.172.61 1.203q.593.5 1.734.5m-4.219-6.047h-1.219v-1.062h1.219zm7.375 0h-6.219v-1.062H34.4zm0-2.969h-8.594v-1.062H34.4zm-7.375-3.03h-1.219v-1.063h1.219zm7.375 0h-6.219v-1.063H34.4zm-.937-5.298.921-.156q.094.453.094.797 0 .578-.172.89-.187.313-.484.454-.297.125-1.25.125h-3.578v.765h-.813v-.765h-1.547l-.625-1.047h2.172v-1.063h.813v1.063h3.64q.454 0 .579-.047.125-.063.203-.188t.078-.359q0-.187-.031-.469m3.328-.656-.985.125q.094-.344.094-.61 0-.343-.125-.546-.11-.219-.312-.36-.172-.093-.797-.328-.078-.015-.25-.093l-6.235 2.375v-1.141l3.594-1.297q.688-.25 1.453-.453-.734-.188-1.422-.438l-3.625-1.328v-1.047l6.328 2.36q1.016.39 1.407.594.53.28.765.656.25.36.25.86 0 .296-.14.671M55.9 392.366q0-1.532.313-2.453.312-.938.921-1.438.625-.5 1.563-.5.687 0 1.203.281.531.282.875.813.344.515.531 1.265t.188 2.032q0 1.515-.313 2.437-.297.922-.922 1.438-.609.5-1.562.5-1.235 0-1.953-.891-.844-1.062-.844-3.484m1.078 0q0 2.109.5 2.812t1.219.703q.734 0 1.219-.703.5-.703.5-2.812 0-2.125-.5-2.813-.485-.703-1.235-.703-.718 0-1.156.61-.547.78-.547 2.906m6.516 4.234v-1.203h1.203v1.203zm2.406-4.234q0-1.532.313-2.453.312-.938.921-1.438.625-.5 1.563-.5.687 0 1.203.281.531.282.875.813.344.515.531 1.265t.188 2.032q0 1.515-.313 2.437-.297.922-.922 1.438-.609.5-1.562.5-1.234 0-1.953-.891-.844-1.062-.844-3.484m1.078 0q0 2.109.5 2.812t1.219.703q.734 0 1.219-.703.5-.703.5-2.812 0-2.125-.5-2.813-.485-.703-1.235-.703-.718 0-1.156.61-.547.78-.547 2.906m5.922 0q0-1.532.313-2.453.312-.938.921-1.438.625-.5 1.563-.5.687 0 1.203.281.531.282.875.813.344.515.531 1.265t.188 2.032q0 1.515-.313 2.437-.297.922-.922 1.438-.609.5-1.562.5-1.234 0-1.953-.891-.844-1.062-.844-3.484m1.078 0q0 2.109.5 2.812t1.219.703q.734 0 1.219-.703.5-.703.5-2.812 0-2.125-.5-2.813-.485-.703-1.235-.703-.718 0-1.156.61-.547.78-.547 2.906M55.9 311.716q0-1.532.313-2.454.312-.937.921-1.437.625-.5 1.563-.5.687 0 1.203.281.531.281.875.813.344.515.531 1.265t.188 2.032q0 1.515-.313 2.437-.297.922-.922 1.438-.609.5-1.562.5-1.235 0-1.953-.891-.844-1.062-.844-3.484m1.078 0q0 2.109.5 2.812t1.219.703q.734 0 1.219-.703.5-.703.5-2.812 0-2.125-.5-2.813-.485-.703-1.235-.703-.718 0-1.156.61-.547.78-.547 2.906m6.516 4.234v-1.203h1.203v1.203zm7.953-1.016v1.016h-5.688q0-.375.125-.734.22-.579.688-1.141.484-.562 1.39-1.297 1.407-1.156 1.891-1.828.5-.672.5-1.266 0-.625-.453-1.047-.453-.437-1.172-.437-.765 0-1.219.453-.453.453-.468 1.266l-1.078-.11q.109-1.218.828-1.843.734-.641 1.968-.641 1.235 0 1.954.688t.718 1.703q0 .515-.218 1.015-.204.485-.704 1.047-.484.547-1.609 1.5-.953.797-1.234 1.094-.266.281-.438.562zM72.9 313.7l1.11-.094q.124.813.562 1.219.453.406 1.094.406.75 0 1.28-.578.532-.578.532-1.516 0-.906-.515-1.421-.5-.532-1.329-.532-.5 0-.921.235-.407.234-.641.594l-.984-.125.828-4.407h4.28v1H74.76l-.453 2.313q.766-.547 1.61-.547 1.125 0 1.89.781.782.781.782 2.016 0 1.156-.672 2.015-.828 1.032-2.25 1.032-1.172 0-1.922-.657-.735-.656-.844-1.734M55.9 231.066q0-1.532.313-2.453.312-.938.921-1.438.625-.5 1.563-.5.687 0 1.203.281.531.282.875.813.344.515.531 1.265t.188 2.032q0 1.515-.313 2.437-.297.922-.922 1.438-.609.5-1.562.5-1.235 0-1.953-.891-.844-1.062-.844-3.484m1.078 0q0 2.109.5 2.812t1.219.703q.734 0 1.219-.703.5-.703.5-2.812 0-2.125-.5-2.813-.485-.703-1.235-.703-.718 0-1.156.61-.547.78-.547 2.906m6.516 4.234v-1.203h1.203v1.203zm2.406-2.25 1.11-.094q.124.813.562 1.219.453.406 1.094.406.75 0 1.28-.578.532-.578.532-1.515 0-.907-.515-1.422-.5-.532-1.329-.532-.5 0-.921.235-.407.234-.641.594l-.984-.125.828-4.407h4.28v1H67.76l-.453 2.313q.766-.547 1.61-.547 1.125 0 1.89.781.782.781.782 2.016 0 1.156-.672 2.015-.828 1.032-2.25 1.032-1.172 0-1.922-.657-.735-.656-.844-1.734m7-1.984q0-1.532.313-2.453.312-.938.921-1.438.625-.5 1.563-.5.687 0 1.203.281.531.282.875.813.344.515.531 1.265t.188 2.032q0 1.515-.313 2.437-.297.922-.922 1.438-.609.5-1.562.5-1.234 0-1.953-.891-.844-1.062-.844-3.484m1.078 0q0 2.109.5 2.812t1.219.703q.734 0 1.219-.703.5-.703.5-2.812 0-2.125-.5-2.813-.485-.703-1.235-.703-.718 0-1.156.61-.547.78-.547 2.906M55.9 150.416q0-1.532.313-2.453.312-.938.921-1.438.625-.5 1.563-.5.687 0 1.203.281.531.281.875.813.344.515.531 1.265t.188 2.032q0 1.515-.313 2.437-.297.922-.922 1.438-.609.5-1.562.5-1.235 0-1.953-.891-.844-1.062-.844-3.484m1.078 0q0 2.109.5 2.812t1.219.703q.734 0 1.219-.703.5-.703.5-2.812 0-2.125-.5-2.813-.485-.703-1.235-.703-.718 0-1.156.61-.547.78-.547 2.906m6.516 4.234v-1.203h1.203v1.203zm2.469-7.469v-1.015h5.562v.828q-.812.875-1.625 2.328-.797 1.437-1.234 2.969-.328 1.078-.407 2.359h-1.093q.015-1.016.39-2.453.39-1.438 1.094-2.766.719-1.328 1.531-2.25zM72.9 152.4l1.11-.094q.124.813.562 1.219.453.406 1.094.406.75 0 1.28-.578.532-.578.532-1.516 0-.906-.515-1.421-.5-.532-1.329-.532-.5 0-.921.235-.407.234-.641.594l-.984-.125.828-4.407h4.28v1H74.76l-.453 2.313q.766-.547 1.61-.547 1.125 0 1.89.781.782.781.782 2.016 0 1.156-.672 2.015-.828 1.032-2.25 1.032-1.172 0-1.922-.657-.735-.656-.844-1.734M59.869 74h-1.047v-6.719q-.39.36-1.016.735-.61.359-1.093.53v-1.015q.874-.422 1.53-1 .673-.594.954-1.156h.672zm3.625 0v-1.203h1.203V74zm2.406-4.234q0-1.532.313-2.454.312-.937.921-1.437.625-.5 1.563-.5.687 0 1.203.281.531.281.875.813.344.515.531 1.265t.188 2.032q0 1.515-.313 2.437-.297.922-.922 1.438-.609.5-1.562.5-1.234 0-1.953-.891-.844-1.062-.844-3.484m1.078 0q0 2.109.5 2.812t1.219.703q.734 0 1.219-.703.5-.703.5-2.812 0-2.125-.5-2.813-.485-.703-1.235-.703-.718 0-1.156.61-.547.78-.547 2.906m5.922 0q0-1.532.313-2.454.312-.937.921-1.437.625-.5 1.563-.5.687 0 1.203.281.531.281.875.813.344.515.531 1.265t.188 2.032q0 1.515-.313 2.437-.297.922-.922 1.438-.609.5-1.562.5-1.234 0-1.953-.891-.844-1.062-.844-3.484m1.078 0q0 2.109.5 2.812t1.219.703q.734 0 1.219-.703.5-.703.5-2.812 0-2.125-.5-2.813-.485-.703-1.235-.703-.718 0-1.156.61-.547.78-.547 2.906m29.8 339.834h-1.046v-6.719q-.391.36-1.016.735-.61.359-1.094.53v-1.015q.875-.422 1.531-1 .672-.593.954-1.156h.671zm3.032-4.234q0-1.532.312-2.453.313-.938.922-1.438.625-.5 1.563-.5.687 0 1.203.281.53.282.875.813.343.515.53 1.265.188.75.188 2.032 0 1.515-.312 2.437-.297.922-.922 1.438-.61.5-1.562.5-1.235 0-1.954-.891-.843-1.062-.843-3.484m1.078 0q0 2.109.5 2.812t1.219.703q.734 0 1.218-.703.5-.703.5-2.812 0-2.125-.5-2.813-.484-.703-1.234-.703-.719 0-1.156.61-.547.78-.547 2.906m102.017 3.218v1.016h-5.688q0-.375.125-.734.22-.578.688-1.141.484-.562 1.39-1.297 1.407-1.156 1.891-1.828.5-.672.5-1.266 0-.625-.453-1.046-.453-.438-1.172-.438-.765 0-1.219.453-.453.453-.468 1.266l-1.078-.11q.109-1.218.828-1.843.734-.641 1.968-.641 1.235 0 1.954.688t.718 1.703q0 .515-.218 1.015-.204.485-.704 1.047-.484.547-1.609 1.5-.953.797-1.234 1.094-.266.281-.438.562zm1.453-3.218q0-1.532.313-2.453.312-.938.921-1.438.625-.5 1.563-.5.687 0 1.203.281.531.282.875.813.344.515.531 1.265t.188 2.032q0 1.515-.313 2.437-.297.922-.922 1.438-.609.5-1.562.5-1.234 0-1.953-.891-.844-1.062-.844-3.484m1.078 0q0 2.109.5 2.812t1.219.703q.734 0 1.219-.703.5-.703.5-2.812 0-2.125-.5-2.813-.485-.703-1.235-.703-.718 0-1.156.61-.547.78-.547 2.906m96.47 1.968 1.063-.14q.172.89.61 1.297.437.39 1.062.39.75 0 1.265-.515.516-.516.516-1.282 0-.718-.484-1.187-.469-.484-1.203-.484-.297 0-.75.125l.125-.938q.109.016.171.016.672 0 1.204-.344.546-.36.546-1.094 0-.578-.39-.953-.39-.39-1.016-.39-.61 0-1.031.39-.406.39-.516 1.156l-1.062-.187q.187-1.047.875-1.625.687-.594 1.703-.594.703 0 1.297.313.594.296.906.812t.313 1.11q0 .546-.297 1.015-.297.453-.875.719.75.172 1.172.734.421.547.421 1.39 0 1.126-.828 1.907-.812.781-2.062.781-1.125 0-1.875-.672-.75-.687-.86-1.75m7-1.968q0-1.532.313-2.453.312-.938.922-1.438.625-.5 1.562-.5.688 0 1.203.281.532.282.875.813.344.515.532 1.265.187.75.187 2.032 0 1.515-.312 2.437-.297.922-.922 1.438-.61.5-1.563.5-1.234 0-1.953-.891-.844-1.062-.844-3.484m1.079 0q0 2.109.5 2.812t1.218.703q.735 0 1.22-.703.5-.703.5-2.812 0-2.125-.5-2.813-.485-.703-1.235-.703-.719 0-1.157.61-.546.78-.546 2.906m99.845 4.234v-2.062h-3.719v-.97l3.922-5.562h.86v5.563h1.156v.969h-1.157v2.062zm0-3.031v-3.86l-2.688 3.86zm3.625-1.203q0-1.532.312-2.453.313-.938.922-1.438.625-.5 1.563-.5.687 0 1.203.281.531.282.875.813.344.515.531 1.265t.188 2.032q0 1.515-.313 2.437-.297.922-.922 1.438-.61.5-1.562.5-1.235 0-1.953-.891-.844-1.062-.844-3.484m1.078 0q0 2.109.5 2.812t1.219.703q.734 0 1.218-.703.5-.703.5-2.812 0-2.125-.5-2.813-.484-.703-1.234-.703-.719 0-1.156.61-.547.78-.547 2.906m96.47 1.984 1.11-.094q.125.813.562 1.219.453.406 1.094.406.75 0 1.281-.578t.531-1.515q0-.907-.515-1.422-.5-.532-1.328-.532-.5 0-.922.235-.407.234-.64.594l-.985-.125.828-4.407h4.281v1h-3.437l-.454 2.313q.766-.547 1.61-.547 1.125 0 1.89.781.782.781.782 2.016 0 1.156-.672 2.015-.828 1.032-2.25 1.032-1.172 0-1.922-.657-.734-.656-.844-1.734m7-1.984q0-1.532.313-2.453.312-.938.922-1.438.625-.5 1.562-.5.688 0 1.203.281.531.282.875.813.344.515.531 1.265t.188 2.032q0 1.515-.312 2.437-.297.922-.922 1.438-.61.5-1.563.5-1.234 0-1.953-.891-.844-1.062-.844-3.484m1.078 0q0 2.109.5 2.812t1.22.703q.733 0 1.218-.703.5-.703.5-2.812 0-2.125-.5-2.813-.485-.703-1.235-.703-.718 0-1.156.61-.547.78-.547 2.906m101.939-2.25-1.047.078q-.14-.625-.39-.906-.438-.454-1.063-.454-.5 0-.89.282-.485.375-.782 1.078-.28.687-.296 1.969.375-.579.921-.86.563-.281 1.172-.281 1.047 0 1.782.781.75.781.75 2 0 .813-.36 1.516-.344.687-.953 1.062-.61.36-1.375.36-1.328 0-2.156-.97-.828-.968-.828-3.187 0-2.5.922-3.625.796-.984 2.156-.984 1.015 0 1.656.578.656.563.781 1.563m-4.297 3.703q0 .547.22 1.047.234.484.64.75.422.265.89.265.657 0 1.141-.531.484-.547.484-1.469 0-.89-.484-1.406-.469-.516-1.187-.516-.72 0-1.22.516-.484.516-.484 1.344m5.829-1.453q0-1.532.312-2.453.313-.938.922-1.438.625-.5 1.563-.5.687 0 1.203.281.53.282.875.813.343.515.53 1.265.188.75.188 2.032 0 1.515-.312 2.437-.297.922-.922 1.438-.61.5-1.562.5-1.235 0-1.954-.891-.843-1.062-.843-3.484m1.078 0q0 2.109.5 2.812t1.218.703q.735 0 1.22-.703.5-.703.5-2.812 0-2.125-.5-2.813-.485-.703-1.235-.703-.719 0-1.156.61-.547.78-.547 2.906m96.533-3.235v-1.015h5.562v.828q-.812.875-1.625 2.328-.797 1.437-1.234 2.969-.328 1.078-.407 2.359h-1.093q.015-1.016.39-2.453.39-1.438 1.094-2.766.719-1.328 1.531-2.25zm6.937 3.235q0-1.532.313-2.453.312-.938.921-1.438.625-.5 1.563-.5.687 0 1.203.281.531.282.875.813.344.515.531 1.265t.188 2.032q0 1.515-.313 2.437-.297.922-.922 1.438-.609.5-1.562.5-1.235 0-1.953-.891-.844-1.062-.844-3.484m1.078 0q0 2.109.5 2.812t1.219.703q.734 0 1.219-.703.5-.703.5-2.812 0-2.125-.5-2.813-.485-.703-1.235-.703-.718 0-1.156.61-.547.78-.547 2.906"/>
  <path fill="#757575" d="M24.947 42.4V28.088h5.39q1.438 0 2.188.125 1.047.187 1.766.687.718.484 1.14 1.375.438.89.438 1.953 0 1.828-1.172 3.094-1.156 1.25-4.188 1.25h-3.672V42.4zm1.89-7.516h3.704q1.828 0 2.593-.672.782-.687.782-1.937 0-.89-.453-1.531-.454-.64-1.188-.844-.484-.125-1.781-.125h-3.657zm10.86 7.516V32.025h1.578v1.578q.61-1.11 1.125-1.453.516-.36 1.125-.36.89 0 1.813.563l-.61 1.64q-.64-.39-1.281-.39-.578 0-1.047.36-.453.343-.656.953-.282.937-.282 2.047V42.4zm6.375-5.187q0-2.876 1.594-4.266 1.343-1.156 3.265-1.156 2.14 0 3.485 1.406 1.359 1.406 1.359 3.875 0 2-.594 3.156-.593 1.14-1.75 1.781-1.14.625-2.5.625-2.187 0-3.531-1.39-1.328-1.407-1.328-4.032m1.797 0q0 2 .86 2.984.874.984 2.202.984 1.313 0 2.172-.984.875-1 .875-3.047 0-1.922-.875-2.906-.875-1-2.172-1-1.328 0-2.203 1-.86.984-.86 2.968M57.337 42.4h-1.625V28.088h1.75v5.109q1.125-1.406 2.844-1.406.953 0 1.813.39t1.406 1.094q.547.688.86 1.672t.312 2.11q0 2.671-1.313 4.124t-3.156 1.453-2.89-1.53zm-.015-5.266q0 1.86.5 2.703.844 1.344 2.25 1.344 1.156 0 1.984-1 .844-1 .844-2.984 0-2.031-.812-2.985-.797-.968-1.938-.968-1.156 0-2 1-.828 1-.828 2.89m16.172 3.985q-.985.828-1.89 1.172-.907.343-1.938.343-1.703 0-2.625-.828-.922-.843-.922-2.14 0-.766.344-1.391.359-.625.921-1 .563-.39 1.266-.594.516-.125 1.563-.265 2.125-.25 3.125-.594.015-.36.015-.469 0-1.062-.5-1.516-.672-.593-2-.593-1.25 0-1.844.437-.578.438-.859 1.547l-1.719-.234q.235-1.11.766-1.782.531-.687 1.547-1.046 1.015-.375 2.36-.375 1.327 0 2.155.312.829.313 1.22.797.39.469.546 1.188.094.453.094 1.624v2.344q0 2.453.11 3.11.109.64.452 1.234h-1.843q-.266-.547-.344-1.281m-.156-3.922q-.954.39-2.875.656-1.079.156-1.532.36-.437.187-.687.562t-.25.844q0 .703.531 1.172t1.563.468q1.015 0 1.796-.437.797-.453 1.172-1.219.282-.61.282-1.766zm6 5.203h-1.625V28.088h1.75v5.109q1.125-1.406 2.843-1.406.953 0 1.813.39t1.406 1.094q.547.688.86 1.672t.312 2.11q0 2.671-1.313 4.124t-3.156 1.453-2.89-1.53zm-.016-5.266q0 1.86.5 2.703.844 1.344 2.25 1.344 1.156 0 1.984-1 .844-1 .844-2.984 0-2.031-.812-2.985-.797-.968-1.938-.968-1.156 0-2 1-.828 1-.828 2.89m9.406-7.03v-2.016h1.766v2.015zm0 12.296V32.025h1.766V42.4zm3.953 0V28.088h1.75V42.4zm4.047-12.297v-2.015h1.766v2.015zm0 12.297V32.025h1.766V42.4zm7.828-1.578.25 1.562q-.734.157-1.328.157-.953 0-1.484-.297-.516-.313-.735-.797-.218-.5-.218-2.078V33.4h-1.282v-1.375h1.282v-2.562l1.75-1.063v3.625h1.765V33.4h-1.765v6.063q0 .75.093.968.094.203.297.344.219.125.61.125.28 0 .765-.078m2.078 5.578-.187-1.656q.578.156 1 .156.594 0 .937-.203.36-.188.579-.531.171-.266.546-1.313.047-.156.157-.437l-3.938-10.391h1.89l2.157 6.016q.422 1.14.75 2.39.313-1.203.719-2.36l2.219-6.046h1.765l-3.953 10.547q-.625 1.719-.984 2.36-.47.874-1.078 1.265-.594.406-1.438.406-.516 0-1.14-.203m15.438-9.187q0-2.876 1.594-4.266 1.343-1.156 3.265-1.156 2.14 0 3.485 1.406 1.359 1.406 1.359 3.875 0 2-.594 3.156-.594 1.14-1.75 1.781-1.14.625-2.5.625-2.187 0-3.531-1.39-1.328-1.407-1.328-4.032m1.797 0q0 2 .86 2.984.874.984 2.202.984 1.313 0 2.172-.984.875-1 .875-3.047 0-1.922-.875-2.906-.875-1-2.172-1-1.328 0-2.203 1-.86.984-.86 2.968m10.265 5.187v-9h-1.546v-1.375h1.546v-1.094q0-1.047.188-1.562.25-.688.89-1.11.641-.421 1.797-.421.75 0 1.641.171l-.266 1.532q-.546-.094-1.03-.094-.798 0-1.142.344-.328.343-.328 1.28v.954h2.032V33.4h-2.032v9zm18.36-1.281q-.985.828-1.89 1.172-.907.343-1.938.343-1.703 0-2.625-.828-.922-.843-.922-2.14 0-.766.344-1.391.359-.625.921-1 .563-.39 1.266-.594.516-.125 1.563-.265 2.125-.25 3.125-.594.015-.36.015-.469 0-1.062-.5-1.516-.672-.593-2-.593-1.25 0-1.844.437-.578.438-.859 1.547l-1.719-.234q.235-1.11.766-1.782.531-.687 1.547-1.046 1.015-.375 2.36-.375 1.327 0 2.155.312.829.313 1.22.797.39.469.546 1.188.094.453.094 1.624v2.344q0 2.453.11 3.11.108.64.452 1.234h-1.844q-.265-.547-.343-1.281m-.156-3.922q-.954.39-2.875.656-1.079.156-1.532.36-.437.187-.687.562t-.25.844q0 .703.531 1.172t1.563.468q1.015 0 1.796-.437.797-.453 1.172-1.219.281-.61.281-1.766zm20.828.187 1.89.47q-.594 2.343-2.14 3.577-1.547 1.219-3.797 1.219-2.313 0-3.766-.937-1.437-.954-2.203-2.735-.75-1.797-.75-3.844 0-2.234.844-3.89.86-1.672 2.437-2.531 1.578-.875 3.469-.875 2.156 0 3.61 1.093 1.468 1.094 2.046 3.078l-1.86.438q-.5-1.563-1.452-2.266-.938-.718-2.375-.718-1.656 0-2.766.796-1.11.782-1.562 2.125-.438 1.328-.438 2.735 0 1.828.531 3.203.532 1.36 1.657 2.031 1.125.672 2.422.672 1.593 0 2.703-.922t1.5-2.719m10.328 3.735q-.985.828-1.89 1.172-.907.343-1.938.343-1.703 0-2.625-.828-.922-.843-.922-2.14 0-.766.344-1.391.359-.625.921-1 .563-.39 1.266-.594.516-.125 1.563-.265 2.125-.25 3.125-.594.015-.36.015-.469 0-1.062-.5-1.516-.672-.593-2-.593-1.25 0-1.844.437-.578.438-.859 1.547l-1.719-.234q.235-1.11.766-1.782.531-.687 1.547-1.046 1.015-.375 2.36-.375 1.327 0 2.155.312.829.313 1.22.797.39.469.546 1.188.094.453.094 1.624v2.344q0 2.453.11 3.11.108.64.452 1.234h-1.844q-.265-.547-.343-1.281m-.156-3.922q-.954.39-2.875.656-1.079.156-1.532.36-.437.187-.687.562t-.25.844q0 .703.531 1.172t1.563.468q1.015 0 1.796-.437.797-.453 1.172-1.219.281-.61.281-1.766zm4.375 5.203V32.025h1.593v1.484q1.14-1.718 3.297-1.718.938 0 1.719.343.797.328 1.187.875.391.547.547 1.297.094.5.094 1.719V42.4h-1.766v-6.312q0-1.079-.203-1.61t-.734-.844q-.516-.312-1.219-.312-1.125 0-1.937.719-.813.703-.813 2.687V42.4zm17.734 0v-1.312q-.984 1.546-2.906 1.546-1.235 0-2.282-.687-1.03-.688-1.609-1.906-.562-1.22-.562-2.813 0-1.562.515-2.828.516-1.266 1.547-1.937 1.047-.672 2.313-.672.937 0 1.671.406.735.39 1.204 1.015v-5.124h1.734V42.4zm-5.563-5.172q0 1.984.844 2.969t1.984.984q1.157 0 1.954-.937.812-.938.812-2.875 0-2.125-.828-3.125-.812-1-2.016-1-1.171 0-1.968.968-.782.954-.782 3.016m9.844-7.125v-2.015h1.766v2.015zm0 12.297V32.025h1.766V42.4zm10.719 0v-1.312q-.984 1.546-2.906 1.546-1.235 0-2.282-.687-1.03-.688-1.609-1.906-.562-1.22-.562-2.813 0-1.562.515-2.828.516-1.266 1.547-1.937 1.047-.672 2.313-.672.937 0 1.671.406.735.39 1.204 1.015v-5.124h1.734V42.4zm-5.563-5.172q0 1.984.844 2.969t1.984.984q1.157 0 1.954-.937.812-.938.812-2.875 0-2.125-.828-3.125-.812-1-2.016-1-1.171 0-1.968.968-.782.954-.782 3.016m16.61 3.89q-.985.829-1.89 1.173-.907.343-1.938.343-1.703 0-2.625-.828-.922-.843-.922-2.14 0-.766.344-1.391.359-.625.921-1 .563-.39 1.266-.594.516-.125 1.563-.265 2.125-.25 3.125-.594.015-.36.015-.469 0-1.062-.5-1.516-.672-.593-2-.593-1.25 0-1.844.437-.578.438-.859 1.547l-1.719-.234q.235-1.11.766-1.782.531-.687 1.547-1.046 1.015-.375 2.36-.375 1.327 0 2.155.312.829.313 1.22.797.39.469.546 1.188.094.453.094 1.624v2.344q0 2.453.11 3.11.108.64.452 1.234h-1.844q-.265-.547-.343-1.281m-.156-3.921q-.954.39-2.875.656-1.079.156-1.532.36-.437.187-.687.562t-.25.844q0 .703.531 1.172t1.563.468q1.015 0 1.796-.437.797-.453 1.172-1.219.281-.61.281-1.766zm8.218 3.625.25 1.562q-.734.157-1.328.157-.953 0-1.484-.297-.516-.313-.735-.797-.218-.5-.218-2.078V33.4h-1.282v-1.375h1.282v-2.562l1.75-1.063v3.625h1.765V33.4h-1.765v6.063q0 .75.093.968.094.203.297.344.219.125.61.125.28 0 .765-.078m9.266-1.766 1.812.235q-.421 1.578-1.593 2.468-1.157.875-2.97.875-2.265 0-3.608-1.39-1.329-1.407-1.329-3.938 0-2.625 1.344-4.062 1.344-1.453 3.5-1.453 2.078 0 3.39 1.421 1.329 1.407 1.329 3.985 0 .156-.016.469h-7.734q.094 1.703.969 2.609t2.172.906q.968 0 1.64-.5.688-.515 1.094-1.625m-5.781-2.843h5.797q-.11-1.297-.657-1.954-.844-1.015-2.187-1.015-1.203 0-2.031.812-.829.797-.922 2.157m15.906 6.187V28.088h5.39q1.438 0 2.188.125 1.047.187 1.766.687.718.484 1.14 1.375.438.89.438 1.953 0 1.828-1.172 3.094-1.156 1.25-4.188 1.25h-3.672V42.4zm1.89-7.516h3.704q1.828 0 2.593-.672.782-.687.782-1.937 0-.89-.454-1.531-.453-.64-1.187-.844-.484-.125-1.781-.125h-3.657zm17.657 6.235q-.985.828-1.89 1.172-.907.343-1.938.343-1.704 0-2.625-.828-.922-.843-.922-2.14 0-.766.343-1.391.36-.625.922-1 .563-.39 1.266-.594.516-.125 1.563-.265 2.124-.25 3.124-.594.016-.36.016-.469 0-1.062-.5-1.516-.672-.593-2-.593-1.25 0-1.844.437-.578.438-.859 1.547l-1.719-.234q.235-1.11.766-1.782.531-.687 1.547-1.046 1.015-.375 2.36-.375 1.327 0 2.155.312.828.313 1.22.797.39.469.546 1.188.094.453.094 1.624v2.344q0 2.453.11 3.11.108.64.452 1.234h-1.844q-.265-.547-.343-1.281m-.157-3.922q-.953.39-2.875.656-1.078.156-1.53.36-.438.187-.688.562t-.25.844q0 .703.531 1.172t1.563.468q1.015 0 1.796-.437.797-.453 1.172-1.219.281-.61.281-1.766zm3.672 2.11 1.75-.282q.141 1.047.813 1.61.672.546 1.875.546t1.781-.484q.594-.5.594-1.156 0-.594-.516-.938-.36-.234-1.797-.594-1.937-.5-2.687-.843-.735-.36-1.125-.985-.39-.64-.39-1.406 0-.687.312-1.281.328-.594.875-.985.406-.297 1.11-.5.718-.218 1.53-.218 1.22 0 2.141.359.922.344 1.36.953.437.594.609 1.594l-1.719.234q-.125-.797-.687-1.234-.563-.453-1.579-.453-1.218 0-1.734.406-.516.39-.516.922 0 .344.22.625.202.281.671.469.266.093 1.547.437 1.875.5 2.61.828.734.313 1.155.922.422.594.422 1.5 0 .875-.515 1.656-.516.782-1.485 1.203-.968.422-2.187.422-2.016 0-3.078-.843-1.063-.844-1.36-2.485m10 0 1.75-.282q.141 1.047.813 1.61.672.546 1.875.546t1.781-.484q.594-.5.594-1.156 0-.594-.516-.938-.36-.234-1.797-.594-1.937-.5-2.687-.843-.735-.36-1.125-.985-.39-.64-.39-1.406 0-.687.312-1.281.328-.594.875-.985.406-.297 1.11-.5.718-.218 1.53-.218 1.22 0 2.141.359.922.344 1.36.953.437.594.609 1.594l-1.719.234q-.125-.797-.687-1.234-.563-.453-1.579-.453-1.218 0-1.734.406-.516.39-.516.922 0 .344.22.625.202.281.671.469.266.093 1.547.437 1.875.5 2.61.828.734.313 1.155.922.422.594.422 1.5 0 .875-.515 1.656-.516.782-1.485 1.203-.968.422-2.187.422-2.016 0-3.078-.843-1.063-.844-1.36-2.485m12.625 3.093-3.172-10.375h1.813l1.656 5.984.61 2.235q.046-.172.53-2.14l1.657-6.079h1.813l1.546 6.016.516 1.984.594-2 1.781-6h1.703L312.447 42.4h-1.828l-1.657-6.219-.39-1.765-2.11 7.984zm11.438-5.187q0-2.876 1.594-4.266 1.343-1.156 3.265-1.156 2.14 0 3.485 1.406 1.359 1.406 1.359 3.875 0 2-.594 3.156-.594 1.14-1.75 1.781-1.14.625-2.5.625-2.187 0-3.531-1.39-1.328-1.407-1.328-4.032m1.797 0q0 2 .86 2.984.874.984 2.202.984 1.313 0 2.172-.984.875-1 .875-3.047 0-1.922-.875-2.906-.875-1-2.172-1-1.328 0-2.203 1-.86.984-.86 2.968m9.828 5.187V32.025h1.578v1.578q.61-1.11 1.125-1.453.516-.36 1.125-.36.89 0 1.813.563l-.61 1.64q-.64-.39-1.281-.39-.578 0-1.047.36-.453.343-.656.953-.282.937-.282 2.047V42.4zm13.75 0v-1.312q-.985 1.546-2.906 1.546-1.235 0-2.282-.687-1.03-.688-1.609-1.906-.562-1.22-.562-2.813 0-1.562.515-2.828.516-1.266 1.547-1.937 1.047-.672 2.313-.672.937 0 1.671.406.735.39 1.203 1.015v-5.124h1.735V42.4zm-5.563-5.172q0 1.984.844 2.969t1.984.984q1.157 0 1.954-.937.812-.938.812-2.875 0-2.125-.828-3.125-.812-1-2.016-1-1.172 0-1.968.968-.782.954-.782 3.016m16.063 5.172V28.088h5.39q1.438 0 2.188.125 1.047.187 1.766.687.718.484 1.14 1.375.438.89.438 1.953 0 1.828-1.172 3.094-1.156 1.25-4.188 1.25h-3.672V42.4zm1.89-7.516h3.704q1.828 0 2.593-.672.782-.687.782-1.937 0-.89-.454-1.531-.453-.64-1.187-.844-.484-.125-1.781-.125h-3.657zm17.657 6.235q-.985.828-1.89 1.172-.907.343-1.938.343-1.704 0-2.625-.828-.922-.843-.922-2.14 0-.766.343-1.391.36-.625.922-1 .563-.39 1.266-.594.516-.125 1.563-.265 2.124-.25 3.124-.594.016-.36.016-.469 0-1.062-.5-1.516-.672-.593-2-.593-1.25 0-1.844.437-.578.438-.859 1.547l-1.719-.234q.235-1.11.766-1.782.531-.687 1.547-1.046 1.015-.375 2.36-.375 1.327 0 2.155.312.828.313 1.22.797.39.469.546 1.188.094.453.094 1.624v2.344q0 2.453.11 3.11.108.64.452 1.234h-1.844q-.265-.547-.343-1.281m-.157-3.922q-.953.39-2.875.656-1.078.156-1.53.36-.438.187-.688.562t-.25.844q0 .703.531 1.172t1.563.468q1.015 0 1.796-.437.797-.453 1.172-1.219.281-.61.281-1.766zm3.672 2.11 1.75-.282q.141 1.047.813 1.61.672.546 1.875.546t1.781-.484q.594-.5.594-1.156 0-.594-.516-.938-.36-.234-1.797-.594-1.937-.5-2.687-.843-.735-.36-1.125-.985-.39-.64-.39-1.406 0-.687.312-1.281.328-.594.875-.985.406-.297 1.11-.5.718-.218 1.53-.218 1.22 0 2.141.359.922.344 1.36.953.437.594.609 1.594l-1.719.234q-.125-.797-.687-1.234-.563-.453-1.579-.453-1.218 0-1.734.406-.516.39-.516.922 0 .344.22.625.202.281.671.469.266.093 1.547.437 1.875.5 2.61.828.734.313 1.155.922.422.594.422 1.5 0 .875-.515 1.656-.516.782-1.485 1.203-.968.422-2.187.422-2.016 0-3.078-.843-1.063-.844-1.36-2.485m10 0 1.75-.282q.141 1.047.813 1.61.672.546 1.875.546t1.781-.484q.594-.5.594-1.156 0-.594-.516-.938-.36-.234-1.797-.594-1.937-.5-2.687-.843-.735-.36-1.125-.985-.39-.64-.39-1.406 0-.687.312-1.281.328-.594.875-.985.406-.297 1.11-.5.718-.218 1.53-.218 1.22 0 2.141.359.922.344 1.36.953.437.594.609 1.594l-1.719.234q-.125-.797-.687-1.234-.563-.453-1.579-.453-1.218 0-1.734.406-.516.39-.516.922 0 .344.22.625.202.281.671.469.266.093 1.547.437 1.875.5 2.61.828.734.313 1.155.922.422.594.422 1.5 0 .875-.515 1.656-.516.782-1.485 1.203-.968.422-2.187.422-2.016 0-3.078-.843-1.063-.844-1.36-2.485m10.72-9.204v-2.015h1.765v2.015zm0 12.297V32.025h1.765V42.4zm3.983 0V32.025h1.594v1.484q1.14-1.718 3.297-1.718.938 0 1.719.343.797.328 1.187.875.391.547.547 1.297.094.5.094 1.719V42.4h-1.766v-6.312q0-1.079-.203-1.61t-.734-.844q-.516-.312-1.219-.312-1.125 0-1.937.719-.813.703-.813 2.687V42.4zm10.688.86 1.703.25q.11.796.594 1.156.656.484 1.797.484 1.218 0 1.875-.484.672-.485.906-1.36.14-.547.125-2.265-1.156 1.359-2.875 1.359-2.14 0-3.312-1.547t-1.172-3.703q0-1.484.53-2.734.548-1.25 1.563-1.938 1.032-.687 2.407-.687 1.828 0 3.03 1.484v-1.25h1.61v8.969q0 2.422-.5 3.422-.484 1.015-1.562 1.593-1.063.594-2.625.594-1.844 0-3-.828-1.14-.828-1.094-2.516m1.453-6.235q0 2.047.813 2.984.812.938 2.03.938 1.204 0 2.016-.938.829-.937.829-2.922 0-1.906-.844-2.875-.844-.968-2.031-.968-1.172 0-2 .953-.813.953-.813 2.828M426.37 42.4l5.5-14.312h2.047l5.859 14.312h-2.156l-1.672-4.344h-5.985l-1.578 4.344zm4.14-5.875h4.844l-1.484-3.969q-.688-1.812-1.016-2.968-.281 1.375-.781 2.734zm10.172 5.875V28.088h1.75V42.4zm4 0V28.088h1.75V42.4zm10.297 0V28.088h6.344q1.906 0 2.906.39 1 .375 1.594 1.36.594.968.594 2.156 0 1.515-.985 2.562-.984 1.047-3.047 1.328.75.36 1.141.72.828.75 1.578 1.905l2.484 3.891h-2.375l-1.906-2.984q-.828-1.282-1.36-1.97-.53-.687-.968-.952-.422-.282-.86-.39-.327-.063-1.046-.063h-2.203V42.4zm1.89-8h4.079q1.297 0 2.015-.266.735-.265 1.11-.859.39-.594.39-1.281 0-1.016-.734-1.672t-2.328-.656h-4.531zm18.641 8v-1.531q-1.203 1.765-3.28 1.765-.923 0-1.72-.343-.797-.36-1.187-.891-.375-.531-.531-1.312-.11-.516-.11-1.641v-6.422h1.75v5.75q0 1.375.11 1.86.171.687.703 1.093.547.39 1.328.39.797 0 1.484-.406.703-.406.985-1.093.296-.703.296-2.032v-5.562h1.75V42.4zm4.172 0V28.088h1.75V42.4zm11.14-3.344 1.813.235q-.422 1.578-1.593 2.468-1.157.875-2.97.875-2.265 0-3.609-1.39-1.328-1.407-1.328-3.938 0-2.625 1.344-4.062 1.344-1.453 3.5-1.453 2.078 0 3.39 1.421 1.329 1.407 1.329 3.985 0 .156-.016.469h-7.734q.094 1.703.969 2.609t2.171.906q.97 0 1.641-.5.688-.515 1.094-1.625m-5.78-2.843h5.796q-.109-1.297-.656-1.954-.844-1.015-2.187-1.015-1.203 0-2.032.812-.828.797-.921 2.157m8.968 3.093 1.75-.281q.141 1.047.813 1.61.672.546 1.875.546t1.781-.484q.594-.5.594-1.156 0-.594-.516-.938-.36-.234-1.797-.594-1.937-.5-2.687-.843-.735-.36-1.125-.985-.39-.64-.39-1.406 0-.687.312-1.281.328-.594.875-.985.406-.297 1.11-.5.718-.218 1.53-.218 1.22 0 2.141.359.922.344 1.36.953.437.594.609 1.594l-1.719.234q-.125-.797-.687-1.234-.563-.453-1.579-.453-1.218 0-1.734.406-.516.39-.516.922 0 .344.22.625.202.281.671.469.266.093 1.547.437 1.875.5 2.61.828.734.313 1.155.922.422.594.422 1.5 0 .875-.515 1.656-.516.782-1.485 1.203-.968.422-2.187.422-2.016 0-3.078-.843-1.063-.844-1.36-2.485"/>
</svg>
