<svg xmlns="http://www.w3.org/2000/svg" width="456" height="592" fill="none" viewBox="0 0 456 592">
  <path fill="#63D0FF" d="M429.11 198h-3.22L228 83.432v-1.864l200.865 116.289zm18.754-.143L228 70.567v1.865L444.89 198h3.22zm-57 0L228 103.567v1.864L387.89 198h3.22zm19 0L228 92.567v1.864L406.89 198h3.22zm-37.999 0L228 114.567v1.864L368.89 198h3.22zm-19 0L228 125.566v1.864L349.891 198h3.219zM254.89 0h3.22L456 114.568v1.864L255.135.142zm-18.754.143L456 127.432v-1.864L239.11 0h-3.22zm57 0L456 94.433v-1.864L296.11 0h-3.22zm-19 0L456 105.433v-1.864L277.11 0h-3.22zm37.999 0L456 83.433v-1.864L315.11 0h-3.22zm19 0L456 72.433V70.57L334.109 0h-3.219zM228.082 48.615 456 180.568v1.864l-.082-.048L228 50.432v-1.865zM228 37.568v1.864l227.918 131.953.082.048v-1.865L228.082 37.616zm0 22v1.864l227.918 131.952.082.048v-1.863L228.082 59.615zm0-33v1.864l227.918 131.953.082.047v-1.864L228.082 26.616zm0-11v1.864l227.918 131.953.082.047v-1.864L228.082 15.615zm0-11v1.864l227.918 131.953.082.047v-1.864L228.082 4.615zM334.11 394h-3.22L228 335.033v-1.845l105.865 60.671zm-95 0L228 387.632v1.845l7.891 4.523zm75.755-.141L228 344.077v1.845L311.891 394h3.22zm-19 0L228 354.965v1.845L292.891 394h3.22zm-38 0L228 376.743v1.846L254.89 394h3.221zm19 0L228 365.854v1.845L273.891 394h3.219zM349.89 198h3.22L456 256.967v1.845l-105.865-60.671zm95 0 11.11 6.368v-1.845L448.109 198zm-75.755.141L456 247.923v-1.845L372.109 198h-3.22zm19 0L456 237.035v-1.845L391.109 198h-3.22zm38 0L456 215.257v-1.846L429.11 198h-3.221zm-19 0L456 226.146v-1.845L410.109 198h-3.219zM201.11 394h-3.22L0 280.589v-1.845l200.865 115.115zm18.754-.141L0 267.855v1.845L216.89 394h3.22zm-57 0L0 300.521v1.845L159.89 394h3.22zm19 0L0 289.632v1.845L178.89 394h3.22zm-37.999 0L0 311.41v1.845L140.89 394h3.22zm-19 0L0 322.298v1.845L121.891 394h3.219zM26.89 198h3.22L228 311.411v1.845L27.135 198.141zm-18.754.141L228 324.145V322.3L11.11 198H7.89zm57 0L228 291.479v-1.845L68.11 198h-3.22zm-19 0L228 302.368v-1.845L49.11 198h-3.22zm38 0L228 280.59v-1.845L87.11 198h-3.22zm18.999 0L228 269.702v-1.845L106.109 198h-3.219z"/>
  <path fill="#63D0FF" d="M.082 246.124 228 376.745v1.844l-.082-.047L0 247.923v-1.846zM0 235.189v1.845l227.918 130.62.082.047v-1.845L.082 235.236zm0 21.777v1.846l227.918 130.619.082.047v-1.844L.082 257.013zM0 224.3v1.845l227.918 130.62.082.047v-1.845L.082 224.347zm0-10.889v1.845l227.918 130.62.082.047v-1.845L.082 213.458zm0-10.889v1.845l227.918 130.62.082.047v-1.845L.082 202.569zM229 519.69a.82.82 0 0 0-.746.5.82.82 0 0 0 .175.882.8.8 0 0 0 .88.176.81.81 0 0 0-.309-1.558m0-11a.807.807 0 0 0-.792.968.81.81 0 0 0 .635.636.808.808 0 0 0 .728-1.367.8.8 0 0 0-.571-.237m0 22.001a.806.806 0 0 0-.792.967.8.8 0 0 0 .222.415.8.8 0 0 0 .879.175.807.807 0 0 0 .437-1.058.81.81 0 0 0-.746-.499m0-44.001a.807.807 0 0 0-.792.968.81.81 0 0 0 .635.636.808.808 0 0 0 .728-1.367.8.8 0 0 0-.571-.237m0 11.001a.806.806 0 0 0-.792.967.806.806 0 0 0 1.599-.158.804.804 0 0 0-.807-.809m0 77a.806.806 0 0 0-.792.967.806.806 0 0 0 1.599-.158.804.804 0 0 0-.807-.809m0-11.001a.807.807 0 0 0-.792.968.81.81 0 0 0 .635.636.808.808 0 0 0 .728-1.367.8.8 0 0 0-.571-.237m0-22a.807.807 0 0 0-.792.968.81.81 0 0 0 .635.636.808.808 0 0 0 .728-1.367.8.8 0 0 0-.571-.237m0 11a.807.807 0 0 0-.792.968.81.81 0 0 0 .635.636.809.809 0 1 0 .157-1.604m0-88a.807.807 0 0 0-.792.968.81.81 0 0 0 .635.636.808.808 0 0 0 .728-1.367.8.8 0 0 0-.571-.237m0-44a.82.82 0 0 0-.746.5.82.82 0 0 0 .175.882.8.8 0 0 0 .88.176.81.81 0 0 0-.309-1.558m0-11a.807.807 0 0 0-.792.968.81.81 0 0 0 .635.636.808.808 0 0 0 .728-1.367.8.8 0 0 0-.571-.237m0-10.999a.806.806 0 0 0-.792.967.806.806 0 0 0 1.599-.158.804.804 0 0 0-.807-.809m0 33a.806.806 0 0 0-.792.967.8.8 0 0 0 .222.415.8.8 0 0 0 .879.175.807.807 0 0 0 .437-1.058.81.81 0 0 0-.746-.499m0 21.999a.807.807 0 0 0-.792.968.81.81 0 0 0 .635.636.809.809 0 1 0 .157-1.604m0-11a.807.807 0 0 0-.792.968.81.81 0 0 0 .635.636.808.808 0 0 0 .728-1.367.8.8 0 0 0-.571-.237m0 143a.807.807 0 0 0-.792.968.81.81 0 0 0 .635.636.808.808 0 0 0 .728-1.367.8.8 0 0 0-.571-.237m0-109.999a.806.806 0 0 0-.792.967.806.806 0 0 0 1.599-.158.804.804 0 0 0-.807-.809m85.5-82.501a.807.807 0 0 0-.792.968.81.81 0 0 0 .635.636.808.808 0 0 0 .728-1.367.8.8 0 0 0-.571-.237m19 0a.8.8 0 0 0-.746.5.82.82 0 0 0 .175.882.81.81 0 0 0 .88.176.81.81 0 0 0-.309-1.558m19 0a.81.81 0 0 0-.746.5.81.81 0 0 0 .176.882.8.8 0 0 0 .879.176.807.807 0 0 0 .437-1.058.8.8 0 0 0-.437-.438.8.8 0 0 0-.309-.062m95 0a.8.8 0 0 0-.746.5.82.82 0 0 0 .175.882.81.81 0 0 0 .88.176.81.81 0 0 0-.309-1.558m-171 0a.8.8 0 0 0-.746.5.82.82 0 0 0 .175.882.81.81 0 0 0 .88.176.81.81 0 0 0-.309-1.558m152 0a.807.807 0 0 0-.792.968.8.8 0 0 0 .221.414.8.8 0 0 0 .88.176.81.81 0 0 0-.309-1.558m-171 0a.81.81 0 0 0-.746.5.82.82 0 0 0 .175.882.808.808 0 1 0 1.142-1.144.8.8 0 0 0-.571-.238m114 0a.807.807 0 0 0-.792.968.81.81 0 0 0 .635.636.808.808 0 0 0 .728-1.367.8.8 0 0 0-.571-.237m-76 0a.807.807 0 0 0-.57 1.382.807.807 0 0 0 1.316-.882.8.8 0 0 0-.437-.438.8.8 0 0 0-.309-.062m95 0a.8.8 0 0 0-.746.5.82.82 0 0 0 .175.882.81.81 0 0 0 .88.176.81.81 0 0 0-.309-1.558m-152 0a.807.807 0 0 0-.57 1.382.8.8 0 0 0 .879.176.807.807 0 0 0 .437-1.058.8.8 0 0 0-.437-.438.8.8 0 0 0-.309-.062m171 0a.81.81 0 0 0-.746.5.81.81 0 0 0 .176.882.8.8 0 0 0 .879.176.807.807 0 0 0 .437-1.058.8.8 0 0 0-.437-.438.8.8 0 0 0-.309-.062M305 508.69a.8.8 0 0 0-.746.5.82.82 0 0 0 .175.882.81.81 0 0 0 .88.176.81.81 0 0 0-.309-1.558m0 66.001a.807.807 0 0 0-.571 1.381.8.8 0 0 0 .88.176.81.81 0 0 0-.309-1.557m0-33.001a.8.8 0 0 0-.746.5.82.82 0 0 0 .175.882.81.81 0 0 0 .88.176.81.81 0 0 0-.309-1.558m0 22a.8.8 0 0 0-.746.5.82.82 0 0 0 .175.882.81.81 0 0 0 .88.176.81.81 0 0 0-.309-1.558m0-32.999a.8.8 0 0 0-.746.499.82.82 0 0 0 .175.882.8.8 0 0 0 .88.176.812.812 0 0 0 .262-1.32.8.8 0 0 0-.571-.237m0-11.001a.8.8 0 0 0-.746.5.82.82 0 0 0 .175.882.8.8 0 0 0 .88.176.81.81 0 0 0-.309-1.558m0 33a.8.8 0 0 0-.746.5.81.81 0 0 0 .588 1.104.81.81 0 0 0 .829-.344.81.81 0 0 0-.671-1.26m0-154a.8.8 0 0 0-.746.5.82.82 0 0 0 .175.882.8.8 0 0 0 .88.176.81.81 0 0 0-.309-1.558m9.5 181.501a.806.806 0 0 0-.792.967.806.806 0 0 0 1.599-.158.82.82 0 0 0-.236-.573.8.8 0 0 0-.571-.236M305 409.69a.8.8 0 0 0-.746.5.82.82 0 0 0 .175.882.81.81 0 0 0 .88.176.81.81 0 0 0-.309-1.558m9.5 148.5a.807.807 0 0 0-.792.968.81.81 0 0 0 .635.636.808.808 0 0 0 .728-1.367.8.8 0 0 0-.571-.237m-9.5-137.5a.8.8 0 0 0-.746.5.82.82 0 0 0 .175.882.8.8 0 0 0 .88.176.81.81 0 0 0-.309-1.558m9.5 148.5a.82.82 0 0 0-.746.5.82.82 0 0 0 .175.882.8.8 0 0 0 .88.176.81.81 0 0 0-.309-1.558M305 431.691a.8.8 0 0 0-.746.499.82.82 0 0 0 .175.882.8.8 0 0 0 .88.176.812.812 0 0 0 .262-1.32.8.8 0 0 0-.571-.237m0 44a.807.807 0 0 0-.571 1.381.8.8 0 0 0 .88.176.81.81 0 0 0-.309-1.557m0 21.999a.8.8 0 0 0-.746.5.82.82 0 0 0 .175.882.8.8 0 0 0 .88.176.81.81 0 0 0-.309-1.558m0-33a.8.8 0 0 0-.746.5.82.82 0 0 0 .175.882.81.81 0 0 0 .88.176.81.81 0 0 0-.309-1.558m0 22a.8.8 0 0 0-.746.5.82.82 0 0 0 .175.882.81.81 0 0 0 .88.176.81.81 0 0 0-.309-1.558m0-33a.8.8 0 0 0-.746.5.81.81 0 0 0 .588 1.104.81.81 0 0 0 .829-.344.81.81 0 0 0-.671-1.26m0-11a.8.8 0 0 0-.746.5.82.82 0 0 0 .175.882.81.81 0 0 0 .88.176.81.81 0 0 0-.309-1.558m-19-33a.81.81 0 0 0-.746.5.82.82 0 0 0 .175.882.808.808 0 1 0 1.142-1.144.8.8 0 0 0-.571-.238m9.5 170.501a.8.8 0 0 0-.746.5.81.81 0 0 0 1.056 1.057.81.81 0 0 0-.31-1.557m0-22.001a.807.807 0 0 0-.57 1.382.807.807 0 0 0 1.316-.882.8.8 0 0 0-.746-.5m0-32.999a.813.813 0 0 0-.791.967.81.81 0 0 0 .634.636.807.807 0 0 0 .903-1.104.8.8 0 0 0-.437-.438.8.8 0 0 0-.309-.061m0 10.999a.807.807 0 0 0-.57 1.382.807.807 0 0 0 1.316-.882.8.8 0 0 0-.746-.5m0 11.001a.807.807 0 0 0-.57 1.382.8.8 0 0 0 .879.175.807.807 0 0 0 .437-1.058.8.8 0 0 0-.437-.438.8.8 0 0 0-.309-.061m0 21.999a.81.81 0 1 0 .309 1.558.807.807 0 0 0 .437-1.058.8.8 0 0 0-.437-.438.8.8 0 0 0-.309-.062M286 398.691a.814.814 0 0 0-.792.967.806.806 0 0 0 1.599-.158.81.81 0 0 0-.807-.809m0 43.999a.81.81 0 0 0-.746.5.82.82 0 0 0 .175.882.808.808 0 1 0 1.142-1.144.8.8 0 0 0-.571-.238m0 11a.81.81 0 0 0-.746.5.81.81 0 0 0 .588 1.104.81.81 0 0 0 .829-.344.81.81 0 0 0-.671-1.26m0-33a.81.81 0 0 0-.746.5.82.82 0 0 0 .175.882.8.8 0 0 0 .88.176.81.81 0 0 0-.309-1.558m0 11.001a.805.805 0 0 0-.746.499.82.82 0 0 0 .175.882.8.8 0 0 0 .88.176.812.812 0 0 0 .262-1.32.8.8 0 0 0-.571-.237m9.5 49.5a.8.8 0 0 0-.746.5.81.81 0 0 0 1.056 1.057.81.81 0 0 0-.31-1.557m0-55a.813.813 0 0 0-.791.967.81.81 0 0 0 .634.636.807.807 0 0 0 .903-1.104.8.8 0 0 0-.437-.438.8.8 0 0 0-.309-.061m0 87.999a.807.807 0 0 0-.57 1.382.807.807 0 0 0 1.316-.882.8.8 0 0 0-.437-.438.8.8 0 0 0-.309-.062m0-99a.807.807 0 0 0-.57 1.382.807.807 0 0 0 1.316-.882.8.8 0 0 0-.437-.438.8.8 0 0 0-.309-.062m0 33.001a.807.807 0 0 0-.57 1.382.8.8 0 0 0 .879.175.807.807 0 0 0 .437-1.058.8.8 0 0 0-.437-.438.8.8 0 0 0-.309-.061m0-44.001a.81.81 0 0 0-.746.5.812.812 0 0 0 .589 1.104.808.808 0 0 0 .728-1.367.8.8 0 0 0-.571-.237m0 33a.807.807 0 0 0-.57 1.382.807.807 0 0 0 1.316-.882.8.8 0 0 0-.746-.5m0 55a.807.807 0 0 0-.57 1.382.807.807 0 0 0 1.316-.882.8.8 0 0 0-.437-.438.8.8 0 0 0-.309-.062m0 11a.81.81 0 0 0-.746.5.812.812 0 0 0 .589 1.104.808.808 0 0 0 .728-1.367.8.8 0 0 0-.571-.237m0-44a.807.807 0 0 0-.57 1.382.807.807 0 0 0 1.316-.882.8.8 0 0 0-.746-.5m0 11a.81.81 0 1 0 .309 1.558.807.807 0 0 0 .437-1.058.8.8 0 0 0-.437-.438.8.8 0 0 0-.309-.062m9.5 115.5a.8.8 0 0 0-.746.5.82.82 0 0 0 .175.882.81.81 0 0 0 .88.176.81.81 0 0 0-.309-1.558m19-54.999a.8.8 0 0 0-.746.5.81.81 0 0 0 1.056 1.057.81.81 0 0 0-.31-1.557m9.5 27.499a.8.8 0 0 0-.746.5.82.82 0 0 0 .175.882.81.81 0 0 0 .88.176.81.81 0 0 0-.309-1.558m0-44a.8.8 0 0 0-.746.5.82.82 0 0 0 .175.882.81.81 0 0 0 .88.176.81.81 0 0 0-.309-1.558m0 33.001a.807.807 0 0 0-.571 1.381.8.8 0 0 0 .88.176.81.81 0 0 0-.309-1.557m0-11.001a.8.8 0 0 0-.746.5.82.82 0 0 0 .175.882.81.81 0 0 0 .88.176.81.81 0 0 0-.309-1.558m0 44.001a.8.8 0 0 0-.746.499.82.82 0 0 0 .175.882.8.8 0 0 0 .88.176.812.812 0 0 0 .262-1.32.8.8 0 0 0-.571-.237m0-55a.807.807 0 0 0-.571 1.381.8.8 0 0 0 .88.176.81.81 0 0 0-.309-1.557m0 43.999a.8.8 0 0 0-.746.5.82.82 0 0 0 .175.882.8.8 0 0 0 .88.176.81.81 0 0 0-.309-1.558M324 398.691a.807.807 0 0 0-.57 1.382.8.8 0 0 0 .879.175.807.807 0 0 0 .437-1.058.8.8 0 0 0-.437-.438.8.8 0 0 0-.309-.061m0 43.999a.807.807 0 0 0-.57 1.382.8.8 0 0 0 .879.176.807.807 0 0 0 .437-1.058.8.8 0 0 0-.437-.438.8.8 0 0 0-.309-.062m0 11a.81.81 0 0 0-.746.5.812.812 0 0 0 .589 1.104.808.808 0 0 0 .728-1.367.8.8 0 0 0-.571-.237m0-44a.807.807 0 0 0-.57 1.382.8.8 0 0 0 .879.176.81.81 0 0 0 .499-.748.8.8 0 0 0-.237-.573.8.8 0 0 0-.571-.237m0 22.001a.8.8 0 0 0-.746.5.81.81 0 0 0 1.056 1.057.81.81 0 0 0-.31-1.557m9.5-5.5a.807.807 0 0 0-.571 1.381.8.8 0 0 0 .88.176.81.81 0 0 0-.309-1.557m0 76.999a.8.8 0 0 0-.746.5.81.81 0 0 0 .588 1.104.81.81 0 0 0 .829-.344.81.81 0 0 0-.671-1.26m0-88a.8.8 0 0 0-.746.5.82.82 0 0 0 .175.882.81.81 0 0 0 .88.176.81.81 0 0 0-.309-1.558m-9.5 49.5a.807.807 0 0 0-.57 1.382.8.8 0 0 0 .879.176.807.807 0 0 0 .437-1.058.8.8 0 0 0-.437-.438.8.8 0 0 0-.309-.062m-9.5 82.501a.806.806 0 0 0-.792.967.806.806 0 0 0 1.599-.158.804.804 0 0 0-.807-.809M286 464.69a.81.81 0 0 0-.746.5.82.82 0 0 0 .175.882.808.808 0 1 0 1.142-1.144.8.8 0 0 0-.571-.238m47.5-27.5a.8.8 0 0 0-.746.5.82.82 0 0 0 .175.882.81.81 0 0 0 .88.176.81.81 0 0 0-.309-1.558m0 55a.8.8 0 0 0-.746.5.82.82 0 0 0 .175.882.81.81 0 0 0 .88.176.81.81 0 0 0-.309-1.558m0-10.999a.8.8 0 0 0-.746.499.82.82 0 0 0 .175.882.8.8 0 0 0 .88.176.812.812 0 0 0 .262-1.32.8.8 0 0 0-.571-.237m0-22.001a.8.8 0 0 0-.746.5.82.82 0 0 0 .175.882.81.81 0 0 0 .88.176.81.81 0 0 0-.309-1.558m0 11a.8.8 0 0 0-.746.5.82.82 0 0 0 .175.882.8.8 0 0 0 .88.176.81.81 0 0 0-.309-1.558m0-21.999a.807.807 0 0 0-.571 1.381.8.8 0 0 0 .88.176.81.81 0 0 0-.309-1.557m0-44.001a.8.8 0 0 0-.746.5.81.81 0 0 0 .588 1.104.81.81 0 0 0 .829-.344.81.81 0 0 0-.671-1.26m-19 55a.807.807 0 0 0-.792.968.81.81 0 0 0 .635.636.808.808 0 0 0 .728-1.367.8.8 0 0 0-.571-.237m0 11a.82.82 0 0 0-.746.5.82.82 0 0 0 .175.882.8.8 0 0 0 .88.176.81.81 0 0 0-.309-1.558m0-21.999a.806.806 0 0 0-.792.967.806.806 0 0 0 1.599-.158.814.814 0 0 0-.807-.809m0-11.001a.807.807 0 0 0-.792.968.81.81 0 0 0 .635.636.808.808 0 0 0 .728-1.367.8.8 0 0 0-.571-.237m0-10.999a.806.806 0 0 0-.792.967.806.806 0 0 0 1.599-.158.814.814 0 0 0-.807-.809m0 55a.806.806 0 0 0-.792.967.806.806 0 0 0 1.599-.158.82.82 0 0 0-.236-.573.8.8 0 0 0-.571-.236m0 54.999a.807.807 0 0 0-.792.968.81.81 0 0 0 .635.636.808.808 0 0 0 .728-1.367.8.8 0 0 0-.571-.237m0-10.999a.806.806 0 0 0-.792.967.806.806 0 0 0 1.599-.158.814.814 0 0 0-.807-.809m0-22.001a.807.807 0 0 0-.792.968.81.81 0 0 0 .635.636.809.809 0 1 0 .157-1.604m0-11a.807.807 0 0 0-.792.968.81.81 0 0 0 .635.636.808.808 0 0 0 .728-1.367.8.8 0 0 0-.571-.237m0 22a.807.807 0 0 0-.792.968.81.81 0 0 0 .635.636.808.808 0 0 0 .728-1.367.8.8 0 0 0-.571-.237m9.5-27.5a.807.807 0 0 0-.57 1.382.807.807 0 0 0 1.316-.882.8.8 0 0 0-.746-.5m0 55a.807.807 0 0 0-.57 1.382.807.807 0 0 0 1.316-.882.8.8 0 0 0-.437-.438.8.8 0 0 0-.309-.062m0-33a.807.807 0 0 0-.57 1.382.807.807 0 0 0 1.316-.882.8.8 0 0 0-.746-.5m0 11a.81.81 0 1 0 .309 1.558.807.807 0 0 0 .437-1.058.8.8 0 0 0-.437-.438.8.8 0 0 0-.309-.062m-9.5-104.5a.807.807 0 0 0-.792.968.81.81 0 0 0 .635.636.808.808 0 0 0 .728-1.367.8.8 0 0 0-.571-.237m9.5 82.501a.807.807 0 0 0-.57 1.382.8.8 0 0 0 .879.175.807.807 0 0 0 .437-1.058.8.8 0 0 0-.437-.438.8.8 0 0 0-.309-.061m0-22a.813.813 0 0 0-.791.967.81.81 0 0 0 .634.636.807.807 0 0 0 .903-1.104.8.8 0 0 0-.437-.438.8.8 0 0 0-.309-.061m0 76.999a.81.81 0 0 0-.746.5.812.812 0 0 0 .589 1.104.808.808 0 0 0 .728-1.367.8.8 0 0 0-.571-.237m-9.5-148.5a.807.807 0 0 0-.792.968.81.81 0 0 0 .635.636.809.809 0 1 0 .157-1.604m9.5 181.5a.807.807 0 0 0-.57 1.382.8.8 0 0 0 .879.176.81.81 0 0 0 .499-.748.8.8 0 0 0-.237-.573.8.8 0 0 0-.571-.237m0-10.999a.813.813 0 0 0-.791.967.81.81 0 0 0 .634.636.807.807 0 0 0 .903-1.104.8.8 0 0 0-.437-.438.8.8 0 0 0-.309-.061m0-11.001a.807.807 0 0 0-.57 1.382.8.8 0 0 0 .879.176.81.81 0 0 0 .499-.748.8.8 0 0 0-.237-.573.8.8 0 0 0-.571-.237m0-143a.81.81 0 1 0 .309 1.558.807.807 0 0 0 .437-1.058.8.8 0 0 0-.437-.438.8.8 0 0 0-.309-.062m-66.5 16.5a.81.81 0 0 0-.746.5.82.82 0 0 0 .175.882.808.808 0 1 0 1.142-1.144.8.8 0 0 0-.571-.238m-9.5 71.5a.81.81 0 0 0-.745.5.82.82 0 0 0 .175.882.8.8 0 0 0 .879.176.81.81 0 0 0 .499-.748.81.81 0 0 0-.808-.81m0-76.999a.805.805 0 0 0-.791.967.81.81 0 0 0 1.101.59.81.81 0 0 0-.31-1.557m0-33a.805.805 0 0 0-.791.967.81.81 0 0 0 .634.636.807.807 0 0 0 .965-.794.806.806 0 0 0-.808-.809m0 43.999a.81.81 0 0 0-.745.5.82.82 0 0 0 .175.882.8.8 0 0 0 .879.176.807.807 0 0 0 .262-1.32.8.8 0 0 0-.571-.238m9.5 137.501a.805.805 0 0 0-.746.499.82.82 0 0 0 .175.882.8.8 0 0 0 .88.176.812.812 0 0 0 .262-1.32.8.8 0 0 0-.571-.237M248 453.69a.81.81 0 0 0-.745.5.82.82 0 0 0 .175.882.807.807 0 0 0 1.378-.572.8.8 0 0 0-.237-.572.8.8 0 0 0-.571-.238m0 33a.81.81 0 0 0-.745.5.82.82 0 0 0 .175.882.8.8 0 0 0 .879.176.81.81 0 0 0 .499-.748.81.81 0 0 0-.808-.81m9.5 82.5a.81.81 0 0 0-.746.5.82.82 0 0 0 .175.882.8.8 0 0 0 .88.176.81.81 0 0 0-.309-1.558m28.5-93.499a.814.814 0 0 0-.792.967.806.806 0 0 0 1.599-.158.81.81 0 0 0-.807-.809m-38-11.001a.81.81 0 0 0-.745.5.82.82 0 0 0 .175.882.8.8 0 0 0 .879.176.81.81 0 0 0 .499-.748.81.81 0 0 0-.808-.81m0 11.001a.805.805 0 0 0-.791.967.81.81 0 0 0 .634.636.807.807 0 0 0 .965-.794.806.806 0 0 0-.808-.809m0-55.001a.82.82 0 0 0-.745.5.82.82 0 0 0 .175.882.8.8 0 0 0 .879.176.807.807 0 0 0 .262-1.32.8.8 0 0 0-.571-.238m9.5 71.5a.81.81 0 0 0-.746.5.82.82 0 0 0 .175.882.808.808 0 1 0 1.142-1.144.8.8 0 0 0-.571-.238m0-10.999a.805.805 0 0 0-.746.499.82.82 0 0 0 .175.882.8.8 0 0 0 .88.176.812.812 0 0 0 .262-1.32.8.8 0 0 0-.571-.237m0-11.001a.81.81 0 0 0-.746.5.82.82 0 0 0 .175.882.8.8 0 0 0 .88.176.81.81 0 0 0-.309-1.558m0-11a.81.81 0 0 0-.746.5.82.82 0 0 0 .175.882.808.808 0 1 0 1.142-1.144.8.8 0 0 0-.571-.238m0-10.999a.814.814 0 0 0-.792.967.806.806 0 0 0 1.599-.158.81.81 0 0 0-.807-.809m0 109.999a.81.81 0 0 0-.746.5.82.82 0 0 0 .175.882.808.808 0 1 0 1.142-1.144.8.8 0 0 0-.571-.238m0-22a.81.81 0 0 0-.746.5.82.82 0 0 0 .175.882.808.808 0 1 0 1.142-1.144.8.8 0 0 0-.571-.238m0 11.001a.814.814 0 0 0-.792.967.806.806 0 0 0 1.599-.158.81.81 0 0 0-.807-.809m0-22a.814.814 0 0 0-.792.967.806.806 0 0 0 1.599-.158.81.81 0 0 0-.807-.809m0-11.001a.81.81 0 0 0-.746.5.82.82 0 0 0 .175.882.808.808 0 1 0 1.142-1.144.8.8 0 0 0-.571-.238m0-11a.81.81 0 0 0-.746.5.81.81 0 0 0 .588 1.104.81.81 0 0 0 .829-.344.81.81 0 0 0-.671-1.26m-9.5-93.5a.81.81 0 0 0-.745.5.82.82 0 0 0 .175.882.8.8 0 0 0 .879.176.81.81 0 0 0 .499-.748.81.81 0 0 0-.808-.81m-9.5 93.5a.81.81 0 0 0-.746.5.81.81 0 0 0 .176.882.81.81 0 0 0 .879.176.81.81 0 0 0 .499-.748.8.8 0 0 0-.237-.573.8.8 0 0 0-.571-.237m0 11a.807.807 0 0 0-.57 1.382.8.8 0 0 0 .879.176.81.81 0 0 0 .499-.748.8.8 0 0 0-.237-.573.8.8 0 0 0-.571-.237m0-32.999a.8.8 0 0 0-.746.5.81.81 0 0 0 1.056 1.057.81.81 0 0 0-.31-1.557m0 44a.813.813 0 0 0-.791.967.81.81 0 0 0 .634.636.807.807 0 0 0 .903-1.104.8.8 0 0 0-.437-.438.8.8 0 0 0-.309-.061m0-33.001a.807.807 0 0 0-.57 1.382.8.8 0 0 0 .879.176.807.807 0 0 0 .437-1.058.8.8 0 0 0-.437-.438.8.8 0 0 0-.309-.062m0 77a.81.81 0 1 0 .309 1.558.807.807 0 0 0 .437-1.058.8.8 0 0 0-.437-.438.8.8 0 0 0-.309-.062m0-110a.807.807 0 0 0-.57 1.382.8.8 0 0 0 .879.176.81.81 0 0 0 .499-.748.8.8 0 0 0-.237-.573.8.8 0 0 0-.571-.237m0 121.001a.8.8 0 0 0-.746.5.81.81 0 0 0 1.056 1.057.81.81 0 0 0-.31-1.557m0-33a.807.807 0 0 0-.57 1.382.8.8 0 0 0 .879.175.807.807 0 0 0 .437-1.058.8.8 0 0 0-.437-.438.8.8 0 0 0-.309-.061m0-11.001a.807.807 0 0 0-.57 1.382.8.8 0 0 0 .879.176.81.81 0 0 0 .499-.748.8.8 0 0 0-.237-.573.8.8 0 0 0-.571-.237m0 22a.807.807 0 0 0-.57 1.382.8.8 0 0 0 .879.176.81.81 0 0 0 .499-.748.8.8 0 0 0-.237-.573.8.8 0 0 0-.571-.237m9.5-16.5a.81.81 0 0 0-.745.5.82.82 0 0 0 .175.882.8.8 0 0 0 .879.176.807.807 0 0 0 .262-1.32.8.8 0 0 0-.571-.238m0 33.001a.805.805 0 0 0-.791.967.81.81 0 0 0 .634.636.807.807 0 0 0 .965-.794.806.806 0 0 0-.808-.809m0-11.001a.81.81 0 0 0-.745.5.82.82 0 0 0 .175.882.8.8 0 0 0 .879.176.81.81 0 0 0 .499-.748.81.81 0 0 0-.808-.81m0-11a.81.81 0 0 0-.745.5.82.82 0 0 0 .175.882.807.807 0 0 0 1.378-.572.8.8 0 0 0-.237-.572.8.8 0 0 0-.571-.238m0-21.999a.805.805 0 0 0-.791.967.81.81 0 0 0 1.101.59.81.81 0 0 0-.31-1.557m-9.5-82.5a.807.807 0 0 0-.57 1.382.8.8 0 0 0 .879.175.807.807 0 0 0 .437-1.058.8.8 0 0 0-.437-.438.8.8 0 0 0-.309-.061m9.5 71.499a.82.82 0 0 0-.745.5.82.82 0 0 0 .175.882.8.8 0 0 0 .879.176.807.807 0 0 0 .262-1.32.8.8 0 0 0-.571-.238m-9.5-93.499a.813.813 0 0 0-.791.967.81.81 0 0 0 .634.636.807.807 0 0 0 .903-1.104.8.8 0 0 0-.437-.438.8.8 0 0 0-.309-.061m0 10.999a.807.807 0 0 0-.57 1.382.8.8 0 0 0 .879.176.81.81 0 0 0 .499-.748.8.8 0 0 0-.237-.573.8.8 0 0 0-.571-.237m9.5 148.5a.81.81 0 0 0-.745.5.82.82 0 0 0 .175.882.8.8 0 0 0 .879.176.81.81 0 0 0 .499-.748.81.81 0 0 0-.808-.81m-9.5-181.5a.81.81 0 0 0-.746.5.81.81 0 0 0 .176.882.81.81 0 0 0 .879.176.81.81 0 0 0 .499-.748.8.8 0 0 0-.237-.573.8.8 0 0 0-.571-.237m0 11a.807.807 0 0 0-.57 1.382.8.8 0 0 0 .879.176.81.81 0 0 0 .499-.748.8.8 0 0 0-.237-.573.8.8 0 0 0-.571-.237m9.5 82.501a.805.805 0 0 0-.791.967.81.81 0 0 0 .634.636.807.807 0 0 0 .965-.794.806.806 0 0 0-.808-.809m28.5-49.5a.807.807 0 0 0-.571 1.381.8.8 0 0 0 .88.176.81.81 0 0 0-.309-1.557m0 99a.807.807 0 0 0-.571 1.381.8.8 0 0 0 .88.176.81.81 0 0 0-.309-1.557m0-77.001a.8.8 0 0 0-.746.5.82.82 0 0 0 .175.882.8.8 0 0 0 .88.176.81.81 0 0 0-.309-1.558m0-33a.8.8 0 0 0-.746.5.82.82 0 0 0 .175.882.81.81 0 0 0 .88.176.81.81 0 0 0-.309-1.558m0-10.999a.807.807 0 0 0-.571 1.381.8.8 0 0 0 .88.176.81.81 0 0 0-.309-1.557m0 55a.8.8 0 0 0-.746.499.82.82 0 0 0 .175.882.8.8 0 0 0 .88.176.812.812 0 0 0 .262-1.32.8.8 0 0 0-.571-.237m0 10.999a.8.8 0 0 0-.746.5.82.82 0 0 0 .175.882.81.81 0 0 0 .88.176.81.81 0 0 0-.309-1.558m0 33.001a.807.807 0 0 0-.571 1.381.8.8 0 0 0 .88.176.81.81 0 0 0-.309-1.557m0 10.999a.8.8 0 0 0-.746.5.82.82 0 0 0 .175.882.81.81 0 0 0 .88.176.81.81 0 0 0-.309-1.558m0-33a.8.8 0 0 0-.746.5.81.81 0 0 0 .588 1.104.81.81 0 0 0 .829-.344.81.81 0 0 0-.671-1.26m0-88a.8.8 0 0 0-.746.5.82.82 0 0 0 .175.882.81.81 0 0 0 .88.176.81.81 0 0 0-.309-1.558m0 99a.8.8 0 0 0-.746.5.82.82 0 0 0 .175.882.81.81 0 0 0 .88.176.81.81 0 0 0-.309-1.558m0-55a.8.8 0 0 0-.746.5.82.82 0 0 0 .175.882.81.81 0 0 0 .88.176.81.81 0 0 0-.309-1.558m0-55a.8.8 0 0 0-.746.5.81.81 0 0 0 .588 1.104.81.81 0 0 0 .829-.344.81.81 0 0 0-.671-1.26m9.5 115.5a.81.81 0 0 0-.746.5.82.82 0 0 0 .175.882.8.8 0 0 0 .88.176.81.81 0 0 0-.309-1.558m0 11.001a.805.805 0 0 0-.746.499.82.82 0 0 0 .175.882.8.8 0 0 0 .88.176.812.812 0 0 0 .262-1.32.8.8 0 0 0-.571-.237m0-44.001a.81.81 0 0 0-.746.5.82.82 0 0 0 .175.882.808.808 0 1 0 1.142-1.144.8.8 0 0 0-.571-.238m0 11.001a.814.814 0 0 0-.792.967.806.806 0 0 0 1.599-.158.81.81 0 0 0-.807-.809m0 10.999a.81.81 0 0 0-.746.5.82.82 0 0 0 .175.882.808.808 0 1 0 1.142-1.144.8.8 0 0 0-.571-.238m0 33a.81.81 0 0 0-.746.5.82.82 0 0 0 .175.882.808.808 0 1 0 1.142-1.144.8.8 0 0 0-.571-.238m0 33.001a.814.814 0 0 0-.792.967.806.806 0 0 0 1.599-.158.81.81 0 0 0-.807-.809m0 10.999a.81.81 0 0 0-.746.5.82.82 0 0 0 .175.882.808.808 0 1 0 1.142-1.144.8.8 0 0 0-.571-.238m0-33a.81.81 0 0 0-.746.5.81.81 0 0 0 .588 1.104.81.81 0 0 0 .829-.344.81.81 0 0 0-.671-1.26m0 11a.81.81 0 0 0-.746.5.82.82 0 0 0 .175.882.808.808 0 1 0 1.142-1.144.8.8 0 0 0-.571-.238m-19-11a.81.81 0 0 0-.746.5.812.812 0 0 0 .589 1.104.808.808 0 0 0 .728-1.367.8.8 0 0 0-.571-.237m0-21.999a.8.8 0 0 0-.746.5.81.81 0 0 0 1.056 1.057.81.81 0 0 0-.31-1.557m0 10.999a.807.807 0 0 0-.57 1.382.807.807 0 0 0 1.316-.882.8.8 0 0 0-.437-.438.8.8 0 0 0-.309-.062m0-43.999a.807.807 0 0 0-.57 1.382.8.8 0 0 0 .879.175.807.807 0 0 0 .437-1.058.8.8 0 0 0-.437-.438.8.8 0 0 0-.309-.061m0 10.999a.807.807 0 0 0-.57 1.382.807.807 0 0 0 1.316-.882.8.8 0 0 0-.746-.5m-9.5-82.499a.814.814 0 0 0-.792.967.806.806 0 0 0 1.599-.158.81.81 0 0 0-.807-.809m9.5 93.499a.81.81 0 1 0 .309 1.558.807.807 0 0 0 .437-1.058.8.8 0 0 0-.437-.438.8.8 0 0 0-.309-.062m-9.5-104.5a.81.81 0 0 0-.746.5.82.82 0 0 0 .175.882.808.808 0 1 0 1.142-1.144.8.8 0 0 0-.571-.238m0-11a.81.81 0 0 0-.746.5.81.81 0 0 0 .588 1.104.81.81 0 0 0 .829-.344.81.81 0 0 0-.671-1.26m9.5 159.5a.807.807 0 0 0-.57 1.382.807.807 0 0 0 1.316-.882.8.8 0 0 0-.437-.438.8.8 0 0 0-.309-.062m0 11.001a.813.813 0 0 0-.791.967.81.81 0 0 0 .634.636.807.807 0 0 0 .903-1.104.8.8 0 0 0-.437-.438.8.8 0 0 0-.309-.061m0 10.999a.807.807 0 0 0-.57 1.382.807.807 0 0 0 1.316-.882.8.8 0 0 0-.746-.5m0-165a.81.81 0 1 0 .309 1.558.807.807 0 0 0 .437-1.058.8.8 0 0 0-.437-.438.8.8 0 0 0-.309-.062m9.5 137.5a.8.8 0 0 0-.746.5.82.82 0 0 0 .175.882.81.81 0 0 0 .88.176.81.81 0 0 0-.309-1.558M267 398.691a.807.807 0 0 0-.57 1.382.8.8 0 0 0 .879.175.807.807 0 0 0 .437-1.058.8.8 0 0 0-.437-.438.8.8 0 0 0-.309-.061m0 10.999a.807.807 0 0 0-.57 1.382.807.807 0 0 0 1.316-.882.8.8 0 0 0-.746-.5m9.5 159.5a.8.8 0 0 0-.746.5.82.82 0 0 0 .175.882.8.8 0 0 0 .88.176.81.81 0 0 0-.309-1.558m0 11.001a.8.8 0 0 0-.746.499.82.82 0 0 0 .175.882.8.8 0 0 0 .88.176.812.812 0 0 0 .262-1.32.8.8 0 0 0-.571-.237M267 453.69a.81.81 0 0 0-.746.5.812.812 0 0 0 .589 1.104.808.808 0 0 0 .728-1.367.8.8 0 0 0-.571-.237m0 11a.807.807 0 0 0-.57 1.382.807.807 0 0 0 1.316-.882.8.8 0 0 0-.437-.438.8.8 0 0 0-.309-.062m0 11.001a.813.813 0 0 0-.791.967.81.81 0 0 0 .634.636.807.807 0 0 0 .903-1.104.8.8 0 0 0-.437-.438.8.8 0 0 0-.309-.061m0 10.999a.807.807 0 0 0-.57 1.382.807.807 0 0 0 1.316-.882.8.8 0 0 0-.746-.5m0-44a.807.807 0 0 0-.57 1.382.807.807 0 0 0 1.316-.882.8.8 0 0 0-.437-.438.8.8 0 0 0-.309-.062m0-10.999a.8.8 0 0 0-.746.5.81.81 0 0 0 1.056 1.057.81.81 0 0 0-.31-1.557m-28.5 38.499a.81.81 0 1 0 .309 1.558.807.807 0 0 0 .437-1.058.8.8 0 0 0-.437-.438.8.8 0 0 0-.309-.062m171-33a.81.81 0 0 0-.746.5.81.81 0 0 0 .176.882.8.8 0 0 0 .879.176.81.81 0 0 0 .499-.748.8.8 0 0 0-.237-.573.8.8 0 0 0-.571-.237m0-22a.81.81 0 0 0-.746.5.81.81 0 0 0 .176.882.8.8 0 0 0 .879.176.81.81 0 0 0 .499-.748.8.8 0 0 0-.237-.573.8.8 0 0 0-.571-.237m0 11.001a.8.8 0 0 0-.448.136.81.81 0 0 0-.343.831.81.81 0 0 0 .634.636.807.807 0 0 0 .903-1.104.8.8 0 0 0-.437-.438.8.8 0 0 0-.309-.061m0-22.001a.81.81 0 0 0-.746.5.81.81 0 0 0 .176.882.81.81 0 0 0 .879.176.81.81 0 0 0 .499-.748.8.8 0 0 0-.237-.573.8.8 0 0 0-.571-.237m9.5 181.5a.8.8 0 0 0-.746.5.82.82 0 0 0 .175.882.81.81 0 0 0 .88.176.81.81 0 0 0-.309-1.558m0-10.999a.807.807 0 0 0-.571 1.381.8.8 0 0 0 .88.176.81.81 0 0 0-.309-1.557m-9.5-126.5a.81.81 0 0 0-.746.499.813.813 0 0 0 .589 1.104.807.807 0 0 0 .903-1.104.8.8 0 0 0-.437-.438.8.8 0 0 0-.309-.061m0 43.999a.81.81 0 0 0-.746.5.81.81 0 0 0 .176.882.8.8 0 0 0 .879.176.807.807 0 0 0 .437-1.058.8.8 0 0 0-.437-.438.8.8 0 0 0-.309-.062m0 11a.81.81 0 0 0-.746.5.81.81 0 0 0 .176.882.81.81 0 0 0 .879.176.81.81 0 0 0 .499-.748.8.8 0 0 0-.237-.573.8.8 0 0 0-.571-.237m9.5 60.5a.8.8 0 0 0-.746.5.82.82 0 0 0 .175.882.81.81 0 0 0 .88.176.81.81 0 0 0-.309-1.558m0-154a.8.8 0 0 0-.746.5.82.82 0 0 0 .175.882.81.81 0 0 0 .88.176.81.81 0 0 0-.309-1.558m-9.5 49.5a.81.81 0 0 0-.746.5.81.81 0 0 0 .176.882.8.8 0 0 0 .879.176.81.81 0 0 0 .499-.748.8.8 0 0 0-.237-.573.8.8 0 0 0-.571-.237m0 11a.81.81 0 1 0 .309 1.558.807.807 0 0 0 .437-1.058.8.8 0 0 0-.437-.438.8.8 0 0 0-.309-.062m9.5 49.5a.8.8 0 0 0-.746.5.82.82 0 0 0 .175.882.8.8 0 0 0 .88.176.81.81 0 0 0-.309-1.558m0-77a.8.8 0 0 0-.746.5.82.82 0 0 0 .175.882.81.81 0 0 0 .88.176.81.81 0 0 0-.309-1.558m0 11a.81.81 0 0 0-.746.5.81.81 0 0 0 .588 1.104.81.81 0 0 0 .829-.344.81.81 0 0 0-.671-1.26m0 11a.8.8 0 0 0-.746.5.82.82 0 0 0 .175.882.81.81 0 0 0 .88.176.81.81 0 0 0-.309-1.558m0-32.999a.8.8 0 0 0-.746.499.82.82 0 0 0 .175.882.8.8 0 0 0 .88.176.812.812 0 0 0 .262-1.32.8.8 0 0 0-.571-.237m0-11.001a.8.8 0 0 0-.746.5.82.82 0 0 0 .175.882.8.8 0 0 0 .88.176.81.81 0 0 0-.309-1.558m0 55.001a.807.807 0 0 0-.571 1.381.8.8 0 0 0 .88.176.81.81 0 0 0-.309-1.557m0 65.999a.8.8 0 0 0-.746.5.82.82 0 0 0 .175.882.81.81 0 0 0 .88.176.81.81 0 0 0-.309-1.558m-9.5-27.5a.81.81 0 0 0-.746.5.81.81 0 0 0 .176.882.8.8 0 0 0 .879.176.81.81 0 0 0 .499-.748.8.8 0 0 0-.237-.573.8.8 0 0 0-.571-.237m9.5-27.5a.8.8 0 0 0-.746.5.82.82 0 0 0 .175.882.81.81 0 0 0 .88.176.81.81 0 0 0-.309-1.558m0 66a.81.81 0 0 0-.746.5.81.81 0 0 0 .588 1.104.81.81 0 0 0 .829-.344.81.81 0 0 0-.671-1.26m0-21.999a.8.8 0 0 0-.746.499.82.82 0 0 0 .175.882.8.8 0 0 0 .88.176.812.812 0 0 0 .262-1.32.8.8 0 0 0-.571-.237m0-33a.807.807 0 0 0-.571 1.381.8.8 0 0 0 .88.176.81.81 0 0 0-.309-1.557m0 10.999a.8.8 0 0 0-.746.5.82.82 0 0 0 .175.882.81.81 0 0 0 .88.176.81.81 0 0 0-.309-1.558m-9.5-27.499a.8.8 0 0 0-.746.5.81.81 0 0 0 1.056 1.057.81.81 0 0 0-.31-1.557M400 519.69a.82.82 0 0 0-.746.5.82.82 0 0 0 .175.882.8.8 0 0 0 .88.176.81.81 0 0 0-.309-1.558m0 22a.807.807 0 0 0-.792.968.8.8 0 0 0 .221.414.8.8 0 0 0 .88.176.81.81 0 0 0-.309-1.558m0-33a.807.807 0 0 0-.792.968.8.8 0 0 0 .221.414.8.8 0 0 0 .88.176.81.81 0 0 0 .498-.748.8.8 0 0 0-.498-.748.8.8 0 0 0-.309-.062m0 22.001a.806.806 0 0 0-.792.967.8.8 0 0 0 .222.415.8.8 0 0 0 .879.175.807.807 0 0 0 .437-1.058.81.81 0 0 0-.746-.499m0-44.001a.807.807 0 0 0-.792.968.8.8 0 0 0 .221.414.8.8 0 0 0 .88.176.81.81 0 0 0 .498-.748.8.8 0 0 0-.498-.748.8.8 0 0 0-.309-.062m0-10.999a.806.806 0 0 0-.792.967.806.806 0 0 0 1.599-.158.804.804 0 0 0-.807-.809m0 22a.806.806 0 0 0-.792.967.806.806 0 0 0 1.599-.158.804.804 0 0 0-.807-.809m-9.5-93.501a.81.81 0 0 0-.746.5.81.81 0 0 0 .588 1.104.81.81 0 0 0 .829-.344.81.81 0 0 0-.671-1.26m0 11a.8.8 0 0 0-.746.5.82.82 0 0 0 .175.882.81.81 0 0 0 .88.176.81.81 0 0 0-.309-1.558m9.5 170.5a.807.807 0 0 0-.792.968.8.8 0 0 0 .221.414.8.8 0 0 0 .88.176.81.81 0 0 0 .498-.748.8.8 0 0 0-.498-.748.8.8 0 0 0-.309-.062m0-22a.807.807 0 0 0-.792.968.8.8 0 0 0 .221.414.8.8 0 0 0 .88.176.81.81 0 0 0 .498-.748.8.8 0 0 0-.498-.748.8.8 0 0 0-.309-.062m0-11a.807.807 0 0 0-.571 1.382.809.809 0 1 0 .571-1.382m9.5-27.499a.8.8 0 0 0-.448.136.81.81 0 0 0-.343.831.81.81 0 0 0 .634.636.807.807 0 0 0 .903-1.104.8.8 0 0 0-.437-.438.8.8 0 0 0-.309-.061m-9.5 49.5a.806.806 0 0 0-.792.967.806.806 0 0 0 1.599-.158.804.804 0 0 0-.807-.809m9.5-5.501a.81.81 0 1 0 .309 1.558.807.807 0 0 0 .437-1.058.8.8 0 0 0-.437-.438.8.8 0 0 0-.309-.062m-9.5-104.5a.807.807 0 0 0-.792.968.8.8 0 0 0 .221.414.8.8 0 0 0 .88.176.81.81 0 0 0-.309-1.558m9.5 115.501a.8.8 0 0 0-.746.5.81.81 0 0 0 1.056 1.057.81.81 0 0 0-.31-1.557m0-44.001a.81.81 0 0 0-.746.5.81.81 0 0 0 .176.882.8.8 0 0 0 .879.176.81.81 0 0 0 .499-.748.8.8 0 0 0-.237-.573.8.8 0 0 0-.571-.237M400 398.691a.806.806 0 0 0-.792.967.806.806 0 0 0 1.599-.158.804.804 0 0 0-.807-.809m-9.5 27.5a.807.807 0 0 0-.571 1.381.8.8 0 0 0 .88.176.81.81 0 0 0-.309-1.557m19 131.999a.81.81 0 0 0-.746.5.81.81 0 0 0 .176.882.8.8 0 0 0 .879.176.81.81 0 0 0 .499-.748.8.8 0 0 0-.237-.573.8.8 0 0 0-.571-.237m-9.5-115.5a.807.807 0 0 0-.792.968.8.8 0 0 0 .221.414.8.8 0 0 0 .88.176.81.81 0 0 0-.309-1.558m0 11a.807.807 0 0 0-.571 1.382.809.809 0 1 0 .571-1.382m0-33a.82.82 0 0 0-.746.5.82.82 0 0 0 .175.882.8.8 0 0 0 .88.176.81.81 0 0 0-.309-1.558m0 11.001a.806.806 0 0 0-.792.967.8.8 0 0 0 .222.415.8.8 0 0 0 .879.175.807.807 0 0 0 .437-1.058.81.81 0 0 0-.746-.499m0-22.001a.807.807 0 0 0-.792.968.8.8 0 0 0 .221.414.8.8 0 0 0 .88.176.81.81 0 0 0 .498-.748.8.8 0 0 0-.498-.748.8.8 0 0 0-.309-.062m9.5 137.501a.81.81 0 0 0-.746.499.81.81 0 0 0 .176.882.8.8 0 0 0 .879.176.807.807 0 0 0 .437-1.058.8.8 0 0 0-.437-.438.8.8 0 0 0-.309-.061m38 33a.8.8 0 0 0-.746.499.82.82 0 0 0 .175.882.8.8 0 0 0 .88.176.812.812 0 0 0 .262-1.32.8.8 0 0 0-.571-.237m0-11.001a.8.8 0 0 0-.746.5.82.82 0 0 0 .175.882.8.8 0 0 0 .88.176.81.81 0 0 0-.309-1.558m-9.5-170.5a.81.81 0 1 0 .309 1.558.807.807 0 0 0 .437-1.058.8.8 0 0 0-.437-.438.8.8 0 0 0-.309-.062m9.5 137.5a.8.8 0 0 0-.746.5.82.82 0 0 0 .175.882.81.81 0 0 0 .88.176.81.81 0 0 0-.309-1.558m0 11.001a.807.807 0 0 0-.571 1.381.8.8 0 0 0 .88.176.81.81 0 0 0-.309-1.557M438 409.69a.81.81 0 0 0-.746.5.81.81 0 0 0 .176.882.8.8 0 0 0 .879.176.81.81 0 0 0 .499-.748.8.8 0 0 0-.237-.573.8.8 0 0 0-.571-.237m9.5 148.5a.8.8 0 0 0-.746.5.82.82 0 0 0 .175.882.81.81 0 0 0 .88.176.82.82 0 0 0 .498-.748.81.81 0 0 0-.807-.81m-9.5-93.5a.81.81 0 0 0-.746.5.81.81 0 0 0 .176.882.8.8 0 0 0 .879.176.81.81 0 0 0 .499-.748.8.8 0 0 0-.237-.573.8.8 0 0 0-.571-.237m0-44a.81.81 0 1 0 .309 1.558.807.807 0 0 0 .437-1.058.8.8 0 0 0-.437-.438.8.8 0 0 0-.309-.062m0 55.001a.8.8 0 0 0-.448.136.81.81 0 0 0-.343.831.81.81 0 0 0 .634.636.807.807 0 0 0 .903-1.104.8.8 0 0 0-.437-.438.8.8 0 0 0-.309-.061m0-22.001a.81.81 0 0 0-.746.5.81.81 0 0 0 .176.882.81.81 0 0 0 .879.176.81.81 0 0 0 .499-.748.8.8 0 0 0-.237-.573.8.8 0 0 0-.571-.237m0-11a.81.81 0 0 0-.746.5.81.81 0 0 0 .176.882.8.8 0 0 0 .879.176.807.807 0 0 0 .437-1.058.8.8 0 0 0-.437-.438.8.8 0 0 0-.309-.062m0-10.999a.8.8 0 0 0-.746.5.81.81 0 0 0 1.056 1.057.81.81 0 0 0-.31-1.557m9.5-16.501a.8.8 0 0 0-.746.5.82.82 0 0 0 .175.882.81.81 0 0 0 .88.176.81.81 0 0 0-.309-1.558m0 22a.8.8 0 0 0-.746.5.82.82 0 0 0 .175.882.81.81 0 0 0 .88.176.81.81 0 0 0-.309-1.558m0 22a.8.8 0 0 0-.746.5.82.82 0 0 0 .175.882.81.81 0 0 0 .88.176.81.81 0 0 0-.309-1.558m0-11a.8.8 0 0 0-.746.5.82.82 0 0 0 .175.882.8.8 0 0 0 .88.176.81.81 0 0 0-.309-1.558m0-21.999a.807.807 0 0 0-.571 1.381.8.8 0 0 0 .88.176.81.81 0 0 0-.309-1.557M438 486.69a.81.81 0 0 0-.746.5.81.81 0 0 0 .176.882.8.8 0 0 0 .879.176.81.81 0 0 0 .499-.748.8.8 0 0 0-.237-.573.8.8 0 0 0-.571-.237m9.5 38.501a.807.807 0 0 0-.571 1.381.8.8 0 0 0 .88.176.81.81 0 0 0-.309-1.557m0-121.001a.81.81 0 0 0-.746.5.81.81 0 0 0 .588 1.104.81.81 0 0 0 .829-.344.81.81 0 0 0-.671-1.26m0 99a.81.81 0 0 0-.746.5.81.81 0 0 0 .588 1.104.81.81 0 0 0 .829-.344.81.81 0 0 0-.671-1.26m0-33a.8.8 0 0 0-.746.5.82.82 0 0 0 .175.882.8.8 0 0 0 .88.176.81.81 0 0 0-.309-1.558m0 44a.8.8 0 0 0-.746.5.82.82 0 0 0 .175.882.81.81 0 0 0 .88.176.81.81 0 0 0-.309-1.558m0-22a.8.8 0 0 0-.746.5.82.82 0 0 0 .175.882.81.81 0 0 0 .88.176.81.81 0 0 0-.309-1.558m0-10.999a.8.8 0 0 0-.746.499.82.82 0 0 0 .175.882.8.8 0 0 0 .88.176.812.812 0 0 0 .262-1.32.8.8 0 0 0-.571-.237m-19-77.001a.807.807 0 0 0-.792.968.81.81 0 0 0 .635.636.809.809 0 1 0 .157-1.604m0 77.001a.806.806 0 0 0-.792.967.8.8 0 0 0 .222.415.8.8 0 0 0 .879.175.807.807 0 0 0 .437-1.058.81.81 0 0 0-.746-.499m0 10.999a.807.807 0 0 0-.792.968.8.8 0 0 0 .221.414.8.8 0 0 0 .88.176.81.81 0 0 0-.309-1.558m0 11a.807.807 0 0 0-.792.968.81.81 0 0 0 .635.636.809.809 0 1 0 .157-1.604m0-33a.82.82 0 0 0-.746.5.82.82 0 0 0 .175.882.8.8 0 0 0 .88.176.81.81 0 0 0-.309-1.558m0-11a.807.807 0 0 0-.792.968.8.8 0 0 0 .221.414.8.8 0 0 0 .88.176.81.81 0 0 0 .498-.748.8.8 0 0 0-.498-.748.8.8 0 0 0-.309-.062m0 55a.807.807 0 0 0-.792.968.8.8 0 0 0 .221.414.8.8 0 0 0 .88.176.81.81 0 0 0 .498-.748.8.8 0 0 0-.498-.748.8.8 0 0 0-.309-.062m0 22a.807.807 0 0 0-.792.968.8.8 0 0 0 .221.414.8.8 0 0 0 .88.176.81.81 0 0 0 .498-.748.8.8 0 0 0-.498-.748.8.8 0 0 0-.309-.062m0 33a.82.82 0 0 0-.746.5.82.82 0 0 0 .175.882.8.8 0 0 0 .88.176.81.81 0 0 0-.309-1.558m9.5-71.5a.81.81 0 1 0 .309 1.558.807.807 0 0 0 .437-1.058.8.8 0 0 0-.437-.438.8.8 0 0 0-.309-.062m-9.5 60.5a.807.807 0 0 0-.792.968.8.8 0 0 0 .221.414.8.8 0 0 0 .88.176.81.81 0 0 0 .498-.748.8.8 0 0 0-.498-.748.8.8 0 0 0-.309-.062m0-10.999a.806.806 0 0 0-.792.967.8.8 0 0 0 .221.414.8.8 0 0 0 .88.176.81.81 0 0 0-.309-1.557m0-99.001a.82.82 0 0 0-.746.5.82.82 0 0 0 .175.882.8.8 0 0 0 .88.176.81.81 0 0 0-.309-1.558m0 77.001a.806.806 0 0 0-.792.967.806.806 0 0 0 1.599-.158.804.804 0 0 0-.807-.809m0 55a.806.806 0 0 0-.792.967.8.8 0 0 0 .222.415.8.8 0 0 0 .879.175.807.807 0 0 0 .437-1.058.81.81 0 0 0-.746-.499m9.5-16.501a.807.807 0 0 0-.57 1.382.8.8 0 0 0 .879.176.81.81 0 0 0 .499-.748.8.8 0 0 0-.237-.573.8.8 0 0 0-.571-.237m0-22a.807.807 0 0 0-.57 1.382.8.8 0 0 0 .879.176.807.807 0 0 0 .437-1.058.8.8 0 0 0-.437-.438.8.8 0 0 0-.309-.062m0 11a.81.81 0 0 0-.746.5.812.812 0 0 0 .589 1.104.808.808 0 0 0 .728-1.367.8.8 0 0 0-.571-.237m0-21.999a.8.8 0 0 0-.746.5.813.813 0 0 0 .589 1.103.81.81 0 0 0 .829-.344.82.82 0 0 0 .074-.76.8.8 0 0 0-.437-.438.8.8 0 0 0-.309-.061m0-11.001a.81.81 0 1 0 .309 1.558.807.807 0 0 0 .437-1.058.8.8 0 0 0-.437-.438.8.8 0 0 0-.309-.062m0-11a.807.807 0 0 0-.57 1.382.8.8 0 0 0 .879.176.81.81 0 0 0 .499-.748.8.8 0 0 0-.237-.573.8.8 0 0 0-.571-.237m-9.5-82.499a.806.806 0 0 0-.792.967.806.806 0 0 0 1.599-.158.804.804 0 0 0-.807-.809m9.5 148.5a.8.8 0 0 0-.448.136.81.81 0 0 0-.343.831.81.81 0 0 0 .634.636.807.807 0 0 0 .903-1.104.8.8 0 0 0-.437-.438.8.8 0 0 0-.309-.061m-9.5-137.501a.807.807 0 0 0-.792.968.8.8 0 0 0 .221.414.8.8 0 0 0 .88.176.81.81 0 0 0 .498-.748.8.8 0 0 0-.498-.748.8.8 0 0 0-.309-.062m0-22a.807.807 0 0 0-.792.968.8.8 0 0 0 .221.414.8.8 0 0 0 .88.176.81.81 0 0 0-.309-1.558m9.5 170.5a.81.81 0 0 0-.746.5.81.81 0 0 0 .176.882.8.8 0 0 0 .879.176.81.81 0 0 0 .499-.748.8.8 0 0 0-.237-.573.8.8 0 0 0-.571-.237m-19-186.999a.807.807 0 0 0-.571 1.381.8.8 0 0 0 .88.176.81.81 0 0 0-.309-1.557m-57 132a.8.8 0 0 0-.746.499.82.82 0 0 0 .175.882.8.8 0 0 0 .88.176.812.812 0 0 0 .262-1.32.8.8 0 0 0-.571-.237m0 54.999a.8.8 0 0 0-.746.5.82.82 0 0 0 .175.882.81.81 0 0 0 .88.176.81.81 0 0 0-.309-1.558m0-10.999a.807.807 0 0 0-.571 1.381.8.8 0 0 0 .88.176.81.81 0 0 0-.309-1.557m-9.5-170.501a.81.81 0 0 0-.746.5.812.812 0 0 0 .589 1.104.808.808 0 0 0 .728-1.367.8.8 0 0 0-.571-.237m0 11a.807.807 0 0 0-.57 1.382.8.8 0 0 0 .879.176.81.81 0 0 0 .499-.748.8.8 0 0 0-.237-.573.8.8 0 0 0-.571-.237m9.5 148.5a.8.8 0 0 0-.746.5.82.82 0 0 0 .175.882.81.81 0 0 0 .88.176.81.81 0 0 0-.309-1.558m0-11a.8.8 0 0 0-.746.5.81.81 0 0 0 .588 1.104.81.81 0 0 0 .829-.344.81.81 0 0 0-.671-1.26m-9.5-93.5a.807.807 0 0 0-.57 1.382.8.8 0 0 0 .879.176.81.81 0 0 0 .499-.748.8.8 0 0 0-.237-.573.8.8 0 0 0-.571-.237m0-32.999a.813.813 0 0 0-.791.967.81.81 0 0 0 .634.636.807.807 0 0 0 .903-1.104.8.8 0 0 0-.437-.438.8.8 0 0 0-.309-.061m0 43.999a.81.81 0 1 0 .309 1.558.807.807 0 0 0 .437-1.058.8.8 0 0 0-.437-.438.8.8 0 0 0-.309-.062m0 11.001a.8.8 0 0 0-.746.5.81.81 0 0 0 1.056 1.057.81.81 0 0 0-.31-1.557m9.5 60.499a.8.8 0 0 0-.746.5.82.82 0 0 0 .175.882.81.81 0 0 0 .88.176.81.81 0 0 0-.309-1.558m-9.5-49.5a.807.807 0 0 0-.57 1.382.8.8 0 0 0 .879.176.807.807 0 0 0 .437-1.058.8.8 0 0 0-.437-.438.8.8 0 0 0-.309-.062m0-55a.807.807 0 0 0-.57 1.382.8.8 0 0 0 .879.176.81.81 0 0 0 .499-.748.8.8 0 0 0-.237-.573.8.8 0 0 0-.571-.237m0 11.001a.807.807 0 0 0-.57 1.382.8.8 0 0 0 .879.175.807.807 0 0 0 .437-1.058.8.8 0 0 0-.437-.438.8.8 0 0 0-.309-.061m9.5-5.501a.8.8 0 0 0-.746.5.82.82 0 0 0 .175.882.81.81 0 0 0 .88.176.81.81 0 0 0-.309-1.558m0-10.999a.8.8 0 0 0-.746.499.82.82 0 0 0 .175.882.8.8 0 0 0 .88.176.812.812 0 0 0 .262-1.32.8.8 0 0 0-.571-.237m0 32.999a.8.8 0 0 0-.746.5.82.82 0 0 0 .175.882.81.81 0 0 0 .88.176.81.81 0 0 0-.309-1.558m0-11a.8.8 0 0 0-.746.5.81.81 0 0 0 .588 1.104.81.81 0 0 0 .829-.344.81.81 0 0 0-.671-1.26m0-44a.8.8 0 0 0-.746.5.82.82 0 0 0 .175.882.81.81 0 0 0 .88.176.81.81 0 0 0-.309-1.558m0 11a.8.8 0 0 0-.746.5.82.82 0 0 0 .175.882.8.8 0 0 0 .88.176.81.81 0 0 0-.309-1.558m-19 165a.807.807 0 0 0-.792.968.81.81 0 0 0 .635.636.808.808 0 0 0 .728-1.367.8.8 0 0 0-.571-.237m19-77a.8.8 0 0 0-.746.5.82.82 0 0 0 .175.882.81.81 0 0 0 .88.176.81.81 0 0 0-.309-1.558m0-32.999a.807.807 0 0 0-.571 1.381.8.8 0 0 0 .88.176.81.81 0 0 0-.309-1.557m0 43.999a.8.8 0 0 0-.746.5.82.82 0 0 0 .175.882.8.8 0 0 0 .88.176.81.81 0 0 0-.309-1.558m0-21.999a.807.807 0 0 0-.571 1.381.8.8 0 0 0 .88.176.81.81 0 0 0-.309-1.557m0-11.001a.8.8 0 0 0-.746.5.82.82 0 0 0 .175.882.81.81 0 0 0 .88.176.81.81 0 0 0-.309-1.558m-9.5 60.501a.807.807 0 0 0-.57 1.382.8.8 0 0 0 .879.175.807.807 0 0 0 .437-1.058.8.8 0 0 0-.437-.438.8.8 0 0 0-.309-.061M343 486.69a.807.807 0 0 0-.792.968.81.81 0 0 0 .635.636.808.808 0 0 0 .728-1.367.8.8 0 0 0-.571-.237m0 11.001a.806.806 0 0 0-.792.967.806.806 0 0 0 1.599-.158.804.804 0 0 0-.807-.809m0 10.999a.807.807 0 0 0-.792.968.81.81 0 0 0 .635.636.808.808 0 0 0 .728-1.367.8.8 0 0 0-.571-.237m0 11a.82.82 0 0 0-.746.5.82.82 0 0 0 .175.882.8.8 0 0 0 .88.176.81.81 0 0 0-.309-1.558m0-43.999a.806.806 0 0 0-.792.967.806.806 0 0 0 1.599-.158.804.804 0 0 0-.807-.809m0-11.001a.807.807 0 0 0-.792.968.81.81 0 0 0 .635.636.808.808 0 0 0 .728-1.367.8.8 0 0 0-.571-.237m0 88a.807.807 0 0 0-.571 1.382.809.809 0 1 0 .571-1.382m0-21.999a.806.806 0 0 0-.792.967.8.8 0 0 0 .222.415.8.8 0 0 0 .879.175.807.807 0 0 0 .437-1.058.81.81 0 0 0-.746-.499m0 32.999a.807.807 0 0 0-.792.968.81.81 0 0 0 .635.636.808.808 0 0 0 .728-1.367.8.8 0 0 0-.571-.237m0 11.001a.806.806 0 0 0-.792.967.806.806 0 0 0 1.599-.158.804.804 0 0 0-.807-.809m0-33.001a.807.807 0 0 0-.792.968.81.81 0 0 0 .635.636.808.808 0 0 0 .728-1.367.8.8 0 0 0-.571-.237m0-88a.807.807 0 0 0-.571 1.382.809.809 0 1 0 .571-1.382m0-11a.807.807 0 0 0-.792.968.81.81 0 0 0 .635.636.808.808 0 0 0 .728-1.367.8.8 0 0 0-.571-.237m9.5 126.5a.81.81 0 1 0 .309 1.558.807.807 0 0 0 .437-1.058.8.8 0 0 0-.437-.438.8.8 0 0 0-.309-.062m0-33a.807.807 0 0 0-.57 1.382.8.8 0 0 0 .879.176.81.81 0 0 0 .499-.748.8.8 0 0 0-.237-.573.8.8 0 0 0-.571-.237m0-33a.81.81 0 0 0-.746.5.812.812 0 0 0 .589 1.104.808.808 0 0 0 .728-1.367.8.8 0 0 0-.571-.237m9.5-104.499a.807.807 0 0 0-.571 1.381.8.8 0 0 0 .88.176.81.81 0 0 0-.309-1.557m-9.5 126.5a.813.813 0 0 0-.791.967.81.81 0 0 0 .634.636.807.807 0 0 0 .903-1.104.8.8 0 0 0-.437-.438.8.8 0 0 0-.309-.061m0-11.001a.807.807 0 0 0-.57 1.382.8.8 0 0 0 .879.176.81.81 0 0 0 .499-.748.8.8 0 0 0-.237-.573.8.8 0 0 0-.571-.237m0 44a.807.807 0 0 0-.57 1.382.8.8 0 0 0 .879.176.81.81 0 0 0 .499-.748.8.8 0 0 0-.237-.573.8.8 0 0 0-.571-.237M343 431.691a.806.806 0 0 0-.792.967.8.8 0 0 0 .222.415.8.8 0 0 0 .879.175.807.807 0 0 0 .437-1.058.81.81 0 0 0-.746-.499m0-11.001a.82.82 0 0 0-.746.5.82.82 0 0 0 .175.882.8.8 0 0 0 .88.176.81.81 0 0 0-.309-1.558m0-11a.807.807 0 0 0-.792.968.81.81 0 0 0 .635.636.808.808 0 0 0 .728-1.367.8.8 0 0 0-.571-.237m0-10.999a.806.806 0 0 0-.792.967.806.806 0 0 0 1.599-.158.804.804 0 0 0-.807-.809m9.5 181.5a.8.8 0 0 0-.746.5.81.81 0 0 0 1.056 1.057.81.81 0 0 0-.31-1.557m19-33a.806.806 0 0 0-.792.967.806.806 0 0 0 1.599-.158.804.804 0 0 0-.807-.809m9.5-115.5a.8.8 0 0 0-.746.5.81.81 0 0 0 1.056 1.057.81.81 0 0 0-.31-1.557m0-11.001a.81.81 0 1 0 .309 1.558.807.807 0 0 0 .437-1.058.8.8 0 0 0-.437-.438.8.8 0 0 0-.309-.062m0 33a.81.81 0 0 0-.746.5.81.81 0 0 0 .176.882.81.81 0 0 0 .879.176.81.81 0 0 0 .499-.748.8.8 0 0 0-.237-.573.8.8 0 0 0-.571-.237m0-11a.81.81 0 0 0-.746.5.81.81 0 0 0 .176.882.8.8 0 0 0 .879.176.807.807 0 0 0 .437-1.058.8.8 0 0 0-.437-.438.8.8 0 0 0-.309-.062m0-43.999a.81.81 0 0 0-.746.499.813.813 0 0 0 .589 1.104.807.807 0 0 0 .903-1.104.8.8 0 0 0-.437-.438.8.8 0 0 0-.309-.061m0 10.999a.81.81 0 0 0-.746.5.81.81 0 0 0 .176.882.8.8 0 0 0 .879.176.81.81 0 0 0 .499-.748.8.8 0 0 0-.237-.573.8.8 0 0 0-.571-.237m0 110a.81.81 0 1 0 .309 1.558.807.807 0 0 0 .437-1.058.8.8 0 0 0-.437-.438.8.8 0 0 0-.309-.062m0-11a.81.81 0 0 0-.746.5.81.81 0 0 0 .176.882.8.8 0 0 0 .879.176.81.81 0 0 0 .499-.748.8.8 0 0 0-.237-.573.8.8 0 0 0-.571-.237m9.5 71.501a.8.8 0 0 0-.746.499.82.82 0 0 0 .175.882.8.8 0 0 0 .88.176.812.812 0 0 0 .262-1.32.8.8 0 0 0-.571-.237M381 464.69a.81.81 0 0 0-.746.5.81.81 0 0 0 .176.882.8.8 0 0 0 .879.176.807.807 0 0 0 .437-1.058.8.8 0 0 0-.437-.438.8.8 0 0 0-.309-.062m0 33.001a.81.81 0 0 0-.746.499.813.813 0 0 0 .589 1.104.807.807 0 0 0 .903-1.104.8.8 0 0 0-.437-.438.8.8 0 0 0-.309-.061m0-22a.8.8 0 0 0-.448.136.81.81 0 0 0-.343.831.81.81 0 0 0 .634.636.807.807 0 0 0 .903-1.104.8.8 0 0 0-.437-.438.8.8 0 0 0-.309-.061m9.5 16.499a.8.8 0 0 0-.746.5.82.82 0 0 0 .175.882.81.81 0 0 0 .88.176.81.81 0 0 0-.309-1.558m0-10.999a.8.8 0 0 0-.746.499.82.82 0 0 0 .175.882.8.8 0 0 0 .88.176.812.812 0 0 0 .262-1.32.8.8 0 0 0-.571-.237m-9.5 49.5a.8.8 0 0 0-.746.5.81.81 0 0 0 1.056 1.057.81.81 0 0 0-.31-1.557m9.5-60.501a.8.8 0 0 0-.746.5.82.82 0 0 0 .175.882.8.8 0 0 0 .88.176.81.81 0 0 0-.309-1.558m0 99a.8.8 0 0 0-.746.5.82.82 0 0 0 .175.882.8.8 0 0 0 .88.176.81.81 0 0 0-.309-1.558m0-66a.81.81 0 0 0-.746.5.81.81 0 0 0 .588 1.104.81.81 0 0 0 .829-.344.81.81 0 0 0-.671-1.26m0-54.999a.807.807 0 0 0-.571 1.381.8.8 0 0 0 .88.176.81.81 0 0 0-.309-1.557m0 10.999a.8.8 0 0 0-.746.5.82.82 0 0 0 .175.882.81.81 0 0 0 .88.176.81.81 0 0 0-.309-1.558m0 88.001a.807.807 0 0 0-.571 1.381.8.8 0 0 0 .88.176.81.81 0 0 0-.309-1.557m0 10.999a.8.8 0 0 0-.746.5.82.82 0 0 0 .175.882.81.81 0 0 0 .88.176.81.81 0 0 0-.309-1.558m0-32.999a.807.807 0 0 0-.571 1.381.8.8 0 0 0 .88.176.81.81 0 0 0-.309-1.557m0 10.999a.8.8 0 0 0-.746.5.82.82 0 0 0 .175.882.81.81 0 0 0 .88.176.81.81 0 0 0-.309-1.558m0-22a.8.8 0 0 0-.746.5.82.82 0 0 0 .175.882.81.81 0 0 0 .88.176.81.81 0 0 0-.309-1.558m-9.5-27.5a.81.81 0 0 0-.746.5.81.81 0 0 0 .176.882.8.8 0 0 0 .879.176.81.81 0 0 0 .499-.748.8.8 0 0 0-.237-.573.8.8 0 0 0-.571-.237m-9.5-16.5a.82.82 0 0 0-.746.5.82.82 0 0 0 .175.882.8.8 0 0 0 .88.176.81.81 0 0 0-.309-1.558m0 66a.807.807 0 0 0-.792.968.81.81 0 0 0 .635.636.808.808 0 0 0 .728-1.367.8.8 0 0 0-.571-.237m0 22a.807.807 0 0 0-.792.968.81.81 0 0 0 .635.636.808.808 0 0 0 .728-1.367.8.8 0 0 0-.571-.237m19-121a.8.8 0 0 0-.746.5.82.82 0 0 0 .175.882.81.81 0 0 0 .88.176.81.81 0 0 0-.309-1.558m-19 132a.82.82 0 0 0-.746.5.82.82 0 0 0 .175.882.8.8 0 0 0 .88.176.81.81 0 0 0-.309-1.558m0-110a.807.807 0 0 0-.792.968.81.81 0 0 0 .635.636.808.808 0 0 0 .728-1.367.8.8 0 0 0-.571-.237m0-10.999a.806.806 0 0 0-.792.967.806.806 0 0 0 1.599-.158.804.804 0 0 0-.807-.809m0 65.999a.807.807 0 0 0-.792.968.81.81 0 0 0 .635.636.808.808 0 0 0 .728-1.367.8.8 0 0 0-.571-.237m0-11a.807.807 0 0 0-.571 1.382.809.809 0 1 0 .571-1.382m0-21.999a.806.806 0 0 0-.792.967.8.8 0 0 0 .222.415.8.8 0 0 0 .879.175.807.807 0 0 0 .437-1.058.81.81 0 0 0-.746-.499m0 10.999a.807.807 0 0 0-.792.968.81.81 0 0 0 .635.636.808.808 0 0 0 .728-1.367.8.8 0 0 0-.571-.237m9.5 49.5a.81.81 0 0 0-.746.5.81.81 0 0 0 .176.882.8.8 0 0 0 .879.176.807.807 0 0 0 .437-1.058.8.8 0 0 0-.437-.438.8.8 0 0 0-.309-.062m-9.5-115.499a.806.806 0 0 0-.792.967.806.806 0 0 0 1.599-.158.804.804 0 0 0-.807-.809m9.5 148.5a.8.8 0 0 0-.448.136.81.81 0 0 0-.343.831.81.81 0 0 0 .634.636.807.807 0 0 0 .903-1.104.8.8 0 0 0-.437-.438.8.8 0 0 0-.309-.061m-9.5 5.5a.806.806 0 0 0-.792.967.8.8 0 0 0 .222.415.8.8 0 0 0 .879.175.807.807 0 0 0 .437-1.058.81.81 0 0 0-.746-.499m9.5 5.499a.81.81 0 0 0-.746.5.81.81 0 0 0 .176.882.8.8 0 0 0 .879.176.81.81 0 0 0 .499-.748.8.8 0 0 0-.237-.573.8.8 0 0 0-.571-.237m0-33a.81.81 0 0 0-.746.5.81.81 0 0 0 .176.882.81.81 0 0 0 .879.176.81.81 0 0 0 .499-.748.8.8 0 0 0-.237-.573.8.8 0 0 0-.571-.237m0 11a.81.81 0 0 0-.746.5.81.81 0 0 0 .176.882.8.8 0 0 0 .879.176.81.81 0 0 0 .499-.748.8.8 0 0 0-.237-.573.8.8 0 0 0-.571-.237m-9.5-159.5a.807.807 0 0 0-.571 1.382.809.809 0 1 0 .571-1.382m0 33a.807.807 0 0 0-.792.968.81.81 0 0 0 .635.636.808.808 0 0 0 .728-1.367.8.8 0 0 0-.571-.237m0 88.001a.806.806 0 0 0-.792.967.806.806 0 0 0 1.599-.158.804.804 0 0 0-.807-.809m0-110.001a.807.807 0 0 0-.792.968.81.81 0 0 0 .635.636.808.808 0 0 0 .728-1.367.8.8 0 0 0-.571-.237M107.11 592h-3.22L1 532.432v-1.865l105.865 61.29zm-95 0L1 585.567v1.864L8.89 592zm75.755-.143L1 541.567v1.865L84.891 592h3.22zm-19 0L1 552.566v1.865L65.89 592h3.22zm-38 0L1 574.567v1.865L27.89 592h3.22zm19 0L1 563.567v1.864L46.89 592h3.22z"/>
  <path fill="#63D0FF" d="M122.89 394h3.22L229 453.568v1.865l-105.865-61.29zm95 0 11.11 6.433v-1.864L221.109 394zm-75.755.143L229 444.433v-1.865L145.109 394h-3.22zm19 0L229 433.434v-1.865L164.109 394h-3.22zm38 0L229 411.433v-1.865L202.11 394h-3.221zm-19 0L229 422.433v-1.864L183.109 394h-3.219zM1.082 442.615 229 574.568v1.864l-.082-.048L1 444.432v-1.865zM1 431.568v1.864l227.918 131.953.082.048v-1.865L1.082 431.616zm0 21.999v1.866l227.918 131.951.082.048v-1.863L1.082 453.615zm0-32.999v1.864l227.918 131.953.082.047v-1.864L1.082 420.616zm0-11v1.864l227.918 131.953.082.047v-1.864L1.082 409.616zm0-11v1.864l227.918 131.953.082.047v-1.864L1.082 398.615zM228 72.31a.808.808 0 0 0 .792-.968.808.808 0 1 0-1.363.73.8.8 0 0 0 .571.237zm0 11a.807.807 0 0 0 .792-.968.808.808 0 1 0-1.363.73.8.8 0 0 0 .571.238m0-22a.808.808 0 0 0 .792-.968.807.807 0 1 0-1.538.468.82.82 0 0 0 .437.438.8.8 0 0 0 .309.061zm0 44a.807.807 0 0 0 .792-.968.81.81 0 0 0-.635-.636.808.808 0 0 0-.728 1.367.8.8 0 0 0 .571.237m0-11a.808.808 0 0 0 .792-.968.807.807 0 1 0-1.538.468.82.82 0 0 0 .437.438.8.8 0 0 0 .309.061zm0-77a.808.808 0 0 0 .792-.968.807.807 0 1 0-1.538.468.82.82 0 0 0 .437.438q.149.06.309.061zm0 11a.808.808 0 0 0 .792-.968.807.807 0 1 0-1.538.468.82.82 0 0 0 .437.438.8.8 0 0 0 .309.062m0 22a.808.808 0 0 0 .792-.968.807.807 0 1 0-1.538.468.82.82 0 0 0 .437.438.8.8 0 0 0 .309.062m0-11a.808.808 0 0 0 .792-.968.807.807 0 1 0-1.538.468.82.82 0 0 0 .437.438.8.8 0 0 0 .309.062m0 88a.807.807 0 0 0 .792-.968.81.81 0 0 0-.635-.636.808.808 0 0 0-.728 1.367.8.8 0 0 0 .571.237m0 44a.82.82 0 0 0 .746-.5.82.82 0 0 0-.175-.882.8.8 0 0 0-.88-.176.81.81 0 0 0 .309 1.558m0 11a.807.807 0 0 0 .792-.968.81.81 0 0 0-.635-.636.808.808 0 0 0-.728 1.367.8.8 0 0 0 .571.237m0 10.999a.806.806 0 0 0 .792-.967.806.806 0 0 0-1.599.158.804.804 0 0 0 .807.809m0-33a.806.806 0 0 0 .792-.967.806.806 0 0 0-1.599.158.8.8 0 0 0 .236.573.8.8 0 0 0 .571.236m0-21.999a.807.807 0 0 0 .792-.968.81.81 0 0 0-.635-.636.809.809 0 1 0-.157 1.604m0 11a.807.807 0 0 0 .792-.968.81.81 0 0 0-.635-.636.808.808 0 0 0-.728 1.367.8.8 0 0 0 .571.237m0-143a.807.807 0 0 0 .792-.968.807.807 0 1 0-1.538.468.82.82 0 0 0 .437.438.8.8 0 0 0 .309.062m0 109.999a.806.806 0 0 0 .792-.967.806.806 0 0 0-1.599.158.804.804 0 0 0 .807.809m-85.5 82.501a.807.807 0 0 0 .792-.968.8.8 0 0 0-.221-.414.8.8 0 0 0-.88-.176.81.81 0 0 0 .309 1.558m-19 0a.8.8 0 0 0 .746-.5.82.82 0 0 0-.175-.882.81.81 0 0 0-.88-.176.81.81 0 0 0 .309 1.558m-19 0a.81.81 0 0 0 .746-.5.81.81 0 0 0-.176-.882.8.8 0 0 0-.879-.176.807.807 0 0 0-.437 1.058.8.8 0 0 0 .437.438.8.8 0 0 0 .309.062m-95 0a.81.81 0 0 0 .746-.5.812.812 0 0 0-.588-1.104.81.81 0 1 0-.158 1.604m171 0a.8.8 0 0 0 .746-.5.82.82 0 0 0-.175-.882.81.81 0 0 0-.88-.176.81.81 0 0 0 .309 1.558m-152 0a.81.81 0 0 0 .746-.5.812.812 0 0 0-.589-1.104.81.81 0 1 0-.157 1.604m171 0a.81.81 0 0 0 .746-.5.82.82 0 0 0-.175-.882.808.808 0 1 0-1.142 1.144.8.8 0 0 0 .571.238m-114 0a.81.81 0 0 0 .746-.5.813.813 0 0 0-.589-1.104.81.81 0 1 0-.157 1.604m76 0a.807.807 0 0 0 .57-1.382.8.8 0 0 0-.879-.176.807.807 0 0 0-.437 1.058.8.8 0 0 0 .437.438.8.8 0 0 0 .309.062m-95 0a.81.81 0 0 0 .746-.5.812.812 0 0 0-.588-1.104.81.81 0 1 0-.158 1.604m152 0a.807.807 0 0 0 .57-1.382.8.8 0 0 0-.879-.176.807.807 0 0 0-.437 1.058.8.8 0 0 0 .437.438.8.8 0 0 0 .309.062m-171 0a.81.81 0 0 0 .745-.5.813.813 0 0 0-.588-1.104.81.81 0 1 0-.157 1.604M152 83.31a.8.8 0 0 0 .746-.5.81.81 0 0 0-.175-.882.81.81 0 0 0-.88-.176.812.812 0 0 0-.262 1.32.8.8 0 0 0 .571.238m0-66a.8.8 0 0 0 .746-.5.81.81 0 0 0-.175-.882.81.81 0 0 0-.88-.176.81.81 0 0 0 .309 1.557zm0 33a.8.8 0 0 0 .746-.5.81.81 0 0 0-.175-.882.81.81 0 0 0-.88-.176.81.81 0 0 0 .309 1.558m0-22a.8.8 0 0 0 .746-.5.81.81 0 0 0-.175-.882.808.808 0 1 0-1.142 1.144.8.8 0 0 0 .571.238m0 33a.8.8 0 0 0 .746-.5.81.81 0 0 0-.175-.883.807.807 0 0 0-1.378.573.81.81 0 0 0 .807.81m0 11a.8.8 0 0 0 .746-.5.81.81 0 0 0-.175-.882.808.808 0 0 0-1.242.122.809.809 0 0 0 .671 1.26m0-33a.8.8 0 0 0 .746-.5.81.81 0 0 0-.175-.882.808.808 0 0 0-1.242.122.809.809 0 0 0 .671 1.26m0 153.999a.807.807 0 0 0 .571-1.381.8.8 0 0 0-.88-.176.81.81 0 0 0 .309 1.557m-9.5-181.5a.807.807 0 0 0 .792-.967.808.808 0 1 0-1.363.73.8.8 0 0 0 .571.237M152 182.31a.8.8 0 0 0 .746-.5.82.82 0 0 0-.175-.882.81.81 0 0 0-.88-.176.81.81 0 0 0 .309 1.558m-9.5-148.5a.807.807 0 0 0 .792-.968.82.82 0 0 0-.635-.636.8.8 0 0 0-.828.344.809.809 0 0 0 .671 1.26m9.5 137.5a.8.8 0 0 0 .746-.5.82.82 0 0 0-.175-.882.8.8 0 0 0-.88-.176.81.81 0 0 0 .309 1.558m-9.5-148.5a.807.807 0 0 0 .792-.968.807.807 0 1 0-1.538.468.82.82 0 0 0 .437.438.8.8 0 0 0 .309.061zm9.5 137.499a.8.8 0 0 0 .746-.499.82.82 0 0 0-.175-.882.8.8 0 0 0-.88-.176.812.812 0 0 0-.262 1.32.8.8 0 0 0 .571.237m0-44a.807.807 0 0 0 .571-1.381.8.8 0 0 0-.88-.176.81.81 0 0 0 .309 1.557m0-22a.8.8 0 0 0 .746-.499.81.81 0 0 0-.175-.882.808.808 0 1 0-1.142 1.144.8.8 0 0 0 .571.237m0 33.001a.8.8 0 0 0 .746-.5.82.82 0 0 0-.175-.882.81.81 0 0 0-.88-.176.81.81 0 0 0 .309 1.558m0-22a.8.8 0 0 0 .746-.5.82.82 0 0 0-.175-.882.81.81 0 0 0-.88-.176.81.81 0 0 0 .309 1.558m0 33a.8.8 0 0 0 .746-.5.81.81 0 0 0-.588-1.104.81.81 0 0 0-.829.344.81.81 0 0 0 .671 1.26m0 11a.8.8 0 0 0 .746-.5.82.82 0 0 0-.175-.882.81.81 0 0 0-.88-.176.81.81 0 0 0 .309 1.558m19 33a.81.81 0 0 0 .746-.5.82.82 0 0 0-.175-.882.808.808 0 1 0-1.142 1.144.8.8 0 0 0 .571.238m-9.5-170.5a.808.808 0 1 0-.002-1.617.808.808 0 0 0 .002 1.616zm0 22a.808.808 0 1 0-.002-1.617.808.808 0 0 0 .002 1.617m0 33a.808.808 0 1 0-.002-1.617.808.808 0 0 0 .002 1.617m0-11a.8.8 0 0 0 .746-.5.808.808 0 0 0-1.418-.76.82.82 0 0 0-.074.76.8.8 0 0 0 .437.438.8.8 0 0 0 .309.062m0-11a.808.808 0 1 0-.002-1.617.808.808 0 0 0 .002 1.616zm0-22a.8.8 0 0 0 .746-.5.808.808 0 0 0-1.418-.76.82.82 0 0 0-.074.76.8.8 0 0 0 .437.438.8.8 0 0 0 .309.061zm9.5 170.499a.814.814 0 0 0 .792-.967.806.806 0 0 0-1.599.158.81.81 0 0 0 .807.809m0-43.999a.81.81 0 0 0 .746-.5.82.82 0 0 0-.175-.882.808.808 0 1 0-1.142 1.144.8.8 0 0 0 .571.238m0-11a.81.81 0 0 0 .746-.5.81.81 0 0 0-.588-1.104.81.81 0 0 0-.829.344.81.81 0 0 0 .671 1.26m0 33a.81.81 0 0 0 .746-.5.82.82 0 0 0-.175-.882.8.8 0 0 0-.88-.176.81.81 0 0 0 .309 1.558m0-11.001a.805.805 0 0 0 .746-.499.82.82 0 0 0-.175-.882.8.8 0 0 0-.88-.176.812.812 0 0 0-.262 1.32.8.8 0 0 0 .571.237m-9.5-49.5a.8.8 0 0 0 .746-.5.81.81 0 0 0-1.056-1.057.81.81 0 0 0 .31 1.557m0 55a.813.813 0 0 0 .791-.967.81.81 0 0 0-.634-.636.807.807 0 0 0-.903 1.104.8.8 0 0 0 .437.438.8.8 0 0 0 .309.061m0-88a.809.809 0 1 0-.002-1.618.809.809 0 0 0 .002 1.619zm0 99.001a.807.807 0 0 0 .57-1.382.8.8 0 0 0-.879-.176.807.807 0 0 0-.437 1.058.8.8 0 0 0 .437.438.8.8 0 0 0 .309.062m0-33.001a.807.807 0 0 0 .57-1.382.8.8 0 0 0-.879-.175.807.807 0 0 0-.437 1.058.8.8 0 0 0 .437.438.8.8 0 0 0 .309.061m0 44.001a.81.81 0 0 0 .746-.5.81.81 0 0 0-.176-.882.81.81 0 0 0-.879-.176.81.81 0 0 0-.499.748.8.8 0 0 0 .237.573.8.8 0 0 0 .571.237m0-33a.807.807 0 0 0 .57-1.382.807.807 0 0 0-1.316.882.8.8 0 0 0 .746.5m0-55a.809.809 0 1 0-.002-1.618.809.809 0 0 0 .002 1.617zm0-11a.8.8 0 0 0 .746-.5.81.81 0 0 0-.175-.882.807.807 0 0 0-1.317.882.8.8 0 0 0 .437.438.8.8 0 0 0 .309.062m0 44a.807.807 0 0 0 .57-1.382.807.807 0 0 0-1.316.882.8.8 0 0 0 .746.5m0-11a.81.81 0 1 0-.309-1.558.807.807 0 0 0-.437 1.058.8.8 0 0 0 .437.438.8.8 0 0 0 .309.062M152 6.31a.8.8 0 0 0 .746-.5.81.81 0 0 0-.175-.882.808.808 0 0 0-1.242.122.809.809 0 0 0 .671 1.26m-19 55a.808.808 0 1 0-.002-1.617.808.808 0 0 0 .002 1.616zm-9.5-27.5a.8.8 0 0 0 .746-.5.81.81 0 0 0-.175-.882.808.808 0 0 0-1.242.122.809.809 0 0 0 .671 1.26m0 44a.8.8 0 0 0 .746-.5.81.81 0 0 0-.175-.882.808.808 0 1 0-1.142 1.144.8.8 0 0 0 .571.238m0-33a.8.8 0 0 0 .746-.5.81.81 0 0 0-.175-.882.81.81 0 0 0-.88-.176.81.81 0 0 0 .309 1.557zm0 11a.8.8 0 0 0 .746-.5.81.81 0 0 0-.175-.882.808.808 0 0 0-1.242.122.81.81 0 0 0 .671 1.26m0-44a.8.8 0 0 0 .746-.5.81.81 0 0 0-.175-.883.808.808 0 1 0-1.142 1.145.8.8 0 0 0 .571.237zm0 55a.8.8 0 0 0 .746-.5.81.81 0 0 0-.175-.882.81.81 0 0 0-.88-.176.81.81 0 0 0 .309 1.558m0-44a.8.8 0 0 0 .746-.5.81.81 0 0 0-.175-.882.81.81 0 0 0-.88-.176.811.811 0 0 0 .309 1.558m9.5 170.499a.81.81 0 0 0 .746-.499.813.813 0 0 0-.589-1.104.807.807 0 0 0-.903 1.104.8.8 0 0 0 .437.438.8.8 0 0 0 .309.061m0-43.999a.81.81 0 1 0-.309-1.558.807.807 0 0 0-.437 1.058.8.8 0 0 0 .437.438.8.8 0 0 0 .309.062m0-11a.81.81 0 0 0 .746-.5.81.81 0 0 0-.176-.882.81.81 0 0 0-.879-.176.81.81 0 0 0 .309 1.558m0 44a.81.81 0 0 0 .746-.5.81.81 0 0 0-.176-.882.8.8 0 0 0-.879-.176.81.81 0 0 0-.499.748.8.8 0 0 0 .237.573.8.8 0 0 0 .571.237m0-22.001a.8.8 0 0 0 .746-.5.81.81 0 0 0-1.056-1.057.81.81 0 0 0 .31 1.557m-9.5 5.5a.807.807 0 0 0 .571-1.381.8.8 0 0 0-.88-.176.81.81 0 0 0 .309 1.557m0-77a.8.8 0 0 0 .746-.499.81.81 0 0 0-.175-.882.808.808 0 0 0-1.242.122.809.809 0 0 0 .671 1.26zm0 88.001a.8.8 0 0 0 .746-.5.82.82 0 0 0-.175-.882.81.81 0 0 0-.88-.176.81.81 0 0 0 .309 1.558m9.5-49.5a.807.807 0 0 0 .57-1.382.8.8 0 0 0-.879-.176.807.807 0 0 0-.437 1.058.8.8 0 0 0 .437.438.8.8 0 0 0 .309.062m9.5-82.5a.808.808 0 0 0 .792-.968.807.807 0 1 0-1.538.468.82.82 0 0 0 .437.438.8.8 0 0 0 .309.062m28.5 82.5a.81.81 0 0 0 .746-.5.82.82 0 0 0-.175-.882.808.808 0 1 0-1.142 1.144.8.8 0 0 0 .571.238m-47.5 27.5a.8.8 0 0 0 .746-.5.82.82 0 0 0-.175-.882.81.81 0 0 0-.88-.176.81.81 0 0 0 .309 1.558m0-55a.8.8 0 0 0 .746-.5.81.81 0 0 0-.175-.882.81.81 0 0 0-.88-.176.812.812 0 0 0-.262 1.32.8.8 0 0 0 .571.237zm0 10.999a.8.8 0 0 0 .746-.499.82.82 0 0 0-.175-.883.806.806 0 0 0-1.378.573.81.81 0 0 0 .807.809m0 22.001a.8.8 0 0 0 .746-.5.82.82 0 0 0-.175-.882.81.81 0 0 0-.88-.176.81.81 0 0 0 .309 1.558m0-11a.8.8 0 0 0 .746-.5.82.82 0 0 0-.175-.882.8.8 0 0 0-.88-.176.81.81 0 0 0 .309 1.558m0 21.999a.807.807 0 0 0 .571-1.381.8.8 0 0 0-.88-.176.81.81 0 0 0 .309 1.557m0 44.001a.81.81 0 0 0 .746-.5.81.81 0 0 0-.588-1.104.81.81 0 0 0-.829.344.81.81 0 0 0 .671 1.26m19-55a.807.807 0 0 0 .792-.968.81.81 0 0 0-.635-.636.808.808 0 0 0-.728 1.367.8.8 0 0 0 .571.237m0-11a.82.82 0 0 0 .746-.5.82.82 0 0 0-.175-.882.8.8 0 0 0-.88-.176.81.81 0 0 0 .309 1.558m0 21.999a.806.806 0 0 0 .792-.967.806.806 0 0 0-1.599.158.804.804 0 0 0 .807.809m0 11.001a.807.807 0 0 0 .792-.968.81.81 0 0 0-.635-.636.808.808 0 0 0-.728 1.367.8.8 0 0 0 .571.237m0 10.999a.806.806 0 0 0 .792-.967.806.806 0 0 0-1.599.158.804.804 0 0 0 .807.809m0-55a.806.806 0 0 0 .792-.967.806.806 0 0 0-1.599.158.82.82 0 0 0 .236.573.8.8 0 0 0 .571.236m0-55a.808.808 0 0 0 .792-.967.807.807 0 1 0-1.538.468.82.82 0 0 0 .437.438.8.8 0 0 0 .309.062zm0 11a.808.808 0 0 0 .792-.967.807.807 0 1 0-1.538.468.82.82 0 0 0 .437.438q.149.06.309.061m0 22a.808.808 0 1 0-.001-1.616.808.808 0 0 0 .001 1.617zm0 11a.807.807 0 0 0 .792-.967.82.82 0 0 0-.635-.636.8.8 0 0 0-.828.344.809.809 0 0 0 .671 1.26zm0-22a.808.808 0 0 0 .792-.967.807.807 0 1 0-1.538.468.82.82 0 0 0 .437.438.8.8 0 0 0 .309.062zM133 105.31a.807.807 0 0 0 .57-1.382.807.807 0 0 0-1.316.882.8.8 0 0 0 .437.438.8.8 0 0 0 .309.062m0-55a.809.809 0 1 0-.002-1.618.809.809 0 0 0 .002 1.617zm0 33a.808.808 0 1 0-.002-1.617.808.808 0 0 0 .002 1.617m0-11a.8.8 0 0 0 .746-.5.808.808 0 0 0-1.418-.76.82.82 0 0 0-.074.76.8.8 0 0 0 .437.438.8.8 0 0 0 .309.061zm9.5 104.5a.807.807 0 0 0 .792-.968.8.8 0 0 0-.221-.414.8.8 0 0 0-.88-.176.81.81 0 0 0 .309 1.558m-9.5-82.5a.808.808 0 1 0-.002-1.617.808.808 0 0 0 .002 1.617m0 21.999a.813.813 0 0 0 .791-.967.81.81 0 0 0-.634-.636.807.807 0 0 0-.903 1.104.8.8 0 0 0 .437.438.8.8 0 0 0 .309.061m0-77a.82.82 0 0 0 .746-.5.81.81 0 0 0-.175-.882.807.807 0 0 0-1.317.883.8.8 0 0 0 .437.438.8.8 0 0 0 .309.062zm9.5 148.501a.807.807 0 0 0 .571-1.382.809.809 0 1 0-.571 1.382M133 6.31a.809.809 0 1 0-.002-1.618A.809.809 0 0 0 133 6.31m0 11a.809.809 0 1 0-.002-1.618.809.809 0 0 0 .002 1.618m0 11a.809.809 0 1 0-.002-1.618.809.809 0 0 0 .002 1.618m0 143a.81.81 0 1 0-.309-1.558.807.807 0 0 0-.437 1.058.8.8 0 0 0 .437.438.8.8 0 0 0 .309.062m66.5-16.5a.81.81 0 0 0 .746-.5.82.82 0 0 0-.175-.882.808.808 0 1 0-1.142 1.144.8.8 0 0 0 .571.238m9.5-71.5a.806.806 0 0 0 .791-.968.808.808 0 0 0-1.463-.292.809.809 0 0 0 .672 1.26m0 76.999a.805.805 0 0 0 .791-.967.81.81 0 0 0-1.101-.59.81.81 0 0 0 .31 1.557m0 33a.805.805 0 0 0 .791-.967.81.81 0 0 0-.634-.636.807.807 0 0 0-.965.794.806.806 0 0 0 .808.809m0-43.999a.81.81 0 0 0 .745-.5.82.82 0 0 0-.175-.882.8.8 0 0 0-.879-.176.807.807 0 0 0-.262 1.32.8.8 0 0 0 .571.238m-9.5-137.5a.81.81 0 0 0 .746-.5.81.81 0 0 0-.175-.883.808.808 0 1 0-1.142 1.145.8.8 0 0 0 .571.237zm9.5 126.5a.81.81 0 0 0 .745-.5.82.82 0 0 0-.175-.882.807.807 0 0 0-1.378.572c0 .215.085.421.237.572a.8.8 0 0 0 .571.238m0-33a.81.81 0 0 0 .745-.5.82.82 0 0 0-.175-.882.8.8 0 0 0-.879-.176.81.81 0 0 0-.499.748.81.81 0 0 0 .808.81m-9.5-82.5a.805.805 0 0 0 .746-.5.81.81 0 0 0-.175-.882.808.808 0 1 0-1.142 1.144.8.8 0 0 0 .571.238M171 116.308a.814.814 0 0 0 .792-.967.806.806 0 0 0-1.599.158.81.81 0 0 0 .807.809m38 11.001a.81.81 0 0 0 .745-.5.82.82 0 0 0-.175-.882.8.8 0 0 0-.879-.176.81.81 0 0 0-.499.748.81.81 0 0 0 .808.81m0-11.001a.805.805 0 0 0 .791-.967.81.81 0 0 0-.634-.636.807.807 0 0 0-.965.794.806.806 0 0 0 .808.809m0 55.001a.82.82 0 0 0 .745-.5.82.82 0 0 0-.175-.882.8.8 0 0 0-.879-.176.807.807 0 0 0-.262 1.32.8.8 0 0 0 .571.238m-9.5-71.5a.807.807 0 0 0 .792-.968.809.809 0 0 0-1.463-.292.809.809 0 0 0 .671 1.26m0 10.999a.805.805 0 0 0 .746-.499.82.82 0 0 0-.175-.882.8.8 0 0 0-.88-.176.812.812 0 0 0-.262 1.32.8.8 0 0 0 .571.237m0 11.001a.81.81 0 0 0 .746-.5.82.82 0 0 0-.175-.882.8.8 0 0 0-.88-.176.81.81 0 0 0 .309 1.558m0 11a.81.81 0 0 0 .746-.5.82.82 0 0 0-.175-.882.808.808 0 1 0-1.142 1.144.8.8 0 0 0 .571.238m0 10.999a.814.814 0 0 0 .792-.967.806.806 0 0 0-1.599.158.81.81 0 0 0 .807.809m0-110a.81.81 0 0 0 .746-.499.81.81 0 0 0-.175-.882.808.808 0 1 0-1.142 1.144.8.8 0 0 0 .571.238zm0 22a.81.81 0 0 0 .746-.499.81.81 0 0 0-.175-.882.807.807 0 1 0-1.142 1.144.8.8 0 0 0 .571.238zm0-11a.81.81 0 0 0 .746-.499.81.81 0 0 0-.175-.882.807.807 0 1 0-1.142 1.144.8.8 0 0 0 .571.237m0 22a.807.807 0 0 0 .792-.967.809.809 0 0 0-1.463-.292.809.809 0 0 0 .671 1.26zm0 11a.807.807 0 0 0 .792-.967.809.809 0 0 0-1.463-.292.809.809 0 0 0 .671 1.26zm0 11a.81.81 0 0 0 .746-.499.81.81 0 0 0-.175-.882.808.808 0 0 0-1.242.122.809.809 0 0 0 .671 1.26zm9.5 93.501a.81.81 0 0 0 .745-.5.82.82 0 0 0-.175-.882.8.8 0 0 0-.879-.176.81.81 0 0 0-.499.748.81.81 0 0 0 .808.81m9.5-93.5a.82.82 0 0 0 .746-.5.81.81 0 0 0-.175-.882.807.807 0 0 0-1.317.882.8.8 0 0 0 .437.438.8.8 0 0 0 .309.062m0-11a.808.808 0 1 0-.002-1.617.808.808 0 0 0 .002 1.617m0 32.999a.8.8 0 0 0 .746-.5.81.81 0 0 0-.589-1.103.807.807 0 0 0-.903 1.104.8.8 0 0 0 .437.438.8.8 0 0 0 .309.061m0-44a.809.809 0 1 0-.002-1.618.809.809 0 0 0 .002 1.618m0 33a.809.809 0 1 0-.002-1.618.809.809 0 0 0 .002 1.619zm0-77a.8.8 0 0 0 .746-.5.808.808 0 0 0-1.418-.76.82.82 0 0 0-.074.76.8.8 0 0 0 .437.439.8.8 0 0 0 .309.061m0 110.001a.807.807 0 0 0 .57-1.382.807.807 0 0 0-1.316.882.8.8 0 0 0 .746.5m0-121a.808.808 0 1 0-.002-1.617.808.808 0 0 0 .002 1.616zm0 33a.808.808 0 1 0-.002-1.617.808.808 0 0 0 .002 1.616zm0 11a.8.8 0 0 0 .746-.5.808.808 0 0 0-1.418-.76.82.82 0 0 0-.074.76.8.8 0 0 0 .437.438.8.8 0 0 0 .309.062m0-22a.808.808 0 1 0-.002-1.617.808.808 0 0 0 .002 1.617m-9.5 16.5a.807.807 0 0 0 .791-.968.808.808 0 0 0-1.463-.292.809.809 0 0 0 .672 1.26m0-33a.807.807 0 0 0 .791-.968.808.808 0 0 0-1.463-.292.809.809 0 0 0 .672 1.26m0 11a.807.807 0 0 0 .791-.968.808.808 0 0 0-1.463-.292.809.809 0 0 0 .672 1.26m0 11a.807.807 0 0 0 .791-.968.808.808 0 0 0-1.463-.292.809.809 0 0 0 .672 1.26m0 22a.806.806 0 0 0 .791-.968.808.808 0 1 0-1.362.73.8.8 0 0 0 .571.237zm9.5 82.499a.807.807 0 0 0 .57-1.382.8.8 0 0 0-.879-.175.807.807 0 0 0-.437 1.058.8.8 0 0 0 .437.438.8.8 0 0 0 .309.061m-9.5-71.5a.807.807 0 0 0 .791-.967.808.808 0 0 0-1.463-.292.809.809 0 0 0 .672 1.26zm9.5 93.5a.813.813 0 0 0 .791-.967.81.81 0 0 0-.634-.636.807.807 0 0 0-.903 1.104.8.8 0 0 0 .437.438.8.8 0 0 0 .309.061m0-10.999a.807.807 0 0 0 .57-1.382.807.807 0 0 0-1.316.882.8.8 0 0 0 .746.5M209 6.31a.807.807 0 0 0 .791-.968.808.808 0 0 0-1.463-.292.809.809 0 0 0 .672 1.26m9.5 181.5a.81.81 0 0 0 .746-.5.81.81 0 0 0-.176-.882.81.81 0 0 0-.879-.176.81.81 0 0 0-.499.748.8.8 0 0 0 .237.573.8.8 0 0 0 .571.237m0-11a.807.807 0 0 0 .57-1.382.8.8 0 0 0-.879-.176.81.81 0 0 0-.499.748.8.8 0 0 0 .237.573.8.8 0 0 0 .571.237m-9.5-82.5a.807.807 0 0 0 .791-.968.808.808 0 0 0-1.463-.292.809.809 0 0 0 .672 1.26m-28.5 49.499a.807.807 0 0 0 .571-1.381.8.8 0 0 0-.88-.176.81.81 0 0 0 .309 1.557m0-99a.8.8 0 0 0 .746-.499.81.81 0 0 0-.175-.882.808.808 0 1 0-1.142 1.144.8.8 0 0 0 .571.237m0 77.001a.8.8 0 0 0 .746-.5.82.82 0 0 0-.175-.882.8.8 0 0 0-.88-.176.81.81 0 0 0 .309 1.558m0 33a.8.8 0 0 0 .746-.5.82.82 0 0 0-.175-.882.81.81 0 0 0-.88-.176.81.81 0 0 0 .309 1.558m0 10.999a.807.807 0 0 0 .571-1.381.8.8 0 0 0-.88-.176.81.81 0 0 0 .309 1.557m0-55a.8.8 0 0 0 .746-.499.82.82 0 0 0-.175-.882.8.8 0 0 0-.88-.176.812.812 0 0 0-.262 1.32.8.8 0 0 0 .571.237m0-11a.8.8 0 0 0 .746-.499.81.81 0 0 0-.175-.882.81.81 0 0 0-.88-.176.812.812 0 0 0-.262 1.32.8.8 0 0 0 .571.238zm0-33a.8.8 0 0 0 .746-.5.81.81 0 0 0-.175-.881.81.81 0 0 0-.88-.176.81.81 0 0 0 .309 1.558zm0-11a.8.8 0 0 0 .746-.499.81.81 0 0 0-.175-.882.808.808 0 0 0-1.242.122.81.81 0 0 0 .671 1.26zm0 33a.8.8 0 0 0 .746-.499.81.81 0 0 0-.175-.882.808.808 0 0 0-1.242.122.809.809 0 0 0 .671 1.26zm0 88.001a.8.8 0 0 0 .746-.5.82.82 0 0 0-.175-.882.81.81 0 0 0-.88-.176.81.81 0 0 0 .309 1.558m0-99a.8.8 0 0 0 .746-.5.81.81 0 0 0-.175-.882.808.808 0 1 0-1.142 1.144.8.8 0 0 0 .571.238m0 55a.8.8 0 0 0 .746-.5.82.82 0 0 0-.175-.882.81.81 0 0 0-.88-.176.81.81 0 0 0 .309 1.558m0 55a.8.8 0 0 0 .746-.5.81.81 0 0 0-.588-1.104.81.81 0 0 0-.829.344.81.81 0 0 0 .671 1.26M171 72.31a.81.81 0 0 0 .746-.5.81.81 0 0 0-.175-.882.808.808 0 1 0-1.142 1.144.8.8 0 0 0 .571.237zm0-11a.81.81 0 0 0 .746-.5.81.81 0 0 0-.175-.883.808.808 0 1 0-1.142 1.145.8.8 0 0 0 .571.237zm0 44a.81.81 0 0 0 .746-.5.82.82 0 0 0-.175-.882.808.808 0 1 0-1.142 1.144.8.8 0 0 0 .571.238m0-11a.807.807 0 0 0 .792-.968.809.809 0 0 0-1.463-.292.809.809 0 0 0 .671 1.26m0-11a.81.81 0 0 0 .746-.5.81.81 0 0 0-.175-.882.808.808 0 1 0-1.142 1.144.8.8 0 0 0 .571.238m0-33a.807.807 0 0 0 .792-.968.81.81 0 0 0-1.101-.59.809.809 0 0 0 .309 1.558m0-33a.807.807 0 0 0 .792-.968.809.809 0 0 0-1.463-.292.809.809 0 0 0 .671 1.26m0-11a.81.81 0 0 0 .746-.5.81.81 0 0 0-.175-.882.807.807 0 1 0-1.142 1.144.8.8 0 0 0 .571.238m0 33a.81.81 0 0 0 .746-.5.81.81 0 0 0-.175-.882.808.808 0 0 0-1.242.122.809.809 0 0 0 .671 1.26m0-11a.807.807 0 0 0 .792-.968.809.809 0 0 0-1.463-.292.809.809 0 0 0 .671 1.26m19 11a.82.82 0 0 0 .746-.5.81.81 0 0 0-.175-.882.807.807 0 0 0-1.317.882.8.8 0 0 0 .437.438.8.8 0 0 0 .309.062m0 22a.808.808 0 1 0-.002-1.617.808.808 0 0 0 .002 1.616zm0-11a.809.809 0 1 0-.002-1.618.809.809 0 0 0 .002 1.618m0 44a.808.808 0 1 0-.002-1.617.808.808 0 0 0 .002 1.617m0-11a.808.808 0 1 0-.002-1.617.808.808 0 0 0 .002 1.617m9.5 82.499a.814.814 0 0 0 .792-.967.806.806 0 0 0-1.599.158.81.81 0 0 0 .807.809m-9.5-93.5a.809.809 0 1 0-.808-.81.8.8 0 0 0 .237.574.8.8 0 0 0 .571.237zm9.5 104.501a.81.81 0 0 0 .746-.5.82.82 0 0 0-.175-.882.808.808 0 1 0-1.142 1.144.8.8 0 0 0 .571.238m0 11a.81.81 0 0 0 .746-.5.81.81 0 0 0-.588-1.104.81.81 0 0 0-.829.344.81.81 0 0 0 .671 1.26M190 28.31a.809.809 0 1 0-.002-1.618.809.809 0 0 0 .002 1.618m0-11a.809.809 0 1 0-.002-1.618.809.809 0 0 0 .002 1.618m0-11a.809.809 0 1 0-.002-1.618A.809.809 0 0 0 190 6.31m0 165a.81.81 0 1 0-.309-1.558.807.807 0 0 0-.437 1.058.8.8 0 0 0 .437.438.8.8 0 0 0 .309.062m-9.5-137.5a.8.8 0 0 0 .746-.5.81.81 0 0 0-.175-.882.81.81 0 0 0-.88-.176.811.811 0 0 0 .309 1.558m9.5 159.499a.807.807 0 0 0 .57-1.382.8.8 0 0 0-.879-.175.807.807 0 0 0-.437 1.058.8.8 0 0 0 .437.438.8.8 0 0 0 .309.061m0-10.999a.807.807 0 0 0 .57-1.382.8.8 0 0 0-.879-.176.81.81 0 0 0-.499.748.8.8 0 0 0 .237.573.8.8 0 0 0 .571.237m-9.5-159.5a.8.8 0 0 0 .746-.5.81.81 0 0 0-.175-.882.81.81 0 0 0-.88-.176.811.811 0 0 0 .309 1.558m0-11a.8.8 0 0 0 .746-.5.81.81 0 0 0-.175-.883.808.808 0 1 0-1.142 1.145.8.8 0 0 0 .571.237zm9.5 126.5a.81.81 0 0 0 .746-.5.812.812 0 0 0-.589-1.104.808.808 0 0 0-.728 1.367.8.8 0 0 0 .571.237m0-11a.807.807 0 0 0 .57-1.382.807.807 0 0 0-1.316.882.8.8 0 0 0 .437.438.8.8 0 0 0 .309.062m0-11.001a.813.813 0 0 0 .791-.967.81.81 0 0 0-.634-.636.807.807 0 0 0-.903 1.104.8.8 0 0 0 .437.438.8.8 0 0 0 .309.061m0-10.999a.807.807 0 0 0 .57-1.382.807.807 0 0 0-1.316.882.8.8 0 0 0 .746.5m0 44a.81.81 0 1 0-.309-1.558.807.807 0 0 0-.437 1.058.8.8 0 0 0 .437.438.8.8 0 0 0 .309.062m0 10.999a.8.8 0 0 0 .746-.5.81.81 0 0 0-1.056-1.057.81.81 0 0 0 .31 1.557m28.5-38.499a.81.81 0 1 0-.309-1.558.807.807 0 0 0-.437 1.058.8.8 0 0 0 .437.438.8.8 0 0 0 .309.062m-171 33a.81.81 0 0 0 .745-.5.813.813 0 0 0-.588-1.104.81.81 0 1 0-.157 1.604m0 22a.81.81 0 0 0 .745-.5.813.813 0 0 0-.588-1.104.81.81 0 1 0-.157 1.604m0-11.001a.805.805 0 0 0 .745-.499.813.813 0 0 0-.588-1.104.81.81 0 1 0-.157 1.603m0 22.001a.81.81 0 0 0 .745-.5.812.812 0 0 0-.588-1.104.81.81 0 1 0-.157 1.604M38 6.31a.81.81 0 0 0 .746-.5.812.812 0 0 0-.588-1.104.805.805 0 0 0-.965.794.81.81 0 0 0 .807.81m0 11a.805.805 0 0 0 .746-.5.812.812 0 0 0-.588-1.104.806.806 0 0 0-.965.794.81.81 0 0 0 .807.81m9.5 126.499a.8.8 0 0 0 .745-.499.813.813 0 0 0-.588-1.104.81.81 0 1 0-.157 1.603m0-44a.805.805 0 0 0 .745-.5.812.812 0 0 0-.588-1.103.805.805 0 0 0-.965.794.81.81 0 0 0 .808.81zm0-11a.806.806 0 0 0 .791-.967.81.81 0 0 0-.634-.636.8.8 0 0 0-.828.344.81.81 0 0 0 .67 1.26zM38 28.31a.806.806 0 0 0 .792-.967.81.81 0 0 0-1.1-.59.81.81 0 0 0-.5.748.81.81 0 0 0 .808.81zm0 154.001a.81.81 0 0 0 .746-.5.812.812 0 0 0-.588-1.104.81.81 0 1 0-.158 1.604m9.5-49.5a.805.805 0 0 0 .745-.5.813.813 0 0 0-.588-1.104.81.81 0 1 0-.157 1.604m0-11a.81.81 0 0 0 .745-.5.813.813 0 0 0-.588-1.104.809.809 0 1 0-.157 1.604M38 72.31a.81.81 0 0 0 .746-.5.812.812 0 0 0-.588-1.104.805.805 0 0 0-.83.344.812.812 0 0 0 .672 1.26m0 77a.81.81 0 0 0 .746-.5.812.812 0 0 0-.588-1.104.81.81 0 1 0-.158 1.604m0-11a.81.81 0 0 0 .746-.5.809.809 0 0 0-1.417-.76.81.81 0 0 0 .1 1.022.8.8 0 0 0 .57.238zm0-11a.81.81 0 0 0 .746-.5.812.812 0 0 0-.588-1.104.81.81 0 1 0-.158 1.604m0 32.999a.805.805 0 0 0 .792-.967.806.806 0 0 0-1.6.158.81.81 0 0 0 .808.809m0 11.001a.81.81 0 0 0 .746-.5.812.812 0 0 0-.588-1.104.81.81 0 1 0-.158 1.604m0-55.001a.809.809 0 1 0-.67-1.259.81.81 0 0 0 .1 1.022.8.8 0 0 0 .57.237m0-66a.805.805 0 0 0 .746-.499.812.812 0 0 0-.588-1.104.806.806 0 0 0-.965.794.81.81 0 0 0 .807.81zm9.5 27.5a.81.81 0 0 0 .745-.5.81.81 0 0 0-.588-1.103.805.805 0 0 0-.965.794.81.81 0 0 0 .808.81zM38 105.31a.81.81 0 0 0 .746-.5.81.81 0 0 0-.175-.882.807.807 0 1 0-1.142 1.144.8.8 0 0 0 .57.238zm0-66a.81.81 0 0 0 .746-.5.81.81 0 0 0-.588-1.104.806.806 0 0 0-.965.794.81.81 0 0 0 .807.81m0 22a.806.806 0 0 0 .792-.968.81.81 0 0 0-1.101-.59.81.81 0 0 0-.498.748.81.81 0 0 0 .807.81m0 33a.806.806 0 0 0 .792-.968.81.81 0 0 0-1.1-.59.81.81 0 0 0-.5.748.81.81 0 0 0 .808.81m0-11a.805.805 0 0 0 .746-.5.812.812 0 0 0-.588-1.104.805.805 0 0 0-.83.344.811.811 0 0 0 .672 1.26m9.5 27.499a.805.805 0 0 0 .791-.967.81.81 0 0 0-.634-.636.81.81 0 1 0-.157 1.603m9.5-38.5a.806.806 0 0 0 .792-.967.81.81 0 0 0-.635-.636.805.805 0 0 0-.964.794.81.81 0 0 0 .807.81zm0-22a.805.805 0 0 0 .746-.5.81.81 0 0 0-.589-1.103.805.805 0 0 0-.964.794.81.81 0 0 0 .807.81zm0 33a.805.805 0 0 0 .746-.5.812.812 0 0 0-.589-1.103.8.8 0 0 0-.828.344.81.81 0 0 0 .671 1.26zm0-22a.81.81 0 0 0 .746-.5.81.81 0 0 0-.589-1.103.805.805 0 0 0-.964.794.81.81 0 0 0 .807.81zm0 44.001a.81.81 0 0 0 .746-.5.813.813 0 0 0-.589-1.104.81.81 0 1 0-.157 1.604m0 10.999a.805.805 0 0 0 .746-.499.813.813 0 0 0-.589-1.104.81.81 0 1 0-.157 1.603m0-22a.806.806 0 0 0 .792-.967.81.81 0 0 0-.635-.636.805.805 0 0 0-.964.794.81.81 0 0 0 .807.81zm9.5 93.501a.81.81 0 0 0 .746-.5.809.809 0 0 0-1.417-.76.81.81 0 0 0 .1 1.022.8.8 0 0 0 .57.238zm0-11a.81.81 0 0 0 .746-.5.812.812 0 0 0-.588-1.104.81.81 0 1 0-.158 1.604M57 6.31a.81.81 0 0 0 .746-.5.81.81 0 0 0-.589-1.104.805.805 0 0 0-.964.794.81.81 0 0 0 .807.81m0 22a.806.806 0 0 0 .792-.968.81.81 0 0 0-.635-.636.805.805 0 0 0-.964.794.81.81 0 0 0 .807.81m0 11a.807.807 0 0 0 .792-.968.81.81 0 0 0-.635-.636.8.8 0 0 0-.828.344.81.81 0 0 0 .671 1.26m-9.5 27.5a.805.805 0 0 0 .745-.5.81.81 0 0 0-.588-1.104.805.805 0 0 0-.965.794.81.81 0 0 0 .808.81m9.5-49.5a.805.805 0 0 0 .746-.5.81.81 0 0 0-.589-1.104.805.805 0 0 0-.964.794.81.81 0 0 0 .807.81m-9.5 5.5a.81.81 0 0 0 .745-.5.81.81 0 0 0-.588-1.104.805.805 0 0 0-.965.794.81.81 0 0 0 .808.81m9.5 104.5a.81.81 0 0 0 .746-.5.813.813 0 0 0-.589-1.104.81.81 0 1 0-.157 1.604m-9.5-115.5a.806.806 0 0 0 .791-.968.81.81 0 0 0-.634-.636.805.805 0 0 0-.965.794.81.81 0 0 0 .808.81m0 44a.805.805 0 0 0 .745-.5.81.81 0 0 0-.588-1.104.806.806 0 0 0-.965.794.81.81 0 0 0 .808.81M57 193.309a.805.805 0 0 0 .746-.499.813.813 0 0 0-.589-1.104.81.81 0 1 0-.157 1.603m9.5-27.5a.808.808 0 0 0 .571-1.381.8.8 0 0 0-.88-.176.81.81 0 0 0-.498.748.81.81 0 0 0 .807.809m-19-132a.805.805 0 0 0 .745-.5.81.81 0 0 0-.588-1.103.8.8 0 0 0-.829.344.81.81 0 0 0 .672 1.26zM57 149.31a.81.81 0 0 0 .746-.5.813.813 0 0 0-.589-1.104.81.81 0 1 0-.157 1.604m0-11a.81.81 0 0 0 .746-.5.813.813 0 0 0-.589-1.104.81.81 0 1 0-.157 1.604m0 33a.81.81 0 0 0 .746-.5.813.813 0 0 0-.589-1.104.81.81 0 1 0-.157 1.604m0-11.001a.805.805 0 0 0 .746-.5.808.808 0 1 0-.746.5m0 22.001a.81.81 0 0 0 .746-.5.813.813 0 0 0-.589-1.104.81.81 0 1 0-.157 1.604m-9.5-137.5a.81.81 0 0 0 .745-.5.81.81 0 0 0-.588-1.104.806.806 0 0 0-.965.794.81.81 0 0 0 .808.81m-38-33a.81.81 0 0 0 .746-.5.812.812 0 0 0-.589-1.104.805.805 0 0 0-.964.794.81.81 0 0 0 .807.81m0 11a.805.805 0 0 0 .746-.5.812.812 0 0 0-.588-1.104.805.805 0 0 0-.83.344.81.81 0 0 0 .672 1.26M19 193.308a.805.805 0 0 0 .745-.499.813.813 0 0 0-.588-1.104.81.81 0 1 0-.157 1.603m-9.5-137.5a.805.805 0 0 0 .746-.499.812.812 0 0 0-.588-1.104.805.805 0 0 0-.83.344.811.811 0 0 0 .672 1.26zm0-11a.806.806 0 0 0 .792-.967.81.81 0 0 0-1.1-.59.81.81 0 0 0-.5.748.81.81 0 0 0 .808.81zM19 182.31a.81.81 0 0 0 .745-.5.813.813 0 0 0-.588-1.104.81.81 0 1 0-.157 1.604M9.5 33.81a.805.805 0 0 0 .746-.5.812.812 0 0 0-.588-1.104.805.805 0 0 0-.965.794.81.81 0 0 0 .807.81m9.5 93.5a.805.805 0 0 0 .745-.5.813.813 0 0 0-.588-1.104.81.81 0 1 0-.157 1.604m0 44a.81.81 0 0 0 .745-.5.813.813 0 0 0-.588-1.104.81.81 0 1 0-.157 1.604m0-55.001a.8.8 0 0 0 .745-.499.813.813 0 0 0-.588-1.104.809.809 0 1 0-.157 1.603m0 22.001a.81.81 0 0 0 .745-.5.812.812 0 0 0-.588-1.104.81.81 0 1 0-.157 1.604m0 11a.805.805 0 0 0 .745-.5.813.813 0 0 0-.588-1.104.81.81 0 1 0-.157 1.604m0 10.999a.805.805 0 0 0 .791-.967.81.81 0 0 0-.634-.636.81.81 0 1 0-.157 1.603M9.5 176.81a.81.81 0 0 0 .746-.5.812.812 0 0 0-.588-1.104.81.81 0 1 0-.158 1.604m0-22a.81.81 0 0 0 .746-.5.812.812 0 0 0-.588-1.104.81.81 0 1 0-.158 1.604m0-22a.81.81 0 0 0 .746-.5.812.812 0 0 0-.588-1.104.81.81 0 1 0-.158 1.604m0 10.999a.808.808 0 0 0 .571-1.381.8.8 0 0 0-.88-.176.81.81 0 0 0-.498.748.81.81 0 0 0 .807.809m0 22a.808.808 0 0 0 .571-1.381.8.8 0 0 0-.88-.176.81.81 0 0 0-.498.748.81.81 0 0 0 .807.809M19 105.31a.805.805 0 0 0 .745-.5.813.813 0 0 0-.588-1.104.809.809 0 1 0-.157 1.604m-9.5-38.5a.806.806 0 0 0 .792-.968.81.81 0 0 0-1.1-.59.81.81 0 0 0-.5.748.81.81 0 0 0 .808.81m0 121a.81.81 0 0 0 .746-.5.809.809 0 0 0-1.417-.76.812.812 0 0 0 .67 1.26zm0-99a.805.805 0 0 0 .746-.5.81.81 0 0 0-.588-1.104.805.805 0 0 0-.965.794.81.81 0 0 0 .807.81m0 33a.81.81 0 0 0 .746-.5.812.812 0 0 0-.588-1.104.81.81 0 1 0-.158 1.604m0-44a.806.806 0 0 0 .792-.968.81.81 0 0 0-1.1-.59.81.81 0 0 0-.5.748.81.81 0 0 0 .808.81m0 22a.806.806 0 0 0 .792-.968.81.81 0 0 0-.634-.636.806.806 0 0 0-.965.794.81.81 0 0 0 .807.81m0 10.999a.805.805 0 0 0 .792-.967.806.806 0 0 0-1.463-.292.811.811 0 0 0 .67 1.259zm19 77.001a.81.81 0 0 0 .746-.5.813.813 0 0 0-.589-1.104.81.81 0 1 0-.157 1.604m0-77.001a.8.8 0 0 0 .746-.5.809.809 0 0 0-1.418-.759.813.813 0 0 0 .363 1.198.8.8 0 0 0 .31.061zm0-11a.81.81 0 0 0 .746-.5.812.812 0 0 0-.589-1.103.805.805 0 0 0-.964.794.81.81 0 0 0 .807.81zm0-11a.806.806 0 0 0 .792-.967.81.81 0 0 0-.635-.636.8.8 0 0 0-.828.344.81.81 0 0 0 .671 1.26zm0 33.001a.81.81 0 0 0 .746-.5.813.813 0 0 0-.589-1.104.81.81 0 1 0-.157 1.604m0 11a.805.805 0 0 0 .746-.5.813.813 0 0 0-.589-1.104.81.81 0 1 0-.157 1.604m0-55a.81.81 0 0 0 .746-.5.812.812 0 0 0-.589-1.104.805.805 0 0 0-.964.794.81.81 0 0 0 .807.81m0-22a.81.81 0 0 0 .746-.5.812.812 0 0 0-.589-1.104.805.805 0 0 0-.828.344.81.81 0 0 0 .671 1.26m0-33a.81.81 0 0 0 .746-.5.812.812 0 0 0-.589-1.104.805.805 0 0 0-.964.794.81.81 0 0 0 .807.81M19 94.31a.81.81 0 0 0 .746-.5.812.812 0 0 0-.589-1.104.805.805 0 0 0-.965.794.81.81 0 0 0 .808.81m9.5-60.5a.805.805 0 0 0 .746-.5.812.812 0 0 0-.589-1.104.805.805 0 0 0-.964.794.81.81 0 0 0 .807.81m0 11a.81.81 0 0 0 .746-.5.812.812 0 0 0-.589-1.104.806.806 0 0 0-.964.794.81.81 0 0 0 .807.81m0 98.999a.805.805 0 0 0 .746-.499.813.813 0 0 0-.589-1.104.81.81 0 1 0-.157 1.603m0-77a.81.81 0 0 0 .746-.5.812.812 0 0 0-.589-1.103.805.805 0 0 0-.964.794.81.81 0 0 0 .807.81zm0-55a.805.805 0 0 0 .746-.5.812.812 0 0 0-.589-1.103.805.805 0 0 0-.964.794.81.81 0 0 0 .807.81zM19 28.31a.81.81 0 0 0 .746-.5.812.812 0 0 0-.589-1.103.805.805 0 0 0-.965.794.81.81 0 0 0 .808.81zm0 22a.81.81 0 0 0 .746-.5.812.812 0 0 0-.589-1.103.805.805 0 0 0-.965.794.81.81 0 0 0 .808.81zm0-11a.81.81 0 0 0 .745-.5.81.81 0 0 0-.588-1.103.8.8 0 0 0-.829.344.811.811 0 0 0 .672 1.26zm0 22a.805.805 0 0 0 .746-.5.812.812 0 0 0-.59-1.103.805.805 0 0 0-.964.794.81.81 0 0 0 .808.81zm0 11a.805.805 0 0 0 .746-.5.812.812 0 0 0-.589-1.103.805.805 0 0 0-.965.794.81.81 0 0 0 .808.81zm0 11a.805.805 0 0 0 .746-.5.812.812 0 0 0-.589-1.103.805.805 0 0 0-.965.794.81.81 0 0 0 .808.81zm9.5 82.5a.805.805 0 0 0 .746-.499.813.813 0 0 0-.589-1.104.81.81 0 1 0-.157 1.603M19 17.309a.805.805 0 0 0 .745-.5.81.81 0 0 0-.588-1.103.805.805 0 0 0-.965.794.81.81 0 0 0 .808.81zm9.5 137.501a.81.81 0 0 0 .746-.5.813.813 0 0 0-.589-1.104.81.81 0 1 0-.157 1.604m0 22a.81.81 0 0 0 .746-.5.813.813 0 0 0-.589-1.104.81.81 0 1 0-.157 1.604M19 6.31a.81.81 0 0 0 .745-.5.81.81 0 0 0-.588-1.104.805.805 0 0 0-.965.794.81.81 0 0 0 .808.81m19 186.999a.808.808 0 0 0 .571-1.381.8.8 0 0 0-.88-.176.81.81 0 0 0-.498.748.81.81 0 0 0 .807.809m57-132a.805.805 0 0 0 .746-.5.812.812 0 0 0-.588-1.103.805.805 0 0 0-.965.794.81.81 0 0 0 .807.81zm0-55a.805.805 0 0 0 .746-.499.812.812 0 0 0-.588-1.104.805.805 0 0 0-.965.794.81.81 0 0 0 .807.81zm0 11a.806.806 0 0 0 .792-.967.81.81 0 0 0-.634-.636.806.806 0 0 0-.965.794.81.81 0 0 0 .807.81zm9.5 170.501a.81.81 0 0 0 .746-.5.81.81 0 0 0-.176-.882.81.81 0 0 0-.879-.176.81.81 0 0 0 .309 1.558m0-11a.81.81 0 0 0 .746-.5.81.81 0 0 0-.176-.882.8.8 0 0 0-.879-.176.807.807 0 0 0-.437 1.058.8.8 0 0 0 .437.438.8.8 0 0 0 .309.062M95 28.31a.806.806 0 0 0 .792-.968.81.81 0 0 0-.634-.636.806.806 0 0 0-.965.794.81.81 0 0 0 .807.81m0 11a.805.805 0 0 0 .746-.5.81.81 0 0 0-.588-1.104.806.806 0 0 0-.965.794.81.81 0 0 0 .807.81m9.5 93.5a.81.81 0 0 0 .746-.5.81.81 0 0 0-.176-.882.8.8 0 0 0-.879-.176.81.81 0 0 0-.499.748.8.8 0 0 0 .237.573.8.8 0 0 0 .571.237m0 32.999a.8.8 0 0 0 .448-.136.81.81 0 0 0 .343-.831.81.81 0 0 0-.634-.636.807.807 0 0 0-.903 1.104.8.8 0 0 0 .437.438.8.8 0 0 0 .309.061m0-43.999a.81.81 0 1 0-.309-1.558.807.807 0 0 0-.437 1.058.8.8 0 0 0 .437.438.8.8 0 0 0 .309.062m0-11.001a.8.8 0 0 0 .746-.5.81.81 0 0 0-1.056-1.057.81.81 0 0 0 .31 1.557m-9.5-60.5a.805.805 0 0 0 .746-.499.812.812 0 0 0-.588-1.104.806.806 0 0 0-.965.794.81.81 0 0 0 .807.81zm9.5 49.5a.809.809 0 1 0-.002-1.618.809.809 0 0 0 .002 1.618m0 55.001a.81.81 0 0 0 .746-.5.81.81 0 0 0-.176-.882.8.8 0 0 0-.879-.176.81.81 0 0 0-.499.748.8.8 0 0 0 .237.573.8.8 0 0 0 .571.237m0-11.001a.81.81 0 0 0 .746-.499.813.813 0 0 0-.589-1.104.807.807 0 0 0-.903 1.104.8.8 0 0 0 .437.438.8.8 0 0 0 .309.061M95 149.31a.81.81 0 0 0 .746-.5.81.81 0 0 0-.175-.882.8.8 0 0 0-.88-.176.81.81 0 0 0-.498.748.81.81 0 0 0 .807.81m0 10.999a.805.805 0 0 0 .792-.967.806.806 0 0 0-1.6.158.81.81 0 0 0 .808.809m0-32.999a.81.81 0 0 0 .746-.5.81.81 0 0 0-.175-.882.807.807 0 0 0-1.378.572.81.81 0 0 0 .807.81m0 11a.81.81 0 0 0 .746-.5.809.809 0 0 0-1.417-.76.81.81 0 0 0 .1 1.022.8.8 0 0 0 .57.238zm0 44a.81.81 0 0 0 .746-.5.81.81 0 0 0-.175-.882.807.807 0 0 0-1.378.572.81.81 0 0 0 .807.81m0-11a.81.81 0 0 0 .746-.5.81.81 0 0 0-.175-.882.8.8 0 0 0-.88-.176.81.81 0 0 0-.498.748.81.81 0 0 0 .807.81m19-165a.807.807 0 0 0 .792-.968.807.807 0 1 0-1.538.468.82.82 0 0 0 .437.438.8.8 0 0 0 .309.062m-19 77a.805.805 0 0 0 .746-.5.812.812 0 0 0-.588-1.104.806.806 0 0 0-.965.794.81.81 0 0 0 .807.81m0 32.999a.809.809 0 1 0-.67-1.259.81.81 0 0 0 .1 1.022.8.8 0 0 0 .57.237m0-44a.805.805 0 0 0 .746-.499.812.812 0 0 0-.588-1.104.805.805 0 0 0-.965.794.81.81 0 0 0 .807.81zm0 22a.806.806 0 0 0 .792-.967.81.81 0 0 0-1.1-.59.81.81 0 0 0-.5.748.81.81 0 0 0 .808.81zm0 11.001a.81.81 0 0 0 .746-.5.81.81 0 0 0-.175-.882.807.807 0 0 0-1.378.572.81.81 0 0 0 .807.81m9.5-60.5a.808.808 0 1 0-.002-1.617.808.808 0 0 0 .002 1.616zm9.5 60.5a.807.807 0 0 0 .792-.968.81.81 0 0 0-.635-.636.808.808 0 0 0-.728 1.367.8.8 0 0 0 .571.237m0-11a.808.808 0 0 0 .792-.968.807.807 0 1 0-1.538.468.82.82 0 0 0 .437.438q.149.06.309.061zm0-11a.807.807 0 0 0 .792-.968.807.807 0 1 0-1.538.468.82.82 0 0 0 .437.438.8.8 0 0 0 .309.062m0-11a.808.808 0 0 0 .792-.968.807.807 0 1 0-1.538.468.82.82 0 0 0 .437.438q.149.06.309.061zm0 43.999a.806.806 0 0 0 .792-.967.806.806 0 0 0-1.599.158.804.804 0 0 0 .807.809m0 11.001a.807.807 0 0 0 .792-.968.81.81 0 0 0-.635-.636.808.808 0 0 0-.728 1.367.8.8 0 0 0 .571.237m0-88a.808.808 0 0 0 .792-.968.807.807 0 0 0-1.599.158.81.81 0 0 0 .807.81m0 22a.808.808 0 0 0 .57-1.383.8.8 0 0 0-.879-.175.81.81 0 0 0 .309 1.557zm0-33a.808.808 0 0 0 .792-.968.807.807 0 1 0-1.538.468.82.82 0 0 0 .437.438.8.8 0 0 0 .309.062m0-11a.808.808 0 0 0 .792-.968.807.807 0 1 0-1.538.468.82.82 0 0 0 .437.438q.149.06.309.061zm0 33a.807.807 0 0 0 .792-.968.82.82 0 0 0-.635-.636.8.8 0 0 0-.828.344.81.81 0 0 0 .671 1.26m0 88a.807.807 0 0 0 .571-1.382.809.809 0 1 0-.571 1.382m0 11a.82.82 0 0 0 .746-.5.82.82 0 0 0-.175-.882.8.8 0 0 0-.88-.176.81.81 0 0 0 .309 1.558m-9.5-126.5a.8.8 0 0 0 .746-.5.808.808 0 0 0-1.418-.76.82.82 0 0 0-.074.76.8.8 0 0 0 .437.438.8.8 0 0 0 .309.061zm0 33a.8.8 0 0 0 .746-.5.808.808 0 0 0-1.418-.76.82.82 0 0 0-.074.76.8.8 0 0 0 .437.438.8.8 0 0 0 .309.062m0 33a.8.8 0 0 0 .746-.5.808.808 0 0 0-1.055-1.058.81.81 0 0 0 .309 1.557zM95 193.309a.809.809 0 1 0-.67-1.259.81.81 0 0 0 .1 1.022.8.8 0 0 0 .57.237m9.5-126.5a.808.808 0 1 0-.002-1.617.808.808 0 0 0 .002 1.617m0 11a.809.809 0 1 0-.002-1.618.809.809 0 0 0 .002 1.619zm0-44a.809.809 0 1 0-.808-.81.8.8 0 0 0 .237.574.8.8 0 0 0 .571.237zm9.5 126.5a.806.806 0 0 0 .792-.967.8.8 0 0 0-.222-.415.8.8 0 0 0-.879-.175.807.807 0 0 0-.437 1.058.81.81 0 0 0 .746.499m0 11.001a.82.82 0 0 0 .746-.5.82.82 0 0 0-.175-.882.8.8 0 0 0-.88-.176.81.81 0 0 0 .309 1.558m0 11a.807.807 0 0 0 .792-.968.8.8 0 0 0-.221-.414.8.8 0 0 0-.88-.176.81.81 0 0 0-.498.748.8.8 0 0 0 .498.748.8.8 0 0 0 .309.062m0 10.999a.806.806 0 0 0 .792-.967.806.806 0 0 0-1.599.158.804.804 0 0 0 .807.809m-9.5-181.5a.808.808 0 1 0-.002-1.617.808.808 0 0 0 .002 1.617m-19 33a.806.806 0 0 0 .792-.967.81.81 0 0 0-.635-.636.806.806 0 0 0-.964.794.81.81 0 0 0 .807.81zM76 160.31a.805.805 0 0 0 .791-.967.81.81 0 0 0-.634-.636.81.81 0 1 0-.157 1.603m0 11.001a.81.81 0 0 0 .746-.5.813.813 0 0 0-.589-1.104.809.809 0 1 0-.157 1.604m0-33a.805.805 0 0 0 .746-.5.812.812 0 0 0-.589-1.104.81.81 0 1 0-.157 1.604m0 11a.81.81 0 0 0 .746-.5.813.813 0 0 0-.589-1.104.809.809 0 1 0-.157 1.604m0 43.999a.805.805 0 0 0 .746-.499.813.813 0 0 0-.589-1.104.809.809 0 1 0-.157 1.603m0-10.999a.81.81 0 0 0 .746-.5.813.813 0 0 0-.589-1.104.809.809 0 1 0-.157 1.604m0-110a.81.81 0 0 0 .746-.5.812.812 0 0 0-.589-1.104.805.805 0 0 0-.965.794.81.81 0 0 0 .808.81m0 11a.805.805 0 0 0 .746-.5.812.812 0 0 0-.589-1.104.8.8 0 0 0-.829.344.81.81 0 0 0 .672 1.26m-9.5-71.5a.806.806 0 0 0 .792-.968.81.81 0 0 0-1.101-.59.81.81 0 0 0-.498.748.81.81 0 0 0 .807.81m9.5 115.5a.805.805 0 0 0 .746-.5.81.81 0 0 0-.176-.882.8.8 0 0 0-.88-.176.807.807 0 0 0-.436 1.058.81.81 0 0 0 .746.5m0-33a.81.81 0 0 0 .746-.5.813.813 0 0 0-.589-1.104.805.805 0 0 0-.965.794.81.81 0 0 0 .808.81m0 21.999a.8.8 0 0 0 .746-.499.81.81 0 0 0-.176-.883.806.806 0 0 0-1.378.573.81.81 0 0 0 .808.809m-9.5-16.5a.805.805 0 0 0 .746-.499.812.812 0 0 0-.588-1.104.806.806 0 0 0-.965.794.81.81 0 0 0 .807.81zm0 11a.805.805 0 0 0 .792-.967.806.806 0 0 0-1.6.158.81.81 0 0 0 .808.809m9.5-49.5a.806.806 0 0 0 .791-.967.81.81 0 0 0-.634-.636.805.805 0 0 0-.965.794.81.81 0 0 0 .808.81zm-9.5 60.501a.81.81 0 0 0 .746-.5.812.812 0 0 0-.588-1.104.81.81 0 1 0-.158 1.604m0-99a.81.81 0 0 0 .746-.5.812.812 0 0 0-.588-1.104.805.805 0 0 0-.965.794.81.81 0 0 0 .807.81m0 66a.806.806 0 0 0 .792-.968.81.81 0 0 0-1.1-.59.808.808 0 0 0-.263 1.32.8.8 0 0 0 .57.238zm0 54.999a.808.808 0 0 0 .571-1.381.8.8 0 0 0-.88-.176.81.81 0 0 0-.498.748.81.81 0 0 0 .807.809m0-10.999a.81.81 0 0 0 .746-.5.812.812 0 0 0-.588-1.104.81.81 0 1 0-.158 1.604m0-88a.806.806 0 0 0 .792-.968.81.81 0 0 0-1.1-.59.81.81 0 0 0-.5.748.81.81 0 0 0 .808.81m0-11a.805.805 0 0 0 .746-.5.812.812 0 0 0-.588-1.104.805.805 0 0 0-.965.794.81.81 0 0 0 .807.81m0 33a.805.805 0 0 0 .746-.5.812.812 0 0 0-.588-1.104.806.806 0 0 0-.965.794.81.81 0 0 0 .807.81m0-11a.81.81 0 0 0 .746-.5.812.812 0 0 0-.588-1.104.805.805 0 0 0-.965.794.81.81 0 0 0 .807.81m0 22a.806.806 0 0 0 .792-.968.81.81 0 0 0-1.1-.59.81.81 0 0 0-.5.748.81.81 0 0 0 .808.81m9.5 27.5a.805.805 0 0 0 .746-.5.81.81 0 0 0-.176-.882.8.8 0 0 0-.88-.176.813.813 0 0 0-.436 1.058.81.81 0 0 0 .746.5m9.5 16.5a.81.81 0 0 0 .746-.5.813.813 0 0 0-.589-1.104.81.81 0 1 0-.157 1.604m0-66a.806.806 0 0 0 .792-.968.81.81 0 0 0-.635-.636.806.806 0 0 0-.903 1.104.81.81 0 0 0 .746.5m0-22a.805.805 0 0 0 .746-.5.81.81 0 0 0-.589-1.104.805.805 0 0 0-.964.794.81.81 0 0 0 .807.81m-19 121a.81.81 0 0 0 .746-.5.812.812 0 0 0-.588-1.104.81.81 0 1 0-.158 1.604m19-132a.806.806 0 0 0 .792-.968.81.81 0 0 0-.635-.636.806.806 0 0 0-.964.794.81.81 0 0 0 .807.81m0 110a.81.81 0 0 0 .746-.5.813.813 0 0 0-.589-1.104.81.81 0 1 0-.157 1.604m0 10.999a.805.805 0 0 0 .746-.499.813.813 0 0 0-.589-1.104.81.81 0 1 0-.157 1.603m0-66a.806.806 0 0 0 .792-.967.81.81 0 0 0-.635-.636.806.806 0 0 0-.964.794.81.81 0 0 0 .807.81zm0 11a.807.807 0 0 0 .792-.967.81.81 0 0 0-.635-.636.8.8 0 0 0-.828.344.81.81 0 0 0 .671 1.26zm0 22a.8.8 0 0 0 .746-.5.81.81 0 0 0-1.055-1.057.81.81 0 0 0-.498.748.81.81 0 0 0 .498.748.8.8 0 0 0 .31.061zm0-11a.805.805 0 0 0 .746-.5.812.812 0 0 0-.589-1.103.805.805 0 0 0-.964.794.81.81 0 0 0 .807.81zM76 50.31a.805.805 0 0 0 .746-.5.812.812 0 0 0-.589-1.103.805.805 0 0 0-.965.794.81.81 0 0 0 .808.81zm9.5 115.5a.805.805 0 0 0 .746-.499.813.813 0 0 0-.589-1.104.81.81 0 1 0-.157 1.603M76 17.309a.81.81 0 0 0 .746-.5.812.812 0 0 0-.589-1.103.805.805 0 0 0-.965.794.81.81 0 0 0 .808.81zm9.5-5.5a.81.81 0 0 0 .746-.5.812.812 0 0 0-.589-1.103.805.805 0 0 0-.964.794.81.81 0 0 0 .807.81zM76 6.31a.806.806 0 0 0 .791-.967.81.81 0 0 0-.634-.636.805.805 0 0 0-.965.794.81.81 0 0 0 .808.81zm0 33a.806.806 0 0 0 .791-.967.81.81 0 0 0-1.1-.59.807.807 0 0 0-.437 1.058.81.81 0 0 0 .746.5zm0-11a.81.81 0 0 0 .746-.5.812.812 0 0 0-.589-1.103.805.805 0 0 0-.965.794.81.81 0 0 0 .808.81zm9.5 159.501a.81.81 0 0 0 .746-.5.813.813 0 0 0-.589-1.104.81.81 0 1 0-.157 1.604m0-33a.81.81 0 0 0 .746-.5.813.813 0 0 0-.589-1.104.81.81 0 1 0-.157 1.604m0-88a.806.806 0 0 0 .792-.968.81.81 0 0 0-.635-.636.806.806 0 0 0-.964.794.81.81 0 0 0 .807.81m0 110a.81.81 0 0 0 .746-.5.813.813 0 0 0-.589-1.104.81.81 0 1 0-.157 1.604"/>
</svg>
