<svg xmlns="http://www.w3.org/2000/svg" width="21.333" height="21.333" version="1.0" viewBox="0 0 16 16">
  <path d="M7.445.777a3 3 0 0 1-.264.025 4 4 0 0 0-.318.03 4 4 0 0 1-.212.03 4 4 0 0 0-.318.06c-.167.028-.6.14-.728.186a3 3 0 0 1-.181.06c-.282.064-1.149.485-1.558.755-.166.109-.312.2-.324.2a.04.04 0 0 0-.033.02 1.7 1.7 0 0 1-.237.204 8 8 0 0 0-.93.888l-.109.13a7.7 7.7 0 0 0-1.209 2.072c-.094.249-.257.791-.285.928a5 5 0 0 1-.045.23c-.058.288-.055.267-.11.815-.036.367-.017 1.251.034 1.53.01.043.021.127.03.188.043.282.058.354.113.57a9 9 0 0 1 .072.281c.052.222.279.818.449 1.173a7 7 0 0 0 3.239 3.306 5 5 0 0 0 .554.254c.173.073.37.143.412.152.028.006.115.033.197.06a8.4 8.4 0 0 0 1.173.245c.421.08 1.451.061 2.02-.033.043-.009.122-.02.18-.03.054-.009.157-.03.227-.048.067-.019.151-.04.185-.046.133-.024.34-.082.43-.121a.5.5 0 0 1 .13-.042c.022 0 .164-.049.315-.11a7.8 7.8 0 0 0 1.66-.915l.146-.103-.188-.245a3 3 0 0 0-.212-.258c-.012-.006-.024-.024-.024-.036 0-.033-.421-.588-.454-.6-.022-.009-.21.118-.355.237-.021.018-.045.03-.057.03s-.046.018-.07.042c-.091.082-.964.51-1.064.518-.009.003-.103.03-.212.067-.363.121-.62.176-1.148.24a7 7 0 0 1-1.473-.037l-.151-.024-.152-.03c-.048-.01-.118-.025-.151-.03a3 3 0 0 1-.197-.052c-.076-.022-.155-.04-.173-.046a7 7 0 0 1-.585-.221l-.12-.048a7 7 0 0 1-.607-.328c-1.057-.657-1.833-1.581-2.342-2.793-.121-.285-.26-.8-.34-1.243-.09-.524-.07-1.43.049-2.015a5.78 5.78 0 0 1 2.579-3.736c.336-.212 1.087-.566 1.209-.566.024 0 .057-.01.07-.024a.1.1 0 0 1 .05-.025q.026-.004.037-.012a9 9 0 0 1 .87-.197c.318-.063 1.239-.066 1.606-.003.042.01.13.021.197.034.193.027.609.13.727.178.057.025.106.04.106.034s.133.042.294.109a6.4 6.4 0 0 1 1.127.603l.257.175.316-.412c.418-.551.436-.572.512-.663l.066-.079-.112-.09a1 1 0 0 0-.173-.12.3.3 0 0 1-.075-.054 1 1 0 0 0-.137-.09 1 1 0 0 1-.136-.088c-.03-.037-.679-.367-.94-.482a10 10 0 0 0-.963-.327 8 8 0 0 0-.915-.176 8 8 0 0 0-.903-.06 6 6 0 0 0-.348 0m6.117 3.105a.72.72 0 0 0-.536.679.71.71 0 0 0 .715.715.68.68 0 0 0 .624-.394c.27-.524-.218-1.13-.803-1m1.006 2.218c-.082.015-.145.04-.145.055s-.018.027-.043.027c-.072 0-.284.26-.32.397a.9.9 0 0 0 .023.485.9.9 0 0 0 .352.366.8.8 0 0 0 .533.033.3.3 0 0 1 .097-.027c.043.006.243-.212.303-.33a.6.6 0 0 0 .06-.303c-.002-.26-.005-.27-.123-.427a.7.7 0 0 0-.737-.276"/>
  <path d="M12.72 6.107a.4.4 0 0 1-.115.021c-.597.07-.83.815-.385 1.24.133.13.279.184.482.184a.69.69 0 0 0 .694-.551c.084-.403-.143-.764-.555-.873-.06-.018-.115-.027-.121-.021m-5.209.33a.6.6 0 0 1-.13.028 1.5 1.5 0 0 0-.348.13c-.537.263-.86.809-.837 1.412.012.312.022.363.103.566.33.825 1.324 1.191 2.13.788a1.52 1.52 0 0 0 .849-1.354c-.003-.433-.097-.7-.37-1.055-.073-.094-.34-.3-.454-.354a2.4 2.4 0 0 0-.349-.133c-.079-.019-.578-.043-.594-.028m3.094.831c-.379.124-.588.406-.56.76a.721.721 0 0 0 1.211.473c.276-.26.3-.643.061-.991a.8.8 0 0 0-.333-.221c-.115-.03-.318-.043-.379-.021m3.881 1.227c-.148.048-.375.288-.424.445a.72.72 0 0 0 .179.724c.148.146.29.2.521.197.179 0 .221-.015.352-.1.218-.151.354-.4.345-.633-.009-.224-.2-.497-.43-.61a.9.9 0 0 0-.543-.023m-1.972.012c-.364.133-.552.394-.53.74.009.184.078.33.218.463.37.357.963.218 1.154-.27a.74.74 0 0 0 .012-.503.9.9 0 0 0-.348-.367c-.118-.06-.415-.097-.506-.063m.973 2.254c-.14.043-.385.294-.425.44-.14.505.218.97.721.933a.712.712 0 0 0 .591-1 .93.93 0 0 0-.366-.36c-.11-.046-.388-.052-.521-.013"/>
</svg>
