<svg xmlns="http://www.w3.org/2000/svg" width="284" height="36" fill="none" viewBox="0 0 284 36">
  <path fill="#092E6E" d="M97.615 35c-.698-.12-1.435-.2-2.134-.36-5.392-1.079-9.078-4.316-11.096-9.552-.62-1.559-.93-3.237-1.086-4.916-.35-3.717.077-7.314 1.707-10.671C87.334 4.665 91.097 1.587 96.18.428c3.84-.88 7.565-.4 11.096 1.399.62.32 1.203.24 1.823.28h.388c.35 2.917.66 5.795 1.01 8.713h-.97c-.738-1.959-1.591-3.837-2.872-5.516-1.63-2.198-3.686-3.637-6.363-3.917-2.6-.28-4.966.44-6.983 2.199-2.367 2.038-3.57 4.796-4.307 7.793-.66 2.798-.815 5.596-.582 8.433.272 3.158 1.125 6.155 3.104 8.633 1.862 2.358 4.307 3.797 7.294 4.237 4.423.68 9.39-2.278 11.135-7.034.116-.28.194-.52.35-.84.31.08.62.16.97.24-.04.2-.078.4-.117.56-.776 2.398-1.94 4.516-3.764 6.235a11.3 11.3 0 0 1-5.276 2.757c-.737.16-1.474.24-2.173.36-.853.04-1.59.04-2.328.04M284 24.648l-.116.48a166 166 0 0 1-.155 4.396c-.04 1.52-.117 3.038-.155 4.597h-25.956v-1c.504-.04 1.047-.08 1.59-.16.776-.16 1.591-.28 2.328-.559.854-.32 1.242-1.039 1.242-1.998V4.624c0-.999-.427-1.718-1.358-2.078-.737-.28-1.552-.4-2.328-.56-.465-.08-.97-.08-1.513-.12V.909h14.588v.919c-.97.12-1.94.24-2.91.44-.349.08-.698.24-1.047.4-.738.399-.893 1.118-.97 1.878v27.898c.194 0 .349.04.465.04 1.979 0 3.996.079 5.975-.04 2.29-.12 4.423-.72 6.014-2.559 1.125-1.279 1.823-2.798 2.444-4.396.272-.68.504-1.4.737-2.079h1.048c.077.4.077.84.077 1.24M0 24.529h64.909v9.552H0zm192.166 9.631v-1.118c.737-.12 1.436-.2 2.134-.36.31-.08.62-.2.931-.32.892-.36 1.28-1.119 1.28-2.038V4.864c0-1.278-.426-1.998-1.59-2.358-.854-.28-1.785-.44-2.716-.64V.909h.62c4.656 0 9.35-.08 14.007.04 3.996.12 7.72 1.239 10.863 3.956 2.367 2.039 3.802 4.637 4.5 7.714.505 2.238.621 4.516.35 6.795-.388 3.077-1.32 5.955-3.143 8.473-1.979 2.758-4.656 4.476-7.798 5.435-1.901.6-3.88.84-5.859.84h-13.579m8.885-1.598c1.435 0 2.832.08 4.19-.04 1.59-.12 3.181-.24 4.694-.6 3.182-.759 5.393-2.717 6.44-5.955.66-2.038.932-4.116 1.01-6.235.077-1.838-.04-3.677-.078-5.515-.039-1.599-.35-3.118-.854-4.596-.62-2.039-1.668-3.757-3.375-5.076-2.056-1.599-4.462-2.119-6.945-2.278-1.552-.08-3.104-.04-4.656-.04-.155 0-.349.04-.504.04.078 10.071.078 20.143.078 30.295M31.31 22.17H0v-9.552h31.31zm2.289 0v-9.552h31.27v9.552zm191.273 11.95v-.958c1.048-.16 2.056-.24 3.026-.48 1.28-.28 2.173-.88 2.134-2.758-.039-8.353 0-16.706 0-25.06 0-1.398-.504-2.198-1.823-2.517-1.087-.28-2.212-.4-3.337-.6v-.88h26.189v7.235c-.233 0-.544.04-.893.04-.233-.64-.465-1.28-.737-1.879-.465-1.079-1.009-2.158-1.94-2.917-.776-.64-1.707-1-2.638-1.04-3.414-.12-6.829-.16-10.282-.2v14.03c1.01 0 2.057.04 3.066 0 .775-.04 1.551-.08 2.289-.24 1.358-.28 2.405-1.12 2.987-2.399.427-.959.737-1.958 1.086-2.917.078-.2.117-.36.156-.6h.853v13.59h-.853c-.194-.68-.388-1.4-.66-2.079-.427-1.2-.892-2.358-2.017-3.038-.621-.36-1.32-.719-2.018-.799-1.63-.16-3.259-.16-4.927-.2v14.908c.194 0 .349.04.543.04 3.22 0 6.48.04 9.7-.04 1.59-.04 3.18-.32 4.422-1.479.854-.799 1.397-1.838 1.863-2.917.232-.52.426-1.08.66-1.679.31.04.62.04 1.008.08a514 514 0 0 1-.272 7.714c-9.156.04-18.351.04-27.585.04m-46.014-12.63h-11.251c-.854 2.598-1.746 5.236-2.6 7.874-.155.48-.116 1.079-.039 1.638.117.68.582 1.16 1.203 1.4.698.279 1.397.439 2.134.639.116.04.272.08.427.08v.959H158.14v-.84c.815-.4 1.63-.719 2.367-1.159 1.164-.759 2.017-1.878 2.56-3.157.97-2.158 1.863-4.397 2.716-6.595 2.871-7.314 5.665-14.628 8.497-21.942.039-.12.077-.2.155-.32h1.59c.816 2.279 1.63 4.557 2.406 6.835 2.638 7.434 5.277 14.908 7.954 22.342.388 1.119.892 2.238 1.978 2.837.738.4 1.514.68 2.367 1.04v.999h-13.308v-.88c.815-.12 1.63-.24 2.445-.4.116-.04.271-.08.388-.12 1.358-.439 1.823-1.238 1.397-2.637-.66-2.158-1.397-4.317-2.096-6.435-.232-.76-.465-1.439-.698-2.158m-.504-1.399c-1.591-4.676-3.143-9.352-4.695-13.989h-.194c-1.746 4.637-3.492 9.313-5.276 13.99zM160.74.868c.116 2.438.194 4.796.31 7.234h-.93c-.622-1.12-1.165-2.278-1.824-3.317-.932-1.48-2.29-2.359-4.035-2.478-1.669-.12-3.337-.12-5.083-.2v28.017c0 1.159.466 1.918 1.552 2.278.776.24 1.59.36 2.406.52.504.08 1.008.12 1.551.16v.999h-15.441v-1c.504-.04 1.047-.12 1.59-.16 1.048-.12 2.057-.24 2.95-.839.581-.36.853-.879.853-1.558V2.186c-.97 0-1.901-.04-2.794 0-.97.04-1.978.04-2.948.2-1.513.24-2.6 1.2-3.376 2.518-.62 1.04-1.125 2.159-1.707 3.278h-.931c.078-2.438.194-4.836.272-7.274 9.233-.04 18.39-.04 27.585-.04m-31.698 32.253v1h-14.976v-.96c1.048-.16 2.056-.28 3.104-.44.31-.04.62-.159.892-.279.699-.32 1.164-.88 1.203-1.719 0-.36.078-.679.078-1.039V5.344q0-.66-.117-1.319c-.116-.68-.504-1.199-1.125-1.399-.815-.28-1.668-.48-2.483-.64-.504-.08-1.009-.08-1.552-.12V.909h14.976v.919c-1.009.12-1.979.24-2.949.44-.62.12-1.28.32-1.707.879-.233.32-.388.76-.504 1.199-.078.36-.039.72-.039 1.079 0 8.073.039 16.187 0 24.26 0 2.119.466 2.798 2.755 3.158.814.08 1.63.16 2.444.28M51.95 10.22V.668h12.96v9.552zm-39.03 0H0V.668h12.92zM38.875.668v9.552H26.033V.668z"/>
</svg>
