<svg xmlns="http://www.w3.org/2000/svg" width="400" height="200" fill="none" viewBox="0 0 400 200">
  <path fill="#fff" d="M129.939 115.966h-12.031c1.557-1.432 1.982-6.587 2.548-15.893l.14-2.148c.426-5.155.567-9.306.567-12.17 0-2.434-.283-4.01-.99-4.582h13.445c3.256 0 9.625.143 9.625 6.872 0 4.582-4.105 7.302-7.926 8.305 5.379.429 9.342 3.15 9.342 8.734.141 6.014-5.52 10.882-14.72 10.882m-.425-16.896h-2.406l-.424 5.155c-.142 2.29-.284 4.152-.284 6.443 0 .286.991 1.002 3.256 1.002 4.812 0 7.926-2.434 7.926-6.443.141-4.438-3.68-6.157-8.068-6.157m.991-13.745c-.707 0-1.557 0-2.406.143-.425 2.434-.566 4.725-.707 7.445 0 0-.142 2.148-.142 2.005h.85c4.387 0 8.35-1.575 8.35-5.584.141-2.291-1.84-4.01-5.945-4.01m42.461 30.927c-2.972 0-3.255-.143-5.52-8.304l-.849-3.007c-1.415.715-3.963 1.001-7.926 1.001h-4.105l-.707 1.575c-.708 1.576-2.406 4.869-2.406 6.873 0 .43 0 .86.141 1.575h-8.21c2.265-2.29 5.38-7.875 9.484-16.752l2.406-5.155c2.123-4.725 4.53-10.023 4.53-10.738 0-.716-.142-1.29-.425-2.005h7.501s1.982 7.445 3.68 13.745l1.416 5.441c2.548 9.307 4.246 13.745 6.228 15.464-1.982.144-4.388.287-5.238.287M162.21 89.334l-5.662 12.17h9.058zm43.31 28.064c-2.547 0-3.113-.43-3.962-1.575l-9.766-13.46c-.708-1.145-1.416-1.86-2.548-1.86h-.141l-.142 2.72c-.14 3.58-.424 6.443-.424 8.59 0 2.291.283 3.723.99 4.296h-9.34c1.415-1.146 1.84-5.155 2.688-15.893l.142-2.148c.424-5.155.566-9.307.566-12.17 0-2.435-.283-4.01-.99-4.582h12.596c4.246 0 9.766.715 9.766 7.445 0 5.584-3.68 8.59-8.209 10.023.424.43 1.274 1.432 1.698 2.005l6.936 9.306c4.388 5.87 4.67 6.157 6.228 6.873-1.841.286-4.39.43-6.088.43m-12.455-31.93c-.85 0-1.84 0-2.69.143-.283 1.432-.424 4.009-.707 8.162l-.141 2.434c.424.143 1.132.143 1.557.143 4.246 0 7.218-2.72 7.218-6.587-.142-2.72-1.982-4.295-5.237-4.295m30.714 31.214c-8.917 0-14.012-7.446-14.012-15.607 0-11.455 6.227-20.475 17.975-20.475 3.68 0 5.378.716 8.492.716l-.849 8.877c-1.699-3.15-4.529-5.155-8.209-5.155-7.36 0-10.332 8.018-10.332 14.891 0 7.446 4.246 11.598 9.624 11.598 2.972 0 5.662-.716 10.049-3.866-1.84 5.44-5.945 9.02-12.738 9.02m60.578-.43c-2.972 0-3.113-.143-5.52-8.304l-.849-3.007c-1.416.715-3.963 1.001-7.926 1.001h-4.246l-.708 1.575c-1.132 2.291-2.406 5.012-2.406 6.873 0 .43.142 1.003.142 1.575h-24.345c1.415-1.575 1.84-6.73 2.547-15.893l.142-2.148c.424-5.297.566-9.306.566-12.17 0-2.291-.283-3.866-.849-4.582h9.483c-1.416 1.002-1.84 6.586-2.406 15.893l-.142 2.148c-.141 3.436-.707 7.016-.707 10.309 0 1.575.566 2.004 2.264 2.004 5.803 0 7.077-.142 9.766-1.86 1.699-3.008 3.397-6.73 5.237-10.596l2.406-5.155c2.264-4.868 4.529-9.88 4.529-10.739 0-.715-.141-1.288-.424-2.004h7.501s2.973 11.311 3.68 13.745l1.416 5.441c2.548 9.307 4.105 13.746 6.369 15.464-1.981.287-4.671.43-5.52.43M273.6 89.334l-5.52 12.17h8.917zm32.271 7.875c-.707 1.432-1.84 3.15-2.406 4.581-.566 2.578-.708 6.014-.708 9.737 0 1.575.283 3.723.991 4.439h-9.342c1.699-1.575 2.265-11.169 2.265-14.319-1.274-4.295-2.973-8.59-5.52-13.745-1.699-3.15-3.539-6.157-4.813-6.73 2.124-.143 4.813-.286 6.087-.286 2.264 0 2.972.286 4.387 3.436 2.265 5.155 3.822 9.02 4.813 11.74 2.264-3.722 3.963-6.3 6.086-9.879.425-.859.991-2.004.991-3.007 0-.715-.142-1.718-.425-2.004h9.2c-1.981.43-9.907 13.174-11.606 16.037m31.139-7.875c-1.416-2.577-4.53-4.582-7.926-4.582-2.973 0-5.52 1.146-5.52 4.296 0 2.72 3.255 4.438 6.652 6.73 3.68 2.29 7.502 5.154 7.502 10.165 0 6.444-6.228 10.596-13.588 10.596-2.973 0-6.086-.573-9.625-1.861l.566-8.591c1.699 3.436 4.813 6.156 9.483 6.156 3.539 0 6.37-1.718 6.37-4.868 0-2.577-2.124-4.295-4.813-5.87-5.661-3.436-9.2-6.157-9.2-11.168 0-7.446 6.086-9.88 12.597-9.88 3.68 0 6.086.716 8.351.716zm-232.831-3.15c-.425-1.003-1.133-2.148-2.407-3.007a9 9 0 0 0-1.981-1.146c-.567-.142-1.133-.286-1.84-.286h-.142c-.85 0-2.406.143-3.255 1.432-.424.43-.567 1.289-.424 2.004.14.573.566 1.146 1.132 1.29 0 0 .141.142.424.142 0 .143-.141.43-.141.43-.425.429-1.133 1.145-3.255 1.145h-.142c-1.132-.143-1.982-.43-3.255-1.718-.708-.86-1.133-2.435-1.133-4.868 0-1.289-.141-2.291-.424-3.15-.142-.573-.708-1.146-1.133-1.432-.424-.287-.707-.43-1.415-.716-.85-.143-1.699-.286-2.406-.286-.85 0-1.416.143-1.699.573h-.849c-.424 0-.99.142-1.415.142-.85.143-1.416.573-1.982 1.003-.141.142-.708.715-.85 1.288 0 .43.142.859.142 1.002l.141.143c.283-.286.85-.43 1.557-.43.99 0 2.406.43 2.69 1.146.707 1.146.424 2.005.424 3.007-.425 2.72-1.415 4.01-3.539 4.296-.424.143-.849.143-1.132.143-1.557 0-2.69-.43-3.256-1.432v-.287s.142 0 .283-.143c.566-.286.991-.715 1.133-1.288.141-.716 0-1.432-.425-2.005-.849-.86-1.982-1.432-3.255-1.432-.85 0-1.416.143-1.982.286-1.699.43-3.255 1.862-4.387 4.153-.85 1.718-1.416 3.723-1.557 6.014-.141 2.29-.141 4.152 0 5.87.141 2.863.707 4.582 1.416 6.443a29 29 0 0 0 2.547 5.155c.283.429.424.859.707 1.145l.142-.143c.141-.143.283-.286.424-.573.566-.429 1.557-1.86 1.84-2.29s.708-1.146.99-1.862l.142-.286.283.143c.283.287.425.716.425 1.146s-.142.859-.425 1.718c-.283 1.002-.85 2.148-1.415 3.293.14.144.14.43 0 .43-.425.715-.425 1.002-.425 1.288h.142c.14 0 .707-.143 1.132-.573.424-.286 1.557-1.288 2.972-3.293 1.133-1.432 1.84-3.007 2.69-4.725l.141-.286.283.143c.141.143.283.143.424.286.142.287.142.716.142 1.146-.142 1.145-.85 2.72-1.274 3.866-.85 2.005-2.406 4.153-3.539 5.727 0 .143-.283.43-.424.43.141.143.283.286.566.429l.425.43c1.557 1.288 2.972 2.29 4.812 3.293 1.416.859 4.246 2.29 6.228 2.863 1.981-.429 4.812-2.005 6.228-2.863 1.84-1.002 3.255-2.005 4.812-3.294l.425-.429c.282-.143.424-.43.566-.43.141-.286.141-.429.141-.572l-.141-.143c-1.133-1.432-2.69-3.723-3.539-5.727-.424-1.146-1.132-2.72-1.274-3.866-.14-.43 0-.86.142-1.146l.283-.286c.141-.143.424-.143.424-.143l.142.286c.849 1.718 1.698 3.293 2.689 4.725 1.415 2.004 2.547 3.007 2.972 3.293.425.43.85.573 1.133.573h.141c.142-.143 0-.43-.424-1.146-.142-.142-.142-.286-.142-.429-.566-1.146-1.132-2.29-1.415-3.293q-.425-1.29-.425-1.718c0-.43.141-.86.425-1.146l.283-.143.141.286c.283.716.85 1.575 1.132 2.005.284.43 1.416 1.718 1.7 2.148.282.286.424.429.424.572l.14.143c.142-.143.284-.429.567-1.002l.141-.143c.85-1.432 1.7-3.293 2.407-5.154.707-1.718 1.132-3.58 1.415-6.443.142-1.719.283-3.58 0-5.87.144-2.149-.422-4.296-1.13-5.871"/>
</svg>
