<svg xmlns="http://www.w3.org/2000/svg" width="232" height="26" fill="none" viewBox="0 0 232 26">
  <path fill="#fff" d="M13.779 11.256H4.747V1.463H0v23.974h4.747v-10.13h9.032v10.13h4.747V1.463h-4.747zM31.61 24.2l.347 1.237h3.706V13.844c0-4.39-1.737-6.303-7.295-6.303-1.968 0-4.516.338-6.137.788l.58 3.377c1.62-.338 3.357-.563 5.094-.563 2.894 0 3.473.675 3.473 2.701v1.914h-4.4c-3.705 0-5.326 1.35-5.326 4.952 0 3.039 1.39 5.29 4.748 5.29 1.62-.225 3.589-.675 5.21-1.8m-3.821-5.29h3.358v2.588c-.81.45-2.084.9-3.474.9s-1.852-.562-1.852-1.8c.231-1.351.579-1.689 1.968-1.689m16.673 3.264c-1.852 0-3.936-.338-5.442-.788l-.579 3.377c1.737.563 4.284 1.013 6.137 1.013 5.442 0 6.484-2.139 6.484-5.403 0-3.602-.463-4.277-5.558-5.515-2.431-.563-2.547-.675-2.547-2.138 0-1.126.347-1.576 2.316-1.576 1.39 0 3.59.225 4.979.563l.463-3.49c-1.621-.45-3.821-.562-5.442-.562-5.21 0-6.716 1.575-6.716 5.177 0 3.377.58 4.502 4.979 5.403 3.01.675 3.126 1.238 3.126 2.363.116 1.126-.231 1.576-2.2 1.576m20.263-9.004v12.268h4.516V12.72c0-3.152-1.042-5.178-4.168-5.178-1.969 0-4.632.676-6.485 1.689V.113l-4.515.562v24.762h4.515V13.281c1.621-.787 3.59-1.463 4.748-1.463 1.042 0 1.39.45 1.39 1.35M77.23 7.991h-4.516v17.446h4.516zm0-7.653h-4.516v5.177h4.516zm12.274 4.84c1.737 0 4.052.225 6.02.562l.58-3.939c-2.084-.45-4.516-.675-6.716-.675-6.137 0-8.8 2.588-8.8 6.866v10.805c0 4.39 2.663 6.866 8.8 6.866 2.316 0 4.747-.338 6.6-.788l-.579-3.827c-1.968.337-4.4.563-6.02.563-3.243 0-4.285-1.126-4.285-3.715V8.78c.116-2.476 1.158-3.601 4.4-3.601m16.094 2.362c-6.137 0-7.758 3.377-7.758 6.866v4.502c0 3.602 1.737 6.866 7.758 6.866 6.02 0 7.757-3.377 7.757-6.866v-4.502c0-3.602-1.621-6.866-7.757-6.866m3.242 11.48c0 2.027-.927 3.04-3.358 3.04s-3.358-1.013-3.358-3.04v-4.727c0-2.026.926-3.039 3.358-3.039s3.358 1.013 3.358 3.04zm18.526-11.48c-2.085 0-4.979.788-7.179 1.801l-.463-1.463h-3.474v17.446h4.516V13.28c1.621-.788 3.589-1.463 4.747-1.463 1.042 0 1.505.45 1.505 1.463v12.27h4.516V12.719c-.116-3.152-1.158-5.178-4.168-5.178m15.284-3.939c.694 0 1.737.112 2.663.337l.463-3.376A14.4 14.4 0 0 0 141.839 0c-4.052 0-5.673 1.8-5.673 5.403v2.476h-2.895v3.489h2.895v14.07h4.515v-14.07h4.4l.232-3.49h-4.632v-2.25c0-1.238.232-2.026 1.969-2.026m30.22 21.835h2.084V1.126l-2.084.225zm12.621-17.333c-4.979 0-6.716 2.701-6.716 6.19v5.403c0 3.49 1.852 6.19 6.716 6.19 4.978 0 6.715-2.7 6.715-6.19v-5.403c.232-3.601-1.737-6.19-6.715-6.19m4.747 11.48c0 2.927-1.505 4.39-4.747 4.39-3.358 0-4.748-1.463-4.748-4.39v-5.402c0-2.927 1.506-4.39 4.748-4.39 3.357 0 4.747 1.463 4.747 4.39zm13.778-11.48c-2.432 0-4.4.562-5.674 1.35V1.238l-2.084.338v23.748c1.621.338 4.4.676 5.79.676 5.326 0 6.947-2.251 6.947-5.966v-6.753c0-3.376-1.505-5.177-4.979-5.177m2.895 11.705c0 2.589-.927 4.165-4.748 4.165-1.273 0-2.663-.113-4.052-.338V11.48c1.621-.9 3.358-1.463 5.558-1.463 2.315 0 3.242.9 3.242 3.04zm11.463-11.705c-1.853 0-4.053.338-5.442.675l.347 1.688c1.621-.337 3.474-.562 5.21-.562 2.895 0 4.169.788 4.169 3.151v3.377h-5.211c-3.473 0-5.21 1.125-5.21 4.727 0 3.04 1.505 4.84 4.631 4.84 2.316 0 4.284-.675 5.905-1.688l.116 1.35h1.853V12.944c0-3.264-1.737-4.84-6.368-4.84m4.284 14.07c-1.621 1.125-3.706 1.8-5.442 1.8-2.432 0-2.895-.9-2.895-2.926 0-2.251.695-2.927 3.126-2.927h5.211zm6.368 3.263h2.085V1.126l-2.085.225zm-66.577-8.667h3.821v6.641c-1.505.338-3.589.563-5.095.563-4.515 0-5.673-1.576-5.673-5.065V8.554c0-3.602 1.389-5.065 5.789-5.065 2.084 0 4.4.225 6.253.563l.231-1.801c-1.852-.338-4.631-.675-6.6-.675-5.789 0-7.989 2.476-7.989 6.753v10.467c0 4.39 1.853 6.754 7.642 6.754 2.316 0 5.095-.338 7.295-1.013v-10.13h-5.79z"/>
</svg>
