<svg xmlns="http://www.w3.org/2000/svg" width="296" height="342" fill="none" viewBox="0 0 296 342" xmlns:xlink="http://www.w3.org/1999/xlink">
  <g clip-path="url(#a)">
    <path fill="url(#b)" d="m243.21 170.938.035.062h-1.394L148 8.338V5.923zm-41.074.062h-1.394L148 79.59v-2.415l54.101 93.763zm24.665 0h-1.394L148 36.84v-2.415l78.765 136.513zm8.224 0h-1.394L148 22.59v-2.414l86.989 150.762zm-16.444 0h-1.394L148 51.092v-2.414l70.545 122.26zm-8.225 0h-1.394L148 65.34v-2.414l62.321 108.012z"/>
    <path fill="url(#c)" d="M151.413 171 148 165.081v-2.415l4.807 8.334zm42.508 0h-1.395L148 93.825v-2.406l45.885 79.519zm-8.225 0h-1.394L148 108.074v-2.411l37.66 65.275zm-8.22 0h-1.394L148 122.327v-2.411l29.441 51.022zm-17.838 0L148 150.824v-2.406L161.031 171zm8.22 0L148 136.575v-2.411L169.252 171z"/>
    <path fill="url(#d)" d="M271.856 50.178a.607.607 0 0 1-1.054-.014L241.864 0h1.394l28.078 48.665L296 5.919v2.419l-24.127 41.806zm-.52 69.738L296 77.171v2.418l-24.127 41.807-.017.033a.6.6 0 0 1-.221.219.6.6 0 0 1-.299.081.6.6 0 0 1-.308-.082.63.63 0 0 1-.226-.231L200.786.062 200.751 0h1.394zm.52-12.739a.6.6 0 0 1-.52.3.64.64 0 0 1-.308-.082.64.64 0 0 1-.226-.232L208.974 0h1.394l60.968 105.664L296 62.918v2.419l-24.127 41.806zm-.52-13.945a.6.6 0 0 1-.305-.08.55.55 0 0 1-.201-.202L217.235.062 217.199 0h1.394l52.743 91.415L296 48.669v2.415l-24.144 41.848a.6.6 0 0 1-.52.3m0-14.253a.6.6 0 0 1-.305-.08.54.54 0 0 1-.199-.2L225.459.062 225.424 0h1.394l44.518 77.166L296 34.421v2.414l-24.144 41.844a.6.6 0 0 1-.52.3m.501-14.527a.3.3 0 0 1-.073.089.7.7 0 0 1-.128.101.2.2 0 0 1-.073.035.4.4 0 0 1-.145.04.56.56 0 0 1-.382-.068l-.057-.035-.002-.003a.3.3 0 0 1-.064-.06l-.033-.037a.13.13 0 0 1-.043-.053.4.4 0 0 1-.039-.06L233.644 0h1.394l36.298 62.918L296 20.168v2.418l-24.151 41.85zm-.295.099.002.003-.001-.004Zm.048-.026.002.002z"/>
  </g>
  <g clip-path="url(#e)">
    <path fill="url(#f)" d="M148 262.417v2.415L192.526 342h1.393l-45.812-79.399zm0 71.25 4.809 8.333h-1.394L148 336.082zm.107-56.816L185.697 342h-1.393L148 279.082v-2.415zm0 14.25L177.476 342h-1.394L148 293.332v-2.415zm0 28.5L161.031 342h-1.394L148 321.832v-2.415zm0-14.25L169.253 342h-1.393L148 307.582v-2.415z"/>
    <path fill="url(#g)" d="M296 321.833v-2.416L210.363 171h-1.393l86.923 150.648zm-.107 14.065L200.748 171h1.393L296 333.667v2.415zm0-42.75L225.414 171h1.393L296 290.918v2.414zm0 14.25L217.191 171h1.394L296 305.168v2.414zm0-28.5L233.636 171h1.393L296 276.667v2.415zm0-14.249L241.858 171h1.393L296 262.418v2.415z"/>
    <path fill="url(#h)" d="M259.662 341.939 161.03 171h-1.393l.036.062L258.303 342h1.394zm8.257.061h-1.394l-98.631-170.938-.035-.062h1.393l98.631 170.939zm-16.444 0h-1.394L151.45 171.062l-.035-.062h1.392l98.632 170.939zm24.666 0h-1.393l-98.632-170.938-.035-.062h1.393l98.632 170.939zm8.222 0h-1.393l-98.631-170.938-.036-.062h1.394l98.631 170.939zm8.223 0h-1.394l-98.631-170.938-.036-.062h1.394l98.631 170.939z"/>
  </g>
  <path fill="url(#i)" d="M24.665 236.336 0 279.082v-2.418l24.17-41.879a.4.4 0 0 1 .074-.083l.053-.047a.3.3 0 0 1 .084-.055 1 1 0 0 1 .13-.052l.018-.006.017.001a.3.3 0 0 1 .119-.02.57.57 0 0 1 .307.083l.034.022a.3.3 0 0 1 .09.082l.048.062.003-.002a.4.4 0 0 1 .045.063L87.02 342h-1.394zm0-14.252L0 264.829v-2.419l24.144-41.839a.616.616 0 0 1 .823-.221.64.64 0 0 1 .232.236L95.249 342h-1.394zm0 28.501L0 293.331v-2.415l24.144-41.848a.62.62 0 0 1 .824-.22c.087.051.16.124.209.212l.03.047L78.8 342h-1.395l-52.742-91.415Zm0 42.75L0 336.081v-2.419l24.144-41.84a.62.62 0 0 1 .824-.22.64.64 0 0 1 .231.236L54.136 342h-1.394zm0-28.501L0 307.579v-2.414l24.144-41.844a.62.62 0 0 1 .823-.221c.088.051.16.125.21.214l.03.046L70.577 342h-1.395zm0 14.248L0 321.833v-2.419l24.17-41.879a.4.4 0 0 1 .074-.083l.053-.047a.3.3 0 0 1 .067-.047.3.3 0 0 1 .073-.035.4.4 0 0 1 .145-.04.3.3 0 0 1 .082-.01.6.6 0 0 1 .308.083l.034.022a.3.3 0 0 1 .09.082l.048.062.003-.002a.4.4 0 0 1 .045.063L62.356 342h-1.394zm.413-1.45"/>
  <path fill="url(#j)" d="M78.814 171 148 290.908v2.414l-.106-.184L77.419 171zm16.444 0L148 262.411v2.414l-.106-.184L93.864 171zm-24.664 0L148 305.161v2.414l-.106-.184L69.199 171zm16.444 0L148 276.659v2.415l-.106-.184L85.644 171zm-24.669 0L148 319.409v2.415l-.106-.184L60.975 171zm-8.22 0L148 333.662v2.415l-.106-.184L52.754 171z"/>
  <defs>
    <linearGradient id="b" x1="148" x2="290.914" y1="5.923" y2="88.381" gradientUnits="userSpaceOnUse">
      <stop stop-color="#FEEC7B"/>
      <stop offset="1" stop-color="#FFE543"/>
    </linearGradient>
    <linearGradient id="c" x1="148" x2="216.9" y1="91.419" y2="131.176" gradientUnits="userSpaceOnUse">
      <stop stop-color="#FEEC7B"/>
      <stop offset="1" stop-color="#FFE543"/>
    </linearGradient>
    <linearGradient id="d" x1="200.751" x2="318.907" y1="0" y2="92.454" gradientUnits="userSpaceOnUse">
      <stop stop-color="#FEEC7B"/>
      <stop offset="1" stop-color="#FFE543"/>
    </linearGradient>
    <linearGradient id="f" x1="148" x2="216.9" y1="262.417" y2="302.173" gradientUnits="userSpaceOnUse">
      <stop stop-color="#FEEC7B"/>
      <stop offset="1" stop-color="#FFE543"/>
    </linearGradient>
    <linearGradient id="g" x1="200.748" x2="343.67" y1="171" y2="253.466" gradientUnits="userSpaceOnUse">
      <stop stop-color="#FEEC7B"/>
      <stop offset="1" stop-color="#FFE543"/>
    </linearGradient>
    <linearGradient id="h" x1="151.415" x2="319.32" y1="171" y2="309.616" gradientUnits="userSpaceOnUse">
      <stop stop-color="#FEEC7B"/>
      <stop offset="1" stop-color="#FFE543"/>
    </linearGradient>
    <linearGradient id="i" x1="0" x2="118.153" y1="220.275" y2="312.729" gradientUnits="userSpaceOnUse">
      <stop stop-color="#FEEC7B"/>
      <stop offset="1" stop-color="#FFE543"/>
    </linearGradient>
    <linearGradient id="j" x1="52.755" x2="195.669" y1="171" y2="253.458" gradientUnits="userSpaceOnUse">
      <stop stop-color="#FEEC7B"/>
      <stop offset="1" stop-color="#FFE543"/>
    </linearGradient>
    <clipPath id="a">
      <path fill="#fff" d="M148 0h148v171H148z"/>
    </clipPath>
    <clipPath id="e">
      <path fill="#fff" d="M148 171h148v171H148z"/>
    </clipPath>
  </defs>
</svg>
