<svg xmlns="http://www.w3.org/2000/svg" width="394" height="394" fill="none" viewBox="0 0 394 394" xmlns:xlink="http://www.w3.org/1999/xlink">
  <g fill="#FEEC7B" opacity=".5">
    <g clip-path="url(#a)">
      <path d="m284.346 236.649-90.807 157.28-.041.071h11.083l79.765-138.149 56.747 98.288.122.212v-19.197l-56.747-98.293zm0 32.835-71.851 124.445-.041.071h11.083l60.809-105.319 56.747 98.288.122.212v-19.197l-56.747-98.288zm0-65.665-109.763 190.11-.041.071h11.082l98.722-170.984 56.747 98.288.122.212v-19.197l-56.747-98.288zM204.586 197h-11.083l-22.896 39.654v19.197l33.938-58.78zm-18.957 0h-11.083l-3.939 6.819v19.197l14.982-25.945zm37.913 0h-11.083l-41.852 72.484v19.197l52.894-91.61z"/>
    </g>
    <g clip-path="url(#b)">
      <path d="m142.176 305.101-62.375-108.03-.041-.071h11.087l51.329 88.899 28.432-49.25v19.202l-28.31 49.038zm0 32.83-81.331-140.86-.041-.071h11.082l70.29 121.734 28.432-49.25v19.197l-28.31 49.038zm0-65.665-43.419-75.195-.04-.071h11.082l32.377 56.069 28.432-49.25v19.197l-28.31 49.038zM90.847 394H79.765L0 255.846v-19.197l90.807 157.28zm-18.956 0H60.808L0 288.681v-19.197l71.85 124.445zm37.872-.071.041.071H98.721L0 223.016v-19.197zM52.935 394H41.852L0 321.516v-19.197l52.894 91.61.04.071Zm-18.957 0H22.895L0 354.346v-19.197l33.938 58.78zm-18.956 0H3.939L0 387.181v-19.197l14.981 25.945.04.071Z"/>
    </g>
    <g clip-path="url(#c)">
      <path d="m251.825 75.266-28.432 49.25v-19.197l28.432-49.25.122.212L333.196 197h-11.082zm0 32.835-28.432 49.25v-19.202l28.432-49.25.122.212L314.24 197h-11.087zm0 32.83-28.432 49.25v-19.197l28.432-49.25.122.212L295.283 197h-11.082zM295.279 0 394 170.984v19.197l-.122-.212L284.196 0zm18.956 0L394 138.154v19.197l-.122-.212L303.153 0zm18.957 0L394 105.319v19.197l-.122-.212L322.109 0z"/>
    </g>
  </g>
  <defs>
    <clipPath id="a">
      <path fill="#fff" d="M170.607 197h170.608v197H170.607z"/>
    </clipPath>
    <clipPath id="b">
      <path fill="#fff" d="M0 197h170.608v197H0z"/>
    </clipPath>
    <clipPath id="c">
      <path fill="#fff" d="M223.393 0h170.608v197H223.393z"/>
    </clipPath>
  </defs>
</svg>
