<svg xmlns="http://www.w3.org/2000/svg" width="815" height="678" fill="none" viewBox="0 0 815 678" xmlns:xlink="http://www.w3.org/1999/xlink">
  <g clip-path="url(#a)">
    <path fill="#000" d="M0 0h815v678H0z"/>
    <path fill="url(#b)" fill-rule="evenodd" d="M1047.84 284.371c-15.1-72.043 1.03 34.056-127.49 36.676-128.522 2.619-183.374 153.103-294.273 187.159-100.167 30.76-144.083 129.82-250.616 129.82s-111.513-26.197-179.011-26.197c-122.012 0-147.098 92.888-271.413 95.936-122.012 3.048-244.025-86.103-303.88-57.656v360.781H1027.76s44.1-611.966 20.08-726.519" clip-rule="evenodd" opacity=".6"/>
    <path stroke="url(#c)" stroke-opacity=".8" stroke-width="3" d="M1047.84 284.371c-15.1-72.043 1.03 34.056-127.49 36.676-128.522 2.619-183.374 153.103-294.273 187.159-100.167 30.76-144.083 129.82-250.616 129.82s-111.513-26.197-179.011-26.197c-122.012 0-147.098 92.888-271.413 95.936-122.012 3.048-244.025-86.103-303.88-57.656v360.781H1027.76s44.1-611.966 20.08-726.519Z" clip-rule="evenodd"/>
    <path fill="url(#d)" d="M207 334h608v677H207z"/>
    <path fill="url(#e)" d="M739.596 241h881.08v1118.6h-881.08z" transform="rotate(90 739.596 241)"/>
    <circle cx="716.892" cy="450.574" r="5.486" fill="#14C6CB" fill-opacity=".9" stroke="#E0FCFF" stroke-width="3"/>
  </g>
  <defs>
    <linearGradient id="c" x1="1041.73" x2="-344.073" y1="321.92" y2="677.321" gradientUnits="userSpaceOnUse">
      <stop stop-color="#14C6CB"/>
      <stop offset="1" stop-color="#63D0FF"/>
    </linearGradient>
    <linearGradient id="d" x1="498.46" x2="606.502" y1="595.568" y2="803.794" gradientUnits="userSpaceOnUse">
      <stop stop-opacity="0"/>
      <stop offset="1"/>
    </linearGradient>
    <linearGradient id="e" x1="1042.41" x2="1316.8" y1="311.731" y2="983.138" gradientUnits="userSpaceOnUse">
      <stop stop-opacity="0"/>
      <stop offset="1"/>
    </linearGradient>
    <radialGradient id="b" cx="0" cy="0" r="1" gradientTransform="rotate(152.798 405.07 281.79)scale(913.083 2170.8)" gradientUnits="userSpaceOnUse">
      <stop stop-color="#14C6CB" stop-opacity=".8"/>
      <stop offset="1" stop-color="#63D0FF"/>
    </radialGradient>
    <clipPath id="a">
      <path fill="#fff" d="M0 0h815v678H0z"/>
    </clipPath>
  </defs>
</svg>
