<svg xmlns="http://www.w3.org/2000/svg" xmlns:xlink="http://www.w3.org/1999/xlink" width="420.164" height="312.47" viewBox="0 0 111.168 82.674">
  <defs>
    <path id="a" fill="context-stroke" stroke="context-stroke" d="m0 0 5-5-17.5 5L5 5Z"/>
    <path id="b" d="M60.894 32.634a1.06 1.06 0 1 1 1.057-1.049 1.06 1.06 0 0 1-1.057 1.064"/>
    <path id="c" d="M62.957 32.064a.49.49 0 1 1 .49-.479.49.49 0 0 1-.49.49m1.788.448a.452.452 0 1 1-.903-.038.452.452 0 0 1 .903.038m-.345-1.259a.49.49 0 1 1 .383-.59.5.5 0 0 1 0 .192.47.47 0 0 1-.383.383m1.739 1.221a.488.488 0 1 1-.961-.168.48.48 0 0 1 .566-.383.49.49 0 0 1 .406.52.2.2 0 0 0 0 .047m-.406-1.245a.486.486 0 1 1 .383-.559 1 1 0 0 1 0 .127.486.486 0 0 1-.406.432m-.321 2.921a.49.49 0 1 1 .06-.2.4.4 0 0 1-.06.2m-.177-4.491a.49.49 0 1 1-.481-.853.49.49 0 0 1 .481.853"/>
    <path id="d" d="M60.914 36.5a4.915 4.915 0 1 1 2.981-8.803l-.597.766a3.93 3.93 0 1 0 0 6.243l.597.784a4.85 4.85 0 0 1-2.981 1.01"/>
    <path id="e" fill="#fff" stroke="none" d="m10 .833 2.832 5.739 6.335.925-4.584 4.465 1.082 6.306L10 15.29l-5.665 2.98 1.082-6.307L.833 7.497l6.334-.925Z"/>
    <marker id="f" orient="auto" overflow="visible" refX="0" refY="0">
      <use xlink:href="#a" fill-rule="evenodd" stroke-width="1pt" transform="rotate(180 -.6 0)scale(.2)"/>
    </marker>
    <marker id="g" orient="auto" overflow="visible" refX="0" refY="0">
      <use xlink:href="#a" fill-rule="evenodd" stroke-width="1pt" transform="rotate(180 -.6 0)scale(.2)"/>
    </marker>
  </defs>
  <g transform="translate(-92.514 -50.258)">
    <path fill="#fff" d="M86.058 47.031H210.28v89.826H86.058z" paint-order="markers stroke fill"/>
    <g transform="translate(241.776 -187.617)">
      <circle cx="-145.073" cy="290.253" r="1.205" fill="#fff" stroke="#648fff" stroke-linecap="round" stroke-width=".4"/>
      <text xml:space="preserve" x="-145.079" y="290.954" fill="#648fff" stroke-width=".081" font-family="Open Sans" font-size="1.934" style="line-height:1.25;-inkscape-font-specification:&quot;Open Sans, Normal&quot;;font-variant-ligatures:none"><tspan x="-145.079" y="290.954" font-weight="700" style="text-align:center" text-anchor="middle">2</tspan></text>
    </g>
    <text xml:space="preserve" x="99.088" y="103.588" stroke-width=".265" font-family="Open Sans" font-size="2.518" style="line-height:1.25;-inkscape-font-specification:&quot;Open Sans, Normal&quot;;font-variant-ligatures:none"><tspan x="99.088" y="103.588">followers forward to their known leader</tspan></text>
    <g transform="translate(241.776 -187.911)">
      <circle cx="-145.073" cy="293.869" r="1.205" fill="#fff" stroke="#648fff" stroke-linecap="round" stroke-width=".4"/>
      <text xml:space="preserve" x="-145.079" y="294.57" fill="#648fff" stroke-width=".081" font-family="Open Sans" font-size="1.934" style="line-height:1.25;-inkscape-font-specification:&quot;Open Sans, Normal&quot;;font-variant-ligatures:none"><tspan x="-145.079" y="294.57" font-weight="700" style="text-align:center" text-anchor="middle">3</tspan></text>
    </g>
    <text xml:space="preserve" x="98.979" y="106.909" stroke-width=".105" font-family="Open Sans" font-size="2.518" style="line-height:1.25;-inkscape-font-specification:&quot;Open Sans, Normal&quot;;font-variant-ligatures:none"><tspan x="98.979" y="106.909">leader asks followers if it&apos;s still the leader</tspan></text>
    <g transform="translate(241.776 -188.258)">
      <circle cx="-145.073" cy="297.542" r="1.205" fill="#fff" stroke="#648fff" stroke-linecap="round" stroke-width=".4"/>
      <text xml:space="preserve" x="-145.079" y="298.243" fill="#648fff" stroke-width=".081" font-family="Open Sans" font-size="1.934" style="line-height:1.25;-inkscape-font-specification:&quot;Open Sans, Normal&quot;;font-variant-ligatures:none"><tspan x="-145.079" y="298.243" font-weight="700" style="text-align:center" text-anchor="middle">4</tspan></text>
    </g>
    <text xml:space="preserve" x="99.085" y="110.143" stroke-width=".265" font-family="Open Sans" font-size="2.518" style="line-height:1.25;-inkscape-font-specification:&quot;Open Sans, Normal&quot;;font-variant-ligatures:none"><tspan x="99.085" y="110.143">followers respond to leader</tspan></text>
    <g transform="translate(18.81 -7.302)">
      <rect width="10.27" height="10.02" x="114.986" y="80.485" fill="#ca2171" fill-rule="evenodd" rx=".313" ry=".313"/>
      <g fill="#fff" stroke-width=".447" transform="translate(99.744 73.58)scale(.28562)">
        <use xlink:href="#b" fill-rule="evenodd" clip-rule="evenodd" opacity=".7"/>
        <use xlink:href="#c" fill-rule="evenodd" clip-rule="evenodd"/>
        <use xlink:href="#d"/>
      </g>
      <use xlink:href="#e" fill="none" fill-rule="evenodd" clip-rule="evenodd" transform="translate(118.375 83.827)scale(.17463)"/>
      <text xml:space="preserve" x="116.902" y="89.201" fill="#fff" stroke-width=".073" font-family="Open Sans" font-size="1.743" style="line-height:1.25;-inkscape-font-specification:&quot;Open Sans, Normal&quot;;font-variant-ligatures:none"><tspan x="116.902" y="89.201">LEADER</tspan></text>
    </g>
    <path fill="none" stroke="#648fff" stroke-width=".4" d="M105.263 78.17h28.586m.001-.38-3.042.002-4.284-7.145h-2.01m9.335 7.921h-3.046l-4.284 7.145h-2.01"/>
    <path fill="none" stroke="#648fff" stroke-width=".4" marker-end="url(#f)" d="M124.695 64.902h2.02l5.31 9.197h1.407"/>
    <g transform="translate(-9.334 -82.446)">
      <circle cx="138.237" cy="156.813" r="1.205" fill="#fff" stroke="#648fff" stroke-linecap="round" stroke-width=".4"/>
      <text xml:space="preserve" x="138.231" y="157.513" fill="#648fff" stroke-width=".081" font-family="Open Sans" font-size="1.934" style="line-height:1.25;-inkscape-font-specification:&quot;Open Sans, Normal&quot;;font-variant-ligatures:none"><tspan x="138.231" y="157.513" font-weight="700" style="text-align:center" text-anchor="middle">2</tspan></text>
    </g>
    <path fill="none" stroke="#648fff" stroke-width=".4" marker-end="url(#g)" d="M124.743 91.682h2.02l5.31-9.198h1.407"/>
    <g transform="translate(-9.334 -74.971)">
      <circle cx="138.237" cy="156.813" r="1.205" fill="#fff" stroke="#648fff" stroke-linecap="round" stroke-width=".4"/>
      <text xml:space="preserve" x="138.231" y="157.513" fill="#648fff" stroke-width=".081" font-family="Open Sans" font-size="1.934" style="line-height:1.25;-inkscape-font-specification:&quot;Open Sans, Normal&quot;;font-variant-ligatures:none"><tspan x="138.231" y="157.513" font-weight="700" style="text-align:center" text-anchor="middle">2</tspan></text>
    </g>
    <circle cx="119.849" cy="78.119" r="1.205" fill="#fff" stroke="#648fff" stroke-linecap="round" stroke-width=".4"/>
    <text xml:space="preserve" x="119.843" y="78.82" fill="#648fff" stroke-width=".081" font-family="Open Sans" font-size="1.934" style="line-height:1.25;-inkscape-font-specification:&quot;Open Sans, Normal&quot;;font-variant-ligatures:none"><tspan x="119.843" y="78.82" font-weight="700" style="text-align:center" text-anchor="middle">1</tspan></text>
    <g transform="translate(-22.438 -20.646)">
      <rect width="10.27" height="10.02" x="136.948" y="82.453" fill="#ca2171" fill-rule="evenodd" rx=".313" ry=".313"/>
      <g fill="#fff" stroke-width=".447" transform="translate(121.707 75.547)scale(.28562)">
        <use xlink:href="#b" fill-rule="evenodd" clip-rule="evenodd" opacity=".7"/>
        <use xlink:href="#c" fill-rule="evenodd" clip-rule="evenodd"/>
        <use xlink:href="#d"/>
      </g>
      <text xml:space="preserve" x="137.47" y="91.169" fill="#fff" stroke-width=".073" font-family="Open Sans" font-size="1.743" style="line-height:1.25;-inkscape-font-specification:&quot;Open Sans, Normal&quot;;font-variant-ligatures:none"><tspan x="137.47" y="91.169">FOLLOWER</tspan></text>
    </g>
    <g transform="translate(-22.438 2.106)">
      <rect width="10.27" height="10.02" x="136.948" y="82.453" fill="#ca2171" fill-rule="evenodd" rx=".313" ry=".313"/>
      <g fill="#fff" stroke-width=".447" transform="translate(121.707 75.547)scale(.28562)">
        <use xlink:href="#b" fill-rule="evenodd" clip-rule="evenodd" opacity=".7"/>
        <use xlink:href="#c" fill-rule="evenodd" clip-rule="evenodd"/>
        <use xlink:href="#d"/>
      </g>
      <text xml:space="preserve" x="137.47" y="91.169" fill="#fff" stroke-width=".073" font-family="Open Sans" font-size="1.743" style="line-height:1.25;-inkscape-font-specification:&quot;Open Sans, Normal&quot;;font-variant-ligatures:none"><tspan x="137.47" y="91.169">FOLLOWER</tspan></text>
    </g>
    <g transform="translate(241.776 -187.398)">
      <circle cx="-145.073" cy="286.709" r="1.205" fill="#fff" stroke="#648fff" stroke-linecap="round" stroke-width=".4"/>
      <text xml:space="preserve" x="-145.079" y="287.409" fill="#648fff" stroke-width=".081" font-family="Open Sans" font-size="1.934" style="line-height:1.25;-inkscape-font-specification:&quot;Open Sans, Normal&quot;;font-variant-ligatures:none"><tspan x="-145.079" y="287.409" font-weight="700" style="text-align:center" text-anchor="middle">1</tspan></text>
    </g>
    <text xml:space="preserve" x="98.982" y="99.965" stroke-width=".105" font-family="Open Sans" font-size="2.518" style="line-height:1.25;-inkscape-font-specification:&quot;Open Sans, Normal&quot;;font-variant-ligatures:none"><tspan x="98.982" y="99.965">client may contact any server agent</tspan></text>
    <path fill="#f0f0f0" d="M92.514 113.608h111.168v19.325H92.514z" paint-order="markers stroke fill"/>
    <g transform="translate(315.27 .83)">
      <rect width="4.654" height="4.54" x="-219.694" y="125.233" fill="#ca2171" fill-rule="evenodd" rx=".142" ry=".142"/>
      <g fill="#fff" stroke-width=".447" transform="translate(-226.6 122.104)scale(.12943)">
        <use xlink:href="#b" fill-rule="evenodd" clip-rule="evenodd" opacity=".7"/>
        <use xlink:href="#c" fill-rule="evenodd" clip-rule="evenodd"/>
        <use xlink:href="#d"/>
      </g>
      <text xml:space="preserve" x="-219.458" y="129.183" fill="#fff" stroke-width=".033" font-family="Open Sans" font-size=".79" style="line-height:1.25;-inkscape-font-specification:&quot;Open Sans, Normal&quot;;font-variant-ligatures:none"><tspan x="-219.458" y="129.183">FOLLOWER</tspan></text>
    </g>
    <text xml:space="preserve" x="101.836" y="129.271" stroke-width=".179" font-family="sans-serif" font-size="2.518" font-weight="400" style="line-height:1.25"><tspan x="101.836" y="129.271" font-family="Open Sans" style="-inkscape-font-specification:&quot;Open Sans&quot;">Consul Server: Follower</tspan></text>
    <g transform="translate(315.158 -.229)">
      <rect width="4.429" height="4.321" x="-182.885" y="119.936" fill="#fff" fill-rule="evenodd" stroke="#ca2171" stroke-width=".228" rx=".135" ry=".135"/>
      <circle cx="-181.835" cy="123.062" r=".363" fill="#ca2171"/>
    </g>
    <text xml:space="preserve" x="138.419" y="122.521" stroke-width=".179" font-family="sans-serif" font-size="2.518" font-weight="400" style="line-height:1.25"><tspan x="138.419" y="122.521" font-family="Open Sans" style="-inkscape-font-specification:&quot;Open Sans&quot;">Consul Client Agent</tspan></text>
    <path fill="none" stroke="#648fff" stroke-width=".75" d="M167.348 119.826h7.682"/>
    <path fill="none" stroke="#fe5e00" stroke-opacity=".827" stroke-width=".75" d="M167.348 121.413h7.682"/>
    <path fill="none" stroke="#ffb000" stroke-opacity=".827" stroke-width=".75" d="M167.348 123h7.682"/>
    <text xml:space="preserve" x="167.045" y="117.294" stroke-width=".265" font-family="sans-serif" font-size="2.469" font-weight="400" style="line-height:1.25"><tspan x="167.045" y="117.294" font-family="Open Sans" font-weight="700" style="-inkscape-font-specification:&quot;Open Sans Bold&quot;">Communication Paths</tspan></text>
    <text xml:space="preserve" x="95.604" y="117.201" stroke-width=".265" font-family="sans-serif" font-size="2.469" font-weight="400" style="line-height:1.25"><tspan x="95.604" y="117.201" font-family="Open Sans" font-weight="700" style="-inkscape-font-specification:&quot;Open Sans Bold&quot;">System Components</tspan></text>
    <g transform="translate(315.173 .83)">
      <rect width="4.627" height="4.514" x="-219.583" y="118.805" fill="#ca2171" fill-rule="evenodd" rx=".141" ry=".141"/>
      <g fill="#fff" stroke-width=".447" transform="translate(-226.449 115.694)scale(.12867)">
        <use xlink:href="#b" fill-rule="evenodd" clip-rule="evenodd" opacity=".7"/>
        <use xlink:href="#c" fill-rule="evenodd" clip-rule="evenodd"/>
        <use xlink:href="#d"/>
      </g>
      <use xlink:href="#e" fill="none" fill-rule="evenodd" clip-rule="evenodd" transform="translate(-218.056 120.31)scale(.07867)"/>
      <text xml:space="preserve" x="-218.719" y="122.732" fill="#fff" stroke-width=".033" font-family="Open Sans" font-size=".785" style="line-height:1.25;-inkscape-font-specification:&quot;Open Sans, Normal&quot;;font-variant-ligatures:none"><tspan x="-218.719" y="122.732">LEADER</tspan></text>
    </g>
    <text xml:space="preserve" x="101.836" y="122.83" stroke-width=".179" font-family="sans-serif" font-size="2.518" font-weight="400" style="line-height:1.25"><tspan x="101.836" y="122.83" font-family="Open Sans" style="-inkscape-font-specification:&quot;Open Sans&quot;">Consul Server: Leader</tspan></text>
    <text xml:space="preserve" x="176.742" y="122.07" stroke-width=".179" font-family="Open Sans" font-size="2.518" font-weight="400" style="line-height:1.25;-inkscape-font-specification:&quot;Open Sans&quot;"><tspan x="176.742" y="122.07" style="-inkscape-font-specification:&quot;Open Sans&quot;">Control Plane</tspan></text>
    <text xml:space="preserve" x="94.828" y="59.445" stroke-width=".105" font-family="Open Sans" font-size="2.518" style="line-height:1.25;-inkscape-font-specification:&quot;Open Sans, Normal&quot;;font-variant-ligatures:none"><tspan x="94.828" y="59.445" font-weight="300" style="-inkscape-font-specification:&quot;Open Sans Light&quot;">PROCESS</tspan></text>
    <rect width="20.713" height="4.641" x="93.814" y="50.258" fill="#eee" paint-order="markers stroke fill" ry="0"/>
    <rect width="14.358" height="3" x="181.281" y="83.617" fill="#eee" paint-order="markers stroke fill" ry="0"/>
    <rect width="10.727" height="3" x="181.281" y="71.288" fill="#eee" paint-order="markers stroke fill" ry="0"/>
    <rect width="7.219" height="3" x="181.281" y="67.759" fill="#eee" paint-order="markers stroke fill" ry="0"/>
    <text xml:space="preserve" x="94.864" y="53.806" fill="#648fff" stroke-width=".184" font-family="Open Sans" font-size="3.528" font-weight="400" style="line-height:1.25;-inkscape-font-specification:&quot;Open Sans&quot;;font-variant-ligatures:none"><tspan x="94.864" y="53.806" font-weight="700" style="-inkscape-font-specification:&quot;Open Sans&quot;">consistent</tspan></text>
    <text xml:space="preserve" x="115.405" y="53.787" fill-opacity=".929" stroke-width=".184" font-family="Open Sans" font-size="3.528" font-weight="400" style="line-height:1.25;-inkscape-font-specification:&quot;Open Sans&quot;;font-variant-ligatures:none"><tspan x="115.405" y="53.787" font-weight="700" style="-inkscape-font-specification:&quot;Open Sans&quot;">read, any write request path</tspan></text>
    <text xml:space="preserve" x="181.776" y="85.952" fill="#648fff" stroke-width=".132" font-family="Open Sans" font-size="2.518" style="line-height:1.25;-inkscape-font-specification:&quot;Open Sans, Normal&quot;;font-variant-ligatures:none"><tspan x="181.776" y="85.952" font-weight="400" style="-inkscape-font-specification:&quot;Open Sans&quot;"><tspan font-weight="700" style="-inkscape-font-specification:&quot;Open Sans&quot;;font-variant-ligatures:none;font-variant-caps:normal;font-variant-numeric:normal;font-variant-east-asian:normal">consistent</tspan>  read;</tspan><tspan x="181.776" y="89.1" font-weight="400" style="-inkscape-font-specification:&quot;Open Sans&quot;">any write</tspan></text>
    <circle cx="160.022" cy="69.638" r="2.796" fill="#ffda86"/>
    <text xml:space="preserve" x="181.82" y="70.25" fill="#ffda86" stroke-width=".132" font-family="Open Sans" font-size="2.518" style="line-height:1.25;-inkscape-font-specification:&quot;Open Sans, Normal&quot;;font-variant-ligatures:none"><tspan x="181.82" y="70.25" font-weight="400" style="-inkscape-font-specification:&quot;Open Sans&quot;"><tspan font-weight="700">stale </tspan> read</tspan></text>
    <text xml:space="preserve" x="167.906" y="94.561" stroke-width=".144" font-family="Open Sans" font-size="2.518" style="line-height:1.25;-inkscape-font-specification:&quot;Open Sans, Normal&quot;;font-variant-ligatures:none;text-align:center" text-anchor="middle"><tspan x="167.906" y="94.561" font-weight="600" style="-inkscape-font-specification:&quot;Open Sans Semi-Bold&quot;;text-align:center">Consistency</tspan></text>
    <text xml:space="preserve" x="-78.916" y="154.85" stroke-width=".144" font-family="Open Sans" font-size="2.518" style="line-height:1.25;-inkscape-font-specification:&quot;Open Sans, Normal&quot;;font-variant-ligatures:none;text-align:center" text-anchor="middle" transform="rotate(-90)"><tspan x="-78.916" y="154.85" font-weight="600" style="-inkscape-font-specification:&quot;Open Sans Semi-Bold&quot;;text-align:center">Performance</tspan></text>
    <path fill="none" stroke="#cbcbcb" stroke-dasharray=".792 .792" stroke-width=".132" d="M168.653 66.7v23.14m11.507-5.786h-23.14m23.14-5.784h-23.14m23.14-5.785h-23.14m5.849-5.785v23.14m11.569-23.328V89.65"/>
    <rect width="23.138" height="23.138" x="157.084" y="66.7" fill="none" stroke="#000" stroke-linecap="round" stroke-width=".249" rx="0" ry="0"/>
    <text xml:space="preserve" x="176.862" y="92.693" fill="#b1b1b1" stroke-width=".11" font-family="Open Sans" font-size="2.518" style="line-height:1.25;-inkscape-font-specification:&quot;Open Sans, Normal&quot;;font-variant-ligatures:none"><tspan x="176.862" y="92.693" fill="#525252">more</tspan></text>
    <text xml:space="preserve" x="153.311" y="65.433" fill="#b1b1b1" stroke-width=".11" font-family="Open Sans" font-size="2.518" style="line-height:1.25;-inkscape-font-specification:&quot;Open Sans, Normal&quot;;font-variant-ligatures:none"><tspan x="153.311" y="65.433" fill="#525252">more</tspan></text>
    <text xml:space="preserve" x="154.523" y="92.693" fill="#b1b1b1" stroke-width=".11" font-family="Open Sans" font-size="2.518" style="line-height:1.25;-inkscape-font-specification:&quot;Open Sans, Normal&quot;;font-variant-ligatures:none"><tspan x="154.523" y="92.693" fill="#525252">less</tspan></text>
    <text xml:space="preserve" x="182.087" y="73.751" fill="#ffcdb0" stroke-width=".132" font-family="Open Sans" font-size="2.518" style="line-height:1.25;-inkscape-font-specification:&quot;Open Sans, Normal&quot;;font-variant-ligatures:none"><tspan x="182.087" y="73.751" font-weight="400" style="-inkscape-font-specification:&quot;Open Sans&quot;"><tspan font-weight="700" style="-inkscape-font-specification:&quot;Open Sans&quot;;font-variant-ligatures:none;font-variant-caps:normal;font-variant-numeric:normal;font-variant-east-asian:normal">default</tspan>  read</tspan></text>
    <text xml:space="preserve" x="152.206" y="59.445" stroke-width=".146" font-family="Open Sans" font-size="2.518" style="line-height:1.25;-inkscape-font-specification:&quot;Open Sans, Normal&quot;;font-variant-ligatures:none"><tspan x="152.206" y="59.445" font-weight="300" style="-inkscape-font-specification:&quot;Open Sans Light&quot;">TRADE-OFFS</tspan></text>
    <circle cx="177.279" cy="86.883" r="2.796" fill="#648fff"/>
    <circle cx="174.408" cy="72.529" r="2.796" fill="#ffcdb0"/>
    <text xml:space="preserve" x="166.314" y="59.238" stroke-width=".144" font-family="Open Sans" font-size="2.518" font-weight="300" style="line-height:1.25;-inkscape-font-specification:&quot;Open Sans Light&quot;;font-variant-ligatures:none"><tspan x="166.314" y="59.238" style="-inkscape-font-specification:&quot;Open Sans Light&quot;"> | performance vs consistency</tspan></text>
    <path fill="none" stroke="#648fff" stroke-width=".4" marker-end="url(#f)" d="M133.781 75.097h-2.019l-5.31-9.198h-1.56"/>
    <g transform="translate(-9.196 -83.87)">
      <circle cx="138.46" cy="153.988" r="1.829" fill="#fff" stroke="#648fff" stroke-linecap="round" stroke-width=".4"/>
      <text xml:space="preserve" x="138.438" y="154.653" fill="#648fff" stroke-width=".081" font-family="Open Sans" font-size="1.934" style="line-height:1.25;-inkscape-font-specification:&quot;Open Sans, Normal&quot;;font-variant-ligatures:none"><tspan x="138.438" y="154.653" font-weight="700" style="text-align:center" text-anchor="middle">3,4</tspan></text>
    </g>
    <path fill="none" stroke="#648fff" stroke-width=".4" marker-end="url(#f)" d="M105.263 77.784h2.019l5.31-9.198h1.838"/>
    <path fill="none" stroke="#648fff" stroke-width=".4" marker-end="url(#f)" d="M105.263 78.561h2.019l5.31 9.198h1.707"/>
    <path fill="#648fff" d="m134.891 78.19-2.417-1.441.446.859m1.971.582-2.427 1.434.446-.86"/>
    <path fill="#648fff" d="m133.85 77.86-.01.686 1.05-.355z"/>
    <circle cx="109.876" cy="72.854" r="1.205" fill="#fff" stroke="#648fff" stroke-linecap="round" stroke-width=".4"/>
    <text xml:space="preserve" x="109.87" y="73.554" fill="#648fff" stroke-width=".081" font-family="Open Sans" font-size="1.934" style="line-height:1.25;-inkscape-font-specification:&quot;Open Sans, Normal&quot;;font-variant-ligatures:none"><tspan x="109.87" y="73.554" font-weight="700" style="text-align:center" text-anchor="middle">1</tspan></text>
    <g transform="translate(75.396 -130.564)">
      <rect width="9.697" height="9.46" x="20.152" y="204.026" fill="none" stroke="#ca2171" stroke-width=".5" rx=".296" ry=".296"/>
      <circle cx="22.451" cy="210.872" r=".794" fill="#ca2171"/>
    </g>
    <circle cx="109.876" cy="82.938" r="1.205" fill="#fff" stroke="#648fff" stroke-linecap="round" stroke-width=".4"/>
    <text xml:space="preserve" x="109.87" y="83.639" fill="#648fff" stroke-width=".081" font-family="Open Sans" font-size="1.934" style="line-height:1.25;-inkscape-font-specification:&quot;Open Sans, Normal&quot;;font-variant-ligatures:none"><tspan x="109.87" y="83.639" font-weight="700" style="text-align:center" text-anchor="middle">1</tspan></text>
    <path fill="none" stroke="#648fff" stroke-width=".4" marker-end="url(#g)" d="M133.83 81.486h-2.02l-5.31 9.198h-1.626"/>
    <g transform="translate(-9.148 -67.285)">
      <circle cx="138.46" cy="153.988" r="1.829" fill="#fff" stroke="#648fff" stroke-linecap="round" stroke-width=".4"/>
      <text xml:space="preserve" x="138.438" y="154.653" fill="#648fff" stroke-width=".081" font-family="Open Sans" font-size="1.934" style="line-height:1.25;-inkscape-font-specification:&quot;Open Sans, Normal&quot;;font-variant-ligatures:none"><tspan x="138.438" y="154.653" font-weight="700" style="text-align:center" text-anchor="middle">3,4</tspan></text>
    </g>
  </g>
</svg>
