<svg xmlns="http://www.w3.org/2000/svg" xmlns:xlink="http://www.w3.org/1999/xlink" width="420.164" height="357.118" viewBox="0 0 111.168 94.488">
  <defs>
    <path id="a" fill="context-stroke" stroke="context-stroke" d="m0 0 5-5-17.5 5L5 5Z"/>
    <path id="b" d="M60.894 32.634a1.06 1.06 0 1 1 1.057-1.049 1.06 1.06 0 0 1-1.057 1.064"/>
    <path id="c" d="M62.957 32.064a.49.49 0 1 1 .49-.479.49.49 0 0 1-.49.49m1.788.448a.452.452 0 1 1-.903-.038.452.452 0 0 1 .903.038m-.345-1.259a.49.49 0 1 1 .383-.59.5.5 0 0 1 0 .192.47.47 0 0 1-.383.383m1.739 1.221a.488.488 0 1 1-.961-.168.48.48 0 0 1 .566-.383.49.49 0 0 1 .406.52.2.2 0 0 0 0 .047m-.406-1.245a.486.486 0 1 1 .383-.559 1 1 0 0 1 0 .127.486.486 0 0 1-.406.432m-.321 2.921a.49.49 0 1 1 .06-.2.4.4 0 0 1-.06.2m-.177-4.491a.49.49 0 1 1-.481-.853.49.49 0 0 1 .481.853"/>
    <path id="d" d="M60.914 36.5a4.915 4.915 0 1 1 2.981-8.803l-.597.766a3.93 3.93 0 1 0 0 6.243l.597.784a4.85 4.85 0 0 1-2.981 1.01"/>
    <path id="e" fill="#fff" stroke="none" d="m10 .833 2.832 5.739 6.335.925-4.584 4.465 1.082 6.306L10 15.29l-5.665 2.98 1.082-6.307L.833 7.497l6.334-.925Z"/>
    <path id="f" fill="none" d="m36.335-.44-8.368-4.253a3.1 3.1 0 0 0-2.79 0L16.81-.44A3.15 3.15 0 0 0 15.542.732a3.2 3.2 0 0 0-.47 1.675v10.108c-.007.595.15 1.18.456 1.689.304.508.744.92 1.268 1.185l8.368 4.252a3.1 3.1 0 0 0 2.803 0l8.368-4.252a3.15 3.15 0 0 0 1.267-1.172 3.2 3.2 0 0 0 .47-1.675V2.407a3.2 3.2 0 0 0-.47-1.675 3.15 3.15 0 0 0-1.267-1.173M26.1-2.74a.95.95 0 0 1 .92 0l7.645 3.877-2.881 1.47-8.105-4.117zm.46 8.022-8.105-4.118 2.881-1.471 8.119 4.131zm-8.829 8.276a1.05 1.05 0 0 1-.426-.396 1.07 1.07 0 0 1-.153-.567V2.888l8.369 4.239v10.388zm17.658 0-7.79 3.944V7.127l8.369-4.239v9.72a1.1 1.1 0 0 1-.174.52c-.102.154-.241.28-.405.363z"/>
    <marker id="g" orient="auto" overflow="visible" refX="0" refY="0">
      <use xlink:href="#a" fill-rule="evenodd" stroke-width="1pt" transform="rotate(180 -.6 0)scale(.2)"/>
    </marker>
    <marker id="h" orient="auto" overflow="visible" refX="0" refY="0">
      <use xlink:href="#a" fill-rule="evenodd" stroke-width="1pt" transform="rotate(180 -.6 0)scale(.2)"/>
    </marker>
    <marker id="i" orient="auto" overflow="visible" refX="0" refY="0">
      <use xlink:href="#a" fill-rule="evenodd" stroke-width="1pt" transform="rotate(180 -.6 0)scale(.2)"/>
    </marker>
  </defs>
  <g transform="translate(-32.046 -48.904)">
    <path fill="#fff" d="M25.762 45.365h126.471v109.802H25.762z" paint-order="markers stroke fill"/>
    <path fill="none" stroke="#d9d9d9" stroke-width=".4" d="M128.41 87.534h-3.046l-4.284 7.145h-2.01m9.34-7.922h-3.041l-4.284-7.145h-2.01"/>
    <g transform="translate(182.075 -288.274)">
      <circle cx="-145.83" cy="408.409" r="1.205" fill="#fff" stroke="#000" stroke-linecap="round" stroke-width=".4"/>
      <text xml:space="preserve" x="-145.829" y="409.099" stroke-width=".081" font-family="Open Sans" font-size="1.934" style="line-height:1.25;-inkscape-font-specification:&quot;Open Sans, Normal&quot;;font-variant-ligatures:none"><tspan x="-145.829" y="409.099" font-weight="700" style="text-align:center" text-anchor="middle">3</tspan></text>
    </g>
    <text xml:space="preserve" x="38.621" y="120.939" stroke-width=".105" font-family="Open Sans" font-size="2.518" style="line-height:1.25;-inkscape-font-specification:&quot;Open Sans, Normal&quot;;font-variant-ligatures:none"><tspan x="38.621" y="120.939">remote request handled the same way as a local request with that consistency mode</tspan></text>
    <circle cx="36.246" cy="113.308" r="1.205" fill="#fff" stroke="#000" stroke-linecap="round" stroke-width=".4"/>
    <text xml:space="preserve" x="36.239" y="114.008" stroke-width=".081" font-family="Open Sans" font-size="1.934" style="line-height:1.25;-inkscape-font-specification:&quot;Open Sans, Normal&quot;;font-variant-ligatures:none"><tspan x="36.239" y="114.008" font-weight="700" style="text-align:center" text-anchor="middle">1</tspan></text>
    <g transform="translate(182.075 -288.292)">
      <circle cx="-145.83" cy="405.002" r="1.205" fill="#fff" stroke="#000" stroke-linecap="round" stroke-width=".4"/>
      <text xml:space="preserve" x="-145.836" y="405.702" stroke-width=".081" font-family="Open Sans" font-size="1.934" style="line-height:1.25;-inkscape-font-specification:&quot;Open Sans, Normal&quot;;font-variant-ligatures:none"><tspan x="-145.836" y="405.702" font-weight="700" style="text-align:center" text-anchor="middle">2</tspan></text>
    </g>
    <text xml:space="preserve" x="38.525" y="114.293" stroke-width=".105" font-family="Open Sans" font-size="2.518" style="line-height:1.25;-inkscape-font-specification:&quot;Open Sans, Normal&quot;;font-variant-ligatures:none"><tspan x="38.525" y="114.293">client may contact any server agent</tspan></text>
    <text xml:space="preserve" x="38.631" y="117.668" stroke-width=".265" font-family="Open Sans" font-size="2.518" style="line-height:1.25;-inkscape-font-specification:&quot;Open Sans, Normal&quot;;font-variant-ligatures:none"><tspan x="38.631" y="117.668">local servers forward to any remote server</tspan></text>
    <text xml:space="preserve" x="-146.933" y="247.089" stroke-width=".105" font-family="Open Sans" font-size="2.518" style="line-height:1.25;-inkscape-font-specification:&quot;Open Sans, Normal&quot;;font-variant-ligatures:none" transform="translate(181.89 -189.398)"><tspan x="-146.933" y="247.089" font-weight="300" style="-inkscape-font-specification:&quot;Open Sans Light&quot;">PROCESS</tspan></text>
    <text xml:space="preserve" x="-146.884" y="241.482" stroke-width=".191" font-family="Open Sans" font-size="3.528" style="line-height:1.25;-inkscape-font-specification:&quot;Open Sans, Normal&quot;;font-variant-ligatures:none" transform="translate(181.89 -189.398)"><tspan x="-146.884" y="241.482" font-weight="700">Cross-datacenter request path</tspan></text>
    <g transform="translate(-79.974 11.246)">
      <rect width="10.27" height="10.02" x="136.948" y="82.453" fill="#ca2171" fill-rule="evenodd" rx=".313" ry=".313"/>
      <g fill="#fff" stroke-width=".447" transform="translate(121.707 75.547)scale(.28562)">
        <use xlink:href="#b" fill-rule="evenodd" clip-rule="evenodd" opacity=".7"/>
        <use xlink:href="#c" fill-rule="evenodd" clip-rule="evenodd"/>
        <use xlink:href="#d"/>
      </g>
      <text xml:space="preserve" x="137.47" y="91.169" fill="#fff" stroke-width=".073" font-family="Open Sans" font-size="1.743" style="line-height:1.25;-inkscape-font-specification:&quot;Open Sans, Normal&quot;;font-variant-ligatures:none"><tspan x="137.47" y="91.169">FOLLOWER</tspan></text>
    </g>
    <g transform="translate(-79.974 -11.507)">
      <rect width="10.27" height="10.02" x="136.948" y="82.453" fill="#ca2171" fill-rule="evenodd" rx=".313" ry=".313"/>
      <g fill="#fff" stroke-width=".447" transform="translate(121.707 75.547)scale(.28562)">
        <use xlink:href="#b" fill-rule="evenodd" clip-rule="evenodd" opacity=".7"/>
        <use xlink:href="#c" fill-rule="evenodd" clip-rule="evenodd"/>
        <use xlink:href="#d"/>
      </g>
      <text xml:space="preserve" x="137.47" y="91.169" fill="#fff" stroke-width=".073" font-family="Open Sans" font-size="1.743" style="line-height:1.25;-inkscape-font-specification:&quot;Open Sans, Normal&quot;;font-variant-ligatures:none"><tspan x="137.47" y="91.169">FOLLOWER</tspan></text>
    </g>
    <g transform="translate(-47.457 1.837)">
      <rect width="10.27" height="10.02" x="114.986" y="80.485" fill="#ca2171" fill-rule="evenodd" rx=".313" ry=".313"/>
      <g fill="#fff" stroke-width=".447" transform="translate(99.744 73.58)scale(.28562)">
        <use xlink:href="#b" fill-rule="evenodd" clip-rule="evenodd" opacity=".7"/>
        <use xlink:href="#c" fill-rule="evenodd" clip-rule="evenodd"/>
        <use xlink:href="#d"/>
      </g>
      <use xlink:href="#e" fill="none" fill-rule="evenodd" clip-rule="evenodd" transform="translate(118.375 83.827)scale(.17463)"/>
      <text xml:space="preserve" x="116.902" y="89.201" fill="#fff" stroke-width=".073" font-family="Open Sans" font-size="1.743" style="line-height:1.25;-inkscape-font-specification:&quot;Open Sans, Normal&quot;;font-variant-ligatures:none"><tspan x="116.902" y="89.201">LEADER</tspan></text>
    </g>
    <rect width="53.425" height="46.004" x="35.499" y="62.009" fill="none" stroke="#d2d4db" stroke-linecap="round" stroke-width=".575" paint-order="markers stroke fill" rx=".339" ry=".564"/>
    <text xml:space="preserve" x="235.834" y="947.221" fill="#b6b8c2" stroke-width=".08" font-family="Open Sans" font-size="4.251" font-weight="400" style="line-height:1.25;-inkscape-font-specification:&quot;Open Sans&quot;" transform="translate(-120.537 -588.018)scale(.69136)"><tspan x="235.834" y="947.221" font-weight="700" style="-inkscape-font-specification:&quot;Open Sans Bold&quot;">DC1</tspan></text>
    <use xlink:href="#f" transform="translate(35.609 64.678)scale(.16186)"/>
    <text xml:space="preserve" x="49.401" y="66.488" fill="#b6b8c2" stroke-width=".053" font-family="sans-serif" font-size="2.113" style="line-height:1.25" word-spacing="0"><tspan x="49.401" y="66.488">| ON PREMISES</tspan></text>
    <rect width="44.201" height="46.004" x="96.874" y="62.009" fill="none" stroke="#d2d4db" stroke-linecap="round" stroke-width=".575" paint-order="markers stroke fill" rx=".339" ry=".564"/>
    <text xml:space="preserve" x="235.834" y="947.221" fill="#b6b8c2" stroke-width=".08" font-family="Open Sans" font-size="4.251" font-weight="400" style="line-height:1.25;-inkscape-font-specification:&quot;Open Sans&quot;" transform="translate(-59.197 -588.018)scale(.69136)"><tspan x="235.834" y="947.221" font-weight="700" style="-inkscape-font-specification:&quot;Open Sans Bold&quot;">DC2</tspan></text>
    <use xlink:href="#f" transform="translate(96.949 64.678)scale(.16186)"/>
    <text xml:space="preserve" x="110.741" y="66.488" fill="#b6b8c2" stroke-width=".053" font-family="sans-serif" font-size="2.113" style="line-height:1.25" word-spacing="0"><tspan x="110.741" y="66.488">| CLOUD EU-CENTRAL-1</tspan></text>
    <path fill="none" stroke="#000" stroke-width=".4" d="M102.574 86.762H84.837l-5.726-8.968h-11.87m32.577 9.746H84.883L79.6 96.983H67.241"/>
    <g transform="translate(-67.403 -150.232)">
      <circle cx="141.921" cy="227.869" r="1.205" fill="#fff" stroke="#000" stroke-linecap="round" stroke-width=".4"/>
      <text xml:space="preserve" x="141.915" y="228.569" stroke-width=".081" font-family="Open Sans" font-size="1.934" style="line-height:1.25;-inkscape-font-specification:&quot;Open Sans, Normal&quot;;font-variant-ligatures:none"><tspan x="141.915" y="228.569" font-weight="700" style="text-align:center" text-anchor="middle">2</tspan></text>
    </g>
    <g transform="translate(-67.308 -130.986)">
      <circle cx="141.921" cy="227.869" r="1.205" fill="#fff" stroke="#000" stroke-linecap="round" stroke-width=".4"/>
      <text xml:space="preserve" x="141.915" y="228.569" stroke-width=".081" font-family="Open Sans" font-size="1.934" style="line-height:1.25;-inkscape-font-specification:&quot;Open Sans, Normal&quot;;font-variant-ligatures:none"><tspan x="141.915" y="228.569" font-weight="700" style="text-align:center" text-anchor="middle">2</tspan></text>
    </g>
    <g transform="translate(13.38 1.837)">
      <rect width="10.27" height="10.02" x="114.986" y="80.485" fill="#ca2171" fill-rule="evenodd" rx=".313" ry=".313"/>
      <g fill="#fff" stroke-width=".447" transform="translate(99.744 73.58)scale(.28562)">
        <use xlink:href="#b" fill-rule="evenodd" clip-rule="evenodd" opacity=".7"/>
        <use xlink:href="#c" fill-rule="evenodd" clip-rule="evenodd"/>
        <use xlink:href="#d"/>
      </g>
      <use xlink:href="#e" fill="none" fill-rule="evenodd" clip-rule="evenodd" transform="translate(118.375 83.827)scale(.17463)"/>
      <text xml:space="preserve" x="116.902" y="89.201" fill="#fff" stroke-width=".073" font-family="Open Sans" font-size="1.743" style="line-height:1.25;-inkscape-font-specification:&quot;Open Sans, Normal&quot;;font-variant-ligatures:none"><tspan x="116.902" y="89.201">LEADER</tspan></text>
    </g>
    <path fill="#f0f0f0" d="M32.046 124.671h111.168v18.721H32.046z" paint-order="markers stroke fill"/>
    <g transform="translate(254.802 11.892)">
      <rect width="4.654" height="4.54" x="-219.694" y="125.233" fill="#ca2171" fill-rule="evenodd" rx=".142" ry=".142"/>
      <g fill="#fff" stroke-width=".447" transform="translate(-226.6 122.104)scale(.12943)">
        <use xlink:href="#b" fill-rule="evenodd" clip-rule="evenodd" opacity=".7"/>
        <use xlink:href="#c" fill-rule="evenodd" clip-rule="evenodd"/>
        <use xlink:href="#d"/>
      </g>
      <text xml:space="preserve" x="-219.458" y="129.183" fill="#fff" stroke-width=".033" font-family="Open Sans" font-size=".79" style="line-height:1.25;-inkscape-font-specification:&quot;Open Sans, Normal&quot;;font-variant-ligatures:none"><tspan x="-219.458" y="129.183">FOLLOWER</tspan></text>
    </g>
    <text xml:space="preserve" x="41.368" y="140.333" stroke-width=".179" font-family="sans-serif" font-size="2.518" font-weight="400" style="line-height:1.25"><tspan x="41.368" y="140.333" font-family="Open Sans" style="-inkscape-font-specification:&quot;Open Sans&quot;">Consul Server: Follower</tspan></text>
    <g transform="translate(254.69 10.834)">
      <rect width="4.429" height="4.321" x="-182.885" y="119.936" fill="#fff" fill-rule="evenodd" stroke="#ca2171" stroke-width=".228" rx=".135" ry=".135"/>
      <circle cx="-181.835" cy="123.062" r=".363" fill="#ca2171"/>
    </g>
    <text xml:space="preserve" x="77.951" y="133.583" stroke-width=".179" font-family="sans-serif" font-size="2.518" font-weight="400" style="line-height:1.25"><tspan x="77.951" y="133.583" font-family="Open Sans" style="-inkscape-font-specification:&quot;Open Sans&quot;">Consul Client Agent</tspan></text>
    <path fill="#f0f0f0" stroke="#000" stroke-opacity=".827" stroke-width=".75" d="M106.88 132.382h7.682"/>
    <text xml:space="preserve" x="106.577" y="128.356" stroke-width=".265" font-family="sans-serif" font-size="2.469" font-weight="400" style="line-height:1.25"><tspan x="106.577" y="128.356" font-family="Open Sans" font-weight="700" style="-inkscape-font-specification:&quot;Open Sans Bold&quot;">Communication Paths</tspan></text>
    <text xml:space="preserve" x="35.136" y="128.263" stroke-width=".265" font-family="sans-serif" font-size="2.469" font-weight="400" style="line-height:1.25"><tspan x="35.136" y="128.263" font-family="Open Sans" font-weight="700" style="-inkscape-font-specification:&quot;Open Sans Bold&quot;">System Components</tspan></text>
    <g transform="translate(254.705 11.892)">
      <rect width="4.627" height="4.514" x="-219.583" y="118.805" fill="#ca2171" fill-rule="evenodd" rx=".141" ry=".141"/>
      <g fill="#fff" stroke-width=".447" transform="translate(-226.449 115.694)scale(.12867)">
        <use xlink:href="#b" fill-rule="evenodd" clip-rule="evenodd" opacity=".7"/>
        <use xlink:href="#c" fill-rule="evenodd" clip-rule="evenodd"/>
        <use xlink:href="#d"/>
      </g>
      <use xlink:href="#e" fill="none" fill-rule="evenodd" clip-rule="evenodd" transform="translate(-218.056 120.31)scale(.07867)"/>
      <text xml:space="preserve" x="-218.719" y="122.732" fill="#fff" stroke-width=".033" font-family="Open Sans" font-size=".785" style="line-height:1.25;-inkscape-font-specification:&quot;Open Sans, Normal&quot;;font-variant-ligatures:none"><tspan x="-218.719" y="122.732">LEADER</tspan></text>
    </g>
    <text xml:space="preserve" x="41.368" y="133.892" stroke-width=".179" font-family="sans-serif" font-size="2.518" font-weight="400" style="line-height:1.25"><tspan x="41.368" y="133.892" font-family="Open Sans" style="-inkscape-font-specification:&quot;Open Sans&quot;">Consul Server: Leader</tspan></text>
    <text xml:space="preserve" x="116.275" y="133.133" stroke-width=".179" font-family="Open Sans" font-size="2.518" font-weight="400" style="line-height:1.25;-inkscape-font-specification:&quot;Open Sans&quot;"><tspan x="116.275" y="133.133" style="-inkscape-font-specification:&quot;Open Sans&quot;">Control Plane</tspan></text>
    <path fill="none" stroke="#d9d9d9" stroke-width=".4" marker-end="url(#g)" d="M119.256 73.867h2.02l5.31 9.198h1.407"/>
    <path fill="none" stroke="#d9d9d9" stroke-width=".4" marker-end="url(#h)" d="M119.304 100.648h2.02l5.31-9.198h1.407"/>
    <g transform="translate(-27.868 -11.507)">
      <rect width="10.27" height="10.02" x="136.948" y="82.453" fill="#ca2171" fill-rule="evenodd" rx=".313" ry=".313"/>
      <g fill="#fff" stroke-width=".447" transform="translate(121.707 75.547)scale(.28562)">
        <use xlink:href="#b" fill-rule="evenodd" clip-rule="evenodd" opacity=".7"/>
        <use xlink:href="#c" fill-rule="evenodd" clip-rule="evenodd"/>
        <use xlink:href="#d"/>
      </g>
      <text xml:space="preserve" x="137.47" y="91.169" fill="#fff" stroke-width=".073" font-family="Open Sans" font-size="1.743" style="line-height:1.25;-inkscape-font-specification:&quot;Open Sans, Normal&quot;;font-variant-ligatures:none"><tspan x="137.47" y="91.169">FOLLOWER</tspan></text>
    </g>
    <path fill="none" stroke="#d9d9d9" stroke-width=".4" marker-end="url(#g)" d="M128.342 84.063h-2.02l-5.31-9.198h-1.56"/>
    <g transform="translate(-27.868 11.246)">
      <rect width="10.27" height="10.02" x="136.948" y="82.453" fill="#ca2171" fill-rule="evenodd" rx=".313" ry=".313"/>
      <g fill="#fff" stroke-width=".447" transform="translate(121.707 75.547)scale(.28562)">
        <use xlink:href="#b" fill-rule="evenodd" clip-rule="evenodd" opacity=".7"/>
        <use xlink:href="#c" fill-rule="evenodd" clip-rule="evenodd"/>
        <use xlink:href="#d"/>
      </g>
      <text xml:space="preserve" x="137.47" y="91.169" fill="#fff" stroke-width=".073" font-family="Open Sans" font-size="1.743" style="line-height:1.25;-inkscape-font-specification:&quot;Open Sans, Normal&quot;;font-variant-ligatures:none"><tspan x="137.47" y="91.169">FOLLOWER</tspan></text>
    </g>
    <path fill="none" stroke="#d9d9d9" stroke-width=".4" marker-end="url(#h)" d="M128.39 90.452h-2.02l-5.31 9.198h-1.625"/>
    <g transform="translate(188.436 -312.266)scale(1.06486)">
      <circle cx="-60.908" cy="369.599" r="1.871" fill="#fff" stroke="#d9d9d9" stroke-linecap="round" stroke-width=".621"/>
      <text xml:space="preserve" x="-60.917" y="370.687" fill="#d9d9d9" stroke-width=".125" font-family="Open Sans" font-size="3.003" style="line-height:1.25;-inkscape-font-specification:&quot;Open Sans, Normal&quot;;font-variant-ligatures:none"><tspan x="-60.917" y="370.687" font-weight="700" style="text-align:center" text-anchor="middle">3</tspan></text>
    </g>
    <g transform="translate(188.618 -312.861)scale(1.06486)">
      <circle cx="-60.954" cy="381.553" r="1.871" fill="#fff" stroke="#d9d9d9" stroke-linecap="round" stroke-width=".621"/>
      <text xml:space="preserve" x="-60.964" y="382.641" fill="#d9d9d9" stroke-width=".125" font-family="Open Sans" font-size="3.003" style="line-height:1.25;-inkscape-font-specification:&quot;Open Sans, Normal&quot;;font-variant-ligatures:none"><tspan x="-60.964" y="382.641" font-weight="700" style="text-align:center" text-anchor="middle">3</tspan></text>
    </g>
    <path fill="none" stroke="#000" stroke-width=".4" marker-end="url(#i)" d="M47.727 87.7h2.019l5.31 9.198h2.01"/>
    <path fill="none" stroke="#000" stroke-width=".4" marker-end="url(#i)" d="M47.727 86.924h2.019l5.31-9.198h2.01"/>
    <circle cx="52.364" cy="82.221" r="1.205" fill="#fff" stroke="#000" stroke-linecap="round" stroke-width=".4"/>
    <text xml:space="preserve" x="52.357" y="82.921" stroke-width=".081" font-family="Open Sans" font-size="1.934" style="line-height:1.25;-inkscape-font-specification:&quot;Open Sans, Normal&quot;;font-variant-ligatures:none"><tspan x="52.357" y="82.921" font-weight="700" style="text-align:center" text-anchor="middle">1</tspan></text>
    <circle cx="52.364" cy="92.305" r="1.205" fill="#fff" stroke="#000" stroke-linecap="round" stroke-width=".4"/>
    <text xml:space="preserve" x="52.357" y="93.005" stroke-width=".081" font-family="Open Sans" font-size="1.934" style="line-height:1.25;-inkscape-font-specification:&quot;Open Sans, Normal&quot;;font-variant-ligatures:none"><tspan x="52.357" y="93.005" font-weight="700" style="text-align:center" text-anchor="middle">1</tspan></text>
    <path fill="none" stroke="#000" stroke-width=".4" marker-end="url(#i)" d="M47.727 87.31h19.88"/>
    <g transform="translate(182.935 -398.93)">
      <circle cx="-122.715" cy="486.29" r="1.205" fill="#fff" stroke="#000" stroke-linecap="round" stroke-width=".4"/>
      <text xml:space="preserve" x="-122.722" y="486.991" stroke-width=".081" font-family="Open Sans" font-size="1.934" style="line-height:1.25;-inkscape-font-specification:&quot;Open Sans, Normal&quot;;font-variant-ligatures:none"><tspan x="-122.722" y="486.991" font-weight="700" style="text-align:center" text-anchor="middle">1</tspan></text>
    </g>
    <path fill="none" stroke="#000" stroke-width=".4" marker-end="url(#i)" d="M100.313 87.197h2.02l5.31-9.198h1.425"/>
    <path fill="none" stroke="#000" stroke-width=".4" marker-end="url(#i)" d="M99.748 87.544h2.954l5.31 9.198h1.402"/>
    <path fill="#d9d9d9" d="m129.381 87.141-2.416-1.442.446.859m1.97.583-2.426 1.433.446-.859"/>
    <path fill="#d9d9d9" d="m128.34 86.81-.01.686 1.051-.355z"/>
    <path fill="none" stroke="#000" stroke-width=".4" marker-end="url(#i)" d="M77.795 87.153h50.803"/>
    <g transform="translate(-173.622 -357.946)scale(1.95292)">
      <circle cx="141.921" cy="227.869" r="1.205" fill="#fff" stroke="#000" stroke-linecap="round" stroke-width=".4"/>
      <text xml:space="preserve" x="141.915" y="228.569" stroke-width=".081" font-family="Open Sans" font-size="1.934" style="line-height:1.25;-inkscape-font-specification:&quot;Open Sans, Normal&quot;;font-variant-ligatures:none"><tspan x="141.915" y="228.569" font-weight="700" style="text-align:center" text-anchor="middle">3</tspan></text>
    </g>
    <g transform="translate(-61.231 -140.83)">
      <circle cx="141.921" cy="227.869" r="1.205" fill="#fff" stroke="#000" stroke-linecap="round" stroke-width=".4"/>
      <text xml:space="preserve" x="141.915" y="228.569" stroke-width=".081" font-family="Open Sans" font-size="1.934" style="line-height:1.25;-inkscape-font-specification:&quot;Open Sans, Normal&quot;;font-variant-ligatures:none"><tspan x="141.915" y="228.569" font-weight="700" style="text-align:center" text-anchor="middle">2</tspan></text>
    </g>
    <g transform="translate(17.86 -121.424)">
      <rect width="9.697" height="9.46" x="20.152" y="204.026" fill="none" stroke="#ca2171" stroke-width=".5" rx=".296" ry=".296"/>
      <circle cx="22.451" cy="210.872" r=".794" fill="#ca2171"/>
    </g>
    <text xml:space="preserve" x="89.794" y="52.118" fill="#b5b8c5" stroke-width=".127" font-family="Open Sans" font-size="3.528" style="line-height:1.25;-inkscape-font-specification:&quot;Open Sans, Normal&quot;;font-variant-ligatures:none"><tspan x="89.794" y="52.118">| traditional federation</tspan></text>
  </g>
</svg>
