<svg xmlns="http://www.w3.org/2000/svg" width="400" height="200" fill="none" viewBox="0 0 400 200">
  <path fill="#F0AB32" d="M281.117 76c.007.014.014.036.028.043 1.224.307 1.854 1.237 2.411 2.252q5.634 10.305 11.278 20.612c4.04 7.37 8.08 14.742 12.111 22.12.312.572.587 1.165.905 1.809-.195.021-.318.043-.442.043-1.607.007-3.22-.058-4.82.028-1.485.079-2.368-.593-3.034-1.83-2.193-4.09-4.444-8.158-6.674-12.233-3.815-6.97-7.623-13.941-11.438-20.912-.26-.472-.55-.922-.861-1.437-.116.2-.203.336-.282.48-6.14 11.202-12.27 22.405-18.41 33.601-.21.386-.448.765-.716 1.116a3.25 3.25 0 0 1-1.824 1.208c-.072.021-.145.064-.217.1h-5.871c.087-.193.152-.393.253-.58 3.157-5.79 6.306-11.588 9.469-17.372 4.864-8.901 9.736-17.788 14.6-26.689q.09-.15.167-.3c.507-.958 1.166-1.744 2.28-2.038.355-.021.717-.021 1.087-.021m38.011 46.986c-.34-.029-.687-.086-1.028-.086-.796 0-1.411-.329-1.867-.951a11 11 0 0 1-.731-1.172c-4.286-7.85-8.579-15.693-12.871-23.543-3.49-6.378-6.979-12.755-10.468-19.14-.282-.514-.543-1.05-.81-1.572-.058-.114-.095-.236-.167-.436h1.933c1.26.007 2.519.043 3.779.014 1.07-.021 1.802.45 2.294 1.344l2.02 3.668c7.456 13.64 14.912 27.275 22.361 40.916.138.257.283.507.427.765v.1c-.26.007-.52.007-.782.014-.499.022-1.006.05-1.505.079z"/>
  <path fill="#2076CB" d="M76 106.964c.166-.072.34-.122.492-.207 1.1-.644 2.194-1.287 3.287-1.938.145-.086.29-.164.427-.243.774 1.223 1.824 2.174 2.91 3.081.297.25.68.415 1.042.558 1.593.643 3.243.786 4.93.508.941-.158 1.752-.594 2.374-1.323.739-.865.84-1.78.268-2.774a4.42 4.42 0 0 0-2.606-2.088c-.92-.278-1.86-.464-2.794-.693-1.824-.436-3.59-1.051-5.263-1.895a8.1 8.1 0 0 1-2.33-1.737c-1.253-1.373-1.73-2.995-1.514-4.811a9 9 0 0 1 .413-1.866c.832-2.431 2.635-3.854 5.046-4.626 1.165-.372 2.367-.443 3.583-.429 1.867.021 3.706.207 5.458.9 1.216.48 2.31 1.138 3.258 2.031q.74.696 1.47 1.401c.187.18.354.387.578.63q-1.954 1.575-3.844 3.088c-.948-.772-1.867-1.544-2.816-2.273-1.201-.93-2.57-1.43-4.111-1.309-1.036.079-1.977.415-2.751 1.13-.833.772-.985 1.666-.47 2.674.499.98 1.295 1.644 2.287 2.102 1.15.536 2.396.75 3.634.98.847.157 1.7.292 2.533.507a8.4 8.4 0 0 1 4.67 3.081c2.454 3.174 1.694 6.656-.572 9.03-1.035 1.086-2.331 1.78-3.765 2.216-2.685.815-5.422.944-8.15.279-3.2-.794-5.61-2.703-7.348-5.462-.094-.15-.217-.286-.326-.422zm55.262-3.582v9.115H125.6V86.489h1.31c2.136.007 4.278-.021 6.414.043 2.193.064 4.365.329 6.45 1.065.5.179.992.38 1.462.622 2.295 1.158 3.62 3.003 4.01 5.512a9.3 9.3 0 0 1-.398 4.504c-.767 2.26-2.316 3.768-4.567 4.605-1.803.672-3.663.886-5.567.815-1.13-.05-2.251-.179-3.453-.272m.029-4.24c.072.022.116.05.16.05 1.642 0 3.286.05 4.922-.02 1.288-.058 2.236-.737 2.816-1.895.383-.773.477-1.595.39-2.446-.21-2.073-1.636-3.367-3.735-3.381-1.36-.007-2.722 0-4.083 0-.159 0-.318.021-.477.028.007 2.603.007 5.134.007 7.665m-8.982 13.368h-5.14c-.666-1.78-1.325-3.56-1.998-5.37h-9.157c-.666 1.78-1.325 3.561-1.998 5.356h-4.952c2.99-8.68 5.972-17.33 8.955-25.981h5.342c2.968 8.643 5.944 17.287 8.948 25.995m-11.583-18.245h-.094c-.977 2.995-1.962 5.984-2.953 9.022h5.82c-.927-3.038-1.853-6.027-2.773-9.022m68.85 18.238h-5.132c-.666-1.788-1.332-3.575-2.006-5.377h-9.142c-.666 1.78-1.332 3.575-2.006 5.37h-4.951c2.997-8.694 5.972-17.33 8.947-25.981h5.343c2.968 8.629 5.943 17.265 8.947 25.988m-11.56-18.188c-.044 0-.08-.007-.124-.007-.977 2.98-1.969 5.962-2.931 8.958h5.805c-.92-3.017-1.838-5.984-2.75-8.951m46.127 16.708v1.48h-5.075v-25.96h5.082v9.752c.101-.086.152-.107.166-.143.768-1.43 2.042-2.109 3.59-2.338 1.738-.25 3.403.057 4.96.872a5.7 5.7 0 0 1 2.026 1.773c.949 1.345 1.492 2.846 1.752 4.447.282 1.752.348 3.518.13 5.284a8.7 8.7 0 0 1-1.05 3.203c-1.1 1.959-2.808 3.103-4.994 3.56-1.875.393-3.663.136-5.299-.886-.434-.28-.81-.658-1.288-1.044m.007-11.318v.55c0 2.224.014 4.448-.015 6.678-.007.486.188.758.572.987.84.5 1.76.73 2.736.8 1.42.1 2.425-.507 3.077-1.73.138-.257.26-.529.355-.807.42-1.209.528-2.467.398-3.725-.101-.937-.413-1.816-.977-2.588-.695-.944-1.607-1.495-2.816-1.487-1.274.014-2.295.629-3.33 1.322m33.552 12.805h-5.632c-.398-.715-.492-1.494-.593-2.338-.174.15-.312.257-.442.372-1.274 1.1-2.686 1.98-4.358 2.359-2.222.5-4.133-.114-5.733-1.68-.927-.908-1.202-2.088-1.151-3.346.036-.958.29-1.873.716-2.738.623-1.266 1.55-2.224 2.845-2.839a12.4 12.4 0 0 1 3.938-1.143c1.412-.165 2.823-.365 4.25-.544.333-.858-.037-1.909-.862-2.402-.42-.25-.883-.365-1.368-.4-1.68-.129-3.214.343-4.655 1.144-.63.35-1.209.793-1.875 1.23a939 939 0 0 1-2.352-2.91c.239-.258.449-.53.702-.758 1.31-1.223 2.874-1.974 4.59-2.453 1.961-.543 3.945-.65 5.95-.2 2.874.637 4.546 2.402 5.11 5.226.254 1.259.32 2.531.32 3.811 0 2.273.014 4.554-.008 6.828-.007.822.166 1.587.456 2.345.036.128.08.243.152.436m-6.095-9.073c-1.303.193-2.527.4-3.685.865a9.7 9.7 0 0 0-1.527.801 2.77 2.77 0 0 0-1.151 1.494c-.232.722-.015 1.323.637 1.738.47.3.991.428 1.542.493 1.513.172 2.729-.5 3.887-1.323.232-.164.304-.4.297-.686-.015-.915-.007-1.83-.007-2.745.007-.193.007-.386.007-.637m-58.339 9.059V94.109h5.806c.029.801 0 1.609.108 2.46.116-.122.232-.25.348-.372.883-.944 1.853-1.78 3.047-2.324.963-.436 1.767-.572 2.6-.429.115.336.144 4.597.028 5.205-.123-.043-.246-.078-.362-.114-.782-.236-1.542-.157-2.287.128-1.383.522-2.469 1.445-3.475 2.531v11.304zm15.549-.015V94.116h5.436v18.324c-.34.115-4.618.15-5.436.043m.022-25.959h5.415v4.29h-5.415z"/>
  <path fill="#F0AB32" d="M280.588 102.353c1.237 2.266 2.446 4.483 3.67 6.713-.065.129-.123.265-.188.393-2.252 4.047-4.51 8.086-6.74 12.147-.478.873-1.137 1.294-2.157 1.273-1.904-.036-3.815-.007-5.719-.007.05-.372 10.33-19.31 11.134-20.519"/>
</svg>
