<svg xmlns="http://www.w3.org/2000/svg" width="276" height="48" fill="none" viewBox="0 0 276 48" xmlns:xlink="http://www.w3.org/1999/xlink">
  <path fill="#00AEEF" d="M67.938 39.966h-12.03c1.556-1.432 1.982-6.587 2.547-15.893l.141-2.148c.425-5.155.567-9.306.567-12.17 0-2.434-.284-4.01-.991-4.582h13.446c3.256 0 9.625.143 9.625 6.872 0 4.582-4.105 7.302-7.926 8.305 5.378.429 9.341 3.15 9.341 8.734.142 6.014-5.52 10.882-14.72 10.882m-.425-16.896h-2.406l-.424 5.155c-.141 2.29-.283 4.152-.283 6.443 0 .286.99 1.002 3.255 1.002 4.813 0 7.927-2.434 7.927-6.443.14-4.438-3.68-6.157-8.068-6.157m.992-13.745c-.708 0-1.557 0-2.407.143-.424 2.434-.566 4.725-.707 7.445 0 0-.141 2.148-.141 2.005h.849c4.387 0 8.351-1.575 8.351-5.584.14-2.291-1.84-4.01-5.945-4.01m42.46 30.927c-2.971 0-3.254-.143-5.519-8.304l-.85-3.007c-1.415.715-3.962 1.001-7.925 1.001h-4.105l-.708 1.575c-.707 1.576-2.406 4.869-2.406 6.873 0 .43 0 .86.142 1.575h-8.21c2.265-2.29 5.38-7.875 9.484-16.752l2.406-5.155c2.123-4.725 4.529-10.023 4.529-10.738 0-.716-.142-1.29-.425-2.005h7.502s1.982 7.445 3.68 13.745l1.415 5.441c2.548 9.307 4.246 13.746 6.228 15.464-1.982.144-4.388.287-5.237.287M100.21 13.334l-5.662 12.17h9.059zm43.31 28.064c-2.547 0-3.113-.43-3.962-1.575l-9.766-13.46c-.707-1.145-1.416-1.86-2.547-1.86h-.142l-.141 2.72c-.141 3.58-.425 6.443-.425 8.59 0 2.291.284 3.723.991 4.296h-9.341c1.415-1.146 1.84-5.155 2.689-15.893l.141-2.148c.424-5.155.566-9.307.566-12.17 0-2.435-.283-4.01-.99-4.582h12.597c4.246 0 9.766.715 9.766 7.445 0 5.584-3.68 8.59-8.21 10.023.425.43 1.274 1.432 1.699 2.005l6.936 9.306c4.387 5.87 4.67 6.157 6.228 6.873-1.842.286-4.39.43-6.088.43m-12.455-31.93c-.849 0-1.84 0-2.689.143-.283 1.432-.424 4.009-.707 8.162l-.142 2.434c.425.143 1.133.143 1.557.143 4.246 0 7.219-2.72 7.219-6.587-.142-2.72-1.982-4.295-5.238-4.295m30.715 31.214c-8.918 0-14.013-7.446-14.013-15.607 0-11.455 6.228-20.475 17.976-20.475 3.68 0 5.378.716 8.492.716l-.85 8.877c-1.698-3.15-4.528-5.155-8.208-5.155-7.36 0-10.333 8.018-10.333 14.891 0 7.446 4.246 11.598 9.625 11.598 2.972 0 5.662-.716 10.049-3.866-1.84 5.44-5.945 9.02-12.738 9.02m60.578-.43c-2.972 0-3.113-.143-5.52-8.304l-.85-3.007c-1.416.715-3.963 1.001-7.925 1.001h-4.247l-.708 1.575c-1.131 2.291-2.405 5.012-2.405 6.873 0 .43.142 1.003.142 1.575H176.5c1.416-1.575 1.84-6.73 2.548-15.893l.142-2.148c.423-5.297.566-9.306.566-12.17 0-2.291-.283-3.866-.85-4.582h9.483c-1.416 1.002-1.84 6.586-2.405 15.893l-.143 2.148c-.14 3.436-.707 7.016-.707 10.309 0 1.575.566 2.005 2.264 2.005 5.804 0 7.078-.143 9.767-1.862 1.698-3.007 3.396-6.73 5.236-10.595l2.406-5.155c2.264-4.868 4.53-9.88 4.53-10.739 0-.715-.142-1.288-.425-2.004h7.501s2.974 11.311 3.68 13.745l1.416 5.441c2.548 9.307 4.106 13.746 6.37 15.464-1.982.287-4.672.43-5.52.43M211.6 13.334l-5.52 12.17h8.916zm32.27 7.875c-.707 1.432-1.84 3.15-2.406 4.581-.565 2.578-.708 6.014-.708 9.737 0 1.575.284 3.723.992 4.439h-9.343c1.7-1.575 2.266-11.169 2.266-14.319-1.274-4.295-2.974-8.59-5.52-13.745-1.7-3.15-3.54-6.157-4.814-6.73 2.125-.143 4.814-.286 6.088-.286 2.263 0 2.971.286 4.386 3.436 2.266 5.155 3.822 9.02 4.814 11.74 2.263-3.722 3.963-6.3 6.085-9.879.425-.859.992-2.004.992-3.007 0-.715-.143-1.718-.425-2.004h9.2c-1.982.43-9.907 13.174-11.607 16.037m31.14-7.875c-1.416-2.577-4.53-4.582-7.927-4.582-2.973 0-5.52 1.146-5.52 4.296 0 2.72 3.255 4.438 6.653 6.73 3.68 2.29 7.501 5.154 7.501 10.165 0 6.444-6.227 10.596-13.587 10.596-2.974 0-6.087-.573-9.625-1.861l.566-8.591c1.698 3.436 4.813 6.156 9.482 6.156 3.54 0 6.37-1.718 6.37-4.868 0-2.577-2.124-4.295-4.812-5.87-5.661-3.436-9.2-6.157-9.2-11.168 0-7.446 6.085-9.88 12.596-9.88 3.68 0 6.087.716 8.351.716z"/>
  <path fill="url(#a)" d="M41.86 10.166c-.424-1.002-1.132-2.148-2.406-3.007a9 9 0 0 0-1.981-1.145c-.567-.143-1.133-.287-1.84-.287h-.142c-.85 0-2.406.144-3.255 1.432-.424.43-.566 1.29-.424 2.005.14.573.566 1.146 1.132 1.289 0 0 .141.143.424.143 0 .143-.141.429-.141.429-.425.43-1.133 1.145-3.255 1.145h-.142c-1.132-.142-1.982-.429-3.255-1.718-.708-.859-1.133-2.434-1.133-4.868 0-1.288-.141-2.29-.424-3.15-.142-.573-.708-1.145-1.133-1.432-.424-.286-.707-.429-1.415-.715C21.62.144 20.771 0 20.064 0c-.85 0-1.416.143-1.699.573h-.849c-.424 0-.99.143-1.415.143-.85.143-1.416.573-1.982 1.002-.141.143-.708.716-.85 1.288 0 .43.142.86.142 1.003l.141.143c.284-.287.85-.43 1.557-.43.99 0 2.406.43 2.69 1.146.707 1.145.424 2.004.424 3.007-.425 2.72-1.415 4.009-3.539 4.295-.424.143-.849.143-1.132.143-1.557 0-2.69-.43-3.256-1.432v-.286s.142 0 .283-.143c.566-.287.991-.716 1.133-1.289.141-.715 0-1.432-.425-2.005-.849-.859-1.982-1.432-3.255-1.432-.85 0-1.416.144-1.982.287-1.699.43-3.255 1.861-4.387 4.152C.813 11.884.247 13.888.106 16.18s-.141 4.153 0 5.87c.141 2.864.707 4.583 1.416 6.444a29 29 0 0 0 2.547 5.154c.283.43.424.86.707 1.146l.142-.143c.141-.143.283-.287.424-.573.566-.43 1.557-1.861 1.84-2.29s.708-1.146.99-1.862l.142-.286.283.143c.283.286.425.715.425 1.145s-.142.86-.425 1.719c-.283 1.002-.85 2.147-1.415 3.293.14.143.14.43 0 .43-.425.715-.425 1.001-.425 1.288H6.9c.14 0 .707-.143 1.132-.573.424-.286 1.557-1.289 2.972-3.293 1.133-1.432 1.84-3.007 2.69-4.725l.141-.287.283.144c.141.142.283.142.424.286.142.286.142.715.142 1.145-.142 1.146-.85 2.721-1.274 3.867-.85 2.004-2.406 4.152-3.539 5.727 0 .143-.283.43-.424.43.141.142.283.286.566.428l.425.43c1.557 1.289 2.972 2.291 4.812 3.293 1.415.86 4.246 2.29 6.228 2.864 1.982-.43 4.812-2.005 6.228-2.864 1.84-1.002 3.255-2.004 4.812-3.293l.425-.43c.282-.142.424-.429.566-.429.141-.286.141-.429.141-.572l-.141-.144c-1.133-1.432-2.69-3.722-3.539-5.727-.424-1.145-1.132-2.72-1.274-3.866-.14-.43 0-.86.142-1.145l.283-.287c.141-.143.424-.143.424-.143l.142.286c.849 1.719 1.698 3.294 2.689 4.725 1.416 2.005 2.547 3.007 2.972 3.294.425.43.85.572 1.133.572h.141c.142-.142 0-.429-.425-1.145-.14-.143-.14-.287-.14-.43-.567-1.145-1.133-2.29-1.416-3.293q-.425-1.289-.425-1.718c0-.43.141-.86.425-1.146l.283-.143.141.287c.283.715.85 1.575 1.133 2.004s1.415 1.719 1.698 2.148c.283.287.425.43.425.573l.14.143c.142-.143.284-.43.567-1.002l.141-.143c.85-1.432 1.7-3.294 2.407-5.155.707-1.718 1.132-3.58 1.415-6.443.142-1.718.283-3.58 0-5.87.144-2.148-.422-4.296-1.13-5.87" transform="translate(.318 .018)"/>
  <defs>
    <radialGradient id="a" cx=".5" cy=".5" r=".5" gradientTransform="matrix(95.613 0 0 -96.7224 -46.601 56.513)" gradientUnits="userSpaceOnUse">
      <stop stop-color="#20C4F4"/>
      <stop offset=".304" stop-color="#09B4F0"/>
      <stop offset=".5" stop-color="#00AEEF"/>
      <stop offset=".8" stop-color="#0092C8"/>
      <stop offset="1" stop-color="#006E98"/>
    </radialGradient>
  </defs>
</svg>
