<svg xmlns="http://www.w3.org/2000/svg" xmlns:xlink="http://www.w3.org/1999/xlink" width="380.739" height="426.717" viewBox="0 0 100.737 112.902">
  <defs>
    <path id="a" fill="context-stroke" stroke="context-stroke" d="m0 0 5-5-17.5 5L5 5Z"/>
    <path id="b" fill="none" d="m36.335-.44-8.368-4.253a3.1 3.1 0 0 0-2.79 0L16.81-.44A3.15 3.15 0 0 0 15.542.732a3.2 3.2 0 0 0-.47 1.675v10.108c-.007.595.15 1.18.456 1.689.304.508.744.92 1.268 1.185l8.368 4.252a3.1 3.1 0 0 0 2.803 0l8.368-4.252a3.15 3.15 0 0 0 1.267-1.172 3.2 3.2 0 0 0 .47-1.675V2.407a3.2 3.2 0 0 0-.47-1.675 3.15 3.15 0 0 0-1.267-1.173M26.1-2.74a.95.95 0 0 1 .92 0l7.645 3.877-2.881 1.47-8.105-4.117zm.46 8.022-8.105-4.118 2.881-1.471 8.119 4.131zm-8.829 8.276a1.05 1.05 0 0 1-.426-.396 1.07 1.07 0 0 1-.153-.567V2.888l8.369 4.239v10.388zm17.658 0-7.79 3.944V7.127l8.369-4.239v9.72a1.1 1.1 0 0 1-.174.52c-.102.154-.241.28-.405.363z"/>
    <path id="c" d="M60.894 32.634a1.06 1.06 0 1 1 1.057-1.049 1.06 1.06 0 0 1-1.057 1.064"/>
    <path id="d" d="M62.957 32.064a.49.49 0 1 1 .49-.479.49.49 0 0 1-.49.49m1.788.448a.452.452 0 1 1-.903-.038.452.452 0 0 1 .903.038m-.345-1.259a.49.49 0 1 1 .383-.59.5.5 0 0 1 0 .192.47.47 0 0 1-.383.383m1.739 1.221a.488.488 0 1 1-.961-.168.48.48 0 0 1 .566-.383.49.49 0 0 1 .406.52.2.2 0 0 0 0 .047m-.406-1.245a.486.486 0 1 1 .383-.559 1 1 0 0 1 0 .127.486.486 0 0 1-.406.432m-.321 2.921a.49.49 0 1 1 .06-.2.4.4 0 0 1-.06.2m-.177-4.491a.49.49 0 1 1-.481-.853.49.49 0 0 1 .481.853"/>
    <path id="e" d="M60.914 36.5a4.915 4.915 0 1 1 2.981-8.803l-.597.766a3.93 3.93 0 1 0 0 6.243l.597.784a4.85 4.85 0 0 1-2.981 1.01"/>
    <path id="f" fill="none" stroke="#ca2171" d="M511.848-342.435h2.844l-1.199-1.199m-1.645 1.199h2.844l-1.199 1.2m6.614-1.2h-2.845l1.2-1.199m1.645 1.199h-2.845l1.2 1.2m-2.428-5.173v2.845l-1.199-1.2m1.199-1.645v2.845l1.2-1.2m-1.2 6.338v-2.845l1.2 1.2m-1.2 1.645v-2.845l-1.199 1.2"/>
    <marker id="g" orient="auto" overflow="visible" refX="0" refY="0">
      <use xlink:href="#a" fill-rule="evenodd" stroke-width="1pt" transform="matrix(-.4 0 0 -.4 -4 0)"/>
    </marker>
    <marker id="h" orient="auto" overflow="visible" refX="0" refY="0">
      <use xlink:href="#a" fill-rule="evenodd" stroke-width="1pt" transform="matrix(-.4 0 0 -.4 -4 0)"/>
    </marker>
  </defs>
  <g transform="translate(-74.026 -5.857)">
    <rect width="110.441" height="122.001" x="69.263" y="1.841" fill="#fff" paint-order="markers stroke fill" rx=".456" ry=".459"/>
    <text xml:space="preserve" x="235.834" y="947.221" fill="#b6b8c2" stroke-width=".08" font-family="Open Sans" font-size="4.251" font-weight="400" style="line-height:1.25;-inkscape-font-specification:&quot;Open Sans&quot;" transform="translate(-81.224 -631.1)scale(.69136)"><tspan x="235.834" y="947.221" font-weight="700" style="-inkscape-font-specification:&quot;Open Sans Bold&quot;">DC1</tspan></text>
    <use xlink:href="#b" transform="translate(74.921 21.595)scale(.16186)"/>
    <text xml:space="preserve" x="240.735" y="945.267" fill="#b6b8c2" stroke-width=".053" font-family="sans-serif" font-size="2.113" style="line-height:1.25" transform="translate(-152.021 -921.861)" word-spacing="0"><tspan x="240.735" y="945.267">| ON PREMISES</tspan></text>
    <text xml:space="preserve" x="235.834" y="947.221" fill="#b6b8c2" stroke-width=".08" font-family="Open Sans" font-size="4.251" font-weight="400" style="line-height:1.25;-inkscape-font-specification:&quot;Open Sans&quot;" transform="translate(-21.55 -631.1)scale(.69136)"><tspan x="235.834" y="947.221" font-weight="700" style="-inkscape-font-specification:&quot;Open Sans Bold&quot;">DC2</tspan></text>
    <use xlink:href="#b" transform="translate(134.595 21.595)scale(.16186)"/>
    <text xml:space="preserve" x="296.28" y="945.618" fill="#b6b8c2" stroke-width=".053" font-family="sans-serif" font-size="2.113" style="line-height:1.25" transform="translate(-147.892 -922.212)" word-spacing="0"><tspan x="296.28" y="945.618">| CLOUD US-EAST-1</tspan></text>
    <rect width="39.41" height="62.259" x="74.88" y="17.318" fill="none" stroke="#d2d4db" stroke-linecap="round" stroke-width=".574" paint-order="markers stroke fill" rx=".338" ry=".562"/>
    <rect width="39.442" height="62.456" x="134.409" y="17.303" fill="none" stroke="#d2d4db" stroke-linecap="round" stroke-width=".544" paint-order="markers stroke fill" rx=".302" ry=".564"/>
    <path fill="none" stroke="#648fff" stroke-width=".4" d="m148.564 33.823-4.907 4.004v14.864"/>
    <circle cx="143.665" cy="51.839" r=".561" fill="#648fff" paint-order="markers stroke fill"/>
    <path fill="none" stroke="#648fff" stroke-width=".4" d="m148.45 68.459-4.793-3.623V52.4"/>
    <g fill="#fff" stroke-width=".447" transform="translate(138.374 18.225)scale(.36944)">
      <use xlink:href="#c" fill-rule="evenodd" clip-rule="evenodd" opacity=".7"/>
      <use xlink:href="#d" fill-rule="evenodd" clip-rule="evenodd"/>
      <use xlink:href="#e"/>
    </g>
    <text xml:space="preserve" x="149.394" y="34.248" fill="#fff6e7" stroke-width=".044" font-family="Open Sans" font-size="1.775" font-weight="400" style="line-height:1.25;-inkscape-font-specification:&quot;Open Sans&quot;"><tspan x="149.394" y="34.248" font-weight="700" style="-inkscape-font-specification:&quot;Open Sans&quot;">8300/tcp</tspan></text>
    <g fill="#fff" stroke-width=".447" transform="translate(138.374 18.225)scale(.36944)">
      <use xlink:href="#c" fill-rule="evenodd" clip-rule="evenodd" opacity=".7"/>
      <use xlink:href="#d" fill-rule="evenodd" clip-rule="evenodd"/>
      <use xlink:href="#e"/>
    </g>
    <text xml:space="preserve" x="149.394" y="34.248" fill="#d9deff" stroke-width=".044" font-family="Open Sans" font-size="1.775" font-weight="400" style="line-height:1.25;-inkscape-font-specification:&quot;Open Sans&quot;"><tspan x="149.394" y="34.248" font-weight="700" style="-inkscape-font-specification:&quot;Open Sans&quot;">8300/tcp</tspan></text>
    <text xml:space="preserve" x="124.542" y="55.996" fill="#5d8b28" stroke-width=".057" font-family="Open Sans" font-size="1.464" font-weight="400" style="line-height:1.25;-inkscape-font-specification:&quot;Open Sans, Normal&quot;;font-variant-ligatures:normal;font-variant-caps:normal;font-variant-numeric:normal;font-variant-east-asian:normal" word-spacing="0"><tspan x="124.542" y="55.996" style="-inkscape-font-specification:&quot;Open Sans, Normal&quot;;font-variant-ligatures:normal;font-variant-caps:normal;font-variant-numeric:normal;font-variant-east-asian:normal;text-align:center" text-anchor="middle">Remote listener</tspan><tspan x="124.542" y="57.826" style="-inkscape-font-specification:&quot;Open Sans, Normal&quot;;font-variant-ligatures:normal;font-variant-caps:normal;font-variant-numeric:normal;font-variant-east-asian:normal;text-align:center" text-anchor="middle">-wan-address=ip:port</tspan></text>
    <text xml:space="preserve" x="124.608" y="61.041" fill="#8d00ff" stroke-width=".057" font-family="Open Sans" font-size="1.464" font-weight="400" style="line-height:1.25;-inkscape-font-specification:&quot;Open Sans, Normal&quot;;font-variant-ligatures:normal;font-variant-caps:normal;font-variant-numeric:normal;font-variant-east-asian:normal" word-spacing="0"><tspan x="124.608" y="61.041" style="-inkscape-font-specification:&quot;Open Sans, Normal&quot;;font-variant-ligatures:normal;font-variant-caps:normal;font-variant-numeric:normal;font-variant-east-asian:normal;text-align:center" text-anchor="middle">Local listener</tspan><tspan x="124.608" y="62.871" style="-inkscape-font-specification:&quot;Open Sans, Normal&quot;;font-variant-ligatures:normal;font-variant-caps:normal;font-variant-numeric:normal;font-variant-east-asian:normal;text-align:center" text-anchor="middle">-address=ip:port</tspan></text>
    <path fill="none" stroke="#5d8b28" stroke-dasharray=".12 .12" stroke-width=".12" d="M121.497 54.697V50.81h-.71m7.099 3.887V50.81h.71"/>
    <path fill="none" stroke="#8120ff" stroke-dasharray=".12 .12" stroke-opacity=".988" stroke-width=".12" d="M129.418 60.683h11.642V50.76h-.827"/>
    <path fill="none" stroke="#648fff" stroke-width=".4" d="m153.31 50.948-1.116.911h-8.537"/>
    <circle cx="104.133" cy="51.809" r=".561" fill="#648fff" paint-order="markers stroke fill"/>
    <path fill="none" stroke="#648fff" stroke-width=".4" d="m99.951 33.792 4.218 4.039v13.996m-10.042-1.148 1.46 1.273h8.7"/>
    <rect width="15.257" height="14.885" x="79.347" y="44.767" fill="#ca2171" fill-rule="evenodd" rx=".465" ry=".465"/>
    <g fill="#fff" stroke-width=".447" transform="translate(59.433 35.679)scale(.36944)">
      <use xlink:href="#c" fill-rule="evenodd" clip-rule="evenodd" opacity=".7"/>
      <use xlink:href="#d" fill-rule="evenodd" clip-rule="evenodd"/>
      <use xlink:href="#e"/>
    </g>
    <text xml:space="preserve" x="86.362" y="51.702" fill="#d9deff" stroke-width=".044" font-family="Open Sans" font-size="1.775" font-weight="400" style="line-height:1.25;-inkscape-font-specification:&quot;Open Sans&quot;"><tspan x="86.362" y="51.702" font-weight="700" style="-inkscape-font-specification:&quot;Open Sans&quot;">8503/tcp</tspan></text>
    <path fill="none" d="m85.646 46.284.31.629.694.101-.502.49.118.69-.62-.326-.621.327.118-.691-.502-.49.694-.101Z" clip-rule="evenodd"/>
    <text xml:space="preserve" x="87.198" y="47.82" stroke-width=".041" font-family="Open Sans" font-size="1.62" font-weight="400" style="line-height:1.25;-inkscape-font-specification:&quot;Open Sans&quot;"><tspan x="87.198" y="47.82" fill="#fff" font-weight="700" style="-inkscape-font-specification:&quot;Open Sans Bold&quot;">LEADER</tspan></text>
    <rect width="15.257" height="14.885" x="153.258" y="44.767" fill="#ca2171" fill-rule="evenodd" rx=".465" ry=".465"/>
    <g fill="#fff" stroke-width=".447" transform="translate(143.257 35.679)scale(.36944)">
      <use xlink:href="#c" fill-rule="evenodd" clip-rule="evenodd" opacity=".7"/>
      <use xlink:href="#d" fill-rule="evenodd" clip-rule="evenodd"/>
      <use xlink:href="#e"/>
    </g>
    <text xml:space="preserve" x="154.277" y="51.702" fill="#d9deff" stroke-width=".044" font-family="Open Sans" font-size="1.775" font-weight="400" style="line-height:1.25;-inkscape-font-specification:&quot;Open Sans&quot;"><tspan x="154.277" y="51.702" font-weight="700" style="-inkscape-font-specification:&quot;Open Sans&quot;">8503/tcp</tspan></text>
    <path fill="#fff" fill-rule="evenodd" d="m155.226 46.321.31.629.695.101-.503.49.119.69-.62-.326-.621.327.118-.691-.502-.49.694-.101z" clip-rule="evenodd"/>
    <text xml:space="preserve" x="156.78" y="47.857" stroke-width=".041" font-family="Open Sans" font-size="1.62" font-weight="400" style="line-height:1.25;-inkscape-font-specification:&quot;Open Sans&quot;"><tspan x="156.78" y="47.857" fill="#fff" font-weight="700" style="-inkscape-font-specification:&quot;Open Sans Bold&quot;">LEADER</tspan></text>
    <rect width="15.257" height="14.885" x="148.375" y="27.313" fill="#ca2171" fill-rule="evenodd" rx=".465" ry=".465"/>
    <g fill="#fff" stroke-width=".447" transform="translate(138.374 18.225)scale(.36944)">
      <use xlink:href="#c" fill-rule="evenodd" clip-rule="evenodd" opacity=".7"/>
      <use xlink:href="#d" fill-rule="evenodd" clip-rule="evenodd"/>
      <use xlink:href="#e"/>
    </g>
    <text xml:space="preserve" x="149.394" y="34.248" fill="#d9deff" stroke-width=".044" font-family="Open Sans" font-size="1.775" font-weight="400" style="line-height:1.25;-inkscape-font-specification:&quot;Open Sans&quot;"><tspan x="149.394" y="34.248" font-weight="700" style="-inkscape-font-specification:&quot;Open Sans&quot;">8503/tcp</tspan></text>
    <rect width="15.257" height="14.885" x="148.375" y="62.222" fill="#ca2171" fill-rule="evenodd" rx=".465" ry=".465"/>
    <g fill="#fff" stroke-width=".447" transform="translate(138.374 53.133)scale(.36944)">
      <use xlink:href="#c" fill-rule="evenodd" clip-rule="evenodd" opacity=".7"/>
      <use xlink:href="#d" fill-rule="evenodd" clip-rule="evenodd"/>
      <use xlink:href="#e"/>
    </g>
    <text xml:space="preserve" x="149.394" y="69.156" fill="#d9deff" stroke-width=".044" font-family="Open Sans" font-size="1.775" font-weight="400" style="line-height:1.25;-inkscape-font-specification:&quot;Open Sans&quot;"><tspan x="149.394" y="69.156" font-weight="700" style="-inkscape-font-specification:&quot;Open Sans&quot;">8503/tcp</tspan></text>
    <rect width="15.257" height="14.885" x="84.835" y="27.313" fill="#ca2171" fill-rule="evenodd" rx=".465" ry=".465"/>
    <g fill="#fff" stroke-width=".447" transform="translate(64.921 18.225)scale(.36944)">
      <use xlink:href="#c" fill-rule="evenodd" clip-rule="evenodd" opacity=".7"/>
      <use xlink:href="#d" fill-rule="evenodd" clip-rule="evenodd"/>
      <use xlink:href="#e"/>
    </g>
    <text xml:space="preserve" x="91.851" y="34.248" fill="#d9deff" stroke-width=".044" font-family="Open Sans" font-size="1.775" font-weight="400" style="line-height:1.25;-inkscape-font-specification:&quot;Open Sans&quot;"><tspan x="91.851" y="34.248" font-weight="700" style="-inkscape-font-specification:&quot;Open Sans&quot;">8503/tcp</tspan></text>
    <path fill="none" stroke="#8120ff" stroke-dasharray=".12 .12" stroke-opacity=".988" stroke-width=".12" d="M119.708 60.683h-11.443V50.76h.827"/>
    <path fill="none" stroke="#648fff" stroke-width=".4" d="m99.588 67.538 4.58-4.028V51.796m.001.027h39.124"/>
    <path fill="#fff" fill-opacity=".7" stroke="#ca2171" stroke-width=".522" d="M109.459 40.674h10.978v11.949h-10.978z"/>
    <g stroke-width=".5" transform="translate(-213.85 263.777)scale(.63716)">
      <rect width="10.539" height="10.539" x="510.765" y="-347.704" fill="#fff" stroke="#ca2171" rx="5.269" ry="5.269"/>
      <use xlink:href="#f" stroke-linecap="round" stroke-linejoin="round"/>
    </g>
    <text xml:space="preserve" x="263.394" y="1141.57" fill="#6d00ff" stroke-width=".044" font-family="Open Sans" font-size="1.676" font-weight="400" style="line-height:1.25;-inkscape-font-specification:&quot;Open Sans&quot;" transform="translate(-152.022 -1090.28)"><tspan x="263.394" y="1141.57" fill="#000" font-weight="700" style="-inkscape-font-specification:&quot;Open Sans&quot;">8443/tcp</tspan></text>
    <path fill="none" stroke="#5d8b28" stroke-width=".4" d="m119.874 50.167-.843.612.84.639"/>
    <path fill="none" stroke="#7c1aff" stroke-opacity=".957" stroke-width=".4" d="m110.038 50.167.844.612-.84.639"/>
    <path fill="#fff" fill-opacity=".7" stroke="#ca2171" stroke-width=".522" d="M128.923 40.674h10.978v11.949h-10.978z"/>
    <g stroke-width=".5" transform="translate(-194.386 263.777)scale(.63716)">
      <rect width="10.539" height="10.539" x="510.765" y="-347.704" fill="#fff" stroke="#ca2171" rx="5.269" ry="5.269"/>
      <use xlink:href="#f" stroke-linecap="round" stroke-linejoin="round"/>
    </g>
    <text xml:space="preserve" x="282.858" y="1060.932" fill="#6d00ff" stroke-width=".044" font-family="Open Sans" font-size="1.676" font-weight="400" style="line-height:1.25;-inkscape-font-specification:&quot;Open Sans&quot;" transform="translate(-152.021 -1009.594)"><tspan x="282.858" y="1060.932" fill="#000" font-weight="700" style="-inkscape-font-specification:&quot;Open Sans&quot;">8443/tcp</tspan></text>
    <path fill="none" stroke="#7c1aff" stroke-opacity=".957" stroke-width=".4" d="m139.34 50.198-.843.611.84.639"/>
    <path fill="none" stroke="#5d8b28" stroke-width=".4" d="m129.505 50.198.843.611-.84.639"/>
    <text xml:space="preserve" x="74.29" y="11.946" fill="#848484" stroke-width=".371" font-family="sans-serif" font-size="3.463" font-weight="400" style="line-height:1.25"><tspan x="74.29" y="11.946" fill="#000" font-family="Open Sans" font-weight="700" style="-inkscape-font-specification:&quot;Open Sans&quot;">With Mesh Gateways</tspan></text>
    <text xml:space="preserve" x="74.159" y="7.764" fill="#b6b8c2" stroke-width=".243" font-family="sans-serif" font-size="2.265" font-weight="400" style="line-height:1.25"><tspan x="74.159" y="7.764" font-family="Open Sans" font-weight="700" style="-inkscape-font-specification:&quot;Open Sans Bold&quot;">CROSS-DC CONTROL PLANE COMMUNICATION (CLUSTER PEERING)</tspan></text>
    <path d="M151.569 93.404h22.929v11.986h-22.929z" paint-order="markers stroke fill"/>
    <text xml:space="preserve" x="153.618" y="95.248" fill="#fff" stroke-width=".265" font-family="Open Sans" font-size="1.235" style="line-height:1.25;-inkscape-font-specification:&quot;Open Sans, Normal&quot;;font-variant-ligatures:none"><tspan x="153.618" y="95.248" font-family="Courier New" font-weight="700" style="-inkscape-font-specification:&quot;Courier New&quot;">consul connect envoy \</tspan><tspan x="153.618" y="96.807" font-family="Courier New" font-weight="700" style="-inkscape-font-specification:&quot;Courier New&quot;">  -gateway=mesh -register \</tspan><tspan x="153.618" y="98.366" font-family="Courier New" font-weight="700" style="-inkscape-font-specification:&quot;Courier New&quot;">  -service &quot;dc1-mesh-gw&quot; \</tspan><tspan x="153.618" y="99.926" font-family="Courier New" font-weight="700" style="-inkscape-font-specification:&quot;Courier New&quot;">  -address &quot;<tspan fill="#cfa2ff">ip1:443</tspan>&quot; \</tspan><tspan x="153.618" y="101.485" font-family="Courier New" font-weight="700" style="-inkscape-font-specification:&quot;Courier New&quot;">  -wan-address &quot;<tspan fill="#bbff7f">ip2:8443</tspan>&quot; \</tspan><tspan x="153.618" y="103.044" font-family="Courier New" font-weight="700" style="-inkscape-font-specification:&quot;Courier New&quot;">  -expose-servers \</tspan><tspan x="153.618" y="104.599" font-family="Courier New" font-weight="700" style="-inkscape-font-specification:&quot;Courier New&quot;">  -token=&lt;used by gateway&gt;</tspan></text>
    <text xml:space="preserve" x="152.487" y="95.397" fill="#ca2171" stroke-width=".057" font-family="Open Sans" font-size="1.372" style="line-height:1.25;-inkscape-font-specification:&quot;Open Sans, Normal&quot;;font-variant-ligatures:none"><tspan x="152.487" y="95.397" font-weight="700">$</tspan></text>
    <text xml:space="preserve" x="120.847" y="87.91" fill="#648fff" stroke-width=".044" font-family="Open Sans" font-size="1.775" font-weight="400" style="line-height:1.25;-inkscape-font-specification:&quot;Open Sans&quot;"><tspan x="120.847" y="87.91" font-weight="700" style="-inkscape-font-specification:&quot;Open Sans&quot;">8503/tcp</tspan></text>
    <text xml:space="preserve" x="130.477" y="87.779" stroke-width=".179" font-family="Open Sans" font-size="1.94" font-weight="400" style="line-height:1.25;-inkscape-font-specification:&quot;Open Sans, Normal&quot;;font-variant-ligatures:normal;font-variant-caps:normal;font-variant-numeric:normal;font-variant-east-asian:normal"><tspan x="130.477" y="87.779" style="-inkscape-font-specification:&quot;Open Sans, Normal&quot;;font-variant-ligatures:normal;font-variant-caps:normal;font-variant-numeric:normal;font-variant-east-asian:normal">gRPC API with TLS</tspan></text>
    <text xml:space="preserve" x="120.87" y="93.257" fill="#7c1aff" fill-opacity=".957" stroke-width=".044" font-family="Open Sans" font-size="1.775" font-weight="400" style="line-height:1.25;-inkscape-font-specification:&quot;Open Sans&quot;"><tspan x="120.87" y="93.257" font-weight="700" style="-inkscape-font-specification:&quot;Open Sans&quot;">####/tcp</tspan></text>
    <text xml:space="preserve" x="130.459" y="93.068" stroke-width=".179" font-family="Open Sans" font-size="1.94" font-weight="400" style="line-height:1.25;-inkscape-font-specification:&quot;Open Sans, Normal&quot;;font-variant-ligatures:normal;font-variant-caps:normal;font-variant-numeric:normal;font-variant-east-asian:normal"><tspan x="130.459" y="93.068" style="-inkscape-font-specification:&quot;Open Sans, Normal&quot;;font-variant-ligatures:normal;font-variant-caps:normal;font-variant-numeric:normal;font-variant-east-asian:normal">GW Local Listener</tspan></text>
    <text xml:space="preserve" x="130.555" y="95.05" fill="#7c7c7c" stroke-width=".03" font-family="Open Sans" font-size="1.208" font-weight="400" style="line-height:1.25;-inkscape-font-specification:&quot;Open Sans, Normal&quot;;font-variant-ligatures:normal;font-variant-caps:normal;font-variant-numeric:normal;font-variant-east-asian:normal"><tspan x="130.555" y="95.05" style="-inkscape-font-specification:&quot;Open Sans, Normal&quot;;font-variant-ligatures:normal;font-variant-caps:normal;font-variant-numeric:normal;font-variant-east-asian:normal">see &quot;-address&quot; config option</tspan><tspan x="130.555" y="96.559" style="-inkscape-font-specification:&quot;Open Sans, Normal&quot;;font-variant-ligatures:normal;font-variant-caps:normal;font-variant-numeric:normal;font-variant-east-asian:normal">when launching gateway</tspan></text>
    <text xml:space="preserve" x="151.431" y="92.749" fill="#7c7c7c" stroke-width=".03" font-family="Open Sans" font-size="1.208" font-weight="400" style="line-height:1.25;-inkscape-font-specification:&quot;Open Sans, Normal&quot;;font-variant-ligatures:normal;font-variant-caps:normal;font-variant-numeric:normal;font-variant-east-asian:normal"><tspan x="151.431" y="92.749" style="-inkscape-font-specification:&quot;Open Sans, Normal&quot;;font-variant-ligatures:normal;font-variant-caps:normal;font-variant-numeric:normal;font-variant-east-asian:normal">EXAMPLE GATEWAY CONFIG</tspan></text>
    <text xml:space="preserve" x="120.87" y="99.689" fill="#5d8b28" stroke-width=".044" font-family="Open Sans" font-size="1.775" font-weight="400" style="line-height:1.25;-inkscape-font-specification:&quot;Open Sans&quot;"><tspan x="120.87" y="99.689" font-weight="700" style="-inkscape-font-specification:&quot;Open Sans&quot;">####/tcp</tspan></text>
    <text xml:space="preserve" x="130.459" y="99.686" stroke-width=".179" font-family="Open Sans" font-size="1.94" font-weight="400" style="line-height:1.25;-inkscape-font-specification:&quot;Open Sans, Normal&quot;;font-variant-ligatures:normal;font-variant-caps:normal;font-variant-numeric:normal;font-variant-east-asian:normal"><tspan x="130.459" y="99.686" style="-inkscape-font-specification:&quot;Open Sans, Normal&quot;;font-variant-ligatures:normal;font-variant-caps:normal;font-variant-numeric:normal;font-variant-east-asian:normal">GW Remote Listener</tspan></text>
    <text xml:space="preserve" x="130.555" y="101.668" fill="#7c7c7c" stroke-width=".03" font-family="Open Sans" font-size="1.208" font-weight="400" style="line-height:1.25;-inkscape-font-specification:&quot;Open Sans, Normal&quot;;font-variant-ligatures:normal;font-variant-caps:normal;font-variant-numeric:normal;font-variant-east-asian:normal"><tspan x="130.555" y="101.668" style="-inkscape-font-specification:&quot;Open Sans, Normal&quot;;font-variant-ligatures:normal;font-variant-caps:normal;font-variant-numeric:normal;font-variant-east-asian:normal">see &quot;-wan-address&quot; config option</tspan><tspan x="130.555" y="103.178" style="-inkscape-font-specification:&quot;Open Sans, Normal&quot;;font-variant-ligatures:normal;font-variant-caps:normal;font-variant-numeric:normal;font-variant-east-asian:normal">when launching gateway</tspan></text>
    <text xml:space="preserve" x="88.449" y="96.144" fill="#7c7c7c" stroke-width=".03" font-family="Open Sans" font-size="1.208" font-weight="400" style="line-height:1.25;-inkscape-font-specification:&quot;Open Sans, Normal&quot;;font-variant-ligatures:normal;font-variant-caps:normal;font-variant-numeric:normal;font-variant-east-asian:normal"><tspan x="88.449" y="96.144" style="-inkscape-font-specification:&quot;Open Sans, Normal&quot;;font-variant-ligatures:normal;font-variant-caps:normal;font-variant-numeric:normal;font-variant-east-asian:normal">not shown: the Consul client agent deployed</tspan><tspan x="88.449" y="97.654" style="-inkscape-font-specification:&quot;Open Sans, Normal&quot;;font-variant-ligatures:normal;font-variant-caps:normal;font-variant-numeric:normal;font-variant-east-asian:normal">with each gateway to manage its configuration </tspan></text>
    <path fill="#fff" fill-opacity=".7" stroke="#ca2171" stroke-width=".211" d="M80.586 92.98h4.244v4.245h-4.244z"/>
    <g stroke-width=".5" transform="translate(-80.892 203.666)scale(.31703)">
      <rect width="10.539" height="10.539" x="510.765" y="-347.704" fill="#fff" stroke="#ca2171" rx="5.269" ry="5.269"/>
      <use xlink:href="#f" stroke-linecap="round" stroke-linejoin="round"/>
    </g>
    <text xml:space="preserve" x="88.273" y="94.234" stroke-width=".179" font-family="Open Sans" font-size="1.94" font-weight="400" style="line-height:1.25;-inkscape-font-specification:&quot;Open Sans, Normal&quot;;font-variant-ligatures:normal;font-variant-caps:normal;font-variant-numeric:normal;font-variant-east-asian:normal"><tspan x="88.273" y="94.234" style="-inkscape-font-specification:&quot;Open Sans, Normal&quot;;font-variant-ligatures:normal;font-variant-caps:normal;font-variant-numeric:normal;font-variant-east-asian:normal">Mesh Gateway</tspan></text>
    <text xml:space="preserve" x="358.697" y="1383.643" fill="#7c7c7c" stroke-width=".03" font-family="Open Sans" font-size="1.208" font-weight="400" style="line-height:1.25;-inkscape-font-specification:&quot;Open Sans, Normal&quot;;font-variant-ligatures:normal;font-variant-caps:normal;font-variant-numeric:normal;font-variant-east-asian:normal" transform="translate(-270.854 -1275.746)"><tspan x="358.697" y="1383.643" style="-inkscape-font-specification:&quot;Open Sans, Normal&quot;;font-variant-ligatures:normal;font-variant-caps:normal;font-variant-numeric:normal;font-variant-east-asian:normal">paths through gateways can differ for</tspan><tspan x="358.697" y="1385.153" style="-inkscape-font-specification:&quot;Open Sans, Normal&quot;;font-variant-ligatures:normal;font-variant-caps:normal;font-variant-numeric:normal;font-variant-east-asian:normal">DC1     DC2 versus DC2     DC1 because a</tspan><tspan x="358.697" y="1386.662" style="-inkscape-font-specification:&quot;Open Sans, Normal&quot;;font-variant-ligatures:normal;font-variant-caps:normal;font-variant-numeric:normal;font-variant-east-asian:normal">gateway&apos;s local listener (for internal traffic) typically</tspan><tspan x="358.697" y="1388.172" style="-inkscape-font-specification:&quot;Open Sans, Normal&quot;;font-variant-ligatures:normal;font-variant-caps:normal;font-variant-numeric:normal;font-variant-east-asian:normal">differs from its remote listener (for external traffic)</tspan></text>
    <path fill="none" stroke="#7b7b7b" stroke-width=".12" marker-end="url(#g)" d="M361.008 1384.771h1.314" transform="translate(-270.854 -1275.746)"/>
    <path fill="none" stroke="#7b7b7b" stroke-width=".12" marker-end="url(#h)" d="M371.582 1384.771h1.314" transform="translate(-270.854 -1275.746)"/>
    <path fill="none" stroke="#648fff" stroke-width=".75" d="M78.435 105.556h7.683"/>
    <text xml:space="preserve" x="87.747" y="105.978" stroke-width=".179" font-family="Open Sans" font-size="1.94" font-weight="400" style="line-height:1.25;-inkscape-font-specification:&quot;Open Sans, Normal&quot;;font-variant-ligatures:normal;font-variant-caps:normal;font-variant-numeric:normal;font-variant-east-asian:normal"><tspan x="87.747" y="105.978" style="-inkscape-font-specification:&quot;Open Sans, Normal&quot;;font-variant-ligatures:normal;font-variant-caps:normal;font-variant-numeric:normal;font-variant-east-asian:normal">Control Plane</tspan></text>
    <g transform="translate(-249.432 -839.192)scale(.97284)">
      <rect width="4.305" height="4.2" x="341.505" y="952.156" fill="#ca2171" fill-rule="evenodd" rx=".131" ry=".131"/>
      <path fill="#fff" fill-rule="evenodd" d="m342.523 954.038.103.21.232.034-.168.163.04.231-.207-.109-.207.11.04-.232-.169-.163.232-.034Z" clip-rule="evenodd"/>
      <text xml:space="preserve" x="343.041" y="954.551" stroke-width=".014" font-family="Open Sans" font-size=".541" font-weight="400" style="line-height:1.25;-inkscape-font-specification:&quot;Open Sans&quot;"><tspan x="343.041" y="954.551" fill="#fff" font-weight="700" style="-inkscape-font-specification:&quot;Open Sans Bold&quot;">LEADER</tspan></text>
      <g fill="#fff">
        <path fill-rule="evenodd" d="M344.984 953.11a.11.11 0 1 1 .11-.11.11.11 0 0 1-.11.111" clip-rule="evenodd" opacity=".7"/>
        <path fill-rule="evenodd" d="M345.199 953.05a.051.051 0 1 1 .051-.05.05.05 0 0 1-.051.051m.186.047a.047.047 0 1 1-.094-.004.047.047 0 0 1 .094.004m-.036-.131a.051.051 0 1 1 .04-.062v.02a.05.05 0 0 1-.04.04m.182.127a.05.05 0 1 1-.1-.017.05.05 0 0 1 .058-.04.05.05 0 0 1 .043.054v.005m-.043-.13a.05.05 0 1 1 .04-.058v.013a.05.05 0 0 1-.042.045m-.033.305a.051.051 0 1 1 .006-.021.04.04 0 0 1-.006.02m-.019-.467a.051.051 0 1 1-.05-.09.051.051 0 0 1 .05.09" clip-rule="evenodd"/>
        <path d="M344.986 953.512a.512.512 0 1 1 .31-.917l-.061.08a.41.41 0 1 0 0 .65l.062.082a.5.5 0 0 1-.31.105"/>
      </g>
    </g>
    <g transform="translate(83.305 75.34)scale(.13492)">
      <rect width="31.143" height="30.384" x="-36.991" y="87.118" fill="#ca2171" fill-rule="evenodd" rx=".949" ry=".949"/>
      <g fill="#fff" stroke-width=".447" transform="translate(-57.736 69.407)scale(.75411)">
        <use xlink:href="#c" fill-rule="evenodd" clip-rule="evenodd" opacity=".7"/>
        <use xlink:href="#d" fill-rule="evenodd" clip-rule="evenodd"/>
        <use xlink:href="#e"/>
      </g>
    </g>
    <text xml:space="preserve" x="88.297" y="89.949" stroke-width=".179" font-family="Open Sans" font-size="1.94" font-weight="400" style="line-height:1.25;-inkscape-font-specification:&quot;Open Sans, Normal&quot;;font-variant-ligatures:normal;font-variant-caps:normal;font-variant-numeric:normal;font-variant-east-asian:normal"><tspan x="88.297" y="89.949" style="-inkscape-font-specification:&quot;Open Sans, Normal&quot;;font-variant-ligatures:normal;font-variant-caps:normal;font-variant-numeric:normal;font-variant-east-asian:normal">Consul Server Agent</tspan></text>
    <text xml:space="preserve" x="78.2" y="84.763" stroke-width=".265" font-family="Open Sans" font-size="2.117" font-weight="700" style="line-height:1.25;-inkscape-font-specification:&quot;Open Sans, Bold&quot;;font-variant-ligatures:normal;font-variant-caps:normal;font-variant-numeric:normal;font-variant-east-asian:normal"><tspan x="78.2" y="84.763" style="-inkscape-font-specification:&quot;Open Sans, Bold&quot;;font-variant-ligatures:normal;font-variant-caps:normal;font-variant-numeric:normal;font-variant-east-asian:normal">System Components</tspan></text>
    <text xml:space="preserve" x="78.175" y="102.499" stroke-width=".265" font-family="Open Sans" font-size="2.117" font-weight="700" style="line-height:1.25;-inkscape-font-specification:&quot;Open Sans, Bold&quot;;font-variant-ligatures:normal;font-variant-caps:normal;font-variant-numeric:normal;font-variant-east-asian:normal"><tspan x="78.175" y="102.499" style="-inkscape-font-specification:&quot;Open Sans, Bold&quot;;font-variant-ligatures:normal;font-variant-caps:normal;font-variant-numeric:normal;font-variant-east-asian:normal">Communication Paths</tspan></text>
    <text xml:space="preserve" x="120.68" y="84.741" stroke-width=".265" font-family="Open Sans" font-size="2.117" font-weight="700" style="line-height:1.25;-inkscape-font-specification:&quot;Open Sans, Bold&quot;;font-variant-ligatures:normal;font-variant-caps:normal;font-variant-numeric:normal;font-variant-east-asian:normal"><tspan x="120.68" y="84.741" style="-inkscape-font-specification:&quot;Open Sans, Bold&quot;;font-variant-ligatures:normal;font-variant-caps:normal;font-variant-numeric:normal;font-variant-east-asian:normal">Ports</tspan></text>
    <text xml:space="preserve" x="74.147" y="14.423" fill="#4f4f4f" stroke-width=".037" font-family="sans-serif" font-size="1.464" font-weight="400" style="line-height:1.25" word-spacing="0"><tspan x="74.147" y="14.423" rotate="0 0 0 0 0 0 0 0 0 0 0 0 0 0 0 0 0 0 0 0 0 0 0 0 0 0 0 0 0 0 0 0 0 0 0 0 0 0 0 0 0 0 0 0 0 0 0 0 0 0 0 0 0 0 0 0 0 0 0 0 0 0 0 0 0 0 0 0 0 0 0 0 0 0 0 0 0 0 0">Requires config entry of type &quot;mesh&quot; with Peering.PeerThroughMeshGateways=true</tspan></text>
    <text xml:space="preserve" x="78.298" y="116.313" fill="#7c7c7c" stroke-width=".023" font-family="Open Sans" font-size="1.464" font-weight="400" style="line-height:1.25;-inkscape-font-specification:&quot;Open Sans, Normal&quot;;font-variant-ligatures:normal;font-variant-caps:normal;font-variant-numeric:normal;font-variant-east-asian:normal"><tspan x="78.298" y="116.313" fill="#000" style="-inkscape-font-specification:&quot;Open Sans, Normal&quot;;font-variant-ligatures:normal;font-variant-caps:normal;font-variant-numeric:normal;font-variant-east-asian:normal"><tspan font-weight="700" style="-inkscape-font-specification:&quot;Open Sans, Normal&quot;;font-variant-ligatures:normal;font-variant-caps:normal;font-variant-numeric:normal;font-variant-east-asian:normal">Not shown: </tspan>Consul client agents and their LAN Serf Gossip traffic on ports 8301/{udp,tcp} are not shown</tspan><tspan x="78.298" y="118.143" fill="#000" style="-inkscape-font-specification:&quot;Open Sans, Normal&quot;;font-variant-ligatures:normal;font-variant-caps:normal;font-variant-numeric:normal;font-variant-east-asian:normal">                       because they are not involved in cross-DC communication.</tspan></text>
    <g transform="translate(-629.32 -1272.945)">
      <rect width="15.257" height="14.885" x="713.805" y="1333.912" fill="#ca2171" fill-rule="evenodd" rx=".465" ry=".465"/>
      <g fill="#fff" stroke-width=".447" transform="translate(693.891 1324.823)scale(.36944)">
        <use xlink:href="#c" fill-rule="evenodd" clip-rule="evenodd" opacity=".7"/>
        <use xlink:href="#d" fill-rule="evenodd" clip-rule="evenodd"/>
        <use xlink:href="#e"/>
      </g>
      <text xml:space="preserve" x="720.821" y="1340.846" fill="#d9deff" stroke-width=".044" font-family="Open Sans" font-size="1.775" font-weight="400" style="line-height:1.25;-inkscape-font-specification:&quot;Open Sans&quot;"><tspan x="720.821" y="1340.846" font-weight="700" style="-inkscape-font-specification:&quot;Open Sans&quot;">8503/tcp</tspan></text>
    </g>
  </g>
</svg>
