<svg xmlns="http://www.w3.org/2000/svg" width="21.333" height="21.333" version="1.0" viewBox="0 0 16 16">
  <path d="M.006.028C.038.122 7.956 15.997 7.97 16 7.98 16 15.966.116 15.994.031 16.004.01 13.316 0 8 0 3.16 0 0 .013.006.028m7.057 3.644v.453h-.907v-.906h.907zm1.406 0v.453H7.53v-.906h.938zm1.375 0v.453h-.906v-.906h.906zM7.063 5.078v.453h-.907v-.906h.907zm1.406 0v.453H7.53v-.906h.938zm1.375 0v.453h-.906v-.906h.906zM7.063 6.453v.453h-.907V6h.907zm1.406 0v.453H7.53V6h.938zm1.406 0v.453h-.938V6h.938zM8.469 7.86v.454H7.53v-.907h.938z"/>
</svg>
