<svg xmlns="http://www.w3.org/2000/svg" width="72" height="72" fill="none" viewBox="0 0 72 72">
  <path fill="#F0FAFF" d="M0 0h72v72H0z"/>
  <path fill="#63D0FF" d="m41.073 45.192 6.888-17.544a.57.57 0 0 0-.058-.53l-.06-.06s-.058 0-.058-.058h-.354l-23.078 6.005h-.059s-.059 0-.059.059l-.058.059c-.177.059-.177.235-.177.412v.177s0 .058.059.058l.059.06 6.358 4.356.942 6.182v.412c0 .059.059.059.059.117.059 0 .059.06.118.06h.353s.059 0 .059-.06l3.885-2.649 4.24 3.297c.058.059.117.059.176.118.176.059.412 0 .53-.177.176-.176.176-.235.235-.294q0 .088 0 0m-6.653-5.534L46.49 29.06l-6.006 15.248zm-3.414-2.296-5.475-3.768L44.9 28.59zm12.128-6.535-9.714 8.477-.06.06c0 .058-.058.058-.058.117l-1.119 3.061-.706-4.415zM32.89 43.19l1.06-2.826 1.412 1.119z"/>
</svg>
