<svg xmlns="http://www.w3.org/2000/svg" width="72" height="72" fill="none" viewBox="0 0 72 72">
  <path fill="#F0FAFF" d="M0 0h72v72H0z"/>
  <path fill="#63D0FF" d="M29.64 45.715a.78.78 0 0 0-.489.19l-2.419 2.419a.66.66 0 0 0-.19.49c0 .19.082.352.19.488.136.136.3.19.49.19s.353-.081.489-.19l2.418-2.418a.66.66 0 0 0 .19-.49.78.78 0 0 0-.19-.489.78.78 0 0 0-.489-.19m20.653-24.023a1.26 1.26 0 0 0-.87-.353c-.108 0-.217.027-.326.055l-2.282.597c-3.995 1.06-7.881 3.125-11.17 5.952-.27.244-.325.68-.08.95a.67.67 0 0 0 .516.245.62.62 0 0 0 .434-.163c3.18-2.69 6.849-4.647 10.68-5.68l2.066-.543-.544 2.066c-1.386 5.217-4.538 10.136-8.832 13.832l-.027.027c-.054.027-.054.027-.082.054-.027.027-.027.027-.027.055 0 .027-.027.027-.027.054s-.027.027-.027.054-.027.055-.027.055c0 .027 0 .054-.027.054v.163l.244 5.68c.027.407-.19.815-.543 1.032l-4.647 2.935-.49-4.973a.68.68 0 0 0-.679-.625h-.054a.65.65 0 0 0-.598.734l.57 6.087a.67.67 0 0 0 .381.544c.082.054.19.081.299.081a.55.55 0 0 0 .353-.109l5.571-3.532a2.49 2.49 0 0 0 1.169-2.229l-.218-5.353.109-.082c4.32-3.831 7.5-8.886 8.94-14.212l.599-2.283a1.3 1.3 0 0 0-.354-1.169M27.086 32.155h.027l5.707.272a.685.685 0 0 0 .679-.653.76.76 0 0 0-.163-.489.67.67 0 0 0-.462-.217l-5.68-.272h-.081c-.843 0-1.685.462-2.147 1.169l-3.533 5.57c-.136.19-.136.463-.027.68a.68.68 0 0 0 .598.353c.272 0 2.5.218 5.652.544.082 0 .136.027.19.081l.218.218-5.109 5.163a.66.66 0 0 0-.19.489c0 .19.081.353.19.49.136.135.299.19.49.19.19 0 .352-.082.488-.19l5.136-5.137.816.815c.136.136.299.19.489.19s.353-.081.489-.19a.66.66 0 0 0 .19-.489.78.78 0 0 0-.19-.489l-2.011-2.01a1.76 1.76 0 0 0-1.005-.49c-1.414-.136-3.017-.299-4.185-.408l-.435-.054 2.935-4.62c.136-.299.543-.516.924-.516"/>
</svg>
