<svg xmlns="http://www.w3.org/2000/svg" width="72" height="72" fill="none" viewBox="0 0 72 72">
  <path fill="#F0FAFF" d="M0 0h72v72H0z"/>
  <path fill="#63D0FF" fill-rule="evenodd" d="M35.743 24.036a.56.56 0 0 1 .396 0l.946.355c2.359.863 4.835 1.21 7.316 1.095l.764-.059a.564.564 0 0 1 .607.563v11.584c0 2.957-1.612 5.685-4.614 7.437h-.001l-4.868 2.91a.56.56 0 0 1-.578 0l-4.867-2.909-.002-.001c-3.001-1.752-4.614-4.48-4.614-7.437V25.99a.564.564 0 0 1 .615-.562l.64.058c2.484.114 5.016-.234 7.309-1.094zm.198 1.13-.753.283c-2.455.92-5.147 1.286-7.769 1.164l-.025-.002-.038-.003v10.966c0 2.509 1.357 4.889 4.057 6.464l.005.003L36 46.779l4.586-2.74.001-.001c2.7-1.575 4.057-3.955 4.057-6.464V26.6l-.165.013h-.017c-2.625.123-5.254-.243-7.765-1.162l-.003-.001h-.001z" clip-rule="evenodd"/>
  <path fill="#63D0FF" fill-rule="evenodd" d="M31.57 36.506a.593.593 0 0 1 .843-.832l2.094 2.124 3.327-3.279 2.905-2.863a.593.593 0 0 1 .832.844l-7.076 6.974z" clip-rule="evenodd"/>
</svg>
