<svg xmlns="http://www.w3.org/2000/svg" xmlns:xlink="http://www.w3.org/1999/xlink" width="420.164" height="375.149" viewBox="0 0 111.168 99.258">
  <defs>
    <path id="a" fill="context-stroke" stroke="context-stroke" d="m0 0 5-5-17.5 5L5 5Z"/>
    <path id="b" d="M60.894 32.634a1.06 1.06 0 1 1 1.057-1.049 1.06 1.06 0 0 1-1.057 1.064"/>
    <path id="c" d="M62.957 32.064a.49.49 0 1 1 .49-.479.49.49 0 0 1-.49.49m1.788.448a.452.452 0 1 1-.903-.038.452.452 0 0 1 .903.038m-.345-1.259a.49.49 0 1 1 .383-.59.5.5 0 0 1 0 .192.47.47 0 0 1-.383.383m1.739 1.221a.488.488 0 1 1-.961-.168.48.48 0 0 1 .566-.383.49.49 0 0 1 .406.52.2.2 0 0 0 0 .047m-.406-1.245a.486.486 0 1 1 .383-.559 1 1 0 0 1 0 .127.486.486 0 0 1-.406.432m-.321 2.921a.49.49 0 1 1 .06-.2.4.4 0 0 1-.06.2m-.177-4.491a.49.49 0 1 1-.481-.853.49.49 0 0 1 .481.853"/>
    <path id="d" d="M60.914 36.5a4.915 4.915 0 1 1 2.981-8.803l-.597.766a3.93 3.93 0 1 0 0 6.243l.597.784a4.85 4.85 0 0 1-2.981 1.01"/>
    <path id="e" fill="#fff" stroke="none" d="m10 .833 2.832 5.739 6.335.925-4.584 4.465 1.082 6.306L10 15.29l-5.665 2.98 1.082-6.307L.833 7.497l6.334-.925Z"/>
    <path id="f" fill="none" d="m36.335-.44-8.368-4.253a3.1 3.1 0 0 0-2.79 0L16.81-.44A3.15 3.15 0 0 0 15.542.732a3.2 3.2 0 0 0-.47 1.675v10.108c-.007.595.15 1.18.456 1.689.304.508.744.92 1.268 1.185l8.368 4.252a3.1 3.1 0 0 0 2.803 0l8.368-4.252a3.15 3.15 0 0 0 1.267-1.172 3.2 3.2 0 0 0 .47-1.675V2.407a3.2 3.2 0 0 0-.47-1.675 3.15 3.15 0 0 0-1.267-1.173M26.1-2.74a.95.95 0 0 1 .92 0l7.645 3.877-2.881 1.47-8.105-4.117zm.46 8.022-8.105-4.118 2.881-1.471 8.119 4.131zm-8.829 8.276a1.05 1.05 0 0 1-.426-.396 1.07 1.07 0 0 1-.153-.567V2.888l8.369 4.239v10.388zm17.658 0-7.79 3.944V7.127l8.369-4.239v9.72a1.1 1.1 0 0 1-.174.52c-.102.154-.241.28-.405.363z"/>
    <path id="j" fill="#fff" stroke="#ca2171" d="M74.445 270.493h10.053v10.053H74.445z"/>
    <path id="k" fill="none" stroke="#ca2171" d="M511.848-342.435h2.844l-1.199-1.199m-1.645 1.199h2.844l-1.199 1.2m6.614-1.2h-2.845l1.2-1.199m1.645 1.199h-2.845l1.2 1.2m-2.428-5.173v2.845l-1.199-1.2m1.199-1.645v2.845l1.2-1.2m-1.2 6.338v-2.845l1.2 1.2m-1.2 1.645v-2.845l-1.199 1.2"/>
    <marker id="g" orient="auto" overflow="visible" refX="0" refY="0">
      <use xlink:href="#a" fill-rule="evenodd" stroke-width="1pt" transform="rotate(180 -.6 0)scale(.2)"/>
    </marker>
    <marker id="h" orient="auto" overflow="visible" refX="0" refY="0">
      <use xlink:href="#a" fill-rule="evenodd" stroke-width="1pt" transform="rotate(180 -.6 0)scale(.2)"/>
    </marker>
    <marker id="i" orient="auto" overflow="visible" refX="0" refY="0">
      <use xlink:href="#a" fill-rule="evenodd" stroke-width="1pt" transform="rotate(180 -.6 0)scale(.2)"/>
    </marker>
  </defs>
  <g transform="translate(-46.282 -75.8)">
    <path fill="#fff" d="M41.405 70.179h126.471v109.802H41.405z" paint-order="markers stroke fill"/>
    <path fill="none" stroke="#d9d9d9" stroke-width=".4" d="M142.646 114.43H139.6l-4.284 7.145h-2.01m9.34-7.922h-3.041l-4.284-7.145h-2.01"/>
    <g transform="translate(196.311 -261.378)">
      <circle cx="-145.83" cy="408.409" r="1.205" fill="#fff" stroke="#000" stroke-linecap="round" stroke-width=".4"/>
      <text xml:space="preserve" x="-145.829" y="409.099" stroke-width=".081" font-family="Open Sans" font-size="1.934" style="line-height:1.25;-inkscape-font-specification:&quot;Open Sans, Normal&quot;;font-variant-ligatures:none"><tspan x="-145.829" y="409.099" font-weight="700" style="text-align:center" text-anchor="middle">3</tspan></text>
    </g>
    <text xml:space="preserve" x="52.857" y="147.835" stroke-width=".105" font-family="Open Sans" font-size="2.518" style="line-height:1.25;-inkscape-font-specification:&quot;Open Sans, Normal&quot;;font-variant-ligatures:none"><tspan x="52.857" y="147.835">remote request handled the same way as a local request with that consistency mode</tspan></text>
    <circle cx="50.482" cy="140.204" r="1.205" fill="#fff" stroke="#000" stroke-linecap="round" stroke-width=".4"/>
    <text xml:space="preserve" x="50.475" y="140.904" stroke-width=".081" font-family="Open Sans" font-size="1.934" style="line-height:1.25;-inkscape-font-specification:&quot;Open Sans, Normal&quot;;font-variant-ligatures:none"><tspan x="50.475" y="140.904" font-weight="700" style="text-align:center" text-anchor="middle">1</tspan></text>
    <g transform="translate(196.311 -261.396)">
      <circle cx="-145.83" cy="405.002" r="1.205" fill="#fff" stroke="#000" stroke-linecap="round" stroke-width=".4"/>
      <text xml:space="preserve" x="-145.836" y="405.702" stroke-width=".081" font-family="Open Sans" font-size="1.934" style="line-height:1.25;-inkscape-font-specification:&quot;Open Sans, Normal&quot;;font-variant-ligatures:none"><tspan x="-145.836" y="405.702" font-weight="700" style="text-align:center" text-anchor="middle">2</tspan></text>
    </g>
    <text xml:space="preserve" x="52.761" y="141.189" stroke-width=".105" font-family="Open Sans" font-size="2.518" style="line-height:1.25;-inkscape-font-specification:&quot;Open Sans, Normal&quot;;font-variant-ligatures:none"><tspan x="52.761" y="141.189">client may contact any server agent</tspan></text>
    <text xml:space="preserve" x="52.867" y="144.564" stroke-width=".265" font-family="Open Sans" font-size="2.518" style="line-height:1.25;-inkscape-font-specification:&quot;Open Sans, Normal&quot;;font-variant-ligatures:none"><tspan x="52.867" y="144.564">local servers forward to any remote server through mesh gateways</tspan></text>
    <text xml:space="preserve" x="-146.933" y="247.089" stroke-width=".105" font-family="Open Sans" font-size="2.518" style="line-height:1.25;-inkscape-font-specification:&quot;Open Sans, Normal&quot;;font-variant-ligatures:none" transform="translate(196.126 -162.502)"><tspan x="-146.933" y="247.089" font-weight="300" style="-inkscape-font-specification:&quot;Open Sans Light&quot;">PROCESS</tspan></text>
    <text xml:space="preserve" x="-146.884" y="241.482" stroke-width=".191" font-family="Open Sans" font-size="3.528" style="line-height:1.25;-inkscape-font-specification:&quot;Open Sans, Normal&quot;;font-variant-ligatures:none" transform="translate(196.126 -162.502)"><tspan x="-146.884" y="241.482" font-weight="700">Cross-datacenter request path</tspan></text>
    <g transform="translate(-65.738 38.142)">
      <rect width="10.27" height="10.02" x="136.948" y="82.453" fill="#ca2171" fill-rule="evenodd" rx=".313" ry=".313"/>
      <g fill="#fff" stroke-width=".447" transform="translate(121.707 75.547)scale(.28562)">
        <use xlink:href="#b" fill-rule="evenodd" clip-rule="evenodd" opacity=".7"/>
        <use xlink:href="#c" fill-rule="evenodd" clip-rule="evenodd"/>
        <use xlink:href="#d"/>
      </g>
      <text xml:space="preserve" x="137.47" y="91.169" fill="#fff" stroke-width=".073" font-family="Open Sans" font-size="1.743" style="line-height:1.25;-inkscape-font-specification:&quot;Open Sans, Normal&quot;;font-variant-ligatures:none"><tspan x="137.47" y="91.169">FOLLOWER</tspan></text>
    </g>
    <g transform="translate(-65.738 15.39)">
      <rect width="10.27" height="10.02" x="136.948" y="82.453" fill="#ca2171" fill-rule="evenodd" rx=".313" ry=".313"/>
      <g fill="#fff" stroke-width=".447" transform="translate(121.707 75.547)scale(.28562)">
        <use xlink:href="#b" fill-rule="evenodd" clip-rule="evenodd" opacity=".7"/>
        <use xlink:href="#c" fill-rule="evenodd" clip-rule="evenodd"/>
        <use xlink:href="#d"/>
      </g>
      <text xml:space="preserve" x="137.47" y="91.169" fill="#fff" stroke-width=".073" font-family="Open Sans" font-size="1.743" style="line-height:1.25;-inkscape-font-specification:&quot;Open Sans, Normal&quot;;font-variant-ligatures:none"><tspan x="137.47" y="91.169">FOLLOWER</tspan></text>
    </g>
    <g transform="translate(-33.221 28.733)">
      <rect width="10.27" height="10.02" x="114.986" y="80.485" fill="#ca2171" fill-rule="evenodd" rx=".313" ry=".313"/>
      <g fill="#fff" stroke-width=".447" transform="translate(99.744 73.58)scale(.28562)">
        <use xlink:href="#b" fill-rule="evenodd" clip-rule="evenodd" opacity=".7"/>
        <use xlink:href="#c" fill-rule="evenodd" clip-rule="evenodd"/>
        <use xlink:href="#d"/>
      </g>
      <use xlink:href="#e" fill="none" fill-rule="evenodd" clip-rule="evenodd" transform="translate(118.375 83.827)scale(.17463)"/>
      <text xml:space="preserve" x="116.902" y="89.201" fill="#fff" stroke-width=".073" font-family="Open Sans" font-size="1.743" style="line-height:1.25;-inkscape-font-specification:&quot;Open Sans, Normal&quot;;font-variant-ligatures:none"><tspan x="116.902" y="89.201">LEADER</tspan></text>
    </g>
    <rect width="53.425" height="46.004" x="49.735" y="88.905" fill="none" stroke="#d2d4db" stroke-linecap="round" stroke-width=".575" paint-order="markers stroke fill" rx=".339" ry=".564"/>
    <text xml:space="preserve" x="235.834" y="947.221" fill="#b6b8c2" stroke-width=".08" font-family="Open Sans" font-size="4.251" font-weight="400" style="line-height:1.25;-inkscape-font-specification:&quot;Open Sans&quot;" transform="translate(-106.3 -561.122)scale(.69136)"><tspan x="235.834" y="947.221" font-weight="700" style="-inkscape-font-specification:&quot;Open Sans Bold&quot;">DC1</tspan></text>
    <use xlink:href="#f" transform="translate(49.845 91.574)scale(.16186)"/>
    <text xml:space="preserve" x="63.637" y="93.384" fill="#b6b8c2" stroke-width=".053" font-family="sans-serif" font-size="2.113" style="line-height:1.25" word-spacing="0"><tspan x="63.637" y="93.384">| ON PREMISES</tspan></text>
    <rect width="44.201" height="46.004" x="111.11" y="88.905" fill="none" stroke="#d2d4db" stroke-linecap="round" stroke-width=".575" paint-order="markers stroke fill" rx=".339" ry=".564"/>
    <text xml:space="preserve" x="235.834" y="947.221" fill="#b6b8c2" stroke-width=".08" font-family="Open Sans" font-size="4.251" font-weight="400" style="line-height:1.25;-inkscape-font-specification:&quot;Open Sans&quot;" transform="translate(-44.961 -561.122)scale(.69136)"><tspan x="235.834" y="947.221" font-weight="700" style="-inkscape-font-specification:&quot;Open Sans Bold&quot;">DC2</tspan></text>
    <use xlink:href="#f" transform="translate(111.185 91.574)scale(.16186)"/>
    <text xml:space="preserve" x="124.977" y="93.384" fill="#b6b8c2" stroke-width=".053" font-family="sans-serif" font-size="2.113" style="line-height:1.25" word-spacing="0"><tspan x="124.977" y="93.384">| CLOUD EU-CENTRAL-1</tspan></text>
    <path fill="none" stroke="#000" stroke-width=".4" d="M116.81 113.658H99.073l-5.726-8.968h-11.87m32.577 9.747H99.119l-5.284 9.44H81.477"/>
    <g transform="translate(-53.167 -123.336)">
      <circle cx="141.921" cy="227.869" r="1.205" fill="#fff" stroke="#000" stroke-linecap="round" stroke-width=".4"/>
      <text xml:space="preserve" x="141.915" y="228.569" stroke-width=".081" font-family="Open Sans" font-size="1.934" style="line-height:1.25;-inkscape-font-specification:&quot;Open Sans, Normal&quot;;font-variant-ligatures:none"><tspan x="141.915" y="228.569" font-weight="700" style="text-align:center" text-anchor="middle">2</tspan></text>
    </g>
    <g transform="translate(-53.072 -104.09)">
      <circle cx="141.921" cy="227.869" r="1.205" fill="#fff" stroke="#000" stroke-linecap="round" stroke-width=".4"/>
      <text xml:space="preserve" x="141.915" y="228.569" stroke-width=".081" font-family="Open Sans" font-size="1.934" style="line-height:1.25;-inkscape-font-specification:&quot;Open Sans, Normal&quot;;font-variant-ligatures:none"><tspan x="141.915" y="228.569" font-weight="700" style="text-align:center" text-anchor="middle">2</tspan></text>
    </g>
    <g transform="translate(27.616 28.733)">
      <rect width="10.27" height="10.02" x="114.986" y="80.485" fill="#ca2171" fill-rule="evenodd" rx=".313" ry=".313"/>
      <g fill="#fff" stroke-width=".447" transform="translate(99.744 73.58)scale(.28562)">
        <use xlink:href="#b" fill-rule="evenodd" clip-rule="evenodd" opacity=".7"/>
        <use xlink:href="#c" fill-rule="evenodd" clip-rule="evenodd"/>
        <use xlink:href="#d"/>
      </g>
      <use xlink:href="#e" fill="none" fill-rule="evenodd" clip-rule="evenodd" transform="translate(118.375 83.827)scale(.17463)"/>
      <text xml:space="preserve" x="116.902" y="89.201" fill="#fff" stroke-width=".073" font-family="Open Sans" font-size="1.743" style="line-height:1.25;-inkscape-font-specification:&quot;Open Sans, Normal&quot;;font-variant-ligatures:none"><tspan x="116.902" y="89.201">LEADER</tspan></text>
    </g>
    <path fill="#f0f0f0" d="M46.282 151.567H157.45v23.492H46.282z" paint-order="markers stroke fill"/>
    <g transform="translate(269.038 38.788)">
      <rect width="4.654" height="4.54" x="-219.694" y="125.233" fill="#ca2171" fill-rule="evenodd" rx=".142" ry=".142"/>
      <g fill="#fff" stroke-width=".447" transform="translate(-226.6 122.104)scale(.12943)">
        <use xlink:href="#b" fill-rule="evenodd" clip-rule="evenodd" opacity=".7"/>
        <use xlink:href="#c" fill-rule="evenodd" clip-rule="evenodd"/>
        <use xlink:href="#d"/>
      </g>
      <text xml:space="preserve" x="-219.458" y="129.183" fill="#fff" stroke-width=".033" font-family="Open Sans" font-size=".79" style="line-height:1.25;-inkscape-font-specification:&quot;Open Sans, Normal&quot;;font-variant-ligatures:none"><tspan x="-219.458" y="129.183">FOLLOWER</tspan></text>
    </g>
    <text xml:space="preserve" x="55.604" y="167.229" stroke-width=".179" font-family="sans-serif" font-size="2.518" font-weight="400" style="line-height:1.25"><tspan x="55.604" y="167.229" font-family="Open Sans" style="-inkscape-font-specification:&quot;Open Sans&quot;">Consul Server: Follower</tspan></text>
    <g transform="translate(268.926 37.73)">
      <rect width="4.429" height="4.321" x="-182.885" y="119.936" fill="#fff" fill-rule="evenodd" stroke="#ca2171" stroke-width=".228" rx=".135" ry=".135"/>
      <circle cx="-181.835" cy="123.062" r=".363" fill="#ca2171"/>
    </g>
    <text xml:space="preserve" x="92.187" y="160.479" stroke-width=".179" font-family="sans-serif" font-size="2.518" font-weight="400" style="line-height:1.25"><tspan x="92.187" y="160.479" font-family="Open Sans" style="-inkscape-font-specification:&quot;Open Sans&quot;">Consul Client Agent</tspan></text>
    <text xml:space="preserve" x="92.088" y="166.049" stroke-width=".179" font-family="sans-serif" font-size="2.518" font-weight="400" style="line-height:1.25"><tspan x="92.088" y="166.049" font-family="Open Sans" style="-inkscape-font-specification:&quot;Open Sans&quot;">Mesh Gateway</tspan></text>
    <path fill="#f0f0f0" stroke="#000" stroke-opacity=".827" stroke-width=".75" d="M121.116 159.278h7.682"/>
    <text xml:space="preserve" x="120.813" y="155.252" stroke-width=".265" font-family="sans-serif" font-size="2.469" font-weight="400" style="line-height:1.25"><tspan x="120.813" y="155.252" font-family="Open Sans" font-weight="700" style="-inkscape-font-specification:&quot;Open Sans Bold&quot;">Communication Paths</tspan></text>
    <text xml:space="preserve" x="49.372" y="155.16" stroke-width=".265" font-family="sans-serif" font-size="2.469" font-weight="400" style="line-height:1.25"><tspan x="49.372" y="155.16" font-family="Open Sans" font-weight="700" style="-inkscape-font-specification:&quot;Open Sans Bold&quot;">System Components</tspan></text>
    <g transform="translate(268.941 38.788)">
      <rect width="4.627" height="4.514" x="-219.583" y="118.805" fill="#ca2171" fill-rule="evenodd" rx=".141" ry=".141"/>
      <g fill="#fff" stroke-width=".447" transform="translate(-226.449 115.694)scale(.12867)">
        <use xlink:href="#b" fill-rule="evenodd" clip-rule="evenodd" opacity=".7"/>
        <use xlink:href="#c" fill-rule="evenodd" clip-rule="evenodd"/>
        <use xlink:href="#d"/>
      </g>
      <use xlink:href="#e" fill="none" fill-rule="evenodd" clip-rule="evenodd" transform="translate(-218.056 120.31)scale(.07867)"/>
      <text xml:space="preserve" x="-218.719" y="122.732" fill="#fff" stroke-width=".033" font-family="Open Sans" font-size=".785" style="line-height:1.25;-inkscape-font-specification:&quot;Open Sans, Normal&quot;;font-variant-ligatures:none"><tspan x="-218.719" y="122.732">LEADER</tspan></text>
    </g>
    <text xml:space="preserve" x="55.604" y="160.788" stroke-width=".179" font-family="sans-serif" font-size="2.518" font-weight="400" style="line-height:1.25"><tspan x="55.604" y="160.788" font-family="Open Sans" style="-inkscape-font-specification:&quot;Open Sans&quot;">Consul Server: Leader</tspan></text>
    <text xml:space="preserve" x="130.511" y="160.029" stroke-width=".179" font-family="Open Sans" font-size="2.518" font-weight="400" style="line-height:1.25;-inkscape-font-specification:&quot;Open Sans&quot;"><tspan x="130.511" y="160.029" style="-inkscape-font-specification:&quot;Open Sans&quot;">Control Plane</tspan></text>
    <path fill="none" stroke="#d9d9d9" stroke-width=".4" marker-end="url(#g)" d="M133.492 100.763h2.02l5.31 9.198h1.407"/>
    <path fill="none" stroke="#d9d9d9" stroke-width=".4" marker-end="url(#h)" d="M133.54 127.544h2.02l5.31-9.198h1.407"/>
    <g transform="translate(-13.632 15.39)">
      <rect width="10.27" height="10.02" x="136.948" y="82.453" fill="#ca2171" fill-rule="evenodd" rx=".313" ry=".313"/>
      <g fill="#fff" stroke-width=".447" transform="translate(121.707 75.547)scale(.28562)">
        <use xlink:href="#b" fill-rule="evenodd" clip-rule="evenodd" opacity=".7"/>
        <use xlink:href="#c" fill-rule="evenodd" clip-rule="evenodd"/>
        <use xlink:href="#d"/>
      </g>
      <text xml:space="preserve" x="137.47" y="91.169" fill="#fff" stroke-width=".073" font-family="Open Sans" font-size="1.743" style="line-height:1.25;-inkscape-font-specification:&quot;Open Sans, Normal&quot;;font-variant-ligatures:none"><tspan x="137.47" y="91.169">FOLLOWER</tspan></text>
    </g>
    <path fill="none" stroke="#d9d9d9" stroke-width=".4" marker-end="url(#g)" d="M142.578 110.959h-2.02l-5.31-9.198h-1.56"/>
    <g transform="translate(-13.632 38.142)">
      <rect width="10.27" height="10.02" x="136.948" y="82.453" fill="#ca2171" fill-rule="evenodd" rx=".313" ry=".313"/>
      <g fill="#fff" stroke-width=".447" transform="translate(121.707 75.547)scale(.28562)">
        <use xlink:href="#b" fill-rule="evenodd" clip-rule="evenodd" opacity=".7"/>
        <use xlink:href="#c" fill-rule="evenodd" clip-rule="evenodd"/>
        <use xlink:href="#d"/>
      </g>
      <text xml:space="preserve" x="137.47" y="91.169" fill="#fff" stroke-width=".073" font-family="Open Sans" font-size="1.743" style="line-height:1.25;-inkscape-font-specification:&quot;Open Sans, Normal&quot;;font-variant-ligatures:none"><tspan x="137.47" y="91.169">FOLLOWER</tspan></text>
    </g>
    <path fill="none" stroke="#d9d9d9" stroke-width=".4" marker-end="url(#h)" d="M142.626 117.348h-2.02l-5.31 9.198h-1.625"/>
    <g transform="translate(202.672 -285.37)scale(1.06486)">
      <circle cx="-60.908" cy="369.599" r="1.871" fill="#fff" stroke="#d9d9d9" stroke-linecap="round" stroke-width=".621"/>
      <text xml:space="preserve" x="-60.917" y="370.687" fill="#d9d9d9" stroke-width=".125" font-family="Open Sans" font-size="3.003" style="line-height:1.25;-inkscape-font-specification:&quot;Open Sans, Normal&quot;;font-variant-ligatures:none"><tspan x="-60.917" y="370.687" font-weight="700" style="text-align:center" text-anchor="middle">3</tspan></text>
    </g>
    <g transform="translate(202.854 -285.965)scale(1.06486)">
      <circle cx="-60.954" cy="381.553" r="1.871" fill="#fff" stroke="#d9d9d9" stroke-linecap="round" stroke-width=".621"/>
      <text xml:space="preserve" x="-60.964" y="382.641" fill="#d9d9d9" stroke-width=".125" font-family="Open Sans" font-size="3.003" style="line-height:1.25;-inkscape-font-specification:&quot;Open Sans, Normal&quot;;font-variant-ligatures:none"><tspan x="-60.964" y="382.641" font-weight="700" style="text-align:center" text-anchor="middle">3</tspan></text>
    </g>
    <path fill="none" stroke="#000" stroke-width=".4" marker-end="url(#i)" d="M61.963 114.597h2.019l5.31 9.197h2.01"/>
    <path fill="none" stroke="#000" stroke-width=".4" marker-end="url(#i)" d="M61.963 113.82h2.019l5.31-9.198h2.01"/>
    <circle cx="66.6" cy="109.117" r="1.205" fill="#fff" stroke="#000" stroke-linecap="round" stroke-width=".4"/>
    <text xml:space="preserve" x="66.593" y="109.817" stroke-width=".081" font-family="Open Sans" font-size="1.934" style="line-height:1.25;-inkscape-font-specification:&quot;Open Sans, Normal&quot;;font-variant-ligatures:none"><tspan x="66.593" y="109.817" font-weight="700" style="text-align:center" text-anchor="middle">1</tspan></text>
    <circle cx="66.6" cy="119.201" r="1.205" fill="#fff" stroke="#000" stroke-linecap="round" stroke-width=".4"/>
    <text xml:space="preserve" x="66.593" y="119.901" stroke-width=".081" font-family="Open Sans" font-size="1.934" style="line-height:1.25;-inkscape-font-specification:&quot;Open Sans, Normal&quot;;font-variant-ligatures:none"><tspan x="66.593" y="119.901" font-weight="700" style="text-align:center" text-anchor="middle">1</tspan></text>
    <path fill="none" stroke="#000" stroke-width=".4" marker-end="url(#i)" d="M61.963 114.206h19.88"/>
    <g transform="translate(197.171 -372.035)">
      <circle cx="-122.715" cy="486.29" r="1.205" fill="#fff" stroke="#000" stroke-linecap="round" stroke-width=".4"/>
      <text xml:space="preserve" x="-122.722" y="486.991" stroke-width=".081" font-family="Open Sans" font-size="1.934" style="line-height:1.25;-inkscape-font-specification:&quot;Open Sans, Normal&quot;;font-variant-ligatures:none"><tspan x="-122.722" y="486.991" font-weight="700" style="text-align:center" text-anchor="middle">1</tspan></text>
    </g>
    <path fill="none" stroke="#000" stroke-width=".4" marker-end="url(#i)" d="M114.549 114.093h2.02l5.31-9.198h1.425"/>
    <path fill="none" stroke="#000" stroke-width=".4" marker-end="url(#i)" d="M113.984 114.44h2.954l5.31 9.198h1.402"/>
    <path fill="#d9d9d9" d="m143.618 114.037-2.417-1.442.446.859m1.971.583-2.427 1.433.446-.859"/>
    <path fill="#d9d9d9" d="m142.576 113.705-.009.687 1.05-.355z"/>
    <path fill="none" stroke="#000" stroke-width=".4" marker-end="url(#i)" d="M92.031 114.05h50.803"/>
    <g transform="translate(-159.386 -331.05)scale(1.95292)">
      <circle cx="141.921" cy="227.869" r="1.205" fill="#fff" stroke="#000" stroke-linecap="round" stroke-width=".4"/>
      <text xml:space="preserve" x="141.915" y="228.569" stroke-width=".081" font-family="Open Sans" font-size="1.934" style="line-height:1.25;-inkscape-font-specification:&quot;Open Sans, Normal&quot;;font-variant-ligatures:none"><tspan x="141.915" y="228.569" font-weight="700" style="text-align:center" text-anchor="middle">3</tspan></text>
    </g>
    <g transform="translate(-46.995 -113.934)">
      <circle cx="141.921" cy="227.869" r="1.205" fill="#fff" stroke="#000" stroke-linecap="round" stroke-width=".4"/>
      <text xml:space="preserve" x="141.915" y="228.569" stroke-width=".081" font-family="Open Sans" font-size="1.934" style="line-height:1.25;-inkscape-font-specification:&quot;Open Sans, Normal&quot;;font-variant-ligatures:none"><tspan x="141.915" y="228.569" font-weight="700" style="text-align:center" text-anchor="middle">2</tspan></text>
    </g>
    <g transform="translate(32.096 -94.528)">
      <rect width="9.697" height="9.46" x="20.152" y="204.026" fill="none" stroke="#ca2171" stroke-width=".5" rx=".296" ry=".296"/>
      <circle cx="22.451" cy="210.872" r=".794" fill="#ca2171"/>
    </g>
    <use xlink:href="#j" fill-opacity=".7" stroke-width=".5" transform="translate(51.973 40.694)scale(.45673)"/>
    <g stroke-width=".5" transform="translate(-88.734 283.988)scale(.343)">
      <rect width="10.539" height="10.539" x="510.765" y="-347.704" fill="#fff" stroke="#ca2171" rx="5.269" ry="5.269"/>
      <use xlink:href="#k" stroke-linecap="round" stroke-linejoin="round"/>
    </g>
    <use xlink:href="#j" fill-opacity=".7" stroke-width=".5" transform="translate(59.09 -39.064)scale(.5555)"/>
    <g stroke-width=".5" transform="translate(-112.047 256.845)scale(.41719)">
      <rect width="10.539" height="10.539" x="510.765" y="-347.704" fill="#fff" stroke="#ca2171" rx="5.269" ry="5.269"/>
      <use xlink:href="#k" stroke-linecap="round" stroke-linejoin="round"/>
    </g>
    <use xlink:href="#j" fill-opacity=".7" stroke-width=".5" transform="translate(67.071 -39.064)scale(.5555)"/>
    <g stroke-width=".5" transform="translate(-104.065 256.845)scale(.41719)">
      <rect width="10.539" height="10.539" x="510.765" y="-347.704" fill="#fff" stroke="#ca2171" rx="5.269" ry="5.269"/>
      <use xlink:href="#k" stroke-linecap="round" stroke-linejoin="round"/>
    </g>
    <text xml:space="preserve" x="-107.035" y="543.342" fill="#787878" stroke-width=".03" font-family="Open Sans" font-size="1.693" font-weight="400" style="line-height:1.25;-inkscape-font-specification:&quot;Open Sans, Normal&quot;;font-variant-ligatures:normal;font-variant-caps:normal;font-variant-numeric:normal;font-variant-east-asian:normal;white-space:pre;inline-size:29.323" transform="translate(199.288 -374.879)"><tspan x="-107.035" y="543.342"><tspan font-style="italic" font-weight="600" style="-inkscape-font-specification:&quot;Open Sans Semi-Bold Italic&quot;">not shown: the Consul client agent </tspan></tspan><tspan x="-107.035" y="545.459"><tspan font-style="italic" font-weight="600" style="-inkscape-font-specification:&quot;Open Sans Semi-Bold Italic&quot;">deployed with each gateway to </tspan></tspan><tspan x="-107.035" y="547.576"><tspan font-style="italic" font-weight="600" style="-inkscape-font-specification:&quot;Open Sans Semi-Bold Italic&quot;">manage its configuration </tspan></tspan></text>
    <text xml:space="preserve" x="104.03" y="79.014" fill="#b5b8c5" stroke-width=".127" font-family="Open Sans" font-size="3.528" style="line-height:1.25;-inkscape-font-specification:&quot;Open Sans, Normal&quot;;font-variant-ligatures:none"><tspan x="104.03" y="79.014">| federation via mesh gateways</tspan></text>
  </g>
</svg>
