<svg xmlns="http://www.w3.org/2000/svg" xmlns:xlink="http://www.w3.org/1999/xlink" width="120" height="37" viewBox="0 0 273.33 82.67">
  <defs>
    <path id="reuse-0" d="M3.99 5.56h34.22v34.22H3.99z"/>
    <path id="reuse-1" d="M41.77 5.56h34.22v34.22H41.77z"/>
    <path id="reuse-2" d="M3.99 43.34h34.22v34.22H3.99z"/>
    <path id="reuse-3" d="M41.77 43.34h34.22v34.22H41.77z"/>
    <style>
      .cls-1{fill:#737373}.cls-2{fill:#f25022}.cls-3{fill:#7fba00}.cls-4{fill:#00a4ef}.cls-5{fill:#ffb900}
    </style>
  </defs>
  <path id="Azure_s" d="m113.13 47.24 11.42 30.32h-5.8L116.07 70h-11.95l-2.58 7.53h-5.75l11.42-30.32ZM110 52.87l-4.48 12.76h9.09l-4.46-12.76Zm17.11 2.96h17.36v2.05l-11.4 15.62h11.46v4.06h-18.22v-2.43l11.22-15.25h-10.42Zm39.19 0v21.73h-5.15V74.7h-.09a6.9 6.9 0 0 1-2.72 2.3 8.46 8.46 0 0 1-3.81.84 7.42 7.42 0 0 1-5.76-2.15q-2-2.14-2-6.67V55.83H152v12.6a6.57 6.57 0 0 0 1.09 4.13 3.92 3.92 0 0 0 3.29 1.38 4.34 4.34 0 0 0 3.48-1.53 5.93 5.93 0 0 0 1.32-4V55.83Zm15.41-.36a6 6 0 0 1 1.1.08 5.4 5.4 0 0 1 .82.21v5.18a4.4 4.4 0 0 0-1.17-.56 5.7 5.7 0 0 0-1.87-.26 4 4 0 0 0-3.18 1.58 7.62 7.62 0 0 0-1.3 4.89v11H171V55.83h5.12v3.42h.08a6 6 0 0 1 2.12-2.78 5.7 5.7 0 0 1 3.39-1m20.34 16.61v4.21a11 11 0 0 1-3.32 1.3 18.7 18.7 0 0 1-4.38.5 10.07 10.07 0 0 1-7.72-2.94q-2.76-2.94-2.76-8.18a11.93 11.93 0 0 1 2.95-8.32 9.6 9.6 0 0 1 7.47-3.27 9 9 0 0 1 7 2.76q2.5 2.76 2.5 7.62v2.48h-14.87c.23 2.18.93 3.71 2.1 4.57a7.5 7.5 0 0 0 4.56 1.3 10.8 10.8 0 0 0 3.51-.56 11.2 11.2 0 0 0 2.96-1.47m-3.28-7.59a5.7 5.7 0 0 0-1.17-3.87 4.21 4.21 0 0 0-3.31-1.33 4.78 4.78 0 0 0-3.3 1.32 6.76 6.76 0 0 0-1.94 3.88Z" class="cls-1" data-name="Azure s"/>
  <path id="MS-logotype" d="M130.41 5.56v30.32h-5.27V12.11h-.08l-9.41 23.77h-3.49l-9.64-23.77h-.06v23.77h-4.87V5.56h7.55L113.85 28h.15l9.19-22.47Zm4.4 2.3a2.76 2.76 0 0 1 .92-2.12 3.25 3.25 0 0 1 4.43 0 2.86 2.86 0 0 1 .89 2.1 2.78 2.78 0 0 1-.91 2.1 3.16 3.16 0 0 1-2.22.84 3.07 3.07 0 0 1-2.21-.85 2.78 2.78 0 0 1-.9-2.07m5.64 6.28v21.74h-5.11V14.14Zm15.52 18a7.2 7.2 0 0 0 2.52-.53 10.4 10.4 0 0 0 2.53-1.4V35a10.3 10.3 0 0 1-2.78 1.06 15 15 0 0 1-3.41.36A10.35 10.35 0 0 1 144 25.62a12.4 12.4 0 0 1 3.09-8.62q3.07-3.4 8.69-3.4a12.2 12.2 0 0 1 2.91.37 9.8 9.8 0 0 1 2.33.86v4.9a10.8 10.8 0 0 0-2.42-1.34 7.1 7.1 0 0 0-2.52-.47 6.42 6.42 0 0 0-4.89 2 7.4 7.4 0 0 0-1.86 5.31 7.08 7.08 0 0 0 1.79 5.14 6.47 6.47 0 0 0 4.88 1.79Zm19.62-18.38a6 6 0 0 1 1.1.09 4 4 0 0 1 .83.21v5.18a4.5 4.5 0 0 0-1.18-.56 5.7 5.7 0 0 0-1.87-.26 4 4 0 0 0-3.18 1.58 7.6 7.6 0 0 0-1.29 4.9v11h-5.12V14.14H170v3.43h.08a6 6 0 0 1 2.12-2.78 5.72 5.72 0 0 1 3.39-1.01Zm2.2 11.55a11.76 11.76 0 0 1 3.05-8.54q3-3.15 8.45-3.15a10.42 10.42 0 0 1 8 3 11.44 11.44 0 0 1 2.87 8.19 11.56 11.56 0 0 1-3.05 8.42 11 11 0 0 1-8.28 3.13 10.86 10.86 0 0 1-8-3 11 11 0 0 1-3.04-8.03Zm5.33-.17a7.76 7.76 0 0 0 1.54 5.2 5.52 5.52 0 0 0 4.42 1.8 5.15 5.15 0 0 0 4.25-1.8 8.32 8.32 0 0 0 1.46-5.34 8 8 0 0 0-1.51-5.29A5.23 5.23 0 0 0 189 18a5.37 5.37 0 0 0-4.37 1.87 8.2 8.2 0 0 0-1.51 5.29Zm24.61-5.31a2.17 2.17 0 0 0 .7 1.72 11.5 11.5 0 0 0 3.08 1.58 10.5 10.5 0 0 1 4.31 2.76 5.74 5.74 0 0 1 1.23 3.71 6 6 0 0 1-2.35 4.93 10 10 0 0 1-6.38 1.86 15.2 15.2 0 0 1-3-.33 13.3 13.3 0 0 1-2.78-.84v-5a12.5 12.5 0 0 0 3 1.54 8.6 8.6 0 0 0 2.92.58 5.24 5.24 0 0 0 2.56-.49 1.73 1.73 0 0 0 .82-1.63 2.28 2.28 0 0 0-.85-1.79 13.2 13.2 0 0 0-3.25-1.68 10 10 0 0 1-4-2.66 5.83 5.83 0 0 1-1.18-3.76 5.94 5.94 0 0 1 2.34-4.83 9.24 9.24 0 0 1 6.05-1.9 14.6 14.6 0 0 1 2.56.26 11.7 11.7 0 0 1 2.37.65v4.87a11 11 0 0 0-2.37-1.17 8 8 0 0 0-2.68-.48 3.94 3.94 0 0 0-2.28.57 1.81 1.81 0 0 0-.82 1.55Zm11.52 5.48a11.76 11.76 0 0 1 3.05-8.54c2-2.1 4.84-3.15 8.45-3.15a10.42 10.42 0 0 1 8 3 11.44 11.44 0 0 1 2.87 8.19 11.56 11.56 0 0 1-3.05 8.42 11 11 0 0 1-8.28 3.13 10.86 10.86 0 0 1-8-3 11 11 0 0 1-3.04-8.03Zm5.33-.17a7.76 7.76 0 0 0 1.54 5.2 5.5 5.5 0 0 0 4.42 1.8 5.15 5.15 0 0 0 4.25-1.8 8.32 8.32 0 0 0 1.46-5.34 8 8 0 0 0-1.51-5.29A5.23 5.23 0 0 0 230.5 18a5.36 5.36 0 0 0-4.37 1.87 8.2 8.2 0 0 0-1.55 5.29Zm34-6.83h-7.62v17.57h-5.18V18.33h-3.63v-4.19h3.63v-3A7.55 7.55 0 0 1 248 5.51a7.84 7.84 0 0 1 5.72-2.19 13 13 0 0 1 1.65.09 7 7 0 0 1 1.27.29v4.42a5 5 0 0 0-.89-.36 4.6 4.6 0 0 0-1.46-.21 3.08 3.08 0 0 0-2.47 1 4.42 4.42 0 0 0-.87 3v2.62h7.62V9.26l5.14-1.57v6.45h5.18v4.19h-5.18V28.5a4.26 4.26 0 0 0 .73 2.83 2.91 2.91 0 0 0 2.29.83 3.2 3.2 0 0 0 1.07-.22 4.8 4.8 0 0 0 1.09-.5v4.23a5.9 5.9 0 0 1-1.62.5 10.7 10.7 0 0 1-2.23.24 6.35 6.35 0 0 1-4.85-1.73 7.34 7.34 0 0 1-1.62-5.19Z" class="cls-1"/>
  <g id="MS-symbol">
    <use xlink:href="#reuse-0" class="cls-2"/>
    <use xlink:href="#reuse-1" class="cls-3"/>
    <use xlink:href="#reuse-2" class="cls-4"/>
    <use xlink:href="#reuse-3" class="cls-5"/>
    <use xlink:href="#reuse-0" class="cls-2"/>
    <use xlink:href="#reuse-1" class="cls-3"/>
    <use xlink:href="#reuse-2" class="cls-4"/>
    <use xlink:href="#reuse-3" class="cls-5"/>
  </g>
</svg>
