<svg xmlns="http://www.w3.org/2000/svg" xmlns:xlink="http://www.w3.org/1999/xlink" width="69" height="58" viewBox="0 0 69 58">
  <desc>
    Docker Logo
  </desc>
  <defs>
    <path id="a" d="M59.499.067H.05V38.73H59.5z"/>
  </defs>
  <g fill="none" fill-rule="evenodd">
    <path fill="#394D54" d="M10.758 46.577v-4.369c0-.573.357-1.035.948-1.035h.164c.59 0 .946.462.946 1.035v9.197c0 2.243-1.102 4.027-3.023 5.164a5.66 5.66 0 0 1-2.908.797h-.408c-2.232 0-4.005-1.109-5.138-3.038a5.7 5.7 0 0 1-.792-2.923v-.41c0-2.243 1.103-4.026 3.022-5.165a5.64 5.64 0 0 1 2.908-.797h.408c1.51 0 2.792.588 3.873 1.544M2.605 51.2c0 1.62.781 2.838 2.193 3.615a3.8 3.8 0 0 0 1.843.482c1.582 0 2.756-.75 3.565-2.097a3.9 3.9 0 0 0 .552-2.042c0-1.404-.662-2.5-1.788-3.314a3.83 3.83 0 0 0-2.289-.741c-1.724 0-2.965.875-3.71 2.431a3.8 3.8 0 0 0-.366 1.666m17.351-6.167h.286c2.385 0 4.198 1.163 5.348 3.255.46.837.705 1.75.705 2.707v.41c0 2.243-1.1 4.03-3.024 5.165a5.67 5.67 0 0 1-2.907.796h-.408c-2.231 0-4.005-1.109-5.137-3.038a5.7 5.7 0 0 1-.793-2.923v-.41c0-2.243 1.107-4.02 3.021-5.165a5.6 5.6 0 0 1 2.91-.797M16.084 51.2c0 1.573.768 2.73 2.089 3.542.62.383 1.304.555 2.029.555 1.546 0 2.688-.787 3.484-2.099.38-.625.55-1.312.55-2.04 0-1.462-.7-2.58-1.898-3.389a3.8 3.8 0 0 0-2.178-.666c-1.724 0-2.965.875-3.71 2.431a3.8 3.8 0 0 0-.366 1.666m18.768-3.932c-.31-.146-.893-.195-1.229-.208-1.72-.065-2.964.909-3.693 2.433a3.8 3.8 0 0 0-.367 1.665c0 1.772.925 3.013 2.499 3.769.575.276 1.317.329 1.945.329.553 0 1.334-.34 1.824-.575l.085-.04h.38l.042.008c.468.098.822.396.822.903v.204c0 1.26-2.29 1.548-3.164 1.61-3.084.214-5.39-1.488-6.27-4.445a5.4 5.4 0 0 1-.221-1.558v-.41c0-2.243 1.107-4.02 3.021-5.163a5.6 5.6 0 0 1 2.91-.798h.407c1.097 0 2.108.313 3.013.935l.075.051.047.078c.098.164.182.352.182.546v.205c0 .528-.393.812-.868.904l-.039.007h-.122c-.307 0-1.005-.32-1.28-.45m6.676 1.401c.8-.805 1.602-1.608 2.413-2.4.226-.22 1.082-1.154 1.42-1.154h.368l.042.008c.47.099.821.397.821.904v.205c0 .346-.403.748-.625.985-.473.504-.97.99-1.455 1.484l-2.486 2.538a577 577 0 0 1 3.202 3.245c.293.3.588.601.877.906.102.108.253.243.339.393a.85.85 0 0 1 .148.467v.214l-.012.05c-.115.471-.413.852-.934.852h-.163c-.341 0-.726-.387-.959-.608-.48-.456-.945-.935-1.416-1.4l-1.58-1.56v2.493c0 .574-.358 1.035-.948 1.035h-.162c-.591 0-.948-.461-.948-1.035V42.249c0-.575.357-1.034.948-1.034h.162c.59 0 .948.46.948 1.034zm25.653-3.554h.205c.617 0 1.029.418 1.029 1.035 0 .856-.815 1.075-1.52 1.075-.924 0-1.806.563-2.443 1.194-.795.787-1.143 1.795-1.143 2.904v5.008c0 .574-.357 1.035-.948 1.035h-.163c-.591 0-.948-.46-.948-1.035v-5.295c0-2.034.985-3.694 2.627-4.858a5.64 5.64 0 0 1 3.304-1.063M52.55 55.04c.75.263 1.604.225 2.373.09.393-.167 1.398-.608 1.768-.543l.057.01.054.026c.225.11.44.265.556.496.27.541.14 1.086-.39 1.393l-.175.102c-1.953 1.133-4.03.976-5.975-.082-.931-.506-1.643-1.256-2.168-2.171l-.123-.214c-1.253-2.182-1.084-4.477.33-6.551.488-.718 1.125-1.272 1.871-1.705l.282-.163c1.839-1.067 3.81-.994 5.698-.058a5.6 5.6 0 0 1 2.405 2.241l.102.178c.411.717-.122 1.342-.673 1.769-.639.496-1.284 1.092-1.897 1.623l-4.093 3.559m-1.767-1.248q2.293-1.974 4.579-3.955c.52-.452 1.091-.92 1.608-1.394-.415-.525-1.107-.904-1.695-1.13-1.187-.454-2.358-.301-3.446.33-1.426.827-2.033 2.145-1.98 3.784.021.645.194 1.267.535 1.816q.181.29.4.55"/>
    <g transform="translate(8.751 .06)">
      <mask id="b" fill="#fff">
        <use xlink:href="#a"/>
      </mask>
      <path fill="#394D54" d="M30.925 12.277H37v6.24h3.071c1.418 0 2.877-.254 4.22-.711.66-.225 1.4-.538 2.052-.932-.858-1.125-1.295-2.545-1.424-3.946-.175-1.905.207-4.384 1.49-5.875l.638-.742.76.615c1.916 1.547 3.527 3.708 3.811 6.172 2.307-.682 5.015-.52 7.048.659l.834.483-.44.862c-1.718 3.372-5.313 4.417-8.827 4.232-5.26 13.166-16.708 19.397-30.59 19.397-7.171 0-13.751-2.695-17.498-9.09l-.061-.104-.546-1.117C.27 25.606-.15 22.521.136 19.44l.085-.923h5.194v-6.24h6.074V6.172h12.148V.067h7.288z" mask="url(#b)"/>
    </g>
    <path fill="#00AADA" d="M59.355 14.645c.407-3.181-1.962-5.68-3.43-6.866-1.693 1.967-1.957 7.122.7 9.293-1.483 1.323-4.606 2.522-7.804 2.522H9.895c-.31 3.355.275 6.445 1.614 9.09l.443.814q.42.718.917 1.384 2.4.154 4.426.109c2.654-.06 4.818-.374 6.459-.945a.47.47 0 0 1 .306.888q-.328.114-.68.214h-.002c-1.291.371-2.676.62-4.464.732.106.001-.11.016-.11.016-.061.003-.138.012-.199.016-.703.04-1.463.047-2.239.047-.848 0-1.685-.016-2.62-.063l-.023.016c3.243 3.664 8.315 5.861 14.671 5.861 13.454 0 24.865-5.994 29.918-19.451 3.585.37 7.03-.55 8.598-3.625-2.497-1.448-5.707-.986-7.555-.052"/>
    <path fill="#24B8EC" d="M59.355 14.645c.407-3.181-1.962-5.68-3.43-6.866-1.693 1.967-1.957 7.122.7 9.293-1.483 1.323-4.606 2.522-7.804 2.522h-36.62c-.16 5.138 1.738 9.039 5.094 11.397 2.654-.06 4.818-.374 6.459-.945a.47.47 0 0 1 .306.888q-.328.114-.68.214h-.002c-1.291.371-2.795.653-4.582.764l-.044-.042c4.578 2.36 11.217 2.352 18.828-.587 8.535-3.295 16.477-9.573 22.018-16.754a7 7 0 0 0-.243.116"/>
    <path fill="#008BB8" d="M9.968 23.67a15.7 15.7 0 0 0 1.54 5.014l.444.814q.42.718.918 1.384 2.4.154 4.426.109c2.653-.06 4.817-.374 6.458-.945a.47.47 0 0 1 .306.888q-.328.114-.68.214h-.001c-1.292.371-2.788.637-4.576.748-.06.003-.168.004-.23.008-.703.04-1.454.063-2.23.063-.85 0-1.717-.016-2.652-.063 3.244 3.664 8.347 5.87 14.703 5.87 11.518 0 21.538-4.395 27.354-14.103z"/>
    <path fill="#039BC6" d="M12.55 23.67c.69 3.156 2.344 5.634 4.746 7.32 2.653-.058 4.817-.373 6.458-.944a.47.47 0 0 1 .306.888q-.328.114-.68.214h-.002c-1.291.371-2.82.637-4.606.748 4.578 2.36 11.198 2.326 18.808-.613 4.605-1.778 9.036-4.425 13.012-7.612z"/>
    <path fill="#00ACD3" d="M15.179 18.645h5.263v-5.291H15.18zm.438-.441h.415v-4.41h-.415zm.781 0h.432v-4.41h-.432zm.797 0h.432v-4.41h-.432zm.798 0h.432v-4.41h-.432zm.798 0h.432v-4.41h-.432zm.797 0h.416v-4.41h-.416zm1.664-5.664h5.265V7.249h-5.265zm.44-.441h.414v-4.41h-.415zm.78 0h.432v-4.41h-.432zm.797 0h.432v-4.41h-.432zm.798 0h.432v-4.41h-.432zm.798 0h.432v-4.41h-.432zm.797 0h.416v-4.41h-.416z"/>
    <path fill="#1FC2EF" d="M21.252 18.645h5.265v-5.291h-5.265zm.44-.441h.414v-4.41h-.415zm.78 0h.432v-4.41h-.432zm.797 0h.432v-4.41h-.432zm.798 0h.432v-4.41h-.432zm.798 0h.432v-4.41h-.432zm.797 0h.416v-4.41h-.416z"/>
    <path fill="#00ACD3" d="M27.326 18.645h5.264v-5.291h-5.264zm.439-.441h.415v-4.41h-.415zm.78 0h.433v-4.41h-.432zm.798 0h.432v-4.41h-.432zm.798 0h.432v-4.41h-.432zm.798 0h.432v-4.41h-.432zm.797 0h.416v-4.41h-.416z"/>
    <path fill="#1FC2EF" d="M27.326 12.54h5.264V7.249h-5.264zm.439-.441h.415v-4.41h-.415zm.78 0h.433v-4.41h-.432zm.798 0h.432v-4.41h-.432zm.798 0h.432v-4.41h-.432zm.798 0h.432v-4.41h-.432zm.797 0h.416v-4.41h-.416zm1.664 6.546h5.264v-5.291H33.4zm.439-.441h.415v-4.41h-.415zm.78 0h.433v-4.41h-.432zm.798 0h.432v-4.41h-.432zm.798 0h.432v-4.41h-.432zm.798 0h.432v-4.41h-.432zm.797 0h.416v-4.41h-.416z"/>
    <path fill="#00ACD3" d="M33.4 12.54h5.264V7.249H33.4zm.439-.441h.415v-4.41h-.415zm.78 0h.433v-4.41h-.432zm.798 0h.432v-4.41h-.432zm.798 0h.432v-4.41h-.432zm.798 0h.432v-4.41h-.432zm.797 0h.416v-4.41h-.416z"/>
    <path fill="#1FC2EF" d="M33.4 6.435h5.264v-5.29H33.4zm.439-.44h.415v-4.41h-.415zm.78 0h.433v-4.41h-.432zm.798 0h.432v-4.41h-.432zm.798 0h.432v-4.41h-.432zm.798 0h.432v-4.41h-.432zm.797 0h.416v-4.41h-.416z"/>
    <path fill="#00ACD3" d="M39.474 18.645h5.264v-5.291h-5.264zm.438-.441h.416v-4.41h-.416zm.781 0h.432v-4.41h-.432zm.798 0h.432v-4.41h-.432zm.797 0h.432v-4.41h-.432zm.798 0h.432v-4.41h-.432zm.798 0h.415v-4.41h-.415z"/>
    <path fill="#D4EDF1" d="M26.187 27.223c.802 0 1.452.654 1.452 1.46s-.65 1.46-1.452 1.46a1.456 1.456 0 0 1-1.452-1.46c0-.806.65-1.46 1.452-1.46"/>
    <path fill="#394D54" d="M26.187 27.637q.2.001.376.07a.428.428 0 0 0 .213.797c.16 0 .3-.09.372-.222a1.043 1.043 0 0 1-.96 1.446 1.043 1.043 0 0 1-1.041-1.045c0-.578.466-1.046 1.04-1.046M.5 24.198h67.556c-1.471-.375-4.654-.881-4.13-2.82-2.674 3.112-9.124 2.183-10.752.65-1.813 2.642-12.366 1.638-13.102-.421-2.273 2.68-9.315 2.68-11.588 0-.736 2.059-11.29 3.063-13.102.42-1.628 1.534-8.078 2.463-10.753-.648.525 1.938-2.658 2.444-4.129 2.82"/>
    <path fill="#BFDBE0" d="M30.047 37.742c-3.596-1.716-5.57-4.048-6.669-6.593-1.335.383-2.941.628-4.807.733q-1.055.06-2.219.06-1.342 0-2.826-.08c3.298 3.314 7.355 5.865 14.868 5.911q.832 0 1.653-.031"/>
    <path fill="#D4EDF1" d="M24.714 33.498a12.7 12.7 0 0 1-1.335-2.35c-1.336.384-2.942.629-4.808.734 1.282.7 3.115 1.347 6.143 1.616"/>
  </g>
</svg>
