<svg xmlns="http://www.w3.org/2000/svg" xmlns:xlink="http://www.w3.org/1999/xlink" xml:space="preserve" width="140" height="86" viewBox="0 0 2002.667 1237.333">
  <defs>
    <clipPath id="c" clipPathUnits="userSpaceOnUse">
      <path d="M0 928h1502V0H0Z"/>
    </clipPath>
    <clipPath id="d" clipPathUnits="userSpaceOnUse">
      <path d="M530.797 799.473h413.195V653.641H530.797Z"/>
    </clipPath>
    <clipPath id="e" clipPathUnits="userSpaceOnUse">
      <path d="M585.703 706.566h358.289V559.715H585.703Z"/>
    </clipPath>
    <clipPath id="f" clipPathUnits="userSpaceOnUse">
      <path d="M481.614 655.137h352.448V412.859H481.614Z"/>
    </clipPath>
    <clipPath id="g" clipPathUnits="userSpaceOnUse">
      <path d="M481.614 561.215h299.011V319.953H481.614Z"/>
    </clipPath>
    <clipPath id="h" clipPathUnits="userSpaceOnUse">
      <use xlink:href="#a"/>
    </clipPath>
    <clipPath id="i" clipPathUnits="userSpaceOnUse">
      <use xlink:href="#a"/>
    </clipPath>
    <clipPath id="j" clipPathUnits="userSpaceOnUse">
      <path d="M634.402 799.473a35.97 35.97 0 0 1-31.199-18.071L486.32 577.606a35.97 35.97 0 0 1 0-35.785l116.883-203.797a35.97 35.97 0 0 1 31.199-18.071h233.77a35.97 35.97 0 0 1 31.195 18.071l116.883 203.797a35.97 35.97 0 0 1 0 35.785L943.992 703.57l-44.625 77.832a35.96 35.96 0 0 1-31.195 18.071z"/>
    </clipPath>
    <clipPath id="m" clipPathUnits="userSpaceOnUse">
      <path d="M128 80h1246v192H128Z"/>
    </clipPath>
    <clipPath id="o" clipPathUnits="userSpaceOnUse">
      <path d="M0 136h416V0H0Z"/>
    </clipPath>
    <radialGradient id="b" cx="0" cy="0" r="1" fx="0" fy="0" gradientTransform="translate(559.088 767.085)scale(553.65015)" gradientUnits="userSpaceOnUse" spreadMethod="pad">
      <stop offset="0" stop-color="#fff" stop-opacity=".1"/>
      <stop offset="1" stop-color="#fff" stop-opacity="0"/>
    </radialGradient>
    <radialGradient id="l" cx="0" cy="0" r="1" fx="0" fy="0" gradientTransform="translate(559.088 767.085)scale(553.65015)" gradientUnits="userSpaceOnUse" spreadMethod="pad">
      <stop offset="0" stop-color="#fff"/>
      <stop offset="1" stop-color="#fff"/>
    </radialGradient>
    <path id="a" d="M778.891 703.57h242.069V319.953H778.891Z"/>
    <path id="n" fill="#767576" stroke="none" d="M0 0c0 14.336-9.984 22.656-20.48 22.656S-40.961 14.336-40.961 0c0-14.34 9.984-22.66 20.481-22.66C-9.984-22.66 0-14.34 0 0m11.777 0c0-19.074-13.441-33.41-32.257-33.41-18.817 0-32.258 14.336-32.258 33.41 0 19.07 13.441 33.406 32.258 33.406C-1.664 33.406 11.777 19.07 11.777 0"/>
    <mask id="k" width="1" height="1" x="0" y="0" maskUnits="userSpaceOnUse">
      <path fill="url(#b)" d="M-32768 32767h65535v-65535h-65535Z"/>
    </mask>
  </defs>
  <g clip-path="url(#c)" transform="matrix(1.33333 0 0 -1.33333 0 1237.333)">
    <path fill="#f8bb16" d="m834.063 415.856-55.172-95.902H634.403a35.97 35.97 0 0 0-31.199 18.07L486.321 541.821a35.96 35.96 0 0 0 0 35.785l44.476 77.531 54.907-95.422 82.773-143.859Z"/>
    <path fill="#ea4334" d="M1016.25 541.82 899.367 338.023a35.97 35.97 0 0 0-31.195-18.07h-89.281l55.172 95.902 82.808 143.86-82.808 143.855h109.929l72.258-125.965a35.97 35.97 0 0 0 0-35.785"/>
    <path fill="#0074bc" d="M943.992 703.57H668.476l-82.773-143.855-54.906 95.421 72.406 126.266a35.96 35.96 0 0 0 31.199 18.07h233.77a35.96 35.96 0 0 0 31.195-18.07z"/>
    <path fill="#e2e3e4" d="m834.063 703.57 82.781-143.855-82.781-143.86H668.508l-82.804 143.86 82.773 143.855Z"/>
    <path fill="#fff" d="M751.285 631.644c39.727 0 71.93-32.207 71.93-71.93 0-39.726-32.203-71.929-71.93-71.929-39.723 0-71.926 32.203-71.926 71.929 0 39.723 32.203 71.93 71.926 71.93"/>
    <g clip-path="url(#d)" opacity=".2">
      <path fill="#fff" d="M603.203 778.406a35.97 35.97 0 0 0 31.199 18.074h233.77a35.97 35.97 0 0 0 31.195-18.074l42.918-74.836h1.707l-44.625 77.832a35.96 35.96 0 0 1-31.195 18.07h-233.77a35.96 35.96 0 0 1-31.199-18.07l-72.406-126.266.867-1.496z"/>
    </g>
    <g clip-path="url(#e)" opacity=".2">
      <path fill="#2c3079" d="m585.703 559.715 82.773 143.855h275.516l-1.707 2.997H668.476l-82.773-143.856"/>
    </g>
    <g clip-path="url(#f)" opacity=".2">
      <path fill="#fff" d="m486.32 574.61 44.477 77.535 54.906-95.43 82.773-143.855h163.848l1.738 2.996H668.476l-82.773 143.859-54.906 95.422-44.477-77.531c-3.445-5.992-4.945-12.707-4.676-19.391.239 5.665 1.77 11.297 4.676 16.395"/>
    </g>
    <g clip-path="url(#g)" opacity=".2">
      <path fill="#be3b26" d="M780.625 322.95H634.402a35.97 35.97 0 0 0-31.199 18.07L486.32 544.817c-2.906 5.098-4.437 10.731-4.675 16.399-.27-6.688 1.23-13.399 4.675-19.395l116.883-203.797a35.97 35.97 0 0 1 31.199-18.07h144.489Z"/>
    </g>
    <g fill="#3f2723" clip-path="url(#h)" opacity=".2">
      <path d="M918.55 559.715 835.8 703.57h-1.738l82.808-143.855Zm97.7-14.899L899.367 341.019a35.96 35.96 0 0 0-31.195-18.07h-87.547l-1.734-2.996h89.281a35.97 35.97 0 0 1 31.195 18.07L1016.25 541.82c3.449 5.996 4.945 12.707 4.68 19.394-.243-5.668-1.77-11.3-4.68-16.398"/>
    </g>
    <g fill="#fff" clip-path="url(#i)" opacity=".2">
      <path d="m943.992 700.574 72.258-125.965c2.91-5.097 4.437-10.73 4.68-16.394.265 6.683-1.231 13.398-4.68 19.39L943.992 703.57h-109.93l1.739-2.996m-1.738-287.714 84.488 146.855h-1.679l-82.809-143.859-55.172-95.902h1.734z"/>
    </g>
  </g>
  <g clip-path="url(#j)" transform="matrix(1.33333 0 0 -1.33333 0 1237.333)">
    <g mask="url(#k)">
      <path fill="url(#l)" d="M634.402 799.473a35.97 35.97 0 0 1-31.199-18.071L486.32 577.606a35.97 35.97 0 0 1 0-35.785l116.883-203.797a35.97 35.97 0 0 1 31.199-18.071h233.77a35.97 35.97 0 0 1 31.195 18.071l116.883 203.797a35.97 35.97 0 0 1 0 35.785L943.992 703.57l-44.625 77.832a35.96 35.96 0 0 1-31.195 18.071z"/>
    </g>
  </g>
  <g clip-path="url(#m)" transform="matrix(1.33333 0 0 -1.33333 0 1237.333)">
    <path fill="#767576" d="M572.633 173.824c0 27.266 20.609 47.875 47.617 47.875 13.824 0 25.473-5.504 33.664-14.977l-8.191-7.937c-6.399 7.937-14.977 11.648-25.473 11.648-19.328 0-35.586-14.078-35.586-36.609 0-22.527 16.258-36.609 35.586-36.609 11.524 0 21.25 5.379 28.164 13.312l8.188-8.191c-8.063-9.598-20.992-16.383-36.352-16.383-27.008 0-47.617 20.605-47.617 47.871m93.183 45.828h11.777V128h-11.777z"/>
    <use xlink:href="#n" transform="translate(739.16 159.363)"/>
    <path fill="#767576" d="M804.184 128v8.703h-.512c-3.453-5.762-11.265-10.75-19.84-10.75-16.128 0-23.937 10.879-23.937 26.367v38.403h11.777v-36.481c0-13.058 6.528-17.539 15.489-17.539 10.238 0 16.511 9.856 16.511 19.457v34.563h11.778V128Zm72.449 31.363c0 14.336-9.473 22.656-19.969 22.656-10.5 0-19.969-8.578-19.969-22.656 0-14.082 9.469-22.66 19.969-22.66 10.496 0 19.969 8.32 19.969 22.66m-51.715 0c0 19.199 13.949 33.406 29.824 33.406 9.985 0 17.793-4.992 21.375-10.75h.516l-.516 8.703v28.93h11.782V128h-11.266v8.703h-.516c-3.582-5.762-11.39-10.75-21.375-10.75-15.875 0-29.824 14.207-29.824 33.41m126.59 17.024c10.496 0 16.383 8.703 16.383 16s-5.887 16-16.383 16h-19.711v-32ZM920.016 128v91.653h31.234c15.235 0 28.676-11.266 28.676-27.266s-13.441-27.266-28.676-27.266h-19.453V128zm68.226 91.652h11.773V128h-11.773zm66.434-64.644s-4.992 4.098-14.98 4.098c-12.415 0-17.278-6.657-17.278-12.414 0-6.657 6.91-9.989 13.055-9.989 9.348 0 19.203 8.067 19.203 18.305m-44.547-8.063c0 14.208 12.801 21.887 27.52 21.887 8.449 0 14.593-2.429 17.027-3.84v1.793c0 9.473-7.551 15.235-16.387 15.235-6.527 0-12.8-3.203-14.976-9.09l-10.75 4.609c2.172 5.762 9.726 15.231 25.468 15.231 15.364 0 27.907-9.215 27.907-26.879V128h-11.262v8.703h-.512c-3.457-5.246-9.859-10.75-20.609-10.75-12.801 0-23.426 7.934-23.426 20.992m72.831.129v32.898h-11.008v10.75h11.008v19.204h11.777v-19.204h15.36v-10.75h-15.36v-32.003c0-7.04 2.942-10.239 8.45-10.239 2.171 0 3.71.254 5.375 1.024l4.093-10.114c-2.687-1.152-5.5-1.664-9.468-1.664-13.188 0-20.227 7.297-20.227 20.098m76.544 71.426-4.098-10.113c-1.535.769-3.199 1.023-5.375 1.023-5.886 0-10.496-3.453-10.496-10.75v-7.937h16.387v-10.75h-16.387V128h-11.777v51.973h-11.774v10.75h11.774v8.32c0 12.801 9.09 21.121 22.273 21.121 3.969 0 6.785-.512 9.473-1.664"/>
    <use xlink:href="#n" transform="translate(1211.855 159.363)"/>
    <path fill="#767576" d="M1233.102 128v62.723h11.266V180.48h.511c2.559 7.172 11.649 11.778 18.176 11.778 3.84 0 6.399-.512 8.832-1.535l-4.48-11.008c-1.664.64-3.711.894-6.274.894-8.062 0-16.254-6.785-16.254-18.304V128Zm45.183 62.723h11.262v-8.703h.515c3.582 6.015 11.903 10.75 19.328 10.75 10.11 0 16.641-4.606 19.84-12.031 4.481 7.039 12.16 12.031 21.891 12.031 15.359 0 22.402-10.879 22.402-26.367V128h-11.781v36.61c0 13.058-4.992 17.41-13.949 17.41-9.602 0-16.004-9.731-16.004-19.328V128h-11.774v36.61c0 13.058-4.992 17.41-13.953 17.41-9.601 0-16-9.731-16-19.328V128h-11.777Z"/>
    <g fill="#767576" clip-path="url(#o)" transform="matrix(1 0 0 -1 128 231)">
      <path d="M.723 52.565C.723 23.636 25.044.083 53.974.083c16.001 0 27.394 6.272 35.97 14.464L79.831 24.66c-6.144-5.76-14.464-10.241-25.857-10.241-21.121 0-37.634 17.026-37.634 38.146S32.853 90.71 53.974 90.71c13.696 0 21.505-5.503 26.497-10.496 4.097-4.095 6.784-9.984 7.809-18.048H53.974V47.83h48.258c.512 2.559.768 5.631.768 8.96 0 10.753-2.944 24.065-12.417 33.538-9.215 9.599-20.993 14.719-36.609 14.719-28.93 0-53.251-23.552-53.251-52.482M142 91.735c-10.241 0-19.073-8.448-19.073-20.482 0-12.16 8.832-20.48 19.073-20.48s19.072 8.32 19.072 20.48c0 12.034-8.832 20.482-19.072 20.482m0-54.275c-18.689 0-33.922 14.21-33.922 33.793 0 19.457 15.233 33.794 33.922 33.794s33.921-14.337 33.921-33.794c0-19.583-15.232-33.793-33.921-33.793m74 54.275c-10.24 0-19.073-8.448-19.073-20.482 0-12.16 8.833-20.48 19.073-20.48s19.072 8.32 19.072 20.48c0 12.034-8.832 20.482-19.072 20.482m0-54.275c-18.689 0-33.922 14.21-33.922 33.793 0 19.457 15.233 33.794 33.922 33.794s33.922-14.337 33.922-33.794c0-19.583-15.234-33.793-33.922-33.793m73.806 54.275c-10.24 0-18.817-8.576-18.817-20.353 0-11.904 8.577-20.609 18.817-20.609 10.112 0 18.049 8.705 18.049 20.609 0 11.777-7.937 20.353-18.049 20.353m17.024-52.227v5.505h-.511c-3.328-3.968-9.729-7.553-17.793-7.553-16.897 0-32.386 14.849-32.386 33.922 0 18.946 15.489 33.665 32.386 33.665 8.064 0 14.465-3.584 17.793-7.68h.511v4.865c0 12.928-6.912 19.84-18.048 19.84-9.088 0-14.721-6.527-17.025-12.031l-12.929 5.375c3.712 8.961 13.569 19.969 29.954 19.969 17.409 0 32.129-10.241 32.129-35.202V39.508zM346 103h-14.849V3.668H346Zm39.554-52.482c5.889 0 10.881 2.944 12.545 7.168L367.89 70.231c-.385-13.057 10.112-19.713 17.664-19.713m1.152 41.218c-7.552 0-12.928-3.456-16.384-10.24l45.186-18.689-1.536-3.841c-2.816-7.551-11.393-21.505-28.93-21.505-17.409 0-31.873 13.698-31.873 33.793 0 18.946 14.336 33.794 33.537 33.794 15.489 0 24.45-9.471 28.162-14.976l-11.521-7.681c-3.84 5.633-9.088 9.345-16.641 9.345"/>
    </g>
  </g>
</svg>
