<svg xmlns="http://www.w3.org/2000/svg" xmlns:xlink="http://www.w3.org/1999/xlink" width="100" height="17" viewBox="0 0 100 17">
  <desc>
    VM Ware Logo
  </desc>
  <defs>
    <path id="a" d="M0 .236v15.795h37.454V.236z"/>
  </defs>
  <g fill="none" fill-rule="evenodd">
    <path fill="#000" fill-rule="nonzero" d="M58.41.87c-.586 0-.89.403-1.03.868L53.704 12.69 50.086 1.765c-.166-.518-.528-.894-1.114-.894h-.113c-.554 0-.889.376-1.055.894L44.158 12.69 40.536 1.795C40.37 1.247 40.007.87 39.45.87c-.639 0-1.084.52-1.084 1.069 0 .202.083.433.139.608l4.37 12.644c.224.662.668 1.01 1.195 1.01h.058c.556 0 .974-.348 1.17-1.01l3.62-10.745 3.588 10.745c.197.662.615 1.01 1.172 1.01h.084c.501 0 .945-.348 1.17-1.01L59.33 2.519c.054-.176.139-.407.139-.609 0-.55-.447-1.04-1.059-1.04m23.427.001c-1.556 0-3.904 1.176-4.963 3.668V1.974c0-.64-.472-1.132-1.088-1.132-.585 0-1.059.521-1.059 1.132l.001 13.078c0 .634.474 1.129 1.088 1.129.613 0 1.06-.52 1.06-1.13v-5.08c0-4.32 2.283-6.494 5.073-6.841.563-.088.95-.52.95-1.13 0-.637-.418-1.129-1.062-1.129m3.035 6.875c.27-2.899 2.128-5.048 4.587-5.048 2.815 0 4.291 2.35 4.511 5.048zM89.516.832c-3.907 0-6.777 3.442-6.777 7.715v.059c0 4.587 3.169 7.716 7.05 7.716 2.404 0 3.99-.893 5.327-2.239a.96.96 0 0 0 .33-.715.94.94 0 0 0-.928-.948c-.247 0-.438.114-.602.256-1.04 1.004-2.32 1.721-4.07 1.721-2.518 0-4.675-1.806-4.973-5.016H95.09c.516 0 .985-.431.985-1.036 0-3.93-2.38-7.513-6.558-7.513M70.1 10.522c0 2.367-2.17 4.043-4.81 4.043-1.948 0-3.614-1.098-3.614-2.975v-.058c0-1.876 1.503-3.09 4.197-3.09 1.75 0 3.17.318 4.228.635zM66.013.874c-1.833 0-2.901.212-4.317.85-.391.18-.584.467-.584.927 0 .52.446.954.947.954.109 0 .249-.03.385-.088 1.06-.49 1.902-.681 3.348-.681 2.694 0 4.283 1.389 4.283 4.074v.522c-1.282-.378-2.587-.638-4.424-.638-3.64 0-6.143 1.678-6.143 4.826v.058c0 3.063 2.699 4.65 5.37 4.652 2.525 0 4.194-1.212 5.197-2.572v1.425c0 .577.414 1.04 1.023 1.04.587 0 1.032-.464 1.032-1.098V6.883c0-1.908-.501-3.352-1.476-4.363C69.6 1.421 68.041.874 66.013.874"/>
    <g transform="translate(0 .316)">
      <mask id="b" fill="#fff">
        <use xlink:href="#a"/>
      </mask>
      <path fill="#000" fill-rule="nonzero" d="M32.315.236c-2.803 0-4.559 2.016-4.559 2.016C26.824.995 25.537.239 23.361.239c-2.297 0-4.307 2.013-4.307 2.013C18.12.995 16.531.239 15.214.239c-2.035 0-3.652.93-4.637 3.274l-2.914 7.135-3.738-9.155C3.455.42 2.291-.066 1.205.436.115.939-.285 2.192.206 3.265L4.77 13.57c.718 1.615 1.474 2.461 2.893 2.461 1.516 0 2.177-.921 2.894-2.461 0 0 3.98-9.004 4.02-9.098a.58.58 0 0 1 .573-.383c.342.002.63.285.63.667v8.805c0 1.357.724 2.47 2.118 2.47s2.145-1.113 2.145-2.47V6.356c0-1.39.959-2.292 2.265-2.292s2.175.935 2.175 2.292v7.205c0 1.357.727 2.47 2.118 2.47s2.15-1.113 2.15-2.47V6.356c0-1.39.954-2.292 2.26-2.292 1.304 0 2.177.935 2.177 2.292v7.205c0 1.357.726 2.47 2.119 2.47 1.391 0 2.147-1.113 2.147-2.47v-8.2c0-3.014-2.333-5.125-5.139-5.125" mask="url(#b)"/>
    </g>
    <path fill="#000" fill-rule="nonzero" d="M99.463 2.69c0 .826-.626 1.516-1.438 1.516-.822 0-1.441-.68-1.441-1.507v-.01c0-.822.626-1.514 1.44-1.514.823 0 1.439.68 1.439 1.51zM98.025.831c-.99 0-1.777.85-1.777 1.857v.013c0 1.01.773 1.848 1.777 1.848.995 0 1.78-.849 1.78-1.86v-.008c0-1.01-.777-1.85-1.78-1.85"/>
    <path fill="#000" fill-rule="nonzero" d="M98.394 2.377c0 .153-.101.253-.286.253h-.385v-.516h.378c.184 0 .293.09.293.257zm-.265-.616h-.593a.194.194 0 0 0-.192.198v1.41c0 .109.086.196.192.196s.188-.086.188-.197V2.98h.303l.37.485c.044.057.1.102.185.102a.18.18 0 0 0 .18-.182c0-.06-.024-.1-.062-.15l-.261-.332c.207-.091.343-.263.343-.545v-.005a.57.57 0 0 0-.15-.408c-.108-.118-.28-.183-.503-.183"/>
  </g>
</svg>
