<svg xmlns="http://www.w3.org/2000/svg" viewBox="0 0 192 192">
  <g fill="#FFF" fill-rule="evenodd">
    <g fill-rule="nonzero">
      <path fill-opacity=".7" d="M168.764 26.55a4.66 4.66 0 0 1-4.664-4.664 4.66 4.66 0 0 1 4.664-4.663 4.66 4.66 0 0 1 4.663 4.663 4.66 4.66 0 0 1-4.663 4.664"/>
      <path d="M177.845 24.055a2.156 2.156 0 0 1-2.168-2.17c0-1.185.94-2.167 2.168-2.167 1.187 0 2.17.94 2.17 2.168 0 1.187-.983 2.17-2.17 2.17m7.855 2.004c-.286 1.145-1.473 1.84-2.618 1.554-1.146-.287-1.84-1.473-1.555-2.62.287-1.144 1.473-1.84 2.618-1.553 1.105.29 1.8 1.35 1.596 2.46 0 .08 0 .13-.04.17m-1.51-5.52c-1.14.29-2.33-.45-2.57-1.59s.45-2.33 1.6-2.57c1.15-.29 2.33.45 2.58 1.596.04.286.09.573.04.86-.12.82-.73 1.515-1.63 1.72m7.65 5.32a2.146 2.146 0 0 1-2.49 1.76 2.15 2.15 0 0 1-1.76-2.5 2.15 2.15 0 0 1 2.495-1.76c1.107.207 1.884 1.19 1.8 2.293 0 .04-.04.12-.04.202m-1.76-5.4c-1.185.2-2.29-.616-2.453-1.76-.205-1.19.61-2.29 1.76-2.456 1.185-.206 2.29.613 2.45 1.76.04.203.04.37.04.57-.08.9-.814 1.72-1.8 1.88m-1.47 12.846a2.19 2.19 0 0 1-2.944.82c-1.022-.615-1.39-1.88-.82-2.947.617-1.02 1.885-1.39 2.948-.82a2.11 2.11 0 0 1 1.068 2.048c0 .33-.08.62-.244.9m-.776-19.8c-1.02.578-2.33.21-2.943-.813-.573-1.024-.205-2.333.818-2.947 1.024-.57 2.333-.2 2.946.82.25.41.33.82.25 1.23-.04.736-.45 1.39-1.06 1.72"/>
      <path d="M168.845 43.568c-5.81 0-11.21-2.25-15.3-6.34a21.52 21.52 0 0 1-6.34-15.3c0-5.77 2.25-11.21 6.34-15.3a21.5 21.5 0 0 1 15.3-6.342c4.787 0 9.328 1.555 13.132 4.46l-2.66 3.436a17.05 17.05 0 0 0-10.472-3.56c-4.622 0-8.96 1.8-12.23 5.073-3.274 3.273-5.033 7.61-5.033 12.232 0 4.623 1.8 8.96 5.073 12.232 3.272 3.27 7.61 5.03 12.23 5.03 3.847 0 7.447-1.23 10.474-3.56l2.65 3.43c-3.85 2.98-8.39 4.5-13.18 4.5z"/>
    </g>
    <path d="M73.995 168.437A38.4 38.4 0 0 0 77 153.5c0-21.263-17.237-38.5-38.5-38.5-4.044 0-7.943.624-11.605 1.78A83.5 83.5 0 0 1 23 91.5C23 45.384 60.384 8 106.5 8S190 45.384 190 91.5 152.616 175 106.5 175c-11.53 0-22.514-2.337-32.505-6.563m10.14-17.49.093.002c.802 0 1.996-.02 3.53-.11 2.357-.14 4.953-.39 7.738-.79l-.712-4.95c-2.64.38-5.095.62-7.313.75-1.41.08-2.5.1-3.19.1h-.04l-.09 4.99zm17.923-2.065a96 96 0 0 0 10.89-2.988l-1.608-4.734a91 91 0 0 1-10.324 2.832zm17.15-5.378a81 81 0 0 0 10.11-5.158l-2.584-4.28a76 76 0 0 1-9.487 4.838l1.96 4.6zm15.697-8.882a70 70 0 0 0 8.618-7.474l-3.575-3.495a65 65 0 0 1-8.003 6.94l2.96 4.03zm13.106-12.546a70 70 0 0 0 3.54-4.838c1-1.496 1.95-3.01 2.86-4.554l-4.3-2.546c-.87 1.47-1.77 2.91-2.71 4.332a62 62 0 0 1-3.27 4.484l3.906 3.122zm9.6-15.232c1.69-3.313 3.23-6.733 4.62-10.248l-4.65-1.835c-1.33 3.37-2.8 6.65-4.41 9.81l4.46 2.28zm6.89-16.49c1.19-3.53 2.22-7.124 3.12-10.763l-4.85-1.19c-.86 3.51-1.86 6.97-3 10.37l4.74 1.59zm4.55-17.208c.74-3.7 1.33-7.388 1.79-11.037l-4.96-.62c-.44 3.53-1.01 7.09-1.73 10.68l4.91.97zm2.47-17.636c.34-4.14.49-7.9.49-11.19l-5-.002c0 3.158-.14 6.785-.46 10.783l4.99.41z"/>
    <g fill-rule="nonzero">
      <path fill-opacity=".7" d="M33.8 151.182a6.215 6.215 0 0 1 6.218-6.218 6.214 6.214 0 0 1 6.218 6.218 6.214 6.214 0 0 1-6.218 6.218 6.216 6.216 0 0 1-6.218-6.218"/>
      <path d="M52.127 154.073a2.874 2.874 0 0 1-2.89-2.89 2.875 2.875 0 0 1 2.89-2.892 2.88 2.88 0 0 1 2.89 2.9 2.91 2.91 0 0 1-2.89 2.89m10.473 2.67c-.382 1.53-1.964 2.46-3.49 2.08-1.528-.38-2.455-1.96-2.074-3.49s1.964-2.45 3.49-2.07c1.474.38 2.4 1.8 2.13 3.27 0 .11 0 .17-.056.22m-2.018-7.36c-1.527.38-3.11-.6-3.437-2.124-.327-1.53.6-3.11 2.128-3.44 1.527-.384 3.11.6 3.436 2.125.05.383.1.765.05 1.147-.17 1.1-.98 2.02-2.18 2.3m10.2 7.09a2.865 2.865 0 0 1-3.33 2.346 2.86 2.86 0 0 1-2.35-3.324 2.853 2.853 0 0 1 3.32-2.345c1.47.27 2.51 1.58 2.4 3.054 0 .054-.06.163-.06.272m-2.35-7.2c-1.58.27-3.055-.82-3.273-2.345-.27-1.58.82-3.053 2.347-3.27 1.58-.274 3.054.817 3.27 2.344.056.275.056.49.056.766-.11 1.2-1.09 2.29-2.4 2.51m-1.945 17.1c-.82 1.363-2.51 1.854-3.93 1.09-1.36-.818-1.852-2.51-1.09-3.927.82-1.365 2.51-1.856 3.93-1.09a2.81 2.81 0 0 1 1.417 2.725c0 .43-.11.81-.327 1.2M65.437 140c-1.364.764-3.11.273-3.928-1.09-.77-1.365-.28-3.11 1.09-3.928 1.36-.764 3.11-.273 3.92 1.09.33.546.43 1.092.33 1.637-.06.98-.6 1.85-1.42 2.29"/>
      <path d="M40.127 180.09c-7.745 0-14.945-3-20.4-8.454s-8.454-12.71-8.454-20.4 3-14.945 8.454-20.4 12.71-8.454 20.4-8.454c6.382 0 12.437 2.073 17.51 5.945l-3.546 4.582a22.72 22.72 0 0 0-13.96-4.75c-6.16 0-11.94 2.4-16.31 6.76-4.36 4.36-6.71 10.14-6.71 16.31 0 6.16 2.4 11.94 6.77 16.31 4.37 4.36 10.15 6.71 16.31 6.71 5.13 0 9.93-1.64 13.96-4.75l3.55 4.58c-5.12 3.98-11.18 6-17.56 6z"/>
    </g>
  </g>
</svg>
