<svg xmlns="http://www.w3.org/2000/svg" width="400" height="200" fill="none" viewBox="0 0 400 200">
  <path fill="#fff" d="M0 9.338C0 4.206 3.663 0 9.554 0c6.177 0 9.553 4.42 9.553 9.552 0 5.703-4.166 9.125-9.481 9.125C3.879 18.677 0 14.827 0 9.338m.072 17.109c0-.856.503-1.497 1.508-1.497h16.09c.863 0 1.437.641 1.437 1.497v24.45c0 4.135 2.37 8.982 9.77 8.982 7.183 0 10.918-4.42 10.918-13.472v-1.925l7.614 14.4 1.006 4.918S40.945 71 27.368 71C20.616 71 .144 69.93.144 47.69V26.447z"/>
  <path fill="#fff" d="m48.343 63.8 7.614-19.532 2.443-2.424v3.422c0 8.198 4.022 14.542 14.438 14.542C82.32 59.808 89 54.462 89 46.193c0-4.206-2.083-7.556-2.083-7.556l10.775 5.346.934 12.974s-7.183 13.972-27.368 13.972c-15.732 0-22.915-7.129-22.915-7.129"/>
  <path fill="#fff" d="M48.343 63.8s-8.62-6.558-8.62-18.748v-35c0-2.78 1.796-5.276 9.482-5.276 8.333 0 9.267 3.208 9.267 5.632V24.95h14.797c1.077 0 1.508.641 1.508 1.568v8.697c0 .784-.359 1.497-1.293 1.497h-9.912c-2.514 0-5.172-.998-5.172-.998v5.845c0 7.343-1.868 14.827-10.057 22.241m50.283-6.843 2.37-25.592 1.078-4.42s4.669 6.773 16.593 28.586c7.542-13.687 12.427-30.01 12.427-30.01.36-1.141 1.221-1.355 2.514-1.07l8.19 2.495c1.005.356 1.507.713 1.005 2.566-6.824 19.603-17.456 35.857-17.456 35.857-2.083 2.993-4.166 5.56-11.062 5.56-5.603 0-7.542-1.854-9.482-4.776z"/>
  <path fill="#fff" d="m98.626 56.957-12.714-19.96c-.79-1.426-1.365-2.281-1.365-3.992 0-2.495 1.293-4.277 5.674-6.986.934-.641 4.382-1.996 7.184-1.996 3.735 0 6.536 3.85 6.536 11.905 0 13.188-5.315 21.029-5.315 21.029"/>
</svg>
