<svg xmlns="http://www.w3.org/2000/svg" width="21.333" height="21.333" version="1.0" viewBox="0 0 16 16">
  <path d="m5.255 1.203.005 1.1 1.89 1.08 1.891 1.079.005 3.321.005 3.322.974.553c1.025.58 1.2.666 1.496.727s.602.03.814-.084c.137-.075.292-.24.367-.39.134-.272.123-.032.123-3.076 0-3.072.012-2.803-.14-3.262-.29-.875-.988-1.763-1.764-2.245C10.785 3.243 5.314.126 5.278.112c-.023-.01-.026.122-.023 1.09"/>
  <path d="m3.151 7.428.005 5.412 2.54 1.45c1.396.799 2.549 1.456 2.56 1.461.016.007.022-1.08.022-5.4v-5.41L5.72 3.482a556 556 0 0 0-2.565-1.463c-.004 0-.006 2.435-.004 5.41"/>
</svg>
