<svg xmlns="http://www.w3.org/2000/svg" xmlns:xlink="http://www.w3.org/1999/xlink" fill="none" stroke-linecap="square" stroke-miterlimit="10" viewBox="0 0 960 540">
  <defs>
    <path id="b" fill="#e03875" d="M263.273 122.113a3.67 3.67 0 0 1 3.672-3.672h110.136a3.67 3.67 0 0 1 3.672 3.672v295.774a3.67 3.67 0 0 1-3.672 3.672H266.945a3.67 3.67 0 0 1-3.672-3.672z"/>
  </defs>
  <clipPath id="a">
    <path d="M0 0h960v540H0z"/>
  </clipPath>
  <g clip-path="url(#a)">
    <path fill="#fff" fill-rule="evenodd" d="M0 0h960v540H0z"/>
    <use xlink:href="#b" fill-opacity=".056" fill-rule="evenodd"/>
    <path fill="#e03875" fill-opacity=".056" fill-rule="evenodd" d="M263.273 127.916a9.475 9.475 0 0 1 9.475-9.475H772.57a9.476 9.476 0 0 1 9.476 9.475v284.168a9.475 9.475 0 0 1-9.476 9.475H272.75a9.475 9.475 0 0 1-9.476-9.475z"/>
    <use xlink:href="#b" fill-opacity=".056" fill-rule="evenodd"/>
    <path fill="#fff" fill-rule="evenodd" d="M681.016 145.971c0-.618.501-1.12 1.12-1.12h38.075a1.12 1.12 0 0 1 1.12 1.12v38.075a1.12 1.12 0 0 1-1.12 1.12h-38.075a1.12 1.12 0 0 1-1.12-1.12z"/>
    <path stroke="#d6d6d6" stroke-linecap="butt" stroke-miterlimit="400" d="M681.016 145.971c0-.618.501-1.12 1.12-1.12h38.075a1.12 1.12 0 0 1 1.12 1.12v38.075a1.12 1.12 0 0 1-1.12 1.12h-38.075a1.12 1.12 0 0 1-1.12-1.12z"/>
    <path d="M665.003 187.469h72.346v33.89h-72.346z"/>
    <path fill="#000" d="M689.393 192.426v1.579h-2.563v6.984h-1.89v-6.984h-2.563v-1.579zm2.457 2.188q1.375 0 2.047.453t.672 1.281v3.328q0 .375.046.75.047.375.172.563h-1.734q-.047-.14-.078-.281-.031-.157-.047-.313-.36.375-.89.578-.516.188-1.188.188-.969 0-1.547-.485-.563-.484-.563-1.375 0-.875.532-1.328.547-.468 1.968-.625.985-.093 1.297-.234.328-.156.328-.531 0-.407-.25-.61-.234-.218-.843-.218-.532 0-.813.234-.281.219-.328.703h-1.703q.062-1.016.828-1.547.781-.531 2.094-.531m-1.406 4.61q0 .374.25.593.25.203.796.203.672 0 1.016-.36.36-.359.36-1.046v-.656q-.157.125-.407.187-.25.047-.89.14-.594.079-.86.313-.265.22-.265.625m7.984-4.61q1.266 0 1.953.5.703.5.797 1.484h-1.625q-.047-.437-.344-.64-.281-.203-.828-.203-.484 0-.719.156-.218.14-.218.422t.296.468q.297.188 1.188.36 1.422.265 1.906.703.5.437.5 1.14 0 1.047-.781 1.61-.766.547-2.047.547-1.297 0-2.078-.547t-.844-1.64h1.625q0 .484.375.765t.938.281q.5 0 .797-.219.312-.218.312-.578 0-.328-.406-.53-.39-.204-1.469-.423-1.078-.219-1.547-.61-.469-.39-.469-1.062 0-.984.688-1.484.703-.5 2-.5m5.773-2.188v4.594l2.141-2.234h2.016l-2.344 2.281 2.61 3.922h-2.063l-1.703-2.766-.657.625v2.141h-1.718v-8.563zm12.803 0 3.203 8.563h-1.953l-.64-1.906h-3.204l-.672 1.906h-1.906l3.25-8.563zm-.984 2.11-1.125 3.14h2.218l-1.078-3.14z"/>
    <path fill="#000" fill-rule="evenodd" d="m700.928 158.073-7.248 3.625a.52.52 0 0 0-.295.476c0 .206.11.384.295.476l7.248 3.625a.6.6 0 0 0 .249.068.6.6 0 0 0 .248-.068l7.248-3.625a.52.52 0 0 0 .295-.476.52.52 0 0 0-.295-.476l-7.248-3.625a.57.57 0 0 0-.497 0m.249 1.088 6.025 3.013-6.025 3.014-6.025-3.014zm-6.999 6.163a.534.534 0 0 0-.725.226.533.533 0 0 0 .227.725l7.248 3.625a.6.6 0 0 0 .249.068.6.6 0 0 0 .248-.068l7.248-3.625a.53.53 0 0 0 .227-.725.534.534 0 0 0-.725-.226l-6.998 3.488zm0 3.624a.535.535 0 0 0-.725.227.533.533 0 0 0 .227.725l7.248 3.625a.6.6 0 0 0 .249.068.6.6 0 0 0 .248-.068l7.248-3.625a.53.53 0 0 0 .227-.725.535.535 0 0 0-.725-.227l-6.998 3.49z"/>
    <path d="M225.352 259.964h38.551"/>
    <path stroke="#e03875" stroke-linecap="round" stroke-linejoin="round" stroke-width="3" d="M225.352 259.964h38.551"/>
    <path fill="#dc477d" fill-rule="evenodd" d="M177.954 237.581c0-.727.59-1.316 1.317-1.316h44.765a1.317 1.317 0 0 1 1.316 1.316v44.765c0 .727-.59 1.317-1.316 1.317H179.27c-.728 0-1.317-.59-1.317-1.317z"/>
    <path fill="#fff" fill-rule="evenodd" d="M201.788 273.226c-7.301.006-13.225-5.927-13.231-13.252-.006-7.324 5.908-13.267 13.21-13.273a13.2 13.2 0 0 1 8.965 3.506l-3.137 3.292a8.67 8.67 0 0 0-12.272.623c-3.217 3.572-2.939 9.083.622 12.31a8.67 8.67 0 0 0 11.65 0l3.137 3.293a13.15 13.15 0 0 1-8.944 3.5m10.639-6.633a1.085 1.085 0 0 1-1.084-1.087c0-.6.485-1.087 1.084-1.087a1.088 1.088 0 0 1 0 2.174"/>
    <path fill="#fff" fill-rule="evenodd" d="M201.704 262.837a2.867 2.867 0 0 1-2.863-2.871 2.867 2.867 0 0 1 2.863-2.872 2.867 2.867 0 0 1 2.862 2.872 2.87 2.87 0 0 1-2.862 2.871m11.963.041a1.085 1.085 0 0 1-1.084-1.087c0-.6.486-1.087 1.084-1.087s1.084.487 1.084 1.087a1.09 1.09 0 0 1-1.084 1.087m-3.219-.123a1.085 1.085 0 0 1-1.084-1.087 1.085 1.085 0 1 1 2.167 0c0 .6-.485 1.087-1.083 1.087m3.219-3.53a1.085 1.085 0 0 1-1.084-1.087c0-.6.486-1.087 1.084-1.087s1.084.486 1.084 1.087a1.09 1.09 0 0 1-1.084 1.087m-3.219.123a1.085 1.085 0 0 1-1.084-1.087c0-.6.485-1.087 1.084-1.087.598 0 1.083.487 1.083 1.087v.003a1.085 1.085 0 0 1-1.083 1.084m2.042-3.778a1.085 1.085 0 0 1-1.087-1.085 1.085 1.085 0 0 1 1.081-1.09 1.085 1.085 0 0 1 1.087 1.085v.002c0 .6-.484 1.086-1.082 1.087m94.107-78.346c0-.619.501-1.12 1.12-1.12h38.075a1.12 1.12 0 0 1 1.12 1.12v38.075a1.12 1.12 0 0 1-1.12 1.12h-38.075a1.12 1.12 0 0 1-1.12-1.12z"/>
    <path stroke="#d6d6d6" stroke-linecap="butt" stroke-miterlimit="400" d="M306.596 177.223c0-.619.501-1.12 1.12-1.12h38.075a1.12 1.12 0 0 1 1.12 1.12v38.075a1.12 1.12 0 0 1-1.12 1.12h-38.075a1.12 1.12 0 0 1-1.12-1.12z"/>
    <path d="M290.583 218.72h72.346v33.89h-72.346z"/>
    <path fill="#000" d="M303.455 223.475q1.547 0 2.484.719.938.718.938 2.03h-1.813q-.046-.64-.453-.968-.39-.328-1.234-.328-.578 0-.953.266-.36.25-.36.718 0 .313.157.47.156.155.625.343.468.172 2.062.547 1.063.25 1.656.875.61.61.61 1.547 0 1.25-.938 2t-2.625.75q-1.61 0-2.64-.797-1.016-.797-1.016-2.203v-.047h1.828q0 .797.516 1.187.531.39 1.375.39.765 0 1.219-.265.453-.281.453-.797 0-.422-.36-.687-.343-.266-1.11-.453-.983-.22-1.78-.47t-1.328-.812-.532-1.437q0-1.156.922-1.86.938-.718 2.297-.718m7.522 2.39q1.375 0 2.203.954.828.937.828 2.421l-.016.313h-4.484q.047.797.422 1.187.39.391 1.093.391.47 0 .86-.234.39-.25.5-.578h1.5q-.344 1.046-1.063 1.578-.718.515-1.843.515-1.438 0-2.313-.906-.86-.906-.86-2.36 0-1.39.891-2.327.89-.954 2.282-.954m-1.47 2.61h2.782q-.125-.688-.453-1-.313-.328-.922-.328-.61 0-.984.36-.36.343-.422.968m9.11-2.61q.11 0 .203.016t.172.047v1.578q-.14-.031-.281-.031-.14-.016-.328-.016-.86 0-1.281.531-.407.516-.407 1.407v2.843h-1.687v-6.203h1.61v1.157h.03q.266-.61.797-.97.547-.359 1.172-.359m2.395.172 1.312 4.235h.031l1.297-4.235h1.703l-2.109 6.203h-1.89l-2.126-6.203zm6.802-2.36v1.392h-1.703v-1.391zm0 2.36v6.203h-1.703v-6.203zm4.313-.172q1.203 0 2.016.625.828.625.906 1.735h-1.672q-.078-.531-.406-.797-.313-.281-.86-.281-.687 0-1.078.562-.375.563-.375 1.453t.375 1.438q.375.531 1.047.531.563 0 .906-.328.36-.328.453-.938h1.641q-.172 1.22-.969 1.891-.78.656-2.015.656-1.39 0-2.266-.89-.875-.89-.875-2.297 0-1.5.86-2.422.859-.938 2.312-.938m6.781 0q1.375 0 2.203.954.828.937.828 2.421l-.015.313h-4.485q.047.797.422 1.187.39.391 1.094.391.469 0 .86-.234.39-.25.5-.578h1.5q-.344 1.046-1.063 1.578-.719.515-1.844.515-1.437 0-2.312-.906-.86-.906-.86-2.36 0-1.39.89-2.327.892-.954 2.282-.954m-1.469 2.61h2.782q-.125-.688-.453-1-.313-.328-.922-.328-.61 0-.985.36-.36.343-.422.968m13.272-4.797 3.203 8.562h-1.953l-.64-1.906h-3.204l-.672 1.906h-1.906l3.25-8.562zm-.984 2.11-1.125 3.14h2.218l-1.078-3.14z"/>
    <path fill="#000" fill-rule="evenodd" d="m319.321 192.347.003-.02 6.828 3.49v8.493l-6.278-3.21a1.02 1.02 0 0 1-.553-.93zm6.987-4.207a.99.99 0 0 1 .894 0l6.238 3.19-6.684 3.418-6.686-3.418zm7.88 4.186.002.02v7.832c0 .393-.214.746-.56.92l-6.272 3.208v-8.489zm-14.855 9.875 6.43 3.288a2.17 2.17 0 0 0 1.978 0l6.428-3.287a2.25 2.25 0 0 0 1.226-2.024v-7.831c0-.864-.47-1.64-1.225-2.023l-6.429-3.287h-.002a2.18 2.18 0 0 0-1.968 0l-6.429 3.286a2.25 2.25 0 0 0-1.227 2.024v7.82a2.25 2.25 0 0 0 1.218 2.034"/>
    <path fill="#fff" fill-rule="evenodd" d="M306.596 268.437c0-.619.501-1.12 1.12-1.12h38.075a1.12 1.12 0 0 1 1.12 1.12v38.075a1.12 1.12 0 0 1-1.12 1.12h-38.075a1.12 1.12 0 0 1-1.12-1.12z"/>
    <path stroke="#d6d6d6" stroke-linecap="butt" stroke-miterlimit="400" d="M306.596 268.437c0-.619.501-1.12 1.12-1.12h38.075a1.12 1.12 0 0 1 1.12 1.12v38.075a1.12 1.12 0 0 1-1.12 1.12h-38.075a1.12 1.12 0 0 1-1.12-1.12z"/>
    <path d="M290.583 309.934h72.346v33.89h-72.346z"/>
    <path fill="#000" d="M303.34 314.689q1.548 0 2.485.719.938.718.938 2.03h-1.813q-.047-.64-.453-.968-.39-.328-1.234-.328-.578 0-.953.266-.36.25-.36.718 0 .313.156.469.157.156.625.344.47.172 2.063.547 1.062.25 1.656.875.61.609.61 1.547 0 1.25-.938 2t-2.625.75q-1.61 0-2.64-.797-1.016-.797-1.016-2.203v-.047h1.828q0 .797.516 1.187.53.39 1.375.39.765 0 1.218-.265.453-.281.453-.797 0-.422-.359-.687-.344-.266-1.11-.453-.984-.22-1.78-.47-.797-.25-1.329-.812t-.531-1.437q0-1.156.922-1.86.937-.718 2.297-.718m7.522 2.39q1.375 0 2.203.954.829.937.829 2.421l-.016.313h-4.484q.046.797.421 1.187.391.391 1.094.391.469 0 .86-.234.39-.25.5-.578h1.5q-.344 1.046-1.063 1.578-.719.515-1.844.515-1.437 0-2.312-.906-.86-.906-.86-2.36 0-1.39.891-2.327.89-.954 2.281-.954m-1.468 2.61h2.78q-.124-.688-.452-1-.313-.328-.922-.328-.61 0-.985.359-.359.344-.421.969m9.109-2.61q.11 0 .203.016t.172.047v1.578q-.14-.031-.281-.031-.141-.016-.328-.016-.86 0-1.282.531-.406.516-.406 1.407v2.843h-1.687v-6.203h1.609v1.157h.031q.266-.61.797-.97.547-.359 1.172-.359m2.394.172 1.313 4.235h.031l1.297-4.235h1.703l-2.11 6.203h-1.89l-2.125-6.203zm6.803-2.36v1.392h-1.703v-1.391zm0 2.36v6.203h-1.703v-6.203zm4.313-.172q1.203 0 2.015.625.828.625.907 1.735h-1.672q-.078-.531-.407-.797-.312-.281-.859-.281-.687 0-1.078.562-.375.563-.375 1.453t.375 1.438q.375.531 1.047.531.562 0 .906-.328.36-.328.453-.938h1.64q-.171 1.22-.968 1.891-.781.656-2.016.656-1.39 0-2.265-.89-.875-.891-.875-2.297 0-1.5.86-2.422.859-.938 2.312-.938m6.78 0q1.376 0 2.204.954.828.937.828 2.421l-.015.313h-4.485q.047.797.422 1.187.39.391 1.094.391.469 0 .86-.234.39-.25.5-.578h1.5q-.345 1.046-1.063 1.578-.72.515-1.844.515-1.438 0-2.313-.906-.859-.906-.859-2.36 0-1.39.89-2.327.891-.954 2.282-.954m-1.468 2.61h2.781q-.125-.688-.453-1-.312-.328-.922-.328-.609 0-.984.359-.36.344-.422.969m13.1-4.797q1.312 0 1.984.516.688.515.688 1.593 0 .657-.313 1.094-.297.438-.844.703.782.235 1.172.797.39.547.39 1.375 0 1.188-.858 1.844-.844.64-2.11.64h-4.203v-8.562zm-.266 3.469q.5 0 .797-.25.313-.266.313-.782 0-.5-.313-.734-.312-.25-.922-.25h-1.812v2.016zm.125 3.625q.625 0 .985-.266.359-.281.359-.86 0-.593-.344-.906-.344-.312-.969-.312h-2.093v2.344z"/>
    <path fill="#000" fill-rule="evenodd" d="m319.321 283.561.003-.02 6.828 3.49v8.493l-6.278-3.21a1.02 1.02 0 0 1-.553-.93zm6.987-4.207a.99.99 0 0 1 .894 0l6.238 3.19-6.684 3.417-6.686-3.418zm7.88 4.186.002.02v7.832c0 .393-.214.746-.56.92l-6.272 3.207v-8.488zm-14.855 9.875 6.43 3.288a2.17 2.17 0 0 0 1.978 0l6.428-3.287a2.25 2.25 0 0 0 1.226-2.024v-7.832a2.25 2.25 0 0 0-1.225-2.022l-6.429-3.287h-.002a2.18 2.18 0 0 0-1.968 0l-6.429 3.286a2.25 2.25 0 0 0-1.227 2.023v7.82a2.25 2.25 0 0 0 1.218 2.035"/>
    <path fill="#fff" fill-rule="evenodd" d="M529.707 146.034c0-.619.502-1.12 1.12-1.12h38.075a1.12 1.12 0 0 1 1.12 1.12v38.075a1.12 1.12 0 0 1-1.12 1.12h-38.075a1.12 1.12 0 0 1-1.12-1.12z"/>
    <path stroke="#d6d6d6" stroke-linecap="butt" stroke-miterlimit="400" d="M529.707 146.034c0-.619.502-1.12 1.12-1.12h38.075a1.12 1.12 0 0 1 1.12 1.12v38.075a1.12 1.12 0 0 1-1.12 1.12h-38.075a1.12 1.12 0 0 1-1.12-1.12z"/>
    <path d="M500.858 187.408h98.016v33.89h-98.016z"/>
    <path fill="#000" d="M510.774 192.162q1.453 0 2.485.828 1.031.813 1.203 2.25h-1.813q-.125-.671-.671-1.078-.547-.422-1.204-.422-1.109 0-1.718.813-.61.797-.61 2.125 0 1.266.594 2.062.61.797 1.734.797.813 0 1.313-.5.515-.5.625-1.406h1.828q-.156 1.625-1.188 2.563-1.015.937-2.578.937-1.234 0-2.203-.562t-1.5-1.594q-.515-1.031-.515-2.297 0-1.969 1.156-3.234 1.156-1.282 3.062-1.282m11.108.203v1.579h-2.563v6.984h-1.89v-6.984h-2.563v-1.579zm3.746-.203q1.547 0 2.484.72.938.718.938 2.03h-1.813q-.047-.64-.453-.968-.39-.329-1.234-.329-.578 0-.953.266-.36.25-.36.719 0 .312.156.469.157.156.625.343.47.172 2.063.547 1.062.25 1.656.875.61.61.61 1.547 0 1.25-.938 2t-2.625.75q-1.61 0-2.64-.797-1.016-.797-1.016-2.203v-.047h1.828q0 .797.516 1.188.53.39 1.375.39.765 0 1.218-.265.453-.282.453-.797 0-.422-.359-.688-.344-.265-1.11-.453-.984-.219-1.78-.469-.797-.25-1.329-.812-.53-.563-.53-1.438 0-1.156.921-1.859.937-.719 2.297-.719m10.058.203v8.563h-1.89v-8.563zm5.024 2.188q1.187 0 1.719.61.547.593.547 1.89v3.875h-1.704v-3.563q0-.718-.25-1.093t-.843-.375q-.703 0-1.016.422-.312.421-.312 1.296v3.313h-1.688v-6.203h1.61v.86h.03q.313-.5.813-.766t1.094-.266m6.098 0q1.265 0 1.953.5.703.5.797 1.484h-1.625q-.047-.437-.344-.64-.281-.203-.828-.203-.485 0-.72.156-.218.14-.218.422t.297.468q.297.188 1.188.36 1.421.265 1.906.703.5.437.5 1.14 0 1.047-.781 1.61-.766.547-2.047.547-1.297 0-2.078-.547-.782-.547-.844-1.64h1.625q0 .484.375.765t.937.281q.5 0 .797-.219.313-.218.313-.578 0-.328-.407-.53-.39-.204-1.468-.423t-1.547-.61q-.469-.39-.469-1.062 0-.984.688-1.484.703-.5 2-.5m6.07-1.688v1.86h1.25v1.14h-1.25v3.11q0 .375.14.531t.579.156q.14 0 .265-.015l.266-.032v1.329q-.219.03-.485.046-.25.016-.5.016-1.109 0-1.546-.375-.422-.39-.422-1.062v-3.704h-1.032v-1.14h1.032v-1.86zm4.912 1.688q1.375 0 2.047.453t.672 1.281v3.328q0 .375.047.75.046.375.171.563h-1.734q-.047-.14-.078-.281-.031-.157-.047-.313-.36.375-.89.578-.516.188-1.188.188-.969 0-1.547-.485-.562-.484-.562-1.375 0-.875.53-1.328.548-.468 1.97-.625.984-.093 1.296-.234.329-.156.329-.531 0-.407-.25-.61-.235-.218-.844-.218-.531 0-.813.234-.28.219-.328.703h-1.703q.063-1.016.828-1.547.781-.531 2.094-.531m-1.406 4.61q0 .374.25.593.25.203.797.203.671 0 1.015-.36.36-.359.36-1.046v-.656q-.157.125-.407.187-.25.047-.89.14-.594.079-.86.313-.265.22-.265.625m9-4.61q1.187 0 1.718.61.547.593.547 1.89v3.875h-1.703v-3.563q0-.718-.25-1.093t-.844-.375q-.703 0-1.015.422-.313.421-.313 1.296v3.313h-1.687v-6.203h1.61v.86h.03q.313-.5.813-.766t1.094-.266m6.535 0q1.203 0 2.016.625.828.625.906 1.734h-1.672q-.078-.53-.406-.797-.313-.28-.86-.28-.687 0-1.078.562-.375.562-.375 1.453 0 .89.375 1.437.375.532 1.047.532.563 0 .906-.329.36-.328.453-.937h1.641q-.172 1.219-.969 1.89-.781.657-2.015.657-1.391 0-2.266-.89-.875-.891-.875-2.298 0-1.5.86-2.422.859-.937 2.312-.937m6.781 0q1.375 0 2.203.953.828.938.828 2.422l-.015.312h-4.485q.047.797.422 1.188.39.39 1.094.39.469 0 .86-.234.39-.25.5-.578h1.5q-.344 1.047-1.063 1.578-.719.516-1.844.516-1.437 0-2.312-.906-.86-.907-.86-2.36 0-1.39.89-2.328.892-.953 2.282-.953m-1.469 2.61h2.782q-.125-.688-.453-1-.313-.329-.922-.329-.61 0-.985.36-.36.343-.422.968m13.272-4.798 3.203 8.563h-1.953l-.64-1.906h-3.204l-.672 1.906h-1.906l3.25-8.563zm-.985 2.11-1.125 3.14h2.22l-1.079-3.14zm-59.346 11.689q-.64 1.188-.985 2.578-.328 1.391-.328 2.86t.313 2.844q.312 1.359.984 2.671h-1.422q-.765-1.28-1.172-2.671t-.406-2.735q0-1.39.406-2.906t1.172-2.64zm2.629.203v6.985h4.172v1.578h-6.063v-8.563zm7.693 2.188q1.375 0 2.203.953.828.938.828 2.422l-.015.312h-4.485q.047.797.422 1.188.39.39 1.094.39.469 0 .86-.234.39-.25.5-.578h1.5q-.344 1.047-1.063 1.578-.719.516-1.844.516-1.437 0-2.312-.906-.86-.907-.86-2.36 0-1.39.89-2.328.891-.953 2.282-.953m-1.469 2.61h2.782q-.125-.688-.454-1-.312-.329-.921-.329-.61 0-.985.36-.36.343-.422.968m8.344-2.61q1.375 0 2.047.453t.672 1.281v3.328q0 .375.047.75t.172.563h-1.735q-.047-.14-.078-.281-.031-.157-.047-.313-.36.375-.89.578-.516.188-1.188.188-.969 0-1.547-.485-.562-.484-.562-1.375 0-.875.53-1.328.548-.468 1.97-.625.984-.093 1.297-.234.328-.156.328-.531 0-.407-.25-.61-.235-.218-.844-.218-.531 0-.813.234-.28.219-.328.703h-1.703q.063-1.016.828-1.547.782-.531 2.094-.531m-1.406 4.61q0 .374.25.593.25.203.797.203.672 0 1.015-.36.36-.359.36-1.046v-.656q-.157.125-.407.187-.25.047-.89.14-.594.079-.86.313-.265.22-.265.625m11.5-6.798v8.563h-1.625v-.797h-.031q-.266.484-.75.734-.485.235-1.125.235-1.266 0-2.032-.938-.75-.937-.75-2.39 0-1.39.735-2.297.75-.922 2.015-.922.578 0 1.047.234.485.235.781.688h.032v-3.11zm-4.61 5.454q0 .859.391 1.437.406.563 1.11.563.703 0 1.078-.516.375-.531.375-1.5 0-.906-.375-1.438-.36-.53-1.094-.53-.703 0-1.094.53-.39.532-.39 1.454m8.752-3.266q1.375 0 2.204.953.828.938.828 2.422l-.016.312h-4.484q.047.797.422 1.188.39.39 1.093.39.469 0 .86-.234.39-.25.5-.578h1.5q-.344 1.047-1.063 1.578-.719.516-1.844.516-1.437 0-2.312-.906-.86-.907-.86-2.36 0-1.39.891-2.328.89-.953 2.281-.953m-1.468 2.61h2.78q-.124-.688-.452-1-.313-.329-.922-.329-.61 0-.984.36-.36.343-.422.968m9.109-2.61q.11 0 .203.016.094.015.172.046v1.579q-.14-.032-.281-.032-.14-.015-.328-.015-.86 0-1.282.531-.406.516-.406 1.406v2.844h-1.687v-6.203h1.609v1.156h.031q.266-.61.797-.969.547-.359 1.172-.359m1.748-2.39q.781 1.265 1.188 2.656.406 1.39.406 2.75 0 1.375-.422 2.906-.406 1.515-1.172 2.64h-1.422q.656-1.25.969-2.609.328-1.375.328-2.812 0-1.5-.328-2.875-.313-1.391-.969-2.657z"/>
    <path fill="#000" fill-rule="evenodd" d="m542.433 161.158.002-.02 6.829 3.49v8.493l-6.279-3.21a1.02 1.02 0 0 1-.552-.93zm6.987-4.207a.99.99 0 0 1 .894 0l6.238 3.19-6.685 3.418-6.685-3.418zm7.879 4.186.003.02v7.832a1.02 1.02 0 0 1-.56.92l-6.272 3.208v-8.489zm-14.854 9.875 6.43 3.288a2.17 2.17 0 0 0 1.978 0l6.428-3.287a2.25 2.25 0 0 0 1.226-2.024v-7.831c0-.864-.47-1.64-1.225-2.023l-6.43-3.287h-.001a2.18 2.18 0 0 0-1.969 0l-6.428 3.286a2.25 2.25 0 0 0-1.227 2.024v7.82a2.25 2.25 0 0 0 1.218 2.034"/>
    <path fill="#fff" fill-rule="evenodd" d="M529.707 328.586c0-.618.502-1.12 1.12-1.12h38.075a1.12 1.12 0 0 1 1.12 1.12v38.076a1.12 1.12 0 0 1-1.12 1.12h-38.075a1.12 1.12 0 0 1-1.12-1.12z"/>
    <path stroke="#d6d6d6" stroke-linecap="butt" stroke-miterlimit="400" d="M529.707 328.586c0-.618.502-1.12 1.12-1.12h38.075a1.12 1.12 0 0 1 1.12 1.12v38.076a1.12 1.12 0 0 1-1.12 1.12h-38.075a1.12 1.12 0 0 1-1.12-1.12z"/>
    <path d="M489.394 369.81h120.945v33.89H489.394z"/>
    <path fill="#000" d="M510.66 374.564q1.453 0 2.484.829 1.032.812 1.204 2.25h-1.813q-.125-.672-.672-1.079-.547-.421-1.203-.421-1.11 0-1.719.812-.609.797-.609 2.125 0 1.266.594 2.063.61.796 1.734.796.813 0 1.313-.5.515-.5.625-1.406h1.828q-.157 1.625-1.188 2.563-1.015.937-2.578.937-1.234 0-2.203-.562t-1.5-1.594q-.516-1.031-.516-2.297 0-1.969 1.157-3.234 1.156-1.282 3.062-1.282m11.108.204v1.578h-2.563v6.984h-1.89v-6.984h-2.563v-1.578zm3.746-.204q1.546 0 2.484.72.937.718.937 2.03h-1.812q-.047-.64-.453-.968-.39-.328-1.235-.328-.578 0-.953.265-.359.25-.359.719 0 .312.156.469t.625.343q.469.172 2.063.547 1.062.25 1.656.875.61.61.61 1.547 0 1.25-.938 2t-2.625.75q-1.61 0-2.64-.797-1.016-.797-1.016-2.203v-.047h1.828q0 .797.515 1.188.532.39 1.375.39.766 0 1.22-.265.452-.281.452-.797 0-.422-.36-.688-.343-.265-1.109-.453-.984-.218-1.78-.468-.798-.25-1.329-.813t-.531-1.437q0-1.157.922-1.86.937-.719 2.297-.719m10.058.204v8.562h-1.89v-8.562zm5.024 2.187q1.187 0 1.718.61.547.593.547 1.89v3.875h-1.703v-3.562q0-.72-.25-1.094t-.844-.375q-.703 0-1.015.422-.313.422-.313 1.297v3.312h-1.687v-6.203h1.61v.86h.03q.313-.5.813-.766t1.094-.266m6.097 0q1.266 0 1.953.5.704.5.797 1.484h-1.625q-.047-.437-.343-.64-.282-.203-.829-.203-.484 0-.718.156-.22.14-.22.422t.298.469 1.187.359q1.422.266 1.907.703.5.438.5 1.14 0 1.048-.782 1.61-.765.547-2.047.547-1.296 0-2.078-.547-.78-.547-.843-1.64h1.625q0 .484.375.765t.937.281q.5 0 .797-.218.312-.22.312-.579 0-.328-.406-.53-.39-.204-1.469-.423-1.078-.218-1.546-.609-.47-.39-.47-1.063 0-.984.688-1.484.703-.5 2-.5m6.07-1.687v1.859h1.25v1.14h-1.25v3.11q0 .375.141.531t.578.156q.141 0 .266-.015l.266-.031v1.328q-.22.031-.485.047-.25.015-.5.015-1.11 0-1.547-.375-.422-.39-.422-1.062v-3.703h-1.03v-1.141h1.03v-1.86zm4.913 1.687q1.375 0 2.047.453.671.453.671 1.281v3.329q0 .375.047.75t.172.562h-1.734q-.047-.14-.078-.281-.032-.156-.047-.313-.36.375-.89.578-.516.188-1.188.188-.969 0-1.547-.484-.563-.485-.563-1.375 0-.875.532-1.329.546-.468 1.968-.625.985-.093 1.297-.234.328-.156.328-.531 0-.406-.25-.61-.234-.218-.843-.218-.532 0-.813.234-.281.219-.328.703h-1.703q.062-1.015.828-1.547.781-.53 2.094-.53m-1.407 4.61q0 .374.25.593.25.203.797.203.672 0 1.016-.359.36-.36.36-1.047v-.656q-.157.125-.407.187-.25.047-.89.141-.594.078-.86.312-.266.22-.266.625m9-4.61q1.188 0 1.72.61.546.593.546 1.89v3.875h-1.703v-3.562q0-.72-.25-1.094t-.844-.375q-.703 0-1.015.422-.313.422-.313 1.297v3.312h-1.687v-6.203h1.609v.86h.031q.313-.5.813-.766t1.093-.266m6.536 0q1.203 0 2.015.625.828.625.907 1.734h-1.672q-.078-.53-.407-.796-.312-.282-.859-.282-.687 0-1.078.563-.375.562-.375 1.453 0 .89.375 1.437.375.532 1.047.532.562 0 .906-.328.36-.329.453-.938h1.64q-.171 1.219-.968 1.89-.781.657-2.016.657-1.39 0-2.265-.89-.875-.891-.875-2.298 0-1.5.86-2.421.859-.938 2.312-.938m6.78 0q1.376 0 2.204.953.828.938.828 2.422l-.015.313h-4.485q.047.796.422 1.187.39.39 1.094.39.469 0 .86-.234.39-.25.5-.578h1.5q-.345 1.047-1.063 1.578-.72.516-1.844.516-1.438 0-2.313-.906-.859-.907-.859-2.36 0-1.39.89-2.328.891-.953 2.282-.953m-1.468 2.61h2.781q-.125-.688-.453-1-.312-.329-.922-.329-.609 0-.984.36-.36.343-.422.968m13.1-4.797q1.312 0 1.984.515.688.516.688 1.594 0 .656-.313 1.094-.297.437-.844.703.782.234 1.172.797.39.547.39 1.375 0 1.187-.859 1.843-.843.641-2.109.641h-4.203v-8.562zm-.266 3.468q.5 0 .797-.25.312-.265.312-.78 0-.5-.312-.735-.313-.25-.922-.25h-1.812v2.015zm.125 3.625q.625 0 .984-.265.36-.282.36-.86 0-.593-.344-.906-.344-.312-.969-.312h-2.093v2.343zm-64.514 6.704q-.64 1.188-.984 2.579-.328 1.39-.328 2.859t.312 2.844q.313 1.36.985 2.672h-1.422q-.766-1.282-1.172-2.672t-.406-2.735q0-1.39.406-2.906t1.172-2.64zm6.754.204v1.578h-4.125v1.984h3.578v1.453h-3.578v3.547h-1.89v-8.562zm3.422 2.187q1.469 0 2.344.906.875.891.875 2.375 0 1.485-.89 2.375-.876.891-2.329.891-1.437 0-2.328-.89-.875-.907-.875-2.376t.86-2.375q.874-.906 2.343-.906m-1.5 3.281q0 .985.406 1.485t1.094.5q.735 0 1.125-.516.39-.531.39-1.469 0-.922-.39-1.453-.375-.547-1.125-.547-.687 0-1.094.5-.406.5-.406 1.5m7.58-5.468v8.562h-1.703v-8.562zm3.094 0v8.562h-1.703v-8.562zm4.344 2.187q1.469 0 2.344.906.875.891.875 2.375 0 1.485-.891 2.375-.875.891-2.328.891-1.438 0-2.328-.89-.875-.907-.875-2.376t.859-2.375q.875-.906 2.344-.906m-1.5 3.281q0 .985.406 1.485t1.094.5q.734 0 1.125-.516.39-.531.39-1.469 0-.922-.39-1.453-.375-.547-1.125-.547-.688 0-1.094.5t-.406 1.5m7.049-3.109 1.14 4.203h.016l1.031-4.203h1.656l1.063 4.203h.015l1.157-4.203h1.75l-1.969 6.203h-1.75l-1.094-4.172h-.031l-1.063 4.172h-1.75l-1.968-6.203zm11.408-.172q1.375 0 2.203.953.828.938.828 2.422l-.016.313h-4.484q.047.796.422 1.187.39.39 1.094.39.468 0 .859-.234.39-.25.5-.578h1.5q-.344 1.047-1.062 1.578-.72.516-1.844.516-1.438 0-2.313-.906-.86-.907-.86-2.36 0-1.39.892-2.328.89-.953 2.28-.953m-1.469 2.61h2.781q-.125-.688-.453-1-.312-.329-.922-.329t-.984.36q-.36.343-.422.968m9.11-2.61q.109 0 .203.016.093.015.171.047v1.578q-.14-.032-.28-.032-.141-.015-.329-.015-.86 0-1.281.531-.406.516-.406 1.406v2.844h-1.688v-6.203h1.61v1.156h.03q.266-.61.798-.969.546-.359 1.171-.359m1.747-2.39q.782 1.265 1.188 2.656.406 1.39.406 2.75 0 1.375-.422 2.906-.406 1.516-1.172 2.64h-1.421q.656-1.25.968-2.609.328-1.375.328-2.812 0-1.5-.328-2.875-.312-1.39-.968-2.657z"/>
    <path fill="#000" fill-rule="evenodd" d="m542.433 343.711.002-.021 6.829 3.49v8.493l-6.279-3.21a1.02 1.02 0 0 1-.552-.929zm6.987-4.207a.99.99 0 0 1 .894 0l6.238 3.19-6.685 3.417-6.685-3.418zm7.879 4.186.003.02v7.832a1.03 1.03 0 0 1-.56.92l-6.272 3.207v-8.488zm-14.854 9.875 6.43 3.287a2.17 2.17 0 0 0 1.978 0l6.428-3.287a2.25 2.25 0 0 0 1.226-2.023v-7.832c0-.864-.47-1.639-1.225-2.023l-6.43-3.286-.001-.001a2.18 2.18 0 0 0-1.969 0l-6.428 3.287a2.25 2.25 0 0 0-1.227 2.023v7.82a2.25 2.25 0 0 0 1.218 2.035"/>
    <path fill="#e03875" fill-rule="evenodd" d="M562.787 183.166a5.197 5.197 0 0 1 5.197-5.197h.032a5.197 5.197 0 0 1 5.197 5.197 5.197 5.197 0 0 1-5.197 5.196h-.032a5.197 5.197 0 0 1-5.197-5.196"/>
    <path fill="#fff" fill-rule="evenodd" d="M681.016 237.248c0-.618.501-1.12 1.12-1.12h38.075a1.12 1.12 0 0 1 1.12 1.12v38.075a1.12 1.12 0 0 1-1.12 1.12h-38.075a1.12 1.12 0 0 1-1.12-1.12z"/>
    <path stroke="#d6d6d6" stroke-linecap="butt" stroke-miterlimit="400" d="M681.016 237.248c0-.618.501-1.12 1.12-1.12h38.075a1.12 1.12 0 0 1 1.12 1.12v38.075a1.12 1.12 0 0 1-1.12 1.12h-38.075a1.12 1.12 0 0 1-1.12-1.12z"/>
    <path d="M665.003 278.746h72.346v33.89h-72.346z"/>
    <path fill="#000" d="M689.279 283.703v1.578h-2.563v6.985h-1.89v-6.985h-2.563v-1.578zm2.457 2.188q1.375 0 2.046.453.672.453.672 1.281v3.328q0 .375.047.75t.172.563h-1.734q-.047-.14-.078-.281-.032-.157-.047-.313-.36.375-.891.578-.516.188-1.187.188-.97 0-1.547-.485-.563-.484-.563-1.375 0-.875.531-1.328.547-.469 1.97-.625.984-.094 1.296-.234.328-.156.328-.531 0-.407-.25-.61-.234-.219-.844-.219-.53 0-.812.235-.281.219-.328.703h-1.703q.062-1.016.828-1.547.781-.531 2.094-.531m-1.407 4.61q0 .374.25.593.25.203.797.203.672 0 1.016-.36.36-.359.36-1.046v-.656q-.157.125-.407.187-.25.047-.89.14-.594.079-.86.313-.266.219-.266.625m7.985-4.61q1.265 0 1.953.5.703.5.797 1.484h-1.625q-.047-.437-.344-.64-.281-.204-.828-.204-.485 0-.719.157-.219.14-.219.422 0 .28.297.468t1.188.36q1.422.265 1.906.703.5.437.5 1.14 0 1.047-.781 1.61-.766.547-2.047.547-1.297 0-2.078-.547-.782-.547-.844-1.64h1.625q0 .484.375.765t.937.281q.5 0 .797-.219.313-.218.313-.578 0-.328-.406-.531-.391-.203-1.47-.422-1.077-.219-1.546-.61-.469-.39-.469-1.062 0-.984.688-1.484.703-.5 2-.5m5.773-2.188v4.594l2.14-2.234h2.016l-2.343 2.281 2.609 3.922h-2.063l-1.703-2.766-.656.625v2.14h-1.719v-8.562zm12.631 0q1.312 0 1.984.516.688.516.688 1.594 0 .656-.313 1.093-.297.438-.843.704.78.234 1.171.796.391.547.391 1.375 0 1.188-.86 1.844-.843.64-2.109.64h-4.203v-8.562zm-.266 3.47q.5 0 .797-.25.313-.267.313-.782 0-.5-.313-.735-.312-.25-.922-.25h-1.812v2.016zm.125 3.624q.625 0 .985-.266.36-.28.36-.859 0-.594-.345-.906-.343-.313-.968-.313h-2.094v2.344z"/>
    <path fill="#000" fill-rule="evenodd" d="m700.928 249.35-7.248 3.625a.52.52 0 0 0-.295.476c0 .206.11.384.295.476l7.248 3.625a.6.6 0 0 0 .249.068.6.6 0 0 0 .248-.068l7.248-3.625a.52.52 0 0 0 .295-.476.52.52 0 0 0-.295-.476l-7.248-3.625a.57.57 0 0 0-.497 0m.249 1.088 6.025 3.013-6.025 3.014-6.025-3.014zm-6.999 6.162a.534.534 0 0 0-.725.227.533.533 0 0 0 .227.725l7.248 3.625a.6.6 0 0 0 .249.068.6.6 0 0 0 .248-.068l7.248-3.625a.53.53 0 0 0 .227-.725.534.534 0 0 0-.725-.227l-6.998 3.49zm0 3.625a.535.535 0 0 0-.725.227.53.53 0 0 0 .227.725l7.248 3.625a.6.6 0 0 0 .249.068.6.6 0 0 0 .248-.068l7.248-3.625a.53.53 0 0 0 .227-.725.535.535 0 0 0-.725-.227l-6.998 3.49z"/>
    <path d="M529.707 165.071H477.86v91.213h-31.931"/>
    <path stroke="#dc477d" stroke-linecap="butt" stroke-linejoin="round" stroke-width="2" d="M529.707 165.071H477.86v91.213h-31.931"/>
    <path d="M529.707 347.624h-51.791v-91.339h-31.988"/>
    <path stroke="#dc477d" stroke-linecap="butt" stroke-linejoin="round" stroke-width="2" d="M529.707 347.624h-51.791v-91.339h-31.988"/>
    <path d="m445.938 256.287 83.78.126"/>
    <path stroke="#e03875" stroke-linecap="round" stroke-linejoin="round" stroke-width="2" d="m445.938 256.287 83.78.126"/>
    <path fill="#fff" fill-rule="evenodd" d="M405.623 237.25c0-.62.502-1.12 1.12-1.12h38.075a1.12 1.12 0 0 1 1.12 1.12v38.074a1.12 1.12 0 0 1-1.12 1.12h-38.075a1.12 1.12 0 0 1-1.12-1.12z"/>
    <path stroke="#d6d6d6" stroke-linecap="butt" stroke-miterlimit="400" d="M405.623 237.25c0-.62.502-1.12 1.12-1.12h38.075a1.12 1.12 0 0 1 1.12 1.12v38.074a1.12 1.12 0 0 1-1.12 1.12h-38.075a1.12 1.12 0 0 1-1.12-1.12z"/>
    <path d="M389.61 278.747h72.347v33.89H389.61z"/>
    <path fill="#000" d="M418.69 283.501q1.453 0 2.484.828 1.031.813 1.203 2.25h-1.812q-.125-.672-.672-1.078-.547-.422-1.203-.422-1.11 0-1.72.813-.608.797-.608 2.125 0 1.265.593 2.062.61.797 1.735.797.812 0 1.312-.5.516-.5.625-1.406h1.828q-.156 1.625-1.187 2.562-1.016.938-2.578.938-1.235 0-2.203-.563-.97-.562-1.5-1.593-.516-1.032-.516-2.297 0-1.97 1.156-3.235 1.156-1.28 3.063-1.28m11.107.203v1.578h-2.562v6.985h-1.891v-6.985h-2.563v-1.578zm3.746-.203q1.547 0 2.485.719t.937 2.031h-1.812q-.047-.64-.454-.969-.39-.328-1.234-.328-.578 0-.953.266-.36.25-.36.719 0 .312.157.468.156.157.625.344.469.172 2.062.547 1.063.25 1.657.875.609.61.609 1.547 0 1.25-.938 2t-2.625.75q-1.609 0-2.64-.797-1.016-.797-1.016-2.203v-.047h1.828q0 .797.516 1.187.531.391 1.375.391.766 0 1.219-.266.453-.28.453-.796 0-.422-.36-.688-.343-.266-1.109-.453-.984-.219-1.781-.469t-1.328-.812q-.532-.563-.532-1.438 0-1.156.922-1.86.938-.718 2.297-.718"/>
    <path fill="#000" fill-rule="evenodd" d="m418.349 252.374.002-.021 6.829 3.49v8.493l-6.279-3.21a1.02 1.02 0 0 1-.552-.93zm6.987-4.207a.99.99 0 0 1 .894 0l6.238 3.189-6.685 3.418-6.685-3.418zm7.879 4.186.003.02v7.832a1.03 1.03 0 0 1-.56.92l-6.272 3.207v-8.488zm-14.854 9.874 6.43 3.288a2.17 2.17 0 0 0 1.978 0l6.428-3.287a2.25 2.25 0 0 0 1.226-2.023v-7.832c0-.864-.47-1.64-1.225-2.023l-6.43-3.287h-.001a2.18 2.18 0 0 0-1.969 0l-6.428 3.286a2.25 2.25 0 0 0-1.227 2.024v7.82a2.25 2.25 0 0 0 1.218 2.034"/>
    <path fill="#fff" fill-rule="evenodd" d="M529.707 237.384c0-.618.502-1.12 1.12-1.12h38.075a1.12 1.12 0 0 1 1.12 1.12v38.075a1.12 1.12 0 0 1-1.12 1.12h-38.075a1.12 1.12 0 0 1-1.12-1.12z"/>
    <path stroke="#d6d6d6" stroke-linecap="butt" stroke-miterlimit="400" d="M529.707 237.384c0-.618.502-1.12 1.12-1.12h38.075a1.12 1.12 0 0 1 1.12 1.12v38.075a1.12 1.12 0 0 1-1.12 1.12h-38.075a1.12 1.12 0 0 1-1.12-1.12z"/>
    <path d="M489.394 278.608h120.945v33.89H489.394z"/>
    <path fill="#000" d="M510.66 283.362q1.453 0 2.484.828 1.032.813 1.204 2.25h-1.813q-.125-.671-.672-1.078-.547-.422-1.203-.422-1.11 0-1.719.813-.609.797-.609 2.125 0 1.266.594 2.062.61.797 1.734.797.813 0 1.313-.5.515-.5.625-1.406h1.828q-.157 1.625-1.188 2.563-1.015.937-2.578.937-1.234 0-2.203-.562t-1.5-1.594q-.516-1.031-.516-2.297 0-1.969 1.157-3.234 1.156-1.282 3.062-1.282m11.108.203v1.579h-2.563v6.984h-1.89v-6.984h-2.563v-1.579zm3.746-.203q1.546 0 2.484.72.937.718.937 2.03h-1.812q-.047-.64-.453-.968-.39-.329-1.235-.329-.578 0-.953.266-.359.25-.359.719 0 .312.156.469t.625.343q.469.172 2.063.547 1.062.25 1.656.875.61.61.61 1.547 0 1.25-.938 2t-2.625.75q-1.61 0-2.64-.797-1.016-.797-1.016-2.203v-.047h1.828q0 .797.515 1.188.532.39 1.375.39.766 0 1.22-.265.452-.282.452-.797 0-.422-.36-.688-.343-.265-1.109-.453-.984-.219-1.78-.469-.798-.25-1.329-.812t-.531-1.438q0-1.156.922-1.859.937-.719 2.297-.719m10.058.203v8.563h-1.89v-8.563zm5.024 2.188q1.187 0 1.718.61.547.593.547 1.89v3.875h-1.703v-3.563q0-.718-.25-1.093t-.844-.375q-.703 0-1.015.422-.313.421-.313 1.296v3.313h-1.687v-6.203h1.61v.86h.03q.313-.5.813-.766t1.094-.266m6.097 0q1.266 0 1.953.5.704.5.797 1.484h-1.625q-.047-.437-.343-.64-.282-.203-.829-.203-.484 0-.718.156-.22.14-.22.422t.298.468q.297.188 1.187.36 1.422.265 1.907.703.5.437.5 1.14 0 1.047-.782 1.61-.765.547-2.047.547-1.296 0-2.078-.547-.78-.547-.843-1.64h1.625q0 .484.375.765t.937.281q.5 0 .797-.219.312-.218.312-.578 0-.328-.406-.53-.39-.204-1.469-.423-1.078-.219-1.546-.61-.47-.39-.47-1.062 0-.984.688-1.484.703-.5 2-.5m6.07-1.688v1.86h1.25v1.14h-1.25v3.11q0 .375.141.531t.578.156q.141 0 .266-.015l.266-.032v1.329q-.22.03-.485.046-.25.016-.5.016-1.11 0-1.547-.375-.422-.39-.422-1.062v-3.704h-1.03v-1.14h1.03v-1.86zm4.913 1.688q1.375 0 2.047.453.671.453.671 1.281v3.328q0 .375.047.75t.172.563h-1.734q-.047-.14-.078-.281-.032-.157-.047-.313-.36.375-.89.578-.516.188-1.188.188-.969 0-1.547-.485-.563-.484-.563-1.375 0-.875.532-1.328.546-.468 1.968-.625.985-.093 1.297-.234.328-.156.328-.531 0-.407-.25-.61-.234-.218-.843-.218-.532 0-.813.234-.281.219-.328.703h-1.703q.062-1.016.828-1.547.781-.531 2.094-.531m-1.407 4.61q0 .374.25.593.25.203.797.203.672 0 1.016-.36.36-.359.36-1.046v-.656q-.157.125-.407.187-.25.047-.89.14-.594.079-.86.313-.266.22-.266.625m9-4.61q1.188 0 1.72.61.546.593.546 1.89v3.875h-1.703v-3.563q0-.718-.25-1.093t-.844-.375q-.703 0-1.015.422-.313.421-.313 1.296v3.313h-1.687v-6.203h1.609v.86h.031q.313-.5.813-.766t1.093-.266m6.536 0q1.203 0 2.015.625.828.625.907 1.734h-1.672q-.078-.53-.407-.797-.312-.28-.859-.28-.687 0-1.078.562-.375.562-.375 1.453 0 .89.375 1.437.375.532 1.047.532.562 0 .906-.329.36-.328.453-.937h1.64q-.171 1.219-.968 1.89-.781.657-2.016.657-1.39 0-2.265-.89-.875-.891-.875-2.298 0-1.5.86-2.422.859-.937 2.312-.937m6.78 0q1.376 0 2.204.953.828.938.828 2.422l-.015.312h-4.485q.047.797.422 1.188.39.39 1.094.39.469 0 .86-.234.39-.25.5-.578h1.5q-.345 1.047-1.063 1.578-.72.516-1.844.516-1.438 0-2.313-.906-.859-.907-.859-2.36 0-1.39.89-2.328.891-.953 2.282-.953m-1.468 2.61h2.781q-.125-.688-.453-1-.312-.329-.922-.329-.609 0-.984.36-.36.343-.422.968m13.1-4.798q1.312 0 1.984.516.688.516.688 1.594 0 .656-.313 1.094-.297.437-.844.703.782.234 1.172.797.39.546.39 1.375 0 1.187-.859 1.843-.843.641-2.109.641h-4.203v-8.563zm-.266 3.47q.5 0 .797-.25.312-.266.312-.782 0-.5-.312-.734-.313-.25-.922-.25h-1.812v2.015zm.125 3.624q.625 0 .984-.265.36-.282.36-.86 0-.594-.344-.906t-.969-.313h-2.093v2.344zm-64.514 6.705q-.64 1.188-.984 2.578-.328 1.391-.328 2.86t.312 2.844q.313 1.359.985 2.671h-1.422q-.766-1.28-1.172-2.671t-.406-2.735q0-1.39.406-2.906t1.172-2.64zm6.754.203v1.579h-4.125v1.984h3.578v1.453h-3.578v3.547h-1.89v-8.563zm3.422 2.188q1.469 0 2.344.906.875.89.875 2.375t-.89 2.375q-.876.89-2.329.89-1.437 0-2.328-.89-.875-.906-.875-2.375t.86-2.375q.874-.906 2.343-.906m-1.5 3.281q0 .985.406 1.485t1.094.5q.735 0 1.125-.516.39-.531.39-1.469 0-.922-.39-1.453-.375-.547-1.125-.547-.687 0-1.094.5-.406.5-.406 1.5m7.58-5.469v8.563h-1.703v-8.563zm3.094 0v8.563h-1.703v-8.563zm4.344 2.188q1.469 0 2.344.906.875.89.875 2.375t-.891 2.375q-.875.89-2.328.89-1.438 0-2.328-.89-.875-.906-.875-2.375t.859-2.375q.875-.906 2.344-.906m-1.5 3.281q0 .985.406 1.485t1.094.5q.734 0 1.125-.516.39-.531.39-1.469 0-.922-.39-1.453-.375-.547-1.125-.547-.688 0-1.094.5t-.406 1.5m7.049-3.11 1.14 4.204h.016l1.031-4.203h1.656l1.063 4.203h.015l1.157-4.203h1.75l-1.969 6.203h-1.75l-1.094-4.172h-.031l-1.063 4.172h-1.75l-1.968-6.203zm11.408-.171q1.375 0 2.203.953.828.938.828 2.422l-.016.312h-4.484q.047.797.422 1.188.39.39 1.094.39.468 0 .859-.234.39-.25.5-.578h1.5q-.344 1.047-1.062 1.578-.72.516-1.844.516-1.438 0-2.313-.906-.86-.907-.86-2.36 0-1.39.892-2.328.89-.953 2.28-.953m-1.469 2.61h2.781q-.125-.688-.453-1-.312-.329-.922-.329t-.984.36q-.36.343-.422.968m9.11-2.61q.109 0 .203.016.093.015.171.046v1.579q-.14-.032-.28-.032-.141-.015-.329-.015-.86 0-1.281.531-.406.516-.406 1.406v2.844h-1.688v-6.203h1.61v1.156h.03q.266-.61.798-.969.546-.359 1.171-.359m1.747-2.39q.782 1.265 1.188 2.656.406 1.39.406 2.75 0 1.375-.422 2.906-.406 1.515-1.172 2.64h-1.421q.656-1.25.968-2.609.328-1.375.328-2.812 0-1.5-.328-2.875-.312-1.391-.968-2.657z"/>
    <path fill="#000" fill-rule="evenodd" d="m542.433 252.509.002-.021 6.829 3.49v8.493l-6.279-3.21a1.02 1.02 0 0 1-.552-.93zm6.987-4.207a.99.99 0 0 1 .894 0l6.238 3.189-6.685 3.418-6.685-3.418zm7.879 4.186.003.02v7.832a1.03 1.03 0 0 1-.56.92l-6.272 3.207v-8.488zm-14.854 9.875 6.43 3.287a2.17 2.17 0 0 0 1.978 0l6.428-3.287a2.25 2.25 0 0 0 1.226-2.023v-7.832c0-.864-.47-1.64-1.225-2.023l-6.43-3.287h-.001a2.18 2.18 0 0 0-1.969 0l-6.428 3.286a2.25 2.25 0 0 0-1.227 2.024v7.82a2.25 2.25 0 0 0 1.218 2.035"/>
    <path d="M681.016 256.286H627.54v-91.213h-57.517"/>
    <path stroke="#dc477d" stroke-dasharray="8 6" stroke-linecap="butt" stroke-linejoin="round" stroke-width="2" d="M681.016 256.286H627.54v-91.213h-57.517"/>
    <path d="M628.827 165.009h52.189"/>
    <path stroke="#e03875" stroke-dasharray="6 8" stroke-linecap="round" stroke-linejoin="round" stroke-width="2" d="M628.827 165.009h52.189"/>
  </g>
</svg>
