<svg xmlns="http://www.w3.org/2000/svg" xmlns:xlink="http://www.w3.org/1999/xlink" width="420.164" height="290.008" viewBox="0 0 111.168 76.731">
  <defs>
    <path id="a" d="M60.894 32.634a1.06 1.06 0 1 1 1.057-1.049 1.06 1.06 0 0 1-1.057 1.064"/>
    <path id="b" d="M62.957 32.064a.49.49 0 1 1 .49-.479.49.49 0 0 1-.49.49m1.788.448a.452.452 0 1 1-.903-.038.452.452 0 0 1 .903.038m-.345-1.259a.49.49 0 1 1 .383-.59.5.5 0 0 1 0 .192.47.47 0 0 1-.383.383m1.739 1.221a.488.488 0 1 1-.961-.168.48.48 0 0 1 .566-.383.49.49 0 0 1 .406.52.2.2 0 0 0 0 .047m-.406-1.245a.486.486 0 1 1 .383-.559 1 1 0 0 1 0 .127.486.486 0 0 1-.406.432m-.321 2.921a.49.49 0 1 1 .06-.2.4.4 0 0 1-.06.2m-.177-4.491a.49.49 0 1 1-.481-.853.49.49 0 0 1 .481.853"/>
    <path id="c" d="M60.914 36.5a4.915 4.915 0 1 1 2.981-8.803l-.597.766a3.93 3.93 0 1 0 0 6.243l.597.784a4.85 4.85 0 0 1-2.981 1.01"/>
    <path id="d" fill="#fff" stroke="none" d="m10 .833 2.832 5.739 6.335.925-4.584 4.465 1.082 6.306L10 15.29l-5.665 2.98 1.082-6.307L.833 7.497l6.334-.925Z"/>
    <marker id="e" orient="auto" overflow="visible" refX="0" refY="0">
      <path fill="context-stroke" fill-rule="evenodd" stroke="context-stroke" stroke-width=".2pt" d="m-1.2 0-1 1 3.5-1-3.5-1Z"/>
    </marker>
  </defs>
  <g transform="translate(-57.195 -66.443)">
    <path fill="#fff" d="M52.323 62.047H174.56v84.27H52.323z" paint-order="markers stroke fill"/>
    <text xml:space="preserve" x="59.504" y="75.63" stroke-width=".105" font-family="Open Sans" font-size="2.518" style="line-height:1.25;-inkscape-font-specification:&quot;Open Sans, Normal&quot;;font-variant-ligatures:none"><tspan x="59.504" y="75.63" font-weight="300" style="-inkscape-font-specification:&quot;Open Sans Light&quot;">PROCESS</tspan></text>
    <rect width="14.958" height="4.641" x="58.49" y="66.443" fill="#eee" paint-order="markers stroke fill" ry="0"/>
    <text xml:space="preserve" x="59.541" y="69.991" fill="#fe5f00" stroke-width=".184" font-family="Open Sans" font-size="3.528" font-weight="400" style="line-height:1.25;-inkscape-font-specification:&quot;Open Sans&quot;;font-variant-ligatures:none"><tspan x="59.541" y="69.991" font-weight="700" style="-inkscape-font-specification:&quot;Open Sans&quot;">default</tspan></text>
    <text xml:space="preserve" x="74.128" y="69.972" fill-opacity=".929" stroke-width=".184" font-family="Open Sans" font-size="3.528" font-weight="400" style="line-height:1.25;-inkscape-font-specification:&quot;Open Sans&quot;;font-variant-ligatures:none"><tspan x="74.128" y="69.972" font-weight="700" style="-inkscape-font-specification:&quot;Open Sans&quot;">read request path</tspan></text>
    <g transform="translate(-16.509 8.906)">
      <rect width="10.27" height="10.02" x="114.986" y="80.485" fill="#ca2171" fill-rule="evenodd" rx=".313" ry=".313"/>
      <g fill="#fff" stroke-width=".447" transform="translate(99.744 73.58)scale(.28562)">
        <use xlink:href="#a" fill-rule="evenodd" clip-rule="evenodd" opacity=".7"/>
        <use xlink:href="#b" fill-rule="evenodd" clip-rule="evenodd"/>
        <use xlink:href="#c"/>
      </g>
      <use xlink:href="#d" fill="none" fill-rule="evenodd" clip-rule="evenodd" transform="translate(118.375 83.827)scale(.17463)"/>
      <text xml:space="preserve" x="116.902" y="89.201" fill="#fff" stroke-width=".073" font-family="Open Sans" font-size="1.743" style="line-height:1.25;-inkscape-font-specification:&quot;Open Sans, Normal&quot;;font-variant-ligatures:none"><tspan x="116.902" y="89.201">LEADER</tspan></text>
    </g>
    <path fill="none" stroke="#fe5e00" stroke-width=".4" d="M69.944 94.378H98.53m.001-.378h-2.015l-5.31-9.198h-2.01m9.334 9.967h-2.02l-5.31 9.198h-2.01"/>
    <g transform="translate(-37.51 -22.09)">
      <circle cx="131.232" cy="111.241" r="1.205" fill="#fff" stroke="#ff5e00" stroke-linecap="round" stroke-width=".4"/>
      <text xml:space="preserve" x="131.225" y="111.941" fill="#fe5e00" stroke-width=".081" font-family="Open Sans" font-size="1.934" style="line-height:1.25;-inkscape-font-specification:&quot;Open Sans, Normal&quot;;font-variant-ligatures:none"><tspan x="131.225" y="111.941" font-weight="700" style="text-align:center" text-anchor="middle">2</tspan></text>
    </g>
    <g transform="translate(-37.51 -12.095)">
      <circle cx="131.232" cy="111.241" r="1.205" fill="#fff" stroke="#ff5e00" stroke-linecap="round" stroke-width=".4"/>
      <text xml:space="preserve" x="131.225" y="111.941" fill="#fe5e00" stroke-width=".081" font-family="Open Sans" font-size="1.934" style="line-height:1.25;-inkscape-font-specification:&quot;Open Sans, Normal&quot;;font-variant-ligatures:none"><tspan x="131.225" y="111.941" font-weight="700" style="text-align:center" text-anchor="middle">2</tspan></text>
    </g>
    <g transform="translate(-46.701 -16.914)">
      <circle cx="131.232" cy="111.241" r="1.205" fill="#fff" stroke="#ff5e00" stroke-linecap="round" stroke-width=".4"/>
      <text xml:space="preserve" x="131.225" y="111.941" fill="#fe5e00" stroke-width=".081" font-family="Open Sans" font-size="1.934" style="line-height:1.25;-inkscape-font-specification:&quot;Open Sans, Normal&quot;;font-variant-ligatures:none"><tspan x="131.225" y="111.941" font-weight="700" style="text-align:center" text-anchor="middle">1</tspan></text>
    </g>
    <g transform="translate(-57.757 -4.451)">
      <rect width="10.27" height="10.02" x="136.948" y="82.453" fill="#ca2171" fill-rule="evenodd" rx=".313" ry=".313"/>
      <g fill="#fff" stroke-width=".447" transform="translate(121.707 75.547)scale(.28562)">
        <use xlink:href="#a" fill-rule="evenodd" clip-rule="evenodd" opacity=".7"/>
        <use xlink:href="#b" fill-rule="evenodd" clip-rule="evenodd"/>
        <use xlink:href="#c"/>
      </g>
      <text xml:space="preserve" x="137.47" y="91.169" fill="#fff" stroke-width=".073" font-family="Open Sans" font-size="1.743" style="line-height:1.25;-inkscape-font-specification:&quot;Open Sans, Normal&quot;;font-variant-ligatures:none"><tspan x="137.47" y="91.169">FOLLOWER</tspan></text>
    </g>
    <g transform="translate(-57.757 18.314)">
      <rect width="10.27" height="10.02" x="136.948" y="82.453" fill="#ca2171" fill-rule="evenodd" rx=".313" ry=".313"/>
      <g fill="#fff" stroke-width=".447" transform="translate(121.707 75.547)scale(.28562)">
        <use xlink:href="#a" fill-rule="evenodd" clip-rule="evenodd" opacity=".7"/>
        <use xlink:href="#b" fill-rule="evenodd" clip-rule="evenodd"/>
        <use xlink:href="#c"/>
      </g>
      <text xml:space="preserve" x="137.47" y="91.169" fill="#fff" stroke-width=".073" font-family="Open Sans" font-size="1.743" style="line-height:1.25;-inkscape-font-specification:&quot;Open Sans, Normal&quot;;font-variant-ligatures:none"><tspan x="137.47" y="91.169">FOLLOWER</tspan></text>
    </g>
    <path fill="#f0f0f0" d="M57.195 123.85h111.168v19.325H57.195z" paint-order="markers stroke fill"/>
    <g transform="translate(279.952 11.071)">
      <rect width="4.654" height="4.54" x="-219.694" y="125.233" fill="#ca2171" fill-rule="evenodd" rx=".142" ry=".142"/>
      <g fill="#fff" stroke-width=".447" transform="translate(-226.6 122.104)scale(.12943)">
        <use xlink:href="#a" fill-rule="evenodd" clip-rule="evenodd" opacity=".7"/>
        <use xlink:href="#b" fill-rule="evenodd" clip-rule="evenodd"/>
        <use xlink:href="#c"/>
      </g>
      <text xml:space="preserve" x="-219.458" y="129.183" fill="#fff" stroke-width=".033" font-family="Open Sans" font-size=".79" style="line-height:1.25;-inkscape-font-specification:&quot;Open Sans, Normal&quot;;font-variant-ligatures:none"><tspan x="-219.458" y="129.183">FOLLOWER</tspan></text>
    </g>
    <text xml:space="preserve" x="66.517" y="139.513" stroke-width=".179" font-family="sans-serif" font-size="2.518" font-weight="400" style="line-height:1.25"><tspan x="66.517" y="139.513" font-family="Open Sans" style="-inkscape-font-specification:&quot;Open Sans&quot;">Consul Server: Follower</tspan></text>
    <g transform="translate(279.839 10.013)">
      <rect width="4.429" height="4.321" x="-182.885" y="119.936" fill="#fff" fill-rule="evenodd" stroke="#ca2171" stroke-width=".228" rx=".135" ry=".135"/>
      <circle cx="-181.835" cy="123.062" r=".363" fill="#ca2171"/>
    </g>
    <text xml:space="preserve" x="103.1" y="132.763" stroke-width=".179" font-family="sans-serif" font-size="2.518" font-weight="400" style="line-height:1.25"><tspan x="103.1" y="132.763" font-family="Open Sans" style="-inkscape-font-specification:&quot;Open Sans&quot;">Consul Client Agent</tspan></text>
    <path fill="none" stroke="#648fff" stroke-width=".75" d="M132.03 130.067h7.682"/>
    <path fill="none" stroke="#fe5e00" stroke-opacity=".827" stroke-width=".75" d="M132.03 131.655h7.682"/>
    <path fill="none" stroke="#ffb000" stroke-opacity=".827" stroke-width=".75" d="M132.03 133.243h7.682"/>
    <text xml:space="preserve" x="131.726" y="127.535" stroke-width=".265" font-family="sans-serif" font-size="2.469" font-weight="400" style="line-height:1.25"><tspan x="131.726" y="127.535" font-family="Open Sans" font-weight="700" style="-inkscape-font-specification:&quot;Open Sans Bold&quot;">Communication Paths</tspan></text>
    <text xml:space="preserve" x="60.285" y="127.443" stroke-width=".265" font-family="sans-serif" font-size="2.469" font-weight="400" style="line-height:1.25"><tspan x="60.285" y="127.443" font-family="Open Sans" font-weight="700" style="-inkscape-font-specification:&quot;Open Sans Bold&quot;">System Components</tspan></text>
    <g transform="translate(279.854 11.071)">
      <rect width="4.627" height="4.514" x="-219.583" y="118.805" fill="#ca2171" fill-rule="evenodd" rx=".141" ry=".141"/>
      <g fill="#fff" stroke-width=".447" transform="translate(-226.449 115.694)scale(.12867)">
        <use xlink:href="#a" fill-rule="evenodd" clip-rule="evenodd" opacity=".7"/>
        <use xlink:href="#b" fill-rule="evenodd" clip-rule="evenodd"/>
        <use xlink:href="#c"/>
      </g>
      <use xlink:href="#d" fill="none" fill-rule="evenodd" clip-rule="evenodd" transform="translate(-218.056 120.31)scale(.07867)"/>
      <text xml:space="preserve" x="-218.719" y="122.732" fill="#fff" stroke-width=".033" font-family="Open Sans" font-size=".785" style="line-height:1.25;-inkscape-font-specification:&quot;Open Sans, Normal&quot;;font-variant-ligatures:none"><tspan x="-218.719" y="122.732">LEADER</tspan></text>
    </g>
    <text xml:space="preserve" x="66.517" y="133.072" stroke-width=".179" font-family="sans-serif" font-size="2.518" font-weight="400" style="line-height:1.25"><tspan x="66.517" y="133.072" font-family="Open Sans" style="-inkscape-font-specification:&quot;Open Sans&quot;">Consul Server: Leader</tspan></text>
    <text xml:space="preserve" x="141.424" y="132.312" stroke-width=".179" font-family="Open Sans" font-size="2.518" font-weight="400" style="line-height:1.25;-inkscape-font-specification:&quot;Open Sans&quot;"><tspan x="141.424" y="132.312" style="-inkscape-font-specification:&quot;Open Sans&quot;">Control Plane</tspan></text>
    <rect width="14.358" height="3" x="145.962" y="99.811" fill="#eee" paint-order="markers stroke fill" ry="0"/>
    <rect width="10.727" height="3" x="145.962" y="87.483" fill="#eee" paint-order="markers stroke fill" ry="0"/>
    <rect width="7.219" height="3" x="145.962" y="83.954" fill="#eee" paint-order="markers stroke fill" ry="0"/>
    <text xml:space="preserve" x="146.457" y="102.147" fill="#bacdff" stroke-width=".132" font-family="Open Sans" font-size="2.518" style="line-height:1.25;-inkscape-font-specification:&quot;Open Sans, Normal&quot;;font-variant-ligatures:none"><tspan x="146.457" y="102.147" font-weight="400" style="-inkscape-font-specification:&quot;Open Sans&quot;"><tspan font-weight="700" style="-inkscape-font-specification:&quot;Open Sans&quot;;font-variant-ligatures:none;font-variant-caps:normal;font-variant-numeric:normal;font-variant-east-asian:normal">consistent</tspan>  read;</tspan><tspan x="146.457" y="105.294" font-weight="400" style="-inkscape-font-specification:&quot;Open Sans&quot;">any write</tspan></text>
    <circle cx="124.703" cy="85.833" r="2.796" fill="#ffda86"/>
    <text xml:space="preserve" x="146.502" y="86.445" fill="#ffda86" stroke-width=".132" font-family="Open Sans" font-size="2.518" style="line-height:1.25;-inkscape-font-specification:&quot;Open Sans, Normal&quot;;font-variant-ligatures:none"><tspan x="146.502" y="86.445" font-weight="400" style="-inkscape-font-specification:&quot;Open Sans&quot;"><tspan font-weight="700">stale </tspan> read</tspan></text>
    <text xml:space="preserve" x="132.588" y="110.756" stroke-width=".144" font-family="Open Sans" font-size="2.518" style="line-height:1.25;-inkscape-font-specification:&quot;Open Sans, Normal&quot;;font-variant-ligatures:none;text-align:center" text-anchor="middle"><tspan x="132.588" y="110.756" font-weight="600" style="-inkscape-font-specification:&quot;Open Sans Semi-Bold&quot;;text-align:center">Consistency</tspan></text>
    <text xml:space="preserve" x="-95.111" y="119.531" stroke-width=".144" font-family="Open Sans" font-size="2.518" style="line-height:1.25;-inkscape-font-specification:&quot;Open Sans, Normal&quot;;font-variant-ligatures:none;text-align:center" text-anchor="middle" transform="rotate(-90)"><tspan x="-95.111" y="119.531" font-weight="600" style="-inkscape-font-specification:&quot;Open Sans Semi-Bold&quot;;text-align:center">Performance</tspan></text>
    <path fill="none" stroke="#cbcbcb" stroke-dasharray=".792 .792" stroke-width=".132" d="M133.335 82.895v23.139m11.506-5.784h-23.138m23.138-5.786h-23.138m23.138-5.784h-23.138m5.847-5.785v23.139m11.57-23.327v23.138"/>
    <rect width="23.138" height="23.138" x="121.765" y="82.895" fill="none" stroke="#000" stroke-linecap="round" stroke-width=".249" rx="0" ry="0"/>
    <text xml:space="preserve" x="141.543" y="108.888" fill="#b1b1b1" stroke-width=".11" font-family="Open Sans" font-size="2.518" style="line-height:1.25;-inkscape-font-specification:&quot;Open Sans, Normal&quot;;font-variant-ligatures:none"><tspan x="141.543" y="108.888" fill="#525252">more</tspan></text>
    <text xml:space="preserve" x="117.993" y="81.628" fill="#b1b1b1" stroke-width=".11" font-family="Open Sans" font-size="2.518" style="line-height:1.25;-inkscape-font-specification:&quot;Open Sans, Normal&quot;;font-variant-ligatures:none"><tspan x="117.993" y="81.628" fill="#525252">more</tspan></text>
    <text xml:space="preserve" x="119.204" y="108.888" fill="#b1b1b1" stroke-width=".11" font-family="Open Sans" font-size="2.518" style="line-height:1.25;-inkscape-font-specification:&quot;Open Sans, Normal&quot;;font-variant-ligatures:none"><tspan x="119.204" y="108.888" fill="#525252">less</tspan></text>
    <text xml:space="preserve" x="146.768" y="89.946" fill="#fe5f00" stroke-width=".132" font-family="Open Sans" font-size="2.518" style="line-height:1.25;-inkscape-font-specification:&quot;Open Sans, Normal&quot;;font-variant-ligatures:none"><tspan x="146.768" y="89.946" font-weight="400" style="-inkscape-font-specification:&quot;Open Sans&quot;"><tspan font-weight="700" style="-inkscape-font-specification:&quot;Open Sans&quot;;font-variant-ligatures:none;font-variant-caps:normal;font-variant-numeric:normal;font-variant-east-asian:normal">default</tspan>  read</tspan></text>
    <text xml:space="preserve" x="116.887" y="75.64" stroke-width=".146" font-family="Open Sans" font-size="2.518" style="line-height:1.25;-inkscape-font-specification:&quot;Open Sans, Normal&quot;;font-variant-ligatures:none"><tspan x="116.887" y="75.64" font-weight="300" style="-inkscape-font-specification:&quot;Open Sans Light&quot;">TRADE-OFFS</tspan></text>
    <circle cx="141.96" cy="103.078" r="2.796" fill="#bacdff"/>
    <circle cx="139.09" cy="88.724" r="2.796" fill="#fe5f00"/>
    <text xml:space="preserve" x="130.996" y="75.433" stroke-width=".144" font-family="Open Sans" font-size="2.518" font-weight="300" style="line-height:1.25;-inkscape-font-specification:&quot;Open Sans Light&quot;;font-variant-ligatures:none"><tspan x="130.996" y="75.433" style="-inkscape-font-specification:&quot;Open Sans Light&quot;"> | performance vs consistency</tspan></text>
    <path fill="#fe5e00" d="m99.52 94.39-2.416-1.442.446.859m1.97.583-2.426 1.433.446-.86"/>
    <g transform="translate(-69.847 7.558)">
      <circle cx="131.232" cy="111.241" r="1.205" fill="#fff" stroke="#ff5e00" stroke-linecap="round" stroke-width=".4"/>
      <text xml:space="preserve" x="131.225" y="111.941" fill="#fe5e00" stroke-width=".081" font-family="Open Sans" font-size="1.934" style="line-height:1.25;-inkscape-font-specification:&quot;Open Sans, Normal&quot;;font-variant-ligatures:none"><tspan x="131.225" y="111.941" font-weight="700" style="text-align:center" text-anchor="middle">2</tspan></text>
    </g>
    <g transform="translate(-69.847 4.233)">
      <circle cx="131.232" cy="111.241" r="1.205" fill="#fff" stroke="#ff5e00" stroke-linecap="round" stroke-width=".4"/>
      <text xml:space="preserve" x="131.225" y="111.941" fill="#fe5e00" stroke-width=".081" font-family="Open Sans" font-size="1.934" style="line-height:1.25;-inkscape-font-specification:&quot;Open Sans, Normal&quot;;font-variant-ligatures:none"><tspan x="131.225" y="111.941" font-weight="700" style="text-align:center" text-anchor="middle">1</tspan></text>
    </g>
    <text xml:space="preserve" x="-215.649" y="196.157" stroke-width=".105" font-family="Open Sans" font-size="2.518" style="line-height:1.25;-inkscape-font-specification:&quot;Open Sans, Normal&quot;;font-variant-ligatures:none" transform="translate(279.31 -80.03)"><tspan x="-215.649" y="196.157">client may contact any server agent</tspan></text>
    <text xml:space="preserve" x="-215.544" y="199.78" stroke-width=".265" font-family="Open Sans" font-size="2.518" style="line-height:1.25;-inkscape-font-specification:&quot;Open Sans, Normal&quot;;font-variant-ligatures:none" transform="translate(279.31 -80.03)"><tspan x="-215.544" y="199.78">followers forward to their known leader</tspan></text>
    <path fill="none" stroke="#fe5e00" stroke-width=".4" marker-end="url(#e)" d="M69.944 93.992h2.02l5.31-9.198h1.598"/>
    <g transform="translate(-56.674 -22.18)">
      <circle cx="131.232" cy="111.241" r="1.205" fill="#fff" stroke="#ff5e00" stroke-linecap="round" stroke-width=".4"/>
      <text xml:space="preserve" x="131.225" y="111.941" fill="#fe5e00" stroke-width=".081" font-family="Open Sans" font-size="1.934" style="line-height:1.25;-inkscape-font-specification:&quot;Open Sans, Normal&quot;;font-variant-ligatures:none"><tspan x="131.225" y="111.941" font-weight="700" style="text-align:center" text-anchor="middle">1</tspan></text>
    </g>
    <path fill="none" stroke="#fe5e00" stroke-width=".4" marker-end="url(#e)" d="M69.944 94.769h2.02l5.31 9.198h1.631"/>
    <g transform="translate(-56.674 -12.095)">
      <circle cx="131.232" cy="111.241" r="1.205" fill="#fff" stroke="#ff5e00" stroke-linecap="round" stroke-width=".4"/>
      <text xml:space="preserve" x="131.225" y="111.941" fill="#fe5e00" stroke-width=".081" font-family="Open Sans" font-size="1.934" style="line-height:1.25;-inkscape-font-specification:&quot;Open Sans, Normal&quot;;font-variant-ligatures:none"><tspan x="131.225" y="111.941" font-weight="700" style="text-align:center" text-anchor="middle">1</tspan></text>
    </g>
    <path fill="#fe5e00" d="m98.48 94.058-.01.687 1.05-.355z"/>
    <g transform="translate(40.078 -114.356)">
      <rect width="9.697" height="9.46" x="20.152" y="204.026" fill="none" stroke="#ca2171" stroke-width=".5" rx=".296" ry=".296"/>
      <circle cx="22.451" cy="210.872" r=".794" fill="#ca2171"/>
    </g>
  </g>
</svg>
