<svg xmlns="http://www.w3.org/2000/svg" width="164" height="384" fill="none" xmlns:xlink="http://www.w3.org/1999/xlink">
  <g fill="#000" clip-path="url(#a)">
    <path d="M78.046 288.34a.7.7 0 0 0 0-.68L23.906 192h-1.532l54.33 96-54.294 95.927-.036.073h1.531l54.123-95.633zm-9.059 0c.027-.055.045-.101.063-.156l.009-.028v-.027l.009-.046v-.028c0-.009.009-.027.009-.073 0-.019 0-.028-.009-.056 0-.036-.009-.064-.018-.101a.4.4 0 0 1-.027-.091l-.027-.074L14.855 192h-1.531l54.33 95.991-54.294 95.936-.036.073h1.54l54.123-95.623zm18.12-.009a.8.8 0 0 0 .08-.267.6.6 0 0 0-.063-.358L32.956 192h-1.531l54.33 95.991-54.294 95.936-.036.073h1.53l54.097-95.596.054-.073Zm-27.17 0a.9.9 0 0 0 .08-.267.6.6 0 0 0-.063-.358L5.795 192h-1.53l54.33 95.991L4.3 383.927l-.036.073h1.54L59.9 288.404zm36.22-.671L42.015 192h-1.53l54.33 96-54.295 95.927-.036.073h1.531l54.142-95.66a.7.7 0 0 0 0-.68m9.059 0L51.075 192h-1.531l54.33 96-54.294 95.927-.036.073h1.531l54.141-95.66a.7.7 0 0 0 0-.68M58.595 192l104.788 185.147.117.202v-2.719L60.135 192zm9.06 0 95.728 169.144.117.202v-2.71L69.194 192h-1.54Zm9.05 0 86.678 153.141.117.202v-2.71L78.245 192zm9.06 0 77.618 137.147.117.211v-2.719L87.304 192h-1.54Zm18.109 0 59.509 105.15.117.211v-2.719L105.414 192zm-9.06 0 68.569 121.144.117.202v-2.719L96.355 192h-1.54Z"/>
  </g>
  <g fill="#000" clip-path="url(#b)">
    <path d="M109.737 87.659a.66.66 0 0 0-.576-.34.64.64 0 0 0-.334.092.76.76 0 0 0-.252.257L49.58 191.927l-.036.073h1.54l58.095-102.642 54.213 95.789.117.202v-2.71l-53.745-94.944z"/>
    <path d="M109.629 55.515a.62.62 0 0 0-.459-.202.7.7 0 0 0-.334.091l-.063.037v.01a.7.7 0 0 0-.189.22L31.47 191.927l-.036.073h1.54L109.17 57.352l54.222 95.798.117.202v-2.719l-53.763-94.98a1 1 0 0 0-.117-.138"/>
    <path d="M109.737 71.656a.66.66 0 0 0-.576-.34.64.64 0 0 0-.334.091.76.76 0 0 0-.252.258L40.521 191.927l-.037.073h1.532L109.17 73.355l54.213 95.798.117.202v-2.719l-53.745-94.944z"/>
    <path d="M109.737 23.655a.66.66 0 0 0-.576-.34.64.64 0 0 0-.334.092.76.76 0 0 0-.252.258L13.36 191.927l-.036.073h1.53L109.17 25.355l54.213 95.789.117.202v-2.719l-53.745-94.944z"/>
    <path d="M109.755 39.585h-.063l-.009-.01-.009-.036-.054-.027a.4.4 0 0 0-.063-.056c-.018-.009-.036-.027-.063-.046a.3.3 0 0 0-.081-.036.36.36 0 0 0-.162-.046.3.3 0 0 0-.09-.01.5.5 0 0 0-.126.019c-.018 0-.045.01-.081.018l-.073.028c-.018.01-.036.01-.054.027l-.063.037c-.036.019-.054.046-.072.065l-.09.073v.037c-.009.018-.027.037-.036.055l-86.165 152.25-.036.073h1.54L109.17 41.358l54.213 95.789.117.202v-2.719l-53.745-94.944zm-.306-.037s0-.009 0 0"/>
    <path d="M5.795 192 109.17 9.361l54.213 95.798.117.202v-2.728l-50.872-89.882-2.864-5.062-.018-.037a.66.66 0 0 0-.576-.34.64.64 0 0 0-.334.092.76.76 0 0 0-.252.258L4.3 191.927l-.045.073zM.5 89.358v-2.71L49.535 0h1.531L.608 89.147zm0-80.006L5.795 0h-1.53L.5 6.642zm.117 63.8L42.016 0h-1.532L.5 70.645v2.71zm0-16.002L32.965 0h-1.531L.5 54.642v2.71zm0-31.997L14.855 0h-1.54L.5 22.645v2.71zm0 15.994L23.905 0h-1.53L.5 38.648v2.71z"/>
  </g>
  <defs>
    <clipPath id="a">
      <path fill="#fff" d="M.5 192h163v192H.5z"/>
    </clipPath>
    <clipPath id="b">
      <path fill="#fff" d="M.5 0h163v192H.5z"/>
    </clipPath>
  </defs>
</svg>
