<svg xmlns="http://www.w3.org/2000/svg" xmlns:xlink="http://www.w3.org/1999/xlink" width="386.2" height="391.98" viewBox="0 0 102.182 103.711">
  <defs>
    <path id="a" fill="none" d="m36.335-.44-8.368-4.253a3.1 3.1 0 0 0-2.79 0L16.81-.44A3.15 3.15 0 0 0 15.542.732a3.2 3.2 0 0 0-.47 1.675v10.108c-.007.595.15 1.18.456 1.689.304.508.744.92 1.268 1.185l8.368 4.252a3.1 3.1 0 0 0 2.803 0l8.368-4.252a3.15 3.15 0 0 0 1.267-1.172 3.2 3.2 0 0 0 .47-1.675V2.407a3.2 3.2 0 0 0-.47-1.675 3.15 3.15 0 0 0-1.267-1.173M26.1-2.74a.95.95 0 0 1 .92 0l7.645 3.877-2.881 1.47-8.105-4.117zm.46 8.022-8.105-4.118 2.881-1.471 8.119 4.131zm-8.829 8.276a1.05 1.05 0 0 1-.426-.396 1.07 1.07 0 0 1-.153-.567V2.888l8.369 4.239v10.388zm17.658 0-7.79 3.944V7.127l8.369-4.239v9.72a1.1 1.1 0 0 1-.174.52c-.102.154-.241.28-.405.363z"/>
    <path id="b" d="M60.894 32.634a1.06 1.06 0 1 1 1.057-1.049 1.06 1.06 0 0 1-1.057 1.064"/>
    <path id="c" d="M62.957 32.064a.49.49 0 1 1 .49-.479.49.49 0 0 1-.49.49m1.788.448a.452.452 0 1 1-.903-.038.452.452 0 0 1 .903.038m-.345-1.259a.49.49 0 1 1 .383-.59.5.5 0 0 1 0 .192.47.47 0 0 1-.383.383m1.739 1.221a.488.488 0 1 1-.961-.168.48.48 0 0 1 .566-.383.49.49 0 0 1 .406.52.2.2 0 0 0 0 .047m-.406-1.245a.486.486 0 1 1 .383-.559 1 1 0 0 1 0 .127.486.486 0 0 1-.406.432m-.321 2.921a.49.49 0 1 1 .06-.2.4.4 0 0 1-.06.2m-.177-4.491a.49.49 0 1 1-.481-.853.49.49 0 0 1 .481.853"/>
    <path id="d" d="M60.914 36.5a4.915 4.915 0 1 1 2.981-8.803l-.597.766a3.93 3.93 0 1 0 0 6.243l.597.784a4.85 4.85 0 0 1-2.981 1.01"/>
  </defs>
  <g transform="translate(-62.069 -47.42)">
    <path fill="#fff" d="M45.646 37.525h133.197v124.183H45.646z" paint-order="markers stroke fill"/>
    <text xml:space="preserve" x="235.834" y="947.221" fill="#b6b8c2" stroke-width=".08" font-family="Open Sans" font-size="4.251" font-weight="400" style="line-height:1.25;-inkscape-font-specification:&quot;Open Sans&quot;" transform="translate(-92.466 -589.744)scale(.69136)"><tspan x="235.834" y="947.221" font-weight="700" style="-inkscape-font-specification:&quot;Open Sans Bold&quot;">DC1</tspan></text>
    <use xlink:href="#a" transform="translate(63.68 62.952)scale(.16186)"/>
    <text xml:space="preserve" x="240.735" y="945.267" fill="#b6b8c2" stroke-width=".053" font-family="sans-serif" font-size="2.113" style="line-height:1.25" transform="translate(-163.262 -880.504)" word-spacing="0"><tspan x="240.735" y="945.267">| ON PREMISES</tspan></text>
    <text xml:space="preserve" x="235.834" y="947.221" fill="#b6b8c2" stroke-width=".08" font-family="Open Sans" font-size="4.251" font-weight="400" style="line-height:1.25;-inkscape-font-specification:&quot;Open Sans&quot;" transform="translate(-37.554 -589.744)scale(.69136)"><tspan x="235.834" y="947.221" font-weight="700" style="-inkscape-font-specification:&quot;Open Sans Bold&quot;">DC2</tspan></text>
    <use xlink:href="#a" transform="translate(118.592 62.952)scale(.16186)"/>
    <text xml:space="preserve" x="296.28" y="945.618" fill="#b6b8c2" stroke-width=".053" font-family="sans-serif" font-size="2.113" style="line-height:1.25" transform="translate(-163.896 -880.855)" word-spacing="0"><tspan x="296.28" y="945.618">| CLOUD US-EAST-1</tspan></text>
    <text xml:space="preserve" x="70.727" y="61.965" fill="#ca2171" fill-opacity=".35" stroke-width=".068" font-family="Open Sans" font-size="1.464" style="line-height:1.25;-inkscape-font-specification:&quot;Open Sans, Normal&quot;;font-variant-ligatures:none"><tspan x="70.727" y="61.965" font-weight="600" style="-inkscape-font-specification:&quot;Open Sans Semi-Bold&quot;">PRIMARY</tspan></text>
    <text xml:space="preserve" x="125.621" y="61.965" fill="#ca2171" fill-opacity=".35" stroke-width=".068" font-family="Open Sans" font-size="1.464" style="line-height:1.25;-inkscape-font-specification:&quot;Open Sans, Normal&quot;;font-variant-ligatures:none"><tspan x="125.621" y="61.965" font-weight="600" style="-inkscape-font-specification:&quot;Open Sans Semi-Bold&quot;">SECONDARY</tspan></text>
    <rect width="44.187" height="62.425" x="63.679" y="58.663" fill="none" stroke="#d2d4db" stroke-linecap="round" stroke-width=".575" paint-order="markers stroke fill" rx=".339" ry=".564"/>
    <rect width="44.187" height="62.425" x="118.453" y="58.663" fill="none" stroke="#d2d4db" stroke-linecap="round" stroke-width=".575" paint-order="markers stroke fill" rx=".339" ry=".564"/>
    <g fill="none" stroke="#fe9150" stroke-width=".4">
      <path d="M89.84 115.902c5.596-6.43 1.688-12.798-6.437-17.606l52.261-17.643"/>
      <path d="M135.664 80.653H89.845l51.992 17.327M89.845 80.653c3.422 7.957 2.341 11.656-6.442 17.643"/>
      <path d="M89.845 80.653c5.509 5.482 8.528 29.044-.006 35.249m.006-35.249 45.871 34.87m-.315.063c-5.596-6.43-1.688-12.797 6.436-17.606m-6.173-17.327c-3.422 7.957-2.4 11.36 6.383 17.347"/>
      <path d="M135.664 80.653c-5.508 5.482-8.48 28.666.052 34.87"/>
      <path d="m141.837 97.98-58.434.316 52.313 17.227"/>
      <path d="m135.664 80.653-45.825 35.249 51.998-17.922M89.84 115.902l45.876-.379"/>
    </g>
    <g fill="none" stroke="#ffcc5b" stroke-width=".4">
      <path d="M89.832 112.79c5.596-6.43 1.688-12.798-6.437-17.606l52.261-17.643"/>
      <path d="M135.656 77.541H89.837l51.992 17.327M89.837 77.541c3.422 7.957 2.341 11.656-6.442 17.643"/>
      <path d="M89.837 77.541c5.509 5.482 8.528 29.044-.006 35.249m.006-35.249 45.871 34.87m-.315.063c-5.596-6.43-1.688-12.797 6.436-17.606m-6.173-17.327c-3.422 7.957-2.4 11.36 6.383 17.347"/>
      <path d="M135.656 77.541c-5.508 5.482-8.48 28.666.052 34.87"/>
      <path d="m141.829 94.868-58.434.316 52.313 17.227"/>
      <path d="M135.656 77.541 89.831 112.79l51.998-17.922M89.832 112.79l45.876-.379"/>
    </g>
    <g fill="none" stroke="#648fff" stroke-width=".4">
      <path d="M90.018 109.832c5.596-6.43 1.688-12.798-6.437-17.606l52.261-17.643"/>
      <path d="M135.842 74.583H90.023l51.992 17.327M90.023 74.583c3.422 7.957 2.341 11.656-6.442 17.643"/>
      <path d="M90.023 74.583c5.509 5.482 8.528 29.044-.006 35.249m.006-35.249 45.871 34.87m-.315.063c-5.596-6.43-1.688-12.797 6.436-17.606m-6.173-17.327c-3.422 7.957-2.4 11.36 6.383 17.347"/>
      <path d="M135.842 74.583c-5.508 5.482-8.48 28.666.052 34.87"/>
      <path d="m142.015 91.91-58.434.316 52.313 17.227"/>
      <path d="m135.842 74.583-45.825 35.249 51.998-17.922m-51.997 17.922 45.876-.379"/>
    </g>
    <g transform="translate(-50.44 -785.216)">
      <rect width="15.257" height="14.885" x="118.586" y="870.811" fill="#ca2171" fill-rule="evenodd" rx=".465" ry=".465"/>
      <g fill="#fff" stroke-width=".447" transform="translate(98.672 861.723)scale(.36944)">
        <use xlink:href="#b" fill-rule="evenodd" clip-rule="evenodd" opacity=".7"/>
        <use xlink:href="#c" fill-rule="evenodd" clip-rule="evenodd"/>
        <use xlink:href="#d"/>
      </g>
      <text xml:space="preserve" x="125.601" y="877.746" fill="#d9deff" stroke-width=".044" font-family="Open Sans" font-size="1.775" font-weight="400" style="line-height:1.25;-inkscape-font-specification:&quot;Open Sans&quot;"><tspan x="125.601" y="877.746" font-weight="700" style="-inkscape-font-specification:&quot;Open Sans&quot;">8300/tcp</tspan></text>
      <text xml:space="preserve" x="125.601" y="880.875" fill="#fff6e7" stroke-width=".044" font-family="Open Sans" font-size="1.775" font-weight="400" style="line-height:1.25;-inkscape-font-specification:&quot;Open Sans&quot;"><tspan x="125.601" y="880.875" font-weight="700" style="-inkscape-font-specification:&quot;Open Sans&quot;">8302/tcp</tspan></text>
      <text xml:space="preserve" x="124.995" y="884.066" fill="#ffd2b8" stroke-width=".044" font-family="Open Sans" font-size="1.775" font-weight="400" style="line-height:1.25;-inkscape-font-specification:&quot;Open Sans&quot;"><tspan x="124.995" y="884.066" font-weight="700" style="-inkscape-font-specification:&quot;Open Sans&quot;">8302/udp</tspan></text>
      <path fill="none" d="m124.884 872.328.31.629.694.101-.502.49.118.69-.62-.326-.621.327.118-.691-.502-.49.694-.101Z" clip-rule="evenodd"/>
      <text xml:space="preserve" x="126.437" y="873.864" stroke-width=".041" font-family="Open Sans" font-size="1.62" font-weight="400" style="line-height:1.25;-inkscape-font-specification:&quot;Open Sans&quot;"><tspan x="126.437" y="873.864" fill="#fff" font-weight="700" style="-inkscape-font-specification:&quot;Open Sans Bold&quot;">LEADER</tspan></text>
    </g>
    <g transform="translate(-50.44 -785.216)">
      <rect width="15.257" height="14.885" x="125.056" y="853.357" fill="#ca2171" fill-rule="evenodd" rx=".465" ry=".465"/>
      <g fill="#fff" stroke-width=".447" transform="translate(105.142 844.268)scale(.36944)">
        <use xlink:href="#b" fill-rule="evenodd" clip-rule="evenodd" opacity=".7"/>
        <use xlink:href="#c" fill-rule="evenodd" clip-rule="evenodd"/>
        <use xlink:href="#d"/>
      </g>
      <text xml:space="preserve" x="132.072" y="860.291" fill="#d9deff" stroke-width=".044" font-family="Open Sans" font-size="1.775" font-weight="400" style="line-height:1.25;-inkscape-font-specification:&quot;Open Sans&quot;"><tspan x="132.072" y="860.291" font-weight="700" style="-inkscape-font-specification:&quot;Open Sans&quot;">8300/tcp</tspan></text>
      <text xml:space="preserve" x="132.072" y="863.421" fill="#fff6e7" stroke-width=".044" font-family="Open Sans" font-size="1.775" font-weight="400" style="line-height:1.25;-inkscape-font-specification:&quot;Open Sans&quot;"><tspan x="132.072" y="863.421" font-weight="700" style="-inkscape-font-specification:&quot;Open Sans&quot;">8302/tcp</tspan></text>
      <text xml:space="preserve" x="131.465" y="866.612" fill="#ffd2b8" stroke-width=".044" font-family="Open Sans" font-size="1.775" font-weight="400" style="line-height:1.25;-inkscape-font-specification:&quot;Open Sans&quot;"><tspan x="131.465" y="866.612" font-weight="700" style="-inkscape-font-specification:&quot;Open Sans&quot;">8302/udp</tspan></text>
    </g>
    <g transform="translate(-163.153 -884.964)">
      <rect width="15.257" height="14.885" x="237.769" y="988.013" fill="#ca2171" fill-rule="evenodd" rx=".465" ry=".465"/>
      <g fill="#fff" stroke-width=".447" transform="translate(217.855 978.925)scale(.36944)">
        <use xlink:href="#b" fill-rule="evenodd" clip-rule="evenodd" opacity=".7"/>
        <use xlink:href="#c" fill-rule="evenodd" clip-rule="evenodd"/>
        <use xlink:href="#d"/>
      </g>
      <text xml:space="preserve" x="244.784" y="994.948" fill="#d9deff" stroke-width=".044" font-family="Open Sans" font-size="1.775" font-weight="400" style="line-height:1.25;-inkscape-font-specification:&quot;Open Sans&quot;"><tspan x="244.784" y="994.948" font-weight="700" style="-inkscape-font-specification:&quot;Open Sans&quot;">8300/tcp</tspan></text>
      <text xml:space="preserve" x="244.784" y="998.077" fill="#fff6e7" stroke-width=".044" font-family="Open Sans" font-size="1.775" font-weight="400" style="line-height:1.25;-inkscape-font-specification:&quot;Open Sans&quot;"><tspan x="244.784" y="998.077" font-weight="700" style="-inkscape-font-specification:&quot;Open Sans&quot;">8302/tcp</tspan></text>
      <text xml:space="preserve" x="244.178" y="1001.268" fill="#ffd2b8" stroke-width=".044" font-family="Open Sans" font-size="1.775" font-weight="400" style="line-height:1.25;-inkscape-font-specification:&quot;Open Sans&quot;"><tspan x="244.178" y="1001.268" font-weight="700" style="-inkscape-font-specification:&quot;Open Sans&quot;">8302/udp</tspan></text>
    </g>
    <g transform="translate(-50.44 -785.216)">
      <rect width="15.257" height="14.885" x="186.027" y="888.265" fill="#ca2171" fill-rule="evenodd" rx=".465" ry=".465"/>
      <g fill="#fff" stroke-width=".447" transform="translate(176.026 879.177)scale(.36944)">
        <use xlink:href="#b" fill-rule="evenodd" clip-rule="evenodd" opacity=".7"/>
        <use xlink:href="#c" fill-rule="evenodd" clip-rule="evenodd"/>
        <use xlink:href="#d"/>
      </g>
      <text xml:space="preserve" x="187.046" y="895.2" fill="#d9deff" stroke-width=".044" font-family="Open Sans" font-size="1.775" font-weight="400" style="line-height:1.25;-inkscape-font-specification:&quot;Open Sans&quot;"><tspan x="187.046" y="895.2" font-weight="700" style="-inkscape-font-specification:&quot;Open Sans&quot;">8300/tcp</tspan></text>
      <text xml:space="preserve" x="187.046" y="898.329" fill="#fff6e7" stroke-width=".044" font-family="Open Sans" font-size="1.775" font-weight="400" style="line-height:1.25;-inkscape-font-specification:&quot;Open Sans&quot;"><tspan x="187.046" y="898.329" font-weight="700" style="-inkscape-font-specification:&quot;Open Sans&quot;">8302/tcp</tspan></text>
      <text xml:space="preserve" x="187.046" y="901.52" fill="#ffd2b8" stroke-width=".044" font-family="Open Sans" font-size="1.775" font-weight="400" style="line-height:1.25;-inkscape-font-specification:&quot;Open Sans&quot;"><tspan x="187.046" y="901.52" font-weight="700" style="-inkscape-font-specification:&quot;Open Sans&quot;">8302/udp</tspan></text>
    </g>
    <g transform="translate(-50.44 -785.216)">
      <rect width="15.257" height="14.885" x="192.497" y="870.811" fill="#ca2171" fill-rule="evenodd" rx=".465" ry=".465"/>
      <g fill="#fff" stroke-width=".447" transform="translate(182.496 861.723)scale(.36944)">
        <use xlink:href="#b" fill-rule="evenodd" clip-rule="evenodd" opacity=".7"/>
        <use xlink:href="#c" fill-rule="evenodd" clip-rule="evenodd"/>
        <use xlink:href="#d"/>
      </g>
      <text xml:space="preserve" x="193.516" y="877.746" fill="#d9deff" stroke-width=".044" font-family="Open Sans" font-size="1.775" font-weight="400" style="line-height:1.25;-inkscape-font-specification:&quot;Open Sans&quot;"><tspan x="193.516" y="877.746" font-weight="700" style="-inkscape-font-specification:&quot;Open Sans&quot;">8300/tcp</tspan></text>
      <text xml:space="preserve" x="193.516" y="880.875" fill="#fff6e7" stroke-width=".044" font-family="Open Sans" font-size="1.775" font-weight="400" style="line-height:1.25;-inkscape-font-specification:&quot;Open Sans&quot;"><tspan x="193.516" y="880.875" font-weight="700" style="-inkscape-font-specification:&quot;Open Sans&quot;">8302/tcp</tspan></text>
      <text xml:space="preserve" x="193.516" y="884.066" fill="#ffd2b8" stroke-width=".044" font-family="Open Sans" font-size="1.775" font-weight="400" style="line-height:1.25;-inkscape-font-specification:&quot;Open Sans&quot;"><tspan x="193.516" y="884.066" font-weight="700" style="-inkscape-font-specification:&quot;Open Sans&quot;">8302/udp</tspan></text>
      <path fill="#fff" fill-rule="evenodd" d="m194.465 872.365.31.629.695.101-.502.49.118.69-.62-.326-.621.326.118-.69-.502-.49.694-.101z" clip-rule="evenodd"/>
      <text xml:space="preserve" x="196.019" y="873.901" stroke-width=".041" font-family="Open Sans" font-size="1.62" font-weight="400" style="line-height:1.25;-inkscape-font-specification:&quot;Open Sans&quot;"><tspan x="196.019" y="873.901" fill="#fff" font-weight="700" style="-inkscape-font-specification:&quot;Open Sans Bold&quot;">LEADER</tspan></text>
    </g>
    <g transform="translate(-50.44 -785.216)">
      <rect width="15.257" height="14.885" x="186.027" y="853.357" fill="#ca2171" fill-rule="evenodd" rx=".465" ry=".465"/>
      <g fill="#fff" stroke-width=".447" transform="translate(176.026 844.268)scale(.36944)">
        <use xlink:href="#b" fill-rule="evenodd" clip-rule="evenodd" opacity=".7"/>
        <use xlink:href="#c" fill-rule="evenodd" clip-rule="evenodd"/>
        <use xlink:href="#d"/>
      </g>
      <text xml:space="preserve" x="187.046" y="860.291" fill="#d9deff" stroke-width=".044" font-family="Open Sans" font-size="1.775" font-weight="400" style="line-height:1.25;-inkscape-font-specification:&quot;Open Sans&quot;"><tspan x="187.046" y="860.291" font-weight="700" style="-inkscape-font-specification:&quot;Open Sans&quot;">8300/tcp</tspan></text>
      <text xml:space="preserve" x="187.046" y="863.421" fill="#fff6e7" stroke-width=".044" font-family="Open Sans" font-size="1.775" font-weight="400" style="line-height:1.25;-inkscape-font-specification:&quot;Open Sans&quot;"><tspan x="187.046" y="863.421" font-weight="700" style="-inkscape-font-specification:&quot;Open Sans&quot;">8302/tcp</tspan></text>
      <text xml:space="preserve" x="187.046" y="866.612" fill="#ffd2b8" stroke-width=".044" font-family="Open Sans" font-size="1.775" font-weight="400" style="line-height:1.25;-inkscape-font-specification:&quot;Open Sans&quot;"><tspan x="187.046" y="866.612" font-weight="700" style="-inkscape-font-specification:&quot;Open Sans&quot;">8302/udp</tspan></text>
    </g>
    <text xml:space="preserve" x="63.233" y="54.567" fill="#848484" stroke-width=".371" font-family="sans-serif" font-size="3.463" font-weight="400" style="line-height:1.25"><tspan x="63.233" y="54.567" fill="#000" font-family="Open Sans" font-weight="700" style="-inkscape-font-specification:&quot;Open Sans&quot;">Standard: Without Mesh Gateways</tspan></text>
    <text xml:space="preserve" x="63.26" y="50.386" fill="#b6b8c2" stroke-width=".243" font-family="sans-serif" font-size="2.265" font-weight="400" style="line-height:1.25"><tspan x="63.26" y="50.386" font-family="Open Sans" font-weight="700" style="-inkscape-font-specification:&quot;Open Sans Bold&quot;">CROSS-DC CONTROL PLANE COMMUNICATION (WAN FEDERATION)</tspan></text>
    <text xml:space="preserve" x="290.638" y="1379.111" fill="#ffb000" fill-opacity=".827" stroke-width=".044" font-family="Open Sans" font-size="1.775" font-weight="400" style="line-height:1.25;-inkscape-font-specification:&quot;Open Sans&quot;" transform="translate(-180.993 -1244.414)"><tspan x="290.638" y="1379.111" font-weight="700" style="-inkscape-font-specification:&quot;Open Sans&quot;">8302/tcp</tspan></text>
    <text xml:space="preserve" x="290.638" y="1376.956" fill="#fd904f" stroke-width=".044" font-family="Open Sans" font-size="1.775" font-weight="400" style="line-height:1.25;-inkscape-font-specification:&quot;Open Sans&quot;" transform="translate(-180.993 -1244.414)"><tspan x="290.638" y="1376.956" font-weight="700" style="-inkscape-font-specification:&quot;Open Sans&quot;">8302/udp</tspan></text>
    <text xml:space="preserve" x="109.645" y="129.255" fill="#648fff" stroke-width=".044" font-family="Open Sans" font-size="1.775" font-weight="400" style="line-height:1.25;-inkscape-font-specification:&quot;Open Sans&quot;"><tspan x="109.645" y="129.255" font-weight="700" style="-inkscape-font-specification:&quot;Open Sans&quot;">8300/tcp</tspan></text>
    <text xml:space="preserve" x="119.276" y="129.124" stroke-width=".179" font-family="Open Sans" font-size="1.94" font-weight="400" style="line-height:1.25;-inkscape-font-specification:&quot;Open Sans, Normal&quot;;font-variant-ligatures:normal;font-variant-caps:normal;font-variant-numeric:normal;font-variant-east-asian:normal"><tspan x="119.276" y="129.124" style="-inkscape-font-specification:&quot;Open Sans, Normal&quot;;font-variant-ligatures:normal;font-variant-caps:normal;font-variant-numeric:normal;font-variant-east-asian:normal">Server RPC</tspan></text>
    <text xml:space="preserve" x="119.186" y="132.532" stroke-width=".179" font-family="Open Sans" font-size="1.94" font-weight="400" style="line-height:1.25;-inkscape-font-specification:&quot;Open Sans, Normal&quot;;font-variant-ligatures:normal;font-variant-caps:normal;font-variant-numeric:normal;font-variant-east-asian:normal"><tspan x="119.186" y="132.532" style="-inkscape-font-specification:&quot;Open Sans, Normal&quot;;font-variant-ligatures:normal;font-variant-caps:normal;font-variant-numeric:normal;font-variant-east-asian:normal">WAN Serf Gossip</tspan></text>
    <text xml:space="preserve" x="76.112" y="142.762" fill="#7c7c7c" stroke-width=".03" font-family="Open Sans" font-size="1.208" font-weight="400" style="line-height:1.25;-inkscape-font-specification:&quot;Open Sans, Normal&quot;;font-variant-ligatures:normal;font-variant-caps:normal;font-variant-numeric:normal;font-variant-east-asian:normal"><tspan x="76.112" y="142.762" style="-inkscape-font-specification:&quot;Open Sans, Normal&quot;;font-variant-ligatures:normal;font-variant-caps:normal;font-variant-numeric:normal;font-variant-east-asian:normal">all servers are connected in the WAN gossip pool</tspan></text>
    <text xml:space="preserve" x="76.016" y="140.844" stroke-width=".179" font-family="Open Sans" font-size="1.94" font-weight="400" style="line-height:1.25;-inkscape-font-specification:&quot;Open Sans, Normal&quot;;font-variant-ligatures:normal;font-variant-caps:normal;font-variant-numeric:normal;font-variant-east-asian:normal"><tspan x="76.016" y="140.844" style="-inkscape-font-specification:&quot;Open Sans, Normal&quot;;font-variant-ligatures:normal;font-variant-caps:normal;font-variant-numeric:normal;font-variant-east-asian:normal">Control Plane</tspan></text>
    <g transform="translate(-261.163 -797.847)scale(.97284)">
      <rect width="4.305" height="4.2" x="341.505" y="952.156" fill="#ca2171" fill-rule="evenodd" rx=".131" ry=".131"/>
      <path fill="#fff" fill-rule="evenodd" d="m342.523 954.038.103.21.232.034-.168.163.04.231-.207-.109-.207.11.04-.232-.169-.163.232-.034Z" clip-rule="evenodd"/>
      <text xml:space="preserve" x="343.041" y="954.551" stroke-width=".014" font-family="Open Sans" font-size=".541" font-weight="400" style="line-height:1.25;-inkscape-font-specification:&quot;Open Sans&quot;"><tspan x="343.041" y="954.551" fill="#fff" font-weight="700" style="-inkscape-font-specification:&quot;Open Sans Bold&quot;">LEADER</tspan></text>
      <g fill="#fff">
        <path fill-rule="evenodd" d="M344.984 953.11a.11.11 0 1 1 .11-.11.11.11 0 0 1-.11.111" clip-rule="evenodd" opacity=".7"/>
        <path fill-rule="evenodd" d="M345.199 953.05a.051.051 0 1 1 .051-.05.05.05 0 0 1-.051.051m.186.047a.047.047 0 1 1-.094-.004.047.047 0 0 1 .094.004m-.036-.131a.051.051 0 1 1 .04-.062v.02a.05.05 0 0 1-.04.04m.182.127a.05.05 0 1 1-.1-.017.05.05 0 0 1 .058-.04.05.05 0 0 1 .043.054v.005m-.043-.13a.05.05 0 1 1 .04-.058v.013a.05.05 0 0 1-.042.045m-.033.305a.051.051 0 1 1 .006-.021.04.04 0 0 1-.006.02m-.019-.467a.051.051 0 1 1-.05-.09.051.051 0 0 1 .05.09" clip-rule="evenodd"/>
        <path d="M344.986 953.512a.512.512 0 1 1 .31-.917l-.061.08a.41.41 0 1 0 0 .65l.062.082a.5.5 0 0 1-.31.105"/>
      </g>
    </g>
    <g transform="translate(71.574 116.684)scale(.13492)">
      <rect width="31.143" height="30.384" x="-36.991" y="87.118" fill="#ca2171" fill-rule="evenodd" rx=".949" ry=".949"/>
      <g fill="#fff" stroke-width=".447" transform="translate(-57.736 69.407)scale(.75411)">
        <use xlink:href="#b" fill-rule="evenodd" clip-rule="evenodd" opacity=".7"/>
        <use xlink:href="#c" fill-rule="evenodd" clip-rule="evenodd"/>
        <use xlink:href="#d"/>
      </g>
    </g>
    <text xml:space="preserve" x="76.567" y="131.294" stroke-width=".179" font-family="Open Sans" font-size="1.94" font-weight="400" style="line-height:1.25;-inkscape-font-specification:&quot;Open Sans, Normal&quot;;font-variant-ligatures:normal;font-variant-caps:normal;font-variant-numeric:normal;font-variant-east-asian:normal"><tspan x="76.567" y="131.294" style="-inkscape-font-specification:&quot;Open Sans, Normal&quot;;font-variant-ligatures:normal;font-variant-caps:normal;font-variant-numeric:normal;font-variant-east-asian:normal">Consul Server Agent</tspan></text>
    <text xml:space="preserve" x="66.47" y="126.107" stroke-width=".265" font-family="Open Sans" font-size="2.117" font-weight="700" style="line-height:1.25;-inkscape-font-specification:&quot;Open Sans, Bold&quot;;font-variant-ligatures:normal;font-variant-caps:normal;font-variant-numeric:normal;font-variant-east-asian:normal"><tspan x="66.47" y="126.107" style="-inkscape-font-specification:&quot;Open Sans, Bold&quot;;font-variant-ligatures:normal;font-variant-caps:normal;font-variant-numeric:normal;font-variant-east-asian:normal">System Components</tspan></text>
    <text xml:space="preserve" x="66.444" y="137.365" stroke-width=".265" font-family="Open Sans" font-size="2.117" font-weight="700" style="line-height:1.25;-inkscape-font-specification:&quot;Open Sans, Bold&quot;;font-variant-ligatures:normal;font-variant-caps:normal;font-variant-numeric:normal;font-variant-east-asian:normal"><tspan x="66.444" y="137.365" style="-inkscape-font-specification:&quot;Open Sans, Bold&quot;;font-variant-ligatures:normal;font-variant-caps:normal;font-variant-numeric:normal;font-variant-east-asian:normal">Communication Paths</tspan></text>
    <text xml:space="preserve" x="109.479" y="126.086" stroke-width=".265" font-family="Open Sans" font-size="2.117" font-weight="700" style="line-height:1.25;-inkscape-font-specification:&quot;Open Sans, Bold&quot;;font-variant-ligatures:normal;font-variant-caps:normal;font-variant-numeric:normal;font-variant-east-asian:normal"><tspan x="109.479" y="126.086" style="-inkscape-font-specification:&quot;Open Sans, Bold&quot;;font-variant-ligatures:normal;font-variant-caps:normal;font-variant-numeric:normal;font-variant-east-asian:normal">Ports</tspan></text>
    <text xml:space="preserve" x="119.343" y="134.341" fill="#7c7c7c" stroke-width=".03" font-family="Open Sans" font-size="1.208" font-weight="400" style="line-height:1.25;-inkscape-font-specification:&quot;Open Sans, Normal&quot;;font-variant-ligatures:normal;font-variant-caps:normal;font-variant-numeric:normal;font-variant-east-asian:normal"><tspan x="119.343" y="134.341" style="-inkscape-font-specification:&quot;Open Sans, Normal&quot;;font-variant-ligatures:normal;font-variant-caps:normal;font-variant-numeric:normal;font-variant-east-asian:normal">gossip occurs primarily via UDP,</tspan><tspan x="119.343" y="135.851" style="-inkscape-font-specification:&quot;Open Sans, Normal&quot;;font-variant-ligatures:normal;font-variant-caps:normal;font-variant-numeric:normal;font-variant-east-asian:normal">TCP is only used as a fallback</tspan></text>
    <path fill="none" stroke="#648fff" stroke-width=".75" d="M66.694 139.538h7.683"/>
    <path fill="none" stroke="#fe5e00" stroke-opacity=".827" stroke-width=".75" d="M66.694 142.714h7.683"/>
    <path fill="none" stroke="#ffb000" stroke-opacity=".827" stroke-width=".75" d="M66.694 141.126h7.683"/>
    <text xml:space="preserve" x="66.545" y="147.627" fill="#7c7c7c" stroke-width=".023" font-family="Open Sans" font-size="1.464" font-weight="400" style="line-height:1.25;-inkscape-font-specification:&quot;Open Sans, Normal&quot;;font-variant-ligatures:normal;font-variant-caps:normal;font-variant-numeric:normal;font-variant-east-asian:normal"><tspan x="66.545" y="147.627" fill="#000" style="-inkscape-font-specification:&quot;Open Sans, Normal&quot;;font-variant-ligatures:normal;font-variant-caps:normal;font-variant-numeric:normal;font-variant-east-asian:normal"><tspan font-weight="700" style="-inkscape-font-specification:&quot;Open Sans, Normal&quot;;font-variant-ligatures:normal;font-variant-caps:normal;font-variant-numeric:normal;font-variant-east-asian:normal">Not shown: </tspan>Consul client agents and their LAN Serf Gossip traffic on ports 8301/{udp,tcp} are not shown</tspan><tspan x="66.545" y="149.457" fill="#000" style="-inkscape-font-specification:&quot;Open Sans, Normal&quot;;font-variant-ligatures:normal;font-variant-caps:normal;font-variant-numeric:normal;font-variant-east-asian:normal">                       because they are not involved in cross-DC communication.</tspan></text>
  </g>
</svg>
