<svg xmlns="http://www.w3.org/2000/svg" xmlns:xlink="http://www.w3.org/1999/xlink" fill="none" stroke-linecap="square" stroke-miterlimit="10" viewBox="0 0 960 540">
  <clipPath id="a">
    <path d="M0 0h960v540H0z"/>
  </clipPath>
  <g clip-path="url(#a)">
    <path fill="#fff" fill-rule="evenodd" d="M0 0h960v540H0z"/>
    <g filter="url(#b)">
      <use xlink:href="#c" transform="translate(0 7.333)"/>
    </g>
    <defs>
      <filter id="b" filterUnits="userSpaceOnUse">
        <feGaussianBlur in="SourceAlpha" result="blur" stdDeviation="5.333"/>
        <feComponentTransfer color-interpolation-filters="sRGB" in="blur">
          <feFuncR slope="0" type="linear"/>
          <feFuncG slope="0" type="linear"/>
          <feFuncB slope="0" type="linear"/>
          <feFuncA slope=".063" type="linear"/>
        </feComponentTransfer>
      </filter>
    </defs>
    <path id="c" fill="#e03875" fill-opacity=".056" fill-rule="evenodd" d="M850.713 57.692a6.55 6.55 0 0 0-6.55-6.548H589.64a6.55 6.55 0 0 0-6.549 6.548v475.753a6.55 6.55 0 0 0 6.55 6.549h254.524a6.55 6.55 0 0 0 6.548-6.549z"/>
    <g filter="url(#d)">
      <use xlink:href="#e" transform="translate(0 7.333)"/>
    </g>
    <defs>
      <filter id="d" filterUnits="userSpaceOnUse">
        <feGaussianBlur in="SourceAlpha" result="blur" stdDeviation="5.333"/>
        <feComponentTransfer color-interpolation-filters="sRGB" in="blur">
          <feFuncR slope="0" type="linear"/>
          <feFuncG slope="0" type="linear"/>
          <feFuncB slope="0" type="linear"/>
          <feFuncA slope=".063" type="linear"/>
        </feComponentTransfer>
      </filter>
    </defs>
    <path id="e" fill="#e03875" fill-opacity=".056" fill-rule="evenodd" d="M109.287 61.84c0-6.016 4.877-10.892 10.892-10.892H543.5a10.89 10.89 0 0 1 10.89 10.891v467.068c0 6.015-4.876 10.891-10.89 10.891H120.18c-6.015 0-10.892-4.876-10.892-10.891z"/>
    <path d="M424.201 281.304H254.028"/>
    <path stroke="#e03875" stroke-dasharray="6 8" stroke-linecap="round" stroke-linejoin="round" stroke-width="2" d="M424.201 281.304H259.628"/>
    <path fill="#e03875" stroke="#e03875" stroke-linecap="butt" stroke-width="2" d="M255.028 281.304a2.3 2.3 0 1 1 4.6 0 2.3 2.3 0 0 1-4.6 0z"/>
    <path fill="#fff" fill-rule="evenodd" d="M153.455 244.606a2.38 2.38 0 0 1 2.379-2.379h80.875a2.38 2.38 0 0 1 2.38 2.38v80.88a2.38 2.38 0 0 1-2.38 2.38h-80.875a2.38 2.38 0 0 1-2.379-2.38z"/>
    <path stroke="#e03875" stroke-linecap="butt" stroke-miterlimit="400" d="M153.455 244.606a2.38 2.38 0 0 1 2.379-2.379h80.875a2.38 2.38 0 0 1 2.38 2.38v80.88a2.38 2.38 0 0 1-2.38 2.38h-80.875a2.38 2.38 0 0 1-2.379-2.38z"/>
    <path fill="#e03875" fill-rule="evenodd" d="M217.17 310.535a6.26 6.26 0 1 1 12.522 0 6.261 6.261 0 1 1-12.522 0"/>
    <path d="M146.203 330.072h100.56v39.537h-100.56z"/>
    <path fill="#000" d="M162.837 334.827q1.453 0 2.484.828 1.032.812 1.204 2.25h-1.813q-.125-.672-.672-1.078-.547-.422-1.203-.422-1.11 0-1.719.812-.609.797-.609 2.125 0 1.266.594 2.063.61.797 1.734.797.813 0 1.313-.5.515-.5.625-1.407h1.828q-.157 1.625-1.188 2.563-1.015.937-2.578.937-1.234 0-2.203-.562t-1.5-1.594q-.516-1.031-.516-2.297 0-1.968 1.157-3.234 1.156-1.281 3.062-1.281m7.879 2.39q1.469 0 2.344.907.875.89.875 2.375t-.89 2.375q-.876.89-2.329.89-1.437 0-2.328-.89-.875-.907-.875-2.375 0-1.47.86-2.375.874-.907 2.343-.907m-1.5 3.282q0 .984.406 1.484t1.094.5q.734 0 1.125-.516.39-.531.39-1.468 0-.922-.39-1.454-.375-.546-1.125-.546-.687 0-1.094.5-.406.5-.406 1.5m9.377-3.282q1.187 0 1.719.61.547.593.547 1.89v3.875h-1.704v-3.562q0-.719-.25-1.094t-.843-.375q-.703 0-1.016.422-.312.422-.312 1.297v3.312h-1.688v-6.203h1.61v.86h.03q.313-.5.813-.766t1.094-.266m6.098 0q1.265 0 1.953.5.703.5.797 1.485h-1.625q-.047-.438-.344-.641-.281-.203-.828-.203-.485 0-.719.156-.219.14-.219.422t.297.469 1.188.36q1.421.265 1.906.702.5.438.5 1.14 0 1.048-.781 1.61-.766.547-2.047.547-1.297 0-2.078-.547-.782-.547-.844-1.64h1.625q0 .484.375.765t.937.282q.5 0 .797-.22.313-.218.313-.577 0-.328-.407-.532-.39-.203-1.468-.421-1.078-.22-1.547-.61t-.469-1.062q0-.985.688-1.485.703-.5 2-.5m5.601.172v3.547q0 .703.25 1.094.25.39.86.39.703 0 1-.421.312-.438.312-1.297v-3.313h1.703v6.203h-1.625v-.86h-.031q-.328.517-.844.782-.5.25-1.062.25-1.157 0-1.703-.594-.547-.593-.547-1.906v-3.875zm7.176-2.36v8.563h-1.703v-8.562zm8.693-.202q1.453 0 2.485.828 1.03.812 1.203 2.25h-1.813q-.125-.672-.672-1.078-.546-.422-1.203-.422-1.11 0-1.718.812-.61.797-.61 2.125 0 1.266.594 2.063.61.797 1.734.797.813 0 1.313-.5.515-.5.625-1.407h1.828q-.156 1.625-1.188 2.563-1.015.937-2.578.937-1.234 0-2.203-.562t-1.5-1.594q-.515-1.031-.515-2.297 0-1.968 1.156-3.234 1.156-1.281 3.062-1.281m6.63.203v8.562h-1.704v-8.562zm3.093 0v1.39h-1.703v-1.39zm0 2.36v6.202h-1.703v-6.203zm4.203-.173q1.375 0 2.203.953.828.938.828 2.422l-.015.313h-4.485q.047.797.422 1.187.39.39 1.094.39.469 0 .86-.233.39-.25.5-.579h1.5q-.344 1.047-1.063 1.579-.719.515-1.844.515-1.437 0-2.312-.906-.86-.906-.86-2.36 0-1.39.89-2.328.891-.953 2.282-.953m-1.469 2.61h2.782q-.125-.688-.454-1-.312-.328-.921-.328-.61 0-.985.359-.36.344-.422.969m9.047-2.61q1.188 0 1.719.61.547.593.547 1.89v3.875h-1.703v-3.562q0-.719-.25-1.094t-.844-.375q-.703 0-1.016.422-.312.422-.312 1.297v3.312h-1.688v-6.203h1.61v.86h.031q.312-.5.812-.766t1.094-.266m5.723-1.687v1.86h1.25v1.14h-1.25v3.11q0 .374.14.53t.579.157q.14 0 .265-.016l.266-.031v1.328q-.219.031-.484.047-.25.015-.5.015-1.11 0-1.547-.375-.422-.39-.422-1.062v-3.703h-1.031v-1.14h1.03v-1.86z"/>
    <path d="M146.203 234.407a2.76 2.76 0 0 1 2.76-2.76h95.04a2.76 2.76 0 0 1 2.76 2.76v93.825a2.76 2.76 0 0 1-2.76 2.76h-95.04a2.76 2.76 0 0 1-2.76-2.76z"/>
    <path fill="#dc477d" fill-rule="evenodd" d="M387.508 241.993a2.38 2.38 0 0 1 2.379-2.379h80.876a2.38 2.38 0 0 1 2.379 2.38v80.875a2.38 2.38 0 0 1-2.38 2.38h-80.875a2.38 2.38 0 0 1-2.38-2.38z"/>
    <path fill="#fff" fill-rule="evenodd" d="M430.492 306.361c-13.191.01-23.893-10.708-23.904-23.94s10.674-23.969 23.865-23.98c6-.005 11.783 2.256 16.198 6.334l-5.668 5.948c-6.432-5.83-16.358-5.327-22.17 1.126s-5.31 16.409 1.122 22.239a15.66 15.66 0 0 0 21.048 0l5.668 5.948a23.76 23.76 0 0 1-16.159 6.325m19.22-11.984a1.96 1.96 0 0 1-1.958-1.964 1.96 1.96 0 0 1 1.958-1.964 1.96 1.96 0 0 1 1.957 1.964 1.965 1.965 0 0 1-1.957 1.964"/>
    <path fill="#fff" fill-rule="evenodd" d="M430.34 287.593c-2.856 0-5.172-2.323-5.172-5.187s2.316-5.188 5.171-5.188 5.172 2.323 5.172 5.188c-.003 2.863-2.317 5.184-5.172 5.187m21.614.074a1.96 1.96 0 0 1-1.958-1.964 1.96 1.96 0 0 1 1.958-1.963 1.96 1.96 0 0 1 1.957 1.963 1.965 1.965 0 0 1-1.957 1.964m-5.817-.223a1.96 1.96 0 0 1-1.957-1.964 1.96 1.96 0 0 1 1.957-1.964 1.96 1.96 0 0 1 1.958 1.964 1.96 1.96 0 0 1-1.958 1.964m5.817-6.377a1.96 1.96 0 0 1-1.958-1.964 1.96 1.96 0 0 1 1.958-1.964 1.96 1.96 0 0 1 1.957 1.964 1.965 1.965 0 0 1-1.957 1.964m-5.817.223a1.96 1.96 0 0 1-1.957-1.964 1.96 1.96 0 0 1 1.957-1.964 1.96 1.96 0 0 1 1.958 1.964v.005a1.96 1.96 0 0 1-1.958 1.96m3.689-6.828a1.96 1.96 0 0 1-1.962-1.96 1.96 1.96 0 0 1 1.953-1.968 1.96 1.96 0 0 1 1.962 1.96v.004a1.96 1.96 0 0 1-1.953 1.964"/>
    <path d="M380.045 326.963h100.56v39.536h-100.56z"/>
    <path fill="#000" d="M394.687 331.717q1.453 0 2.484.828 1.032.813 1.204 2.25h-1.813q-.125-.672-.672-1.078-.547-.422-1.203-.422-1.11 0-1.719.813-.609.797-.609 2.125 0 1.265.594 2.062.61.797 1.734.797.813 0 1.313-.5.515-.5.625-1.406h1.828q-.157 1.625-1.188 2.562-1.015.938-2.578.938-1.234 0-2.203-.563t-1.5-1.593q-.516-1.032-.516-2.297 0-1.97 1.157-3.235 1.156-1.281 3.062-1.281m7.879 2.39q1.469 0 2.344.907.875.89.875 2.375t-.89 2.375q-.876.89-2.329.89-1.437 0-2.328-.89-.875-.906-.875-2.375t.86-2.375q.874-.906 2.343-.906m-1.5 3.282q0 .984.406 1.484t1.094.5q.734 0 1.125-.515.39-.532.39-1.47 0-.921-.39-1.452-.375-.547-1.125-.547-.687 0-1.094.5-.406.5-.406 1.5m9.377-3.281q1.187 0 1.719.609.547.594.547 1.89v3.876h-1.704v-3.563q0-.719-.25-1.094t-.843-.375q-.703 0-1.016.422-.312.422-.312 1.297v3.313h-1.688v-6.203h1.61v.859h.03q.313-.5.813-.766.5-.265 1.094-.265m6.098 0q1.265 0 1.953.5.703.5.797 1.484h-1.625q-.047-.437-.344-.64-.281-.204-.828-.204-.485 0-.719.157-.219.14-.219.421 0 .282.297.47.297.187 1.188.359 1.421.265 1.906.703.5.437.5 1.14 0 1.047-.781 1.61-.766.547-2.047.547-1.297 0-2.078-.547-.782-.547-.844-1.641h1.625q0 .484.375.766.375.28.937.28.5 0 .797-.218.313-.219.313-.578 0-.328-.407-.531-.39-.203-1.468-.422t-1.547-.61-.469-1.062q0-.984.688-1.484.703-.5 2-.5m5.601.172v3.546q0 .704.25 1.094t.86.39q.703 0 1-.421.312-.438.312-1.297v-3.312h1.703v6.203h-1.625v-.86h-.031q-.328.516-.844.782-.5.25-1.062.25-1.157 0-1.703-.594-.547-.594-.547-1.906v-3.875zm7.176-2.36v8.563h-1.703v-8.563zm7.803-.203q1.547 0 2.484.719t.938 2.031h-1.813q-.047-.64-.453-.969-.39-.328-1.234-.328-.579 0-.954.266-.359.25-.359.719 0 .312.156.468.157.157.625.344.47.172 2.063.547 1.062.25 1.656.875.61.61.61 1.547 0 1.25-.938 2t-2.625.75q-1.61 0-2.64-.797-1.016-.797-1.016-2.203v-.047h1.828q0 .797.515 1.187.532.391 1.375.391.766 0 1.22-.266.452-.28.452-.796 0-.422-.36-.688-.343-.266-1.108-.453-.985-.219-1.782-.469t-1.328-.812-.531-1.438q0-1.156.922-1.86.937-.718 2.297-.718m7.521 2.39q1.375 0 2.203.954.828.937.828 2.422l-.015.312h-4.485q.047.797.422 1.188.39.39 1.094.39.469 0 .86-.234.39-.25.5-.578h1.5q-.344 1.047-1.063 1.578-.719.516-1.844.516-1.437 0-2.312-.907-.86-.906-.86-2.36 0-1.39.89-2.327.892-.953 2.282-.953m-1.469 2.61h2.782q-.125-.687-.453-1-.313-.328-.922-.328-.61 0-.985.36-.36.343-.422.968m9.11-2.61q.11 0 .203.016t.172.047v1.578q-.14-.031-.281-.031-.141-.016-.329-.016-.859 0-1.28.532-.407.515-.407 1.406v2.844h-1.688v-6.203h1.61v1.156h.031q.266-.61.797-.969.547-.36 1.172-.36m2.394.173 1.313 4.234h.031l1.297-4.234h1.703l-2.11 6.203h-1.89l-2.125-6.203zm7.912-.172q1.375 0 2.204.953.828.937.828 2.422l-.016.312h-4.484q.047.797.422 1.188.39.39 1.093.39.47 0 .86-.234.39-.25.5-.578h1.5q-.344 1.047-1.063 1.578-.719.516-1.844.516-1.437 0-2.312-.907-.86-.906-.86-2.36 0-1.39.891-2.327.89-.953 2.281-.953m-1.468 2.609h2.78q-.124-.687-.452-1-.313-.328-.922-.328-.61 0-.984.36-.36.343-.422.968m9.11-2.61q.108 0 .202.016t.172.047v1.578q-.14-.031-.281-.031-.14-.016-.328-.016-.86 0-1.282.532-.406.515-.406 1.406v2.844h-1.687v-6.203h1.61v1.156h.03q.266-.61.797-.969.547-.36 1.172-.36m-59.6 11.608q-.64 1.188-.984 2.578-.328 1.39-.328 2.86 0 1.468.312 2.843.313 1.36.985 2.672h-1.422q-.766-1.281-1.172-2.672-.406-1.39-.406-2.734 0-1.39.406-2.906t1.172-2.641zm2.63.203v6.985h4.171v1.578h-6.062v-8.563zm7.693 2.188q1.375 0 2.203.953.828.937.828 2.422l-.016.312h-4.484q.047.797.422 1.188.39.39 1.094.39.468 0 .859-.234.39-.25.5-.578h1.5q-.344 1.047-1.063 1.578-.718.516-1.843.516-1.438 0-2.313-.907-.86-.906-.86-2.36 0-1.39.891-2.327.891-.953 2.282-.953m-1.469 2.609h2.781q-.125-.687-.453-1-.312-.328-.922-.328t-.984.36q-.36.343-.422.968m8.344-2.61q1.375 0 2.047.454.671.453.671 1.281v3.328q0 .375.047.75t.172.563h-1.734q-.047-.141-.078-.282-.032-.156-.047-.312-.36.375-.89.578-.516.188-1.188.188-.969 0-1.547-.485-.563-.484-.563-1.375 0-.875.532-1.328.546-.469 1.968-.625.985-.094 1.297-.234.328-.157.328-.532 0-.406-.25-.609-.234-.219-.843-.219-.532 0-.813.235-.281.218-.328.703h-1.703q.062-1.016.828-1.547.781-.531 2.094-.531m-1.407 4.61q0 .375.25.594.25.203.797.203.672 0 1.016-.36.36-.359.36-1.046v-.657q-.157.125-.407.188-.25.047-.89.14-.594.079-.86.313-.266.219-.266.625m11.5-6.797v8.563h-1.625v-.797h-.03q-.266.484-.75.734-.485.235-1.126.235-1.265 0-2.031-.938-.75-.937-.75-2.39 0-1.391.734-2.297.75-.922 2.016-.922.578 0 1.047.234.484.234.781.688h.031v-3.11zm-4.609 5.453q0 .86.39 1.438.407.562 1.11.562t1.078-.515q.375-.532.375-1.5 0-.907-.375-1.438-.36-.531-1.094-.531-.703 0-1.093.531t-.39 1.453m8.752-3.265q1.375 0 2.203.953.828.937.828 2.422l-.015.312h-4.485q.047.797.422 1.188.39.39 1.094.39.469 0 .86-.234.39-.25.5-.578h1.5q-.344 1.047-1.063 1.578-.719.516-1.844.516-1.437 0-2.312-.907-.86-.906-.86-2.36 0-1.39.89-2.327.891-.953 2.282-.953m-1.469 2.609h2.782q-.125-.687-.454-1-.312-.328-.921-.328-.61 0-.985.36-.36.343-.422.968m9.11-2.61q.11 0 .203.016t.172.047v1.578q-.14-.031-.282-.031-.14-.016-.328-.016-.86 0-1.28.532-.407.515-.407 1.406v2.844h-1.688v-6.203h1.61v1.156h.03q.267-.61.798-.969.547-.36 1.172-.36m1.748-2.39q.781 1.266 1.187 2.656t.406 2.75q0 1.375-.421 2.907-.407 1.515-1.172 2.64h-1.422q.656-1.25.969-2.61.328-1.374.328-2.812 0-1.5-.328-2.875-.313-1.39-.97-2.656z"/>
    <path d="M380.045 237.503a2.76 2.76 0 0 1 2.76-2.76h95.04a2.76 2.76 0 0 1 2.76 2.76v93.825a2.76 2.76 0 0 1-2.76 2.76h-95.04a2.76 2.76 0 0 1-2.76-2.76zM675.284 22.626h131.969"/>
    <path stroke="#e03875" stroke-linecap="butt" stroke-miterlimit="400" stroke-width="2" d="M675.284 22.626h131.969"/>
    <path d="M668.289.007h156v21.007h-156z"/>
    <path fill="#000" d="M684.725 4.964q1.031 0 1.734.672.72.656.72 1.687 0 .813-.345 1.344-.328.531-1.015.797v.031q.61.157.922.719.328.563.36 1.719.03 1.172.327 1.594h-1.875q-.172-.422-.234-1.344-.078-1.266-.422-1.625-.328-.375-1.031-.375h-1.922v3.344h-1.89V4.964zm-.687 3.875q.593 0 .921-.281.344-.297.344-.953 0-.61-.328-.891-.312-.297-.937-.297h-2.094V8.84zm7.369-1.687q1.375 0 2.203.953.828.937.828 2.422l-.016.312h-4.484q.047.797.422 1.188.39.39 1.094.39.468 0 .859-.234.39-.25.5-.578h1.5q-.344 1.047-1.063 1.578-.718.515-1.843.515-1.438 0-2.313-.906-.86-.906-.86-2.36 0-1.39.891-2.327.891-.953 2.282-.953m-1.469 2.609h2.781q-.125-.688-.453-1-.312-.328-.922-.328t-.984.36q-.36.343-.422.968M699 7.15q.704 0 1.141.266.453.266.672.766.36-.5.828-.766.484-.265 1.063-.265 1.125 0 1.687.578t.563 1.593v4.204h-1.704V9.933q0-.844-.25-1.14-.25-.298-.78-.298-.579 0-.876.39-.281.392-.281 1.126v3.516h-1.703V9.698q0-.609-.235-.906t-.78-.297q-.485 0-.829.375-.328.375-.328 1.016v3.64h-1.703V7.324h1.594v.844h.03q.36-.515.829-.765.484-.25 1.062-.25m10.307 0q1.469 0 2.344.907.875.89.875 2.375t-.89 2.375q-.876.89-2.329.89-1.437 0-2.328-.89-.875-.906-.875-2.375t.86-2.375q.874-.906 2.343-.906m-1.5 3.282q0 .984.406 1.484t1.094.5q.735 0 1.125-.515.39-.532.39-1.47 0-.921-.39-1.452-.375-.547-1.125-.547-.687 0-1.094.5-.406.5-.406 1.5m7.986-4.969v1.86h1.25v1.14h-1.25v3.11q0 .374.141.53t.578.157q.14 0 .266-.016.14-.015.265-.031v1.328q-.218.031-.484.047-.25.016-.5.016-1.11 0-1.547-.375-.422-.391-.422-1.063V8.464h-1.03v-1.14h1.03v-1.86zm4.87 1.688q1.375 0 2.203.953.828.937.828 2.422l-.016.312h-4.484q.047.797.422 1.188.39.39 1.093.39.47 0 .86-.234.39-.25.5-.578h1.5q-.344 1.047-1.063 1.578-.718.515-1.843.515-1.438 0-2.313-.906-.86-.906-.86-2.36 0-1.39.891-2.327.891-.953 2.282-.953m-1.47 2.609h2.782q-.125-.688-.453-1-.313-.328-.922-.328-.61 0-.984.36-.36.343-.422.968m12.757-4.797q1.718 0 2.781 1.125 1.062 1.11 1.062 3.11t-1.046 3.171q-1.032 1.157-2.797 1.157h-3.75V4.964zm-.14 6.984q.905 0 1.5-.64.593-.656.593-1.938 0-1.484-.625-2.156t-1.797-.672h-1.39v5.406zm9.128-7.187q1.453 0 2.484.828 1.032.813 1.203 2.25h-1.812q-.125-.672-.672-1.078-.547-.422-1.203-.422-1.11 0-1.719.813-.61.796-.61 2.125 0 1.265.595 2.062.609.797 1.734.797.812 0 1.312-.5.516-.5.625-1.406h1.829q-.157 1.625-1.188 2.562-1.016.938-2.578.938-1.234 0-2.203-.563t-1.5-1.594q-.516-1.03-.516-2.296 0-1.97 1.156-3.235 1.157-1.281 3.063-1.281m14.4.203v1.578h-4.125V8.53h3.579v1.45h-3.579v3.547h-1.89V4.964zm3.422 2.188q1.469 0 2.344.906.875.89.875 2.375t-.89 2.375q-.876.89-2.329.89-1.437 0-2.328-.89-.875-.906-.875-2.375t.86-2.375q.875-.906 2.343-.906m-1.5 3.28q0 .985.407 1.485t1.093.5q.735 0 1.125-.515.39-.532.39-1.47 0-.921-.39-1.452-.375-.547-1.125-.547-.687 0-1.093.5-.407.5-.407 1.5m9.44-3.28q.11 0 .203.015.094.016.172.047v1.578q-.14-.031-.282-.031-.14-.016-.328-.016-.859 0-1.28.532-.407.515-.407 1.406v2.844h-1.688V7.323h1.61V8.48h.031q.266-.61.797-.97.547-.358 1.172-.358m2.425.171 1.141 4.204h.016l1.031-4.204h1.656l1.063 4.204h.015l1.157-4.204h1.75l-1.97 6.204h-1.75l-1.093-4.172h-.031l-1.063 4.172h-1.75l-1.968-6.204zm11.393-.171q1.375 0 2.047.453t.672 1.28v3.329q0 .375.047.75t.172.563h-1.735q-.047-.141-.078-.282-.031-.156-.047-.312-.36.375-.89.578-.516.187-1.188.187-.969 0-1.547-.484-.562-.484-.562-1.375 0-.875.53-1.328.548-.469 1.97-.625.984-.094 1.297-.234.328-.157.328-.532 0-.406-.25-.61-.235-.218-.844-.218-.531 0-.813.235-.28.218-.328.703h-1.703q.063-1.016.828-1.547.782-.531 2.094-.531m-1.406 4.609q0 .375.25.594.25.203.797.203.672 0 1.015-.36.36-.359.36-1.046v-.657q-.157.125-.407.188-.25.047-.89.14-.594.079-.86.313-.265.219-.265.625m9.062-4.61q.11 0 .203.016t.172.047v1.578q-.14-.031-.28-.031-.142-.016-.33-.016-.858 0-1.28.532-.407.515-.407 1.406v2.844h-1.687V7.323h1.61V8.48h.03q.266-.61.797-.97.547-.358 1.172-.358m7.014-2.187v8.563h-1.625v-.797h-.031q-.266.484-.75.734-.485.234-1.125.234-1.266 0-2.032-.937-.75-.938-.75-2.39 0-1.391.735-2.298.75-.922 2.015-.922.579 0 1.047.235.485.234.782.687h.03v-3.11zm-4.61 5.453q0 .86.391 1.438.406.562 1.11.562.703 0 1.078-.515.375-.532.375-1.5 0-.907-.375-1.438-.36-.531-1.094-.531-.703 0-1.094.531-.39.531-.39 1.453m7.643-5.453v1.39h-1.703v-1.39zm0 2.36v6.203h-1.703V7.323zm4.89-.172q1.188 0 1.72.609.546.594.546 1.89v3.876h-1.703V9.964q0-.719-.25-1.094t-.843-.375q-.704 0-1.016.422t-.313 1.297v3.313h-1.687V7.323h1.61v.86h.03q.313-.5.813-.766.5-.265 1.094-.265m6.036 0q.672 0 1.11.265.452.25.734.735h.031v-.829h1.61v5.86q0 1.25-.798 1.969-.796.718-2.406.718-1.094 0-1.89-.531-.782-.516-.86-1.453h1.688q.125.453.453.656t.828.203q.656 0 1.016-.406.359-.39.359-1.094v-.86h-.031q-.25.454-.75.704-.485.25-1.11.25-1.25 0-1.953-.828t-.703-2.281q0-1.313.734-2.188.735-.89 1.938-.89m-.969 3.046q0 .875.36 1.375.375.485 1.03.485.673 0 1.063-.485.391-.5.391-1.234 0-.906-.375-1.406t-1.094-.5q-.625 0-1 .484-.375.485-.375 1.281"/>
    <path d="M693.509 24.246h100.567v21.008H693.509z"/>
    <path fill="#000" d="M723.454 29.203v1.578h-2.562v6.985h-1.89V30.78h-2.563v-1.578zm4.473-.203q1.453 0 2.484.828 1.031.813 1.203 2.25h-1.812q-.125-.672-.672-1.078-.547-.422-1.203-.422-1.11 0-1.719.813-.61.797-.61 2.125 0 1.265.594 2.062.61.797 1.735.797.812 0 1.312-.5.516-.5.625-1.406h1.828q-.156 1.625-1.187 2.562-1.016.938-2.578.938-1.235 0-2.203-.563-.969-.562-1.5-1.593-.516-1.032-.516-2.297 0-1.969 1.156-3.235 1.157-1.28 3.063-1.28m8.973.203q1.343 0 2.125.75.78.75.78 2 0 1.235-.78 1.985-.782.75-2.125.75h-2.032v3.078h-1.89v-8.563zm-.516 4.032q.812 0 1.203-.297.39-.313.39-.985 0-.656-.39-.968-.375-.329-1.203-.329h-1.516v2.579zM744.732 29l-3.344 8.969h-1.375l3.36-8.969zm3.234.203q1.297 0 2.047.703.75.704.75 1.547 0 .61-.313 1.078-.297.47-.906.688v.016q.781.187 1.172.734t.39 1.328q0 1.203-.906 1.922t-2.234.719q-1.39 0-2.297-.703-.89-.704-.89-1.938 0-.797.406-1.328.422-.547 1.172-.734v-.016q-.594-.172-.922-.625-.313-.469-.313-1.11 0-1.015.828-1.64.844-.64 2.016-.64m-1.297 2.438q0 .484.36.797.359.312.921.312.578 0 .922-.297t.344-.812-.328-.828q-.313-.328-.938-.328-.578 0-.937.328-.344.328-.344.828m-.187 3.578q0 .61.421 1.031.438.406 1.063.406t1.031-.406.406-1.015q0-.579-.421-.954-.407-.39-1.032-.39-.61 0-1.047.36-.421.343-.421.968m8.11-6.016q1.141 0 1.985.657.844.656.844 1.671 0 .61-.313 1.079-.296.453-.875.625v.03q.704.157 1.094.688.406.516.406 1.22 0 1.233-.906 2-.906.765-2.219.765-1.421 0-2.28-.797-.845-.813-.845-2.172v-.094h1.625q.032.781.422 1.219.391.437 1.047.437.61 0 .985-.375.39-.39.39-.953 0-.625-.375-.922-.375-.312-1.39-.312h-.188v-1.203h.297q.719 0 1.11-.266.39-.281.39-.781t-.344-.813q-.328-.312-.844-.312-.578 0-.937.39-.344.376-.36 1.11h-1.624q.046-1.313.843-2.094.797-.797 2.063-.797m6.69 0q1.5 0 2.297 1.094t.797 3.234q0 2.157-.797 3.282-.781 1.125-2.297 1.125-1.5 0-2.297-1.11-.78-1.125-.78-3.297 0-2.125.78-3.218.782-1.11 2.297-1.11m-1.375 4.344q0 1.297.172 1.89.188.579.485.844.296.25.718.25.672 0 1.032-.656.359-.672.359-2.344 0-1.609-.36-2.265-.359-.672-1.046-.672-.64 0-1 .64-.36.641-.36 2.313m8.05-4.344q1.5 0 2.296 1.094.797 1.094.797 3.234 0 2.157-.797 3.282-.781 1.125-2.297 1.125-1.5 0-2.297-1.11-.781-1.125-.781-3.297 0-2.125.781-3.218.782-1.11 2.297-1.11m-1.376 4.344q0 1.297.172 1.89.188.579.484.844.297.25.72.25.671 0 1.03-.656.36-.672.36-2.344 0-1.609-.36-2.265-.359-.672-1.046-.672-.641 0-1 .64-.36.641-.36 2.313"/>
    <path d="M321.391 376.485a2.76 2.76 0 0 1 2.76-2.76h95.04a2.76 2.76 0 0 1 2.76 2.76v93.826a2.76 2.76 0 0 1-2.76 2.76h-95.04a2.76 2.76 0 0 1-2.76-2.76z"/>
    <path fill="#dc477d" fill-rule="evenodd" d="M328.856 386.685a2.38 2.38 0 0 1 2.378-2.38h80.877a2.38 2.38 0 0 1 2.379 2.38v80.876a2.38 2.38 0 0 1-2.38 2.379h-80.876a2.38 2.38 0 0 1-2.378-2.379z"/>
    <path fill="#fff" fill-rule="evenodd" d="M371.84 451.053c-13.191.01-23.893-10.708-23.904-23.94-.011-13.234 10.674-23.97 23.865-23.98 6-.005 11.783 2.256 16.198 6.333l-5.668 5.948c-6.432-5.83-16.358-5.326-22.17 1.126s-5.31 16.41 1.122 22.24a15.66 15.66 0 0 0 21.048 0l5.668 5.948a23.76 23.76 0 0 1-16.159 6.324m19.22-11.984a1.96 1.96 0 0 1-1.958-1.964 1.96 1.96 0 0 1 1.958-1.964 1.96 1.96 0 0 1 1.957 1.964 1.965 1.965 0 0 1-1.957 1.964"/>
    <path fill="#fff" fill-rule="evenodd" d="M371.687 432.284c-2.855 0-5.17-2.322-5.17-5.187s2.315-5.187 5.17-5.187 5.172 2.322 5.172 5.187c-.003 2.864-2.317 5.185-5.172 5.187m21.613.075a1.96 1.96 0 0 1-1.957-1.964 1.96 1.96 0 0 1 1.958-1.964 1.96 1.96 0 0 1 1.957 1.964 1.965 1.965 0 0 1-1.957 1.964m-5.817-.223a1.96 1.96 0 0 1-1.957-1.964 1.96 1.96 0 0 1 1.957-1.964 1.96 1.96 0 0 1 1.958 1.964 1.96 1.96 0 0 1-1.958 1.964m5.816-6.377a1.96 1.96 0 0 1-1.957-1.964 1.96 1.96 0 0 1 1.958-1.964 1.96 1.96 0 0 1 1.957 1.964 1.965 1.965 0 0 1-1.957 1.964m-5.817.223a1.96 1.96 0 0 1-1.957-1.964 1.96 1.96 0 0 1 1.957-1.964 1.96 1.96 0 0 1 1.958 1.964v.004a1.96 1.96 0 0 1-1.958 1.96m3.689-6.828a1.96 1.96 0 0 1-1.962-1.96 1.96 1.96 0 0 1 1.953-1.968 1.96 1.96 0 0 1 1.962 1.96v.004a1.96 1.96 0 0 1-1.953 1.964"/>
    <path d="M321.393 471.654h100.56v39.537h-100.56z"/>
    <path fill="#000" d="M336.035 476.409q1.453 0 2.484.828 1.032.812 1.204 2.25h-1.813q-.125-.672-.672-1.078-.547-.422-1.203-.422-1.11 0-1.719.812-.61.797-.61 2.125 0 1.266.595 2.063.61.797 1.734.797.813 0 1.313-.5.515-.5.625-1.407h1.828q-.157 1.625-1.188 2.563-1.015.937-2.578.937-1.234 0-2.203-.562t-1.5-1.594q-.516-1.031-.516-2.297 0-1.969 1.157-3.234 1.156-1.281 3.062-1.281m7.879 2.39q1.469 0 2.344.906.875.891.875 2.375 0 1.485-.89 2.375-.876.891-2.329.891-1.438 0-2.328-.89-.875-.907-.875-2.376t.86-2.375q.874-.906 2.343-.906m-1.5 3.281q0 .985.406 1.485t1.094.5q.734 0 1.125-.516.39-.531.39-1.469 0-.921-.39-1.453-.375-.547-1.125-.547-.688 0-1.094.5t-.406 1.5m9.377-3.28q1.187 0 1.719.609.547.593.547 1.89v3.875h-1.704v-3.562q0-.72-.25-1.094t-.843-.375q-.703 0-1.016.422-.312.422-.312 1.297v3.312h-1.688v-6.203h1.61v.86h.03q.313-.5.813-.766t1.094-.266m6.098 0q1.265 0 1.953.5.703.5.797 1.484h-1.625q-.047-.438-.344-.641-.281-.203-.828-.203-.485 0-.719.156-.219.14-.219.422t.297.469 1.188.359q1.421.266 1.906.703.5.438.5 1.14 0 1.048-.781 1.61-.766.547-2.047.547-1.297 0-2.078-.547-.782-.547-.844-1.64h1.625q0 .484.375.765t.937.281q.5 0 .797-.218.313-.22.313-.578 0-.329-.407-.532-.39-.203-1.468-.422t-1.547-.609-.469-1.062q0-.985.688-1.485.703-.5 2-.5m5.601.171v3.547q0 .703.25 1.094.25.39.86.39.703 0 1-.422.312-.437.312-1.296v-3.313h1.703v6.203h-1.625v-.86h-.031q-.328.516-.844.782-.5.25-1.062.25-1.157 0-1.703-.594-.547-.593-.547-1.906v-3.875zm7.176-2.36v8.563h-1.703v-8.562zm7.803-.202q1.547 0 2.484.718.938.719.938 2.032h-1.813q-.047-.641-.453-.97-.39-.327-1.234-.327-.579 0-.954.265-.359.25-.359.719 0 .313.156.469.157.156.625.344.469.171 2.063.546 1.062.25 1.656.875.61.61.61 1.547 0 1.25-.938 2t-2.625.75q-1.61 0-2.64-.797-1.016-.796-1.016-2.203v-.047h1.828q0 .797.515 1.188.532.39 1.375.39.766 0 1.22-.265.452-.281.452-.797 0-.422-.36-.687-.343-.266-1.108-.454-.985-.218-1.782-.468t-1.328-.813-.531-1.437q0-1.157.922-1.86.937-.718 2.297-.718m7.521 2.39q1.375 0 2.203.953.828.938.828 2.422l-.015.313h-4.485q.047.797.422 1.187.39.39 1.094.39.469 0 .86-.234.39-.25.5-.578h1.5q-.344 1.047-1.063 1.578-.719.516-1.844.516-1.437 0-2.312-.906-.86-.906-.86-2.36 0-1.39.89-2.328.892-.953 2.282-.953m-1.469 2.61h2.782q-.125-.688-.453-1-.313-.329-.922-.329-.61 0-.985.36-.36.344-.422.969m9.11-2.61q.11 0 .203.016.094.015.172.047v1.578q-.14-.031-.281-.031-.141-.016-.329-.016-.859 0-1.28.531-.407.516-.407 1.406v2.844h-1.688v-6.203h1.61v1.156h.031q.266-.61.797-.968.547-.36 1.172-.36m2.394.172 1.313 4.234h.031l1.297-4.234h1.703l-2.11 6.203h-1.89l-2.125-6.203zm7.912-.172q1.375 0 2.204.953.828.938.828 2.422l-.016.313h-4.484q.047.797.422 1.187.39.39 1.093.39.469 0 .86-.234.39-.25.5-.578h1.5q-.344 1.047-1.063 1.578-.719.516-1.844.516-1.437 0-2.312-.906-.86-.906-.86-2.36 0-1.39.891-2.328.89-.953 2.281-.953m-1.468 2.61h2.78q-.124-.688-.452-1-.313-.329-.922-.329-.61 0-.984.36-.36.344-.422.969m9.109-2.61q.11 0 .203.016.094.015.172.047v1.578q-.14-.031-.281-.031-.14-.016-.328-.016-.86 0-1.282.531-.406.516-.406 1.406v2.844h-1.687v-6.203h1.609v1.156h.031q.266-.61.797-.968.547-.36 1.172-.36m-64.208 11.612q-.64 1.187-.984 2.578-.328 1.39-.328 2.859t.312 2.844q.313 1.36.984 2.672h-1.421q-.766-1.282-1.172-2.672-.407-1.39-.407-2.735 0-1.39.407-2.906.406-1.515 1.172-2.64zm6.754.203v1.578h-4.125v1.984h3.578v1.453H350v3.547h-1.89v-8.562zm3.422 2.187q1.469 0 2.344.906.875.891.875 2.375 0 1.485-.891 2.375-.875.891-2.328.891-1.438 0-2.328-.89-.875-.907-.875-2.376t.86-2.375q.874-.906 2.343-.906m-1.5 3.281q0 .985.406 1.485t1.094.5q.734 0 1.125-.516.39-.531.39-1.469 0-.921-.39-1.453-.375-.547-1.125-.547-.688 0-1.094.5t-.406 1.5m7.58-5.468v8.562h-1.703v-8.562zm3.094 0v8.562h-1.703v-8.562zm4.343 2.187q1.47 0 2.344.906.875.891.875 2.375 0 1.485-.89 2.375-.875.891-2.329.891-1.437 0-2.328-.89-.875-.907-.875-2.376t.86-2.375q.875-.906 2.343-.906m-1.5 3.281q0 .985.407 1.485t1.093.5q.735 0 1.125-.516.391-.531.391-1.469 0-.921-.39-1.453-.376-.547-1.126-.547-.687 0-1.093.5-.407.5-.407 1.5m7.05-3.109 1.14 4.203h.015l1.032-4.203h1.656l1.062 4.203h.016l1.156-4.203h1.75l-1.968 6.203h-1.75l-1.094-4.172h-.031l-1.063 4.172h-1.75l-1.969-6.203zm11.407-.172q1.375 0 2.204.953.828.938.828 2.422l-.016.313h-4.484q.047.797.422 1.187.39.39 1.093.39.469 0 .86-.234.39-.25.5-.578h1.5q-.344 1.047-1.063 1.578-.719.516-1.844.516-1.437 0-2.312-.906-.86-.906-.86-2.36 0-1.39.891-2.328.89-.953 2.281-.953m-1.468 2.61h2.78q-.124-.688-.452-1-.313-.329-.922-.329-.61 0-.984.36-.36.344-.422.969m9.109-2.61q.11 0 .203.016.094.015.172.047v1.578q-.14-.031-.281-.031-.14-.016-.328-.016-.86 0-1.282.531-.406.516-.406 1.406v2.844h-1.687v-6.203h1.609v1.156h.031q.266-.61.797-.968.547-.36 1.172-.36m1.748-2.39q.781 1.265 1.188 2.656.406 1.39.406 2.75 0 1.375-.422 2.906-.406 1.516-1.172 2.64h-1.422q.656-1.25.969-2.609.328-1.375.328-2.812 0-1.5-.328-2.875-.313-1.39-.969-2.656z"/>
    <path d="M323.126 115.789a2.76 2.76 0 0 1 2.76-2.76h95.04a2.76 2.76 0 0 1 2.76 2.76v93.825a2.76 2.76 0 0 1-2.76 2.76h-95.04a2.76 2.76 0 0 1-2.76-2.76z"/>
    <path fill="#dc477d" fill-rule="evenodd" d="M327.119 87.05a2.38 2.38 0 0 1 2.379-2.38h80.876a2.38 2.38 0 0 1 2.379 2.38v80.876a2.38 2.38 0 0 1-2.38 2.379h-80.875a2.38 2.38 0 0 1-2.38-2.38z"/>
    <path fill="#fff" fill-rule="evenodd" d="M370.103 151.417c-13.191.011-23.893-10.707-23.904-23.94s10.674-23.968 23.865-23.98c6-.004 11.783 2.257 16.198 6.334l-5.668 5.948c-6.432-5.83-16.358-5.326-22.17 1.126s-5.31 16.41 1.122 22.24a15.66 15.66 0 0 0 21.048 0l5.668 5.948a23.76 23.76 0 0 1-16.159 6.324m19.22-11.984a1.96 1.96 0 0 1-1.958-1.964 1.96 1.96 0 0 1 1.958-1.964 1.96 1.96 0 0 1 1.957 1.964 1.965 1.965 0 0 1-1.957 1.964"/>
    <path fill="#fff" fill-rule="evenodd" d="M369.95 132.65c-2.855 0-5.17-2.323-5.17-5.188s2.315-5.187 5.17-5.187c2.857 0 5.172 2.322 5.172 5.187-.003 2.864-2.316 5.185-5.171 5.187m21.613.075a1.96 1.96 0 0 1-1.958-1.964 1.96 1.96 0 0 1 1.958-1.964 1.96 1.96 0 0 1 1.958 1.964 1.965 1.965 0 0 1-1.958 1.964m-5.817-.224a1.96 1.96 0 0 1-1.957-1.963 1.96 1.96 0 0 1 1.957-1.964 1.96 1.96 0 0 1 1.958 1.964 1.96 1.96 0 0 1-1.958 1.964m5.817-6.377a1.96 1.96 0 0 1-1.958-1.964 1.96 1.96 0 0 1 1.958-1.964 1.96 1.96 0 0 1 1.958 1.964 1.965 1.965 0 0 1-1.958 1.964m-5.817.223a1.96 1.96 0 0 1-1.957-1.964 1.96 1.96 0 0 1 1.957-1.964 1.96 1.96 0 0 1 1.958 1.964v.004a1.96 1.96 0 0 1-1.958 1.96m3.689-6.827a1.96 1.96 0 0 1-1.962-1.96 1.96 1.96 0 0 1 1.953-1.969 1.96 1.96 0 0 1 1.962 1.96v.004a1.96 1.96 0 0 1-1.953 1.964"/>
    <path d="M319.656 172.02h100.56v39.536h-100.56z"/>
    <path fill="#000" d="M334.298 176.774q1.453 0 2.485.828 1.03.812 1.203 2.25h-1.813q-.125-.672-.672-1.078-.547-.422-1.203-.422-1.11 0-1.719.812-.609.797-.609 2.125 0 1.266.594 2.063.61.797 1.734.797.813 0 1.313-.5.515-.5.625-1.407h1.828q-.156 1.625-1.188 2.563-1.015.937-2.578.937-1.234 0-2.203-.562t-1.5-1.594q-.516-1.031-.516-2.297 0-1.969 1.157-3.234 1.156-1.281 3.062-1.281m7.88 2.39q1.468 0 2.343.906.875.891.875 2.375 0 1.485-.89 2.375-.876.891-2.329.891-1.437 0-2.328-.89-.875-.907-.875-2.376t.86-2.375q.874-.906 2.343-.906m-1.5 3.281q0 .985.405 1.485.407.5 1.094.5.734 0 1.125-.516.39-.531.39-1.469 0-.921-.39-1.453-.375-.547-1.125-.547-.687 0-1.094.5-.406.5-.406 1.5m9.376-3.28q1.188 0 1.719.609.547.593.547 1.89v3.875h-1.703v-3.562q0-.72-.25-1.094t-.844-.375q-.703 0-1.016.422-.312.422-.312 1.297v3.312h-1.688v-6.203h1.61v.86h.03q.313-.5.813-.766t1.094-.266m6.098 0q1.265 0 1.953.5.703.5.797 1.484h-1.625q-.047-.438-.344-.641-.281-.203-.828-.203-.485 0-.719.156-.219.14-.219.422t.297.469 1.188.359q1.422.266 1.906.703.5.438.5 1.14 0 1.048-.781 1.61-.766.547-2.047.547-1.297 0-2.078-.547-.782-.547-.844-1.64h1.625q0 .484.375.765t.937.281q.5 0 .797-.218.313-.22.313-.578 0-.329-.406-.532-.391-.203-1.47-.422-1.077-.218-1.546-.609-.469-.39-.469-1.062 0-.985.688-1.485.703-.5 2-.5m5.601.171v3.547q0 .703.25 1.094.25.39.86.39.703 0 1-.422.312-.437.312-1.296v-3.313h1.703v6.203h-1.625v-.86h-.031q-.328.516-.844.782-.5.25-1.062.25-1.156 0-1.703-.594-.547-.593-.547-1.906v-3.875zm7.176-2.36v8.563h-1.703v-8.562zm7.803-.202q1.547 0 2.484.718.938.719.938 2.032h-1.813q-.047-.641-.453-.97-.39-.327-1.234-.327-.578 0-.953.265-.36.25-.36.719 0 .313.156.469.157.156.625.344.47.171 2.063.546 1.062.25 1.656.875.61.61.61 1.547 0 1.25-.938 2t-2.625.75q-1.61 0-2.64-.797-1.016-.796-1.016-2.203v-.047h1.828q0 .797.516 1.188.53.39 1.375.39.765 0 1.218-.265.453-.281.453-.797 0-.422-.359-.687-.344-.266-1.11-.454-.984-.218-1.78-.468-.797-.25-1.329-.813t-.531-1.437q0-1.157.922-1.86.937-.718 2.297-.718m7.521 2.39q1.375 0 2.203.953.829.938.829 2.422l-.016.313h-4.484q.046.797.421 1.187.391.39 1.094.39.469 0 .86-.234.39-.25.5-.578h1.5q-.344 1.047-1.063 1.578-.719.516-1.844.516-1.437 0-2.312-.906-.86-.906-.86-2.36 0-1.39.891-2.328.89-.953 2.281-.953m-1.468 2.61h2.78q-.124-.688-.452-1-.313-.329-.922-.329-.61 0-.985.36-.359.344-.421.969m9.109-2.61q.11 0 .203.016.094.015.172.047v1.578q-.14-.031-.281-.031-.141-.016-.328-.016-.86 0-1.282.531-.406.516-.406 1.406v2.844h-1.687v-6.203h1.609v1.156h.031q.266-.61.797-.968.547-.36 1.172-.36m2.394.172 1.313 4.234h.031l1.297-4.234h1.703l-2.11 6.203h-1.89l-2.125-6.203zm7.913-.172q1.375 0 2.203.953.828.938.828 2.422l-.016.313h-4.484q.047.797.422 1.187.39.39 1.093.39.47 0 .86-.234.39-.25.5-.578h1.5q-.344 1.047-1.063 1.578-.718.516-1.843.516-1.438 0-2.313-.906-.86-.906-.86-2.36 0-1.39.891-2.328.89-.953 2.282-.953m-1.47 2.61h2.782q-.125-.688-.453-1-.313-.329-.922-.329-.61 0-.984.36-.36.344-.422.969m9.11-2.61q.11 0 .203.016.094.015.172.047v1.578q-.14-.031-.281-.031-.14-.016-.328-.016-.86 0-1.281.531-.407.516-.407 1.406v2.844h-1.687v-6.203h1.61v1.156h.03q.266-.61.797-.968.547-.36 1.172-.36m-64.207 11.612q-.64 1.187-.984 2.578-.328 1.39-.328 2.859t.312 2.844q.313 1.36.985 2.672h-1.422q-.766-1.282-1.172-2.672t-.406-2.735q0-1.39.406-2.906.406-1.515 1.172-2.64zm6.754.203v1.578h-4.125v1.984h3.578v1.453h-3.578v3.547h-1.89v-8.562zm3.422 2.187q1.469 0 2.344.906.875.891.875 2.375 0 1.485-.89 2.375-.876.891-2.33.891-1.437 0-2.327-.89-.875-.907-.875-2.376t.86-2.375q.874-.906 2.343-.906m-1.5 3.281q0 .985.406 1.485t1.094.5q.734 0 1.125-.516.39-.531.39-1.469 0-.921-.39-1.453-.375-.547-1.125-.547-.688 0-1.094.5t-.406 1.5m7.58-5.468v8.562h-1.703v-8.562zm3.094 0v8.562h-1.703v-8.562zm4.344 2.187q1.468 0 2.343.906.875.891.875 2.375 0 1.485-.89 2.375-.875.891-2.328.891-1.438 0-2.329-.89-.875-.907-.875-2.376t.86-2.375q.875-.906 2.344-.906m-1.5 3.281q0 .985.406 1.485t1.094.5q.734 0 1.125-.516.39-.531.39-1.469 0-.921-.39-1.453-.375-.547-1.125-.547-.688 0-1.094.5t-.406 1.5m7.048-3.109 1.141 4.203h.016l1.03-4.203h1.657l1.063 4.203h.015l1.156-4.203h1.75l-1.968 6.203h-1.75l-1.094-4.172h-.031l-1.063 4.172h-1.75l-1.969-6.203zm11.409-.172q1.375 0 2.203.953.828.938.828 2.422l-.016.313h-4.484q.047.797.422 1.187.39.39 1.093.39.47 0 .86-.234.39-.25.5-.578h1.5q-.344 1.047-1.063 1.578-.718.516-1.843.516-1.438 0-2.313-.906-.86-.906-.86-2.36 0-1.39.891-2.328.89-.953 2.282-.953m-1.47 2.61h2.782q-.125-.688-.453-1-.313-.329-.922-.329-.61 0-.984.36-.36.344-.422.969m9.11-2.61q.11 0 .203.016.094.015.172.047v1.578q-.14-.031-.281-.031-.14-.016-.328-.016-.86 0-1.281.531-.407.516-.407 1.406v2.844h-1.687v-6.203h1.61v1.156h.03q.266-.61.797-.968.547-.36 1.172-.36m1.748-2.39q.781 1.265 1.188 2.656.406 1.39.406 2.75 0 1.375-.422 2.906-.406 1.516-1.172 2.64h-1.422q.657-1.25.97-2.609.327-1.375.327-2.812 0-1.5-.328-2.875-.312-1.39-.969-2.656z"/>
    <path d="M293.371 281.214v-152.73h46.526"/>
    <path stroke="#dc477d" stroke-dasharray="8 6" stroke-linecap="butt" stroke-linejoin="round" stroke-width="2" d="M293.371 281.214v-152.73h46.526"/>
    <path d="M293.371 281.215v152.73h46.526"/>
    <path stroke="#dc477d" stroke-dasharray="8 6" stroke-linecap="butt" stroke-linejoin="round" stroke-width="2" d="M293.371 281.215v152.73h46.526"/>
    <path d="M511.185 281.304v-152.73h-99.387"/>
    <path stroke="#dc477d" stroke-linecap="butt" stroke-linejoin="round" stroke-width="2" d="M511.185 281.304v-152.73h-99.387"/>
    <path d="M466.632 281.395h206.142"/>
    <path stroke="#e03875" stroke-linecap="round" stroke-linejoin="round" stroke-width="2" d="M466.632 281.395h206.142"/>
    <path d="M511.185 281.304v152.73H408.08"/>
    <path stroke="#dc477d" stroke-linecap="butt" stroke-linejoin="round" stroke-width="2" d="M511.185 281.304v152.73H408.08"/>
    <path fill="#dc477d" fill-rule="evenodd" d="M664.361 241.484a2.38 2.38 0 0 1 2.38-2.38h80.876a2.38 2.38 0 0 1 2.378 2.38v80.876a2.38 2.38 0 0 1-2.378 2.379H666.74a2.38 2.38 0 0 1-2.379-2.379z"/>
    <path fill="#fff" fill-rule="evenodd" d="M707.346 305.852c-13.191.01-23.894-10.708-23.904-23.94-.011-13.234 10.674-23.97 23.865-23.98 6-.005 11.783 2.256 16.198 6.333l-5.669 5.948c-6.431-5.83-16.357-5.326-22.17 1.126-5.812 6.452-5.31 16.41 1.123 22.24a15.66 15.66 0 0 0 21.047 0l5.669 5.948a23.76 23.76 0 0 1-16.159 6.325m19.22-11.985a1.96 1.96 0 0 1-1.958-1.964 1.96 1.96 0 0 1 1.958-1.963 1.96 1.96 0 0 1 1.957 1.963 1.965 1.965 0 0 1-1.957 1.964"/>
    <path fill="#fff" fill-rule="evenodd" d="M707.193 287.083c-2.856 0-5.17-2.322-5.17-5.187s2.314-5.187 5.17-5.187 5.172 2.322 5.172 5.187c-.003 2.864-2.317 5.185-5.172 5.187m21.614.075a1.96 1.96 0 0 1-1.958-1.964 1.96 1.96 0 0 1 1.958-1.964 1.96 1.96 0 0 1 1.957 1.964 1.965 1.965 0 0 1-1.957 1.964m-5.817-.223a1.96 1.96 0 0 1-1.958-1.964 1.96 1.96 0 0 1 1.958-1.964 1.96 1.96 0 0 1 1.958 1.964 1.96 1.96 0 0 1-1.958 1.964m5.817-6.377a1.96 1.96 0 0 1-1.958-1.964 1.96 1.96 0 0 1 1.958-1.964 1.96 1.96 0 0 1 1.957 1.964 1.965 1.965 0 0 1-1.957 1.964m-5.817.222a1.96 1.96 0 0 1-1.958-1.963 1.96 1.96 0 0 1 1.958-1.964 1.96 1.96 0 0 1 1.958 1.964v.004a1.96 1.96 0 0 1-1.958 1.96m3.689-6.828a1.96 1.96 0 0 1-1.962-1.96 1.96 1.96 0 0 1 1.953-1.968 1.96 1.96 0 0 1 1.962 1.96v.004a1.96 1.96 0 0 1-1.953 1.964"/>
    <path d="M656.899 326.453h100.56v39.537h-100.56z"/>
    <path fill="#000" d="M671.54 331.208q1.454 0 2.485.828 1.032.812 1.203 2.25h-1.812q-.125-.672-.672-1.078-.547-.422-1.203-.422-1.11 0-1.719.812-.61.797-.61 2.125 0 1.266.595 2.063.609.797 1.734.797.812 0 1.312-.5.516-.5.625-1.407h1.829q-.157 1.625-1.188 2.563-1.016.937-2.578.937-1.234 0-2.203-.562t-1.5-1.594q-.516-1.031-.516-2.297 0-1.969 1.156-3.234 1.157-1.281 3.063-1.281m7.88 2.39q1.469 0 2.344.906.875.891.875 2.375 0 1.485-.891 2.375-.875.891-2.328.891-1.438 0-2.328-.89-.875-.907-.875-2.376t.86-2.375q.874-.906 2.343-.906m-1.5 3.281q0 .985.406 1.485t1.094.5q.734 0 1.125-.516.39-.531.39-1.469 0-.921-.39-1.453-.375-.547-1.125-.547-.688 0-1.094.5t-.406 1.5m9.377-3.28q1.187 0 1.719.609.546.593.546 1.89v3.875h-1.703v-3.562q0-.719-.25-1.094t-.843-.375q-.704 0-1.016.422t-.313 1.297v3.312h-1.687v-6.203h1.61v.86h.03q.313-.5.813-.766t1.094-.266m6.097 0q1.266 0 1.954.5.703.5.796 1.484h-1.625q-.046-.438-.343-.641-.282-.203-.828-.203-.485 0-.72.156-.218.14-.218.422t.297.469 1.187.36q1.422.265 1.907.702.5.438.5 1.14 0 1.048-.782 1.61-.765.547-2.046.547-1.297 0-2.079-.547-.78-.547-.843-1.64h1.625q0 .484.375.765t.937.281q.5 0 .797-.218.313-.219.313-.578 0-.329-.407-.532-.39-.203-1.468-.422-1.079-.218-1.547-.609-.469-.39-.469-1.062 0-.985.687-1.485.704-.5 2-.5m5.602.171v3.547q0 .703.25 1.094.25.39.86.39.703 0 1-.422.312-.437.312-1.296v-3.313h1.703v6.203h-1.625v-.86h-.031q-.328.516-.844.782-.5.25-1.062.25-1.157 0-1.704-.594-.546-.593-.546-1.906v-3.875zm7.176-2.36v8.563h-1.703v-8.562zm7.803-.202q1.546 0 2.484.718.937.72.937 2.032h-1.812q-.047-.641-.453-.97-.39-.327-1.235-.327-.578 0-.953.265-.36.25-.36.72 0 .312.157.468.156.156.625.344.469.171 2.063.546 1.062.25 1.656.875.61.61.61 1.547 0 1.25-.938 2t-2.625.75q-1.61 0-2.64-.797-1.016-.796-1.016-2.203v-.047h1.828q0 .797.515 1.188.532.39 1.375.39.766 0 1.219-.265.453-.281.453-.797 0-.422-.36-.687-.343-.266-1.109-.454-.984-.218-1.78-.468-.798-.25-1.329-.813t-.531-1.437q0-1.157.922-1.86.937-.718 2.297-.718m7.521 2.39q1.375 0 2.203.953.828.938.828 2.422l-.015.313h-4.485q.047.797.422 1.187.39.39 1.094.39.469 0 .86-.234.39-.25.5-.578h1.5q-.344 1.047-1.063 1.578-.719.516-1.844.516-1.437 0-2.312-.906-.86-.906-.86-2.36 0-1.39.89-2.328.891-.953 2.282-.953m-1.469 2.61h2.782q-.125-.688-.454-1-.312-.329-.921-.329-.61 0-.985.36-.36.344-.422.969m9.11-2.61q.109 0 .203.016.094.015.172.047v1.578q-.141-.031-.282-.031-.14-.016-.328-.016-.86 0-1.281.531-.406.516-.406 1.406v2.844h-1.688v-6.203h1.61v1.156h.03q.267-.609.798-.968.547-.36 1.172-.36m2.394.172 1.313 4.234h.03l1.298-4.234h1.703l-2.11 6.203h-1.89l-2.125-6.203zm7.912-.172q1.375 0 2.203.953.829.938.829 2.422l-.016.313h-4.484q.046.797.421 1.187.391.39 1.094.39.469 0 .86-.234.39-.25.5-.578h1.5q-.344 1.047-1.063 1.578-.719.516-1.844.516-1.437 0-2.312-.906-.86-.906-.86-2.36 0-1.39.891-2.328.89-.953 2.281-.953m-1.468 2.61h2.78q-.124-.688-.452-1-.313-.329-.922-.329-.61 0-.985.36-.359.344-.421.969m9.109-2.61q.11 0 .203.016.094.015.172.047v1.578q-.14-.031-.281-.031-.141-.016-.328-.016-.86 0-1.282.531-.406.516-.406 1.406v2.844h-1.687v-6.203h1.609v1.156h.031q.266-.609.797-.968.547-.36 1.172-.36m-59.601 11.612q-.64 1.187-.984 2.578-.328 1.39-.328 2.86 0 1.468.312 2.843.313 1.36.985 2.672h-1.422q-.766-1.282-1.172-2.672t-.406-2.735q0-1.39.406-2.906.406-1.515 1.172-2.64zm2.63.203v6.984h4.171v1.578h-6.062v-8.562zm7.693 2.187q1.375 0 2.203.953.828.938.828 2.422l-.016.313h-4.484q.047.797.422 1.187.39.39 1.093.39.47 0 .86-.234.39-.25.5-.578h1.5q-.344 1.047-1.063 1.578-.718.516-1.843.516-1.438 0-2.313-.906-.86-.906-.86-2.36 0-1.39.891-2.328.89-.953 2.282-.953m-1.47 2.61h2.782q-.125-.688-.453-1-.313-.329-.922-.329-.61 0-.984.36-.36.344-.422.969m8.345-2.61q1.375 0 2.046.453.672.453.672 1.282v3.328q0 .375.047.75t.172.562h-1.734q-.047-.14-.078-.281-.032-.156-.047-.313-.36.375-.89.579-.517.187-1.188.187-.97 0-1.547-.484-.563-.485-.563-1.375 0-.875.531-1.328.547-.47 1.97-.625.984-.094 1.296-.235.328-.156.328-.531 0-.406-.25-.61-.234-.218-.844-.218-.53 0-.812.234-.281.219-.328.703h-1.703q.062-1.015.828-1.547.781-.53 2.094-.53m-1.407 4.61q0 .375.25.593.25.203.797.203.672 0 1.016-.359.36-.36.36-1.047v-.656q-.157.125-.407.187-.25.047-.89.141-.594.078-.86.313-.266.218-.266.625m11.5-6.797v8.562h-1.625v-.797h-.03q-.267.485-.75.735-.485.234-1.126.234-1.266 0-2.031-.937-.75-.938-.75-2.391 0-1.39.734-2.297.75-.922 2.016-.922.578 0 1.047.235.484.234.78.687h.032v-3.11zm-4.61 5.453q0 .86.392 1.437.406.563 1.109.563t1.078-.516q.375-.531.375-1.5 0-.906-.375-1.437-.36-.532-1.094-.532-.703 0-1.093.532-.391.531-.391 1.453m8.753-3.266q1.375 0 2.203.953.828.938.828 2.422l-.015.313h-4.485q.047.797.422 1.187.39.39 1.094.39.469 0 .86-.234.39-.25.5-.578h1.5q-.345 1.047-1.063 1.578-.72.516-1.844.516-1.438 0-2.313-.906-.859-.906-.859-2.36 0-1.39.89-2.328.891-.953 2.282-.953m-1.469 2.61h2.781q-.125-.688-.453-1-.312-.329-.922-.329-.609 0-.984.36-.36.344-.422.969m9.11-2.61q.109 0 .203.016.093.015.172.047v1.578q-.141-.031-.282-.031-.14-.016-.328-.016-.86 0-1.281.531-.406.516-.406 1.406v2.844h-1.688v-6.203h1.61v1.156h.03q.266-.609.798-.968.547-.36 1.172-.36m1.748-2.39q.78 1.265 1.187 2.656.406 1.39.406 2.75 0 1.375-.422 2.906-.406 1.516-1.171 2.64h-1.422q.656-1.25.968-2.609.329-1.375.329-2.812 0-1.5-.329-2.875-.312-1.39-.968-2.656z"/>
    <path d="M656.899 236.993a2.76 2.76 0 0 1 2.76-2.76h95.04a2.76 2.76 0 0 1 2.76 2.76v93.826a2.76 2.76 0 0 1-2.76 2.76h-95.04a2.76 2.76 0 0 1-2.76-2.76zm58.658 138.983a2.76 2.76 0 0 1 2.76-2.76h95.04a2.76 2.76 0 0 1 2.76 2.76v93.826a2.76 2.76 0 0 1-2.76 2.76h-95.04a2.76 2.76 0 0 1-2.76-2.76z"/>
    <path fill="#dc477d" fill-rule="evenodd" d="M723.02 386.175a2.38 2.38 0 0 1 2.38-2.379h80.876a2.38 2.38 0 0 1 2.379 2.38v80.876a2.38 2.38 0 0 1-2.38 2.378H725.4a2.38 2.38 0 0 1-2.38-2.378z"/>
    <path fill="#fff" fill-rule="evenodd" d="M766.005 450.543c-13.19.011-23.893-10.708-23.904-23.94s10.674-23.969 23.865-23.98c6-.005 11.784 2.256 16.198 6.334l-5.668 5.948c-6.432-5.83-16.358-5.326-22.17 1.126s-5.31 16.409 1.122 22.24a15.66 15.66 0 0 0 21.048 0l5.668 5.947a23.76 23.76 0 0 1-16.159 6.325m19.22-11.984a1.96 1.96 0 0 1-1.958-1.964 1.96 1.96 0 0 1 1.958-1.964 1.96 1.96 0 0 1 1.958 1.964 1.965 1.965 0 0 1-1.958 1.964"/>
    <path fill="#fff" fill-rule="evenodd" d="M765.853 431.775c-2.856 0-5.171-2.323-5.171-5.187s2.315-5.188 5.17-5.188c2.857 0 5.172 2.323 5.172 5.188-.003 2.863-2.316 5.185-5.171 5.187m21.613.075a1.96 1.96 0 0 1-1.958-1.965 1.96 1.96 0 0 1 1.958-1.963 1.96 1.96 0 0 1 1.958 1.963 1.965 1.965 0 0 1-1.958 1.964m-5.816-.223a1.96 1.96 0 0 1-1.958-1.964 1.96 1.96 0 0 1 1.958-1.963 1.96 1.96 0 0 1 1.957 1.963 1.96 1.96 0 0 1-1.957 1.964m5.816-6.376a1.96 1.96 0 0 1-1.958-1.965 1.96 1.96 0 0 1 1.958-1.964 1.96 1.96 0 0 1 1.958 1.964 1.965 1.965 0 0 1-1.958 1.964m-5.816.223a1.96 1.96 0 0 1-1.958-1.964 1.96 1.96 0 0 1 1.958-1.963 1.96 1.96 0 0 1 1.957 1.963v.005a1.96 1.96 0 0 1-1.957 1.96m3.688-6.828a1.96 1.96 0 0 1-1.962-1.96 1.96 1.96 0 0 1 1.953-1.968 1.96 1.96 0 0 1 1.963 1.96v.004a1.96 1.96 0 0 1-1.954 1.964"/>
    <path d="M715.558 471.145h100.56v39.536h-100.56z"/>
    <path fill="#000" d="M730.2 475.9q1.453 0 2.485.827 1.03.813 1.203 2.25h-1.813q-.125-.672-.672-1.078-.546-.422-1.203-.422-1.11 0-1.718.813-.61.797-.61 2.125 0 1.265.594 2.062.61.797 1.734.797.813 0 1.313-.5.515-.5.625-1.406h1.828q-.156 1.625-1.188 2.562-1.015.938-2.578.938-1.234 0-2.203-.563t-1.5-1.593q-.515-1.032-.515-2.297 0-1.969 1.156-3.235 1.156-1.28 3.062-1.28m7.88 2.39q1.468 0 2.343.906.875.89.875 2.375t-.89 2.375q-.876.89-2.329.89-1.437 0-2.328-.89-.875-.906-.875-2.375t.86-2.375q.874-.906 2.343-.906m-1.5 3.281q0 .984.405 1.484.407.5 1.094.5.735 0 1.125-.515.39-.532.39-1.469 0-.922-.39-1.453-.375-.547-1.125-.547-.687 0-1.094.5-.406.5-.406 1.5m9.376-3.281q1.188 0 1.719.61.547.593.547 1.89v3.875h-1.703v-3.563q0-.719-.25-1.094t-.844-.375q-.703 0-1.016.422-.312.422-.312 1.297v3.313h-1.688v-6.203h1.61v.859h.03q.313-.5.813-.766.5-.265 1.094-.265m6.098 0q1.265 0 1.953.5.703.5.797 1.484h-1.625q-.047-.437-.344-.64-.281-.204-.828-.204-.484 0-.719.157-.219.14-.219.421 0 .282.297.47.297.187 1.188.359 1.422.265 1.906.703.5.437.5 1.14 0 1.047-.781 1.61-.766.547-2.047.547-1.297 0-2.078-.547t-.844-1.64h1.625q0 .483.375.765.375.281.938.281.5 0 .796-.219.313-.219.313-.578 0-.328-.406-.531-.39-.203-1.47-.422-1.077-.219-1.546-.61-.469-.39-.469-1.062 0-.984.688-1.484.703-.5 2-.5m5.601.172v3.546q0 .704.25 1.094t.86.39q.703 0 1-.421.312-.438.312-1.297v-3.312h1.703v6.203h-1.625v-.86h-.03q-.329.516-.845.782-.5.25-1.062.25-1.156 0-1.703-.594t-.547-1.906v-3.875zm7.176-2.36v8.563h-1.703v-8.563zm7.803-.203q1.547 0 2.484.719t.938 2.031h-1.813q-.047-.64-.453-.969-.39-.328-1.234-.328-.578 0-.953.266-.36.25-.36.719 0 .312.157.468.156.157.625.344.468.172 2.062.547 1.063.25 1.656.875.61.61.61 1.547 0 1.25-.938 2t-2.625.75q-1.61 0-2.64-.797-1.016-.797-1.016-2.203v-.047h1.828q0 .797.516 1.187.53.391 1.375.391.765 0 1.218-.266.454-.28.454-.796 0-.422-.36-.688-.344-.266-1.11-.453-.984-.219-1.78-.469-.797-.25-1.329-.812-.53-.563-.53-1.438 0-1.156.921-1.86.938-.718 2.297-.718m7.521 2.39q1.375 0 2.204.954.828.937.828 2.422l-.016.312h-4.484q.047.797.422 1.188.39.39 1.093.39.469 0 .86-.234.39-.25.5-.578h1.5q-.344 1.047-1.063 1.578-.719.516-1.844.516-1.437 0-2.312-.907-.86-.906-.86-2.359 0-1.39.891-2.328.89-.953 2.281-.953m-1.468 2.61h2.78q-.124-.687-.452-1-.313-.328-.922-.328-.61 0-.984.36-.36.343-.422.968m9.109-2.61q.11 0 .203.016t.172.047v1.578q-.14-.03-.281-.03-.14-.017-.328-.017-.86 0-1.282.532-.406.515-.406 1.406v2.844h-1.687v-6.203h1.609v1.156h.031q.266-.61.797-.969.547-.36 1.172-.36m2.395.173 1.312 4.234h.031l1.297-4.234h1.703l-2.11 6.203h-1.89l-2.125-6.203zm7.912-.172q1.375 0 2.203.953.828.937.828 2.422l-.016.312h-4.484q.047.797.422 1.188.39.39 1.094.39.468 0 .859-.234.39-.25.5-.578h1.5q-.344 1.047-1.063 1.578-.718.516-1.843.516-1.438 0-2.313-.907-.86-.906-.86-2.359 0-1.39.891-2.328.891-.953 2.282-.953m-1.47 2.61h2.782q-.125-.688-.453-1-.312-.329-.922-.329t-.984.36q-.36.343-.422.968m9.11-2.61q.11 0 .203.015.094.016.172.047v1.578q-.14-.03-.281-.03-.14-.017-.328-.017-.86 0-1.281.532-.407.515-.407 1.406v2.844h-1.687v-6.203h1.61v1.156h.03q.266-.61.797-.969.547-.36 1.172-.36M741.535 489.9q-.64 1.187-.984 2.577-.328 1.39-.328 2.86 0 1.468.312 2.843.313 1.36.985 2.672h-1.422q-.766-1.281-1.172-2.672-.406-1.39-.406-2.734 0-1.39.406-2.906t1.172-2.64zm6.754.202v1.578h-4.125v1.985h3.578v1.453h-3.578v3.547h-1.89v-8.563zm3.422 2.188q1.469 0 2.344.906.875.89.875 2.375t-.89 2.375q-.876.89-2.329.89-1.437 0-2.328-.89-.875-.906-.875-2.375t.86-2.375q.874-.906 2.343-.906m-1.5 3.281q0 .984.406 1.484t1.094.5q.734 0 1.125-.515.39-.532.39-1.469 0-.922-.39-1.453-.375-.547-1.125-.547-.687 0-1.094.5-.406.5-.406 1.5m7.58-5.469v8.563h-1.703v-8.563zm3.094 0v8.563h-1.703v-8.563zm4.344 2.188q1.468 0 2.343.906.875.89.875 2.375t-.89 2.375q-.875.89-2.328.89-1.438 0-2.328-.89-.875-.906-.875-2.375t.859-2.375q.875-.906 2.344-.906m-1.5 3.281q0 .984.406 1.484t1.094.5q.734 0 1.125-.515.39-.532.39-1.469 0-.922-.39-1.453-.375-.547-1.125-.547-.688 0-1.094.5t-.406 1.5m7.048-3.11 1.141 4.204h.016l1.031-4.203h1.656l1.063 4.203h.015l1.157-4.203h1.75l-1.97 6.203h-1.75l-1.093-4.172h-.031l-1.063 4.172h-1.75l-1.968-6.203zm11.409-.171q1.375 0 2.203.953.828.937.828 2.422l-.016.312h-4.484q.047.797.422 1.188.39.39 1.094.39.468 0 .859-.234.39-.25.5-.578h1.5q-.344 1.047-1.063 1.578-.718.516-1.843.516-1.438 0-2.313-.907-.86-.906-.86-2.359 0-1.39.891-2.328.891-.953 2.282-.953m-1.47 2.61h2.782q-.125-.688-.453-1-.312-.329-.922-.329t-.984.36q-.36.343-.422.968m9.11-2.61q.11 0 .203.015.094.016.172.047v1.578q-.14-.03-.28-.03-.142-.017-.33-.017-.858 0-1.28.532-.407.515-.407 1.406v2.844h-1.687v-6.203h1.61v1.156h.03q.266-.61.797-.969.547-.36 1.172-.36m1.748-2.39q.782 1.265 1.188 2.655.406 1.391.406 2.75 0 1.375-.422 2.907-.406 1.515-1.172 2.64h-1.422q.657-1.25.97-2.61.327-1.374.327-2.812 0-1.5-.328-2.875-.312-1.39-.969-2.656z"/>
    <path d="M717.29 115.28a2.76 2.76 0 0 1 2.76-2.76h95.041a2.76 2.76 0 0 1 2.76 2.76v93.825a2.76 2.76 0 0 1-2.76 2.76h-95.04a2.76 2.76 0 0 1-2.76-2.76z"/>
    <path fill="#dc477d" fill-rule="evenodd" d="M721.284 86.54a2.38 2.38 0 0 1 2.379-2.379h80.876a2.38 2.38 0 0 1 2.379 2.38v80.876a2.38 2.38 0 0 1-2.379 2.378h-80.876a2.38 2.38 0 0 1-2.38-2.378z"/>
    <path fill="#fff" fill-rule="evenodd" d="M764.268 150.908c-13.19.011-23.893-10.708-23.904-23.94s10.674-23.969 23.865-23.98a23.84 23.84 0 0 1 16.198 6.334l-5.668 5.948c-6.432-5.83-16.358-5.326-22.17 1.126s-5.31 16.409 1.122 22.24a15.66 15.66 0 0 0 21.048 0l5.668 5.947a23.76 23.76 0 0 1-16.159 6.325m19.22-11.984a1.96 1.96 0 0 1-1.958-1.964 1.96 1.96 0 0 1 1.958-1.964 1.96 1.96 0 0 1 1.958 1.964 1.965 1.965 0 0 1-1.958 1.964"/>
    <path fill="#fff" fill-rule="evenodd" d="M764.116 132.14c-2.856 0-5.171-2.323-5.171-5.187s2.315-5.188 5.17-5.188c2.857 0 5.172 2.323 5.172 5.188-.002 2.863-2.316 5.184-5.171 5.187m21.614.074a1.96 1.96 0 0 1-1.959-1.964 1.96 1.96 0 0 1 1.958-1.963 1.96 1.96 0 0 1 1.958 1.963 1.965 1.965 0 0 1-1.958 1.964m-5.816-.223a1.96 1.96 0 0 1-1.958-1.964 1.96 1.96 0 0 1 1.958-1.963 1.96 1.96 0 0 1 1.957 1.963 1.96 1.96 0 0 1-1.957 1.964m5.817-6.377a1.96 1.96 0 0 1-1.959-1.964 1.96 1.96 0 0 1 1.958-1.964 1.96 1.96 0 0 1 1.958 1.964 1.965 1.965 0 0 1-1.958 1.964m-5.816.223a1.96 1.96 0 0 1-1.958-1.964 1.96 1.96 0 0 1 1.958-1.963 1.96 1.96 0 0 1 1.957 1.963v.005a1.96 1.96 0 0 1-1.957 1.96m3.688-6.828a1.96 1.96 0 0 1-1.962-1.96 1.96 1.96 0 0 1 1.954-1.968 1.96 1.96 0 0 1 1.962 1.96v.004a1.96 1.96 0 0 1-1.954 1.964"/>
    <path d="M713.821 171.51h100.56v39.536h-100.56z"/>
    <path fill="#000" d="M728.463 176.264q1.454 0 2.485.828 1.031.813 1.203 2.25h-1.813q-.125-.672-.671-1.078-.547-.422-1.204-.422-1.109 0-1.718.813-.61.797-.61 2.125 0 1.265.594 2.062.61.797 1.734.797.813 0 1.313-.5.516-.5.625-1.406h1.828q-.156 1.625-1.187 2.562-1.016.938-2.579.938-1.234 0-2.203-.563t-1.5-1.593q-.515-1.032-.515-2.297 0-1.969 1.156-3.235 1.156-1.28 3.062-1.28m7.88 2.39q1.468 0 2.343.907.875.89.875 2.375t-.89 2.375q-.876.89-2.329.89-1.437 0-2.328-.89-.875-.906-.875-2.375t.86-2.375q.875-.906 2.343-.906m-1.5 3.282q0 .984.406 1.484t1.093.5q.735 0 1.125-.515.391-.532.391-1.469 0-.922-.39-1.453-.376-.547-1.126-.547-.687 0-1.093.5-.407.5-.407 1.5m9.376-3.281q1.188 0 1.719.61.547.593.547 1.89v3.875h-1.703v-3.563q0-.719-.25-1.094t-.844-.375q-.703 0-1.016.422-.312.422-.312 1.297v3.313h-1.688v-6.203h1.61v.859h.031q.313-.5.813-.766.5-.265 1.093-.265m6.098 0q1.266 0 1.953.5.703.5.797 1.484h-1.625q-.047-.437-.344-.64-.281-.204-.828-.204-.484 0-.719.157-.218.14-.218.421 0 .282.296.47.297.187 1.188.359 1.422.265 1.906.703.5.437.5 1.14 0 1.047-.781 1.61-.766.547-2.047.547-1.297 0-2.078-.547t-.844-1.64h1.625q0 .483.375.765.375.281.938.281.5 0 .797-.219.312-.219.312-.578 0-.328-.406-.531-.39-.203-1.469-.422-1.078-.219-1.547-.61-.469-.39-.469-1.062 0-.984.688-1.484.703-.5 2-.5m5.602.172v3.546q0 .704.25 1.094t.859.39q.703 0 1-.421.312-.438.312-1.297v-3.312h1.704v6.203h-1.625v-.86h-.032q-.328.516-.843.782-.5.25-1.063.25-1.156 0-1.703-.594t-.547-1.906v-3.875zm7.175-2.36v8.563h-1.703v-8.563zm7.803-.203q1.547 0 2.484.719t.938 2.031h-1.813q-.046-.64-.453-.969-.39-.328-1.234-.328-.578 0-.953.266-.36.25-.36.719 0 .312.157.468.156.157.625.344.468.172 2.062.547 1.063.25 1.656.875.61.61.61 1.547 0 1.25-.938 2t-2.625.75q-1.61 0-2.64-.797-1.016-.797-1.016-2.203v-.047h1.828q0 .797.516 1.187.531.391 1.375.391.765 0 1.219-.266.453-.28.453-.796 0-.422-.36-.688-.343-.266-1.11-.453-.983-.219-1.78-.469t-1.328-.812q-.532-.563-.532-1.438 0-1.156.922-1.86.938-.718 2.297-.718m7.522 2.39q1.375 0 2.203.954.828.937.828 2.422l-.016.312h-4.484q.047.797.422 1.188.39.39 1.093.39.47 0 .86-.234.39-.25.5-.578h1.5q-.344 1.047-1.063 1.578-.718.516-1.843.516-1.438 0-2.313-.907-.86-.906-.86-2.359 0-1.39.891-2.328.89-.953 2.282-.953m-1.47 2.61h2.782q-.125-.687-.453-1-.313-.328-.922-.328-.61 0-.984.36-.36.343-.422.968m9.11-2.61q.11 0 .203.016t.172.047v1.578q-.14-.03-.281-.03-.14-.017-.328-.017-.86 0-1.281.532-.407.515-.407 1.406v2.844h-1.687v-6.203h1.61v1.156h.03q.266-.61.797-.969.547-.36 1.172-.36m2.395.173 1.312 4.234h.031l1.297-4.234h1.703l-2.109 6.203h-1.89l-2.126-6.203zm7.912-.172q1.375 0 2.203.953.828.937.828 2.422l-.016.312h-4.484q.047.797.422 1.188.39.39 1.094.39.468 0 .859-.234.39-.25.5-.578h1.5q-.344 1.047-1.062 1.578-.72.516-1.844.516-1.438 0-2.313-.907-.86-.906-.86-2.359 0-1.39.892-2.328.89-.953 2.28-.953m-1.469 2.61h2.781q-.125-.688-.453-1-.312-.329-.922-.329t-.984.36q-.36.343-.422.968m9.11-2.61q.109 0 .203.015.093.016.171.047v1.578q-.14-.03-.28-.03-.141-.017-.329-.017-.86 0-1.281.532-.406.515-.406 1.406v2.844h-1.688v-6.203h1.61v1.156h.03q.266-.61.798-.969.546-.36 1.171-.36m-64.206 11.608q-.64 1.188-.984 2.578-.328 1.39-.328 2.86 0 1.468.312 2.843.313 1.36.985 2.672h-1.422q-.766-1.281-1.172-2.672-.406-1.39-.406-2.734 0-1.39.406-2.906t1.172-2.64zm6.754.203v1.578h-4.125v1.985h3.578v1.453h-3.578v3.547h-1.89v-8.563zm3.422 2.188q1.469 0 2.344.906.875.89.875 2.375t-.89 2.375q-.876.89-2.329.89-1.437 0-2.328-.89-.875-.906-.875-2.375t.86-2.375q.874-.906 2.343-.906m-1.5 3.281q0 .984.406 1.484t1.094.5q.735 0 1.125-.515.39-.532.39-1.469 0-.922-.39-1.453-.375-.547-1.125-.547-.687 0-1.094.5-.406.5-.406 1.5m7.58-5.469v8.563h-1.703v-8.563zm3.094 0v8.563h-1.703v-8.563zm4.344 2.188q1.469 0 2.344.906.875.89.875 2.375t-.891 2.375q-.875.89-2.328.89-1.438 0-2.328-.89-.875-.906-.875-2.375t.859-2.375q.875-.906 2.344-.906m-1.5 3.281q0 .984.406 1.484t1.094.5q.734 0 1.125-.515.39-.532.39-1.469 0-.922-.39-1.453-.375-.547-1.125-.547-.688 0-1.094.5t-.406 1.5m7.049-3.11 1.14 4.204h.016l1.031-4.203h1.656l1.063 4.203h.015l1.157-4.203h1.75l-1.969 6.203h-1.75l-1.094-4.172h-.031l-1.063 4.172h-1.75l-1.968-6.203zm11.408-.171q1.375 0 2.203.953.828.937.828 2.422l-.016.312h-4.484q.047.797.422 1.188.39.39 1.094.39.468 0 .859-.234.39-.25.5-.578h1.5q-.344 1.047-1.062 1.578-.72.516-1.844.516-1.438 0-2.313-.907-.86-.906-.86-2.359 0-1.39.892-2.328.89-.953 2.28-.953m-1.469 2.61h2.781q-.125-.688-.453-1-.312-.329-.922-.329t-.984.36q-.36.343-.422.968m9.11-2.61q.109 0 .203.015.093.016.171.047v1.578q-.14-.03-.28-.03-.141-.017-.329-.017-.86 0-1.281.532-.406.515-.406 1.406v2.844h-1.688v-6.203h1.61v1.156h.03q.266-.61.798-.969.546-.36 1.171-.36m1.747-2.39q.782 1.265 1.188 2.655.406 1.391.406 2.75 0 1.375-.422 2.907-.406 1.515-1.172 2.64h-1.421q.656-1.25.968-2.61.328-1.374.328-2.812 0-1.5-.328-2.875-.312-1.39-.968-2.656z"/>
    <path d="M626.29 280.795V128.064h99.387"/>
    <path stroke="#dc477d" stroke-linecap="butt" stroke-linejoin="round" stroke-width="2" d="M626.29 280.795V128.064h99.387"/>
    <path d="M626.29 280.795v152.73h103.105"/>
    <path stroke="#dc477d" stroke-linecap="butt" stroke-linejoin="round" stroke-width="2" d="M626.29 280.795v152.73h103.105"/>
    <path d="M512.42 281.392h112.63"/>
    <path stroke="#e03875" stroke-linecap="round" stroke-linejoin="round" stroke-width="8" d="M512.42 281.392h112.63"/>
    <path d="M518.378 22.626h131.969"/>
    <path stroke="#e03875" stroke-dasharray="8 6" stroke-linecap="butt" stroke-miterlimit="400" stroke-width="2" d="M518.378 22.626h131.969"/>
    <path d="M511.383.007h156v21.007h-156z"/>
    <path fill="#000" d="M582.1 4.964q1.032 0 1.735.672.719.656.719 1.687 0 .813-.344 1.344-.328.531-1.016.797v.031q.61.157.922.719.328.563.36 1.719.03 1.172.328 1.594h-1.875q-.172-.422-.235-1.344-.078-1.266-.422-1.625-.328-.375-1.031-.375h-1.922v3.344h-1.89V4.964zm-.687 3.875q.594 0 .922-.281.344-.297.344-.953 0-.61-.329-.891-.312-.297-.937-.297h-2.094V8.84zm8.603-3.875q1.344 0 2.125.75.782.75.782 2 0 1.234-.782 1.984-.78.75-2.125.75h-2.03v3.079h-1.891V4.964zm-.515 4.031q.812 0 1.203-.297.39-.312.39-.984 0-.656-.39-.969-.375-.328-1.203-.328h-1.516v2.578zm8.441-4.234q1.453 0 2.485.828 1.03.813 1.203 2.25h-1.813q-.125-.672-.672-1.078-.547-.422-1.203-.422-1.11 0-1.719.813-.609.796-.609 2.125 0 1.265.594 2.062.61.797 1.734.797.813 0 1.313-.5.515-.5.625-1.406h1.828q-.156 1.625-1.188 2.562-1.015.938-2.578.938-1.234 0-2.203-.563t-1.5-1.594q-.516-1.03-.516-2.296 0-1.97 1.157-3.235 1.156-1.281 3.062-1.281"/>
    <path d="M536.603 24.246H637.17v21.008H536.603z"/>
    <path fill="#000" d="M566.548 29.203v1.578h-2.562v6.985h-1.89V30.78h-2.563v-1.578zm4.473-.203q1.453 0 2.484.828 1.032.813 1.203 2.25h-1.812q-.125-.672-.672-1.078-.547-.422-1.203-.422-1.11 0-1.719.813-.61.797-.61 2.125 0 1.265.595 2.062.609.797 1.734.797.812 0 1.312-.5.516-.5.625-1.406h1.829q-.157 1.625-1.188 2.562-1.016.938-2.578.938-1.234 0-2.203-.563t-1.5-1.593q-.516-1.032-.516-2.297 0-1.969 1.156-3.235 1.157-1.28 3.063-1.28m8.973.203q1.343 0 2.125.75.78.75.78 2 0 1.235-.78 1.985-.782.75-2.125.75h-2.032v3.078h-1.89v-8.563zm-.516 4.032q.812 0 1.203-.297.39-.313.39-.985 0-.656-.39-.968-.375-.329-1.203-.329h-1.516v2.579zM587.826 29l-3.344 8.969h-1.375l3.36-8.969zm3.234.203q1.297 0 2.047.703.75.704.75 1.547 0 .61-.313 1.078-.296.47-.906.688v.016q.781.187 1.172.734t.39 1.328q0 1.203-.906 1.922t-2.234.719q-1.39 0-2.297-.703-.89-.704-.89-1.938 0-.797.406-1.328.422-.547 1.172-.734v-.016q-.594-.172-.922-.625-.313-.469-.313-1.11 0-1.015.828-1.64.844-.64 2.016-.64m-1.297 2.438q0 .484.36.797.359.312.921.312.579 0 .922-.297t.344-.812-.328-.828q-.313-.328-.938-.328-.578 0-.937.328-.344.328-.344.828m-.187 3.578q0 .61.422 1.031.437.406 1.062.406t1.031-.406q.407-.406.407-1.015 0-.579-.422-.954-.407-.39-1.032-.39-.609 0-1.046.36-.422.343-.422.968m8.111-6.016q1.14 0 1.984.657.844.656.844 1.671 0 .61-.312 1.079-.297.453-.875.625v.03q.703.157 1.093.688.407.516.407 1.22 0 1.233-.907 2-.906.765-2.218.765-1.422 0-2.282-.797-.843-.813-.843-2.172v-.094h1.625q.03.781.421 1.219.391.437 1.047.437.61 0 .985-.375.39-.39.39-.953 0-.625-.375-.922-.375-.312-1.39-.312h-.188v-1.203h.297q.719 0 1.11-.266.39-.281.39-.781t-.344-.813q-.328-.312-.843-.312-.579 0-.938.39-.344.376-.36 1.11h-1.624q.047-1.313.843-2.094.797-.797 2.063-.797m6.69 0q1.5 0 2.296 1.094.797 1.094.797 3.234 0 2.157-.797 3.282-.781 1.125-2.297 1.125-1.5 0-2.296-1.11-.782-1.125-.782-3.297 0-2.125.782-3.218.78-1.11 2.296-1.11M603 33.547q0 1.297.172 1.89.188.579.485.844.297.25.718.25.672 0 1.032-.656.359-.672.359-2.344 0-1.609-.36-2.265-.359-.672-1.046-.672-.64 0-1 .64-.36.641-.36 2.313m8.05-4.344q1.5 0 2.296 1.094.797 1.094.797 3.234 0 2.157-.797 3.282-.781 1.125-2.297 1.125-1.5 0-2.297-1.11-.78-1.125-.78-3.297 0-2.125.78-3.218.782-1.11 2.297-1.11m-1.376 4.344q0 1.297.172 1.89.188.579.485.844.296.25.718.25.672 0 1.032-.656.359-.672.359-2.344 0-1.609-.36-2.265-.359-.672-1.046-.672-.641 0-1 .64-.36.641-.36 2.313"/>
    <path d="M126.92 68.58h46.52v39.528h-46.52z"/>
    <path fill="#000" d="M140.835 74.192q2.094 0 3.39 1.375 1.298 1.36 1.298 3.812 0 2.438-1.266 3.86t-3.422 1.422h-4.578V74.192zm-.172 8.531q1.094 0 1.813-.781.734-.797.734-2.36 0-1.812-.766-2.624-.75-.829-2.187-.829h-1.703v6.594zm11.145-8.781q1.781 0 3.031 1.016 1.266 1 1.484 2.75h-2.234q-.14-.813-.812-1.313-.672-.516-1.47-.516-1.359 0-2.109.985-.734.984-.734 2.61 0 1.546.734 2.53.75.97 2.11.97 1 0 1.61-.61.609-.61.765-1.735h2.234q-.203 2-1.453 3.141-1.25 1.14-3.156 1.14-1.516 0-2.688-.687t-1.812-1.953-.64-2.797q0-2.406 1.405-3.969 1.407-1.562 3.735-1.562m10.91.453v10.266h-2.078v-6.657h-2.578v-1.562h.125q1.265 0 1.984-.516.735-.53.89-1.53z"/>
    <path d="M600.728 68.071h46.52V107.6h-46.52z"/>
    <path fill="#000" d="M614.642 73.683q2.094 0 3.39 1.375 1.298 1.359 1.298 3.812 0 2.438-1.266 3.86t-3.422 1.421h-4.578V73.683zm-.172 8.53q1.094 0 1.813-.78.734-.797.734-2.36 0-1.812-.765-2.625-.75-.828-2.188-.828h-1.703v6.594zm11.145-8.78q1.781 0 3.031 1.015 1.266 1 1.484 2.75h-2.234q-.14-.812-.812-1.312-.672-.516-1.47-.516-1.359 0-2.109.984-.734.985-.734 2.61 0 1.547.734 2.531.75.969 2.11.969 1 0 1.61-.61.609-.609.765-1.734h2.234q-.203 2-1.453 3.14t-3.156 1.141q-1.516 0-2.688-.687t-1.812-1.953-.64-2.797q0-2.406 1.405-3.969 1.407-1.562 3.735-1.562m9.426.25q1.5 0 2.5.906 1.015.89 1.015 2.312 0 .985-.484 1.782-.469.78-1.969 1.734-1.062.672-1.562 1.11-.5.437-.781.827h4.859v1.797h-7.531q0-1.015.359-1.797.36-.78 1.031-1.406.688-.625 2.578-1.89.735-.47 1.079-.954t.343-1.046q0-.688-.422-1.125-.421-.454-1.109-.454-.781 0-1.203.641-.406.625-.438 1.719h-1.984v-.203q0-1.782 1-2.86 1.016-1.093 2.719-1.093"/>
  </g>
</svg>
