<svg xmlns="http://www.w3.org/2000/svg" width="62.928" height="63.52" viewBox="0 0 16.65 16.806">
  <path fill="#e03875" d="M8.408 16.807a8.403 8.403 0 1 1 5.688-14.584l-1.987 2.085a5.522 5.522 0 1 0 0 8.202l1.987 2.077a8.38 8.38 0 0 1-5.688 2.22m6.762-4.205a.688.688 0 1 1 .688-.688.69.69 0 0 1-.688.688" class="cls-1" paint-order="markers stroke fill"/>
  <path fill="#e03875" d="M8.354 10.224a1.82 1.82 0 1 1 1.821-1.82 1.82 1.82 0 0 1-1.82 1.82m7.607.026a.688.688 0 1 1 .687-.688.69.69 0 0 1-.687.688m-2.048-.079a.688.688 0 1 1 .688-.688.69.69 0 0 1-.688.688m2.048-2.236a.688.688 0 1 1 .687-.688.69.69 0 0 1-.687.688m-2.048.079a.688.688 0 1 1 .688-.687.69.69 0 0 1-.688.687M15.21 5.62a.688.688 0 1 1 .688-.688.69.69 0 0 1-.688.688" class="cls-1" paint-order="markers stroke fill"/>
</svg>
