<svg xmlns="http://www.w3.org/2000/svg" width="904" height="549" fill="none" viewBox="0 0 904 549">
  <path stroke="#F1565C" stroke-linecap="round" stroke-linejoin="round" stroke-width="1.5" d="m477.851 492.232-159.002-91.765m105.949 122.406L318.849 461.67zm-105.949-81.656 123.581 71.39zm0-20.375 141.292 81.578zm-17.633 91.765-70.293 40.829m52.583-51.016-88.161 51.016m123.504-152.969L1 583.998m317.848-163.156L18.632 594.185m300.217-152.969L36.264 604.372M318.849 461.67 53.975 614.638m264.874-275.374L905.019.805M424.798 318.89 940.362 21.26zM922.73 11.071 354.191 339.264zM442.509 329.077l70.607-40.75m-52.975 50.937 70.685-40.75m-35.343 40.75 52.975-30.563m194.268 71.391-70.607 40.75m35.342-40.75-53.053 30.563m123.66-30.563-88.318 50.937m123.661-50.937-106.028 61.203m141.292-61.203-123.582 71.391m17.632 10.187 141.292-81.578m109.32-328.271-127.03 73.35m91.766-93.725-127.03 73.35zm-109.398 83.537 127.03-73.35zm-353.269 489.39 123.66-71.391m-211.899 20.454 123.66-71.391zm17.632 10.187 123.66-71.391zm17.71 10.187 123.66-71.39zm17.632 10.188 123.66-71.391zm17.632 10.187 123.661-71.312zm88.396-316.046 176.556 101.953M530.826 278.139 707.46 380.092M601.433 278.139l176.635 101.953M636.775 278.139 813.41 380.092M672.118 278.139l176.557 101.953M707.382 278.139l176.635 101.953m-459.218-40.828-17.633-10.188-17.632 10.188 17.632 10.187zm17.71-10.188-17.711-10.187m0 40.828 17.711-10.266m-105.95 142.781-17.711-10.187-17.632 10.187 17.632 10.188zm-.079 20.375 17.711-10.187m52.975 30.641-52.975-30.641m35.343 40.828-53.054-30.641m-52.974-10.187 17.711 10.187m688.828-234.468L813.41 176.186m176.635 142.703-159.003-91.765zm0-20.375-141.292-81.578zm0-81.578L813.41 114.983zm0 20.375L813.41 135.358zm0 20.375L813.41 155.733zM813.41 176.108 636.775 278.139m141.293-61.203-105.95 61.203M795.7 227.124l-88.318 51.015m-105.949 0L813.41 155.733m.001-20.375L566.169 278.139m-35.343 0L813.41 114.983M795.7 227.124l-17.633-10.188m52.975 10.188 17.633-10.188m-17.632-10.188-17.632-10.187-17.711 10.187 17.711 10.188zm-35.265 346.687L442.509 349.451m388.533 203.984L460.141 339.264m406.244 214.171L495.483 339.264m264.953 214.171L424.798 359.717m300.295 193.718L354.191 339.264M689.75 553.435 318.849 339.264"/>
</svg>
