<svg xmlns="http://www.w3.org/2000/svg" width="1283" height="607.5" viewBox="0 0 641.5 303.75" xmlns:xlink="http://www.w3.org/1999/xlink">
  <defs>
    <style>
      @font-face{font-family:&quot;Virgil&quot;;src:url(https://excalidraw.com/Virgil.woff2)}@font-face{font-family:&quot;Cascadia&quot;;src:url(https://excalidraw.com/Cascadia.woff2)}
    </style>
  </defs>
  <path fill="#fff" d="M0 0h641.5v303.75H0z"/>
  <path fill="none" stroke="#000" stroke-linecap="round" d="M10 10h201M10 10h201m0 0v96.25M211 10v96.25m0 0H10m201 0H10m0 0V10m0 96.25V10"/>
  <text x="95.5" y="16" font-family="Helvetica, Segoe UI Emoji" font-size="20" style="white-space:pre" text-anchor="middle" transform="translate(15 47.625)">EventBridge</text>
  <path fill="none" stroke="#000" stroke-linecap="round" d="M390 10h237m-237 0h237m0 0v100m0-100v100m0 0H390m237 0H390m0 0V10m0 100V10"/>
  <text x="113.5" y="16" font-family="Helvetica, Segoe UI Emoji" font-size="20" style="white-space:pre" text-anchor="middle" transform="translate(395 49.5)">Lambda Registrator</text>
  <path fill="none" stroke="#000" stroke-linecap="round" d="M410 210h221.5M410 210h221.5m0 0v83.75m0-83.75v83.75m0 0H410m221.5 0H410m0 0V210m0 83.75V210"/>
  <text x="106" y="16" font-family="Helvetica, Segoe UI Emoji" font-size="20" style="white-space:pre" text-anchor="middle" transform="translate(415 241.375)">Consul</text>
  <path fill="none" stroke="#000" stroke-linecap="round" d="M510 111v98m0-98v98m-10.26-28.19c2.12 5.83 4.25 11.67 10.26 28.19m-10.26-28.19c3.85 10.58 7.7 21.15 10.26 28.19m10.26-28.19c-2.12 5.83-4.25 11.67-10.26 28.19m10.26-28.19c-3.85 10.58-7.7 21.15-10.26 28.19"/>
  <text x="5" y="13" font-family="Helvetica, Segoe UI Emoji" font-size="16" style="white-space:pre" text-anchor="middle" transform="translate(530 150)">2</text>
  <path fill="none" stroke="#000" stroke-linecap="round" d="M212 50h178m-178 0h178m-28.19 10.26c9.31-3.39 18.62-6.78 28.19-10.26m-28.19 10.26c8.04-2.93 16.08-5.85 28.19-10.26m-28.19-10.26c9.31 3.39 18.62 6.78 28.19 10.26m-28.19-10.26c8.04 2.93 16.08 5.85 28.19 10.26"/>
  <text y="13" font-family="Helvetica, Segoe UI Emoji" font-size="16" style="white-space:pre" transform="translate(290 30)">1</text>
</svg>
