<svg xmlns="http://www.w3.org/2000/svg" width="1120" height="560" viewBox="0 0 560 280" xmlns:xlink="http://www.w3.org/1999/xlink">
  <defs>
    <style>
      @font-face{font-family:&quot;Virgil&quot;;src:url(https://excalidraw.com/Virgil.woff2)}@font-face{font-family:&quot;Cascadia&quot;;src:url(https://excalidraw.com/Cascadia.woff2)}
    </style>
  </defs>
  <path fill="#fff" d="M0 0h560v280H0z"/>
  <path fill="none" stroke="#000" stroke-linecap="round" d="M10 30h180M10 30h180m0 0v80m0-80v80m0 0H10m180 0H10m0 0V30m0 80V30"/>
  <text x="85" y="13" font-family="Helvetica, Segoe UI Emoji" font-size="16" style="white-space:pre" text-anchor="middle" transform="translate(15 61.5)">Lambda</text>
  <path fill="none" stroke="#000" stroke-linecap="round" d="M350 30h180m-180 0h180m0 0v80m0-80v80m0 0H350m180 0H350m0 0V30m0 80V30"/>
  <text x="85" y="13" font-family="Helvetica, Segoe UI Emoji" font-size="16" style="white-space:pre" text-anchor="middle" transform="translate(355 61.5)">Mesh Sidecar Proxy</text>
  <path fill="none" stroke="#000" stroke-linecap="round" d="M350 170h180m-180 0h180m0 0v80m0-80v80m0 0H350m180 0H350m0 0v-80m0 80v-80"/>
  <text x="85" y="13" font-family="Helvetica, Segoe UI Emoji" font-size="16" style="white-space:pre" text-anchor="middle" transform="translate(355 201.5)">Service</text>
  <path fill="none" stroke="#000" stroke-linecap="round" d="M330 10h220m-220 0h220m0 0v260m0-260v260m0 0H330m220 0H330m0 0V10m0 260V10m120 160v-60m0 60v-60m10.26 28.19c-3.24-8.89-6.47-17.79-10.26-28.19m10.26 28.19c-2.48-6.82-4.96-13.63-10.26-28.19m-10.26 28.19c3.24-8.89 6.47-17.79 10.26-28.19m-10.26 28.19c2.48-6.82 4.96-13.63 10.26-28.19M350 70H190m160 0H190m28.19-10.26C207.5 63.63 196.82 67.52 190 70m28.19-10.26C209.1 63.05 200 66.36 190 70m28.19 10.26C207.5 76.37 196.82 72.48 190 70m28.19 10.26C209.1 76.95 200 73.64 190 70"/>
  <text y="13" font-family="Helvetica, Segoe UI Emoji" font-size="16" style="white-space:pre" transform="translate(472.808 133.68)">1</text>
  <text y="13" font-family="Helvetica, Segoe UI Emoji" font-size="16" style="white-space:pre" transform="translate(268.901 38.78)">2</text>
</svg>
