<svg xmlns="http://www.w3.org/2000/svg" xmlns:xlink="http://www.w3.org/1999/xlink" width="422.214" height="411.628" viewBox="0 0 111.711 108.91">
  <defs>
    <path id="a" fill="none" d="m36.335-.44-8.368-4.253a3.1 3.1 0 0 0-2.79 0L16.81-.44A3.15 3.15 0 0 0 15.542.732a3.2 3.2 0 0 0-.47 1.675v10.108c-.007.595.15 1.18.456 1.689.304.508.744.92 1.268 1.185l8.368 4.252a3.1 3.1 0 0 0 2.803 0l8.368-4.252a3.15 3.15 0 0 0 1.267-1.172 3.2 3.2 0 0 0 .47-1.675V2.407a3.2 3.2 0 0 0-.47-1.675 3.15 3.15 0 0 0-1.267-1.173M26.1-2.74a.95.95 0 0 1 .92 0l7.645 3.877-2.881 1.47-8.105-4.117zm.46 8.022-8.105-4.118 2.881-1.471 8.119 4.131zm-8.829 8.276a1.05 1.05 0 0 1-.426-.396 1.07 1.07 0 0 1-.153-.567V2.888l8.369 4.239v10.388zm17.658 0-7.79 3.944V7.127l8.369-4.239v9.72a1.1 1.1 0 0 1-.174.52c-.102.154-.241.28-.405.363z"/>
    <path id="b" d="M60.894 32.634a1.06 1.06 0 1 1 1.057-1.049 1.06 1.06 0 0 1-1.057 1.064"/>
    <path id="c" d="M62.957 32.064a.49.49 0 1 1 .49-.479.49.49 0 0 1-.49.49m1.788.448a.452.452 0 1 1-.903-.038.452.452 0 0 1 .903.038m-.345-1.259a.49.49 0 1 1 .383-.59.5.5 0 0 1 0 .192.47.47 0 0 1-.383.383m1.739 1.221a.488.488 0 1 1-.961-.168.48.48 0 0 1 .566-.383.49.49 0 0 1 .406.52.2.2 0 0 0 0 .047m-.406-1.245a.486.486 0 1 1 .383-.559 1 1 0 0 1 0 .127.486.486 0 0 1-.406.432m-.321 2.921a.49.49 0 1 1 .06-.2.4.4 0 0 1-.06.2m-.177-4.491a.49.49 0 1 1-.481-.853.49.49 0 0 1 .481.853"/>
    <path id="d" d="M60.914 36.5a4.915 4.915 0 1 1 2.981-8.803l-.597.766a3.93 3.93 0 1 0 0 6.243l.597.784a4.85 4.85 0 0 1-2.981 1.01"/>
    <path id="e" stroke="none" d="M60.894 32.634a1.06 1.06 0 1 1 1.057-1.049 1.06 1.06 0 0 1-1.057 1.064"/>
    <path id="f" stroke="none" d="M62.957 32.064a.49.49 0 1 1 .49-.479.49.49 0 0 1-.49.49m1.788.448a.452.452 0 1 1-.903-.038.452.452 0 0 1 .903.038m-.345-1.259a.49.49 0 1 1 .383-.59.5.5 0 0 1 0 .192.47.47 0 0 1-.383.383m1.739 1.221a.488.488 0 1 1-.961-.168.48.48 0 0 1 .566-.383.49.49 0 0 1 .406.52.2.2 0 0 0 0 .047m-.406-1.245a.486.486 0 1 1 .383-.559 1 1 0 0 1 0 .127.486.486 0 0 1-.406.432m-.321 2.921a.49.49 0 1 1 .06-.2.4.4 0 0 1-.06.2m-.177-4.491a.49.49 0 1 1-.481-.853.49.49 0 0 1 .481.853"/>
    <path id="g" stroke="none" d="M60.914 36.5a4.915 4.915 0 1 1 2.981-8.803l-.597.766a3.93 3.93 0 1 0 0 6.243l.597.784a4.85 4.85 0 0 1-2.981 1.01"/>
    <path id="h" fill="#fff" stroke="none" d="m10 .833 2.832 5.739 6.335.925-4.584 4.465 1.082 6.306L10 15.29l-5.665 2.98 1.082-6.307L.833 7.497l6.334-.925Z"/>
    <path id="i" fill="#fff" stroke="#ca2171" d="M33.184 217.517h9.048v9.048h-9.048z"/>
    <path id="j" fill="none" stroke="#ca2171" d="M47.389 201.27h-4.22l1.13 1.13"/>
    <path id="k" fill="none" stroke="#ca2171" d="M511.848-342.435h2.844l-1.199-1.199m-1.645 1.199h2.844l-1.199 1.2m6.614-1.2h-2.845l1.2-1.199m1.645 1.199h-2.845l1.2 1.2m-2.428-5.173v2.845l-1.199-1.2m1.199-1.645v2.845l1.2-1.2m-1.2 6.338v-2.845l1.2 1.2m-1.2 1.645v-2.845l-1.199 1.2"/>
    <path id="l" fill="#fff" stroke="#ca2171" d="M74.445 270.493h10.053v10.053H74.445z"/>
  </defs>
  <path fill="#fff" d="M-2.118-4.266h116.584v113.284H-2.118z" paint-order="markers stroke fill"/>
  <path fill="none" stroke="#b6b8c2" stroke-dasharray=".952 .952" stroke-linecap="round" stroke-width=".119" d="M.209 5.631h111.257v72.553H.209z" paint-order="markers stroke fill"/>
  <path fill="#fff" d="M41.881 4.299h26.326v2.712H41.881z" paint-order="markers stroke fill"/>
  <g opacity=".3" transform="translate(-13.577 -421.672)">
    <rect width="9.697" height="9.46" x="29.146" y="471.273" fill="none" stroke="#ca2171" stroke-width=".5" rx=".296" ry=".296"/>
    <circle cx="31.444" cy="478.119" r=".794" fill="#ca2171"/>
  </g>
  <g opacity=".3" transform="translate(66.77 -154.425)">
    <rect width="9.697" height="9.46" x="20.152" y="204.026" fill="none" stroke="#ca2171" stroke-width=".5" rx=".296" ry=".296"/>
    <circle cx="22.451" cy="210.872" r=".794" fill="#ca2171"/>
  </g>
  <rect width="42.411" height="68.287" x="2.319" y="7.739" fill="none" stroke="#d2d4db" stroke-linecap="round" stroke-width=".589" paint-order="markers stroke fill" rx=".325" ry=".616"/>
  <rect width="44.183" height="68.283" x="65.13" y="7.742" fill="none" stroke="#d2d4db" stroke-linecap="round" stroke-width=".594" paint-order="markers stroke fill" rx=".339" ry=".602"/>
  <text xml:space="preserve" x="11.313" y="14.424" fill="#b6b8c2" stroke-width=".08" font-family="Open Sans" font-size="4.251" font-weight="400" style="line-height:1.25;-inkscape-font-specification:&quot;Open Sans&quot;"><tspan x="11.313" y="14.424" font-weight="700" style="-inkscape-font-specification:&quot;Open Sans Bold&quot;">DC1</tspan></text>
  <use xlink:href="#a" transform="translate(1.332 11.28)scale(.23412)"/>
  <text xml:space="preserve" x="20.576" y="13.798" fill="#b6b8c2" stroke-width=".056" font-family="Open Sans" font-size="2.249" font-weight="400" style="line-height:1.25;-inkscape-font-specification:&quot;Open Sans, Normal&quot;;font-variant-ligatures:normal;font-variant-caps:normal;font-variant-numeric:normal;font-variant-east-asian:normal" word-spacing="0"><tspan x="20.576" y="13.798" style="-inkscape-font-specification:&quot;Open Sans, Normal&quot;;font-variant-ligatures:normal;font-variant-caps:normal;font-variant-numeric:normal;font-variant-east-asian:normal">| ON PREMISES</tspan></text>
  <text xml:space="preserve" x="74.5" y="14.803" fill="#b6b8c2" stroke-width=".08" font-family="Open Sans" font-size="4.251" font-weight="400" style="line-height:1.25;-inkscape-font-specification:&quot;Open Sans&quot;"><tspan x="74.5" y="14.803" font-weight="700" style="-inkscape-font-specification:&quot;Open Sans Bold&quot;">DC2</tspan></text>
  <use xlink:href="#a" transform="translate(64.52 11.658)scale(.23412)"/>
  <text xml:space="preserve" x="83.763" y="14.176" fill="#b6b8c2" stroke-width=".056" font-family="Open Sans" font-size="2.249" font-weight="400" style="line-height:1.25;-inkscape-font-specification:&quot;Open Sans, Normal&quot;;font-variant-ligatures:normal;font-variant-caps:normal;font-variant-numeric:normal;font-variant-east-asian:normal" word-spacing="0"><tspan x="83.763" y="14.176" style="-inkscape-font-specification:&quot;Open Sans, Normal&quot;;font-variant-ligatures:normal;font-variant-caps:normal;font-variant-numeric:normal;font-variant-east-asian:normal">| CLOUD US-EAST-1</tspan></text>
  <g transform="translate(10.92 -234.116)">
    <rect width="10.27" height="10.02" x="4.35" y="264.345" fill="#ca2171" fill-rule="evenodd" rx=".313" ry=".313"/>
    <g fill="#fff" stroke-width=".447" transform="translate(-8.702 258.425)scale(.24868)">
      <use xlink:href="#b" fill-rule="evenodd" clip-rule="evenodd" opacity=".7"/>
      <use xlink:href="#c" fill-rule="evenodd" clip-rule="evenodd"/>
      <use xlink:href="#d"/>
    </g>
  </g>
  <g transform="translate(10.92 -244.846)">
    <rect width="10.27" height="10.02" x="4.35" y="264.345" fill="#ca2171" fill-rule="evenodd" rx=".313" ry=".313"/>
    <g fill="#fff" stroke-width=".447" transform="translate(-8.702 258.425)scale(.24868)">
      <use xlink:href="#b" fill-rule="evenodd" clip-rule="evenodd" opacity=".7"/>
      <use xlink:href="#c" fill-rule="evenodd" clip-rule="evenodd"/>
      <use xlink:href="#d"/>
    </g>
  </g>
  <rect width="12.12" height="11.824" x="21.699" y="23.576" fill="#ca2171" fill-rule="evenodd" stroke="#fff" stroke-width=".389" rx=".37" ry=".37"/>
  <g fill="#fff" stroke-width=".447" transform="translate(13.626 16.683)scale(.29347)">
    <use xlink:href="#e" fill-rule="evenodd" clip-rule="evenodd" opacity=".7"/>
    <use xlink:href="#f" fill-rule="evenodd" clip-rule="evenodd"/>
    <use xlink:href="#g"/>
  </g>
  <g transform="translate(98.917 -9.23)scale(.32977)">
    <rect width="31.143" height="30.384" x="-36.991" y="87.118" fill="#ca2171" fill-rule="evenodd" rx=".949" ry=".949"/>
    <g fill="#fff" stroke-width=".447" transform="translate(-57.736 69.407)scale(.75411)">
      <use xlink:href="#b" fill-rule="evenodd" clip-rule="evenodd" opacity=".7"/>
      <use xlink:href="#c" fill-rule="evenodd" clip-rule="evenodd"/>
      <use xlink:href="#d"/>
    </g>
  </g>
  <g transform="translate(98.917 1.5)scale(.32977)">
    <rect width="31.143" height="30.384" x="-36.991" y="87.118" fill="#ca2171" fill-rule="evenodd" rx=".949" ry=".949"/>
    <g fill="#fff" stroke-width=".447" transform="translate(-57.736 69.407)scale(.75411)">
      <use xlink:href="#b" fill-rule="evenodd" clip-rule="evenodd" opacity=".7"/>
      <use xlink:href="#c" fill-rule="evenodd" clip-rule="evenodd"/>
      <use xlink:href="#d"/>
    </g>
  </g>
  <rect width="12.12" height="11.824" x="79.197" y="23.449" fill="#ca2171" fill-rule="evenodd" stroke="#fff" stroke-width=".389" rx=".37" ry=".37"/>
  <g fill="#fff" stroke-width=".447" transform="translate(71.124 16.557)scale(.29347)">
    <use xlink:href="#e" fill-rule="evenodd" clip-rule="evenodd" opacity=".7"/>
    <use xlink:href="#f" fill-rule="evenodd" clip-rule="evenodd"/>
    <use xlink:href="#g"/>
  </g>
  <path fill="none" stroke="#ffb000" stroke-opacity=".827" stroke-width=".75" d="M18.688 65.06h16.911l3.57-22.79h35.048l3.862 22.885h15.187"/>
  <path fill="none" stroke="#fe5f00" stroke-opacity=".827" stroke-width=".75" d="M18.726 67.485h32.868l6.31-22.465h14.389l3.786 22.465h17.164"/>
  <path fill="none" stroke="#648fff" stroke-width=".75" d="M18.629 70.01h74.614"/>
  <path fill="none" stroke="#648fff" stroke-dasharray=".75 .75" stroke-width=".75" d="m33.83 28.048 45.574.032"/>
  <path fill="none" stroke="#ffb000" stroke-dasharray=".75 .75" stroke-opacity=".827" stroke-width=".75" d="M79.39 31.326h-1.677l-3.338 8.182H38.721l-3.597-8.152-1.46-.034"/>
  <path fill="#ca2171" fill-opacity=".7" d="M23.166 28.571h9.276v2.325h-9.276z" paint-order="markers stroke fill"/>
  <use xlink:href="#h" fill="none" fill-rule="evenodd" clip-rule="evenodd" transform="translate(23.534 28.79)scale(.10297)"/>
  <text xml:space="preserve" x="26.024" y="30.319" stroke-width=".038" font-family="Open Sans" font-size="1.523" font-weight="400" style="line-height:1.25;-inkscape-font-specification:&quot;Open Sans&quot;"><tspan x="26.024" y="30.319" fill="#fff" font-weight="700" style="-inkscape-font-specification:&quot;Open Sans Bold&quot;">LEADER</tspan></text>
  <use xlink:href="#h" fill="none" fill-rule="evenodd" clip-rule="evenodd" transform="translate(81.033 28.663)scale(.10297)"/>
  <text xml:space="preserve" x="83.522" y="30.192" stroke-width=".038" font-family="Open Sans" font-size="1.523" font-weight="400" style="line-height:1.25;-inkscape-font-specification:&quot;Open Sans&quot;"><tspan x="83.522" y="30.192" fill="#fff" font-weight="700" style="-inkscape-font-specification:&quot;Open Sans Bold&quot;">LEADER</tspan></text>
  <g transform="translate(-10.83 -154.54)">
    <use xlink:href="#i" fill-opacity=".7" stroke-width=".5"/>
    <circle cx="37.708" cy="222.041" r="2.587" fill="#fff" paint-order="markers stroke fill"/>
    <use xlink:href="#j" stroke-linecap="round" stroke-linejoin="round" stroke-width=".471" transform="translate(-7.571 21.435)"/>
    <use xlink:href="#j" stroke-linecap="round" stroke-linejoin="round" stroke-width=".471" transform="rotate(180 41.493 211.323)"/>
  </g>
  <g transform="translate(47.603 -154.54)">
    <use xlink:href="#i" fill-opacity=".7" stroke-width=".5"/>
    <circle cx="37.708" cy="222.041" r="2.587" fill="#fff" paint-order="markers stroke fill"/>
    <use xlink:href="#j" stroke-linecap="round" stroke-linejoin="round" stroke-width=".471" transform="translate(-7.571 21.435)"/>
    <use xlink:href="#j" stroke-linecap="round" stroke-linejoin="round" stroke-width=".471" transform="rotate(180 41.493 211.323)"/>
  </g>
  <path fill="#fff" fill-opacity=".7" stroke="#ca2171" stroke-width=".5" d="M41.732 37.039h10.053v10.053H41.732z"/>
  <g stroke-width=".5" transform="translate(-340.792 299.24)scale(.75102)">
    <rect width="10.539" height="10.539" x="510.765" y="-347.704" fill="#fff" stroke="#ca2171" rx="5.269" ry="5.269"/>
    <use xlink:href="#k" stroke-linecap="round" stroke-linejoin="round"/>
  </g>
  <use xlink:href="#l" fill-opacity=".7" stroke-width=".5" transform="translate(-14.364 -233.504)"/>
  <g stroke-width=".5" transform="translate(-322.443 299.19)scale(.75102)">
    <rect width="10.539" height="10.539" x="510.765" y="-347.704" fill="#fff" stroke="#ca2171" rx="5.269" ry="5.269"/>
    <use xlink:href="#k" stroke-linecap="round" stroke-linejoin="round"/>
  </g>
  <path fill="#eaeaea" stroke="#000" stroke-width=".478" d="M93.277 61.804h13.308v11.541H93.277z" paint-order="markers stroke fill"/>
  <text xml:space="preserve" x="111.558" y="493.004" stroke-width=".265" font-family="Open Sans" font-size="5.644" font-weight="400" style="line-height:1.25;-inkscape-font-specification:&quot;Open Sans, Normal&quot;;font-variant-ligatures:normal;font-variant-caps:normal;font-variant-numeric:normal;font-variant-east-asian:normal" transform="translate(-13.577 -421.672)"><tspan x="111.558" y="493.004" style="-inkscape-font-specification:&quot;Open Sans, Normal&quot;;font-variant-ligatures:normal;font-variant-caps:normal;font-variant-numeric:normal;font-variant-east-asian:normal">B</tspan></text>
  <text xml:space="preserve" x="109.512" y="487.263" stroke-width=".265" font-family="Open Sans" font-size="2.117" font-weight="400" style="line-height:1.25;-inkscape-font-specification:&quot;Open Sans, Normal&quot;;font-variant-ligatures:normal;font-variant-caps:normal;font-variant-numeric:normal;font-variant-east-asian:normal" transform="translate(-13.577 -421.672)"><tspan x="109.512" y="487.263" style="-inkscape-font-specification:&quot;Open Sans, Normal&quot;;font-variant-ligatures:normal;font-variant-caps:normal;font-variant-numeric:normal;font-variant-east-asian:normal">SERVICE</tspan></text>
  <path fill="#eaeaea" stroke="#000" stroke-width=".478" d="M5.345 61.804h13.308v11.541H5.345z" paint-order="markers stroke fill"/>
  <text xml:space="preserve" x="23.79" y="493.004" stroke-width=".265" font-family="Open Sans" font-size="5.644" font-weight="400" style="line-height:1.25;-inkscape-font-specification:&quot;Open Sans, Normal&quot;;font-variant-ligatures:normal;font-variant-caps:normal;font-variant-numeric:normal;font-variant-east-asian:normal" transform="translate(-13.577 -421.672)"><tspan x="23.79" y="493.004" style="-inkscape-font-specification:&quot;Open Sans, Normal&quot;;font-variant-ligatures:normal;font-variant-caps:normal;font-variant-numeric:normal;font-variant-east-asian:normal">A</tspan></text>
  <text xml:space="preserve" x="21.58" y="487.263" stroke-width=".265" font-family="Open Sans" font-size="2.117" font-weight="400" style="line-height:1.25;-inkscape-font-specification:&quot;Open Sans, Normal&quot;;font-variant-ligatures:normal;font-variant-caps:normal;font-variant-numeric:normal;font-variant-east-asian:normal" transform="translate(-13.577 -421.672)"><tspan x="21.58" y="487.263" style="-inkscape-font-specification:&quot;Open Sans, Normal&quot;;font-variant-ligatures:normal;font-variant-caps:normal;font-variant-numeric:normal;font-variant-east-asian:normal">SERVICE</tspan></text>
  <text xml:space="preserve" x="11.907" y="2.781" stroke-width=".371" font-family="sans-serif" font-size="3.463" font-weight="400" style="line-height:1.25"><tspan x="11.907" y="2.781" font-family="Open Sans" font-weight="700" style="-inkscape-font-specification:&quot;Open Sans Bold&quot;">Cross-DC Communication (WAN Federation) Models</tspan></text>
  <path fill="#fff" fill-opacity=".7" d="M41.97 71.081h18.741v3.123H41.97zm-3.499-8.688h24.857v2.997H38.471zm-10.054-7.815h22.711v3.123H28.417zm7.574-30.202h40.977v3.123H35.991zm1.399 8.009h37.557v3.123H37.39z" paint-order="markers stroke fill"/>
  <text xml:space="preserve" x="42.69" y="72.983" fill="#1657ff" stroke-width=".057" font-family="Open Sans" font-size="1.464" font-weight="400" style="line-height:1.25;-inkscape-font-specification:&quot;Open Sans, Normal&quot;;font-variant-ligatures:normal;font-variant-caps:normal;font-variant-numeric:normal;font-variant-east-asian:normal" word-spacing="0"><tspan x="42.69" y="72.983" style="-inkscape-font-specification:&quot;Open Sans, Normal&quot;;font-variant-ligatures:normal;font-variant-caps:normal;font-variant-numeric:normal;font-variant-east-asian:normal">MeshGateway.Mode = &quot;none&quot;</tspan></text>
  <text xml:space="preserve" x="37.225" y="26.645" fill="#1657ff" stroke-width=".037" font-family="Open Sans" font-size="1.464" font-weight="400" style="line-height:1.25;-inkscape-font-specification:&quot;Open Sans, Normal&quot;;font-variant-ligatures:normal;font-variant-caps:normal;font-variant-numeric:normal;font-variant-east-asian:normal" word-spacing="0"><tspan x="37.225" y="26.645" style="-inkscape-font-specification:&quot;Open Sans, Normal&quot;;font-variant-ligatures:normal;font-variant-caps:normal;font-variant-numeric:normal;font-variant-east-asian:normal">connect.enable_mesh_gateway_wan_federation=false</tspan></text>
  <text xml:space="preserve" x="38.498" y="34.532" fill="#b17a00" fill-opacity=".827" stroke-width=".037" font-family="Open Sans" font-size="1.464" font-weight="400" style="line-height:1.25;-inkscape-font-specification:&quot;Open Sans, Normal&quot;;font-variant-ligatures:normal;font-variant-caps:normal;font-variant-numeric:normal;font-variant-east-asian:normal" word-spacing="0"><tspan x="38.498" y="34.532" style="-inkscape-font-specification:&quot;Open Sans, Normal&quot;;font-variant-ligatures:normal;font-variant-caps:normal;font-variant-numeric:normal;font-variant-east-asian:normal">connect.enable_mesh_gateway_wan_federation=true</tspan></text>
  <text xml:space="preserve" x="39.898" y="64.367" fill="#c04800" fill-opacity=".827" stroke-width=".057" font-family="Open Sans" font-size="1.464" font-weight="400" style="line-height:1.25;-inkscape-font-specification:&quot;Open Sans, Normal&quot;;font-variant-ligatures:normal;font-variant-caps:normal;font-variant-numeric:normal;font-variant-east-asian:normal" word-spacing="0"><tspan x="39.898" y="64.367" style="-inkscape-font-specification:&quot;Open Sans, Normal&quot;;font-variant-ligatures:normal;font-variant-caps:normal;font-variant-numeric:normal;font-variant-east-asian:normal">MeshGateway.Mode = &quot;remote&quot;</tspan></text>
  <text xml:space="preserve" x="29.141" y="56.513" fill="#b17a00" fill-opacity=".827" stroke-width=".057" font-family="Open Sans" font-size="1.464" font-weight="400" style="line-height:1.25;-inkscape-font-specification:&quot;Open Sans, Normal&quot;;font-variant-ligatures:normal;font-variant-caps:normal;font-variant-numeric:normal;font-variant-east-asian:normal" word-spacing="0"><tspan x="29.141" y="56.513" style="-inkscape-font-specification:&quot;Open Sans, Normal&quot;;font-variant-ligatures:normal;font-variant-caps:normal;font-variant-numeric:normal;font-variant-east-asian:normal">MeshGateway.Mode = &quot;local&quot;</tspan></text>
  <text xml:space="preserve" x="43.246" y="84.524" stroke-width=".265" font-family="Open Sans" font-size="2.469" font-weight="400" style="line-height:1.25;-inkscape-font-specification:&quot;Open Sans, Normal&quot;;font-variant-ligatures:normal;font-variant-caps:normal;font-variant-numeric:normal;font-variant-east-asian:normal"><tspan x="43.246" y="84.524" font-weight="700" style="-inkscape-font-specification:&quot;Open Sans, Normal&quot;;font-variant-ligatures:normal;font-variant-caps:normal;font-variant-numeric:normal;font-variant-east-asian:normal">System Components</tspan></text>
  <g transform="translate(48.392 75.681)scale(.13492)">
    <rect width="31.143" height="30.384" x="-36.991" y="87.118" fill="#ca2171" fill-rule="evenodd" rx=".949" ry=".949"/>
    <g fill="#fff" stroke-width=".447" transform="translate(-57.736 69.407)scale(.75411)">
      <use xlink:href="#b" fill-rule="evenodd" clip-rule="evenodd" opacity=".7"/>
      <use xlink:href="#c" fill-rule="evenodd" clip-rule="evenodd"/>
      <use xlink:href="#d"/>
    </g>
  </g>
  <g transform="translate(52.895 75.67)scale(.13492)">
    <rect width="31.143" height="30.384" x="-36.991" y="87.118" fill="#ca2171" fill-rule="evenodd" rx=".949" ry=".949"/>
    <g fill="#fff" stroke-width=".447" transform="translate(-57.736 69.407)scale(.75411)">
      <use xlink:href="#b" fill-rule="evenodd" clip-rule="evenodd" opacity=".7"/>
      <use xlink:href="#c" fill-rule="evenodd" clip-rule="evenodd"/>
      <use xlink:href="#d"/>
    </g>
  </g>
  <g transform="translate(2.916 -5.319)scale(.15922)">
    <rect width="31.143" height="30.384" x="265.312" y="590.954" fill="#ca2171" fill-rule="evenodd" stroke="#fff" rx=".949" ry=".949"/>
    <use xlink:href="#h" fill="none" fill-rule="evenodd" clip-rule="evenodd" transform="translate(270.028 604.352)scale(.26458)"/>
    <text xml:space="preserve" x="276.425" y="608.281" stroke-width=".098" font-family="Open Sans" font-size="3.913" font-weight="400" style="line-height:1.25;-inkscape-font-specification:&quot;Open Sans&quot;"><tspan x="276.425" y="608.281" fill="#fff" font-weight="700" style="-inkscape-font-specification:&quot;Open Sans Bold&quot;">LEADER</tspan></text>
    <g fill="#fff" stroke-width=".447" transform="translate(244.567 573.242)scale(.75411)">
      <use xlink:href="#e" fill-rule="evenodd" clip-rule="evenodd" opacity=".7"/>
      <use xlink:href="#f" fill-rule="evenodd" clip-rule="evenodd"/>
      <use xlink:href="#g"/>
    </g>
  </g>
  <g transform="translate(36.335 1.39)scale(.45673)">
    <rect width="9.697" height="9.46" x="20.152" y="204.026" fill="none" stroke="#ca2171" stroke-width=".5" rx=".296" ry=".296"/>
    <circle cx="22.451" cy="210.872" r=".794" fill="#ca2171"/>
  </g>
  <g transform="translate(65.126 -10.923)scale(.45673)">
    <use xlink:href="#i" fill-opacity=".7" stroke-width=".5"/>
    <circle cx="37.708" cy="222.041" r="2.587" fill="#fff" paint-order="markers stroke fill"/>
    <use xlink:href="#j" stroke-linecap="round" stroke-linejoin="round" stroke-width=".471" transform="translate(-7.571 21.435)"/>
    <use xlink:href="#j" stroke-linecap="round" stroke-linejoin="round" stroke-width=".471" transform="rotate(180 41.493 211.323)"/>
  </g>
  <use xlink:href="#l" fill-opacity=".7" stroke-width=".5" transform="translate(11.457 -22.427)scale(.45673)"/>
  <g stroke-width=".5" transform="translate(-129.25 220.868)scale(.343)">
    <rect width="10.539" height="10.539" x="510.765" y="-347.704" fill="#fff" stroke="#ca2171" rx="5.269" ry="5.269"/>
    <use xlink:href="#k" stroke-linecap="round" stroke-linejoin="round"/>
  </g>
  <path fill="#eaeaea" stroke="#000" stroke-width=".218" d="M79.309 93.618h6.078v5.271h-6.078z" paint-order="markers stroke fill"/>
  <text xml:space="preserve" x="81.532" y="97.97" stroke-width=".121" font-family="Open Sans" font-size="2.578" font-weight="400" style="line-height:1.25;-inkscape-font-specification:&quot;Open Sans, Normal&quot;;font-variant-ligatures:normal;font-variant-caps:normal;font-variant-numeric:normal;font-variant-east-asian:normal"><tspan x="81.532" y="97.97" style="-inkscape-font-specification:&quot;Open Sans, Normal&quot;;font-variant-ligatures:normal;font-variant-caps:normal;font-variant-numeric:normal;font-variant-east-asian:normal">A</tspan></text>
  <text xml:space="preserve" x="80.523" y="95.348" stroke-width=".121" font-family="Open Sans" font-size=".967" font-weight="400" style="line-height:1.25;-inkscape-font-specification:&quot;Open Sans, Normal&quot;;font-variant-ligatures:normal;font-variant-caps:normal;font-variant-numeric:normal;font-variant-east-asian:normal"><tspan x="80.523" y="95.348" style="-inkscape-font-specification:&quot;Open Sans, Normal&quot;;font-variant-ligatures:normal;font-variant-caps:normal;font-variant-numeric:normal;font-variant-east-asian:normal">SERVICE</tspan></text>
  <text xml:space="preserve" x="87.957" y="96.811" stroke-width=".179" font-family="Open Sans" font-size="2.382" font-weight="400" style="line-height:1.25;-inkscape-font-specification:&quot;Open Sans, Normal&quot;;font-variant-ligatures:normal;font-variant-caps:normal;font-variant-numeric:normal;font-variant-east-asian:normal"><tspan x="87.957" y="96.811" style="-inkscape-font-specification:&quot;Open Sans, Normal&quot;;font-variant-ligatures:normal;font-variant-caps:normal;font-variant-numeric:normal;font-variant-east-asian:normal">Service Instance</tspan></text>
  <text xml:space="preserve" x="87.957" y="91.347" stroke-width=".179" font-family="Open Sans" font-size="2.382" font-weight="400" style="line-height:1.25;-inkscape-font-specification:&quot;Open Sans, Normal&quot;;font-variant-ligatures:normal;font-variant-caps:normal;font-variant-numeric:normal;font-variant-east-asian:normal"><tspan x="87.957" y="91.347" style="-inkscape-font-specification:&quot;Open Sans, Normal&quot;;font-variant-ligatures:normal;font-variant-caps:normal;font-variant-numeric:normal;font-variant-east-asian:normal">Sidecar Proxy (Envoy)</tspan></text>
  <text xml:space="preserve" x="53.286" y="102.787" stroke-width=".179" font-family="Open Sans" font-size="2.382" font-weight="400" style="line-height:1.25;-inkscape-font-specification:&quot;Open Sans, Normal&quot;;font-variant-ligatures:normal;font-variant-caps:normal;font-variant-numeric:normal;font-variant-east-asian:normal"><tspan x="53.286" y="102.787" style="-inkscape-font-specification:&quot;Open Sans, Normal&quot;;font-variant-ligatures:normal;font-variant-caps:normal;font-variant-numeric:normal;font-variant-east-asian:normal">Mesh Gateway</tspan></text>
  <text xml:space="preserve" x="53.385" y="97.681" stroke-width=".179" font-family="Open Sans" font-size="2.382" font-weight="400" style="line-height:1.25;-inkscape-font-specification:&quot;Open Sans, Normal&quot;;font-variant-ligatures:normal;font-variant-caps:normal;font-variant-numeric:normal;font-variant-east-asian:normal"><tspan x="53.385" y="97.681" style="-inkscape-font-specification:&quot;Open Sans, Normal&quot;;font-variant-ligatures:normal;font-variant-caps:normal;font-variant-numeric:normal;font-variant-east-asian:normal">Consul Client Agent</tspan></text>
  <text xml:space="preserve" x="53.385" y="91.282" stroke-width=".179" font-family="Open Sans" font-size="2.382" font-weight="400" style="line-height:1.25;-inkscape-font-specification:&quot;Open Sans, Normal&quot;;font-variant-ligatures:normal;font-variant-caps:normal;font-variant-numeric:normal;font-variant-east-asian:normal"><tspan x="53.385" y="91.282" style="-inkscape-font-specification:&quot;Open Sans, Normal&quot;;font-variant-ligatures:normal;font-variant-caps:normal;font-variant-numeric:normal;font-variant-east-asian:normal">Consul Server Agents</tspan></text>
  <text xml:space="preserve" x="53.456" y="104.747" fill="#7c7c7c" stroke-width=".03" font-family="Open Sans" font-size="1.464" font-weight="400" style="line-height:1.25;-inkscape-font-specification:&quot;Open Sans, Normal&quot;;font-variant-ligatures:normal;font-variant-caps:normal;font-variant-numeric:normal;font-variant-east-asian:normal"><tspan x="53.456" y="104.747" style="-inkscape-font-specification:&quot;Open Sans, Normal&quot;;font-variant-ligatures:normal;font-variant-caps:normal;font-variant-numeric:normal;font-variant-east-asian:normal">not shown: the Consul client agent</tspan><tspan x="53.456" y="106.578" style="-inkscape-font-specification:&quot;Open Sans, Normal&quot;;font-variant-ligatures:normal;font-variant-caps:normal;font-variant-numeric:normal;font-variant-east-asian:normal">deployed with each gateway</tspan><tspan x="53.456" y="108.408" style="-inkscape-font-specification:&quot;Open Sans, Normal&quot;;font-variant-ligatures:normal;font-variant-caps:normal;font-variant-numeric:normal;font-variant-east-asian:normal">to manage its configuration </tspan></text>
  <path fill="none" stroke="#648fff" stroke-width=".75" d="M.783 98.08h7.683"/>
  <path fill="none" stroke="#fe5e00" stroke-opacity=".827" stroke-width=".75" d="M.783 99.667h7.683"/>
  <path fill="none" stroke="#ffb000" stroke-opacity=".827" stroke-width=".75" d="M.783 101.255h7.683"/>
  <text xml:space="preserve" x=".481" y="82.006" stroke-width=".265" font-family="Open Sans" font-size="2.469" font-weight="700" style="line-height:1.25;-inkscape-font-specification:&quot;Open Sans, Bold&quot;;font-variant-ligatures:normal;font-variant-caps:normal;font-variant-numeric:normal;font-variant-east-asian:normal"><tspan x=".481" y="82.006" style="-inkscape-font-specification:&quot;Open Sans, Bold&quot;;font-variant-ligatures:normal;font-variant-caps:normal;font-variant-numeric:normal;font-variant-east-asian:normal">Cross-DC</tspan><tspan x=".481" y="85.093" style="-inkscape-font-specification:&quot;Open Sans, Bold&quot;;font-variant-ligatures:normal;font-variant-caps:normal;font-variant-numeric:normal;font-variant-east-asian:normal">Communication Paths</tspan></text>
  <text xml:space="preserve" x="10.178" y="98.936" stroke-width=".179" font-family="Open Sans" font-size="2.382" font-weight="400" style="line-height:1.25;-inkscape-font-specification:&quot;Open Sans, Normal&quot;;font-variant-ligatures:normal;font-variant-caps:normal;font-variant-numeric:normal;font-variant-east-asian:normal"><tspan x="10.178" y="98.936" style="-inkscape-font-specification:&quot;Open Sans, Normal&quot;;font-variant-ligatures:normal;font-variant-caps:normal;font-variant-numeric:normal;font-variant-east-asian:normal">Data Plane</tspan></text>
  <path fill="none" stroke="#648fff" stroke-dasharray=".75 .75" stroke-width=".75" d="M.753 89.907h7.683"/>
  <path fill="none" stroke="#ffb000" stroke-dasharray=".75 .75" stroke-opacity=".827" stroke-width=".75" d="M.753 91.495h7.683"/>
  <text xml:space="preserve" x="10.148" y="90.33" stroke-width=".179" font-family="Open Sans" font-size="2.382" font-weight="400" style="line-height:1.25;-inkscape-font-specification:&quot;Open Sans, Normal&quot;;font-variant-ligatures:normal;font-variant-caps:normal;font-variant-numeric:normal;font-variant-east-asian:normal"><tspan x="10.148" y="90.33" style="-inkscape-font-specification:&quot;Open Sans, Normal&quot;;font-variant-ligatures:normal;font-variant-caps:normal;font-variant-numeric:normal;font-variant-east-asian:normal">Control Plane</tspan></text>
  <text xml:space="preserve" x="10.052" y="92.42" fill="#7c7c7c" stroke-width=".03" font-family="Open Sans" font-size="1.464" font-weight="400" style="line-height:1.25;-inkscape-font-specification:&quot;Open Sans, Normal&quot;;font-variant-ligatures:normal;font-variant-caps:normal;font-variant-numeric:normal;font-variant-east-asian:normal"><tspan x="10.052" y="92.42" style="-inkscape-font-specification:&quot;Open Sans, Normal&quot;;font-variant-ligatures:normal;font-variant-caps:normal;font-variant-numeric:normal;font-variant-east-asian:normal">see Consul agent config option:</tspan><tspan x="10.052" y="94.25" style="-inkscape-font-specification:&quot;Open Sans, Normal&quot;;font-variant-ligatures:normal;font-variant-caps:normal;font-variant-numeric:normal;font-variant-east-asian:normal">connect.enable_mesh_gateway_wan_federation</tspan></text>
  <text xml:space="preserve" x="10.236" y="101.074" fill="#7c7c7c" stroke-width=".03" font-family="Open Sans" font-size="1.464" font-weight="400" style="line-height:1.25;-inkscape-font-specification:&quot;Open Sans, Normal&quot;;font-variant-ligatures:normal;font-variant-caps:normal;font-variant-numeric:normal;font-variant-east-asian:normal"><tspan x="10.236" y="101.074" style="-inkscape-font-specification:&quot;Open Sans, Normal&quot;;font-variant-ligatures:normal;font-variant-caps:normal;font-variant-numeric:normal;font-variant-east-asian:normal">see &quot;MeshGateway.Mode&quot; config option in:</tspan><tspan x="10.236" y="102.904" style="-inkscape-font-specification:&quot;Open Sans, Normal&quot;;font-variant-ligatures:normal;font-variant-caps:normal;font-variant-numeric:normal;font-variant-east-asian:normal">(1) service proxy upstream, (2) service proxy,</tspan><tspan x="10.236" y="104.734" style="-inkscape-font-specification:&quot;Open Sans, Normal&quot;;font-variant-ligatures:normal;font-variant-caps:normal;font-variant-numeric:normal;font-variant-east-asian:normal">(3) service-defaults, (4) proxy-defaults</tspan></text>
  <path fill="#ca2171" stroke="#ca2171" stroke-dasharray=".265 .53" stroke-width=".265" d="M20.528 49.32v-9.717m71.366 9.929v-9.718" opacity=".3"/>
  <path fill="none" stroke="#ca2171" stroke-dasharray=".265 .53" stroke-width=".265" d="m20.97 59.323 5.757 3.641m64.833-3.726-5.758 3.641" opacity=".3"/>
  <text xml:space="preserve" x="42.593" y="6.464" fill="#c9cbd2" stroke-width=".265" font-family="Open Sans" font-size="2.249" style="line-height:1.25;-inkscape-font-specification:&quot;Open Sans, Normal&quot;;font-variant-ligatures:none"><tspan x="42.593" y="6.464">CONSUL SERVICE MESH</tspan></text>
</svg>
