<svg xmlns="http://www.w3.org/2000/svg" fill="none" stroke-linecap="square" stroke-miterlimit="10" viewBox="0 0 960 540">
  <clipPath id="a">
    <path d="M0 0h960v540H0z"/>
  </clipPath>
  <g clip-path="url(#a)">
    <path fill="#fff" fill-rule="evenodd" d="M0 0h960v540H0z"/>
    <path fill="#fff" fill-rule="evenodd" d="M538.58 407.92a2.513 2.513 0 0 1 2.513-2.513h85.448a2.513 2.513 0 0 1 2.513 2.513v85.454a2.513 2.513 0 0 1-2.513 2.514h-85.448a2.513 2.513 0 0 1-2.513-2.514z"/>
    <path stroke="#e03875" stroke-linecap="butt" stroke-miterlimit="400" d="M538.58 407.92a2.513 2.513 0 0 1 2.513-2.513h85.448a2.513 2.513 0 0 1 2.513 2.513v85.454a2.513 2.513 0 0 1-2.513 2.514h-85.448a2.513 2.513 0 0 1-2.513-2.514z"/>
    <path fill="#e03875" fill-rule="evenodd" d="M605.896 477.576a6.615 6.615 0 1 1 13.23 0 6.615 6.615 0 1 1-13.23 0"/>
    <path d="M530.918 498.218h106.244v41.772H530.918z"/>
    <path fill="#000" d="M550.394 502.972q1.453 0 2.485.828 1.03.813 1.203 2.25h-1.813q-.125-.671-.672-1.078-.546-.422-1.203-.422-1.11 0-1.718.813-.61.797-.61 2.125 0 1.266.594 2.062.61.797 1.734.797.813 0 1.313-.5.515-.5.625-1.406h1.828q-.156 1.625-1.188 2.563-1.015.937-2.578.937-1.234 0-2.203-.562t-1.5-1.594q-.515-1.031-.515-2.297 0-1.969 1.156-3.234 1.156-1.282 3.062-1.282m7.88 2.391q1.468 0 2.343.906.875.89.875 2.375t-.89 2.375q-.876.89-2.329.89-1.437 0-2.328-.89-.875-.906-.875-2.375t.86-2.375q.874-.906 2.343-.906m-1.5 3.281q0 .985.405 1.485.407.5 1.094.5.735 0 1.125-.516.39-.531.39-1.469 0-.922-.39-1.453-.375-.547-1.125-.547-.687 0-1.094.5-.406.5-.406 1.5m9.376-3.281q1.188 0 1.719.61.547.593.547 1.89v3.875h-1.703v-3.563q0-.718-.25-1.093t-.844-.375q-.703 0-1.016.422-.312.421-.312 1.296v3.313h-1.688v-6.203h1.61v.86h.03q.313-.5.813-.766t1.094-.266m6.098 0q1.265 0 1.953.5.703.5.797 1.484h-1.625q-.047-.437-.344-.64-.281-.203-.828-.203-.484 0-.719.156-.219.14-.219.422t.297.468q.297.188 1.188.36 1.422.265 1.906.703.5.437.5 1.14 0 1.047-.781 1.61-.766.547-2.047.547-1.297 0-2.078-.547t-.844-1.64h1.625q0 .484.375.765t.938.281q.5 0 .796-.219.313-.218.313-.578 0-.328-.406-.53-.39-.204-1.47-.423-1.077-.219-1.546-.61-.469-.39-.469-1.062 0-.984.688-1.484.703-.5 2-.5m5.601.172v3.547q0 .703.25 1.093.25.391.86.391.703 0 1-.422.312-.437.312-1.297v-3.312h1.703v6.203h-1.625v-.86h-.03q-.329.516-.845.782-.5.25-1.062.25-1.156 0-1.703-.594t-.547-1.906v-3.875zm7.176-2.36v8.563h-1.703v-8.563zm8.694-.203q1.453 0 2.484.828 1.031.813 1.203 2.25h-1.812q-.125-.671-.672-1.078-.547-.422-1.203-.422-1.11 0-1.72.813-.609.797-.609 2.125 0 1.266.594 2.062.61.797 1.735.797.812 0 1.312-.5.516-.5.625-1.406h1.828q-.156 1.625-1.187 2.563-1.016.937-2.578.937-1.235 0-2.204-.562-.968-.563-1.5-1.594-.515-1.031-.515-2.297 0-1.969 1.156-3.234 1.156-1.282 3.063-1.282m6.628.203v8.563h-1.703v-8.563zm3.094 0v1.391h-1.703v-1.39zm0 2.36v6.203h-1.703v-6.203zm4.203-.172q1.375 0 2.203.953.829.938.829 2.422l-.016.312h-4.484q.046.797.421 1.188.391.39 1.094.39.469 0 .86-.234.39-.25.5-.578h1.5q-.344 1.047-1.063 1.578-.719.516-1.844.516-1.437 0-2.312-.906-.86-.907-.86-2.36 0-1.39.891-2.328.89-.953 2.281-.953m-1.468 2.61h2.78q-.124-.688-.452-1-.313-.329-.922-.329-.61 0-.985.36-.359.343-.421.968m9.046-2.61q1.188 0 1.72.61.546.593.546 1.89v3.875h-1.703v-3.563q0-.718-.25-1.093t-.844-.375q-.703 0-1.015.422-.313.421-.313 1.296v3.313h-1.687v-6.203h1.609v.86h.031q.313-.5.813-.766t1.093-.266m5.723-1.688v1.86h1.25v1.14h-1.25v3.11q0 .375.14.531t.579.156q.14 0 .265-.015l.266-.032v1.329q-.219.03-.484.046-.25.016-.5.016-1.11 0-1.547-.375-.422-.39-.422-1.062v-3.704h-1.031v-1.14h1.031v-1.86z"/>
    <path d="M530.918 397.317a2.916 2.916 0 0 1 2.915-2.916h100.413a2.916 2.916 0 0 1 2.916 2.916v99.13a2.916 2.916 0 0 1-2.916 2.915H533.833a2.916 2.916 0 0 1-2.915-2.916z"/>
    <path fill="#fff" fill-rule="evenodd" d="M678 270.86a2.513 2.513 0 0 1 2.514-2.513h85.447a2.513 2.513 0 0 1 2.514 2.513v85.454a2.513 2.513 0 0 1-2.514 2.513h-85.447a2.513 2.513 0 0 1-2.513-2.513z"/>
    <path stroke="#e03875" stroke-linecap="butt" stroke-miterlimit="400" d="M678 270.86a2.513 2.513 0 0 1 2.514-2.513h85.447a2.513 2.513 0 0 1 2.514 2.513v85.454a2.513 2.513 0 0 1-2.514 2.513h-85.447a2.513 2.513 0 0 1-2.513-2.513z"/>
    <path fill="#e03875" fill-rule="evenodd" d="M745.317 340.516a6.615 6.615 0 1 1 13.23 0 6.615 6.615 0 1 1-13.23 0"/>
    <path d="M670.338 361.158h106.245v41.772H670.338z"/>
    <path fill="#000" d="M689.815 365.912q1.453 0 2.484.828 1.032.813 1.204 2.25h-1.813q-.125-.672-.672-1.078-.547-.422-1.203-.422-1.11 0-1.719.813-.61.797-.61 2.125 0 1.265.595 2.062.61.797 1.734.797.813 0 1.313-.5.515-.5.625-1.406h1.828q-.157 1.625-1.188 2.562-1.015.938-2.578.938-1.234 0-2.203-.563t-1.5-1.593q-.516-1.032-.516-2.297 0-1.969 1.157-3.235 1.156-1.28 3.062-1.28m7.879 2.39q1.469 0 2.344.907.875.89.875 2.375t-.89 2.375q-.876.89-2.329.89-1.438 0-2.328-.89-.875-.906-.875-2.375t.86-2.375q.874-.906 2.343-.906m-1.5 3.282q0 .984.406 1.484t1.094.5q.734 0 1.125-.515.39-.531.39-1.469 0-.922-.39-1.453-.375-.547-1.125-.547-.688 0-1.094.5t-.406 1.5m9.377-3.281q1.187 0 1.719.61.547.593.547 1.89v3.875h-1.704v-3.563q0-.718-.25-1.093t-.843-.375q-.703 0-1.016.421-.312.422-.312 1.297v3.313h-1.688v-6.203h1.61v.86h.03q.313-.5.813-.767.5-.265 1.094-.265m6.098 0q1.265 0 1.953.5.703.5.797 1.484h-1.625q-.047-.437-.344-.64-.281-.204-.828-.204-.485 0-.719.157-.219.14-.219.422 0 .28.297.468t1.188.36q1.421.265 1.906.703.5.437.5 1.14 0 1.047-.781 1.61-.766.547-2.047.547-1.297 0-2.078-.547-.782-.547-.844-1.64h1.625q0 .484.375.765t.937.281q.5 0 .797-.219.313-.218.313-.578 0-.328-.407-.531-.39-.203-1.468-.422t-1.547-.61-.469-1.062q0-.984.688-1.484.703-.5 2-.5m5.601.172v3.547q0 .703.25 1.093t.86.39q.703 0 1-.42.312-.438.312-1.298v-3.312h1.703v6.203h-1.625v-.86h-.031q-.328.516-.844.782-.5.25-1.062.25-1.157 0-1.703-.594-.547-.594-.547-1.906v-3.875zm7.176-2.36v8.563h-1.703v-8.563zm8.693-.203q1.453 0 2.485.828 1.031.813 1.203 2.25h-1.813q-.125-.672-.672-1.078-.546-.422-1.203-.422-1.11 0-1.718.813-.61.797-.61 2.125 0 1.265.594 2.062.61.797 1.734.797.813 0 1.313-.5.515-.5.625-1.406h1.828q-.156 1.625-1.188 2.562-1.015.938-2.578.938-1.234 0-2.203-.563t-1.5-1.593q-.515-1.032-.515-2.297 0-1.969 1.156-3.235 1.156-1.28 3.062-1.28m6.63.203v8.563h-1.704v-8.563zm3.093 0v1.39h-1.703v-1.39zm0 2.36v6.203h-1.703v-6.203zm4.203-.172q1.375 0 2.203.953.828.937.828 2.422l-.015.312h-4.485q.047.797.422 1.188.39.39 1.094.39.469 0 .86-.234.39-.25.5-.578h1.5q-.344 1.047-1.063 1.578-.719.516-1.844.516-1.437 0-2.312-.907-.86-.906-.86-2.359 0-1.39.89-2.328.891-.953 2.282-.953m-1.469 2.61h2.782q-.125-.688-.454-1-.312-.329-.921-.329-.61 0-.985.36-.36.343-.422.968m9.047-2.61q1.188 0 1.719.61.547.593.547 1.89v3.875h-1.703v-3.563q0-.718-.25-1.093t-.844-.375q-.703 0-1.016.421-.312.422-.312 1.297v3.313h-1.688v-6.203h1.61v.86h.031q.312-.5.812-.767.5-.265 1.094-.265m5.723-1.688v1.86h1.25v1.14h-1.25v3.11q0 .375.14.53.141.157.579.157.14 0 .265-.015l.266-.032v1.328q-.219.032-.484.047-.25.016-.5.016-1.11 0-1.547-.375-.422-.39-.422-1.063v-3.703h-1.031v-1.14h1.03v-1.86z"/>
    <path d="M670.338 260.085a2.916 2.916 0 0 1 2.916-2.916h100.413a2.916 2.916 0 0 1 2.916 2.916v99.129a2.916 2.916 0 0 1-2.916 2.916H673.254a2.916 2.916 0 0 1-2.916-2.916z"/>
    <path fill="#dc477d" fill-rule="evenodd" d="M180.248 264.682a2.513 2.513 0 0 1 2.513-2.514h85.448a2.513 2.513 0 0 1 2.513 2.514v85.448a2.513 2.513 0 0 1-2.513 2.513h-85.448a2.513 2.513 0 0 1-2.513-2.513z"/>
    <path fill="#fff" fill-rule="evenodd" d="M225.662 332.688c-13.937.012-25.244-11.313-25.256-25.293-.011-13.981 11.278-25.324 25.215-25.335a25.2 25.2 0 0 1 17.113 6.69l-5.989 6.286c-6.795-6.16-17.282-5.628-23.423 1.189s-5.61 17.336 1.186 23.496a16.545 16.545 0 0 0 22.237 0l5.99 6.285a25.1 25.1 0 0 1-17.073 6.682m20.306-12.662a2.07 2.07 0 0 1-2.068-2.074c0-1.146.926-2.075 2.068-2.075s2.068.929 2.068 2.075a2.076 2.076 0 0 1-2.068 2.074"/>
    <path fill="#fff" fill-rule="evenodd" d="M225.5 312.86c-3.017 0-5.463-2.455-5.463-5.481 0-3.027 2.446-5.481 5.464-5.481 3.017 0 5.463 2.454 5.463 5.48-.002 3.026-2.447 5.479-5.463 5.481m22.835.079a2.07 2.07 0 0 1-2.069-2.075c0-1.146.926-2.075 2.069-2.075s2.068.929 2.068 2.075a2.077 2.077 0 0 1-2.068 2.075m-6.146-.236a2.07 2.07 0 0 1-2.068-2.075c0-1.146.926-2.075 2.069-2.075s2.068.93 2.068 2.075a2.07 2.07 0 0 1-2.068 2.075m6.145-6.738a2.07 2.07 0 0 1-2.069-2.074c0-1.146.926-2.075 2.069-2.075s2.068.929 2.068 2.075a2.076 2.076 0 0 1-2.068 2.074m-6.146.236a2.07 2.07 0 0 1-2.068-2.075c0-1.146.926-2.075 2.069-2.075s2.068.93 2.068 2.075v.005a2.07 2.07 0 0 1-2.068 2.07m3.897-7.213a2.07 2.07 0 0 1-2.073-2.07 2.07 2.07 0 0 1 2.064-2.08 2.07 2.07 0 0 1 2.072 2.07v.005a2.07 2.07 0 0 1-2.063 2.075"/>
    <path d="M172.363 354.454h106.245v41.772H172.363z"/>
    <path fill="#000" d="M189.848 359.209q1.453 0 2.484.828 1.031.812 1.203 2.25h-1.812q-.125-.672-.672-1.078-.547-.422-1.203-.422-1.11 0-1.72.812-.609.797-.609 2.125 0 1.266.594 2.063.61.797 1.735.797.812 0 1.312-.5.516-.5.625-1.406h1.828q-.156 1.625-1.187 2.562-1.016.938-2.578.938-1.235 0-2.204-.563-.968-.562-1.5-1.594-.515-1.03-.515-2.297 0-1.968 1.156-3.234 1.156-1.281 3.063-1.281m7.878 2.39q1.47 0 2.344.907.875.89.875 2.375t-.89 2.375q-.875.89-2.329.89-1.437 0-2.328-.89-.875-.907-.875-2.375 0-1.469.86-2.375.875-.907 2.343-.907m-1.5 3.282q0 .984.407 1.484t1.093.5q.735 0 1.125-.516.391-.53.391-1.468 0-.922-.39-1.453-.376-.547-1.126-.547-.687 0-1.093.5-.407.5-.407 1.5m9.377-3.282q1.188 0 1.72.61.546.594.546 1.89v3.875h-1.703v-3.562q0-.719-.25-1.094t-.844-.375q-.703 0-1.015.422-.313.422-.313 1.297v3.312h-1.687v-6.203h1.609v.86h.031q.313-.5.813-.766t1.093-.266m6.098 0q1.266 0 1.953.5.703.5.797 1.485h-1.625q-.047-.438-.344-.64-.281-.204-.828-.204-.484 0-.719.156-.218.141-.218.422t.297.469q.296.187 1.187.36 1.422.265 1.906.702.5.438.5 1.141 0 1.047-.781 1.61-.766.546-2.047.546-1.297 0-2.078-.547-.781-.546-.844-1.64h1.625q0 .484.375.765t.938.282q.5 0 .797-.219.312-.219.312-.578 0-.328-.406-.531-.39-.204-1.469-.422-1.078-.219-1.547-.61-.468-.39-.468-1.062 0-.985.687-1.485.703-.5 2-.5m5.602.172v3.547q0 .703.25 1.094.25.39.859.39.703 0 1-.421.312-.438.312-1.297v-3.313h1.704v6.203h-1.625v-.859h-.032q-.328.516-.843.781-.5.25-1.063.25-1.156 0-1.703-.593-.547-.594-.547-1.907v-3.875zm7.175-2.359v8.562h-1.703v-8.562zm7.803-.203q1.547 0 2.484.719.938.718.938 2.03h-1.813q-.046-.64-.453-.968-.39-.328-1.234-.328-.578 0-.953.266-.36.25-.36.718 0 .313.157.47.156.155.625.343.468.172 2.062.547 1.063.25 1.656.875.61.61.61 1.547 0 1.25-.938 2t-2.625.75q-1.609 0-2.64-.797-1.016-.797-1.016-2.203v-.047h1.828q0 .797.516 1.187.531.39 1.375.39.765 0 1.219-.265.453-.281.453-.797 0-.422-.36-.687-.343-.266-1.109-.453-.984-.219-1.781-.469t-1.328-.813q-.532-.562-.532-1.437 0-1.156.922-1.86.938-.718 2.297-.718m7.522 2.39q1.375 0 2.203.954.828.937.828 2.421l-.016.313h-4.484q.047.797.422 1.187.39.391 1.093.391.47 0 .86-.234.39-.25.5-.578h1.5q-.344 1.046-1.063 1.578-.718.515-1.843.515-1.438 0-2.313-.906-.86-.906-.86-2.36 0-1.39.891-2.327.891-.954 2.282-.954m-1.47 2.61h2.782q-.125-.688-.453-1-.313-.328-.922-.328-.61 0-.984.36-.36.343-.422.968m9.11-2.61q.11 0 .203.016t.172.047v1.578q-.14-.031-.281-.031-.14-.016-.328-.016-.86 0-1.281.531-.407.516-.407 1.407v2.843h-1.687v-6.203h1.61v1.157h.03q.266-.61.797-.97.547-.359 1.172-.359m2.395.172 1.312 4.235h.032l1.296-4.235h1.704l-2.11 6.203h-1.89l-2.125-6.203zm7.912-.172q1.375 0 2.203.954.828.937.828 2.421l-.016.313h-4.484q.047.797.422 1.187.39.391 1.094.391.468 0 .86-.234.39-.25.5-.578h1.5q-.345 1.046-1.063 1.578-.72.515-1.844.515-1.438 0-2.313-.906-.859-.906-.859-2.36 0-1.39.89-2.327.891-.954 2.282-.954m-1.469 2.61h2.781q-.125-.688-.453-1-.312-.328-.922-.328-.609 0-.984.36-.36.343-.422.968m9.11-2.61q.109 0 .203.016.093.016.171.047v1.578q-.14-.031-.28-.031-.141-.016-.329-.016-.86 0-1.281.531-.406.516-.406 1.407v2.843h-1.688v-6.203h1.61v1.157h.03q.266-.61.798-.97.546-.359 1.171-.359m-59.601 11.61q-.64 1.187-.983 2.578-.329 1.39-.329 2.86 0 1.468.313 2.843.312 1.36.984 2.672h-1.422q-.765-1.281-1.171-2.672-.407-1.39-.407-2.734 0-1.39.407-2.907.406-1.515 1.171-2.64zm2.63.203v6.984h4.172v1.578h-6.063v-8.562zm7.693 2.187q1.375 0 2.203.954.828.937.828 2.421l-.015.313h-4.485q.047.797.422 1.187.39.391 1.094.391.469 0 .86-.234.39-.25.5-.578h1.5q-.344 1.046-1.063 1.578-.719.515-1.844.515-1.437 0-2.312-.906-.86-.906-.86-2.36 0-1.39.89-2.327.892-.954 2.282-.954m-1.469 2.61h2.782q-.125-.688-.453-1-.313-.328-.922-.328-.61 0-.985.36-.36.343-.422.968m8.344-2.61q1.375 0 2.047.454.672.453.672 1.28v3.329q0 .375.047.75t.172.562h-1.735q-.047-.14-.078-.28-.031-.157-.047-.313-.36.375-.89.578-.516.187-1.188.187-.969 0-1.547-.484-.562-.484-.562-1.375 0-.875.531-1.328.547-.469 1.969-.625.984-.094 1.297-.235.328-.156.328-.53 0-.407-.25-.61-.235-.219-.844-.219-.531 0-.812.234-.282.22-.329.704h-1.703q.063-1.016.828-1.547.782-.532 2.094-.532m-1.406 4.61q0 .375.25.594.25.203.797.203.672 0 1.015-.36.36-.359.36-1.047v-.656q-.156.125-.406.188-.25.047-.891.14-.594.078-.86.313-.265.219-.265.625m11.5-6.797v8.562h-1.625v-.796h-.031q-.266.484-.75.734-.485.234-1.125.234-1.266 0-2.032-.937-.75-.938-.75-2.39 0-1.391.735-2.298.75-.922 2.015-.922.579 0 1.047.235.485.234.782.687h.03v-3.109zm-4.61 5.453q0 .86.391 1.438.406.562 1.11.562.703 0 1.078-.516.375-.53.375-1.5 0-.906-.375-1.437-.36-.531-1.094-.531-.703 0-1.094.531-.39.531-.39 1.453m8.752-3.266q1.375 0 2.204.954.828.937.828 2.421l-.016.313h-4.484q.047.797.422 1.187.39.391 1.093.391.47 0 .86-.234.39-.25.5-.578h1.5q-.344 1.046-1.063 1.578-.719.515-1.844.515-1.437 0-2.312-.906-.86-.906-.86-2.36 0-1.39.891-2.327.89-.954 2.281-.954m-1.468 2.61h2.781q-.125-.688-.453-1-.313-.328-.922-.328-.61 0-.984.36-.36.343-.422.968m9.11-2.61q.108 0 .202.016t.172.047v1.578q-.14-.031-.281-.031-.14-.016-.328-.016-.86 0-1.282.531-.406.516-.406 1.407v2.843h-1.687v-6.203h1.61v1.157h.03q.266-.61.797-.97.547-.359 1.172-.359m1.747-2.39q.781 1.265 1.188 2.656.406 1.39.406 2.75 0 1.375-.422 2.906-.406 1.516-1.172 2.641h-1.422q.657-1.25.969-2.61.328-1.374.328-2.812 0-1.5-.328-2.875-.312-1.39-.969-2.656z"/>
    <path d="M172.363 259.938a2.916 2.916 0 0 1 2.916-2.916h100.413a2.916 2.916 0 0 1 2.916 2.916v99.129a2.916 2.916 0 0 1-2.916 2.916H175.279a2.916 2.916 0 0 1-2.916-2.916zm475.81-236.03h139.465"/>
    <path stroke="#e03875" stroke-linecap="butt" stroke-miterlimit="400" stroke-width="2" d="M648.173 23.908h139.465"/>
    <path d="M667.429.01h106.267v22.172H667.43z"/>
    <path fill="#000" d="M713.28 4.967q1.031 0 1.735.672.718.656.718 1.687 0 .813-.343 1.344-.329.531-1.016.797v.03q.61.157.922.72.328.562.36 1.718.03 1.172.327 1.594h-1.875q-.172-.422-.234-1.344-.078-1.265-.422-1.625-.328-.375-1.031-.375h-1.922v3.344h-1.89V4.967zm-.687 3.875q.593 0 .922-.282.343-.296.343-.953 0-.61-.328-.89-.312-.297-.937-.297h-2.094v2.422zm8.603-3.875q1.344 0 2.125.75t.781 2q0 1.234-.78 1.984-.782.75-2.126.75h-2.031v3.078h-1.89V4.967zm-.515 4.03q.812 0 1.203-.296.39-.312.39-.984 0-.657-.39-.97-.375-.327-1.203-.327h-1.516v2.578zm8.441-4.233q1.453 0 2.484.828 1.032.812 1.203 2.25h-1.812q-.125-.672-.672-1.078-.547-.422-1.203-.422-1.11 0-1.719.812-.61.797-.61 2.125 0 1.266.595 2.063.609.797 1.734.797.812 0 1.312-.5.516-.5.625-1.407h1.829q-.157 1.625-1.188 2.563-1.016.937-2.578.937-1.234 0-2.203-.562t-1.5-1.594q-.516-1.031-.516-2.297 0-1.969 1.156-3.234 1.157-1.281 3.063-1.281"/>
    <path d="M667.429 25.619h106.267v22.173H667.43z"/>
    <path fill="#000" d="M700.225 30.576v1.578h-2.563v6.985h-1.89v-6.985h-2.563v-1.578zm4.472-.203q1.453 0 2.485.828 1.03.813 1.203 2.25h-1.813q-.125-.672-.672-1.078-.547-.422-1.203-.422-1.11 0-1.719.813-.609.797-.609 2.125 0 1.265.594 2.062.61.797 1.734.797.813 0 1.313-.5.515-.5.625-1.406h1.828q-.156 1.625-1.188 2.562-1.015.938-2.578.938-1.234 0-2.203-.563t-1.5-1.593q-.516-1.032-.516-2.297 0-1.969 1.157-3.235 1.156-1.28 3.062-1.28m8.973.203q1.344 0 2.125.75t.781 2q0 1.235-.781 1.985t-2.125.75h-2.031v3.078h-1.891v-8.563zm-.516 4.032q.813 0 1.203-.297.391-.313.391-.985 0-.656-.39-.968-.376-.329-1.204-.329h-1.515v2.579zm8.348-4.235-3.344 8.969h-1.375l3.36-8.969zm3.234.203q1.297 0 2.047.703.75.704.75 1.547 0 .61-.312 1.078-.297.47-.907.688v.016q.782.187 1.172.734t.39 1.328q0 1.203-.905 1.922-.907.719-2.235.719-1.39 0-2.297-.703-.89-.704-.89-1.938 0-.797.406-1.328.422-.547 1.172-.734v-.016q-.594-.172-.922-.625-.312-.469-.312-1.11 0-1.015.828-1.64.843-.64 2.015-.64m-1.297 2.438q0 .484.36.797.36.312.922.312.578 0 .922-.297.343-.297.343-.812t-.328-.828q-.312-.328-.937-.328-.578 0-.938.328-.344.328-.344.828m-.187 3.578q0 .61.422 1.031.437.406 1.062.406t1.032-.406.406-1.015q0-.579-.422-.954-.406-.39-1.031-.39-.61 0-1.047.36-.422.343-.422.968m8.111-6.016q1.14 0 1.985.657.843.656.843 1.671 0 .61-.312 1.079-.297.453-.875.625v.03q.703.157 1.094.688.406.516.406 1.22 0 1.233-.906 2-.907.765-2.22.765-1.421 0-2.28-.797-.844-.813-.844-2.172v-.094h1.625q.031.781.422 1.219.39.437 1.047.437.609 0 .984-.375.39-.39.39-.953 0-.625-.374-.922-.375-.312-1.391-.312h-.188v-1.203h.297q.72 0 1.11-.266.39-.281.39-.781t-.343-.813q-.329-.312-.844-.312-.578 0-.938.39-.343.376-.359 1.11h-1.625q.047-1.313.844-2.094.797-.797 2.062-.797m6.69 0q1.5 0 2.297 1.094.796 1.094.796 3.234 0 2.157-.796 3.282-.782 1.125-2.297 1.125-1.5 0-2.297-1.11-.781-1.125-.781-3.297 0-2.125.78-3.218.782-1.11 2.298-1.11m-1.375 4.344q0 1.297.172 1.89.187.579.484.844.297.25.719.25.672 0 1.03-.656.36-.672.36-2.344 0-1.609-.36-2.265-.358-.672-1.046-.672-.64 0-1 .64-.36.641-.36 2.313m8.049-4.344q1.5 0 2.296 1.094.797 1.094.797 3.234 0 2.157-.797 3.282-.78 1.125-2.296 1.125-1.5 0-2.297-1.11-.782-1.125-.782-3.297 0-2.125.782-3.218.78-1.11 2.297-1.11m-1.375 4.344q0 1.297.171 1.89.188.579.485.844.297.25.719.25.671 0 1.03-.656.36-.672.36-2.344 0-1.609-.36-2.265-.359-.672-1.046-.672-.64 0-1 .64-.36.641-.36 2.313"/>
    <path fill="#fff" fill-rule="evenodd" d="M538.586 91.62a2.513 2.513 0 0 1 2.513-2.514h85.448a2.513 2.513 0 0 1 2.513 2.514v90.248a2.513 2.513 0 0 1-2.513 2.513h-85.448a2.513 2.513 0 0 1-2.513-2.513z"/>
    <path stroke="#e03875" stroke-linecap="butt" stroke-miterlimit="400" d="M538.586 91.62a2.513 2.513 0 0 1 2.513-2.514h85.448a2.513 2.513 0 0 1 2.513 2.514v90.248a2.513 2.513 0 0 1-2.513 2.513h-85.448a2.513 2.513 0 0 1-2.513-2.513z"/>
    <path fill="#e03875" fill-rule="evenodd" d="M605.902 165.1c0-3.848 2.962-6.967 6.615-6.967 1.754 0 3.437.734 4.678 2.04 1.24 1.307 1.937 3.079 1.937 4.926 0 3.848-2.962 6.966-6.615 6.966s-6.615-3.118-6.615-6.966"/>
    <path d="M530.924 186.835h106.244v37.188H530.924z"/>
    <path fill="#000" d="M550.4 191.59q1.453 0 2.485.827 1.03.813 1.203 2.25h-1.813q-.125-.672-.672-1.078-.546-.422-1.203-.422-1.11 0-1.718.813-.61.797-.61 2.125 0 1.265.594 2.062.61.797 1.734.797.813 0 1.313-.5.515-.5.625-1.406h1.828q-.156 1.625-1.188 2.562-1.015.938-2.578.938-1.234 0-2.203-.563t-1.5-1.593q-.515-1.032-.515-2.297 0-1.969 1.156-3.235 1.156-1.28 3.062-1.28m7.88 2.39q1.468 0 2.343.906.875.89.875 2.375t-.89 2.375q-.876.89-2.329.89-1.437 0-2.328-.89-.875-.906-.875-2.375t.86-2.375q.874-.906 2.343-.906m-1.5 3.281q0 .984.405 1.484.407.5 1.094.5.735 0 1.125-.515.39-.531.39-1.469 0-.922-.39-1.453-.375-.547-1.125-.547-.687 0-1.094.5-.406.5-.406 1.5m9.376-3.281q1.188 0 1.719.61.547.593.547 1.89v3.875h-1.703v-3.563q0-.718-.25-1.093t-.844-.375q-.703 0-1.016.421-.312.422-.312 1.297v3.313h-1.688v-6.203h1.61v.859h.03q.313-.5.813-.766.5-.265 1.094-.265m6.098 0q1.265 0 1.953.5.703.5.797 1.484h-1.625q-.047-.437-.344-.64-.281-.204-.828-.204-.484 0-.719.157-.219.14-.219.422 0 .28.297.468t1.188.36q1.422.265 1.906.703.5.437.5 1.14 0 1.047-.781 1.61-.766.547-2.047.547-1.297 0-2.078-.547t-.844-1.64h1.625q0 .484.375.765t.938.281q.5 0 .796-.219.313-.218.313-.578 0-.328-.406-.531-.39-.203-1.47-.422-1.077-.219-1.546-.61-.469-.39-.469-1.062 0-.984.688-1.484.703-.5 2-.5m5.601.172v3.547q0 .703.25 1.093t.86.39q.703 0 1-.421.312-.437.312-1.297v-3.312h1.703v6.203h-1.625v-.86h-.03q-.329.516-.845.782-.5.25-1.062.25-1.156 0-1.703-.594t-.547-1.906v-3.875zm7.176-2.36v8.563h-1.703v-8.563zm8.694-.203q1.453 0 2.484.828 1.031.813 1.203 2.25h-1.81q-.125-.672-.672-1.078-.547-.422-1.203-.422-1.11 0-1.72.813-.609.797-.609 2.125 0 1.265.594 2.062.61.797 1.735.797.812 0 1.312-.5.516-.5.625-1.406h1.828q-.156 1.625-1.187 2.562-1.016.938-2.578.938-1.235 0-2.204-.563-.968-.562-1.5-1.593-.515-1.032-.515-2.297 0-1.969 1.156-3.235 1.156-1.28 3.063-1.28m6.628.203v8.563h-1.703v-8.563zm3.094 0v1.39h-1.703v-1.39zm0 2.36v6.203h-1.703v-6.203zm4.203-.172q1.375 0 2.203.953.829.937.829 2.422l-.016.312h-4.484q.046.797.421 1.188.391.39 1.094.39.469 0 .86-.234.39-.25.5-.578h1.5q-.344 1.047-1.063 1.578-.719.516-1.844.516-1.437 0-2.312-.907-.86-.906-.86-2.359 0-1.39.891-2.328.89-.953 2.281-.953m-1.468 2.61h2.78q-.124-.688-.452-1-.313-.329-.922-.329-.61 0-.985.36-.359.343-.421.968m9.046-2.61q1.188 0 1.72.61.546.593.546 1.89v3.875h-1.703v-3.563q0-.718-.25-1.093t-.844-.375q-.703 0-1.015.421-.313.422-.313 1.297v3.313h-1.687v-6.203h1.609v.859h.031q.313-.5.813-.766.5-.265 1.093-.265m5.723-1.688v1.86h1.25v1.14h-1.25v3.11q0 .375.14.53.141.157.579.157.14 0 .265-.015l.266-.032v1.328q-.219.032-.484.047-.25.016-.5.016-1.11 0-1.547-.375-.422-.39-.422-1.063v-3.703h-1.031v-1.14h1.031v-1.86z"/>
    <path d="m584.04 394.401-224.914.126"/>
    <path stroke="#e03875" stroke-linecap="round" stroke-linejoin="round" stroke-width="2" d="m584.04 394.401-215.914.121"/>
    <path fill="#e03875" fill-rule="evenodd" stroke="#e03875" stroke-linecap="butt" stroke-width="2" d="m368.125 392.31-6.075 2.216 6.078 2.208z"/>
    <path d="m278.608 309.502 391.716.158"/>
    <path stroke="#e03875" stroke-linecap="round" stroke-linejoin="round" stroke-width="2" d="m287.608 309.506 382.716.154"/>
    <path fill="#e03875" fill-rule="evenodd" stroke="#e03875" stroke-linecap="butt" stroke-width="2" d="m287.608 307.294-6.077 2.21 6.076 2.213z"/>
    <path d="m360.965 224.068 223.087-.031"/>
    <path stroke="#e03875" stroke-linecap="round" stroke-linejoin="round" stroke-width="2" d="m369.965 224.067 214.087-.03"/>
    <path fill="#e03875" fill-rule="evenodd" stroke="#e03875" stroke-linecap="butt" stroke-width="2" d="m369.965 221.856-6.076 2.212 6.077 2.21z"/>
    <path d="m278.608 309.502 305.417 84.914"/>
    <path stroke="#e03875" stroke-linecap="round" stroke-linejoin="round" stroke-width="2" d="m287.279 311.913 296.746 82.503"/>
    <path fill="#e03875" fill-rule="evenodd" stroke="#e03875" stroke-linecap="butt" stroke-width="2" d="m287.871 309.782-6.447.504 5.262 3.758z"/>
    <path d="M360.965 224.068 584.052 394.4"/>
    <path stroke="#e03875" stroke-linecap="round" stroke-linejoin="round" stroke-width="2" d="M368.119 229.53 584.052 394.4"/>
    <path fill="#e03875" fill-rule="evenodd" stroke="#e03875" stroke-linecap="butt" stroke-width="2" d="m369.46 227.772-6.17-1.93 3.486 5.446z"/>
    <path d="m360.965 224.068 309.386 85.575"/>
    <path stroke="#e03875" stroke-linecap="round" stroke-linejoin="round" stroke-width="2" d="m369.64 226.468 300.711 83.175"/>
    <path fill="#e03875" fill-rule="evenodd" stroke="#e03875" stroke-linecap="butt" stroke-width="2" d="m370.23 224.336-6.447.512 5.267 3.751z"/>
    <path d="m359.13 394.542 311.213-84.882"/>
    <path stroke="#e03875" stroke-linecap="round" stroke-linejoin="round" stroke-width="2" d="m367.814 392.174 302.53-82.514"/>
    <path fill="#e03875" fill-rule="evenodd" stroke="#e03875" stroke-linecap="butt" stroke-width="2" d="m367.232 390.04-5.28 3.732 6.444.535z"/>
    <path d="M306.008 397.458a2.916 2.916 0 0 1 2.916-2.916h100.413a2.916 2.916 0 0 1 2.916 2.916v99.129a2.916 2.916 0 0 1-2.916 2.916H308.924a2.916 2.916 0 0 1-2.916-2.916z"/>
    <path fill="#dc477d" fill-rule="evenodd" d="M313.895 408.233a2.513 2.513 0 0 1 2.513-2.513h85.448a2.513 2.513 0 0 1 2.513 2.513v85.448a2.513 2.513 0 0 1-2.513 2.514h-85.448a2.513 2.513 0 0 1-2.513-2.514z"/>
    <path fill="#fff" fill-rule="evenodd" d="M359.309 476.24c-13.937.011-25.244-11.313-25.256-25.294-.011-13.98 11.278-25.323 25.215-25.335a25.2 25.2 0 0 1 17.113 6.692l-5.989 6.284c-6.795-6.16-17.282-5.627-23.423 1.19-6.14 6.816-5.61 17.336 1.186 23.496a16.545 16.545 0 0 0 22.237 0l5.99 6.285a25.1 25.1 0 0 1-17.073 6.682m20.306-12.662a2.07 2.07 0 0 1-2.068-2.075c0-1.146.926-2.075 2.068-2.075s2.068.93 2.068 2.075a2.076 2.076 0 0 1-2.068 2.075"/>
    <path fill="#fff" fill-rule="evenodd" d="M359.148 456.41c-3.018 0-5.464-2.453-5.464-5.48s2.446-5.48 5.464-5.48c3.017 0 5.463 2.453 5.463 5.48-.002 3.026-2.447 5.478-5.463 5.48m22.835.08a2.07 2.07 0 0 1-2.069-2.076c0-1.146.926-2.074 2.069-2.074s2.068.928 2.068 2.074a2.077 2.077 0 0 1-2.068 2.075m-6.145-.235a2.07 2.07 0 0 1-2.069-2.075c0-1.146.926-2.075 2.068-2.075 1.143 0 2.069.929 2.069 2.075a2.07 2.07 0 0 1-2.069 2.075m6.146-6.738a2.07 2.07 0 0 1-2.069-2.075c0-1.146.926-2.075 2.069-2.075s2.068.93 2.068 2.075a2.077 2.077 0 0 1-2.068 2.075m-6.145.236a2.07 2.07 0 0 1-2.069-2.075c0-1.146.926-2.075 2.068-2.075 1.143 0 2.069.929 2.069 2.075v.005a2.07 2.07 0 0 1-2.069 2.07m3.898-7.214a2.07 2.07 0 0 1-2.073-2.07 2.07 2.07 0 0 1 2.063-2.08 2.07 2.07 0 0 1 2.073 2.07v.005a2.07 2.07 0 0 1-2.063 2.075"/>
    <path d="M306.01 498.006h106.245v41.772H306.01z"/>
    <path fill="#000" d="M323.495 502.76q1.453 0 2.484.829 1.031.812 1.203 2.25h-1.812q-.125-.672-.672-1.079-.547-.421-1.203-.421-1.11 0-1.72.812-.609.797-.609 2.125 0 1.266.594 2.063.61.796 1.735.796.812 0 1.312-.5.516-.5.625-1.406h1.828q-.156 1.625-1.187 2.563-1.016.937-2.578.937-1.235 0-2.204-.562-.968-.563-1.5-1.594-.515-1.031-.515-2.297 0-1.969 1.156-3.234 1.156-1.282 3.063-1.282m7.878 2.391q1.47 0 2.344.906.875.89.875 2.375t-.89 2.375q-.875.89-2.329.89-1.437 0-2.328-.89-.875-.906-.875-2.375t.86-2.375q.875-.906 2.343-.906m-1.5 3.281q0 .985.407 1.485t1.093.5q.735 0 1.125-.516.391-.531.391-1.469 0-.922-.39-1.453-.376-.547-1.126-.547-.687 0-1.093.5-.407.5-.407 1.5m9.377-3.28q1.188 0 1.72.608.546.594.546 1.891v3.875h-1.703v-3.562q0-.72-.25-1.094t-.844-.375q-.703 0-1.016.422-.312.422-.312 1.297v3.312h-1.688v-6.203h1.61v.86h.031q.313-.5.813-.766t1.093-.266m6.098 0q1.266 0 1.953.5.703.5.797 1.483h-1.625q-.047-.437-.344-.64-.281-.203-.828-.203-.484 0-.719.156-.218.14-.218.422t.297.469q.296.187 1.187.359 1.422.266 1.906.703.5.438.5 1.14 0 1.048-.781 1.61-.766.547-2.047.547-1.297 0-2.078-.547t-.844-1.64h1.625q0 .484.375.765t.938.281q.5 0 .797-.218.312-.22.312-.579 0-.328-.406-.53-.39-.204-1.469-.423-1.078-.218-1.547-.61-.468-.39-.468-1.062 0-.984.687-1.484.703-.5 2-.5m5.602.17v3.548q0 .703.25 1.094.25.39.859.39.703 0 1-.422.312-.437.312-1.297v-3.312h1.704v6.203h-1.625v-.86h-.032q-.328.516-.843.782-.5.25-1.063.25-1.156 0-1.703-.594t-.547-1.906v-3.875zm7.175-2.358v8.562h-1.703v-8.562zm7.803-.204q1.547 0 2.484.72.938.718.938 2.03h-1.813q-.046-.64-.453-.968-.39-.328-1.234-.328-.578 0-.953.265-.36.25-.36.719 0 .312.157.469.156.156.625.343.468.172 2.062.547 1.063.25 1.656.875.61.61.61 1.547 0 1.25-.938 2t-2.625.75q-1.609 0-2.64-.797-1.016-.797-1.016-2.203v-.047h1.828q0 .797.516 1.188.531.39 1.375.39.765 0 1.219-.265.453-.281.453-.797 0-.422-.36-.688-.343-.265-1.109-.453-.984-.218-1.781-.468t-1.328-.813q-.532-.562-.532-1.437 0-1.157.922-1.86.938-.719 2.297-.719m7.522 2.391q1.375 0 2.203.953.828.938.828 2.422l-.016.313h-4.484q.047.796.422 1.187.39.39 1.093.39.47 0 .86-.234.39-.25.5-.578h1.5q-.344 1.047-1.063 1.578-.718.516-1.843.516-1.438 0-2.313-.906-.86-.907-.86-2.36 0-1.39.891-2.328.891-.953 2.282-.953m-1.47 2.61h2.782q-.125-.688-.453-1-.313-.329-.922-.329-.61 0-.984.36-.36.343-.422.968m9.11-2.61q.11 0 .203.016.094.015.172.047v1.578q-.14-.032-.281-.032-.14-.015-.328-.015-.86 0-1.281.531-.407.516-.407 1.406v2.844h-1.687v-6.203h1.61v1.156h.03q.266-.61.797-.969.547-.359 1.172-.359m2.395.172 1.312 4.234h.031l1.297-4.234h1.703l-2.109 6.203h-1.89l-2.126-6.203zm7.912-.172q1.375 0 2.203.953.828.938.828 2.422l-.016.313h-4.484q.047.796.422 1.187.39.39 1.094.39.468 0 .86-.234.39-.25.5-.578h1.5q-.345 1.047-1.063 1.578-.72.516-1.844.516-1.438 0-2.313-.906-.859-.907-.859-2.36 0-1.39.89-2.328.891-.953 2.282-.953m-1.469 2.61h2.781q-.125-.688-.453-1-.312-.329-.922-.329-.609 0-.984.36-.36.343-.422.968m9.11-2.61q.109 0 .203.016.093.015.171.047v1.578q-.14-.032-.28-.032-.141-.015-.329-.015-.86 0-1.281.531-.406.516-.406 1.406v2.844h-1.688v-6.203h1.61v1.156h.03q.266-.61.798-.969.546-.359 1.171-.359M334.83 516.76q-.641 1.188-.985 2.579-.328 1.39-.328 2.859t.312 2.844q.313 1.36.985 2.672h-1.422q-.766-1.282-1.172-2.672t-.406-2.735q0-1.39.406-2.906t1.172-2.64zm6.753.204v1.578h-4.125v1.984h3.579v1.453h-3.579v3.547h-1.89v-8.562zm3.422 2.187q1.469 0 2.344.906.875.89.875 2.375t-.89 2.375q-.876.89-2.329.89-1.437 0-2.328-.89-.875-.906-.875-2.375t.86-2.375q.875-.906 2.343-.906m-1.5 3.281q0 .985.407 1.485t1.093.5q.735 0 1.125-.516.39-.531.39-1.469 0-.922-.39-1.453-.375-.547-1.125-.547-.687 0-1.093.5-.407.5-.407 1.5m7.58-5.468v8.562h-1.703v-8.562zm3.094 0v8.562h-1.703v-8.562zm4.344 2.187q1.469 0 2.344.906.875.89.875 2.375t-.891 2.375q-.875.89-2.328.89-1.438 0-2.328-.89-.875-.906-.875-2.375t.86-2.375q.874-.906 2.343-.906m-1.5 3.281q0 .985.406 1.485t1.094.5q.734 0 1.125-.516.39-.531.39-1.469 0-.922-.39-1.453-.375-.547-1.125-.547-.688 0-1.094.5t-.406 1.5m7.049-3.11 1.14 4.204h.016l1.031-4.203h1.656l1.063 4.203h.016l1.156-4.203h1.75l-1.969 6.203h-1.75l-1.094-4.172h-.031l-1.062 4.172h-1.75l-1.97-6.203zm11.408-.17q1.375 0 2.203.952.828.938.828 2.422l-.016.313h-4.484q.047.796.422 1.187.39.39 1.094.39.468 0 .86-.234.39-.25.5-.578h1.5q-.345 1.047-1.063 1.578-.72.516-1.844.516-1.438 0-2.313-.906-.859-.907-.859-2.36 0-1.39.89-2.328.891-.953 2.282-.953m-1.469 2.608h2.781q-.125-.687-.453-1-.312-.328-.922-.328-.609 0-.984.36-.36.343-.422.968m9.11-2.609q.109 0 .203.016.093.015.171.047v1.578q-.14-.032-.28-.032-.141-.015-.329-.015-.86 0-1.281.531-.406.516-.406 1.406v2.844h-1.688v-6.203h1.61v1.156h.03q.266-.61.798-.969.546-.359 1.171-.359m1.748-2.39q.78 1.265 1.187 2.656.406 1.39.406 2.75 0 1.375-.422 2.906-.406 1.516-1.171 2.64h-1.422q.656-1.25.968-2.609.329-1.375.329-2.812 0-1.5-.329-2.875-.312-1.39-.968-2.657z"/>
    <path d="m359.13 394.542 224.914-170.52"/>
    <path stroke="#e03875" stroke-linecap="round" stroke-linejoin="round" stroke-width="2" d="m366.303 389.104 217.741-165.082"/>
    <path fill="#e03875" fill-rule="evenodd" stroke="#e03875" stroke-linecap="butt" stroke-width="2" d="m364.967 387.342-3.506 5.433 6.178-1.908z"/>
    <path d="M307.843 122.023a2.916 2.916 0 0 1 2.916-2.916h100.413a2.916 2.916 0 0 1 2.916 2.916v99.13a2.916 2.916 0 0 1-2.916 2.915H310.759a2.916 2.916 0 0 1-2.916-2.915z"/>
    <path fill="#dc477d" fill-rule="evenodd" d="M312.062 91.66a2.513 2.513 0 0 1 2.513-2.514h85.448a2.513 2.513 0 0 1 2.514 2.514v85.448a2.513 2.513 0 0 1-2.514 2.513h-85.448a2.513 2.513 0 0 1-2.513-2.513z"/>
    <path fill="#fff" fill-rule="evenodd" d="M357.476 159.666c-13.937.012-25.244-11.313-25.255-25.294-.012-13.98 11.277-25.323 25.214-25.335a25.2 25.2 0 0 1 17.113 6.692l-5.988 6.284c-6.796-6.16-17.283-5.627-23.423 1.19-6.141 6.816-5.61 17.336 1.185 23.496a16.545 16.545 0 0 0 22.238 0l5.988 6.285a25.1 25.1 0 0 1-17.072 6.682m20.306-12.662a2.07 2.07 0 0 1-2.068-2.075 2.07 2.07 0 0 1 2.068-2.074 2.07 2.07 0 0 1 2.068 2.074 2.076 2.076 0 0 1-2.068 2.075"/>
    <path fill="#fff" fill-rule="evenodd" d="M357.315 139.837c-3.017 0-5.464-2.454-5.464-5.48s2.447-5.481 5.464-5.481 5.463 2.454 5.463 5.48c-.002 3.026-2.447 5.478-5.463 5.481m22.835.079a2.07 2.07 0 0 1-2.068-2.075 2.07 2.07 0 0 1 2.068-2.075c1.142 0 2.068.929 2.068 2.075a2.077 2.077 0 0 1-2.068 2.075m-6.145-.236a2.07 2.07 0 0 1-2.069-2.075c0-1.146.926-2.075 2.069-2.075s2.068.93 2.068 2.075a2.07 2.07 0 0 1-2.068 2.075m6.145-6.738a2.07 2.07 0 0 1-2.068-2.075 2.07 2.07 0 0 1 2.068-2.074 2.07 2.07 0 0 1 2.068 2.074 2.076 2.076 0 0 1-2.068 2.075m-6.145.236a2.07 2.07 0 0 1-2.069-2.075c0-1.146.926-2.075 2.069-2.075s2.068.93 2.068 2.075v.005a2.07 2.07 0 0 1-2.068 2.07m3.897-7.213a2.07 2.07 0 0 1-2.073-2.07 2.07 2.07 0 0 1 2.064-2.08 2.07 2.07 0 0 1 2.073 2.07v.005a2.07 2.07 0 0 1-2.064 2.074"/>
    <path d="M304.177 181.432h106.245v41.772H304.177z"/>
    <path fill="#000" d="M321.662 186.187q1.453 0 2.484.828 1.031.812 1.203 2.25h-1.812q-.125-.672-.672-1.078-.547-.422-1.203-.422-1.11 0-1.72.812-.608.797-.608 2.125 0 1.266.593 2.063.61.797 1.735.797.812 0 1.312-.5.516-.5.625-1.407h1.828q-.156 1.625-1.187 2.563-1.016.937-2.578.937-1.235 0-2.203-.562-.97-.563-1.5-1.594-.516-1.031-.516-2.297 0-1.968 1.156-3.234 1.156-1.281 3.063-1.281m7.879 2.39q1.468 0 2.343.907.875.89.875 2.375t-.89 2.375q-.875.89-2.328.89-1.438 0-2.329-.89-.875-.907-.875-2.375 0-1.47.86-2.375.875-.907 2.344-.907m-1.5 3.282q0 .984.406 1.484t1.094.5q.734 0 1.125-.516.39-.53.39-1.468 0-.922-.39-1.454-.375-.546-1.125-.546-.688 0-1.094.5t-.406 1.5m9.377-3.282q1.187 0 1.718.61.547.593.547 1.89v3.875h-1.703v-3.562q0-.719-.25-1.094t-.844-.375q-.703 0-1.015.422-.313.422-.313 1.297v3.312h-1.687v-6.203h1.609v.86h.031q.313-.5.813-.766t1.094-.266m6.097 0q1.266 0 1.953.5.703.5.797 1.485h-1.625q-.047-.438-.344-.64-.28-.204-.828-.204-.484 0-.718.156-.22.14-.22.422t.298.469 1.187.36q1.422.265 1.906.702.5.438.5 1.14 0 1.048-.78 1.61-.766.547-2.048.547-1.297 0-2.078-.547t-.844-1.64h1.625q0 .484.375.765t.938.282q.5 0 .797-.22.312-.218.312-.577 0-.328-.406-.532-.39-.203-1.469-.421-1.078-.22-1.547-.61t-.468-1.062q0-.985.687-1.485.703-.5 2-.5m5.602.172v3.547q0 .703.25 1.094.25.39.86.39.702 0 1-.421.312-.438.312-1.297v-3.313h1.703v6.203h-1.625v-.86h-.032q-.328.517-.843.782-.5.25-1.063.25-1.156 0-1.703-.594-.547-.593-.547-1.906v-3.875zm7.176-2.36v8.563h-1.704v-8.562zm7.802-.202q1.547 0 2.485.718.937.72.937 2.032h-1.812q-.047-.64-.454-.97-.39-.327-1.234-.327-.578 0-.953.265-.36.25-.36.72 0 .312.157.468.156.156.625.344.469.172 2.062.547 1.063.25 1.657.875.609.609.609 1.546 0 1.25-.938 2t-2.625.75q-1.609 0-2.64-.796-1.016-.797-1.016-2.204v-.046h1.828q0 .796.516 1.187.531.39 1.375.39.766 0 1.219-.265.453-.281.453-.797 0-.422-.36-.687-.343-.266-1.109-.453-.984-.22-1.781-.47t-1.328-.812q-.532-.562-.532-1.437 0-1.156.922-1.86.938-.718 2.297-.718m7.522 2.39q1.375 0 2.203.953.828.938.828 2.422l-.016.313h-4.484q.047.797.422 1.187.39.39 1.094.39.468 0 .859-.233.39-.25.5-.579h1.5q-.344 1.047-1.063 1.579-.718.515-1.843.515-1.438 0-2.313-.906-.86-.906-.86-2.36 0-1.39.891-2.328.891-.953 2.282-.953m-1.469 2.61h2.781q-.125-.688-.453-1-.312-.328-.922-.328t-.984.359q-.36.344-.422.969m9.11-2.61q.109 0 .202.016t.172.047v1.578q-.14-.031-.28-.031-.142-.016-.329-.016-.86 0-1.281.531-.407.516-.407 1.407v2.843h-1.687v-6.203h1.61v1.156h.03q.266-.609.797-.968.547-.36 1.172-.36m2.394.172 1.312 4.235h.032l1.297-4.235h1.703l-2.11 6.203h-1.89l-2.125-6.203zm7.912-.172q1.375 0 2.203.953.828.938.828 2.422l-.015.313h-4.485q.047.797.422 1.187.39.39 1.094.39.469 0 .86-.233.39-.25.5-.579h1.5q-.345 1.047-1.063 1.579-.719.515-1.844.515-1.438 0-2.313-.906-.859-.906-.859-2.36 0-1.39.89-2.328.891-.953 2.282-.953m-1.469 2.61h2.781q-.125-.688-.453-1-.312-.328-.922-.328-.609 0-.984.359-.36.344-.422.969m9.11-2.61q.109 0 .203.016.093.016.172.047v1.578q-.141-.031-.282-.031-.14-.016-.328-.016-.86 0-1.281.531-.406.516-.406 1.407v2.843h-1.688v-6.203h1.61v1.156h.03q.266-.609.798-.968.547-.36 1.172-.36m-64.207 11.61q-.641 1.187-.985 2.578-.328 1.39-.328 2.86 0 1.468.313 2.843.312 1.36.984 2.672h-1.422q-.766-1.281-1.172-2.672-.406-1.39-.406-2.734 0-1.391.406-2.907.406-1.515 1.172-2.64zm6.754.203v1.578h-4.125v1.984h3.578v1.453h-3.578v3.547h-1.891v-8.562zm3.421 2.187q1.47 0 2.344.907.875.89.875 2.375t-.89 2.375q-.875.89-2.329.89-1.437 0-2.328-.89-.875-.907-.875-2.375 0-1.47.86-2.375.875-.907 2.343-.907m-1.5 3.282q0 .984.407 1.484t1.093.5q.735 0 1.125-.516.391-.53.391-1.468 0-.922-.39-1.454-.376-.546-1.126-.546-.687 0-1.093.5-.407.5-.407 1.5m7.58-5.47v8.563h-1.703v-8.562zm3.094 0v8.563h-1.703v-8.562zm4.344 2.188q1.469 0 2.344.907.875.89.875 2.375t-.89 2.375q-.876.89-2.329.89-1.438 0-2.328-.89-.875-.907-.875-2.375 0-1.47.86-2.375.874-.907 2.343-.907m-1.5 3.282q0 .984.406 1.484t1.094.5q.734 0 1.125-.516.39-.53.39-1.468 0-.922-.39-1.454-.375-.546-1.125-.546-.688 0-1.094.5t-.406 1.5m7.049-3.11 1.14 4.203h.016l1.031-4.203h1.657l1.062 4.203h.016l1.156-4.203h1.75l-1.969 6.203h-1.75l-1.094-4.172h-.03l-1.063 4.172h-1.75l-1.97-6.203zm11.408-.172q1.375 0 2.203.953.828.938.828 2.422l-.015.313h-4.485q.047.797.422 1.187.39.39 1.094.39.469 0 .86-.233.39-.25.5-.579h1.5q-.345 1.047-1.063 1.579-.719.515-1.844.515-1.438 0-2.313-.906-.859-.906-.859-2.36 0-1.39.89-2.328.891-.953 2.282-.953m-1.469 2.61h2.781q-.125-.688-.453-1-.312-.328-.922-.328-.609 0-.984.359-.36.344-.422.969m9.11-2.61q.109 0 .203.016.093.016.172.047v1.578q-.141-.031-.282-.031-.14-.016-.328-.016-.86 0-1.281.531-.406.516-.406 1.407v2.843h-1.688v-6.203h1.61v1.156h.03q.266-.609.798-.968.547-.36 1.172-.36m1.748-2.39q.78 1.265 1.187 2.656.406 1.39.406 2.75 0 1.375-.421 2.906-.407 1.516-1.172 2.64h-1.422q.656-1.25.969-2.609.328-1.375.328-2.812 0-1.5-.328-2.875-.313-1.39-.97-2.656z"/>
    <path d="m278.608 309.502 305.448-85.48"/>
    <path stroke="#e03875" stroke-linecap="round" stroke-linejoin="round" stroke-width="2" d="m287.275 307.077 296.781-83.055"/>
    <path fill="#e03875" fill-rule="evenodd" stroke="#e03875" stroke-linecap="butt" stroke-width="2" d="m286.679 304.947-5.256 3.767 6.448.493z"/>
    <path d="M224.716 235.249v-99.802h71.8"/>
    <path stroke="#dc477d" stroke-linecap="butt" stroke-linejoin="round" stroke-width="2" d="M224.716 223.249v-87.802h59.8"/>
    <path fill="#dc477d" fill-rule="evenodd" stroke="#dc477d" stroke-linecap="butt" stroke-width="2" d="m221.413 223.249 3.303 9.076 3.304-9.076zm63.103-84.499 9.076-3.303-9.076-3.304z"/>
    <path d="M224.716 400.307v52.4h71.8"/>
    <path stroke="#dc477d" stroke-linecap="butt" stroke-linejoin="round" stroke-width="2" d="M224.716 412.307v40.4h59.8"/>
    <path fill="#dc477d" fill-rule="evenodd" stroke="#dc477d" stroke-linecap="butt" stroke-width="2" d="m228.02 412.307-3.304-9.076-3.303 9.076zm56.496 43.703 9.076-3.303-9.076-3.304z"/>
  </g>
</svg>
