<svg xmlns="http://www.w3.org/2000/svg" width="420" height="500" fill="none" xmlns:xlink="http://www.w3.org/1999/xlink">
  <mask id="a" width="420" height="500" x="0" y="0" maskUnits="userSpaceOnUse" style="mask-type:alpha">
    <path fill="#C4C4C4" d="M0 0h420v500H0z"/>
  </mask>
  <g mask="url(#a)">
    <g clip-path="url(#b)">
      <path fill="#000" d="M0 26.807v-1.614a186.8 186.8 0 0 1 71.674 14.294 187.3 187.3 0 0 1 60.762 40.711 187.8 187.8 0 0 1 40.598 60.93A188.3 188.3 0 0 1 187.289 213h-1.61a186.7 186.7 0 0 0-14.131-71.254 186.2 186.2 0 0 0-40.25-60.407 185.6 185.6 0 0 0-60.24-40.361A185.2 185.2 0 0 0 .001 26.808Zm123.541 62.311a174 174 0 0 1 37.961 56.801A174.4 174.4 0 0 1 174.712 213h1.61c0-46.893-18.577-91.864-51.644-125.022S46.764 36.19.001 36.19H0v1.615a173.2 173.2 0 0 1 66.896 13.248 173.5 173.5 0 0 1 56.645 38.065m-7.758 7.78a163.1 163.1 0 0 1 35.575 53.234A163.5 163.5 0 0 1 163.74 213h1.61a166.2 166.2 0 0 0-12.586-63.452 165.8 165.8 0 0 0-35.843-53.792 165.3 165.3 0 0 0-53.644-35.942A165 165 0 0 0 .002 47.194H0v1.613a162.3 162.3 0 0 1 62.695 12.415 162.7 162.7 0 0 1 53.088 35.675ZM119.861 213h1.61c-.036-32.294-12.846-63.255-35.618-86.09S32.206 91.23.001 91.193H0v1.614c31.779.036 62.245 12.711 84.715 35.244s35.11 53.083 35.146 84.949m-10.967 0h1.61c-.033-29.378-11.686-57.544-32.402-78.318C57.386 113.909 29.298 102.223.001 102.19H0v1.614c28.871.033 56.55 11.548 76.965 32.019 20.414 20.471 31.897 48.227 31.929 77.177m-8.627-100.551a141.3 141.3 0 0 1 30.811 46.104A141.6 141.6 0 0 1 141.801 213h1.61a144.2 144.2 0 0 0-10.913-55.035 143.8 143.8 0 0 0-31.087-46.656 143.4 143.4 0 0 0-46.528-31.173A143.1 143.1 0 0 0 .001 69.193H0v1.614a140.5 140.5 0 0 1 54.293 10.75 140.9 140.9 0 0 1 45.974 30.892m7.757-7.772a152.2 152.2 0 0 1 33.197 49.666A152.5 152.5 0 0 1 152.773 213h1.61c-.002-41.057-16.268-80.432-45.22-109.464S40.945 58.193.001 58.19H0v1.614A151.4 151.4 0 0 1 58.496 71.39a151.7 151.7 0 0 1 49.529 33.288Zm-15.509 15.552a130.4 130.4 0 0 1 28.425 42.537A130.7 130.7 0 0 1 130.833 213h1.61a133.1 133.1 0 0 0-10.08-50.824 132.8 132.8 0 0 0-28.71-43.087 132.4 132.4 0 0 0-42.968-28.79A132.1 132.1 0 0 0 0 80.19v1.614a129.7 129.7 0 0 1 50.096 9.922 130 130 0 0 1 42.42 28.503Z"/>
      <path fill="#DC477D" d="M0 202.807v-1.614a11.77 11.77 0 0 1 8.322 3.462A11.84 11.84 0 0 1 11.775 213h-1.61a10.22 10.22 0 0 0-2.98-7.204A10.16 10.16 0 0 0 0 202.807M21.139 213h1.609a22.87 22.87 0 0 0-6.67-16.122A22.74 22.74 0 0 0 .001 190.19H0v1.614a21.14 21.14 0 0 1 14.94 6.215A21.25 21.25 0 0 1 21.138 213Zm65.817 0h1.61a89.04 89.04 0 0 0-25.969-62.769A88.54 88.54 0 0 0 .001 124.19H0v1.614a86.94 86.94 0 0 1 61.458 25.569A87.4 87.4 0 0 1 86.955 213Zm-10.972 0h1.61a78 78 0 0 0-22.752-54.992A77.58 77.58 0 0 0 0 135.193v1.614a75.96 75.96 0 0 1 53.703 22.342A76.4 76.4 0 0 1 75.983 213Zm-43.879 0h1.61a33.9 33.9 0 0 0-9.886-23.894 33.7 33.7 0 0 0-23.827-9.913H0v1.614a32.1 32.1 0 0 1 22.69 9.44A32.27 32.27 0 0 1 32.105 213m10.973 0h1.609a44.92 44.92 0 0 0-13.103-31.67A44.68 44.68 0 0 0 .001 168.19H0v1.614a43.07 43.07 0 0 1 30.446 12.666A43.3 43.3 0 0 1 43.077 213Zm10.966 0h1.61a55.95 55.95 0 0 0-16.318-39.443A55.64 55.64 0 0 0 0 157.193v1.614a54.03 54.03 0 0 1 38.197 15.891A54.33 54.33 0 0 1 54.043 213Zm10.973 0h1.61a66.98 66.98 0 0 0-19.536-47.22A66.6 66.6 0 0 0 0 146.189v1.615a65 65 0 0 1 45.952 19.117A65.36 65.36 0 0 1 65.016 213Z"/>
    </g>
    <g clip-path="url(#c)">
      <path fill="#000" d="M0 299.314v1.598c23.481-.026 45.992-9.297 62.596-25.778 16.603-16.482 25.942-38.827 25.969-62.135h-1.61c-.026 22.884-9.196 44.823-25.497 61.005C45.156 290.185 23.054 299.288 0 299.314m65.016-86.315h1.61c-.02 17.534-7.046 34.344-19.536 46.743C34.6 272.14 17.664 279.115 0 279.135v-1.599c17.238-.019 33.763-6.825 45.952-18.924s19.044-28.503 19.064-45.613m10.966 0h1.61c-.023 20.42-8.205 39.997-22.752 54.436S20.572 289.997 0 290.02v-1.598c20.145-.023 39.458-7.976 53.703-22.116 14.244-14.14 22.257-33.311 22.28-53.307Zm-21.939 0h1.61c-.017 14.646-5.886 28.688-16.319 39.044C28.901 262.4 14.755 268.226 0 268.242v-1.597c14.328-.017 28.065-5.674 38.197-15.731 10.131-10.057 15.83-23.692 15.846-37.915m-43.878 0h1.61a11.66 11.66 0 0 1-3.453 8.261A11.84 11.84 0 0 1 0 224.687v-1.598a10.2 10.2 0 0 0 7.184-2.959 10.06 10.06 0 0 0 2.98-7.131Zm32.912 0h1.609c-.014 11.76-4.726 23.035-13.103 31.35S11.848 257.343 0 257.356v-1.598c11.42-.013 22.37-4.522 30.446-12.538 8.075-8.016 12.618-18.885 12.63-30.221Zm-10.973 0h1.61a33.38 33.38 0 0 1-9.886 23.652A33.88 33.88 0 0 1 0 246.464v-1.597a32.26 32.26 0 0 0 22.69-9.345 31.78 31.78 0 0 0 9.414-22.523m-10.966 0h1.609a22.52 22.52 0 0 1-6.67 15.959A22.86 22.86 0 0 1 0 235.579v-1.598a21.24 21.24 0 0 0 14.94-6.153 20.93 20.93 0 0 0 6.198-14.829"/>
      <path fill="#000" d="M0 321.092v1.598c29.298-.033 57.386-11.601 78.102-32.165 20.716-20.563 32.369-48.444 32.402-77.526h-1.61c-.032 28.658-11.515 56.133-31.93 76.397S28.871 321.06 0 321.092m100.267-8.558a139.8 139.8 0 0 0 30.811-45.638 138.95 138.95 0 0 0 10.722-53.897h1.61a140.5 140.5 0 0 1-10.844 54.507 141.4 141.4 0 0 1-31.156 46.157 142.6 142.6 0 0 1-46.498 30.927A143.4 143.4 0 0 1 0 355.353v-1.597a141.8 141.8 0 0 0 54.293-10.642 140.9 140.9 0 0 0 45.974-30.58m19.594-99.535h1.609c-.036 31.968-12.845 62.615-35.617 85.22C63.08 320.824 32.205 333.539 0 333.575v-1.597c31.778-.036 62.245-12.583 84.715-34.888s35.11-52.547 35.146-84.091m-27.346 91.834a129 129 0 0 0 28.424-42.108 128.2 128.2 0 0 0 9.894-49.726h1.61a129.8 129.8 0 0 1-10.015 50.338 130.6 130.6 0 0 1-28.776 42.625 131.6 131.6 0 0 1-42.94 28.564A132.4 132.4 0 0 1 0 344.467v-1.598a130.8 130.8 0 0 0 50.095-9.821 130.1 130.1 0 0 0 42.42-28.215m15.509 15.395a150.6 150.6 0 0 0 33.197-49.165 149.7 149.7 0 0 0 11.552-58.064h1.61a151.2 151.2 0 0 1-11.675 58.676 152.2 152.2 0 0 1-33.546 49.683 153.4 153.4 0 0 1-50.05 33.299A154.4 154.4 0 0 1 0 366.246v-1.599a152.7 152.7 0 0 0 58.495-11.467 151.8 151.8 0 0 0 49.529-32.952m15.516 15.402a172.2 172.2 0 0 0 37.962-56.227 171.2 171.2 0 0 0 13.21-66.404h1.61a172.8 172.8 0 0 1-13.334 67.015 173.8 173.8 0 0 1-38.31 56.745 175.3 175.3 0 0 1-57.166 38.028A176.3 176.3 0 0 1 0 388.023v-1.598a174.7 174.7 0 0 0 66.896-13.114 173.7 173.7 0 0 0 56.644-37.681m-7.758-7.701a161.4 161.4 0 0 0 35.576-52.697 160.4 160.4 0 0 0 12.381-62.233h1.61a162 162 0 0 1-12.501 62.846 163 163 0 0 1-35.928 53.214 164.3 164.3 0 0 1-53.608 35.662A165.3 165.3 0 0 1 0 377.131v-1.598a163.7 163.7 0 0 0 62.695-12.29 162.7 162.7 0 0 0 53.087-35.314m15.516 15.401a183 183 0 0 0 40.342-59.759 181.9 181.9 0 0 0 14.038-70.572h1.61a183.5 183.5 0 0 1-14.162 71.184 184.7 184.7 0 0 1-40.691 60.277 186.2 186.2 0 0 1-60.723 40.392A187.3 187.3 0 0 1 0 398.909v-1.598a185.7 185.7 0 0 0 71.096-13.936 184.6 184.6 0 0 0 60.202-40.045"/>
      <path fill="#DC477D" d="M227.999 333.575H228v-1.597h-.001c-20.57.024-40.292 8.147-54.837 22.586s-22.726 34.016-22.749 54.435h1.61c.022-19.996 8.033-39.166 22.277-53.306 14.243-14.14 33.555-22.094 53.699-22.118m-54.037 75.424h-1.61c.016-14.646 5.884-28.687 16.316-39.043 10.432-10.357 24.577-16.183 39.331-16.2H228v1.597h-.001c-14.327.017-28.063 5.675-38.193 15.732-10.131 10.057-15.829 23.692-15.844 37.914m-10.973 0h-1.61c.02-17.533 7.046-34.341 19.535-46.739s29.423-19.371 47.085-19.391H228v1.598h-.001c-17.235.02-33.76 6.825-45.947 18.923s-19.043 28.5-19.063 45.609m-21.939 0h-1.61c.027-23.306 9.365-45.651 25.968-62.131 16.602-16.48 39.112-25.75 62.591-25.777H228v1.599h-.001c-23.052.026-45.153 9.127-61.453 25.308s-25.47 38.118-25.496 61.001m43.878 0h-1.61c.014-11.759 4.726-23.032 13.102-31.347 8.376-8.314 19.733-12.991 31.579-13.005H228v1.599h-.001c-11.419.012-22.366 4.521-30.441 12.536s-12.617 18.882-12.63 30.217m10.973 0h-1.61a33.38 33.38 0 0 1 9.883-23.652 33.88 33.88 0 0 1 23.825-9.814H228v1.598h-.001a32.25 32.25 0 0 0-22.687 9.346 31.78 31.78 0 0 0-9.411 22.522m21.939 0h-1.609a11.66 11.66 0 0 1 3.449-8.259 11.83 11.83 0 0 1 8.319-3.429H228v1.598h-.001a10.22 10.22 0 0 0-7.181 2.96 10.06 10.06 0 0 0-2.978 7.13m-10.972 0h-1.61a22.52 22.52 0 0 1 6.668-15.955 22.86 22.86 0 0 1 16.073-6.619H228v1.598h-.001a21.24 21.24 0 0 0-14.935 6.151 20.93 20.93 0 0 0-6.196 14.825"/>
    </g>
    <g clip-path="url(#d)">
      <path fill="#DC477D" d="M226.001 322.684H226v-1.598h.001c23.48.027 45.992 9.297 62.595 25.778 16.603 16.482 25.943 38.827 25.969 62.135h-1.61c-.026-22.884-9.195-44.823-25.497-61.005-16.301-16.181-38.403-25.284-61.457-25.31m65.015 86.315h1.61c-.02-17.534-7.046-34.344-19.536-46.743-12.49-12.398-29.425-19.373-47.089-19.393H226v1.599h.001c17.237.019 33.763 6.825 45.951 18.924s19.045 28.503 19.064 45.613m10.967 0h1.61c-.024-20.42-8.206-39.997-22.752-54.436s-34.269-22.562-54.84-22.585H226v1.598h.001c20.144.023 39.458 7.976 53.702 22.116s22.257 33.311 22.28 53.307m-21.939 0h1.61c-.017-14.646-5.886-28.688-16.319-39.044-10.434-10.357-24.579-16.183-39.334-16.199H226v1.598h.001c14.328.016 28.065 5.673 38.196 15.73 10.132 10.057 15.83 23.692 15.847 37.915m-43.879 0h1.61a11.66 11.66 0 0 0-3.452-8.261 11.84 11.84 0 0 0-8.322-3.427H226v1.598h.001a10.2 10.2 0 0 1 7.184 2.959 10.06 10.06 0 0 1 2.98 7.131m32.912 0h1.609c-.013-11.76-4.725-23.035-13.102-31.35s-19.736-12.994-31.583-13.007H226v1.598h.001c11.42.013 22.369 4.522 30.445 12.538a42.65 42.65 0 0 1 12.631 30.221m-10.973 0h1.61a33.38 33.38 0 0 0-9.885-23.652 33.88 33.88 0 0 0-23.828-9.813H226v1.597h.001a32.26 32.26 0 0 1 22.69 9.345 31.78 31.78 0 0 1 9.413 22.523m-10.966 0h1.609a22.52 22.52 0 0 0-6.67-15.959 22.86 22.86 0 0 0-16.076-6.621H226v1.598h.001a21.24 21.24 0 0 1 14.939 6.153 20.92 20.92 0 0 1 6.198 14.829"/>
      <path fill="#000" d="M226.001 300.906H226v-1.598h.001c29.297.033 57.385 11.601 78.101 32.165 20.717 20.563 32.369 48.444 32.402 77.526h-1.61c-.032-28.658-11.515-56.133-31.929-76.397-20.415-20.265-48.094-31.664-76.964-31.696m100.266 8.558a139.8 139.8 0 0 1 30.811 45.638 138.95 138.95 0 0 1 10.723 53.897h1.61a141.4 141.4 0 0 0-10.913-54.479 142.3 142.3 0 0 0-31.087-46.185 143.5 143.5 0 0 0-46.527-30.858 144.3 144.3 0 0 0-54.883-10.832H226v1.597h.001a141.8 141.8 0 0 1 54.293 10.642 140.9 140.9 0 0 1 45.973 30.58m19.595 99.535h1.609c-.037-31.968-12.846-62.615-35.618-85.22s-53.648-35.32-85.852-35.356H226v1.597h.001c31.778.036 62.244 12.583 84.714 34.888 22.471 22.305 35.111 52.547 35.147 84.091m-27.347-91.834a129 129 0 0 1 28.425 42.108 128.2 128.2 0 0 1 9.894 49.726h1.61c0-17.265-3.426-34.36-10.081-50.311a131.4 131.4 0 0 0-28.71-42.651 132.5 132.5 0 0 0-42.968-28.499 133.3 133.3 0 0 0-50.684-10.007H226v1.598h.001a130.8 130.8 0 0 1 50.095 9.821 130.1 130.1 0 0 1 42.419 28.215m15.509-15.395a150.6 150.6 0 0 1 33.197 49.165 149.7 149.7 0 0 1 11.552 58.064h1.61c-.002-40.642-16.268-79.62-45.22-108.358-28.952-28.739-68.218-44.886-109.162-44.889H226v1.599h.001a152.7 152.7 0 0 1 58.495 11.467 151.8 151.8 0 0 1 49.528 32.952m15.517-15.402a172.2 172.2 0 0 1 37.961 56.227 171.2 171.2 0 0 1 13.21 66.404h1.611c-.001-46.419-18.578-90.936-51.645-123.76-33.066-32.823-77.914-51.263-124.677-51.264H226v1.598h.001a174.7 174.7 0 0 1 66.895 13.114 173.7 173.7 0 0 1 56.645 37.681m-7.758 7.701a161.4 161.4 0 0 1 35.576 52.697 160.5 160.5 0 0 1 12.381 62.233h1.61a163.1 163.1 0 0 0-12.586-62.811 164.1 164.1 0 0 0-35.843-53.248 165.4 165.4 0 0 0-53.643-35.58 166.4 166.4 0 0 0-63.277-12.493H226v1.598h.001a163.7 163.7 0 0 1 62.694 12.29 162.8 162.8 0 0 1 53.088 35.314m15.515-15.401a183 183 0 0 1 40.342 59.759 181.9 181.9 0 0 1 14.039 70.572h1.61a184.7 184.7 0 0 0-14.254-71.146 185.8 185.8 0 0 0-40.599-60.314 187.4 187.4 0 0 0-60.762-40.3 188.5 188.5 0 0 0-71.673-14.15H226v1.598h.001a185.7 185.7 0 0 1 71.096 13.936 184.6 184.6 0 0 1 60.201 40.045"/>
    </g>
    <g clip-path="url(#e)">
      <path fill="#DC477D" d="M228 419.192v1.614a11.77 11.77 0 0 1-8.32-3.463 11.83 11.83 0 0 1-3.449-8.344h1.61a10.2 10.2 0 0 0 2.978 7.203 10.16 10.16 0 0 0 7.181 2.99m-21.132-10.193h-1.61a22.87 22.87 0 0 0 6.668 16.118A22.74 22.74 0 0 0 228 431.804v-1.615a21.13 21.13 0 0 1-14.935-6.214 21.24 21.24 0 0 1-6.197-14.976m-21.939 0h-1.61a44.92 44.92 0 0 0 13.101 31.667A44.67 44.67 0 0 0 228 453.803v-1.614a43.06 43.06 0 0 1-30.441-12.665 43.3 43.3 0 0 1-12.63-30.525m10.973 0h-1.61a33.9 33.9 0 0 0 9.882 23.893A33.7 33.7 0 0 0 228 442.806v-1.614a32.1 32.1 0 0 1-22.688-9.441 32.27 32.27 0 0 1-9.41-22.752"/>
    </g>
    <g clip-path="url(#f)">
      <path fill="#DC477D" d="M314.56 408.999h-1.611a87.4 87.4 0 0 1-25.495 61.624A86.93 86.93 0 0 1 226 496.189v1.615a88.54 88.54 0 0 0 62.592-26.04c16.602-16.648 25.941-39.221 25.968-62.765M226 420.806v-1.614a10.16 10.16 0 0 0 7.181-2.99 10.2 10.2 0 0 0 2.977-7.203h1.611a11.83 11.83 0 0 1-3.45 8.344 11.77 11.77 0 0 1-8.319 3.463m0 22v-1.614a32.1 32.1 0 0 0 22.688-9.441 32.27 32.27 0 0 0 9.411-22.752h1.609a33.9 33.9 0 0 1-9.882 23.893A33.7 33.7 0 0 1 226 442.806m0 32.998v-1.615a65 65 0 0 0 45.948-19.115 65.36 65.36 0 0 0 19.062-46.075h1.61a66.97 66.97 0 0 1-19.534 47.216A66.6 66.6 0 0 1 226 475.804m0 11.002v-1.613a75.96 75.96 0 0 0 53.7-22.344 76.38 76.38 0 0 0 22.277-53.85h1.61a78 78 0 0 1-22.749 54.991A77.57 77.57 0 0 1 226 486.806m0-22v-1.614a54.02 54.02 0 0 0 38.194-15.892 54.33 54.33 0 0 0 15.844-38.301h1.609a55.95 55.95 0 0 1-16.315 39.442A55.64 55.64 0 0 1 226 464.806m0-11.003v-1.614a43.06 43.06 0 0 0 30.442-12.665 43.3 43.3 0 0 0 12.629-30.525h1.61a44.92 44.92 0 0 1-13.101 31.667A44.67 44.67 0 0 1 226 453.803m0-21.999v-1.615a21.13 21.13 0 0 0 14.936-6.214 21.24 21.24 0 0 0 6.196-14.976h1.609a22.86 22.86 0 0 1-6.668 16.118A22.74 22.74 0 0 1 226 431.804"/>
    </g>
  </g>
  <defs>
    <clipPath id="b">
      <path fill="#fff" d="M228 15H0v198h228z"/>
    </clipPath>
    <clipPath id="c">
      <path fill="#fff" d="M228 212.999H0v196h228z"/>
    </clipPath>
    <clipPath id="d">
      <path fill="#fff" d="M454 212.999H226v196h228z"/>
    </clipPath>
    <clipPath id="e">
      <path fill="#fff" d="M228 408.999H0v198h228z"/>
    </clipPath>
    <clipPath id="f">
      <path fill="#fff" d="M454 408.999H226v198h228z"/>
    </clipPath>
  </defs>
</svg>
