<svg xmlns="http://www.w3.org/2000/svg" fill="none" stroke-linecap="square" stroke-miterlimit="10" viewBox="0 0 960 540">
  <clipPath id="a">
    <path d="M0 0h960v540H0z"/>
  </clipPath>
  <g clip-path="url(#a)">
    <path fill="#fff" fill-rule="evenodd" d="M0 0h960v540H0z"/>
    <path fill="#fff" fill-rule="evenodd" d="M561.69 196.504a8.97 8.97 0 0 1 8.971-8.971h269.05a8.97 8.97 0 0 1 8.97 8.971v324.672a8.97 8.97 0 0 1-8.97 8.971H570.66a8.97 8.97 0 0 1-8.971-8.971z"/>
    <path stroke="#d6d6d6" stroke-linecap="butt" stroke-linejoin="round" d="M561.69 196.504a8.97 8.97 0 0 1 8.971-8.971h269.05a8.97 8.97 0 0 1 8.97 8.971v324.672a8.97 8.97 0 0 1-8.97 8.971H570.66a8.97 8.97 0 0 1-8.971-8.971z"/>
    <path fill="#fff" fill-rule="evenodd" d="M116.41 196.504a8.97 8.97 0 0 1 8.972-8.971h269.05a8.97 8.97 0 0 1 8.971 8.971v324.672a8.97 8.97 0 0 1-8.971 8.971h-269.05a8.97 8.97 0 0 1-8.971-8.971z"/>
    <path stroke="#d6d6d6" stroke-linecap="butt" stroke-linejoin="round" d="M116.41 196.504a8.97 8.97 0 0 1 8.972-8.971h269.05a8.97 8.97 0 0 1 8.971 8.971v324.672a8.97 8.97 0 0 1-8.971 8.971h-269.05a8.97 8.97 0 0 1-8.971-8.971z"/>
    <path fill="#e03875" fill-rule="evenodd" d="M432.14 51.027c0-22.74 18.434-41.175 41.175-41.175a41.175 41.175 0 0 1 41.175 41.175c0 22.741-18.435 41.176-41.175 41.176s-41.176-18.435-41.176-41.176"/>
    <path fill="#fff" fill-rule="evenodd" d="M473.485 67.83c-9.25.009-16.757-7.509-16.764-16.789-.008-9.28 7.486-16.81 16.737-16.817a16.72 16.72 0 0 1 11.36 4.442l-3.976 4.172c-4.51-4.09-11.471-3.736-15.548.789-4.076 4.525-3.723 11.508.787 15.597 4.192 3.8 10.57 3.8 14.761 0l3.975 4.171a16.66 16.66 0 0 1-11.332 4.436m13.479-8.405a1.375 1.375 0 0 1-1.373-1.377c0-.76.615-1.377 1.373-1.377s1.373.616 1.373 1.377a1.38 1.38 0 0 1-1.373 1.377"/>
    <path fill="#fff" fill-rule="evenodd" d="M473.378 54.669a3.63 3.63 0 0 1-3.626-3.638 3.63 3.63 0 0 1 3.626-3.638 3.63 3.63 0 0 1 3.627 3.638 3.635 3.635 0 0 1-3.627 3.638m15.158.051a1.375 1.375 0 0 1-1.373-1.376c0-.761.614-1.378 1.373-1.378a1.378 1.378 0 0 1 0 2.755m-4.079-.157a1.375 1.375 0 0 1-1.373-1.377c0-.76.614-1.377 1.373-1.377.758 0 1.373.616 1.373 1.377 0 .76-.615 1.377-1.373 1.377m4.079-4.472a1.375 1.375 0 0 1-1.373-1.377c0-.76.614-1.377 1.373-1.377a1.378 1.378 0 0 1 0 2.755m-4.079.155a1.375 1.375 0 0 1-1.373-1.377c0-.76.614-1.377 1.373-1.377.758 0 1.373.617 1.373 1.377v.003a1.375 1.375 0 0 1-1.373 1.374m2.587-4.788a1.375 1.375 0 0 1-1.377-1.374 1.375 1.375 0 0 1 1.37-1.38 1.375 1.375 0 0 1 1.376 1.374v.003c0 .76-.612 1.376-1.37 1.377m132.411 181.17a1.58 1.58 0 0 1 1.579-1.579h53.682a1.58 1.58 0 0 1 1.579 1.58v53.681a1.58 1.58 0 0 1-1.58 1.58h-53.681a1.58 1.58 0 0 1-1.58-1.58z"/>
    <path stroke="#e03875" stroke-linecap="butt" stroke-miterlimit="400" d="M619.454 226.63a1.58 1.58 0 0 1 1.579-1.579h53.682a1.58 1.58 0 0 1 1.579 1.58v53.681a1.58 1.58 0 0 1-1.58 1.58h-53.681a1.58 1.58 0 0 1-1.58-1.58z"/>
    <path fill="#e03875" fill-rule="evenodd" d="M661.745 270.388a4.156 4.156 0 0 1 8.312 0 4.156 4.156 0 1 1-8.312 0"/>
    <path d="M659.039 444.363H770.66"/>
    <path stroke="#e03875" stroke-linecap="butt" stroke-miterlimit="400" stroke-width="2" d="M659.039 444.363H770.66"/>
    <path fill="#fff" fill-rule="evenodd" d="M270.336 226.63a1.58 1.58 0 0 1 1.58-1.579h53.681a1.58 1.58 0 0 1 1.58 1.58v53.681a1.58 1.58 0 0 1-1.58 1.58h-53.682a1.58 1.58 0 0 1-1.579-1.58z"/>
    <path stroke="#e03875" stroke-linecap="butt" stroke-miterlimit="400" d="M270.336 226.63a1.58 1.58 0 0 1 1.58-1.579h53.681a1.58 1.58 0 0 1 1.58 1.58v53.681a1.58 1.58 0 0 1-1.58 1.58h-53.682a1.58 1.58 0 0 1-1.579-1.58z"/>
    <path fill="#e03875" fill-rule="evenodd" d="M312.627 270.388a4.156 4.156 0 0 1 8.312 0 4.156 4.156 0 0 1-8.312 0"/>
    <path fill="#fff" fill-rule="evenodd" d="M603.215 402.803a2.79 2.79 0 0 1 2.79-2.79h83.68a2.79 2.79 0 0 1 2.79 2.79v83.68a2.79 2.79 0 0 1-2.79 2.79h-83.68a2.79 2.79 0 0 1-2.79-2.79z"/>
    <path stroke="#e03875" stroke-linecap="butt" stroke-linejoin="round" d="M603.215 402.803a2.79 2.79 0 0 1 2.79-2.79h83.68a2.79 2.79 0 0 1 2.79 2.79v83.68a2.79 2.79 0 0 1-2.79 2.79h-83.68a2.79 2.79 0 0 1-2.79-2.79z"/>
    <path d="M189.749 443.592h111.622"/>
    <path stroke="#e03875" stroke-linecap="butt" stroke-miterlimit="400" stroke-width="2" d="M189.749 443.592h111.622"/>
    <path d="M514.453 50.923h134.695v174.11"/>
    <path stroke="#dc477d" stroke-dasharray="4 3" stroke-linecap="butt" stroke-linejoin="round" d="M514.453 50.923h134.695v174.11"/>
    <path d="M432.104 50.923h-129.4v174.11"/>
    <path stroke="#dc477d" stroke-dasharray="4 3" stroke-linecap="butt" stroke-linejoin="round" d="M432.104 50.923h-129.4v174.11"/>
    <path fill="#fff" fill-rule="evenodd" d="M262.942 105.132c0-.511.415-.926.926-.926h69.645a.925.925 0 0 1 .925.926v27.755a.925.925 0 0 1-.925.926h-69.645a.925.925 0 0 1-.926-.926z"/>
    <path stroke="#e03875" stroke-linecap="butt" stroke-linejoin="round" d="M262.942 105.132c0-.511.415-.926.926-.926h69.645a.925.925 0 0 1 .925.926v27.755a.925.925 0 0 1-.925.926h-69.645a.925.925 0 0 1-.926-.926z"/>
    <path fill="#fff" fill-rule="evenodd" d="M254.097 402.803a2.79 2.79 0 0 1 2.79-2.79h83.68a2.79 2.79 0 0 1 2.79 2.79v83.68a2.79 2.79 0 0 1-2.79 2.79h-83.68a2.79 2.79 0 0 1-2.79-2.79z"/>
    <path stroke="#e03875" stroke-linecap="butt" stroke-linejoin="round" d="M254.097 402.803a2.79 2.79 0 0 1 2.79-2.79h83.68a2.79 2.79 0 0 1 2.79 2.79v83.68a2.79 2.79 0 0 1-2.79 2.79h-83.68a2.79 2.79 0 0 1-2.79-2.79z"/>
    <path fill="#e03875" fill-rule="evenodd" d="M467.498 443.853c0-14.812 12.007-26.819 26.819-26.819h.031a26.82 26.82 0 0 1 26.82 26.819c0 14.812-12.008 26.819-26.82 26.819h-.031c-14.812 0-26.819-12.007-26.819-26.819"/>
    <path stroke="#fff" stroke-linecap="butt" stroke-miterlimit="400" stroke-opacity=".478" stroke-width="3" d="M467.498 443.853c0-14.812 12.007-26.819 26.819-26.819h.031a26.82 26.82 0 0 1 26.82 26.819c0 14.812-12.008 26.819-26.82 26.819h-.031c-14.812 0-26.819-12.007-26.819-26.819z"/>
    <path d="M417.198 92.185h112.157v54.93H417.198z"/>
    <path fill="#dc477d" d="M447.885 104.547q1.781 0 3.031 1.015 1.266 1 1.485 2.75h-2.235q-.14-.812-.812-1.312-.672-.516-1.469-.516-1.36 0-2.11.984-.734.985-.734 2.61 0 1.547.735 2.531.75.969 2.109.969 1 0 1.61-.61.609-.609.765-1.734h2.234q-.203 2-1.453 3.14t-3.156 1.141q-1.516 0-2.687-.687-1.172-.688-1.813-1.953-.64-1.266-.64-2.797 0-2.406 1.406-3.969t3.734-1.562m10.863 0q2.329 0 3.735 1.578 1.406 1.562 1.406 3.953 0 2.344-1.422 3.89-1.406 1.547-3.719 1.547-1.515 0-2.687-.687-1.172-.703-1.813-1.953-.64-1.266-.64-2.797 0-2.422 1.406-3.969 1.422-1.562 3.734-1.562m-2.843 5.53q0 1.548.734 2.532.75.969 2.11.969t2.093-.953q.75-.969.75-2.547 0-1.656-.765-2.625-.75-.969-2.094-.969t-2.094.984q-.734.985-.734 2.61m11.837-5.28 4.375 7.03h.016v-7.03h2.156v10.468h-2.297l-4.36-7h-.03v7h-2.141v-10.468zm12.176-.25q1.906 0 3.047.89 1.14.875 1.14 2.485h-2.218q-.047-.782-.547-1.172-.484-.407-1.516-.407-.687 0-1.14.313-.453.297-.453.875 0 .39.187.594.188.187.766.406.578.203 2.515.656 1.297.313 2.032 1.063.734.75.734 1.906 0 1.516-1.14 2.437-1.141.922-3.204.922-1.984 0-3.234-.968-1.235-.985-1.235-2.688v-.062h2.22q.015.968.655 1.453.641.484 1.672.484.922 0 1.47-.344.562-.343.562-.968 0-.5-.422-.829t-1.36-.562q-1.203-.281-2.187-.578-.985-.297-1.625-.985t-.64-1.75q0-1.406 1.124-2.28 1.14-.891 2.797-.891m8.167.25v6.578q0 1.125.516 1.672.531.53 1.64.53 1.204 0 1.688-.515.484-.531.484-1.687v-6.578h2.297v6.578q0 1.953-1.14 3.047-1.125 1.093-3.329 1.093-2.203 0-3.328-1.078t-1.125-3.062v-6.578zm10.91 0v8.53h5.11v1.938h-7.406v-10.468zm-50.561 17.349q1.906 0 3.047.89 1.14.875 1.14 2.485h-2.219q-.046-.782-.546-1.172-.485-.407-1.516-.407-.688 0-1.14.313-.454.297-.454.875 0 .39.188.594.187.187.765.406.578.203 2.516.656 1.297.313 2.031 1.063t.735 1.906q0 1.516-1.141 2.437-1.14.922-3.203.922-1.985 0-3.235-.968-1.234-.985-1.234-2.688v-.062h2.219q.015.968.656 1.453.64.484 1.672.484.922 0 1.469-.344.562-.343.562-.968 0-.5-.422-.829t-1.36-.562q-1.202-.281-2.187-.578t-1.625-.985-.64-1.75q0-1.406 1.125-2.28 1.14-.891 2.797-.891m13.745.25v1.937h-5.531v2.234h5.062v1.797h-5.062v2.563h5.64v1.937h-7.937v-10.468zm7.371 0q1.266 0 2.125.828.875.812.875 2.062 0 1-.422 1.656-.406.641-1.234.97v.03q.734.188 1.125.875.39.688.438 2.11.015 1.422.406 1.937h-2.313q-.203-.515-.265-1.64-.11-1.547-.532-2-.406-.453-1.25-.453h-2.359v4.093h-2.297v-10.468zm-.843 4.734q.734 0 1.125-.344.406-.36.406-1.156 0-.734-.39-1.078-.376-.36-1.141-.36h-2.563v2.938zm6.959-4.734 2.344 7.359h.015l2.375-7.36h2.375l-3.484 10.47h-2.594l-3.39-10.47zm15.825 0v1.937h-5.53v2.234h5.062v1.797h-5.063v2.563h5.64v1.937h-7.937v-10.468zm7.372 0q1.265 0 2.125.828.875.812.875 2.062 0 1-.422 1.656-.406.641-1.234.97v.03q.734.188 1.125.875.39.688.437 2.11.016 1.422.406 1.937h-2.312q-.203-.515-.266-1.64-.11-1.547-.531-2-.406-.453-1.25-.453h-2.36v4.093h-2.296v-10.468zm-.844 4.734q.734 0 1.125-.344.406-.36.406-1.156 0-.734-.39-1.078-.375-.36-1.14-.36h-2.563v2.938z"/>
    <path fill="#fff" fill-rule="evenodd" d="M612.112 105.132c0-.511.415-.926.926-.926h69.645a.925.925 0 0 1 .925.926v27.755a.925.925 0 0 1-.925.926h-69.645a.925.925 0 0 1-.926-.926z"/>
    <path stroke="#e03875" stroke-linecap="butt" stroke-linejoin="round" d="M612.112 105.132c0-.511.415-.926.926-.926h69.645a.925.925 0 0 1 .925.926v27.755a.925.925 0 0 1-.925.926h-69.645a.925.925 0 0 1-.926-.926z"/>
    <path d="M666.87 101.537h155.4v37.165H666.869z"/>
    <path fill="#4e515d" d="M703.109 114.148v10.469h-2.297v-10.469zm4.307 0 4.375 7.031h.015v-7.03h2.156v10.468h-2.296l-4.36-7h-.031v7h-2.14v-10.469zm16.332 0v1.938h-3.14v8.53h-2.298v-8.53h-3.14v-1.938zm9.03 0v1.938h-5.53v2.234h5.062v1.797h-5.063v2.562h5.64v1.938h-7.937v-10.469zm3.95 0 4.375 7.031h.016v-7.03h2.156v10.468h-2.297l-4.36-7h-.03v7h-2.141v-10.469zm16.332 0v1.938h-3.14v8.53h-2.297v-8.53h-3.14v-1.938zm3.5 0v10.469h-2.297v-10.469zm6.713-.25q2.328 0 3.734 1.578 1.406 1.563 1.406 3.953 0 2.344-1.421 3.891-1.407 1.547-3.72 1.547-1.515 0-2.687-.688-1.172-.703-1.812-1.953-.64-1.265-.64-2.797 0-2.421 1.405-3.968 1.422-1.563 3.735-1.563m-2.844 5.531q0 1.547.734 2.532.75.968 2.11.968t2.094-.953q.75-.968.75-2.547 0-1.656-.766-2.625-.75-.968-2.094-.968t-2.094.984q-.734.984-.734 2.61m11.838-5.28 4.375 7.03h.015v-7.03h2.157v10.468h-2.297l-4.36-7h-.031v7h-2.14v-10.469zm12.176-.25q1.906 0 3.046.89 1.141.875 1.141 2.484h-2.219q-.047-.781-.547-1.172-.484-.406-1.515-.406-.688 0-1.14.313-.454.296-.454.875 0 .39.188.593.187.188.765.407.578.203 2.516.656 1.297.312 2.031 1.062t.734 1.907q0 1.515-1.14 2.437t-3.203.922q-1.985 0-3.235-.969-1.234-.984-1.234-2.687v-.063h2.219q.015.969.656 1.453.64.485 1.672.485.922 0 1.469-.344.562-.344.562-.969 0-.5-.422-.828t-1.36-.562q-1.202-.282-2.187-.579-.984-.296-1.625-.984-.64-.687-.64-1.75 0-1.406 1.125-2.281 1.14-.89 2.797-.89"/>
    <path d="M127.416 101.537h155.402v37.165H127.416z"/>
    <path fill="#4e515d" d="M163.656 114.148v10.469h-2.297v-10.469zm4.307 0 4.375 7.031h.015v-7.03h2.156v10.468h-2.296l-4.36-7h-.031v7h-2.14v-10.469zm16.332 0v1.938h-3.14v8.53h-2.298v-8.53h-3.14v-1.938zm9.03 0v1.938h-5.53v2.234h5.062v1.797h-5.063v2.562h5.64v1.938h-7.937v-10.469zm3.95 0 4.375 7.031h.016v-7.03h2.156v10.468h-2.297l-4.36-7h-.03v7h-2.141v-10.469zm16.332 0v1.938h-3.14v8.53h-2.297v-8.53h-3.14v-1.938zm3.5 0v10.469h-2.297v-10.469zm6.713-.25q2.328 0 3.734 1.578 1.406 1.563 1.406 3.953 0 2.344-1.421 3.891-1.407 1.547-3.72 1.547-1.515 0-2.687-.688-1.172-.703-1.812-1.953-.64-1.265-.64-2.797 0-2.421 1.405-3.968 1.422-1.563 3.735-1.563m-2.844 5.531q0 1.547.734 2.532.75.968 2.11.968t2.094-.953q.75-.968.75-2.547 0-1.656-.766-2.625-.75-.968-2.094-.968t-2.094.984q-.734.984-.734 2.61m11.838-5.28 4.375 7.03h.015v-7.03h2.157v10.468h-2.297l-4.36-7h-.031v7h-2.14v-10.469zm12.176-.25q1.906 0 3.046.89 1.141.875 1.141 2.484h-2.219q-.047-.781-.547-1.172-.484-.406-1.515-.406-.688 0-1.14.313-.454.296-.454.875 0 .39.188.593.187.188.765.407.578.203 2.516.656 1.297.312 2.031 1.062t.734 1.907q0 1.515-1.14 2.437t-3.203.922q-1.985 0-3.235-.969-1.234-.984-1.234-2.687v-.063h2.219q.015.969.656 1.453.64.485 1.672.485.922 0 1.469-.344.562-.344.562-.969 0-.5-.422-.828t-1.36-.562q-1.202-.282-2.187-.579-.984-.296-1.625-.984-.64-.687-.64-1.75 0-1.406 1.125-2.281 1.14-.89 2.797-.89"/>
    <path fill="#e03875" fill-rule="evenodd" d="M280.54 129.087a.853.853 0 0 1-.849-.85c0-.473.377-.85.85-.85h28.416c.46 0 .85.377.85.85s-.377.85-.85.85zm0-9.216a.853.853 0 0 1-.849-.85c0-.473.377-.85.85-.85h28.416c.46 0 .85.377.85.85 0 .474-.377.85-.85.85zm0-9.216a.853.853 0 0 1-.849-.85c0-.473.377-.85.85-.85h28.416c.46 0 .85.377.85.85 0 .474-.377.85-.85.85zm344.346 18.432a.853.853 0 0 1-.849-.85c0-.473.377-.85.85-.85h28.416c.46 0 .85.377.85.85s-.377.85-.85.85zm0-9.216a.853.853 0 0 1-.849-.85c0-.473.377-.85.85-.85h28.416c.46 0 .85.377.85.85 0 .474-.377.85-.85.85zm0-9.216a.853.853 0 0 1-.849-.85c0-.473.377-.85.85-.85h28.416c.46 0 .85.377.85.85 0 .474-.377.85-.85.85z"/>
    <path fill="#dc477d" fill-rule="evenodd" d="M659.037 112.972c0-.77.624-1.395 1.395-1.395h30.69a1.395 1.395 0 0 1 1.395 1.395v30.69c0 .77-.625 1.395-1.395 1.395h-30.69c-.77 0-1.395-.624-1.395-1.395zm-343.822 0c0-.77.625-1.395 1.395-1.395h30.69a1.395 1.395 0 0 1 1.395 1.395v30.69c0 .77-.624 1.395-1.395 1.395h-30.69c-.77 0-1.395-.624-1.395-1.395z"/>
    <path d="M228.827 276.68h139.842v35.56H228.827z"/>
    <path fill="#dc477d" d="M249.624 288.73q1.625 0 2.766.923 1.14.922 1.328 2.515h-2.016q-.14-.75-.75-1.203-.594-.469-1.328-.469-1.234 0-1.922.891-.672.89-.672 2.375 0 1.406.672 2.297.672.89 1.922.89.906 0 1.453-.562.563-.562.703-1.562h2.032q-.188 1.812-1.329 2.859-1.125 1.031-2.859 1.031-1.375 0-2.453-.625-1.063-.64-1.656-1.781-.578-1.14-.578-2.547 0-2.187 1.28-3.61 1.298-1.421 3.407-1.421m9.879 0q2.125 0 3.39 1.438 1.282 1.422 1.282 3.594 0 2.125-1.281 3.547-1.282 1.406-3.391 1.406-1.375 0-2.453-.625-1.063-.64-1.656-1.781-.579-1.14-.579-2.547 0-2.203 1.282-3.61 1.297-1.421 3.406-1.421m-2.594 5.032q0 1.406.672 2.297.672.89 1.922.89 1.234 0 1.906-.874.672-.875.672-2.313 0-1.5-.687-2.375-.688-.89-1.907-.89-1.218 0-1.906.89-.672.89-.672 2.375m10.774-4.797 3.968 6.39h.032v-6.39h1.953v9.516h-2.094l-3.953-6.375h-.031v6.375h-1.954v-9.516zm11.082-.234q1.718 0 2.75.812 1.046.797 1.046 2.266h-2.015q-.047-.719-.5-1.078-.438-.36-1.375-.36-.64 0-1.047.282-.406.265-.406.797 0 .359.172.53.171.173.687.376.531.187 2.297.594 1.187.296 1.844.984.672.672.672 1.719 0 1.39-1.047 2.234-1.032.828-2.907.828-1.796 0-2.937-.89-1.125-.891-1.125-2.454v-.046h2.031q0 .89.578 1.328.578.422 1.516.422.86 0 1.36-.297.5-.313.5-.875 0-.469-.391-.766-.375-.297-1.235-.516-1.093-.234-1.984-.515-.89-.281-1.484-.89-.579-.626-.579-1.595 0-1.28 1.032-2.078 1.031-.812 2.547-.812m7.414.234v5.969q0 1.031.469 1.531.484.485 1.5.485 1.094 0 1.531-.485.438-.484.438-1.515v-5.985h2.093v5.985q0 1.765-1.03 2.765-1.032 1-3.032 1-2.016 0-3.047-.984-1.016-.985-1.016-2.781v-5.985zm9.926 0v7.766h4.64v1.75h-6.734v-9.516zm13.775-.234q1.625 0 2.766.922 1.14.922 1.328 2.515h-2.015q-.141-.75-.75-1.203-.594-.469-1.329-.469-1.234 0-1.921.891-.672.89-.672 2.375 0 1.406.672 2.297.671.89 1.921.89.907 0 1.454-.562.562-.562.703-1.562h2.031q-.188 1.812-1.328 2.859-1.125 1.031-2.86 1.031-1.375 0-2.453-.625-1.062-.64-1.656-1.781-.578-1.14-.578-2.547 0-2.187 1.281-3.61 1.297-1.421 3.406-1.421m7.708.234v7.766h4.64v1.75h-6.734v-9.516zm7.9 0v9.516h-2.094v-9.516zm8.946 0v1.766h-5.015v2.031h4.61v1.625h-4.61v2.344h5.125v1.75h-7.219v-9.516zm3.605 0 3.969 6.39h.031v-6.39h1.953v9.516H341.9l-3.954-6.375h-.03v6.375h-1.954v-9.516zm14.848 0v1.766h-2.86v7.75h-2.078v-7.75h-2.859v-1.766z"/>
    <path d="M580.487 278.317h134.71v35.56h-134.71z"/>
    <path fill="#dc477d" d="M598.718 290.367q1.625 0 2.765.922t1.328 2.516h-2.015q-.14-.75-.75-1.203-.594-.469-1.328-.469-1.235 0-1.922.89-.672.891-.672 2.376 0 1.406.672 2.296.672.891 1.922.891.906 0 1.453-.562.562-.563.703-1.563h2.031q-.187 1.813-1.328 2.86-1.125 1.03-2.86 1.03-1.374 0-2.452-.624-1.063-.64-1.657-1.782-.578-1.14-.578-2.546 0-2.188 1.281-3.61 1.297-1.422 3.407-1.422m9.879 0q2.125 0 3.39 1.438 1.282 1.422 1.282 3.594 0 2.125-1.282 3.546-1.281 1.407-3.39 1.407-1.375 0-2.453-.625-1.063-.64-1.657-1.782-.578-1.14-.578-2.546 0-2.204 1.281-3.61 1.297-1.422 3.407-1.422m-2.594 5.032q0 1.406.672 2.296.672.891 1.922.891 1.234 0 1.906-.875t.672-2.312q0-1.5-.688-2.375-.687-.891-1.906-.891t-1.906.89q-.672.891-.672 2.376m10.773-4.797 3.969 6.39h.031v-6.39h1.953v9.515h-2.093l-3.954-6.375h-.03v6.375h-1.954v-9.515zm11.082-.235q1.72 0 2.75.813 1.047.797 1.047 2.265h-2.015q-.047-.718-.5-1.078-.438-.359-1.375-.359-.641 0-1.047.281-.407.266-.407.797 0 .36.172.531t.688.375q.531.188 2.297.594 1.187.297 1.843.984.672.672.672 1.72 0 1.39-1.047 2.234-1.03.828-2.906.828-1.797 0-2.937-.89-1.125-.892-1.125-2.454v-.047h2.03q0 .89.58 1.328.577.422 1.515.422.86 0 1.36-.297.5-.312.5-.875 0-.469-.392-.765-.375-.297-1.234-.516-1.094-.234-1.984-.516-.89-.28-1.485-.89-.578-.625-.578-1.594 0-1.281 1.031-2.078 1.032-.813 2.547-.813m7.415.235v5.968q0 1.032.469 1.532.484.484 1.5.484 1.093 0 1.53-.484.438-.485.438-1.516v-5.984h2.094v5.984q0 1.766-1.031 2.766t-3.031 1q-2.016 0-3.047-.985-1.016-.984-1.016-2.78v-5.985zm9.926 0v7.765h4.64v1.75h-6.734v-9.515zm13.775-.235q1.625 0 2.766.922 1.14.922 1.328 2.516h-2.016q-.14-.75-.75-1.203-.593-.469-1.328-.469-1.234 0-1.922.89-.672.891-.672 2.376 0 1.406.672 2.296.672.891 1.922.891.906 0 1.453-.562.563-.563.703-1.563h2.032q-.188 1.813-1.328 2.86-1.125 1.03-2.86 1.03-1.375 0-2.453-.624-1.062-.64-1.656-1.782-.578-1.14-.578-2.546 0-2.188 1.28-3.61 1.298-1.422 3.407-1.422m7.707.235v7.765h4.64v1.75h-6.734v-9.515zm7.9 0v9.515h-2.093v-9.515zm8.947 0v1.765h-5.015v2.032h4.609v1.625h-4.61v2.343h5.126v1.75h-7.22v-9.515zm3.605 0 3.969 6.39h.03v-6.39h1.954v9.515h-2.094l-3.953-6.375h-.031v6.375h-1.953v-9.515zm14.848 0v1.765h-2.86v7.75h-2.078v-7.75h-2.86v-1.765z"/>
    <path d="M343.357 444.643H603.2"/>
    <path stroke="#e03875" stroke-linecap="butt" stroke-miterlimit="400" stroke-width="2" d="M350.937 444.643H595.62"/>
    <path stroke="#e03875" stroke-linecap="butt" stroke-width="2" d="M344.357 444.643a3.29 3.29 0 1 1 6.58 0 3.29 3.29 0 0 1-6.58 0zm257.843 0a3.29 3.29 0 1 1-6.58 0 3.29 3.29 0 0 1 6.58 0z"/>
    <path d="M298.748 312.24v73.732"/>
    <path stroke="#e03875" stroke-linecap="butt" stroke-miterlimit="400" d="M298.748 312.24v67.732"/>
    <path fill="#e03875" fill-rule="evenodd" stroke="#e03875" stroke-linecap="butt" d="m297.096 379.972 1.652 4.538 1.652-4.538z"/>
    <path d="m647.842 313.876.031 72.126"/>
    <path stroke="#e03875" stroke-linecap="butt" stroke-miterlimit="400" d="m647.842 313.876.029 66.126"/>
    <path fill="#e03875" fill-rule="evenodd" stroke="#e03875" stroke-linecap="butt" d="m646.219 380.003 1.654 4.538 1.65-4.54z"/>
    <path d="M672.513 432.073H623.16"/>
    <path stroke="#e03875" stroke-linecap="butt" stroke-miterlimit="400" d="M672.513 432.073H629.16"/>
    <path fill="#e03875" fill-rule="evenodd" stroke="#e03875" stroke-linecap="butt" d="m629.16 430.422-4.54 1.651 4.54 1.652z"/>
    <path d="M623.17 457.246h49.354"/>
    <path stroke="#e03875" stroke-linecap="butt" stroke-miterlimit="400" d="M623.17 457.246h43.354"/>
    <path fill="#e03875" fill-rule="evenodd" stroke="#e03875" stroke-linecap="butt" d="m666.524 458.898 4.538-1.652-4.538-1.652z"/>
    <path d="M238.665 486.155h112.157v35.559H238.665z"/>
    <path fill="#dc477d" d="M276.834 498.44q1.485 0 2.344.843.875.828.875 2.203t-.875 2.219q-.86.844-2.344.844h-2.265v3.406h-2.094v-9.516zm-.578 4.484q.89 0 1.328-.344t.438-1.094q0-.719-.422-1.062-.422-.36-1.344-.36h-1.687v2.86zm10.296-4.485q1.14 0 1.938.75.796.735.796 1.875 0 .907-.375 1.5-.375.578-1.14.891v.016q.672.187 1.031.812.36.625.39 1.906.016 1.297.376 1.766h-2.11q-.172-.469-.234-1.5-.11-1.406-.484-1.813-.375-.406-1.141-.406h-2.14v3.719h-2.094v-9.516zm-.766 4.297q.657 0 1.016-.312.375-.313.375-1.047 0-.672-.36-.985-.343-.328-1.03-.328h-2.329v2.672zm9.47-4.531q2.124 0 3.39 1.437 1.281 1.422 1.281 3.594 0 2.125-1.281 3.547-1.281 1.406-3.39 1.406-1.376 0-2.454-.625-1.062-.64-1.656-1.78-.578-1.142-.578-2.548 0-2.203 1.281-3.61 1.297-1.421 3.406-1.421m-2.594 5.031q0 1.406.671 2.297.672.89 1.922.89 1.235 0 1.907-.874.671-.875.671-2.313 0-1.5-.687-2.375-.688-.89-1.906-.89-1.219 0-1.907.89-.671.89-.671 2.375m10.102-4.797 1.875 3.047 1.922-3.047h2.297l-3.047 4.547 3.313 4.969h-2.5l-2.063-3.297-2.125 3.297h-2.36l3.329-4.984-3.063-4.532zm8.515 0 2.234 3.75 2.204-3.75h2.328l-3.516 5.86v3.656h-2.094v-3.703l-3.5-5.813z"/>
    <path d="M591.783 486.155H703.94v35.559H591.783z"/>
    <path fill="#dc477d" d="M629.952 498.44q1.484 0 2.344.843.875.828.875 2.203t-.875 2.219q-.86.844-2.344.844h-2.266v3.406h-2.094v-9.516zm-.578 4.484q.89 0 1.328-.344.437-.344.437-1.094 0-.719-.422-1.062-.421-.36-1.343-.36h-1.688v2.86zm10.296-4.485q1.14 0 1.937.75.797.735.797 1.875 0 .907-.375 1.5-.375.578-1.14.891v.016q.671.187 1.03.812.36.625.391 1.906.016 1.297.375 1.766h-2.109q-.172-.469-.234-1.5-.11-1.406-.485-1.813-.375-.406-1.14-.406h-2.141v3.719h-2.094v-9.516zm-.766 4.297q.656 0 1.016-.312.375-.313.375-1.047 0-.672-.36-.985-.343-.328-1.03-.328h-2.329v2.672zm9.469-4.531q2.125 0 3.39 1.437 1.282 1.422 1.282 3.594 0 2.125-1.281 3.547-1.282 1.406-3.391 1.406-1.375 0-2.453-.625-1.063-.64-1.656-1.78-.579-1.142-.579-2.548 0-2.203 1.282-3.61 1.297-1.421 3.406-1.421m-2.594 5.031q0 1.406.672 2.297.672.89 1.922.89 1.234 0 1.906-.874.672-.875.672-2.313 0-1.5-.687-2.375-.688-.89-1.907-.89-1.218 0-1.906.89-.672.89-.672 2.375m10.103-4.797 1.875 3.047 1.922-3.047h2.297l-3.047 4.547 3.312 4.969h-2.5l-2.062-3.297-2.125 3.297h-2.36l3.329-4.984-3.063-4.532zm8.515 0 2.234 3.75 2.203-3.75h2.328l-3.515 5.86v3.656h-2.094v-3.703l-3.5-5.813z"/>
    <path d="M401.316 337.412h155.401v67.874H401.316z"/>
    <path fill="#4e515d" d="M438.945 349.462q1.625 0 2.766.922 1.14.921 1.328 2.515h-2.016q-.14-.75-.75-1.203-.594-.469-1.328-.469-1.234 0-1.922.891-.672.89-.672 2.375 0 1.406.672 2.297.672.89 1.922.89.906 0 1.453-.562.563-.563.703-1.563h2.031q-.187 1.813-1.328 2.86-1.125 1.031-2.859 1.031-1.375 0-2.453-.625-1.063-.64-1.656-1.781-.579-1.14-.579-2.547 0-2.188 1.282-3.61 1.297-1.421 3.406-1.421m9.879 0q2.125 0 3.39 1.437 1.282 1.422 1.282 3.594 0 2.125-1.281 3.547-1.282 1.406-3.391 1.406-1.375 0-2.453-.625-1.063-.64-1.656-1.781-.579-1.14-.579-2.547 0-2.203 1.282-3.61 1.297-1.421 3.406-1.421m-2.594 5.031q0 1.406.672 2.297.672.89 1.922.89 1.234 0 1.906-.875t.672-2.312q0-1.5-.687-2.375-.688-.89-1.907-.89-1.218 0-1.906.89-.672.89-.672 2.375m10.774-4.797 3.968 6.39h.032v-6.39h1.953v9.516h-2.094l-3.953-6.375h-.031v6.375h-1.954v-9.516zm9.878 0 3.97 6.39h.03v-6.39h1.954v9.516h-2.094l-3.953-6.375h-.032v6.375h-1.953v-9.516zm14.91 0v1.766h-5.015v2.031h4.61v1.625h-4.61v2.344h5.125v1.75h-7.219v-9.516zm5.793-.234q1.625 0 2.765.922 1.141.921 1.329 2.515h-2.016q-.14-.75-.75-1.203-.594-.469-1.328-.469-1.235 0-1.922.891-.672.89-.672 2.375 0 1.406.672 2.297.672.89 1.922.89.906 0 1.453-.562.562-.563.703-1.563h2.031q-.187 1.813-1.328 2.86-1.125 1.031-2.86 1.031-1.374 0-2.452-.625-1.063-.64-1.657-1.781-.578-1.14-.578-2.547 0-2.188 1.282-3.61 1.296-1.421 3.406-1.421m12.341.234v1.766h-2.86v7.75h-2.077v-7.75h-2.86v-1.766zm3.188 0v9.516h-2.093v-9.516zm6.103-.234q2.125 0 3.39 1.437 1.282 1.422 1.282 3.594 0 2.125-1.281 3.547-1.282 1.406-3.391 1.406-1.375 0-2.453-.625-1.063-.64-1.656-1.781-.579-1.14-.579-2.547 0-2.203 1.282-3.61 1.297-1.421 3.406-1.421m-2.594 5.031q0 1.406.672 2.297.672.89 1.922.89 1.234 0 1.906-.875t.672-2.312q0-1.5-.687-2.375-.688-.89-1.907-.89-1.218 0-1.906.89-.672.89-.672 2.375m10.773-4.797 3.97 6.39h.03v-6.39h1.954v9.516h-2.094l-3.953-6.375h-.032v6.375h-1.953v-9.516zm-76.694 16 3.563 9.516h-2.172l-.719-2.125h-3.562l-.735 2.125h-2.125l3.61-9.516zm-1.093 2.344-1.25 3.5h2.468l-1.187-3.5zm7.374-2.344v5.969q0 1.031.468 1.531.485.484 1.5.484 1.094 0 1.532-.484t.437-1.516v-5.984h2.094v5.984q0 1.766-1.031 2.766-1.032 1-3.032 1-2.015 0-3.047-.984-1.015-.985-1.015-2.782v-5.984zm14.879 0v1.766h-2.86v7.75h-2.078v-7.75h-2.86v-1.766zm3.188 0v3.656h3.844v-3.656h2.093v9.516h-2.093v-4.11h-3.844v4.11h-2.094v-9.516zm12.05-.234q2.126 0 3.391 1.437 1.281 1.422 1.281 3.594 0 2.125-1.28 3.547-1.282 1.406-3.391 1.406-1.375 0-2.454-.625-1.062-.64-1.656-1.781-.578-1.14-.578-2.547 0-2.203 1.281-3.61 1.297-1.421 3.407-1.421m-2.593 5.031q0 1.406.672 2.297.672.89 1.922.89 1.234 0 1.906-.875t.672-2.312q0-1.5-.688-2.375-.687-.89-1.906-.89t-1.906.89q-.672.89-.672 2.375m13.883-4.797q1.14 0 1.937.75.797.734.797 1.875 0 .906-.375 1.5-.375.578-1.14.89v.016q.671.188 1.03.813.36.625.391 1.906.016 1.297.375 1.766h-2.11q-.171-.469-.234-1.5-.109-1.407-.484-1.813t-1.14-.406h-2.141v3.719h-2.094v-9.516zm-.766 4.297q.656 0 1.016-.313.375-.312.375-1.046 0-.672-.36-.985-.344-.328-1.031-.328h-2.328v2.672zm7.297-4.297v9.516h-2.094v-9.516zm9.118 0v1.656l-5.11 6.11h5.235v1.75h-8.015v-1.657l5.093-6.093h-4.703v-1.766zm8.464 0v1.766h-5.015v2.031h4.609v1.625h-4.61v2.344h5.126v1.75h-7.22v-9.516zm5.699 0q1.89 0 3.062 1.25 1.188 1.234 1.188 3.453 0 2.235-1.157 3.531-1.14 1.282-3.093 1.282h-4.172v-9.516zm-.172 7.766q1 0 1.656-.719.672-.734.672-2.156 0-1.64-.688-2.375-.687-.75-2-.75h-1.546v6zm-96.707 8.234 1.5 6.469h.015l1.657-6.469h1.968l1.625 6.547h.016l1.562-6.547h2.063l-2.563 9.516h-2.078l-1.61-6.469h-.03l-1.594 6.469h-2.11l-2.53-9.516zm13.454 0v9.516h-2.093v-9.516zm8.884 0v1.766h-2.86v7.75h-2.077v-7.75h-2.86v-1.766zm3.189 0v3.656h3.843v-3.656h2.094v9.516h-2.094v-4.11h-3.843v4.11h-2.094v-9.516zm13.581 0v9.516h-2.093v-9.516zm3.916 0 3.968 6.39h.032v-6.39h1.953v9.516h-2.094l-3.953-6.375h-.031v6.375h-1.954v-9.516zm14.847 0v1.766h-2.86v7.75h-2.077v-7.75h-2.86v-1.766zm8.204 0v1.766h-5.015v2.031h4.609v1.625h-4.61v2.344h5.126v1.75h-7.22v-9.516zm3.605 0 3.969 6.39h.03v-6.39h1.954v9.516h-2.094l-3.953-6.375h-.031v6.375h-1.953v-9.516zm14.848 0v1.766h-2.86v7.75h-2.078v-7.75h-2.86v-1.766zm3.188 0v9.516h-2.094v-9.516zm6.102-.234q2.125 0 3.391 1.437 1.281 1.422 1.281 3.594 0 2.125-1.281 3.547-1.281 1.406-3.39 1.406-1.376 0-2.454-.625-1.062-.64-1.656-1.781-.578-1.14-.578-2.547 0-2.203 1.281-3.61 1.297-1.421 3.406-1.421m-2.593 5.031q0 1.406.672 2.297.671.89 1.921.89 1.235 0 1.907-.875t.672-2.312q0-1.5-.688-2.375-.687-.89-1.906-.89t-1.906.89q-.672.89-.672 2.375m10.773-4.797 3.969 6.39h.031v-6.39h1.953v9.516h-2.094l-3.953-6.375h-.031v6.375h-1.953v-9.516zm11.082-.234q1.719 0 2.75.812 1.047.797 1.047 2.266h-2.016q-.047-.719-.5-1.078-.437-.36-1.375-.36-.64 0-1.047.282-.406.265-.406.796 0 .36.172.532t.688.375q.53.187 2.296.593 1.188.297 1.844.985.672.672.672 1.719 0 1.39-1.047 2.234-1.031.828-2.906.828-1.797 0-2.938-.89-1.125-.891-1.125-2.454v-.047h2.032q0 .891.578 1.329.578.421 1.515.421.86 0 1.36-.296.5-.313.5-.875 0-.47-.39-.766-.376-.297-1.235-.516-1.094-.234-1.985-.515-.89-.282-1.484-.89-.578-.626-.578-1.595 0-1.28 1.031-2.078 1.031-.812 2.547-.812"/>
    <path fill="#fff" fill-rule="evenodd" d="M739.008 410.325c0-1.234 1-2.235 2.235-2.235h67.026a2.235 2.235 0 0 1 2.235 2.235v67.026c0 1.235-1 2.235-2.235 2.235h-67.026c-1.234 0-2.235-1-2.235-2.235z"/>
    <path stroke="#d6d6d6" stroke-linecap="butt" stroke-linejoin="round" d="M739.008 410.325c0-1.234 1-2.235 2.235-2.235h67.026a2.235 2.235 0 0 1 2.235 2.235v67.026c0 1.235-1 2.235-2.235 2.235h-67.026c-1.234 0-2.235-1-2.235-2.235z"/>
    <path fill="#9396a2" fill-rule="evenodd" d="M774.764 463.166c-5.016 0-9.723-.655-13.26-1.838-1.853-.639-3.24-1.324-4.222-2.119-1.216-.964-1.839-2.054-1.839-3.223V431.52c0-1.448 1.013-2.507 1.853-3.16 1.045-.795 2.464-1.48 4.24-2.056 3.521-1.153 8.226-1.792 13.228-1.792s9.707.64 13.23 1.792c1.774.56 3.193 1.245 4.238 2.056.857.637 1.853 1.712 1.853 3.16v24.466c0 1.169-.623 2.242-1.84 3.223-.996.795-2.368 1.496-4.221 2.119-3.537 1.183-8.244 1.838-13.26 1.838m-17.154-7.18c0 .328.17.872 1.012 1.527.81.638 2.041 1.245 3.567 1.759 3.351 1.106 7.822 1.714 12.575 1.714s9.224-.608 12.575-1.714c1.526-.514 2.757-1.12 3.567-1.76.843-.669 1.013-1.198 1.013-1.526v-9.203l-.593.358c-.903.544-2.009 1.027-3.302 1.447-3.537 1.138-8.258 1.776-13.26 1.776s-9.707-.623-13.26-1.776c-1.293-.42-2.399-.903-3.302-1.447l-.592-.358zm0-12.63c0 .311.17.81.996 1.45.81.606 2.041 1.198 3.569 1.696 3.349 1.075 7.805 1.682 12.589 1.682s9.24-.592 12.59-1.682c1.527-.498 2.758-1.09 3.568-1.697.84-.655 1.013-1.152 1.013-1.465v-8.41l-.593.359c-.903.546-2.025 1.029-3.334 1.45-3.52 1.152-8.228 1.789-13.228 1.789-5.002 0-9.707-.637-13.23-1.79-1.309-.42-2.414-.903-3.334-1.45l-.592-.357v8.409zm17.154-16.648c-4.753 0-9.208.592-12.559 1.682-1.558.514-2.789 1.106-3.583 1.713-.826.623-1.012 1.122-1.012 1.433 0 .312.17.809 1.012 1.432.794.608 2.025 1.215 3.583 1.714 3.351 1.074 7.806 1.682 12.559 1.682s9.21-.592 12.559-1.682c1.558-.513 2.789-1.106 3.583-1.714.826-.623 1.013-1.12 1.013-1.432s-.17-.81-1.013-1.433c-.794-.607-2.025-1.215-3.583-1.713-3.35-1.075-7.807-1.682-12.559-1.682"/>
    <path fill="#fff" fill-rule="evenodd" d="M149.489 410.325c0-1.234 1-2.235 2.235-2.235h67.026a2.235 2.235 0 0 1 2.235 2.235v67.026a2.235 2.235 0 0 1-2.235 2.235h-67.026c-1.235 0-2.235-1-2.235-2.235z"/>
    <path stroke="#d6d6d6" stroke-linecap="butt" stroke-linejoin="round" d="M149.489 410.325c0-1.234 1-2.235 2.235-2.235h67.026a2.235 2.235 0 0 1 2.235 2.235v67.026a2.235 2.235 0 0 1-2.235 2.235h-67.026c-1.235 0-2.235-1-2.235-2.235z"/>
    <path fill="#e03875" fill-rule="evenodd" d="M425.449 443.853c0-14.812 12.007-26.819 26.819-26.819h.031a26.82 26.82 0 0 1 26.82 26.819c0 14.812-12.008 26.819-26.82 26.819h-.031c-14.812 0-26.82-12.007-26.82-26.819"/>
    <path stroke="#fff" stroke-linecap="butt" stroke-miterlimit="400" stroke-opacity=".478" stroke-width="2" d="M425.449 443.853c0-14.812 12.007-26.819 26.819-26.819h.031a26.82 26.82 0 0 1 26.82 26.819c0 14.812-12.008 26.819-26.82 26.819h-.031c-14.812 0-26.82-12.007-26.82-26.819z"/>
    <path fill="#929292" fill-rule="evenodd" d="M185.244 463.983c-10.657 0-19.321-8.664-19.321-19.321s8.664-19.321 19.32-19.321c10.658 0 19.322 8.664 19.322 19.32 0 10.658-8.664 19.322-19.321 19.322m8.113-18.445c-.283 5.668-2.149 11.081-5.414 15.647l-.508.706.86-.155c7.987-1.414 13.853-8.056 14.277-16.17v-.382h-9.201v.34zm-25.456.043c.424 8.099 6.29 14.756 14.276 16.169l.86.156-.507-.707c-3.265-4.565-5.131-9.979-5.414-15.646v-.34h-9.243v.38zm11.208 0c.311 5.653 2.388 11.18 5.852 15.546l.283.355.282-.355c3.478-4.366 5.555-9.893 5.852-15.546v-.383h-12.297v.383zm8.863-17.428a29.46 29.46 0 0 1 5.356 14.756l.029.325h9.215l-.043-.395c-.805-7.646-6.643-13.922-14.205-15.251l-.862-.156.51.707zm-2.982.057c-3.323 4.183-5.33 9.244-5.795 14.643l-.029.395h12.212l-.029-.395c-.467-5.4-2.474-10.46-5.794-14.643l-.283-.354zm-2.772-.608c-7.562 1.344-13.397 7.605-14.204 15.251l-.041.395h9.215l.028-.325c.423-5.328 2.274-10.444 5.357-14.756l.508-.706-.863.155z"/>
    <path d="M107.54 484.958h155.4v37.165h-155.4z"/>
    <path fill="#4e515d" d="m170.76 497.57 1.656 7.124h.03l1.813-7.125h2.157l1.796 7.219h.016l1.719-7.219h2.265l-2.812 10.469h-2.297l-1.766-7.125h-.03l-1.75 7.125h-2.329l-2.766-10.469zm20.333 0v1.937h-5.532v2.234h5.063v1.797h-5.063v2.563h5.64v1.937h-7.937v-10.469zm6.668 0q1.594 0 2.422.64.844.625.844 1.953 0 .797-.375 1.328t-1.047.86q.953.28 1.437.968.485.672.485 1.688 0 1.437-1.047 2.234t-2.594.797h-5.125v-10.469zm-.328 4.25q.61 0 .984-.313.375-.328.375-.938 0-.625-.39-.906-.375-.297-1.125-.297h-2.22v2.453zm.14 4.421q.766 0 1.204-.328.437-.344.437-1.031 0-.75-.422-1.125-.406-.375-1.172-.375h-2.562v2.86z"/>
    <path d="M697.059 484.958H852.46v37.165h-155.4z"/>
    <path fill="#4e515d" d="M742.214 497.57q2.094 0 3.391 1.374 1.297 1.36 1.297 3.813 0 2.437-1.266 3.86-1.265 1.421-3.422 1.421h-4.578v-10.469zm-.172 8.53q1.094 0 1.813-.78.734-.798.734-2.36 0-1.813-.765-2.625-.75-.828-2.188-.828h-1.703v6.594zm11.31-8.53 3.922 10.468h-2.39l-.782-2.328h-3.922l-.828 2.328h-2.313l3.97-10.469zm-1.203 2.577-1.36 3.844h2.703l-1.312-3.844zm12.472-2.578v1.938h-3.14v8.531h-2.297v-8.531h-3.14v-1.938zm5.088 0 3.922 10.469h-2.39l-.782-2.328h-3.921l-.829 2.328h-2.312l3.969-10.469zm-1.203 2.578-1.36 3.844h2.704l-1.312-3.844zm11.04-2.578q1.594 0 2.423.64.843.626.843 1.954 0 .797-.375 1.328t-1.047.86q.954.28 1.438.968.484.672.484 1.688 0 1.437-1.047 2.234t-2.593.797h-5.125v-10.469zm-.327 4.25q.609 0 .984-.312.375-.328.375-.938 0-.625-.39-.906-.376-.297-1.126-.297h-2.218v2.453zm.14 4.422q.766 0 1.203-.328.438-.344.438-1.031 0-.75-.422-1.125-.406-.375-1.172-.375h-2.562v2.86zm10.71-8.672 3.922 10.469h-2.39l-.782-2.328h-3.922l-.828 2.328h-2.312l3.969-10.469zm-1.203 2.578-1.36 3.844h2.704l-1.313-3.844zm9.634-2.828q1.907 0 3.047.89 1.14.876 1.14 2.485h-2.218q-.047-.781-.547-1.172-.484-.406-1.515-.406-.688 0-1.141.313-.453.297-.453.875 0 .39.187.593.188.188.766.407.578.203 2.516.656 1.296.312 2.03 1.062.735.75.735 1.907 0 1.515-1.14 2.437-1.141.922-3.204.922-1.984 0-3.234-.969-1.234-.984-1.234-2.687v-.063h2.218q.016.969.657 1.453.64.485 1.672.485.921 0 1.468-.344.563-.344.563-.969 0-.5-.422-.828t-1.36-.562q-1.203-.282-2.187-.578-.984-.297-1.625-.985-.64-.687-.64-1.75 0-1.406 1.124-2.281 1.141-.89 2.797-.89m13.746.25v1.938h-5.532v2.234h5.063v1.797h-5.063v2.563h5.64v1.937h-7.937V497.57z"/>
    <path d="M323.367 432.073h-49.354"/>
    <path stroke="#e03875" stroke-linecap="butt" stroke-miterlimit="400" d="M323.367 432.073h-43.354"/>
    <path fill="#e03875" fill-rule="evenodd" stroke="#e03875" stroke-linecap="butt" d="m280.013 430.422-4.539 1.651 4.538 1.652z"/>
    <path d="M274.023 457.246h49.354"/>
    <path stroke="#e03875" stroke-linecap="butt" stroke-miterlimit="400" d="M274.023 457.246h43.354"/>
    <path fill="#e03875" fill-rule="evenodd" stroke="#e03875" stroke-linecap="butt" d="m317.377 458.898 4.539-1.652-4.539-1.652z"/>
    <path fill="#fff" fill-rule="evenodd" d="M447.466 453.897a.83.83 0 0 1-.56-.222l-8.888-8.89a.8.8 0 0 1-.234-.574.797.797 0 0 1 .807-.807c.21 0 .42.082.572.234l8.303 8.305 17.928-17.932a.815.815 0 0 1 1.146 0 .81.81 0 0 1 0 1.147l-18.5 18.505a.82.82 0 0 1-.574.246zm39.907 4.76a3.9 3.9 0 0 1-3.901-3.9v-9.923a3.93 3.93 0 0 1 2.646-3.702v-4.235c0-2.111.858-4.1 2.426-5.595 1.559-1.473 3.61-2.278 5.785-2.278s4.226.805 5.784 2.278c1.568 1.496 2.427 3.484 2.427 5.595v4.235a3.93 3.93 0 0 1 2.645 3.702v9.923a3.9 3.9 0 0 1-3.901 3.9h-13.9zm6.946-8.93a.74.74 0 0 0-.733.733v2.645c0 .396.335.731.733.731a.74.74 0 0 0 .731-.731v-2.645a.74.74 0 0 0-.731-.733m5.69-8.803v-4.037c0-1.422-.587-2.761-1.643-3.764-1.077-1.015-2.553-1.59-4.058-1.59a5.97 5.97 0 0 0-4.059 1.6 5.16 5.16 0 0 0-1.631 3.764v4.036h11.38z"/>
  </g>
</svg>
