<svg xmlns="http://www.w3.org/2000/svg" height="45" viewBox="0 0 50 30" xmlns:xlink="http://www.w3.org/1999/xlink">
  <defs>
    <style>
      .cls-2{fill:#f90;fill-rule:evenodd}
    </style>
  </defs>
  <g id="Layer_2" data-name="Layer 2">
    <g id="Layer_1-2" data-name="Layer 1">
      <path fill="#252f3e" d="M14.09 10.85a4.7 4.7 0 0 0 .19 1.49 6.7 6.7 0 0 0 .54 1.19.85.85 0 0 1 .11.38.61.61 0 0 1-.32.49l-1 .7a.86.86 0 0 1-.44.15.7.7 0 0 1-.5-.24 3.7 3.7 0 0 1-.59-.77 10 10 0 0 1-.51-1 6.16 6.16 0 0 1-4.89 2.3 4.54 4.54 0 0 1-3.32-1.2 4.27 4.27 0 0 1-1.22-3.2 4.32 4.32 0 0 1 1.47-3.39 6.08 6.08 0 0 1 4.08-1.29 12 12 0 0 1 1.76.13c.61.09 1.24.21 1.9.36V5.73a3.66 3.66 0 0 0-.78-2.66 3.85 3.85 0 0 0-2.71-.77 7.5 7.5 0 0 0-1.79.22 13 13 0 0 0-1.79.56 4 4 0 0 1-.58.22 1 1 0 0 1-.26.05c-.23 0-.35-.18-.35-.53V2a1 1 0 0 1 .12-.58 1.06 1.06 0 0 1 .46-.35 10.6 10.6 0 0 1 2.1-.75A10.3 10.3 0 0 1 8.36 0a6 6 0 0 1 4.35 1.35 5.5 5.5 0 0 1 1.38 4.09Zm-6.75 2.53a5.5 5.5 0 0 0 1.72-.3A3.75 3.75 0 0 0 10.63 12a2.56 2.56 0 0 0 .56-1 5.4 5.4 0 0 0 .16-1.44v-.74a14 14 0 0 0-1.52-.28 12 12 0 0 0-1.56-.1 3.8 3.8 0 0 0-2.47.67A2.31 2.31 0 0 0 5 11a2.4 2.4 0 0 0 .61 1.76 2.4 2.4 0 0 0 1.73.62m13.35 1.81a1.1 1.1 0 0 1-.64-.16 1.4 1.4 0 0 1-.35-.66L15.81 1.51a3 3 0 0 1-.15-.67.36.36 0 0 1 .41-.4h1.63a1 1 0 0 1 .65.16 1.3 1.3 0 0 1 .34.65l2.79 11 2.59-11a1.12 1.12 0 0 1 .32-.65 1.06 1.06 0 0 1 .67-.16h1.34a1.08 1.08 0 0 1 .67.16 1.2 1.2 0 0 1 .32.65L30 12.39l2.88-11.14a1.3 1.3 0 0 1 .34-.65 1 1 0 0 1 .65-.16h1.55a.35.35 0 0 1 .4.4 1.4 1.4 0 0 1 0 .27 2 2 0 0 1-.11.4l-4 12.86a1.26 1.26 0 0 1-.35.66 1.07 1.07 0 0 1-.64.16h-1.47a1 1 0 0 1-.67-.18 1.23 1.23 0 0 1-.32-.67l-2.59-10.7-2.56 10.7a1.3 1.3 0 0 1-.32.67 1 1 0 0 1-.67.18Zm21.36.43a11 11 0 0 1-2.56-.29 7.1 7.1 0 0 1-1.92-.67 1.17 1.17 0 0 1-.51-.46 1.1 1.1 0 0 1-.1-.47v-.84c0-.35.12-.52.38-.52a1.1 1.1 0 0 1 .3.05l.42.18a9.4 9.4 0 0 0 1.84.58 9.5 9.5 0 0 0 2 .2 4.45 4.45 0 0 0 2.42-.55 1.75 1.75 0 0 0 .86-1.57 1.6 1.6 0 0 0-.45-1.16A4.4 4.4 0 0 0 43 9.22l-2.42-.75A5.14 5.14 0 0 1 38 6.78a4 4 0 0 1-.83-2.42 3.7 3.7 0 0 1 .45-1.84 4.4 4.4 0 0 1 1.2-1.37 5.3 5.3 0 0 1 1.69-.86A7.5 7.5 0 0 1 42.6 0a9 9 0 0 1 1.12.07c.38 0 .74.11 1.08.19s.65.17 1 .26a5 5 0 0 1 .69.29 1.7 1.7 0 0 1 .5.41 1 1 0 0 1 .14.55v.79c0 .35-.12.52-.37.52a1.6 1.6 0 0 1-.64-.2 7.7 7.7 0 0 0-3.21-.64 4.37 4.37 0 0 0-2.21.47 1.59 1.59 0 0 0-.78 1.48 1.57 1.57 0 0 0 .49 1.18 4.9 4.9 0 0 0 1.84.91l2.3.72a5.14 5.14 0 0 1 2.58 1.6 3.8 3.8 0 0 1 .77 2.4 4.22 4.22 0 0 1-1.65 3.4 5.3 5.3 0 0 1-1.84.93 8 8 0 0 1-2.36.29"/>
      <path d="M45.19 23.81C39.72 27.85 31.78 30 25 30A36.65 36.65 0 0 1 .22 20.57c-.51-.47 0-1.1.56-.74a49.75 49.75 0 0 0 24.75 6.57 49.1 49.1 0 0 0 18.87-3.87c.92-.39 1.7.61.79 1.28" class="cls-2"/>
      <path d="M47.47 21.21c-.7-.89-4.63-.42-6.39-.21-.53.06-.62-.41-.14-.74 3.14-2.2 8.27-1.57 8.87-.83s-.16 5.89-3.1 8.35c-.45.37-.88.17-.68-.33.66-1.65 2.14-5.34 1.44-6.24" class="cls-2"/>
    </g>
  </g>
</svg>
