<svg xmlns="http://www.w3.org/2000/svg" width="400" height="200" fill="none" viewBox="0 0 400 200">
  <path fill="#F6B221" d="M328.158 66.57c0-3.285 2.712-5.57 5.994-5.57 2.997 0 5.566 2.285 5.566 5.57 0 2.998-2.712 5.569-5.566 5.569-3.425.143-5.994-2.57-5.994-5.57"/>
  <path fill="#818181" d="M308.321 85.135h.285c5.994-8.283 12.56-13.853 17.84-15.852-.286-.714-.286-1-.286-1.714-5.708 2.714-12.273 8.997-17.839 17.566m28.399-11.568c2.997 6.998.286 21.564-7.278 36.13-9.99 18.28-23.833 29.562-31.111 25.563-3.996-2-3.996-9.282-2.712-17.565h-.713c-1.998 9.568-2.284 18.28 2.283 20.564 7.564 3.999 22.549-8.568 33.11-28.561 7.991-14.853 11.274-29.847 8.99-37.845-.856.714-1.57 1.428-2.568 1.714"/>
  <path fill="#4C4D4F" d="M76.27 93.56H63.567c-2.14 0-3.568 2-3.568 3.142v3.57c0 1.428 1.713 3.856 3.568 3.856h10.56c1.285 0 1.713.143 1.999.428.285.286.428.715.428 1.714v.571c0 1-.143 1.286-.286 1.571-.285.286-.713.571-2.14.571H65.85c-1.712 0-1.998-.285-2.426-.714-.285-.285-.285-.714-.285-1.57l-.571-.572H60.57l-.57.573v1.713c0 1.714 1.427 3.57 3.568 3.57h12.558c1.999 0 3.568-1.713 3.568-3.855v-3.285c0-1.856-1.427-3.142-3.282-3.142h-10.56c-1.57 0-1.999-.143-2.427-.571-.428-.571-.713-1.142-.713-2v-.713c0-.714.142-1.143.57-1.571.571-.429 1.713-.571 2.427-.571h8.42c.999 0 1.57.142 1.998.57.428.43.428.715.428 1.572l.57.57h1.999l.57-.57V96.56c-.142-1.428-1.712-2.999-3.425-2.999m26.688-.001h-15.27l-.571.571v16.566l.57.571h2.284l.57-.57v-6.142h12.417c1.712-.142 2.426-.856 3.14-1.713.427-.714.427-1.286.427-3.285v-.571c0-2.285 0-3-.57-3.856-.714-1-1.713-1.428-2.997-1.57m.713 4.284v2.571c0 .428-.142.571-.428.857-.428.285-1.142.571-1.998.571H90.541v-5.57h10.703c1.284 0 1.57.143 1.998.572.143.143.428.571.428 1m17.84-4.286h-2.998l-.428.286-9.276 16.566.428.856h2.284l.428-.285 2.14-3.428h6.993l.571-.714-.999-1.999-.57-.286H115.8l4.281-7.997 8.135 14.424.57.285h2.284l.428-.856-9.561-16.566zm43.67 17.851h17.982v-3.141h-14.557v-4.427h13.843V100.7h-13.843v-4.142h14.557v-3.141H165.18zm26.402 0h3.425v-7.568h12.987V100.7h-12.987v-4.142h13.558v-3.141h-16.983zm26.972-17.993h-3.425v17.993h16.697v-3.141h-13.272zm19.838.142-.571.571v16.566l.57.571h1.999l.57-.57V94.13l-.57-.57zm27.971-.285h-10.846c-1.142 0-2.426 0-3.71.57-1.57.715-2.284 1.429-2.712 3.428v9.711c0 1.286.428 2.57 1.142 3.142.428.428 1.284 1.285 2.711 1.428h13.701c1.712-.143 2.426-.571 2.997-1.142.713-.715.999-1.571.999-3v-4.998l-.571-.57h-10.276l-.57.57v1.714l.57.571h7.707v2c0 .856 0 1.142-.428 1.57s-.571.572-2.426.572h-9.847c-1.142-.143-1.713-.286-2.141-.857-.571-.571-.714-1.285-.714-2.856V99.13c0-.857 0-1.571.286-2 .285-.428.856-1 2.569-1h9.847c1.998 0 2.569.572 2.711 1.286.143.428.143.857.143 1.57v.715l.57.571h1.999l.57-.571v-2c0-.999 0-1.999-.713-2.856-.57-1.142-1.712-1.57-3.568-1.57m29.97 7.425h-13.557v-7.282h-3.711v17.993h3.71v-7.568h13.558v7.568h3.71V93.418h-3.71zm8.563-7.282v3.141h8.277v14.852h3.425V96.56h8.278v-3.141zm-152.133-.143h-10.846c-1.142 0-2.426 0-3.71.57-1.57.715-2.284 1.429-2.712 3.428v9.711c0 1.286.428 2.57 1.142 3.142.428.428 1.284 1.285 2.711 1.428h13.701c1.712-.143 2.426-.571 2.997-1.142.713-.715.999-1.571.999-3v-2.427l-.571-.571h-1.998l-.428.714v1.57c0 .857 0 1.143-.428 1.571-.429.429-.571.572-2.427.572h-9.847c-1.141-.143-1.712-.286-2.14-.857-.571-.571-.714-1.285-.714-2.856V99.13c0-.857 0-1.571.285-2 .286-.428.857-1 2.57-1h9.846c1.998 0 2.57.572 2.712 1.286.143.286.143.714.143 1.428v.714l.57.571h1.999l.57-.57v-2c0-1-.142-2-.713-2.856-.714-1-1.855-1.428-3.71-1.428"/>
</svg>
