<svg xmlns="http://www.w3.org/2000/svg" width="420" height="500" fill="none" viewBox="0 0 420 500" xmlns:xlink="http://www.w3.org/1999/xlink">
  <mask id="a" width="420" height="500" x="0" y="0" maskUnits="userSpaceOnUse" style="mask-type:alpha">
    <path fill="#F2F2F3" d="M0 0h420v494a6 6 0 0 1-6 6H6a6 6 0 0 1-6-6z"/>
  </mask>
  <g mask="url(#a)">
    <g clip-path="url(#b)">
      <path fill="#000" d="M48.87 26.57-65.311 91.974v1.824l.082-.047L49.234 28.2 163.78 93.805v-1.83L49.643 26.602a.8.8 0 0 0-.766-.033zm-.036 21.889L-65.31 113.838v1.825l.082-.047L49.234 50.068 163.78 115.68v-1.831L49.643 48.471a.7.7 0 0 0-.32-.101.77.77 0 0 0-.489.089m.035-10.952-114.18 65.399v1.825l.082-.047L49.23 39.131l114.551 65.612v-1.831L49.643 37.539a.8.8 0 0 0-.766-.032zm-.038-32.785L-65.31 70.106v1.825l.082-.047L49.23 6.324l114.55 65.613v-1.83L49.585 4.7a.82.82 0 0 0-.708 0h-.002zm0 54.676-114.142 65.377v1.825l.082-.047L49.234 61.005l114.546 65.607v-1.831L49.643 59.408a.82.82 0 0 0-.813-.01Zm.038-43.76-114.18 65.4v1.824l.082-.047L49.234 17.262 163.78 82.874v-1.837L49.586 15.638a.82.82 0 0 0-.709 0z"/>
      <path fill="#60DEA9" d="m95.268 196.819 68.512-39.238v1.83l-65.311 37.408zm38.184 0 30.328-17.37v1.831l-27.133 15.539zm19.089 0 11.239-6.438v1.831l-8.044 4.607zm-76.115-.141 87.354-50.029v1.831l-84.4 48.339h-3.2zm37.937.141 49.417-28.301v1.831l-46.217 26.47zm-57.038-.141 106.455-60.972v1.831L60.274 196.819h-3.195z"/>
    </g>
    <g clip-path="url(#c)">
      <path fill="#000" d="m3.2 196.818-68.51 38.842v-1.812L0 196.818zm19.09 0-87.519 49.617-.082.047v-1.813l84.4-47.851h3.2Zm19.1 0-106.619 60.449-.082.046v-1.812l103.506-58.683zm-57.284 0-49.417 28.016v-1.813l46.216-26.203zm-38.178 0-11.239 6.373v-1.812l8.044-4.561zm19.089 0-30.328 17.195V212.2l27.133-15.382zm83.927 69.555.01.01a.9.9 0 0 1 .28-.049l.078.008.051.007.078.013a.8.8 0 0 1 .186.079l114.153 64.718v1.813L49.228 268.023-65.228 332.92l-.083.047v-1.807l114.143-64.724zm.285 54.086q.032 0 .063.007a.84.84 0 0 1 .357.108l114.131 64.708v1.813L49.236 322.15l-114.464 64.886-.083.047v-1.806l114.142-64.718a.8.8 0 0 1 .398-.1m-.202-43.274a.78.78 0 0 1 .605.078l114.148 64.718v1.817L49.236 278.849l-114.464 64.892-.083.047v-1.807l114.138-64.715a.7.7 0 0 1 .2-.081m-.089 10.839.01.009a.63.63 0 0 1 .337-.043.8.8 0 0 1 .363.109l114.132 64.708v1.813L49.236 289.676l-114.464 64.891-.083.047v-1.806l114.143-64.723zm.354 21.615a.84.84 0 0 1 .357.108l114.131 64.714v1.812L49.236 311.324-65.228 376.21l-.083.047v-1.807l114.142-64.717a.63.63 0 0 1 .461-.094m-.354-10.788.01.008a.65.65 0 0 1 .337-.042.9.9 0 0 1 .363.108l114.132 64.709v1.812L49.236 300.502l-114.464 64.886-.083.047v-1.806l114.143-64.718z"/>
      <path fill="#60DEA9" d="m107.779 288.957-1.6-.907 57.601-32.661v1.818l-55.919 31.703zm-9.548-5.411-1.594-.907 67.143-38.071v1.812l-65.466 37.119zm-38.184-21.648-1.593-.907 105.244-59.672.082-.047v1.812L60.13 261.851zm19.095 10.821-1.6-.907 86.156-48.845.082-.047v1.812l-84.556 47.94zm-9.547-5.411-1.6-.906 95.703-54.262.082-.047v1.818l-94.103 53.351zm19.095 10.827-1.6-.907 76.69-43.487v1.818l-75.008 42.529zm-28.392-81.317-125.609 71.216v-1.818l122.413-69.398zm76.361 0-48.844 27.693-.117.058-152.926 86.714-.083.047v-1.813l198.775-112.699zm-19.084 0-39.301 22.283-.118.058-143.384 81.297-.083.047v-1.812l179.68-101.873zm38.178 0L-65.228 322.104l-.083.047v-1.812l217.858-123.521zm-57.278 0-163.703 92.817-.083.047v-1.813L95.28 196.818zm-19.089 0-144.614 81.99-.083.047v-1.812l141.496-80.225z"/>
    </g>
    <g clip-path="url(#d)">
      <path fill="#000" d="m232.292 391.649-68.512-38.842v1.812l65.311 37.03zm-38.184 0-30.328-17.194v1.813l27.133 15.381zm-19.089 0-11.239-6.373v1.812l8.044 4.561zm76.115-.14-87.354-49.523v1.812l84.4 47.851h3.201zm-37.937.14-49.417-28.015v1.812l46.217 26.203zm57.038-.14L163.78 331.154v1.812l103.506 58.683h3.195z"/>
    </g>
    <g fill="#000" clip-path="url(#e)">
      <path d="m-65.228 407.19-.083-.048v1.825l114.148 65.381a.86.86 0 0 0 .398.098.8.8 0 0 0 .397-.106l114.148-65.378v-1.837L49.235 472.737zm0 21.863-.083-.048v1.825l114.148 65.387c.123.064.26.097.398.098a.8.8 0 0 0 .397-.107l114.148-65.377V429L49.229 494.611zm0-10.932-.083-.047v1.825L48.837 485.28c.123.064.26.097.398.098a.8.8 0 0 0 .397-.101l114.148-65.384v-1.831L49.229 483.674zm0 21.869-.083-.047v1.825l114.109 65.356.032.021a.8.8 0 0 0 .405.107.8.8 0 0 0 .397-.107l114.148-65.377v-1.837L49.235 505.543zm0 10.931-.083-.047v1.825l114.148 65.386a.9.9 0 0 0 .398.099.8.8 0 0 0 .397-.102L163.78 452.7v-1.832L49.229 516.481zm0-54.669-.083-.047v1.825l114.142 65.378.11.054.007-.007a.78.78 0 0 0 .684-.053l114.148-65.377v-1.832L49.235 461.8zm182.969 192.216-182.97-104.792-.082-.047v1.831l179.852 103.008zm19.09 0-202.06-115.723-.082-.048v1.831l198.94 113.94zm19.1 0-221.16-126.666-.082-.048v1.831L152.73 588.468zm-57.285 0-163.874-93.855-.083-.047v1.831l160.762 92.071zm-38.171 0-125.703-71.991-.083-.047v1.83l122.584 70.208zm19.083 0-144.786-82.923-.083-.047v1.83l141.673 81.14z"/>
    </g>
    <g clip-path="url(#f)">
      <path fill="#60DEA9" d="M270.398 391.649h-3.235L163.78 450.862v1.853l106.371-60.924zm-95.455 0-11.163 6.395v-1.853l7.928-4.542zm76.118.142-87.281 49.99v-1.853l84.292-48.279h3.235zm-19.091 0-68.19 39.056v-1.853l65.201-37.345h3.236zm-38.182 0-30.008 17.187v-1.854l27.019-15.475h3.236zm19.091 0-49.099 28.122v-1.853l46.11-26.411h3.235z"/>
    </g>
  </g>
  <defs>
    <clipPath id="b">
      <path fill="#fff" d="M163.78 0H-65.311v196.819H163.78z"/>
    </clipPath>
    <clipPath id="c">
      <path fill="#fff" d="M163.78 196.818H-65.311v194.831H163.78z"/>
    </clipPath>
    <clipPath id="d">
      <path fill="#fff" d="M392.871 196.818H163.78v194.831h229.091z"/>
    </clipPath>
    <clipPath id="e">
      <path fill="#fff" d="M163.78 391.649H-65.311v196.819H163.78z"/>
    </clipPath>
    <clipPath id="f">
      <path fill="#fff" d="M392.871 391.649H163.78v196.819h229.091z"/>
    </clipPath>
  </defs>
</svg>
