<svg xmlns="http://www.w3.org/2000/svg" viewBox="0 0 207 60">
  <g fill="none">
    <path fill="#25BA81" d="M26.03.01 0 15.05l17.56 10.32 3.56-2.17 8.63 4.82v-10l8.27-4.97v10.02l14.48-8.02v-.04" class="top"/>
    <path fill="#25BA81" d="M22.75 32.03v9.99l-7.88 5v-20l2.99-1.83L.15 15.05H0v29.96l26.25 15V34.03" class="left"/>
    <path fill="#1F9967" d="M38.02 23.07v9.95l-6.93 4.01-4.84-3v25.98h.14l26.11-15V15.05l-.49-.01" class="right"/>
    <path fill="#000" d="M78.49 21.83v24.24h-5.9v-32h8.06l12.14 24.32V14.1h5.9v32h-8.06m22.46.45c-8 0-10.18-4.42-10.18-9.22v-5.9c0-4.8 2.16-9.22 10.18-9.22s10.18 4.42 10.18 9.22v5.91c0 4.79-2.16 9.21-10.18 9.21m0-19.35c-3.12 0-4.32 1.39-4.32 4v6.29c0 2.64 1.2 4 4.32 4s4.32-1.39 4.32-4v-6.25c0-2.64-1.2-4.04-4.32-4.04m27.99 18.87V29.75c0-1.25-.53-1.87-1.87-1.87a16.2 16.2 0 0 0-6.1 2v16.19h-5.86V22.69h4.46l.58 2a23.4 23.4 0 0 1 9.36-2.45 4.44 4.44 0 0 1 4.42 2.5 23 23 0 0 1 9.41-2.5c3.89 0 5.28 2.74 5.28 6.91v16.92h-5.86V29.75c0-1.25-.53-1.87-1.87-1.87-2.15.234-4.23.915-6.1 2v16.19zm41.81 0h-4.8l-.43-1.58a12.8 12.8 0 0 1-7 2.06c-4.27 0-6.1-2.93-6.1-7 0-4.75 2.06-6.58 6.82-6.58H177v-2.41c0-2.59-.72-3.5-4.46-3.5-2.18.024-4.35.265-6.48.72l-.72-4.46a30.5 30.5 0 0 1 8-1.1c7.34 0 9.5 2.59 9.5 8.45zM177 37.24h-4.32c-1.92 0-2.45.53-2.45 2.3s.53 2.35 2.35 2.35a9.2 9.2 0 0 0 4.42-1.2zm9.48-6.77c0-5.18 2.3-8.26 7.73-8.26 2.097.02 4.187.244 6.24.67v-9.74l5.86-.82v33.75h-4.66l-.58-2a12.3 12.3 0 0 1-7.39 2.45c-4.7 0-7.2-2.79-7.2-8.11zm14-2.64a26 26 0 0 0-5.18-.62c-2.11 0-2.93 1-2.93 3.12v8.26c0 1.92.72 3 2.88 3a8.28 8.28 0 0 0 5.23-2.11z" class="text"/>
  </g>
</svg>
