<svg xmlns="http://www.w3.org/2000/svg" width="49" height="31" fill="none" viewBox="0 0 49 31">
  <path fill="#252F3E" d="M14.5 11.517c0 .601.064 1.088.176 1.446.128.357.288.747.511 1.17.08.13.112.26.112.373 0 .162-.095.325-.303.487l-1.007.682a.76.76 0 0 1-.415.146c-.16 0-.32-.08-.48-.227a5 5 0 0 1-.574-.763c-.16-.276-.32-.585-.496-.959q-1.87 2.242-4.697 2.242c-1.342 0-2.412-.39-3.195-1.17S2.95 13.125 2.95 11.826c0-1.38.479-2.502 1.454-3.346.974-.845 2.268-1.267 3.914-1.267.543 0 1.102.049 1.693.13s1.198.211 1.838.357V6.514c0-1.234-.256-2.095-.751-2.598-.512-.504-1.374-.748-2.605-.748-.559 0-1.134.065-1.725.212-.591.146-1.166.324-1.725.552a5 5 0 0 1-.56.211 1 1 0 0 1-.255.049c-.224 0-.336-.163-.336-.504v-.796c0-.26.032-.454.112-.568s.224-.228.447-.341q.84-.439 2.013-.731A9.5 9.5 0 0 1 8.957.943c1.901 0 3.29.439 4.186 1.316.878.877 1.326 2.209 1.326 3.996v5.262h.032zm-6.486 2.47c.527 0 1.07-.098 1.646-.293s1.086-.553 1.518-1.04c.255-.308.447-.65.543-1.04.095-.39.16-.86.16-1.413V9.52a13 13 0 0 0-1.47-.276 12 12 0 0 0-1.502-.097c-1.07 0-1.853.21-2.38.65-.528.438-.783 1.055-.783 1.867 0 .764.191 1.332.59 1.722.384.406.943.601 1.678.601m12.83 1.753c-.289 0-.48-.049-.608-.162-.128-.098-.24-.325-.335-.634L16.146 2.39c-.096-.325-.144-.536-.144-.65 0-.26.128-.406.384-.406h1.565c.304 0 .512.049.623.163.128.097.224.324.32.633l2.684 10.753L24.07 2.129c.08-.325.176-.536.304-.633.128-.098.351-.163.639-.163h1.278c.304 0 .511.049.64.163.127.097.239.324.303.633l2.524 10.882L32.522 2.13c.096-.325.207-.536.32-.633.127-.098.335-.163.622-.163h1.486c.256 0 .4.13.4.406 0 .081-.016.163-.032.26a2.3 2.3 0 0 1-.112.406l-3.85 12.556q-.144.487-.336.633c-.128.098-.335.163-.607.163h-1.374c-.304 0-.511-.05-.64-.163-.127-.114-.239-.325-.303-.65L25.62 4.468l-2.46 10.46c-.08.325-.176.536-.304.65s-.351.162-.639.162zm20.529.439c-.831 0-1.662-.098-2.46-.293-.8-.194-1.423-.406-1.838-.65-.256-.146-.431-.308-.495-.454a1.2 1.2 0 0 1-.096-.455V13.5c0-.341.128-.504.367-.504a.9.9 0 0 1 .288.049c.096.032.24.097.4.162a8.6 8.6 0 0 0 1.757.569c.639.13 1.262.195 1.9.195 1.007 0 1.79-.179 2.333-.536s.831-.877.831-1.543c0-.455-.144-.829-.431-1.137s-.831-.585-1.614-.845L40 9.18c-1.167-.374-2.03-.927-2.557-1.658-.527-.714-.798-1.51-.798-2.355q0-1.023.431-1.803c.287-.52.671-.974 1.15-1.331a5 5 0 0 1 1.662-.845A6.9 6.9 0 0 1 41.9.91c.351 0 .719.016 1.07.065.368.048.703.113 1.039.178.32.082.623.163.91.26q.432.146.671.293c.224.13.384.26.48.406q.143.194.143.536v.763c0 .341-.127.52-.367.52-.128 0-.336-.065-.607-.195q-1.365-.633-3.068-.633c-.91 0-1.63.146-2.124.454-.496.309-.751.78-.751 1.446 0 .455.16.845.479 1.153.32.309.91.617 1.757.893l2.269.731c1.15.374 1.981.894 2.476 1.56.496.666.735 1.429.735 2.274 0 .698-.144 1.332-.415 1.884a4.35 4.35 0 0 1-1.166 1.43c-.496.405-1.087.698-1.774.909a7.5 7.5 0 0 1-2.284.34z"/>
  <path fill="#F90" fill-rule="evenodd" d="M44.392 24.073c-5.256 3.947-12.892 6.042-19.459 6.042-9.202 0-17.494-3.46-23.756-9.21-.496-.454-.048-1.072.543-.714 6.774 3.995 15.13 6.416 23.773 6.416 5.83 0 12.237-1.235 18.133-3.769.878-.406 1.63.585.766 1.235" clip-rule="evenodd"/>
  <path fill="#F90" fill-rule="evenodd" d="M46.58 21.539c-.67-.877-4.44-.423-6.15-.211-.511.065-.591-.39-.128-.731 3.004-2.144 7.94-1.527 8.516-.812.575.73-.16 5.75-2.972 8.153-.431.374-.847.18-.655-.308.64-1.608 2.06-5.23 1.39-6.091z" clip-rule="evenodd"/>
</svg>
