<svg xmlns="http://www.w3.org/2000/svg" xmlns:xlink="http://www.w3.org/1999/xlink" width="40" height="40" fill="none" viewBox="0 0 40 40">
  <defs>
    <path id="a" fill="#326CE5" d="M19.861.18c-.353.018-.7.107-1.019.26L4.936 7.113A2.66 2.66 0 0 0 3.498 8.91L.067 23.899a2.64 2.64 0 0 0 .512 2.242l9.625 12.019a2.66 2.66 0 0 0 2.08.996l15.435-.003a2.67 2.67 0 0 0 2.079-.995l9.621-12.02a2.64 2.64 0 0 0 .514-2.243L36.497 8.906a2.64 2.64 0 0 0-1.438-1.797L21.15.44a2.7 2.7 0 0 0-1.29-.258z"/>
    <path id="b" fill="#fff" stroke="#fff" d="M19.999 5.282c-.46 0-.833.416-.833.929l.002.023c0 .07-.004.153-.002.214.011.296.075.522.114.795.07.583.129 1.067.093 1.516-.036.17-.16.325-.27.433l-.02.353a10.7 10.7 0 0 0-6.943 3.353 14 14 0 0 1-.301-.214c-.149.02-.299.066-.494-.049-.373-.251-.712-.599-1.123-1.018-.188-.2-.324-.39-.547-.584-.051-.044-.129-.103-.185-.148a1 1 0 0 0-.58-.22.8.8 0 0 0-.664.295c-.286.36-.194.913.205 1.232l.012.01c.055.044.122.101.173.139.237.176.454.266.69.405.498.309.91.565 1.238.874.128.136.15.378.167.482l.267.24a10.85 10.85 0 0 0-1.699 7.54l-.348.102c-.092.12-.222.307-.358.363-.428.135-.91.185-1.492.246-.273.023-.509.01-.798.064-.064.013-.153.036-.223.052l-.007.002-.012.004c-.49.119-.806.572-.705 1.018s.581.718 1.075.61l.012-.001.016-.005c.069-.016.155-.032.215-.049.285-.076.491-.189.747-.287.55-.199 1.007-.364 1.451-.429.186-.014.382.115.479.17l.363-.063a10.87 10.87 0 0 0 4.8 6.02l-.151.364c.054.142.114.333.074.473-.162.42-.439.864-.754 1.36-.152.228-.309.406-.446.668-.033.062-.075.158-.107.225-.214.46-.057.989.354 1.188.414.2.927-.011 1.149-.472l.002-.002v-.002c.031-.065.076-.15.103-.212.118-.272.157-.504.24-.767.22-.555.341-1.138.644-1.501.083-.1.219-.138.36-.176l.188-.343a10.7 10.7 0 0 0 7.68.02c.054.094.152.276.179.322.142.046.298.07.425.258.227.39.382.85.57 1.406.084.263.125.495.242.767.027.061.072.148.104.214.221.462.736.674 1.15.473.411-.199.568-.728.354-1.188-.031-.066-.075-.162-.108-.225-.138-.261-.294-.437-.447-.666-.315-.495-.576-.906-.738-1.327-.067-.217.012-.352.064-.493-.031-.036-.099-.241-.138-.338a10.87 10.87 0 0 0 4.798-6.062c.108.017.295.05.356.063.125-.083.24-.191.466-.174.444.065.9.23 1.45.43.257.098.463.212.748.288.06.017.146.032.215.047l.016.005.013.002c.493.107.972-.165 1.074-.61.101-.447-.214-.9-.705-1.019-.07-.016-.172-.044-.242-.057-.29-.055-.525-.042-.798-.064-.582-.062-1.064-.111-1.492-.247-.175-.068-.299-.277-.36-.363l-.335-.098a10.9 10.9 0 0 0-.175-3.902 10.8 10.8 0 0 0-1.56-3.621l.296-.266c.013-.15.002-.307.156-.473.328-.31.74-.565 1.238-.874.236-.14.455-.23.692-.405.053-.04.127-.103.183-.149.4-.32.491-.871.204-1.232-.286-.361-.842-.395-1.24-.075-.058.045-.135.104-.186.148-.223.193-.361.384-.55.584-.41.419-.75.768-1.122 1.02-.161.095-.397.062-.505.056l-.316.226a10.9 10.9 0 0 0-6.91-3.352l-.02-.374c-.108-.104-.238-.193-.271-.418-.037-.45.024-.933.094-1.516.039-.273.103-.5.114-.795.002-.067-.002-.165-.002-.237 0-.513-.373-.93-.832-.93zm-1.043 6.483-.247 4.386-.017.009a.735.735 0 0 1-1.165.564l-.008.003-3.58-2.548a8.56 8.56 0 0 1 5.017-2.414zm2.087 0a8.63 8.63 0 0 1 4.986 2.415l-3.556 2.533-.013-.005a.732.732 0 0 1-1.167-.563l-.003-.002zm-8.402 4.051 3.269 2.937-.004.018a.738.738 0 0 1-.288 1.266l-.003.015-4.19 1.214a8.64 8.64 0 0 1 1.216-5.45zm14.692.002a8.7 8.7 0 0 1 1.073 2.631c.216.946.27 1.89.181 2.803l-4.212-1.218-.003-.018a.737.737 0 0 1-.288-1.267l-.002-.008zm-8.005 3.162h1.34l.832 1.045-.3 1.304-1.201.58-1.206-.582-.299-1.304zm4.293 3.576a.7.7 0 0 1 .17.012l.006-.009 4.335.736a8.6 8.6 0 0 1-3.47 4.378l-1.683-4.081.006-.007a.74.74 0 0 1 .636-1.03zm-7.279.018a.735.735 0 0 1 .664 1.027l.012.016-1.665 4.04a8.65 8.65 0 0 1-3.459-4.348l4.297-.732.007.01a1 1 0 0 1 .144-.013zm3.63 1.77a.73.73 0 0 1 .672.388h.016l2.118 3.843a9 9 0 0 1-.846.238 8.57 8.57 0 0 1-4.697-.243l2.113-3.837h.003a.73.73 0 0 1 .621-.39z"/>
  </defs>
  <use xlink:href="#a"/>
  <use xlink:href="#b" stroke-width=".219"/>
  <use xlink:href="#a"/>
  <use xlink:href="#b" stroke-width=".219"/>
</svg>
