<svg xmlns="http://www.w3.org/2000/svg" xmlns:xlink="http://www.w3.org/1999/xlink" width="1061.704" height="704.278" viewBox="0 0 280.909 186.34">
  <defs>
    <path id="a" d="M60.894 32.634a1.06 1.06 0 1 1 1.057-1.049 1.06 1.06 0 0 1-1.057 1.064"/>
    <path id="b" d="M62.957 32.064a.49.49 0 1 1 .49-.479.49.49 0 0 1-.49.49m1.788.448a.452.452 0 1 1-.903-.038.452.452 0 0 1 .903.038m-.345-1.259a.49.49 0 1 1 .383-.59.5.5 0 0 1 0 .192.47.47 0 0 1-.383.383m1.739 1.221a.488.488 0 1 1-.961-.168.48.48 0 0 1 .566-.383.49.49 0 0 1 .406.52.2.2 0 0 0 0 .047m-.406-1.245a.486.486 0 1 1 .383-.559 1 1 0 0 1 0 .127.486.486 0 0 1-.406.432m-.321 2.921a.49.49 0 1 1 .06-.2.4.4 0 0 1-.06.2m-.177-4.491a.49.49 0 1 1-.481-.853.49.49 0 0 1 .481.853"/>
    <path id="c" d="M60.914 36.5a4.915 4.915 0 1 1 2.981-8.803l-.597.766a3.93 3.93 0 1 0 0 6.243l.597.784a4.85 4.85 0 0 1-2.981 1.01"/>
  </defs>
  <g transform="translate(2.589 11.894)">
    <rect width="279.909" height="185.34" x="-2.089" y="-11.394" fill="#fff" stroke="#d2d4db" stroke-linecap="round" paint-order="markers stroke fill" rx=".76" ry=".76"/>
    <path fill="none" stroke="#9194a0" d="m81.741 89.78 37.601-55.166m-37.601 72.355 37.601-72.355M81.741 89.78l65.507-66.793M81.741 89.78l94.276-55.166m-94.276 72.355 94.276-72.355M81.741 89.78H212.27m-130.529 0 129.99 17.189M81.741 89.78l76.817 48.886M119.342 34.614l39.216 104.052m-11.31-115.679 11.31 115.679m17.459-104.052-17.46 104.052m53.175-31.697-53.174 31.697M81.741 89.78l54.249 48.886M119.342 34.614l16.648 104.052m11.258-115.679L135.99 138.666m40.027-104.052L135.99 138.666m75.742-31.697-75.742 31.697m22.568 0H135.99m76.098-48.685-36.071-55.367m36.252 72.355V89.78m-.181.201-64.84-66.994m0 0-27.906 11.627m56.675 0h-56.675m56.675 0-28.77-11.627m64.841 66.994-92.746-55.367m92.927 72.355-36.252-72.355m36.252 72.355-65.021-83.982m65.021 83.982-92.927-72.355m92.746 55.367L81.74 106.97m130.529-.001H81.74m76.818 31.697L81.74 106.969m54.25 31.697-54.25-31.697m130.348-16.988-76.098 48.685m76.098-48.685-53.53 48.685M81.741 89.78v17.189m65.507-83.982L81.74 106.969"/>
    <path fill="none" stroke="#ca2171" stroke-dasharray="1 1" stroke-width=".5" d="M-2.12 45.66H277.6" opacity=".5"/>
    <text xml:space="preserve" x="10.169" y="41.304" fill="#eb88b7" stroke-width=".109" font-family="Open Sans" font-size="4.362" font-weight="400" style="line-height:1.25;-inkscape-font-specification:&quot;Open Sans&quot;"><tspan x="10.169" y="41.304" font-weight="700" style="-inkscape-font-specification:&quot;Open Sans Bold&quot;">SERVER AGENTS</tspan></text>
    <text xml:space="preserve" x="12.425" y="-.83" fill="#b6b8c2" stroke-width=".109" font-family="Open Sans" font-size="4.362" font-weight="400" style="line-height:1.25;-inkscape-font-specification:&quot;Open Sans&quot;"><tspan x="12.425" y="-.83" font-weight="700" style="-inkscape-font-specification:&quot;Open Sans Bold&quot;">DATACENTER 1</tspan></text>
    <text xml:space="preserve" x="10.279" y="53.145" fill="#eb88b7" stroke-width=".109" font-family="Open Sans" font-size="4.362" font-weight="400" style="line-height:1.25;-inkscape-font-specification:&quot;Open Sans&quot;"><tspan x="10.279" y="53.145" font-weight="700" style="-inkscape-font-specification:&quot;Open Sans Bold&quot;">CLIENT AGENTS</tspan></text>
    <path fill="#fff" d="M129.608 91.853h33.355v13.036h-33.355z" opacity=".85" paint-order="markers stroke fill"/>
    <text xml:space="preserve" x="146.197" y="97.508" fill="#464851" stroke-width=".109" font-family="Open Sans" font-size="4.362" font-weight="400" style="line-height:1.25;-inkscape-font-specification:&quot;Open Sans&quot;;text-align:center" text-anchor="middle"><tspan x="146.197" y="97.508" font-weight="700" style="-inkscape-font-specification:&quot;Open Sans Bold&quot;;text-align:center">&lt;DEFAULT&gt;</tspan><tspan x="146.197" y="102.96" font-weight="700" style="-inkscape-font-specification:&quot;Open Sans Bold&quot;;text-align:center">SEGMENT</tspan></text>
    <path fill="none" d="M9.663-4.386 7.449-5.512a.82.82 0 0 0-.739 0L4.497-4.386a.83.83 0 0 0-.336.31.85.85 0 0 0-.124.443V-.96a.85.85 0 0 0 .456.76L6.707.928a.82.82 0 0 0 .742 0L9.663-.198a.83.83 0 0 0 .335-.31.85.85 0 0 0 .124-.444v-2.681a.85.85 0 0 0-.124-.443.83.83 0 0 0-.335-.31m-2.708-.609a.25.25 0 0 1 .243 0l2.023 1.026-.763.389-2.144-1.09zm.121 2.123-2.144-1.09.762-.39 2.148 1.094zM4.74-.682a.3.3 0 0 1-.112-.106.3.3 0 0 1-.04-.15v-2.568L6.8-2.384V.364zm4.672 0L7.352.36v-2.745l2.213-1.122v2.572a.3.3 0 0 1-.046.137.3.3 0 0 1-.107.096z"/>
    <rect width="31.143" height="30.384" x="212.269" y="59.397" fill="none" stroke="#ca2171" rx=".949" ry=".949"/>
    <circle cx="219.652" cy="81.383" r="2.551" fill="#ca2171"/>
    <text xml:space="preserve" x="213.863" y="88.313" fill="#9194a0" stroke-width=".109" font-family="Open Sans" font-size="4.362" font-weight="400" style="line-height:1.25;-inkscape-font-specification:&quot;Open Sans&quot;"><tspan x="213.863" y="88.313" font-weight="700" style="-inkscape-font-specification:&quot;Open Sans Bold&quot;">8301</tspan></text>
    <rect width="31.143" height="30.384" x="212.269" y="106.969" fill="none" stroke="#ca2171" rx=".949" ry=".949"/>
    <circle cx="219.652" cy="128.955" r="2.551" fill="#ca2171"/>
    <text xml:space="preserve" x="213.863" y="112.08" fill="#9194a0" stroke-width=".109" font-family="Open Sans" font-size="4.362" font-weight="400" style="line-height:1.25;-inkscape-font-specification:&quot;Open Sans&quot;"><tspan x="213.863" y="112.08" font-weight="700" style="-inkscape-font-specification:&quot;Open Sans Bold&quot;">8301</tspan></text>
    <rect width="31.143" height="30.384" x="158.558" y="138.666" fill="none" stroke="#ca2171" rx=".949" ry=".949"/>
    <circle cx="165.94" cy="160.651" r="2.551" fill="#ca2171"/>
    <text xml:space="preserve" x="160.286" y="143.344" fill="#9194a0" stroke-width=".109" font-family="Open Sans" font-size="4.362" font-weight="400" style="line-height:1.25;-inkscape-font-specification:&quot;Open Sans&quot;"><tspan x="160.286" y="143.344" font-weight="700" style="-inkscape-font-specification:&quot;Open Sans Bold&quot;">8301</tspan></text>
    <rect width="31.143" height="30.384" x="104.846" y="138.666" fill="none" stroke="#ca2171" rx=".949" ry=".949"/>
    <circle cx="112.229" cy="160.651" r="2.551" fill="#ca2171"/>
    <text xml:space="preserve" x="124.837" y="143.739" fill="#9194a0" stroke-width=".109" font-family="Open Sans" font-size="4.362" font-weight="400" style="line-height:1.25;-inkscape-font-specification:&quot;Open Sans&quot;"><tspan x="124.837" y="143.739" font-weight="700" style="-inkscape-font-specification:&quot;Open Sans Bold&quot;">8301</tspan></text>
    <rect width="31.143" height="30.384" x="50.598" y="106.969" fill="none" stroke="#ca2171" rx=".949" ry=".949"/>
    <circle cx="57.981" cy="128.955" r="2.551" fill="#ca2171"/>
    <text xml:space="preserve" x="70.455" y="112.08" fill="#9194a0" stroke-width=".109" font-family="Open Sans" font-size="4.362" font-weight="400" style="line-height:1.25;-inkscape-font-specification:&quot;Open Sans&quot;"><tspan x="70.455" y="112.08" font-weight="700" style="-inkscape-font-specification:&quot;Open Sans Bold&quot;">8301</tspan></text>
    <rect width="31.143" height="30.384" x="50.598" y="59.397" fill="none" stroke="#ca2171" rx=".949" ry=".949"/>
    <circle cx="57.981" cy="81.383" r="2.551" fill="#ca2171"/>
    <text xml:space="preserve" x="69.927" y="87.836" fill="#9194a0" stroke-width=".109" font-family="Open Sans" font-size="4.362" font-weight="400" style="line-height:1.25;-inkscape-font-specification:&quot;Open Sans&quot;"><tspan x="69.927" y="87.836" font-weight="700" style="-inkscape-font-specification:&quot;Open Sans Bold&quot;">8301</tspan></text>
    <rect width="31.143" height="30.384" x="88.199" y="4.23" fill="#ca2171" fill-rule="evenodd" rx=".949" ry=".949"/>
    <text xml:space="preserve" x="108.057" y="32.639" fill="#e3e4e7" font-family="Open Sans" font-size="4.362" font-weight="400" paint-order="markers stroke fill" style="line-height:1.25;-inkscape-font-specification:&quot;Open Sans&quot;"><tspan x="108.057" y="32.639" font-weight="700" style="-inkscape-font-specification:&quot;Open Sans Bold&quot;">8301</tspan></text>
    <g fill="#fff" stroke-width=".447" transform="translate(67.454 -13.482)scale(.75411)">
      <use xlink:href="#a" fill-rule="evenodd" clip-rule="evenodd" opacity=".7"/>
      <use xlink:href="#b" fill-rule="evenodd" clip-rule="evenodd"/>
      <use xlink:href="#c"/>
    </g>
    <rect width="31.143" height="30.384" x="132.108" y="-7.411" fill="#ca2171" fill-rule="evenodd" rx=".949" ry=".949"/>
    <path fill="none" d="m139.47 6.207.75 1.519 1.675.245-1.213 1.18.287 1.67-1.5-.789-1.498.789.286-1.669-1.213-1.181 1.676-.245Z" clip-rule="evenodd"/>
    <text xml:space="preserve" x="142.428" y="21.174" fill="#e3e4e7" font-family="Open Sans" font-size="4.362" font-weight="400" paint-order="markers stroke fill" style="line-height:1.25;-inkscape-font-specification:&quot;Open Sans&quot;"><tspan x="142.428" y="21.174" font-weight="700" style="-inkscape-font-specification:&quot;Open Sans Bold&quot;">8301</tspan></text>
    <text xml:space="preserve" x="143.221" y="9.916" stroke-width=".098" font-family="Open Sans" font-size="3.913" font-weight="400" style="line-height:1.25;-inkscape-font-specification:&quot;Open Sans&quot;"><tspan x="143.221" y="9.916" fill="#fff" font-weight="700" style="-inkscape-font-specification:&quot;Open Sans Bold&quot;">LEADER</tspan></text>
    <g fill="#fff" stroke-width=".447" transform="translate(111.363 -25.123)scale(.75411)">
      <use xlink:href="#a" fill-rule="evenodd" clip-rule="evenodd" opacity=".7"/>
      <use xlink:href="#b" fill-rule="evenodd" clip-rule="evenodd"/>
      <use xlink:href="#c"/>
    </g>
    <rect width="31.143" height="30.384" x="176.017" y="4.23" fill="#ca2171" fill-rule="evenodd" rx=".949" ry=".949"/>
    <text xml:space="preserve" x="177.877" y="32.319" fill="#e3e4e7" font-family="Open Sans" font-size="4.362" font-weight="400" paint-order="markers stroke fill" style="line-height:1.25;-inkscape-font-specification:&quot;Open Sans&quot;"><tspan x="177.877" y="32.319" font-weight="700" style="-inkscape-font-specification:&quot;Open Sans Bold&quot;">8301</tspan></text>
    <g fill="#fff" stroke-width=".447" transform="translate(155.272 -13.482)scale(.75411)">
      <use xlink:href="#a" fill-rule="evenodd" clip-rule="evenodd" opacity=".7"/>
      <use xlink:href="#b" fill-rule="evenodd" clip-rule="evenodd"/>
      <use xlink:href="#c"/>
    </g>
  </g>
</svg>
