<svg xmlns="http://www.w3.org/2000/svg" viewBox="0 0 1557 543">
  <g fill="none" fill-rule="evenodd">
    <g fill="#FFF" fill-rule="nonzero">
      <path fill-opacity=".8" d="M1196.328 125.82v16.31l-11.36 6.575-7.935-4.918v42.59h.23l42.803-24.59v-49.115l-.804-.016"/>
      <path d="M1176.672 88.016 1134 112.672l28.787 16.918 5.836-3.557 14.147 7.9V117.54l13.558-8.146v16.427l23.738-13.14v-.065"/>
      <path d="M1171.295 140.508v16.377l-12.918 8.197v-32.787l4.902-3-29.04-16.623h-.24v49.115l43.03 24.59v-42.59"/>
      <path fill-opacity=".8" d="M1308.328 125.82v16.31l-11.36 6.575-7.935-4.918v42.59h.23l42.803-24.59v-49.115l-.804-.016"/>
      <path d="M1288.672 88.016 1246 112.672l28.787 16.918 5.836-3.557 14.147 7.9V117.54l13.558-8.146v16.427l23.738-13.14v-.065"/>
      <path d="M1283.295 140.508v16.377l-12.918 8.197v-32.787l4.902-3-29.04-16.623h-.24v49.115l43.03 24.59v-42.59"/>
      <path fill-opacity=".8" d="M1420.328 125.82v16.31l-11.36 6.575-7.935-4.918v42.59h.23l42.803-24.59v-49.115l-.804-.016"/>
      <path d="M1400.672 88.016 1358 112.672l28.787 16.918 5.836-3.557 14.147 7.9V117.54l13.558-8.146v16.427l23.738-13.14v-.065"/>
      <path d="M1395.295 140.508v16.377l-12.918 8.197v-32.787l4.902-3-29.04-16.623h-.24v49.115l43.03 24.59v-42.59"/>
      <path fill-opacity=".8" d="M1532.328 125.82v16.31l-11.36 6.575-7.935-4.918v42.59h.23l42.803-24.59v-49.115l-.804-.016"/>
      <path d="M1512.672 88.016 1470 112.672l28.787 16.918 5.836-3.557 14.147 7.9V117.54l13.558-8.146v16.427l23.738-13.14v-.065"/>
      <path d="M1507.295 140.508v16.377l-12.918 8.197v-32.787l4.902-3-29.04-16.623h-.24v49.115l43.03 24.59v-42.59"/>
      <path fill-opacity=".8" d="M1140.328 214.82v16.31l-11.36 6.575-7.935-4.918v42.59h.23l42.803-24.59v-49.115l-.804-.016"/>
      <path d="M1120.672 177.016 1078 201.672l28.787 16.918 5.836-3.557 14.147 7.9V206.54l13.558-8.146v16.427l23.738-13.14v-.065"/>
      <path d="M1115.295 229.508v16.377l-12.918 8.197v-32.787l4.902-3-29.04-16.623h-.24v49.115l43.03 24.59v-42.59"/>
      <path fill-opacity=".8" d="M1252.328 214.82v16.31l-11.36 6.575-7.935-4.918v42.59h.23l42.803-24.59v-49.115l-.804-.016"/>
      <path d="M1232.672 177.016 1190 201.672l28.787 16.918 5.836-3.557 14.147 7.9V206.54l13.558-8.146v16.427l23.738-13.14v-.065"/>
      <path d="M1227.295 229.508v16.377l-12.918 8.197v-32.787l4.902-3-29.04-16.623h-.24v49.115l43.03 24.59v-42.59"/>
      <path fill-opacity=".8" d="M1364.328 214.82v16.31l-11.36 6.575-7.935-4.918v42.59h.23l42.803-24.59v-49.115l-.804-.016"/>
      <path d="M1344.672 177.016 1302 201.672l28.787 16.918 5.836-3.557 14.147 7.9V206.54l13.558-8.146v16.427l23.738-13.14v-.065"/>
      <path d="M1339.295 229.508v16.377l-12.918 8.197v-32.787l4.902-3-29.04-16.623h-.24v49.115l43.03 24.59v-42.59"/>
      <path fill-opacity=".8" d="M1476.328 214.82v16.31l-11.36 6.575-7.935-4.918v42.59h.23l42.803-24.59v-49.115l-.804-.016"/>
      <path d="M1456.672 177.016 1414 201.672l28.787 16.918 5.836-3.557 14.147 7.9V206.54l13.558-8.146v16.427l23.738-13.14v-.065"/>
      <path d="M1451.295 229.508v16.377l-12.918 8.197v-32.787l4.902-3-29.04-16.623h-.24v49.115l43.03 24.59v-42.59"/>
      <path fill-opacity=".8" d="M1084.328 303.82v16.31l-11.36 6.575-7.935-4.918v42.59h.23l42.803-24.59v-49.115l-.804-.016"/>
      <path d="M1064.672 266.016 1022 290.672l28.787 16.918 5.836-3.557 14.147 7.9V295.54l13.558-8.146v16.427l23.738-13.14v-.065"/>
      <path d="M1059.295 318.508v16.377l-12.918 8.197v-32.787l4.902-3-29.04-16.623h-.24v49.115l43.03 24.59v-42.59"/>
      <path fill-opacity=".8" d="M1196.328 303.82v16.31l-11.36 6.575-7.935-4.918v42.59h.23l42.803-24.59v-49.115l-.804-.016"/>
      <path d="M1176.672 266.016 1134 290.672l28.787 16.918 5.836-3.557 14.147 7.9V295.54l13.558-8.146v16.427l23.738-13.14v-.065"/>
      <path d="M1171.295 318.508v16.377l-12.918 8.197v-32.787l4.902-3-29.04-16.623h-.24v49.115l43.03 24.59v-42.59"/>
      <path fill-opacity=".8" d="M1308.328 303.82v16.31l-11.36 6.575-7.935-4.918v42.59h.23l42.803-24.59v-49.115l-.804-.016"/>
      <path d="M1288.672 266.016 1246 290.672l28.787 16.918 5.836-3.557 14.147 7.9V295.54l13.558-8.146v16.427l23.738-13.14v-.065"/>
      <path d="M1283.295 318.508v16.377l-12.918 8.197v-32.787l4.902-3-29.04-16.623h-.24v49.115l43.03 24.59v-42.59"/>
      <path fill-opacity=".8" d="M1420.328 303.82v16.31l-11.36 6.575-7.935-4.918v42.59h.23l42.803-24.59v-49.115l-.804-.016"/>
      <path d="M1400.672 266.016 1358 290.672l28.787 16.918 5.836-3.557 14.147 7.9V295.54l13.558-8.146v16.427l23.738-13.14v-.065"/>
      <path d="M1395.295 318.508v16.377l-12.918 8.197v-32.787l4.902-3-29.04-16.623h-.24v49.115l43.03 24.59v-42.59"/>
      <path fill-opacity=".8" d="M1028.328 392.82v16.31l-11.36 6.575-7.935-4.918v42.59h.23l42.803-24.59v-49.115l-.804-.016"/>
      <path d="M1008.672 355.016 966 379.672l28.787 16.918 5.836-3.557 14.147 7.9V384.54l13.558-8.146v16.427l23.738-13.14v-.065"/>
      <path d="M1003.295 407.508v16.377l-12.918 8.197v-32.787l4.902-3-29.04-16.623H966v49.115l43.033 24.59v-42.59"/>
      <path fill-opacity=".8" d="M1140.328 392.82v16.31l-11.36 6.575-7.935-4.918v42.59h.23l42.803-24.59v-49.115l-.804-.016"/>
      <path d="M1120.672 355.016 1078 379.672l28.787 16.918 5.836-3.557 14.147 7.9V384.54l13.558-8.146v16.427l23.738-13.14v-.065"/>
      <path d="M1115.295 407.508v16.377l-12.918 8.197v-32.787l4.902-3-29.04-16.623h-.24v49.115l43.03 24.59v-42.59"/>
      <path fill-opacity=".8" d="M1252.328 392.82v16.31l-11.36 6.575-7.935-4.918v42.59h.23l42.803-24.59v-49.115l-.804-.016"/>
      <path d="M1232.672 355.016 1190 379.672l28.787 16.918 5.836-3.557 14.147 7.9V384.54l13.558-8.146v16.427l23.738-13.14v-.065"/>
      <path d="M1227.295 407.508v16.377l-12.918 8.197v-32.787l4.902-3-29.04-16.623h-.24v49.115l43.03 24.59v-42.59"/>
      <path fill-opacity=".8" d="M1364.328 392.82v16.31l-11.36 6.575-7.935-4.918v42.59h.23l42.803-24.59v-49.115l-.804-.016"/>
      <path d="M1344.672 355.016 1302 379.672l28.787 16.918 5.836-3.557 14.147 7.9V384.54l13.558-8.146v16.427l23.738-13.14v-.065"/>
      <path d="M1339.295 407.508v16.377l-12.918 8.197v-32.787l4.902-3-29.04-16.623h-.24v49.115l43.03 24.59v-42.59"/>
    </g>
    <g fill="#FFF" fill-rule="nonzero">
      <path d="M611 204a5 5 0 0 0 3.536-1.464 5.004 5.004 0 0 0 0-7.072 5.004 5.004 0 0 0-7.072 0 5.004 5.004 0 0 0 0 7.072A5 5 0 0 0 611 204m-453 86a5 5 0 0 0 3.536-1.464 5.004 5.004 0 0 0 0-7.072 5.004 5.004 0 0 0-7.072 0 5.004 5.004 0 0 0 0 7.072A5 5 0 0 0 158 290M57 250a5 5 0 0 0 3.536-1.464 5.004 5.004 0 0 0 0-7.072 5.004 5.004 0 0 0-7.072 0 5.004 5.004 0 0 0 0 7.072A5 5 0 0 0 57 250m-45 82a5 5 0 0 0 3.536-1.464 5.004 5.004 0 0 0 0-7.072 5.004 5.004 0 0 0-7.072 0 5.004 5.004 0 0 0 0 7.072A5 5 0 0 0 12 332m245 12a5 5 0 0 0 3.536-1.464 5.004 5.004 0 0 0 0-7.072 5.004 5.004 0 0 0-7.072 0 5.004 5.004 0 0 0 0 7.072A5 5 0 0 0 257 344m439 110a5 5 0 0 0 3.536-1.464 5.004 5.004 0 0 0 0-7.072 5.004 5.004 0 0 0-7.072 0 5.004 5.004 0 0 0 0 7.072A5 5 0 0 0 696 454M378 121a5 5 0 0 0 3.536-1.464 5.004 5.004 0 0 0 0-7.072 5.004 5.004 0 0 0-7.072 0 5.004 5.004 0 0 0 0 7.072A5 5 0 0 0 378 121m305 252a5 5 0 0 0 3.536-1.464 5.004 5.004 0 0 0 0-7.072 5.004 5.004 0 0 0-7.072 0 5.004 5.004 0 0 0 0 7.072A5 5 0 0 0 683 373m-262 44a5 5 0 0 0 3.536-1.464 5.004 5.004 0 0 0 0-7.072 5.004 5.004 0 0 0-7.072 0 5.004 5.004 0 0 0 0 7.072A5 5 0 0 0 421 417M253 171a5 5 0 0 0 3.536-1.464 5.004 5.004 0 0 0 0-7.072 5.004 5.004 0 0 0-7.072 0 5.004 5.004 0 0 0 0 7.072A5 5 0 0 0 253 171m209 78a5 5 0 0 0 3.536-1.464 5.004 5.004 0 0 0 0-7.072 5.004 5.004 0 0 0-7.072 0 5.004 5.004 0 0 0 0 7.072A5 5 0 0 0 462 249M124 539a5 5 0 0 0 3.536-1.464 5.004 5.004 0 0 0 0-7.072 5.004 5.004 0 0 0-7.072 0 5.004 5.004 0 0 0 0 7.072A5 5 0 0 0 124 539m187-370a5 5 0 0 0 3.536-1.464 5.004 5.004 0 0 0 0-7.072 5.004 5.004 0 0 0-7.072 0 5.004 5.004 0 0 0 0 7.072A5 5 0 0 0 311 169m-178 89a5 5 0 0 0 3.536-1.464 5.004 5.004 0 0 0 0-7.072 5.004 5.004 0 0 0-7.072 0 5.004 5.004 0 0 0 0 7.072A5 5 0 0 0 133 258m441 257a5 5 0 0 0 3.536-1.464 5.004 5.004 0 0 0 0-7.072 5.004 5.004 0 0 0-7.072 0 5.004 5.004 0 0 0 0 7.072A5 5 0 0 0 574 515M5 407a5 5 0 0 0 3.536-1.464 5.004 5.004 0 0 0 0-7.072 5.004 5.004 0 0 0-7.072 0 5.004 5.004 0 0 0 0 7.072A5 5 0 0 0 5 407M361 59a5 5 0 0 0 3.536-1.464 5.004 5.004 0 0 0 0-7.072 5.004 5.004 0 0 0-7.072 0 5.004 5.004 0 0 0 0 7.072A5 5 0 0 0 361 59m25 157a5 5 0 0 0 3.536-1.464 5.004 5.004 0 0 0 0-7.072 5.004 5.004 0 0 0-7.072 0 5.004 5.004 0 0 0 0 7.072A5 5 0 0 0 386 216m-97 244a5 5 0 0 0 3.536-1.464 5.004 5.004 0 0 0 0-7.072 5.004 5.004 0 0 0-7.072 0 5.004 5.004 0 0 0 0 7.072A5 5 0 0 0 289 460m-31-161a5 5 0 0 0 3.536-1.464 5.004 5.004 0 0 0 0-7.072 5.004 5.004 0 0 0-7.072 0 5.004 5.004 0 0 0 0 7.072A5 5 0 0 0 258 299m217-56a5 5 0 0 0 3.536-1.464 5.004 5.004 0 0 0 0-7.072 5.004 5.004 0 0 0-7.072 0 5.004 5.004 0 0 0 0 7.072A5 5 0 0 0 475 243M79 411a5 5 0 0 0 3.536-1.464 5.004 5.004 0 0 0 0-7.072 5.004 5.004 0 0 0-7.072 0 5.004 5.004 0 0 0 0 7.072A5 5 0 0 0 79 411M647 75a5 5 0 0 0 3.536-1.464 5.004 5.004 0 0 0 0-7.072 5.004 5.004 0 0 0-7.072 0 5.004 5.004 0 0 0 0 7.072A5 5 0 0 0 647 75m-33 80a5 5 0 0 0 3.536-1.464 5.004 5.004 0 0 0 0-7.072 5.004 5.004 0 0 0-7.072 0 5.004 5.004 0 0 0 0 7.072A5 5 0 0 0 614 155m39 324a5 5 0 0 0 3.536-1.464 5.004 5.004 0 0 0 0-7.072 5.004 5.004 0 0 0-7.072 0 5.004 5.004 0 0 0 0 7.072A5 5 0 0 0 653 479M484 125a5 5 0 0 0 3.536-1.464 5.004 5.004 0 0 0 0-7.072 5.004 5.004 0 0 0-7.072 0 5.004 5.004 0 0 0 0 7.072A5 5 0 0 0 484 125m-96 231a5 5 0 0 0 3.536-1.464 5.004 5.004 0 0 0 0-7.072 5.004 5.004 0 0 0-7.072 0 5.004 5.004 0 0 0 0 7.072A5 5 0 0 0 388 356m-89-96a5 5 0 0 0 3.536-1.464 5.004 5.004 0 0 0 0-7.072 5.004 5.004 0 0 0-7.072 0 5.004 5.004 0 0 0 0 7.072A5 5 0 0 0 299 260m21 0a5 5 0 0 0 3.536-1.464 5.004 5.004 0 0 0 0-7.072 5.004 5.004 0 0 0-7.072 0 5.004 5.004 0 0 0 0 7.072A5 5 0 0 0 320 260m80-98a5 5 0 0 0 3.536-1.464 5.004 5.004 0 0 0 0-7.072 5.004 5.004 0 0 0-7.072 0 5.004 5.004 0 0 0 0 7.072A5 5 0 0 0 400 162M183 373a5 5 0 0 0 3.536-1.464 5.004 5.004 0 0 0 0-7.072 5.004 5.004 0 0 0-7.072 0 5.004 5.004 0 0 0 0 7.072A5 5 0 0 0 183 373M630 67a5 5 0 0 0 3.536-1.464 5.004 5.004 0 0 0 0-7.072 5.004 5.004 0 0 0-7.072 0 5.004 5.004 0 0 0 0 7.072A5 5 0 0 0 630 67M194 392a5 5 0 0 0 3.536-1.464 5.004 5.004 0 0 0 0-7.072 5.004 5.004 0 0 0-7.072 0 5.004 5.004 0 0 0 0 7.072A5 5 0 0 0 194 392m-72 126a5 5 0 0 0 3.536-1.464 5.004 5.004 0 0 0 0-7.072 5.004 5.004 0 0 0-7.072 0 5.004 5.004 0 0 0 0 7.072A5 5 0 0 0 122 518m235-314a5 5 0 0 0 3.536-1.464 5.004 5.004 0 0 0 0-7.072 5.004 5.004 0 0 0-7.072 0 5.004 5.004 0 0 0 0 7.072A5 5 0 0 0 357 204M99 329a5 5 0 0 0 3.536-1.464 5.004 5.004 0 0 0 0-7.072 5.004 5.004 0 0 0-7.072 0 5.004 5.004 0 0 0 0 7.072A5 5 0 0 0 99 329m449 128a5 5 0 0 0 3.536-1.464 5.004 5.004 0 0 0 0-7.072 5.004 5.004 0 0 0-7.072 0 5.004 5.004 0 0 0 0 7.072A5 5 0 0 0 548 457m110-299a5 5 0 0 0 3.536-1.464 5.004 5.004 0 0 0 0-7.072 5.004 5.004 0 0 0-7.072 0 5.004 5.004 0 0 0 0 7.072A5 5 0 0 0 658 158m-278-4a5 5 0 0 0 3.536-1.464 5.004 5.004 0 0 0 0-7.072 5.004 5.004 0 0 0-7.072 0 5.004 5.004 0 0 0 0 7.072A5 5 0 0 0 380 154m-205 62a5 5 0 0 0 3.536-1.464 5.004 5.004 0 0 0 0-7.072 5.004 5.004 0 0 0-7.072 0 5.004 5.004 0 0 0 0 7.072A5 5 0 0 0 175 216m157-31a5 5 0 0 0 3.536-1.464 5.004 5.004 0 0 0 0-7.072 5.004 5.004 0 0 0-7.072 0 5.004 5.004 0 0 0 0 7.072A5 5 0 0 0 332 185M98 490a5 5 0 0 0 3.536-1.464 5.004 5.004 0 0 0 0-7.072 5.004 5.004 0 0 0-7.072 0 5.004 5.004 0 0 0 0 7.072A5 5 0 0 0 98 490m563-103a5 5 0 0 0 3.536-1.464 5.004 5.004 0 0 0 0-7.072 5.004 5.004 0 0 0-7.072 0 5.004 5.004 0 0 0 0 7.072A5 5 0 0 0 661 387M475 532a5 5 0 0 0 3.536-1.464 5.004 5.004 0 0 0 0-7.072 5.004 5.004 0 0 0-7.072 0 5.004 5.004 0 0 0 0 7.072A5 5 0 0 0 475 532M335 402a5 5 0 0 0 3.536-1.464 5.004 5.004 0 0 0 0-7.072 5.004 5.004 0 0 0-7.072 0 5.004 5.004 0 0 0 0 7.072A5 5 0 0 0 335 402m55-3a5 5 0 0 0 3.536-1.464 5.004 5.004 0 0 0 0-7.072 5.004 5.004 0 0 0-7.072 0 5.004 5.004 0 0 0 0 7.072A5 5 0 0 0 390 399"/>
      <path d="M649 481a5 5 0 0 0 3.536-1.464 5.004 5.004 0 0 0 0-7.072 5.004 5.004 0 0 0-7.072 0 5.004 5.004 0 0 0 0 7.072A5 5 0 0 0 649 481m22-105a5 5 0 0 0 3.536-1.464 5.004 5.004 0 0 0 0-7.072 5.004 5.004 0 0 0-7.072 0 5.004 5.004 0 0 0 0 7.072A5 5 0 0 0 671 376M42 38a5 5 0 0 0 3.536-1.464 5.004 5.004 0 0 0 0-7.072 5.004 5.004 0 0 0-7.072 0 5.004 5.004 0 0 0 0 7.072A5 5 0 0 0 42 38m268 495a5 5 0 0 0 3.536-1.464 5.004 5.004 0 0 0 0-7.072 5.004 5.004 0 0 0-7.072 0 5.004 5.004 0 0 0 0 7.072A5 5 0 0 0 310 533M154 92a5 5 0 0 0 3.536-1.464 5.004 5.004 0 0 0 0-7.072 5.004 5.004 0 0 0-7.072 0 5.004 5.004 0 0 0 0 7.072A5 5 0 0 0 154 92m224 139a5 5 0 0 0 3.536-1.464 5.004 5.004 0 0 0 0-7.072 5.004 5.004 0 0 0-7.072 0 5.004 5.004 0 0 0 0 7.072A5 5 0 0 0 378 231m250 80a5 5 0 0 0 3.536-1.464 5.004 5.004 0 0 0 0-7.072 5.004 5.004 0 0 0-7.072 0 5.004 5.004 0 0 0 0 7.072A5 5 0 0 0 628 311m-112-59a5 5 0 0 0 3.536-1.464 5.004 5.004 0 0 0 0-7.072 5.004 5.004 0 0 0-7.072 0 5.004 5.004 0 0 0 0 7.072A5 5 0 0 0 516 252M387 542a5 5 0 0 0 3.536-1.464 5.004 5.004 0 0 0 0-7.072 5.004 5.004 0 0 0-7.072 0 5.004 5.004 0 0 0 0 7.072A5 5 0 0 0 387 542m-84-265a5 5 0 0 0 3.536-1.464 5.004 5.004 0 0 0 0-7.072 5.004 5.004 0 0 0-7.072 0 5.004 5.004 0 0 0 0 7.072A5 5 0 0 0 303 277m-176-94a5 5 0 0 0 3.536-1.464 5.004 5.004 0 0 0 0-7.072 5.004 5.004 0 0 0-7.072 0 5.004 5.004 0 0 0 0 7.072A5 5 0 0 0 127 183m447 180a5 5 0 0 0 3.536-1.464 5.004 5.004 0 0 0 0-7.072 5.004 5.004 0 0 0-7.072 0 5.004 5.004 0 0 0 0 7.072A5 5 0 0 0 574 363m-1 180a5 5 0 0 0 3.536-1.464 5.004 5.004 0 0 0 0-7.072 5.004 5.004 0 0 0-7.072 0 5.004 5.004 0 0 0 0 7.072A5 5 0 0 0 573 543m-24-190a5 5 0 0 0 3.536-1.464 5.004 5.004 0 0 0 0-7.072 5.004 5.004 0 0 0-7.072 0 5.004 5.004 0 0 0 0 7.072A5 5 0 0 0 549 353M62 119a5 5 0 0 0 3.536-1.464 5.004 5.004 0 0 0 0-7.072 5.004 5.004 0 0 0-7.072 0 5.004 5.004 0 0 0 0 7.072A5 5 0 0 0 62 119m535-39a5 5 0 0 0 3.536-1.464 5.004 5.004 0 0 0 0-7.072 5.004 5.004 0 0 0-7.072 0 5.004 5.004 0 0 0 0 7.072A5 5 0 0 0 597 80m-103 0a5 5 0 0 0 3.536-1.464 5.004 5.004 0 0 0 0-7.072 5.004 5.004 0 0 0-7.072 0 5.004 5.004 0 0 0 0 7.072A5 5 0 0 0 494 80M25 217a5 5 0 0 0 3.536-1.464 5.004 5.004 0 0 0 0-7.072 5.004 5.004 0 0 0-7.072 0 5.004 5.004 0 0 0 0 7.072A5 5 0 0 0 25 217M338 48a5 5 0 0 0 3.536-1.464 5.004 5.004 0 0 0 0-7.072 5.004 5.004 0 0 0-7.072 0 5.004 5.004 0 0 0 0 7.072A5 5 0 0 0 338 48M82 51a5 5 0 0 0 3.536-1.464 5.004 5.004 0 0 0 0-7.072 5.004 5.004 0 0 0-7.072 0 5.004 5.004 0 0 0 0 7.072A5 5 0 0 0 82 51m441 375a5 5 0 0 0 3.536-1.464 5.004 5.004 0 0 0 0-7.072 5.004 5.004 0 0 0-7.072 0 5.004 5.004 0 0 0 0 7.072A5 5 0 0 0 523 426m-243-89a5 5 0 0 0 3.536-1.464 5.004 5.004 0 0 0 0-7.072 5.004 5.004 0 0 0-7.072 0 5.004 5.004 0 0 0 0 7.072A5 5 0 0 0 280 337m99-226a5 5 0 0 0 3.536-1.464 5.004 5.004 0 0 0 0-7.072 5.004 5.004 0 0 0-7.072 0 5.004 5.004 0 0 0 0 7.072A5 5 0 0 0 379 111m36 413a5 5 0 0 0 3.536-1.464 5.004 5.004 0 0 0 0-7.072 5.004 5.004 0 0 0-7.072 0 5.004 5.004 0 0 0 0 7.072A5 5 0 0 0 415 524M311 129a5 5 0 0 0 3.536-1.464 5.004 5.004 0 0 0 0-7.072 5.004 5.004 0 0 0-7.072 0 5.004 5.004 0 0 0 0 7.072A5 5 0 0 0 311 129m66 364a5 5 0 0 0 3.536-1.464 5.004 5.004 0 0 0 0-7.072 5.004 5.004 0 0 0-7.072 0 5.004 5.004 0 0 0 0 7.072A5 5 0 0 0 377 493m162-236a5 5 0 0 0 3.536-1.464 5.004 5.004 0 0 0 0-7.072 5.004 5.004 0 0 0-7.072 0 5.004 5.004 0 0 0 0 7.072A5 5 0 0 0 539 257M90 398a5 5 0 0 0 3.536-1.464 5.004 5.004 0 0 0 0-7.072 5.004 5.004 0 0 0-7.072 0 5.004 5.004 0 0 0 0 7.072A5 5 0 0 0 90 398M608 83a5 5 0 0 0 3.536-1.464 5.004 5.004 0 0 0 0-7.072 5.004 5.004 0 0 0-7.072 0 5.004 5.004 0 0 0 0 7.072A5 5 0 0 0 608 83M70 184a5 5 0 0 0 3.536-1.464 5.004 5.004 0 0 0 0-7.072 5.004 5.004 0 0 0-7.072 0 5.004 5.004 0 0 0 0 7.072A5 5 0 0 0 70 184m355 139a5 5 0 0 0 3.536-1.464 5.004 5.004 0 0 0 0-7.072 5.004 5.004 0 0 0-7.072 0 5.004 5.004 0 0 0 0 7.072A5 5 0 0 0 425 323M144 476a5 5 0 0 0 3.536-1.464 5.004 5.004 0 0 0 0-7.072 5.004 5.004 0 0 0-7.072 0 5.004 5.004 0 0 0 0 7.072A5 5 0 0 0 144 476m451-140a5 5 0 0 0 3.536-1.464 5.004 5.004 0 0 0 0-7.072 5.004 5.004 0 0 0-7.072 0 5.004 5.004 0 0 0 0 7.072A5 5 0 0 0 595 336m-180 47a5 5 0 0 0 3.536-1.464 5.004 5.004 0 0 0 0-7.072 5.004 5.004 0 0 0-7.072 0 5.004 5.004 0 0 0 0 7.072A5 5 0 0 0 415 383m283-157a5 5 0 0 0 3.536-1.464 5.004 5.004 0 0 0 0-7.072 5.004 5.004 0 0 0-7.072 0 5.004 5.004 0 0 0 0 7.072A5 5 0 0 0 698 226M590 96a5 5 0 0 0 3.536-1.464 5.004 5.004 0 0 0 0-7.072 5.004 5.004 0 0 0-7.072 0 5.004 5.004 0 0 0 0 7.072A5 5 0 0 0 590 96m49-35a5 5 0 0 0 3.536-1.464 5.004 5.004 0 0 0 0-7.072 5.004 5.004 0 0 0-7.072 0 5.004 5.004 0 0 0 0 7.072A5 5 0 0 0 639 61m0 85a5 5 0 0 0 3.536-1.464 5.004 5.004 0 0 0 0-7.072 5.004 5.004 0 0 0-7.072 0 5.004 5.004 0 0 0 0 7.072A5 5 0 0 0 639 146m-252-10a5 5 0 0 0 3.536-1.464 5.004 5.004 0 0 0 0-7.072 5.004 5.004 0 0 0-7.072 0 5.004 5.004 0 0 0 0 7.072A5 5 0 0 0 387 136m236 363a5 5 0 0 0 3.536-1.464 5.004 5.004 0 0 0 0-7.072 5.004 5.004 0 0 0-7.072 0 5.004 5.004 0 0 0 0 7.072A5 5 0 0 0 623 499M87 509a5 5 0 0 0 3.536-1.464 5.004 5.004 0 0 0 0-7.072 5.004 5.004 0 0 0-7.072 0 5.004 5.004 0 0 0 0 7.072A5 5 0 0 0 87 509m163-342a5 5 0 0 0 3.536-1.464 5.004 5.004 0 0 0 0-7.072 5.004 5.004 0 0 0-7.072 0 5.004 5.004 0 0 0 0 7.072A5 5 0 0 0 250 167M85 10a5 5 0 0 0 3.536-1.464 5.004 5.004 0 0 0 0-7.072 5.004 5.004 0 0 0-7.072 0 5.004 5.004 0 0 0 0 7.072A5 5 0 0 0 85 10m482 451a5 5 0 0 0 3.536-1.464 5.004 5.004 0 0 0 0-7.072 5.004 5.004 0 0 0-7.072 0 5.004 5.004 0 0 0 0 7.072A5 5 0 0 0 567 461m98 25a5 5 0 0 0 3.536-1.464 5.004 5.004 0 0 0 0-7.072 5.004 5.004 0 0 0-7.072 0 5.004 5.004 0 0 0 0 7.072A5 5 0 0 0 665 486M160 338a5 5 0 0 0 3.536-1.464 5.004 5.004 0 0 0 0-7.072 5.004 5.004 0 0 0-7.072 0 5.004 5.004 0 0 0 0 7.072A5 5 0 0 0 160 338M69 535a5 5 0 0 0 3.536-1.464 5.004 5.004 0 0 0 0-7.072 5.004 5.004 0 0 0-7.072 0 5.004 5.004 0 0 0 0 7.072A5 5 0 0 0 69 535m25-332a5 5 0 0 0 3.536-1.464 5.004 5.004 0 0 0 0-7.072 5.004 5.004 0 0 0-7.072 0 5.004 5.004 0 0 0 0 7.072A5 5 0 0 0 94 203m381-20a5 5 0 0 0 3.536-1.464 5.004 5.004 0 0 0 0-7.072 5.004 5.004 0 0 0-7.072 0 5.004 5.004 0 0 0 0 7.072A5 5 0 0 0 475 183m-43-89a5 5 0 0 0 3.536-1.464 5.004 5.004 0 0 0 0-7.072 5.004 5.004 0 0 0-7.072 0 5.004 5.004 0 0 0 0 7.072A5 5 0 0 0 432 94m-70 232a5 5 0 0 0 3.536-1.464 5.004 5.004 0 0 0 0-7.072 5.004 5.004 0 0 0-7.072 0 5.004 5.004 0 0 0 0 7.072A5 5 0 0 0 362 326m127-25a5 5 0 0 0 3.536-1.464 5.004 5.004 0 0 0 0-7.072 5.004 5.004 0 0 0-7.072 0 5.004 5.004 0 0 0 0 7.072A5 5 0 0 0 489 301m-287 12a5 5 0 0 0 3.536-1.464 5.004 5.004 0 0 0 0-7.072 5.004 5.004 0 0 0-7.072 0 5.004 5.004 0 0 0 0 7.072A5 5 0 0 0 202 313m454-84a5 5 0 0 0 3.536-1.464 5.004 5.004 0 0 0 0-7.072 5.004 5.004 0 0 0-7.072 0 5.004 5.004 0 0 0 0 7.072A5 5 0 0 0 656 229"/>
    </g>
    <path stroke="#FFF" stroke-linecap="square" stroke-width="3" d="M767.5 271.5h208"/>
    <path fill="#FFF" d="M989 271.5 964 284v-25"/>
  </g>
</svg>
