<svg xmlns="http://www.w3.org/2000/svg" width="600" height="360" fill="none" viewBox="0 0 600 360" xmlns:xlink="http://www.w3.org/1999/xlink">
  <g opacity=".5">
    <mask id="a" width="600" height="360" x="0" y="0" mask-type="alpha" maskUnits="userSpaceOnUse">
      <path fill="#00BC7F" d="M0 0h600v360H0z"/>
    </mask>
    <g mask="url(#a)">
      <path fill="url(#b)" d="M417.339 324.572c-.24 0-.401-.08-.481-.321-.16-.321-.08-.641.241-.802l18.677-10.823c.32-.161.641-.08.801.24.16.321.08.642-.24.802l-18.677 10.824c-.08.08-.16.08-.321.08" opacity=".8"/>
      <path fill="url(#c)" d="M436.096 313.828c-.24 0-.401-.08-.481-.32-.16-.321-.08-.642.241-.802l18.676-10.823c.321-.161.641-.081.802.24.16.321.08.642-.241.802l-18.676 10.823c-.161 0-.241.08-.321.08" opacity=".9"/>
      <path fill="url(#d)" d="M454.773 324.572c-.241 0-.401-.08-.481-.321-.16-.321-.08-.641.24-.802l18.677-10.823c.32-.161.641-.08.801.24.161.321.081.642-.24.802l-18.676 10.824c-.161.08-.241.08-.321.08" opacity=".6"/>
      <path fill="url(#e)" d="M454.773 303.005c-.241 0-.401-.08-.481-.321-.16-.32-.08-.641.24-.801l18.677-10.824c.32-.16.641-.08.801.241s.081.641-.24.802l-18.676 10.823c-.161.08-.241.08-.321.08" opacity=".6"/>
      <path fill="url(#f)" d="M342.633 367.785c-.241 0-.401-.08-.481-.321-.161-.32-.081-.641.24-.801l18.677-10.824c.32-.16.641-.08.801.241.161.32.081.641-.24.801l-18.677 10.824c-.16 0-.24.08-.32.08" opacity=".4"/>
      <path fill="url(#g)" d="M361.309 356.962c-.24 0-.401-.081-.481-.321-.16-.321-.08-.642.241-.802l18.676-10.823c.321-.161.642-.08.802.24.16.321.08.642-.24.802l-18.677 10.823c-.08.081-.241.081-.321.081" opacity=".5"/>
      <path fill="url(#h)" d="M379.986 367.785c-.241 0-.401-.08-.481-.321-.16-.32-.08-.641.24-.801l18.677-10.824c.321-.16.641-.08.802.241.16.32.08.641-.241.801l-18.676 10.824c-.081 0-.241.08-.321.08" opacity=".6"/>
      <path fill="url(#i)" d="M379.986 346.138c-.241 0-.401-.08-.481-.32-.16-.321-.08-.642.24-.802l18.677-10.824c.321-.16.641-.08.802.241.16.321.08.641-.241.802l-18.676 10.823c-.081.08-.241.08-.321.08" opacity=".6"/>
      <path fill="url(#j)" d="M398.663 356.962c-.241 0-.401-.081-.481-.321-.161-.321-.081-.642.24-.802l18.677-10.823c.32-.161.641-.08.801.24.161.321.08.642-.24.802l-18.677 10.823c-.08.081-.16.081-.32.081" opacity=".7"/>
      <path fill="url(#k)" d="M417.339 367.785c-.24 0-.401-.08-.481-.321-.16-.32-.08-.641.241-.801l18.677-10.824c.32-.16.641-.08.801.241.16.32.08.641-.24.801l-18.677 10.824c-.08 0-.16.08-.321.08" opacity=".8"/>
      <path fill="url(#l)" d="M398.663 335.395c-.241 0-.401-.08-.481-.321-.161-.32-.081-.641.24-.801l18.677-10.824c.32-.16.641-.08.801.241s.08.641-.24.802l-18.677 10.823c-.08 0-.16.08-.32.08" opacity=".7"/>
      <path fill="url(#m)" d="M417.339 346.138c-.24 0-.401-.08-.481-.32-.16-.321-.08-.642.241-.802l18.677-10.824c.32-.16.641-.08.801.241s.08.641-.24.802l-18.677 10.823c-.08.08-.16.08-.321.08" opacity=".8"/>
      <path fill="url(#n)" d="M436.096 356.962c-.24 0-.401-.081-.481-.321-.16-.321-.08-.642.241-.802l18.676-10.823c.321-.161.641-.08.802.24.16.321.08.642-.241.802l-18.676 10.823a.6.6 0 0 1-.321.081" opacity=".9"/>
      <path fill="url(#o)" d="M454.773 367.785c-.241 0-.401-.08-.481-.321-.16-.32-.08-.641.24-.801l18.677-10.824c.32-.16.641-.08.801.241.161.32.081.641-.24.801l-18.676 10.824c-.161 0-.241.08-.321.08" opacity=".6"/>
      <path fill="url(#p)" d="M436.096 335.395c-.24 0-.401-.08-.481-.321-.16-.32-.08-.641.241-.801l18.676-10.824c.321-.16.641-.08.802.241.16.321.08.641-.241.802l-18.676 10.823c-.161 0-.241.08-.321.08" opacity=".9"/>
      <path fill="url(#q)" d="M454.773 346.138c-.241 0-.401-.08-.481-.32-.16-.321-.08-.642.24-.802l18.677-10.824c.32-.16.641-.08.801.241s.081.641-.24.802l-18.676 10.823c-.161.08-.241.08-.321.08" opacity=".6"/>
      <path fill="#BDBEC2" d="M641.62 389.351c-.241 0-.401-.08-.481-.32-.161-.321-.08-.642.24-.802l18.677-10.823c.321-.161.641-.081.802.24.16.321.08.642-.241.802l-18.677 10.823c-.08 0-.16.08-.32.08m-18.677-10.823c-.24 0-.401-.08-.481-.321-.16-.32-.08-.641.241-.801l37.353-21.567c.321-.16.641-.08.802.241.16.32.08.641-.241.801l-37.353 21.567c-.08.08-.241.08-.321.08m-18.677-10.743c-.24 0-.4-.08-.48-.321-.161-.321-.081-.641.24-.802l56.03-32.389c.321-.161.641-.081.802.24.16.321.08.641-.241.802l-56.03 32.39c-.08 0-.24.08-.321.08m-18.676-10.823c-.241 0-.401-.081-.481-.321-.16-.321-.08-.642.24-.802l74.787-43.133c.321-.16.641-.08.802.241.16.32.08.641-.241.801l-74.787 43.133c-.16.081-.24.081-.32.081m-18.677-10.824c-.24 0-.401-.08-.481-.321-.16-.32-.08-.641.241-.801l93.463-53.957c.321-.16.641-.08.802.241.16.321.08.641-.241.802l-93.463 53.956c-.161.08-.241.08-.321.08m-18.677-10.743c-.24 0-.4-.08-.481-.321-.16-.32-.08-.641.241-.801l112.14-64.78c.321-.161.641-.08.802.24.16.321.08.642-.241.802l-112.14 64.78c-.16 0-.24.08-.321.08m-18.756-10.823c-.241 0-.401-.08-.481-.321-.161-.321-.08-.641.24-.802l130.817-75.523c.321-.16.641-.08.802.241.16.321.08.641-.241.802L529.8 324.491c-.08.081-.16.081-.32.081m-18.677-10.744c-.24 0-.401-.08-.481-.32-.16-.321-.08-.642.24-.802l149.494-86.346c.321-.161.641-.08.802.24.16.321.08.642-.241.802l-149.493 86.346c-.081 0-.241.08-.321.08m-18.677-10.823c-.24 0-.401-.08-.481-.321-.16-.32-.08-.641.241-.801l168.17-97.09c.321-.16.641-.08.802.241.16.32.08.641-.241.802l-168.17 97.089c-.08.08-.241.08-.321.08m-18.676-10.823c-.241 0-.401-.08-.481-.321-.161-.321-.081-.641.24-.802l186.927-107.912c.321-.161.641-.081.802.24.16.321.08.641-.241.802L473.77 292.102c-.16.08-.24.08-.32.08" opacity=".8"/>
      <path fill="url(#r)" d="M660.297 680.7c-.081 0-.241 0-.321-.08L473.049 572.707c-.321-.16-.401-.561-.241-.802.161-.32.562-.401.802-.24l186.927 107.913c.321.16.401.561.24.801 0 .241-.24.321-.48.321m0-21.567c-.081 0-.241 0-.321-.08L473.049 551.141c-.321-.161-.401-.562-.241-.802.161-.321.562-.401.802-.241l186.927 107.913c.321.16.401.561.24.802 0 .24-.24.32-.48.32m0-21.566c-.081 0-.241 0-.321-.08L473.129 529.574c-.32-.16-.401-.561-.24-.802.16-.32.561-.401.801-.24l186.927 107.913c.321.16.401.561.241.801-.08.161-.321.321-.561.321m0-21.567c-.081 0-.241 0-.321-.08L473.129 507.927c-.32-.16-.401-.561-.24-.801.16-.321.561-.401.801-.241l186.927 107.913c.321.16.401.561.241.802-.08.24-.321.4-.561.4m0-21.646c-.081 0-.241 0-.321-.08L473.049 486.361c-.321-.161-.401-.561-.241-.802.161-.321.562-.401.802-.241l186.927 107.913c.321.161.401.562.24.802 0 .241-.24.321-.48.321m0-21.567c-.081 0-.241 0-.321-.08L473.049 464.794c-.321-.16-.401-.561-.241-.801.161-.321.562-.401.802-.241l186.927 107.913c.321.16.401.561.24.802 0 .24-.24.32-.48.32m0-21.566c-.081 0-.241 0-.321-.08L473.049 443.228c-.321-.161-.401-.562-.241-.802.161-.321.562-.401.802-.241l186.927 107.913c.321.161.401.561.24.802 0 .241-.24.321-.48.321m0-21.567c-.081 0-.241 0-.321-.08L473.049 421.661c-.321-.16-.401-.561-.241-.802.161-.32.562-.4.802-.24l186.927 107.913c.321.16.401.561.24.801 0 .161-.24.321-.48.321m0-21.566c-.081 0-.241 0-.321-.081L473.049 400.095c-.321-.161-.401-.562-.241-.802.161-.321.562-.401.802-.241l186.927 107.913c.321.161.401.561.24.802 0 .16-.24.321-.48.321m0-21.647c-.081 0-.241 0-.321-.08L473.049 378.448c-.321-.16-.401-.561-.241-.802.161-.32.562-.401.802-.24l186.927 107.912c.321.161.401.562.24.802 0 .241-.24.321-.48.321m0-21.567c-.081 0-.241 0-.321-.08L473.049 356.881c-.321-.16-.401-.561-.241-.801.161-.321.562-.401.802-.241l186.927 107.913c.321.16.401.561.24.802 0 .24-.24.32-.48.32m0-21.566c-.081 0-.241 0-.321-.08L473.049 335.315c-.321-.16-.401-.561-.241-.802.161-.321.562-.401.802-.24l187.007 107.912c.321.161.401.562.241.802-.08.241-.321.321-.561.321m0-21.567c-.081 0-.241 0-.321-.08L473.049 313.748c-.321-.16-.401-.561-.241-.801.161-.321.562-.401.802-.241l186.927 107.913c.321.16.401.561.24.802 0 .16-.24.32-.48.32m0-21.646c-.081 0-.241 0-.321-.08L473.049 292.102c-.321-.161-.401-.562-.241-.802.161-.321.562-.401.802-.241l186.927 107.913c.321.161.401.561.24.802 0 .24-.24.321-.48.321" opacity=".6"/>
      <g opacity=".75">
        <path fill="url(#s)" d="M128.311 94.342c.24 0 .401.08.481.32.16.321.08.642-.241.802l-18.676 10.823c-.321.161-.642.081-.802-.24s-.08-.641.24-.802l18.677-10.823c.08-.08.16-.08.321-.08"/>
        <path fill="url(#t)" d="M109.554 105.085c.24 0 .401.08.481.321.16.32.08.641-.241.801l-18.676 10.824c-.32.16-.641.08-.802-.241-.16-.321-.08-.641.24-.802l18.677-10.823c.161 0 .241-.08.321-.08"/>
        <path fill="url(#u)" d="M90.877 94.342c.24 0 .4.08.481.32.16.321.08.642-.24.802L72.44 106.287c-.32.161-.641.081-.801-.24s-.08-.641.24-.802l18.677-10.823c.16-.08.24-.08.32-.08"/>
        <path fill="url(#v)" d="M90.877 115.908c.24 0 .4.08.481.321.16.321.08.641-.24.802L72.44 127.854c-.32.16-.641.08-.801-.241-.16-.32-.08-.641.24-.801l18.677-10.824c.16-.08.24-.08.32-.08"/>
        <path fill="url(#w)" d="M203.017 51.128c.241 0 .401.08.481.321.161.32.081.642-.24.802l-18.677 10.823c-.32.16-.641.08-.801-.24-.161-.321-.081-.642.24-.802l18.677-10.823c.16 0 .24-.08.32-.08"/>
        <path fill="url(#x)" d="M184.341 61.952c.24 0 .401.08.481.32.16.321.08.642-.241.802l-18.676 10.823c-.321.16-.642.08-.802-.24s-.08-.641.24-.802l18.677-10.823c.08-.08.241-.08.321-.08"/>
        <path fill="url(#y)" d="M165.664 51.128c.241 0 .401.08.481.321.16.32.08.642-.24.802l-18.677 10.823c-.321.16-.641.08-.802-.24-.16-.321-.08-.642.241-.802l18.676-10.823c.081 0 .241-.08.321-.08"/>
        <path fill="url(#z)" d="M165.664 72.775c.241 0 .401.08.481.32.16.321.08.642-.24.802l-18.677 10.824c-.321.16-.641.08-.802-.24-.16-.321-.08-.642.241-.802l18.676-10.824c.081-.08.241-.08.321-.08"/>
        <path fill="url(#A)" d="M146.987 61.952c.241 0 .401.08.481.32.161.321.081.642-.24.802l-18.677 10.823c-.32.16-.641.08-.801-.24s-.08-.641.24-.802l18.677-10.823c.08-.08.16-.08.32-.08"/>
        <path fill="url(#B)" d="M128.311 51.128c.24 0 .401.08.481.321.16.32.08.642-.241.802l-18.676 10.823c-.321.16-.642.08-.802-.24-.16-.321-.08-.642.24-.802l18.677-10.823c.08 0 .16-.08.321-.08"/>
        <path fill="url(#C)" d="M146.987 83.518c.241 0 .401.08.481.32.161.322.081.642-.24.803l-18.677 10.823c-.32.16-.641.08-.801-.24-.161-.321-.08-.642.24-.802l18.677-10.824c.08 0 .16-.08.32-.08"/>
        <path fill="url(#D)" d="M128.311 72.775c.24 0 .401.08.481.32.16.321.08.642-.241.802l-18.676 10.824c-.321.16-.642.08-.802-.24-.16-.321-.08-.642.24-.802l18.677-10.824c.08-.08.16-.08.321-.08"/>
        <path fill="url(#E)" d="M109.554 61.952c.24 0 .401.08.481.32.16.321.08.642-.241.802L91.118 73.897c-.32.16-.641.08-.802-.24-.16-.32-.08-.641.24-.802l18.677-10.823c.161-.08.241-.08.321-.08"/>
        <path fill="url(#F)" d="M90.877 51.128c.24 0 .4.08.481.321.16.32.08.642-.24.802L72.44 63.074c-.32.16-.641.08-.801-.24-.16-.321-.08-.642.24-.802l18.677-10.823c.16 0 .24-.08.32-.08"/>
        <path fill="url(#G)" d="M109.554 83.518c.24 0 .401.08.481.32.16.322.08.642-.241.803L91.118 95.464c-.32.16-.641.08-.802-.24-.16-.321-.08-.642.24-.802l18.677-10.824c.161 0 .241-.08.321-.08"/>
        <path fill="url(#H)" d="M90.877 72.775c.24 0 .4.08.481.32.16.321.08.642-.24.802L72.44 84.721c-.32.16-.641.08-.801-.24-.16-.321-.08-.642.24-.802l18.677-10.824c.16-.08.24-.08.32-.08"/>
        <path fill="url(#I)" d="M277.804 7.995c.241 0 .401.08.481.321.161.32.081.641-.24.802L259.368 19.94c-.32.16-.641.08-.801-.24-.161-.321-.081-.642.24-.802l18.677-10.824c.08-.08.16-.08.32-.08"/>
        <path fill="url(#J)" d="M259.128 18.819c.24 0 .4.08.481.32.16.321.08.642-.241.802l-18.677 10.824c-.32.16-.641.08-.801-.241-.161-.32-.08-.641.24-.802L258.807 18.9c.08-.08.16-.08.321-.08"/>
        <path fill="url(#K)" d="M240.371 7.995c.24 0 .401.08.481.321.16.32.08.641-.241.802L221.935 19.94c-.321.16-.642.08-.802-.24-.16-.321-.08-.642.241-.802L240.05 8.075c.16-.08.241-.08.321-.08"/>
        <path fill="url(#L)" d="M240.371 29.562c.24 0 .401.08.481.32.16.321.08.642-.241.802l-18.676 10.824c-.321.16-.642.08-.802-.24-.16-.322-.08-.642.241-.803l18.676-10.823c.16 0 .241-.08.321-.08"/>
        <path fill="url(#M)" d="M221.694 18.819c.241 0 .401.08.481.32.161.321.08.642-.24.802l-18.677 10.824c-.321.16-.641.08-.802-.241-.16-.32-.08-.641.241-.802L221.374 18.9c.16-.08.24-.08.32-.08"/>
        <path fill="url(#N)" d="M203.017 7.995c.241 0 .401.08.481.321.161.32.081.641-.24.802L184.581 19.94c-.32.16-.641.08-.801-.24-.161-.321-.081-.642.24-.802l18.677-10.824c.16-.08.24-.08.32-.08"/>
        <path fill="url(#O)" d="M221.694 40.385c.241 0 .401.08.481.32.161.322.08.642-.24.803L203.258 52.33c-.321.16-.641.08-.802-.24-.16-.321-.08-.642.241-.802l18.677-10.824c.16-.08.24-.08.32-.08"/>
        <path fill="url(#P)" d="M203.017 29.562c.241 0 .401.08.481.32.161.321.081.642-.24.802l-18.677 10.824c-.32.16-.641.08-.801-.24-.161-.322-.081-.642.24-.803l18.677-10.823c.16 0 .24-.08.32-.08"/>
        <path fill="url(#Q)" d="M184.341 18.819c.24 0 .401.08.481.32.16.321.08.642-.241.802l-18.676 10.824c-.321.16-.642.08-.802-.241-.16-.32-.08-.641.24-.802L184.02 18.9c.08-.08.241-.08.321-.08"/>
        <path fill="url(#R)" d="M165.664 7.995c.241 0 .401.08.481.321.16.32.08.641-.24.802L147.228 19.94c-.321.16-.641.08-.802-.24-.16-.321-.08-.642.241-.802l18.676-10.824c.081-.08.241-.08.321-.08"/>
        <path fill="url(#S)" d="M184.341 40.385c.24 0 .401.08.481.32.16.322.08.642-.241.803L165.905 52.33c-.321.16-.642.08-.802-.24-.16-.321-.08-.642.24-.802l18.677-10.824c.08-.08.241-.08.321-.08"/>
        <path fill="url(#T)" d="M165.664 29.562c.241 0 .401.08.481.32.16.321.08.642-.24.802l-18.677 10.824c-.321.16-.641.08-.802-.24-.16-.322-.08-.642.241-.803l18.676-10.823c.081 0 .241-.08.321-.08"/>
        <path fill="url(#U)" d="M146.987 18.819c.241 0 .401.08.481.32.161.321.081.642-.24.802l-18.677 10.824c-.32.16-.641.08-.801-.241-.161-.32-.08-.641.24-.802L146.667 18.9c.08-.08.16-.08.32-.08"/>
        <path fill="url(#V)" d="M128.311 7.995c.24 0 .401.08.481.321.16.32.08.641-.241.802L109.875 19.94c-.321.16-.642.08-.802-.24-.16-.321-.08-.642.24-.802L127.99 8.075c.08-.08.16-.08.321-.08"/>
        <path fill="url(#W)" d="M146.987 40.385c.241 0 .401.08.481.32.161.322.081.642-.24.803L128.551 52.33c-.32.16-.641.08-.801-.24-.161-.321-.08-.642.24-.802l18.677-10.824c.08-.08.16-.08.32-.08"/>
        <path fill="url(#X)" d="M128.311 29.562c.24 0 .401.08.481.32.16.321.08.642-.241.802l-18.676 10.824c-.321.16-.642.08-.802-.24-.16-.322-.08-.642.24-.803l18.677-10.823c.08 0 .16-.08.321-.08"/>
        <path fill="url(#Y)" d="M109.554 18.819c.24 0 .401.08.481.32.16.321.08.642-.241.802L91.118 30.765c-.32.16-.641.08-.802-.241-.16-.32-.08-.641.24-.802L109.234 18.9c.161-.08.241-.08.321-.08"/>
        <path fill="url(#Z)" d="M90.877 7.995c.24 0 .4.08.481.321.16.32.08.641-.24.802L72.44 19.94c-.32.16-.641.08-.801-.24-.16-.321-.08-.642.24-.802L90.557 8.075c.16-.08.24-.08.32-.08"/>
        <path fill="url(#aa)" d="M109.554 40.385c.24 0 .401.08.481.32.16.322.08.642-.241.803L91.118 52.33c-.32.16-.641.08-.802-.24-.16-.321-.08-.642.24-.802l18.677-10.824c.161-.08.241-.08.321-.08"/>
        <path fill="url(#ab)" d="M90.877 29.562c.24 0 .4.08.481.32.16.321.08.642-.24.802L72.44 41.508c-.32.16-.641.08-.801-.24-.16-.322-.08-.642.24-.803l18.677-10.823c.16 0 .24-.08.32-.08"/>
        <path fill="url(#ac)" d="M296.481-2.828c.24 0 .401.08.481.32.16.321.08.642-.241.803L278.045 9.118c-.321.16-.641.08-.802-.24-.16-.321-.08-.642.241-.802L296.16-2.748c.08 0 .241-.08.321-.08"/>
        <path fill="url(#ad)" d="M259.128-2.828c.24 0 .4.08.481.32.16.321.08.642-.241.803L240.691 9.118c-.32.16-.641.08-.801-.24-.161-.321-.08-.642.24-.802l18.677-10.824c.08 0 .16-.08.321-.08"/>
        <path fill="url(#ae)" d="M221.694-2.828c.241 0 .401.08.481.32.161.321.08.642-.24.803L203.258 9.118c-.321.16-.641.08-.802-.24-.16-.321-.08-.642.241-.802l18.677-10.824c.16 0 .24-.08.32-.08"/>
        <path fill="url(#af)" d="M184.341-2.828c.24 0 .401.08.481.32.16.321.08.642-.241.803L165.905 9.118c-.321.16-.642.08-.802-.24-.16-.321-.08-.642.24-.802L184.02-2.748c.08 0 .241-.08.321-.08"/>
        <path fill="url(#ag)" d="M146.987-2.828c.241 0 .401.08.481.32.161.321.081.642-.24.803L128.551 9.118c-.32.16-.641.08-.801-.24-.161-.321-.08-.642.24-.802l18.677-10.824c.08 0 .16-.08.32-.08"/>
        <path fill="url(#ah)" d="M109.554-2.828c.24 0 .401.08.481.32.16.321.08.642-.241.803L91.118 9.118c-.32.16-.641.08-.802-.24-.16-.321-.08-.642.24-.802l18.677-10.824c.161 0 .241-.08.321-.08"/>
      </g>
      <path fill="url(#ai)" d="M-95.97 29.562c.24 0 .401.08.481.32.16.321.08.642-.24.802l-18.677 10.824c-.321.16-.641.08-.802-.24-.16-.322-.08-.642.241-.803l18.677-10.823c.08 0 .16-.08.32-.08m18.677 10.823c.24 0 .4.08.48.32.161.322.081.642-.24.803l-37.353 21.566c-.321.16-.641.08-.802-.24-.16-.321-.08-.642.241-.802l37.353-21.567c.08-.08.24-.08.32-.08m18.677 10.743c.24 0 .4.08.48.321.16.32.08.641-.24.802l-56.03 32.39c-.321.16-.641.08-.802-.24-.16-.322-.08-.642.241-.803l56.03-32.39c.08 0 .24-.08.32-.08m18.676 10.824c.24 0 .401.08.481.32.16.321.08.642-.24.802l-74.787 43.133c-.321.16-.641.08-.802-.24-.16-.321-.08-.642.241-.802l74.787-43.133c.16-.08.24-.08.32-.08m18.677 10.823c.24 0 .4.08.48.32.161.321.081.642-.24.802l-93.463 53.957c-.321.16-.641.08-.802-.241-.16-.32-.08-.641.241-.801l93.463-53.957c.16-.08.24-.08.32-.08m18.677 10.743c.24 0 .4.08.48.32.16.322.08.642-.24.803l-112.14 64.779c-.321.161-.641.081-.802-.24-.16-.321-.08-.642.241-.802l112.14-64.78c.16 0 .24-.08.32-.08m18.76 10.824c.24 0 .4.08.48.32.16.32.08.642-.24.802l-130.817 75.523c-.321.16-.641.08-.802-.241-.16-.32-.08-.641.241-.801L15.85 94.422c.08-.08.16-.08.32-.08m18.676 10.743c.24 0 .4.08.481.32.16.321.08.642-.24.802l-149.494 86.346c-.321.161-.641.081-.802-.24-.16-.321-.08-.641.241-.802l149.493-86.346c.08 0 .24-.08.321-.08m18.677 10.823c.24 0 .4.08.48.321.161.32.08.641-.24.802l-168.17 97.089c-.321.16-.641.08-.802-.241-.16-.32-.08-.641.241-.801l168.17-97.09c.08-.08.24-.08.32-.08M72.2 126.731c.24 0 .401.081.481.321.16.321.08.642-.24.802l-186.927 107.913c-.321.16-.641.08-.802-.241-.16-.321-.08-.641.241-.802L71.88 126.812c.16-.081.24-.081.32-.081" opacity=".8"/>
      <path fill="url(#aj)" d="M-114.647-261.787c.081 0 .241 0 .321.08L72.601-153.794c.32.161.4.562.24.802-.16.321-.56.401-.801.241l-186.927-107.913c-.321-.161-.401-.561-.24-.802 0-.24.24-.321.48-.321m0 21.567c.081 0 .241 0 .321.08L72.601-132.227c.32.16.4.561.24.802-.16.32-.56.4-.801.24l-186.927-107.913c-.321-.16-.401-.561-.24-.801 0-.241.24-.321.48-.321m0 21.566c.081 0 .241 0 .321.081L72.521-110.661c.32.161.4.562.24.802-.16.321-.56.401-.801.241l-186.927-107.913c-.321-.161-.401-.561-.241-.802.08-.16.321-.321.561-.321m0 21.567c.081 0 .241 0 .321.08L72.521-89.014c.32.16.4.561.24.802-.16.32-.56.4-.801.24l-186.927-107.913c-.321-.16-.401-.561-.241-.801a.6.6 0 0 1 .561-.401m0 21.647c.081 0 .241 0 .321.08L72.601-67.447c.32.16.4.56.24.801-.16.321-.56.401-.801.24l-186.927-107.912c-.321-.16-.401-.561-.24-.802 0-.24.24-.32.48-.32m0 21.566c.081 0 .241 0 .321.08L72.601-45.881c.32.16.4.561.24.802-.16.32-.56.4-.801.24L-114.887-152.75c-.321-.161-.401-.562-.24-.802 0-.241.24-.321.48-.321m0 21.567c.081 0 .241 0 .321.08L72.601-24.314c.32.16.4.56.24.801-.16.321-.56.401-.801.24l-186.927-107.912c-.321-.16-.401-.561-.24-.802 0-.24.24-.32.48-.32m0 21.566c.081 0 .241 0 .321.08L72.601-2.748c.32.16.4.561.24.802-.16.32-.56.4-.801.24l-186.927-107.912c-.321-.161-.401-.562-.24-.802 0-.16.24-.321.48-.321m0 21.567c.081 0 .241 0 .321.08L72.601 18.819c.32.16.4.56.24.801-.16.321-.56.401-.801.24L-114.887-88.051c-.321-.16-.401-.561-.24-.802 0-.16.24-.32.48-.32m0 21.646c.081 0 .241 0 .321.08L72.601 40.466c.32.16.4.562.24.802-.16.32-.56.401-.801.24L-114.887-66.404c-.321-.16-.401-.561-.24-.802 0-.24.24-.32.48-.32m0 21.567c.081 0 .241 0 .321.08L72.601 62.032c.32.16.4.561.24.802-.16.32-.56.4-.801.24L-114.887-44.839c-.321-.16-.401-.56-.24-.801 0-.24.24-.321.48-.321m0 21.566c.081 0 .241 0 .321.08L72.601 83.599c.32.16.4.562.24.802-.16.32-.56.401-.801.24L-114.967-23.271c-.321-.16-.401-.561-.241-.802.08-.24.321-.32.561-.32m0 21.567c.081 0 .241 0 .321.08L72.601 105.165c.32.16.4.561.24.802-.16.32-.56.401-.801.24L-114.887-1.706c-.321-.16-.401-.56-.24-.801 0-.16.24-.321.48-.321m0 21.647c.081 0 .241 0 .321.08L72.601 126.812c.32.16.4.561.24.801-.16.321-.56.401-.801.241L-114.887 19.941c-.321-.16-.401-.561-.24-.802 0-.24.24-.32.48-.32"/>
    </g>
  </g>
  <defs>
    <linearGradient id="b" x1="421.748" x2="431.696" y1="327.201" y2="309.973" gradientUnits="userSpaceOnUse">
      <stop offset=".302" stop-color="#BDBEC2" stop-opacity="0"/>
      <stop offset=".825" stop-color="#BDBEC2"/>
    </linearGradient>
    <linearGradient id="c" x1="440.505" x2="450.453" y1="316.458" y2="299.23" gradientUnits="userSpaceOnUse">
      <stop offset=".302" stop-color="#BDBEC2" stop-opacity="0"/>
      <stop offset=".825" stop-color="#BDBEC2"/>
    </linearGradient>
    <linearGradient id="d" x1="459.181" x2="469.13" y1="327.201" y2="309.973" gradientUnits="userSpaceOnUse">
      <stop offset=".302" stop-color="#BDBEC2" stop-opacity="0"/>
      <stop offset=".825" stop-color="#BDBEC2"/>
    </linearGradient>
    <linearGradient id="e" x1="459.181" x2="469.13" y1="305.634" y2="288.407" gradientUnits="userSpaceOnUse">
      <stop offset=".302" stop-color="#BDBEC2" stop-opacity="0"/>
      <stop offset=".825" stop-color="#BDBEC2"/>
    </linearGradient>
    <linearGradient id="f" x1="347.041" x2="356.99" y1="370.414" y2="353.186" gradientUnits="userSpaceOnUse">
      <stop offset=".302" stop-color="#BDBEC2" stop-opacity="0"/>
      <stop offset=".825" stop-color="#BDBEC2"/>
    </linearGradient>
    <linearGradient id="g" x1="365.718" x2="375.666" y1="359.591" y2="342.363" gradientUnits="userSpaceOnUse">
      <stop offset=".302" stop-color="#BDBEC2" stop-opacity="0"/>
      <stop offset=".825" stop-color="#BDBEC2"/>
    </linearGradient>
    <linearGradient id="h" x1="384.395" x2="394.343" y1="370.414" y2="353.186" gradientUnits="userSpaceOnUse">
      <stop offset=".302" stop-color="#BDBEC2" stop-opacity="0"/>
      <stop offset=".825" stop-color="#BDBEC2"/>
    </linearGradient>
    <linearGradient id="i" x1="384.395" x2="394.343" y1="348.768" y2="331.54" gradientUnits="userSpaceOnUse">
      <stop offset=".302" stop-color="#BDBEC2" stop-opacity="0"/>
      <stop offset=".825" stop-color="#BDBEC2"/>
    </linearGradient>
    <linearGradient id="j" x1="403.071" x2="413.02" y1="359.591" y2="342.363" gradientUnits="userSpaceOnUse">
      <stop offset=".302" stop-color="#BDBEC2" stop-opacity="0"/>
      <stop offset=".825" stop-color="#BDBEC2"/>
    </linearGradient>
    <linearGradient id="k" x1="421.748" x2="431.696" y1="370.414" y2="353.186" gradientUnits="userSpaceOnUse">
      <stop offset=".302" stop-color="#BDBEC2" stop-opacity="0"/>
      <stop offset=".825" stop-color="#BDBEC2"/>
    </linearGradient>
    <linearGradient id="l" x1="403.071" x2="413.02" y1="338.024" y2="320.797" gradientUnits="userSpaceOnUse">
      <stop offset=".302" stop-color="#BDBEC2" stop-opacity="0"/>
      <stop offset=".825" stop-color="#BDBEC2"/>
    </linearGradient>
    <linearGradient id="m" x1="421.748" x2="431.696" y1="348.768" y2="331.54" gradientUnits="userSpaceOnUse">
      <stop offset=".302" stop-color="#BDBEC2" stop-opacity="0"/>
      <stop offset=".825" stop-color="#BDBEC2"/>
    </linearGradient>
    <linearGradient id="n" x1="440.505" x2="450.453" y1="359.591" y2="342.363" gradientUnits="userSpaceOnUse">
      <stop offset=".302" stop-color="#BDBEC2" stop-opacity="0"/>
      <stop offset=".825" stop-color="#BDBEC2"/>
    </linearGradient>
    <linearGradient id="o" x1="459.181" x2="469.13" y1="370.414" y2="353.186" gradientUnits="userSpaceOnUse">
      <stop offset=".302" stop-color="#BDBEC2" stop-opacity="0"/>
      <stop offset=".825" stop-color="#BDBEC2"/>
    </linearGradient>
    <linearGradient id="p" x1="440.505" x2="450.453" y1="338.024" y2="320.797" gradientUnits="userSpaceOnUse">
      <stop offset=".302" stop-color="#BDBEC2" stop-opacity="0"/>
      <stop offset=".825" stop-color="#BDBEC2"/>
    </linearGradient>
    <linearGradient id="q" x1="459.181" x2="469.13" y1="348.768" y2="331.54" gradientUnits="userSpaceOnUse">
      <stop offset=".302" stop-color="#BDBEC2" stop-opacity="0"/>
      <stop offset=".825" stop-color="#BDBEC2"/>
    </linearGradient>
    <linearGradient id="r" x1="566.886" x2="566.886" y1="680.721" y2="291.005" gradientUnits="userSpaceOnUse">
      <stop stop-color="#BDBEC2" stop-opacity=".5"/>
      <stop offset="1" stop-color="#BDBEC2"/>
    </linearGradient>
    <linearGradient id="s" x1="123.902" x2="113.954" y1="91.712" y2="108.94" gradientUnits="userSpaceOnUse">
      <stop offset=".302" stop-color="#BDBEC2" stop-opacity="0"/>
      <stop offset=".825" stop-color="#BDBEC2"/>
    </linearGradient>
    <linearGradient id="t" x1="105.145" x2="95.197" y1="102.456" y2="119.683" gradientUnits="userSpaceOnUse">
      <stop offset=".302" stop-color="#BDBEC2" stop-opacity="0"/>
      <stop offset=".825" stop-color="#BDBEC2"/>
    </linearGradient>
    <linearGradient id="u" x1="86.469" x2="76.52" y1="91.712" y2="108.94" gradientUnits="userSpaceOnUse">
      <stop offset=".302" stop-color="#BDBEC2" stop-opacity="0"/>
      <stop offset=".825" stop-color="#BDBEC2"/>
    </linearGradient>
    <linearGradient id="v" x1="86.469" x2="76.52" y1="113.279" y2="130.507" gradientUnits="userSpaceOnUse">
      <stop offset=".302" stop-color="#BDBEC2" stop-opacity="0"/>
      <stop offset=".825" stop-color="#BDBEC2"/>
    </linearGradient>
    <linearGradient id="w" x1="198.609" x2="188.66" y1="48.499" y2="65.727" gradientUnits="userSpaceOnUse">
      <stop offset=".302" stop-color="#BDBEC2" stop-opacity="0"/>
      <stop offset=".825" stop-color="#BDBEC2"/>
    </linearGradient>
    <linearGradient id="x" x1="179.932" x2="169.984" y1="59.322" y2="76.55" gradientUnits="userSpaceOnUse">
      <stop offset=".302" stop-color="#BDBEC2" stop-opacity="0"/>
      <stop offset=".825" stop-color="#BDBEC2"/>
    </linearGradient>
    <linearGradient id="y" x1="161.255" x2="151.307" y1="48.499" y2="65.727" gradientUnits="userSpaceOnUse">
      <stop offset=".302" stop-color="#BDBEC2" stop-opacity="0"/>
      <stop offset=".825" stop-color="#BDBEC2"/>
    </linearGradient>
    <linearGradient id="z" x1="161.255" x2="151.307" y1="70.146" y2="87.374" gradientUnits="userSpaceOnUse">
      <stop offset=".302" stop-color="#BDBEC2" stop-opacity="0"/>
      <stop offset=".825" stop-color="#BDBEC2"/>
    </linearGradient>
    <linearGradient id="A" x1="142.579" x2="132.63" y1="59.322" y2="76.55" gradientUnits="userSpaceOnUse">
      <stop offset=".302" stop-color="#BDBEC2" stop-opacity="0"/>
      <stop offset=".825" stop-color="#BDBEC2"/>
    </linearGradient>
    <linearGradient id="B" x1="123.902" x2="113.954" y1="48.499" y2="65.727" gradientUnits="userSpaceOnUse">
      <stop offset=".302" stop-color="#BDBEC2" stop-opacity="0"/>
      <stop offset=".825" stop-color="#BDBEC2"/>
    </linearGradient>
    <linearGradient id="C" x1="142.579" x2="132.63" y1="80.889" y2="98.117" gradientUnits="userSpaceOnUse">
      <stop offset=".302" stop-color="#BDBEC2" stop-opacity="0"/>
      <stop offset=".825" stop-color="#BDBEC2"/>
    </linearGradient>
    <linearGradient id="D" x1="123.902" x2="113.954" y1="70.146" y2="87.374" gradientUnits="userSpaceOnUse">
      <stop offset=".302" stop-color="#BDBEC2" stop-opacity="0"/>
      <stop offset=".825" stop-color="#BDBEC2"/>
    </linearGradient>
    <linearGradient id="E" x1="105.145" x2="95.197" y1="59.322" y2="76.55" gradientUnits="userSpaceOnUse">
      <stop offset=".302" stop-color="#BDBEC2" stop-opacity="0"/>
      <stop offset=".825" stop-color="#BDBEC2"/>
    </linearGradient>
    <linearGradient id="F" x1="86.469" x2="76.52" y1="48.499" y2="65.727" gradientUnits="userSpaceOnUse">
      <stop offset=".302" stop-color="#BDBEC2" stop-opacity="0"/>
      <stop offset=".825" stop-color="#BDBEC2"/>
    </linearGradient>
    <linearGradient id="G" x1="105.145" x2="95.197" y1="80.889" y2="98.117" gradientUnits="userSpaceOnUse">
      <stop offset=".302" stop-color="#BDBEC2" stop-opacity="0"/>
      <stop offset=".825" stop-color="#BDBEC2"/>
    </linearGradient>
    <linearGradient id="H" x1="86.469" x2="76.52" y1="70.146" y2="87.374" gradientUnits="userSpaceOnUse">
      <stop offset=".302" stop-color="#BDBEC2" stop-opacity="0"/>
      <stop offset=".825" stop-color="#BDBEC2"/>
    </linearGradient>
    <linearGradient id="I" x1="273.396" x2="263.447" y1="5.366" y2="22.594" gradientUnits="userSpaceOnUse">
      <stop offset=".302" stop-color="#BDBEC2" stop-opacity="0"/>
      <stop offset=".825" stop-color="#BDBEC2"/>
    </linearGradient>
    <linearGradient id="J" x1="254.719" x2="244.77" y1="16.189" y2="33.417" gradientUnits="userSpaceOnUse">
      <stop offset=".302" stop-color="#BDBEC2" stop-opacity="0"/>
      <stop offset=".825" stop-color="#BDBEC2"/>
    </linearGradient>
    <linearGradient id="K" x1="235.962" x2="226.014" y1="5.366" y2="22.594" gradientUnits="userSpaceOnUse">
      <stop offset=".302" stop-color="#BDBEC2" stop-opacity="0"/>
      <stop offset=".825" stop-color="#BDBEC2"/>
    </linearGradient>
    <linearGradient id="L" x1="235.962" x2="226.014" y1="26.933" y2="44.16" gradientUnits="userSpaceOnUse">
      <stop offset=".302" stop-color="#BDBEC2" stop-opacity="0"/>
      <stop offset=".825" stop-color="#BDBEC2"/>
    </linearGradient>
    <linearGradient id="M" x1="217.286" x2="207.337" y1="16.189" y2="33.417" gradientUnits="userSpaceOnUse">
      <stop offset=".302" stop-color="#BDBEC2" stop-opacity="0"/>
      <stop offset=".825" stop-color="#BDBEC2"/>
    </linearGradient>
    <linearGradient id="N" x1="198.609" x2="188.66" y1="5.366" y2="22.594" gradientUnits="userSpaceOnUse">
      <stop offset=".302" stop-color="#BDBEC2" stop-opacity="0"/>
      <stop offset=".825" stop-color="#BDBEC2"/>
    </linearGradient>
    <linearGradient id="O" x1="217.286" x2="207.337" y1="37.756" y2="54.984" gradientUnits="userSpaceOnUse">
      <stop offset=".302" stop-color="#BDBEC2" stop-opacity="0"/>
      <stop offset=".825" stop-color="#BDBEC2"/>
    </linearGradient>
    <linearGradient id="P" x1="198.609" x2="188.66" y1="26.933" y2="44.161" gradientUnits="userSpaceOnUse">
      <stop offset=".302" stop-color="#BDBEC2" stop-opacity="0"/>
      <stop offset=".825" stop-color="#BDBEC2"/>
    </linearGradient>
    <linearGradient id="Q" x1="179.932" x2="169.983" y1="16.189" y2="33.417" gradientUnits="userSpaceOnUse">
      <stop offset=".302" stop-color="#BDBEC2" stop-opacity="0"/>
      <stop offset=".825" stop-color="#BDBEC2"/>
    </linearGradient>
    <linearGradient id="R" x1="161.255" x2="151.307" y1="5.366" y2="22.594" gradientUnits="userSpaceOnUse">
      <stop offset=".302" stop-color="#BDBEC2" stop-opacity="0"/>
      <stop offset=".825" stop-color="#BDBEC2"/>
    </linearGradient>
    <linearGradient id="S" x1="179.932" x2="169.984" y1="37.756" y2="54.984" gradientUnits="userSpaceOnUse">
      <stop offset=".302" stop-color="#BDBEC2" stop-opacity="0"/>
      <stop offset=".825" stop-color="#BDBEC2"/>
    </linearGradient>
    <linearGradient id="T" x1="161.255" x2="151.307" y1="26.933" y2="44.161" gradientUnits="userSpaceOnUse">
      <stop offset=".302" stop-color="#BDBEC2" stop-opacity="0"/>
      <stop offset=".825" stop-color="#BDBEC2"/>
    </linearGradient>
    <linearGradient id="U" x1="142.579" x2="132.63" y1="16.189" y2="33.417" gradientUnits="userSpaceOnUse">
      <stop offset=".302" stop-color="#BDBEC2" stop-opacity="0"/>
      <stop offset=".825" stop-color="#BDBEC2"/>
    </linearGradient>
    <linearGradient id="V" x1="123.902" x2="113.954" y1="5.366" y2="22.594" gradientUnits="userSpaceOnUse">
      <stop offset=".302" stop-color="#BDBEC2" stop-opacity="0"/>
      <stop offset=".825" stop-color="#BDBEC2"/>
    </linearGradient>
    <linearGradient id="W" x1="142.579" x2="132.63" y1="37.756" y2="54.984" gradientUnits="userSpaceOnUse">
      <stop offset=".302" stop-color="#BDBEC2" stop-opacity="0"/>
      <stop offset=".825" stop-color="#BDBEC2"/>
    </linearGradient>
    <linearGradient id="X" x1="123.902" x2="113.954" y1="26.933" y2="44.161" gradientUnits="userSpaceOnUse">
      <stop offset=".302" stop-color="#BDBEC2" stop-opacity="0"/>
      <stop offset=".825" stop-color="#BDBEC2"/>
    </linearGradient>
    <linearGradient id="Y" x1="105.145" x2="95.197" y1="16.189" y2="33.417" gradientUnits="userSpaceOnUse">
      <stop offset=".302" stop-color="#BDBEC2" stop-opacity="0"/>
      <stop offset=".825" stop-color="#BDBEC2"/>
    </linearGradient>
    <linearGradient id="Z" x1="86.469" x2="76.52" y1="5.366" y2="22.594" gradientUnits="userSpaceOnUse">
      <stop offset=".302" stop-color="#BDBEC2" stop-opacity="0"/>
      <stop offset=".825" stop-color="#BDBEC2"/>
    </linearGradient>
    <linearGradient id="aa" x1="105.145" x2="95.197" y1="37.756" y2="54.984" gradientUnits="userSpaceOnUse">
      <stop offset=".302" stop-color="#BDBEC2" stop-opacity="0"/>
      <stop offset=".825" stop-color="#BDBEC2"/>
    </linearGradient>
    <linearGradient id="ab" x1="86.469" x2="76.52" y1="26.933" y2="44.16" gradientUnits="userSpaceOnUse">
      <stop offset=".302" stop-color="#BDBEC2" stop-opacity="0"/>
      <stop offset=".825" stop-color="#BDBEC2"/>
    </linearGradient>
    <linearGradient id="ac" x1="292.072" x2="282.124" y1="-5.457" y2="11.771" gradientUnits="userSpaceOnUse">
      <stop offset=".302" stop-color="#BDBEC2" stop-opacity="0"/>
      <stop offset=".825" stop-color="#BDBEC2"/>
    </linearGradient>
    <linearGradient id="ad" x1="254.719" x2="244.77" y1="-5.457" y2="11.771" gradientUnits="userSpaceOnUse">
      <stop offset=".302" stop-color="#BDBEC2" stop-opacity="0"/>
      <stop offset=".825" stop-color="#BDBEC2"/>
    </linearGradient>
    <linearGradient id="ae" x1="217.286" x2="207.337" y1="-5.457" y2="11.771" gradientUnits="userSpaceOnUse">
      <stop offset=".302" stop-color="#BDBEC2" stop-opacity="0"/>
      <stop offset=".825" stop-color="#BDBEC2"/>
    </linearGradient>
    <linearGradient id="af" x1="179.932" x2="169.984" y1="-5.457" y2="11.771" gradientUnits="userSpaceOnUse">
      <stop offset=".302" stop-color="#BDBEC2" stop-opacity="0"/>
      <stop offset=".825" stop-color="#BDBEC2"/>
    </linearGradient>
    <linearGradient id="ag" x1="142.579" x2="132.63" y1="-5.457" y2="11.771" gradientUnits="userSpaceOnUse">
      <stop offset=".302" stop-color="#BDBEC2" stop-opacity="0"/>
      <stop offset=".825" stop-color="#BDBEC2"/>
    </linearGradient>
    <linearGradient id="ah" x1="105.145" x2="95.197" y1="-5.457" y2="11.771" gradientUnits="userSpaceOnUse">
      <stop offset=".302" stop-color="#BDBEC2" stop-opacity="0"/>
      <stop offset=".825" stop-color="#BDBEC2"/>
    </linearGradient>
    <linearGradient id="ai" x1="65.071" x2="-.052" y1="202.35" y2="145.203" gradientUnits="userSpaceOnUse">
      <stop offset="0" stop-color="#BDBEC2" stop-opacity="0"/>
      <stop offset="1" stop-color="#BDBEC2" stop-opacity=".8"/>
    </linearGradient>
    <linearGradient id="aj" x1="72.805" x2="-115.887" y1="-66.327" y2="-66.327" gradientUnits="userSpaceOnUse">
      <stop offset="0" stop-color="#BDBEC2" stop-opacity=".9"/>
      <stop offset="1" stop-color="#BDBEC2" stop-opacity="0"/>
    </linearGradient>
  </defs>
</svg>
