<svg xmlns="http://www.w3.org/2000/svg" width="757" height="468" fill="none" stroke-linecap="square" stroke-miterlimit="10" viewBox="0 0 757 468">
  <path fill="#fff" d="M0 0h757v468H0z"/>
  <path stroke="#ccc" stroke-linecap="butt" d="M91.5 112.5v280m107-280v280m107-280v280m107-280v280m107-280v280m107-280v280m107-280v280"/>
  <path stroke="#333" stroke-linecap="butt" d="M70.5 392.5h663"/>
  <path stroke="#ccc" stroke-linecap="butt" d="M70.5 322.5h663m-663-70h663m-663-70h663m-663-70h663"/>
  <clipPath id="a">
    <path d="M70.4 112.6h663.2v280H70.4z"/>
  </clipPath>
  <path stroke="#4285f4" stroke-linecap="butt" stroke-width="2" d="m70.4 117.78 10.697 47.6 10.697 30.38 10.696 17.22 10.697 14.07 10.697 11.2 10.697 9.17 10.696 6.86 10.697 6.65 10.697 2.17 10.697 4.27 10.697 2.8 10.696 2.59 10.697 1.33 10.697 1.12 10.697.49 10.696 1.82 10.697-4.76 10.697 6.72 10.697-.35 10.696 1.05 10.697-3.43 10.697.14 10.697.63 10.697-3.15 10.696 1.96 10.697-1.33 10.697-1.33 10.697.7 10.696-.14 10.697.21L402 272.41l10.697.7 10.697-.77 10.696-.63 10.697-.98 10.697-.77 10.697-1.26 10.696 1.82 10.697-2.94 10.697-4.62 10.697 6.58 10.696-2.59 10.697-.42 10.697-2.1 10.697-.56 10.697-1.75 10.696-.28 10.697-4.62 10.697 1.82 10.697-.98 10.697-1.96 10.696-.84 10.697-2.24 10.697.07 10.697-1.05 10.696-1.75 10.697-1.05 10.697-1.89 10.697-.28 10.697-1.26 10.696-2.17 10.697.14" clip-path="url(#a)"/>
  <path stroke="#ea4335" stroke-linecap="butt" stroke-width="2" d="m70.4 296.21 10.697 8.61 10.697 5.25 10.696 2.17 10.697 1.82 10.697-1.89 10.697 1.96 10.696 2.73 10.697-.98 10.697-1.26 10.697-.42 10.697-1.75 10.696 1.54 10.697-5.25 10.697-2.66 10.697 2.94 10.696-1.4 10.697-.98 10.697-7.7 10.697 7.07 10.696-.63 10.697-.07 10.697-2.66 10.697-4.48 10.697-3.08 10.696-1.05 10.697 1.89 10.697-.35 10.697-.77 10.696-4.62 10.697-1.75L402 287.32l10.697-5.39 10.697 5.32 10.696 1.89 10.697-2.45 10.697.07 10.697.49 10.696-3.43 10.697-3.64 10.697-.07 10.697 1.33 10.696-4.41 10.697-.28 10.697 1.68 10.697-.56 10.697-4.27 10.696-2.73 10.697 1.75 10.697-.91 10.697-2.31 10.697-1.19 10.696-2.03 10.697-.35 10.697.42 10.697-1.33 10.696-1.68 10.697-1.54 10.697-1.82 10.697-4.34 10.697 1.05 10.696-5.32 10.697-3.29" clip-path="url(#a)"/>
  <path stroke="#fbbc04" stroke-linecap="butt" stroke-width="2" d="m70.4 315.95 10.697 3.15 10.697 3.22 10.696.84 10.697-.84 10.697 1.54 10.697-.35 10.696.7 10.697-1.68 10.697-.91 10.697.84 10.697-.91 10.696-1.4 10.697.35 10.697.14 10.697-1.4 10.696-1.96 10.697-.56 10.697-.49 10.697-1.12 10.696-.77 10.697-2.38 10.697.35 10.697-1.12 10.697-4.06 10.696-1.61 10.697-.98 10.697-.07 10.697-1.19 10.696-.84 10.697-1.05L402 300.06l10.697-1.68 10.697-.7 10.696-.28 10.697-2.17 10.697-.56 10.697-5.25 10.696 1.96 10.697-.7 10.697-1.96 10.697-2.73 10.696 1.68 10.697-1.33 10.697-1.47 10.697-1.89 10.697-.14 10.696-2.03 10.697-.56 10.697-1.82 10.697-1.96 10.697-.35 10.696-.07 10.697-1.47 10.697-3.29 10.697.7 10.696-1.19 10.697-1.89 10.697-.7 10.697-2.1 10.697-.49 10.696-2.87 10.697-.84" clip-path="url(#a)"/>
  <path stroke="#34a853" stroke-linecap="butt" stroke-width="2" d="m70.4 358.86 10.697-2.59 10.697-.35 10.696-2.24 10.697-1.54 10.697-2.03 10.697-.07 10.696-1.12 10.697-3.01 10.697-1.61 10.697.21 10.697-2.1 10.696.63 10.697-3.01 10.697-1.19 10.697-1.4 10.696.84 10.697-1.68 10.697-.21 10.697-1.75 10.696-3.15 10.697-1.96 10.697 1.12 10.697-2.73 10.697-2.52 10.696-3.92 10.697.77 10.697-1.19 10.697-2.87 10.696-1.89 10.697-2.1L402 315.6l10.697-.63 10.697-.14 10.696-.91 10.697-.98 10.697-2.31 10.697-.7 10.696-1.26 10.697-1.33 10.697-.98 10.697-1.68 10.696-.91 10.697-1.19 10.697-1.82 10.697-.77 10.697-1.19 10.696-.14 10.697-1.96 10.697-1.4 10.697-1.05 10.697-1.26 10.696-1.19 10.697-2.17 10.697-.49 10.697-1.05 10.696-1.19 10.697-2.24h10.697l10.697-.56 10.697-.35 10.696-1.47 10.697-2.8" clip-path="url(#a)"/>
  <path d="M73.4 117.78a3 3 0 1 1-6 0 3 3 0 0 1 6 0m10.697 47.6a3 3 0 1 1-6 0 3 3 0 0 1 6 0m10.697 30.38a3 3 0 1 1-6 0 3 3 0 0 1 6 0m10.696 17.22a3 3 0 1 1-6 0 3 3 0 0 1 6 0m10.697 14.07a3 3 0 1 1-6 0 3 3 0 0 1 6 0m10.697 11.2a3 3 0 1 1-6 0 3 3 0 0 1 6 0m10.696 9.17a3 3 0 1 1-6 0 3 3 0 0 1 6 0m10.697 6.86a3 3 0 1 1-6 0 3 3 0 0 1 6 0m10.697 6.65a3 3 0 1 1-6 0 3 3 0 0 1 6 0m10.697 2.17a3 3 0 1 1-6 0 3 3 0 0 1 6 0m10.697 4.27a3 3 0 1 1-6 0 3 3 0 0 1 6 0m10.697 2.8a3 3 0 1 1-6 0 3 3 0 0 1 6 0m10.696 2.59a3 3 0 1 1-6 0 3 3 0 0 1 6 0m10.697 1.33a3 3 0 1 1-6 0 3 3 0 0 1 6 0m10.697 1.12a3 3 0 1 1-6 0 3 3 0 0 1 6 0m10.697.49a3 3 0 1 1-6 0 3 3 0 0 1 6 0m10.696 1.82a3 3 0 1 1-6 0 3 3 0 0 1 6 0m10.697-4.76a3 3 0 1 1-6 0 3 3 0 0 1 6 0m10.697 6.72a3 3 0 1 1-6 0 3 3 0 0 1 6 0m10.697-.35a3 3 0 1 1-6 0 3 3 0 0 1 6 0m10.696 1.05a3 3 0 1 1-6 0 3 3 0 0 1 6 0m10.697-3.43a3 3 0 1 1-6 0 3 3 0 0 1 6 0m10.697.14a3 3 0 1 1-6 0 3 3 0 0 1 6 0m10.697.63a3 3 0 1 1-6 0 3 3 0 0 1 6 0m10.697-3.15a3 3 0 1 1-6 0 3 3 0 0 1 6 0m10.697 1.96a3 3 0 1 1-6 0 3 3 0 0 1 6 0m10.696-1.33a3 3 0 1 1-6 0 3 3 0 0 1 6 0m10.697-1.33a3 3 0 1 1-6 0 3 3 0 0 1 6 0m10.697.7a3 3 0 1 1-6 0 3 3 0 0 1 6 0m10.696-.14a3 3 0 1 1-6 0 3 3 0 0 1 6 0m10.697.21a3 3 0 1 1-6 0 3 3 0 0 1 6 0M405 272.41a3 3 0 1 1-6 0 3 3 0 0 1 6 0m10.697.7a3 3 0 1 1-6 0 3 3 0 0 1 6 0m10.697-.77a3 3 0 1 1-6 0 3 3 0 0 1 6 0m10.696-.63a3 3 0 1 1-6 0 3 3 0 0 1 6 0m10.697-.98a3 3 0 1 1-6 0 3 3 0 0 1 6 0m10.697-.77a3 3 0 1 1-6 0 3 3 0 0 1 6 0m10.696-1.26a3 3 0 1 1-6 0 3 3 0 0 1 6 0m10.697 1.82a3 3 0 1 1-6 0 3 3 0 0 1 6 0m10.697-2.94a3 3 0 1 1-6 0 3 3 0 0 1 6 0m10.697-4.62a3 3 0 1 1-6 0 3 3 0 0 1 6 0m10.697 6.58a3 3 0 1 1-6 0 3 3 0 0 1 6 0m10.697-2.59a3 3 0 1 1-6 0 3 3 0 0 1 6 0m10.696-.42a3 3 0 1 1-6 0 3 3 0 0 1 6 0m10.697-2.1a3 3 0 1 1-6 0 3 3 0 0 1 6 0m10.697-.56a3 3 0 1 1-6 0 3 3 0 0 1 6 0m10.697-1.75a3 3 0 1 1-6 0 3 3 0 0 1 6 0m10.696-.28a3 3 0 1 1-6 0 3 3 0 0 1 6 0m10.697-4.62a3 3 0 1 1-6 0 3 3 0 0 1 6 0m10.697 1.82a3 3 0 1 1-6 0 3 3 0 0 1 6 0m10.697-.98a3 3 0 1 1-6 0 3 3 0 0 1 6 0m10.697-1.96a3 3 0 1 1-6 0 3 3 0 0 1 6 0m10.696-.84a3 3 0 1 1-6 0 3 3 0 0 1 6 0m10.697-2.24a3 3 0 1 1-6 0 3 3 0 0 1 6 0m10.697.07a3 3 0 1 1-6 0 3 3 0 0 1 6 0m10.697-1.05a3 3 0 1 1-6 0 3 3 0 0 1 6 0m10.697-1.75a3 3 0 1 1-6 0 3 3 0 0 1 6 0m10.696-1.05a3 3 0 1 1-6 0 3 3 0 0 1 6 0m10.697-1.89a3 3 0 1 1-6 0 3 3 0 0 1 6 0m10.697-.28a3 3 0 1 1-6 0 3 3 0 0 1 6 0m10.697-1.26a3 3 0 1 1-6 0 3 3 0 0 1 6 0m10.696-2.17a3 3 0 1 1-6 0 3 3 0 0 1 6 0m10.697.14a3 3 0 1 1-6 0 3 3 0 0 1 6 0M73.4 296.21a3 3 0 1 1-6 0 3 3 0 0 1 6 0m10.697 8.61a3 3 0 1 1-6 0 3 3 0 0 1 6 0m10.697 5.25a3 3 0 1 1-6 0 3 3 0 0 1 6 0m10.696 2.17a3 3 0 1 1-6 0 3 3 0 0 1 6 0m10.697 1.82a3 3 0 1 1-6 0 3 3 0 0 1 6 0m10.697-1.89a3 3 0 1 1-6 0 3 3 0 0 1 6 0m10.696 1.96a3 3 0 1 1-6 0 3 3 0 0 1 6 0m10.697 2.73a3 3 0 1 1-6 0 3 3 0 0 1 6 0m10.697-.98a3 3 0 1 1-6 0 3 3 0 0 1 6 0m10.697-1.26a3 3 0 1 1-6 0 3 3 0 0 1 6 0m10.697-.42a3 3 0 1 1-6 0 3 3 0 0 1 6 0m10.697-1.75a3 3 0 1 1-6 0 3 3 0 0 1 6 0m10.696 1.54a3 3 0 1 1-6 0 3 3 0 0 1 6 0m10.697-5.25a3 3 0 1 1-6 0 3 3 0 0 1 6 0m10.697-2.66a3 3 0 1 1-6 0 3 3 0 0 1 6 0m10.697 2.94a3 3 0 1 1-6 0 3 3 0 0 1 6 0m10.696-1.4a3 3 0 1 1-6 0 3 3 0 0 1 6 0m10.697-.98a3 3 0 1 1-6 0 3 3 0 0 1 6 0m10.697-7.7a3 3 0 1 1-6 0 3 3 0 0 1 6 0m10.697 7.07a3 3 0 1 1-6 0 3 3 0 0 1 6 0m10.696-.63a3 3 0 1 1-6 0 3 3 0 0 1 6 0m10.697-.07a3 3 0 1 1-6 0 3 3 0 0 1 6 0m10.697-2.66a3 3 0 1 1-6 0 3 3 0 0 1 6 0m10.697-4.48a3 3 0 1 1-6 0 3 3 0 0 1 6 0m10.697-3.08a3 3 0 1 1-6 0 3 3 0 0 1 6 0m10.697-1.05a3 3 0 1 1-6 0 3 3 0 0 1 6 0m10.696 1.89a3 3 0 1 1-6 0 3 3 0 0 1 6 0m10.697-.35a3 3 0 1 1-6 0 3 3 0 0 1 6 0m10.697-.77a3 3 0 1 1-6 0 3 3 0 0 1 6 0m10.696-4.62a3 3 0 1 1-6 0 3 3 0 0 1 6 0m10.697-1.75a3 3 0 1 1-6 0 3 3 0 0 1 6 0M405 287.32a3 3 0 1 1-6 0 3 3 0 0 1 6 0m10.697-5.39a3 3 0 1 1-6 0 3 3 0 0 1 6 0m10.697 5.32a3 3 0 1 1-6 0 3 3 0 0 1 6 0m10.696 1.89a3 3 0 1 1-6 0 3 3 0 0 1 6 0m10.697-2.45a3 3 0 1 1-6 0 3 3 0 0 1 6 0m10.697.07a3 3 0 1 1-6 0 3 3 0 0 1 6 0m10.696.49a3 3 0 1 1-6 0 3 3 0 0 1 6 0m10.697-3.43a3 3 0 1 1-6 0 3 3 0 0 1 6 0m10.697-3.64a3 3 0 1 1-6 0 3 3 0 0 1 6 0m10.697-.07a3 3 0 1 1-6 0 3 3 0 0 1 6 0m10.697 1.33a3 3 0 1 1-6 0 3 3 0 0 1 6 0m10.697-4.41a3 3 0 1 1-6 0 3 3 0 0 1 6 0m10.696-.28a3 3 0 1 1-6 0 3 3 0 0 1 6 0m10.697 1.68a3 3 0 1 1-6 0 3 3 0 0 1 6 0m10.697-.56a3 3 0 1 1-6 0 3 3 0 0 1 6 0m10.697-4.27a3 3 0 1 1-6 0 3 3 0 0 1 6 0m10.696-2.73a3 3 0 1 1-6 0 3 3 0 0 1 6 0m10.697 1.75a3 3 0 1 1-6 0 3 3 0 0 1 6 0m10.697-.91a3 3 0 1 1-6 0 3 3 0 0 1 6 0m10.697-2.31a3 3 0 1 1-6 0 3 3 0 0 1 6 0m10.697-1.19a3 3 0 1 1-6 0 3 3 0 0 1 6 0m10.696-2.03a3 3 0 1 1-6 0 3 3 0 0 1 6 0m10.697-.35a3 3 0 1 1-6 0 3 3 0 0 1 6 0m10.697.42a3 3 0 1 1-6 0 3 3 0 0 1 6 0m10.697-1.33a3 3 0 1 1-6 0 3 3 0 0 1 6 0m10.697-1.68a3 3 0 1 1-6 0 3 3 0 0 1 6 0m10.696-1.54a3 3 0 1 1-6 0 3 3 0 0 1 6 0m10.697-1.82a3 3 0 1 1-6 0 3 3 0 0 1 6 0m10.697-4.34a3 3 0 1 1-6 0 3 3 0 0 1 6 0m10.697 1.05a3 3 0 1 1-6 0 3 3 0 0 1 6 0m10.696-5.32a3 3 0 1 1-6 0 3 3 0 0 1 6 0" clip-path="url(#a)"/>
  <path d="M736.6 247.98a3 3 0 1 1-6 0 3 3 0 0 1 6 0M73.4 315.95a3 3 0 1 1-6 0 3 3 0 0 1 6 0m10.697 3.15a3 3 0 1 1-6 0 3 3 0 0 1 6 0m10.697 3.22a3 3 0 1 1-6 0 3 3 0 0 1 6 0m10.696.84a3 3 0 1 1-6 0 3 3 0 0 1 6 0m10.697-.84a3 3 0 1 1-6 0 3 3 0 0 1 6 0m10.697 1.54a3 3 0 1 1-6 0 3 3 0 0 1 6 0m10.696-.35a3 3 0 1 1-6 0 3 3 0 0 1 6 0m10.697.7a3 3 0 1 1-6 0 3 3 0 0 1 6 0m10.697-1.68a3 3 0 1 1-6 0 3 3 0 0 1 6 0m10.697-.91a3 3 0 1 1-6 0 3 3 0 0 1 6 0m10.697.84a3 3 0 1 1-6 0 3 3 0 0 1 6 0m10.697-.91a3 3 0 1 1-6 0 3 3 0 0 1 6 0m10.696-1.4a3 3 0 1 1-6 0 3 3 0 0 1 6 0m10.697.35a3 3 0 1 1-6 0 3 3 0 0 1 6 0m10.697.14a3 3 0 1 1-6 0 3 3 0 0 1 6 0m10.697-1.4a3 3 0 1 1-6 0 3 3 0 0 1 6 0m10.696-1.96a3 3 0 1 1-6 0 3 3 0 0 1 6 0m10.697-.56a3 3 0 1 1-6 0 3 3 0 0 1 6 0m10.697-.49a3 3 0 1 1-6 0 3 3 0 0 1 6 0m10.697-1.12a3 3 0 1 1-6 0 3 3 0 0 1 6 0m10.696-.77a3 3 0 1 1-6 0 3 3 0 0 1 6 0m10.697-2.38a3 3 0 1 1-6 0 3 3 0 0 1 6 0m10.697.35a3 3 0 1 1-6 0 3 3 0 0 1 6 0m10.697-1.12a3 3 0 1 1-6 0 3 3 0 0 1 6 0m10.697-4.06a3 3 0 1 1-6 0 3 3 0 0 1 6 0m10.697-1.61a3 3 0 1 1-6 0 3 3 0 0 1 6 0m10.696-.98a3 3 0 1 1-6 0 3 3 0 0 1 6 0m10.697-.07a3 3 0 1 1-6 0 3 3 0 0 1 6 0m10.697-1.19a3 3 0 1 1-6 0 3 3 0 0 1 6 0m10.696-.84a3 3 0 1 1-6 0 3 3 0 0 1 6 0m10.697-1.05a3 3 0 1 1-6 0 3 3 0 0 1 6 0M405 300.06a3 3 0 1 1-6 0 3 3 0 0 1 6 0m10.697-1.68a3 3 0 1 1-6 0 3 3 0 0 1 6 0m10.697-.7a3 3 0 1 1-6 0 3 3 0 0 1 6 0m10.696-.28a3 3 0 1 1-6 0 3 3 0 0 1 6 0m10.697-2.17a3 3 0 1 1-6 0 3 3 0 0 1 6 0m10.697-.56a3 3 0 1 1-6 0 3 3 0 0 1 6 0m10.696-5.25a3 3 0 1 1-6 0 3 3 0 0 1 6 0m10.697 1.96a3 3 0 1 1-6 0 3 3 0 0 1 6 0m10.697-.7a3 3 0 1 1-6 0 3 3 0 0 1 6 0m10.697-1.96a3 3 0 1 1-6 0 3 3 0 0 1 6 0m10.697-2.73a3 3 0 1 1-6 0 3 3 0 0 1 6 0m10.697 1.68a3 3 0 1 1-6 0 3 3 0 0 1 6 0m10.696-1.33a3 3 0 1 1-6 0 3 3 0 0 1 6 0m10.697-1.47a3 3 0 1 1-6 0 3 3 0 0 1 6 0m10.697-1.89a3 3 0 1 1-6 0 3 3 0 0 1 6 0m10.697-.14a3 3 0 1 1-6 0 3 3 0 0 1 6 0m10.696-2.03a3 3 0 1 1-6 0 3 3 0 0 1 6 0m10.697-.56a3 3 0 1 1-6 0 3 3 0 0 1 6 0m10.697-1.82a3 3 0 1 1-6 0 3 3 0 0 1 6 0m10.697-1.96a3 3 0 1 1-6 0 3 3 0 0 1 6 0m10.697-.35a3 3 0 1 1-6 0 3 3 0 0 1 6 0m10.696-.07a3 3 0 1 1-6 0 3 3 0 0 1 6 0m10.697-1.47a3 3 0 1 1-6 0 3 3 0 0 1 6 0m10.697-3.29a3 3 0 1 1-6 0 3 3 0 0 1 6 0m10.697.7a3 3 0 1 1-6 0 3 3 0 0 1 6 0m10.697-1.19a3 3 0 1 1-6 0 3 3 0 0 1 6 0m10.696-1.89a3 3 0 1 1-6 0 3 3 0 0 1 6 0m10.697-.7a3 3 0 1 1-6 0 3 3 0 0 1 6 0m10.697-2.1a3 3 0 1 1-6 0 3 3 0 0 1 6 0m10.697-.49a3 3 0 1 1-6 0 3 3 0 0 1 6 0m10.696-2.87a3 3 0 1 1-6 0 3 3 0 0 1 6 0m10.697-.84a3 3 0 1 1-6 0 3 3 0 0 1 6 0M73.4 358.86a3 3 0 1 1-6 0 3 3 0 0 1 6 0m10.697-2.59a3 3 0 1 1-6 0 3 3 0 0 1 6 0m10.697-.35a3 3 0 1 1-6 0 3 3 0 0 1 6 0m10.696-2.24a3 3 0 1 1-6 0 3 3 0 0 1 6 0m10.697-1.54a3 3 0 1 1-6 0 3 3 0 0 1 6 0m10.697-2.03a3 3 0 1 1-6 0 3 3 0 0 1 6 0m10.696-.07a3 3 0 1 1-6 0 3 3 0 0 1 6 0m10.697-1.12a3 3 0 1 1-6 0 3 3 0 0 1 6 0m10.697-3.01a3 3 0 1 1-6 0 3 3 0 0 1 6 0m10.697-1.61a3 3 0 1 1-6 0 3 3 0 0 1 6 0m10.697.21a3 3 0 1 1-6 0 3 3 0 0 1 6 0m10.697-2.1a3 3 0 1 1-6 0 3 3 0 0 1 6 0m10.696.63a3 3 0 1 1-6 0 3 3 0 0 1 6 0m10.697-3.01a3 3 0 1 1-6 0 3 3 0 0 1 6 0m10.697-1.19a3 3 0 1 1-6 0 3 3 0 0 1 6 0m10.697-1.4a3 3 0 1 1-6 0 3 3 0 0 1 6 0m10.696.84a3 3 0 1 1-6 0 3 3 0 0 1 6 0m10.697-1.68a3 3 0 1 1-6 0 3 3 0 0 1 6 0m10.697-.21a3 3 0 1 1-6 0 3 3 0 0 1 6 0m10.697-1.75a3 3 0 1 1-6 0 3 3 0 0 1 6 0m10.696-3.15a3 3 0 1 1-6 0 3 3 0 0 1 6 0m10.697-1.96a3 3 0 1 1-6 0 3 3 0 0 1 6 0m10.697 1.12a3 3 0 1 1-6 0 3 3 0 0 1 6 0m10.697-2.73a3 3 0 1 1-6 0 3 3 0 0 1 6 0m10.697-2.52a3 3 0 1 1-6 0 3 3 0 0 1 6 0m10.697-3.92a3 3 0 1 1-6 0 3 3 0 0 1 6 0m10.696.77a3 3 0 1 1-6 0 3 3 0 0 1 6 0m10.697-1.19a3 3 0 1 1-6 0 3 3 0 0 1 6 0m10.697-2.87a3 3 0 1 1-6 0 3 3 0 0 1 6 0m10.696-1.89a3 3 0 1 1-6 0 3 3 0 0 1 6 0m10.697-2.1a3 3 0 1 1-6 0 3 3 0 0 1 6 0M405 315.6a3 3 0 1 1-6 0 3 3 0 0 1 6 0m10.697-.63a3 3 0 1 1-6 0 3 3 0 0 1 6 0m10.697-.14a3 3 0 1 1-6 0 3 3 0 0 1 6 0m10.696-.91a3 3 0 1 1-6 0 3 3 0 0 1 6 0m10.697-.98a3 3 0 1 1-6 0 3 3 0 0 1 6 0m10.697-2.31a3 3 0 1 1-6 0 3 3 0 0 1 6 0m10.696-.7a3 3 0 1 1-6 0 3 3 0 0 1 6 0m10.697-1.26a3 3 0 1 1-6 0 3 3 0 0 1 6 0m10.697-1.33a3 3 0 1 1-6 0 3 3 0 0 1 6 0m10.697-.98a3 3 0 1 1-6 0 3 3 0 0 1 6 0m10.697-1.68a3 3 0 1 1-6 0 3 3 0 0 1 6 0m10.697-.91a3 3 0 1 1-6 0 3 3 0 0 1 6 0m10.696-1.19a3 3 0 1 1-6 0 3 3 0 0 1 6 0m10.697-1.82a3 3 0 1 1-6 0 3 3 0 0 1 6 0m10.697-.77a3 3 0 1 1-6 0 3 3 0 0 1 6 0m10.697-1.19a3 3 0 1 1-6 0 3 3 0 0 1 6 0m10.696-.14a3 3 0 1 1-6 0 3 3 0 0 1 6 0m10.697-1.96a3 3 0 1 1-6 0 3 3 0 0 1 6 0m10.697-1.4a3 3 0 1 1-6 0 3 3 0 0 1 6 0m10.697-1.05a3 3 0 1 1-6 0 3 3 0 0 1 6 0m10.697-1.26a3 3 0 1 1-6 0 3 3 0 0 1 6 0m10.696-1.19a3 3 0 1 1-6 0 3 3 0 0 1 6 0m10.697-2.17a3 3 0 1 1-6 0 3 3 0 0 1 6 0m10.697-.49a3 3 0 1 1-6 0 3 3 0 0 1 6 0m10.697-1.05a3 3 0 1 1-6 0 3 3 0 0 1 6 0m10.697-1.19a3 3 0 1 1-6 0 3 3 0 0 1 6 0m10.696-2.24a3 3 0 1 1-6 0 3 3 0 0 1 6 0m10.697 0a3 3 0 1 1-6 0 3 3 0 0 1 6 0m10.697-.56a3 3 0 1 1-6 0 3 3 0 0 1 6 0m10.697-.35a3 3 0 1 1-6 0 3 3 0 0 1 6 0m10.696-1.47a3 3 0 1 1-6 0 3 3 0 0 1 6 0m10.697-2.8a3 3 0 1 1-6 0 3 3 0 0 1 6 0" clip-path="url(#a)"/>
  <path fill="#000" d="M355.422 441.6v-8.594h3.25q.844 0 1.297.078.64.11 1.062.407.438.297.688.828.265.531.265 1.172 0 1.093-.703 1.859-.687.75-2.515.75h-2.204v3.5zm1.14-4.5h2.22q1.109 0 1.562-.406.469-.422.469-1.172 0-.531-.282-.906-.265-.391-.703-.516-.297-.078-1.062-.078h-2.204zm10.797 3.734q-.593.5-1.14.704-.531.203-1.156.203-1.032 0-1.579-.5t-.546-1.282q0-.453.203-.828.203-.39.546-.61.344-.233.766-.343.297-.094.938-.172 1.265-.14 1.875-.36v-.265q0-.656-.297-.922-.406-.343-1.203-.343-.735 0-1.094.265-.36.25-.531.907l-1.032-.141q.141-.656.47-1.063.327-.406.937-.625.609-.218 1.406-.218t1.297.187.734.469.328.719q.047.265.047.968v1.407q0 1.468.063 1.859.078.39.28.75h-1.108q-.157-.328-.204-.766m-.093-2.359q-.579.234-1.72.406-.655.094-.921.219-.266.11-.422.328-.14.219-.14.5 0 .422.312.703.328.282.938.282t1.078-.266q.484-.266.703-.734.172-.36.172-1.047zm2.609 1.266 1.031-.157q.094.625.485.954.406.328 1.14.328.719 0 1.063-.282.36-.296.36-.703 0-.36-.313-.562-.22-.14-1.079-.36-1.156-.296-1.609-.5-.437-.218-.672-.593-.234-.375-.234-.844 0-.406.187-.766.188-.36.516-.593.25-.172.672-.297t.922-.125q.719 0 1.265.218.563.204.829.563.265.36.359.953l-1.031.14q-.063-.468-.407-.734-.328-.281-.953-.281-.719 0-1.031.25-.312.234-.312.563 0 .203.125.359.14.172.406.281.156.063.937.266 1.125.312 1.563.5.437.187.687.547.25.359.25.906 0 .531-.312 1-.297.453-.875.719-.578.25-1.313.25-1.219 0-1.86-.5-.624-.516-.796-1.5m6 0 1.031-.157q.094.625.485.954.406.328 1.14.328.719 0 1.063-.282.36-.296.36-.703 0-.36-.313-.562-.22-.14-1.079-.36-1.156-.296-1.609-.5-.437-.218-.672-.593-.234-.375-.234-.844 0-.406.187-.766.188-.36.516-.593.25-.172.672-.297t.922-.125q.719 0 1.265.218.563.204.829.563.265.36.359.953l-1.031.14q-.063-.468-.407-.734-.328-.281-.953-.281-.719 0-1.031.25-.312.234-.312.563 0 .203.125.359.14.172.406.281.156.063.937.266 1.125.312 1.563.5.437.187.687.547.25.359.25.906 0 .531-.312 1-.297.453-.875.719-.578.25-1.313.25-1.219 0-1.86-.5-.624-.516-.796-1.5m7.563 1.859-1.907-6.219h1.094l.984 3.594.375 1.328q.032-.094.329-1.281l.984-3.64h1.078l.938 3.609.312 1.187.36-1.203 1.062-3.594h1.031l-1.953 6.219h-1.094l-.984-3.734-.25-1.047-1.25 4.781zm7.468-3.11q0-1.734.953-2.562.797-.687 1.954-.687 1.28 0 2.093.843.828.829.828 2.313 0 1.203-.359 1.89-.36.688-1.062 1.079-.688.375-1.5.375-1.297 0-2.11-.828-.797-.844-.797-2.422m1.078 0q0 1.188.516 1.782.531.594 1.313.594.796 0 1.312-.594t.516-1.813q0-1.156-.532-1.75-.515-.593-1.296-.593-.782 0-1.313.593-.516.579-.516 1.782m6.297 3.11v-6.219h.953v.938q.36-.656.657-.86.312-.218.687-.218.531 0 1.078.328l-.36.984q-.39-.234-.765-.234-.36 0-.64.219-.266.203-.375.578-.188.562-.188 1.218v3.266zm8.047 0v-.781q-.594.922-1.734.922-.75 0-1.375-.407-.625-.421-.969-1.156t-.344-1.687q0-.922.313-1.688.312-.765.937-1.156.625-.406 1.39-.406.563 0 1 .234t.72.61v-3.079h1.046v8.594zM403 438.49q0 1.204.5 1.798.5.578 1.188.578t1.171-.563.485-1.719q0-1.28-.5-1.875-.485-.593-1.203-.593-.704 0-1.172.578-.469.562-.469 1.797m9.375 3.11v-8.594h1.14v7.578h4.235v1.016zm11.172-2 1.094.125q-.25.953-.954 1.484-.703.532-1.78.532-1.36 0-2.173-.844-.796-.844-.796-2.36 0-1.562.812-2.421.813-.875 2.094-.875 1.25 0 2.031.843.797.844.797 2.391v.281h-4.64q.062 1.032.577 1.578.516.532 1.297.532.578 0 .985-.297.421-.313.656-.969m-3.453-1.703h3.469q-.063-.797-.391-1.188-.516-.609-1.313-.609-.734 0-1.234.484-.484.485-.531 1.313m6.203 3.703v-6.219h.937v.875q.688-1.015 1.985-1.015.562 0 1.031.203.484.203.719.531t.328.766q.047.297.047 1.03v3.829h-1.047v-3.781q0-.656-.125-.969t-.438-.5q-.312-.203-.734-.203-.672 0-1.172.437-.484.422-.484 1.61v3.406zm6.797.516 1.031.156q.063.469.36.687.39.297 1.062.297.734 0 1.125-.297.406-.296.547-.812.094-.328.078-1.36-.688.813-1.719.813-1.281 0-1.984-.922-.703-.937-.703-2.219 0-.89.312-1.64.328-.766.938-1.172t1.437-.406q1.11 0 1.828.89v-.75h.969v5.375q0 1.453-.297 2.063t-.937.953q-.641.36-1.579.36-1.109 0-1.796-.5t-.672-1.516m.875-3.735q0 1.219.484 1.782.485.562 1.219.562t1.219-.562q.5-.563.5-1.75 0-1.141-.516-1.72-.5-.577-1.219-.577-.703 0-1.203.578-.484.562-.484 1.687m8.625 2.282.156.921q-.453.094-.797.094-.578 0-.89-.172-.313-.187-.454-.484-.125-.297-.125-1.25v-3.578h-.765v-.813h.765v-1.547l1.047-.625v2.172h1.063v.813h-1.063v3.64q0 .454.047.579.063.125.188.203t.359.078q.188 0 .469-.031m.703.937v-8.594h1.047v3.078q.734-.843 1.86-.843.702 0 1.202.28.516.267.735.75.218.47.218 1.392v3.937h-1.046v-3.937q0-.797-.344-1.157t-.969-.36q-.469 0-.89.25-.407.235-.594.657-.172.406-.172 1.14v3.407zM34.4 270.99h-7.578v2.829h-1.016v-6.813h1.016v2.844H34.4zm-7.375-4.687h-1.219v-1.062h1.219zm7.375 0h-6.219v-1.062H34.4zm0-3h-6.219v-.937h.875q-.468-.297-.734-.782-.281-.484-.281-1.109 0-.687.28-1.125.282-.453.798-.625-1.078-.75-1.078-1.922 0-.937.515-1.422.5-.5 1.578-.5H34.4v1.047h-3.922q-.625 0-.906.11-.281.093-.453.359t-.172.64q0 .657.437 1.094.438.422 1.407.422H34.4v1.063h-4.047q-.703 0-1.047.265-.36.25-.36.828 0 .454.235.829t.688.546 1.297.172H34.4zm-2-14.25.125-1.094q.953.25 1.484.953.532.704.532 1.782 0 1.36-.844 2.172-.844.796-2.36.796-1.562 0-2.421-.812-.875-.812-.875-2.094 0-1.25.843-2.031.844-.797 2.391-.797h.281v4.64q1.032-.062 1.578-.577.532-.516.532-1.297 0-.578-.297-.985-.313-.422-.969-.656m-1.703 3.453v-3.469q-.797.063-1.188.391-.609.516-.609 1.313 0 .734.484 1.234.485.484 1.313.531"/>
  <path fill="#fff" d="M64.65 392.475q0-.75.156-1.219.157-.468.469-.718.313-.25.781-.25.344 0 .594.14.266.14.438.406.171.25.265.641.094.375.094 1 0 .766-.156 1.234-.157.454-.47.72-.296.25-.765.25-.625 0-.984-.454-.422-.531-.422-1.75m.547 0q0 1.063.234 1.422.25.344.625.344.36 0 .61-.344.25-.36.25-1.422 0-1.047-.25-1.39-.25-.36-.625-.36-.36 0-.578.313-.266.39-.266 1.437M57.634 324.6h-.53v-3.36q-.188.188-.5.376-.298.172-.548.265v-.515q.438-.203.766-.5.344-.297.469-.578h.343zm1.016-2.125q0-.75.156-1.219.157-.468.469-.718.313-.25.781-.25.344 0 .594.14.266.14.438.406.171.25.265.641.094.375.094 1 0 .766-.156 1.234-.157.454-.47.72-.296.25-.765.25-.625 0-.984-.454-.422-.531-.422-1.75m.547 0q0 1.063.234 1.422.25.344.625.344.36 0 .61-.344.25-.36.25-1.422 0-1.047-.25-1.39-.25-.36-.625-.36-.36 0-.578.313-.266.39-.266 1.437m2.453 0q0-.75.156-1.219.157-.468.469-.718.313-.25.781-.25.344 0 .594.14.266.14.438.406.171.25.265.641.094.375.094 1 0 .766-.156 1.234-.157.454-.47.72-.296.25-.765.25-.625 0-.984-.454-.422-.531-.422-1.75m.547 0q0 1.063.234 1.422.25.344.625.344.36 0 .61-.344.25-.36.25-1.422 0-1.047-.25-1.39-.25-.36-.625-.36-.36 0-.578.313-.266.39-.266 1.437m2.453 0q0-.75.156-1.219.157-.468.469-.718.313-.25.781-.25.344 0 .594.14.266.14.438.406.171.25.265.641.094.375.094 1 0 .766-.156 1.234-.157.454-.47.72-.296.25-.765.25-.625 0-.984-.454-.422-.531-.422-1.75m.547 0q0 1.063.234 1.422.25.344.625.344.36 0 .61-.344.25-.36.25-1.422 0-1.047-.25-1.39-.25-.36-.625-.36-.36 0-.578.313-.266.39-.266 1.437M58.416 254.1v.5h-2.828q-.016-.187.062-.36.11-.296.344-.578.234-.28.687-.656.703-.562.938-.89.25-.344.25-.641 0-.328-.219-.531-.219-.219-.578-.219-.39 0-.625.234-.219.22-.219.625l-.547-.062q.063-.594.422-.906.36-.329.969-.329.625 0 .984.344.36.344.36.844 0 .266-.11.516t-.36.53q-.233.267-.796.75-.484.392-.625.532-.125.14-.203.297zm.234-1.625q0-.75.156-1.219.157-.469.469-.719.313-.25.781-.25.344 0 .594.141.266.14.438.406.171.25.265.641.094.375.094 1 0 .766-.156 1.234-.157.453-.47.72-.296.25-.765.25-.625 0-.984-.454-.422-.531-.422-1.75m.547 0q0 1.063.234 1.422.25.344.625.344.36 0 .61-.344.25-.36.25-1.422 0-1.047-.25-1.39-.25-.36-.625-.36-.36 0-.578.313-.266.39-.266 1.437m2.453 0q0-.75.156-1.219.157-.469.469-.719.313-.25.781-.25.344 0 .594.141.266.14.438.406.171.25.265.641.094.375.094 1 0 .766-.156 1.234-.157.453-.47.72-.296.25-.765.25-.625 0-.984-.454-.422-.531-.422-1.75m.547 0q0 1.063.234 1.422.25.344.625.344.36 0 .61-.344.25-.36.25-1.422 0-1.047-.25-1.39-.25-.36-.625-.36-.36 0-.578.313-.266.39-.266 1.437m2.453 0q0-.75.156-1.219.157-.469.469-.719.313-.25.781-.25.344 0 .594.141.266.14.438.406.171.25.265.641.094.375.094 1 0 .766-.156 1.234-.157.453-.47.72-.296.25-.765.25-.625 0-.984-.454-.422-.531-.422-1.75m.547 0q0 1.063.234 1.422.25.344.625.344.36 0 .61-.344.25-.36.25-1.422 0-1.047-.25-1.39-.25-.36-.625-.36-.36 0-.578.313-.266.39-.266 1.437M55.65 183.46l.531-.063q.094.453.313.656.218.188.531.188.375 0 .625-.25.25-.266.25-.641t-.234-.61-.594-.234q-.156 0-.375.063l.047-.469q.062.016.093.016.329 0 .594-.172.282-.188.282-.547 0-.297-.204-.484-.187-.188-.5-.188-.312 0-.515.188-.203.187-.266.578l-.516-.094q.094-.531.438-.813.344-.297.844-.297.36 0 .656.157.297.14.453.406t.156.547-.156.516q-.14.218-.437.359.375.094.578.375.218.266.218.687 0 .563-.406.953-.406.391-1.031.391-.578 0-.953-.328-.36-.344-.422-.89m3-.985q0-.75.156-1.219.157-.469.469-.719.313-.25.781-.25.344 0 .594.141.266.14.438.406.171.25.265.641.094.375.094 1 0 .766-.156 1.234-.157.453-.47.72-.296.25-.765.25-.625 0-.984-.454-.422-.531-.422-1.75m.547 0q0 1.063.234 1.422.25.344.625.344.36 0 .61-.344.25-.36.25-1.422 0-1.047-.25-1.39-.25-.36-.625-.36-.36 0-.578.313-.266.39-.266 1.437m2.453 0q0-.75.156-1.219.157-.469.469-.719.313-.25.781-.25.344 0 .594.141.266.14.438.406.171.25.265.641.094.375.094 1 0 .766-.156 1.234-.157.453-.47.72-.296.25-.765.25-.625 0-.984-.454-.422-.531-.422-1.75m.547 0q0 1.063.234 1.422.25.344.625.344.36 0 .61-.344.25-.36.25-1.422 0-1.047-.25-1.39-.25-.36-.625-.36-.36 0-.578.313-.266.39-.266 1.437m2.453 0q0-.75.156-1.219.157-.469.469-.719.313-.25.781-.25.344 0 .594.141.266.14.438.406.171.25.265.641.094.375.094 1 0 .766-.156 1.234-.157.453-.47.72-.296.25-.765.25-.625 0-.984-.454-.422-.531-.422-1.75m.547 0q0 1.063.234 1.422.25.344.625.344.36 0 .61-.344.25-.36.25-1.422 0-1.047-.25-1.39-.25-.36-.625-.36-.36 0-.578.313-.266.39-.266 1.437M57.338 114.6v-1.031h-1.86v-.485l1.953-2.78h.438v2.78h.578v.485h-.578v1.031zm0-1.516v-1.937l-1.344 1.937zm1.312-.609q0-.75.156-1.219.157-.469.469-.719.313-.25.781-.25.344 0 .594.141.266.14.438.406.171.25.265.641.094.375.094 1 0 .766-.156 1.234-.157.453-.47.72-.296.25-.765.25-.625 0-.984-.454-.422-.531-.422-1.75m.547 0q0 1.063.234 1.422.25.344.625.344.36 0 .61-.344.25-.36.25-1.422 0-1.047-.25-1.39-.25-.36-.625-.36-.36 0-.578.313-.266.39-.266 1.437m2.453 0q0-.75.156-1.219.157-.469.469-.719.313-.25.781-.25.344 0 .594.141.266.14.438.406.171.25.265.641.094.375.094 1 0 .766-.156 1.234-.157.453-.47.72-.296.25-.765.25-.625 0-.984-.454-.422-.531-.422-1.75m.547 0q0 1.063.234 1.422.25.344.625.344.36 0 .61-.344.25-.36.25-1.422 0-1.047-.25-1.39-.25-.36-.625-.36-.36 0-.578.313-.266.39-.266 1.437m2.453 0q0-.75.156-1.219.157-.469.469-.719.313-.25.781-.25.344 0 .594.141.266.14.438.406.171.25.265.641.094.375.094 1 0 .766-.156 1.234-.157.453-.47.72-.296.25-.765.25-.625 0-.984-.454-.422-.531-.422-1.75m.547 0q0 1.063.234 1.422.25.344.625.344.36 0 .61-.344.25-.36.25-1.422 0-1.047-.25-1.39-.25-.36-.625-.36-.36 0-.578.313-.266.39-.266 1.437"/>
  <path fill="#000" d="M89.262 409.6h-1.047v-6.719q-.39.36-1.015.735-.61.359-1.094.53v-1.015q.875-.422 1.531-1 .672-.593.953-1.156h.672zm3.032-4.234q0-1.532.312-2.453.313-.938.922-1.438.625-.5 1.562-.5.688 0 1.204.281.53.282.875.813.343.515.53 1.265.188.75.188 2.032 0 1.515-.312 2.437-.297.922-.922 1.438-.61.5-1.563.5-1.234 0-1.953-.891-.843-1.062-.843-3.484m1.078 0q0 2.109.5 2.812t1.218.703q.735 0 1.22-.703.5-.703.5-2.812 0-2.125-.5-2.813-.485-.703-1.235-.703-.719 0-1.156.61-.547.78-.547 2.906m104.436 3.218v1.016h-5.687q0-.375.125-.734.218-.578.687-1.141.485-.562 1.39-1.297 1.407-1.156 1.891-1.828.5-.672.5-1.266 0-.625-.453-1.046-.453-.438-1.172-.438-.765 0-1.218.453t-.47 1.266l-1.077-.11q.11-1.218.828-1.843.734-.641 1.969-.641 1.234 0 1.953.688t.719 1.703q0 .515-.22 1.015-.202.485-.702 1.047-.485.547-1.61 1.5-.953.797-1.234 1.094-.266.281-.438.562zm1.453-3.218q0-1.532.313-2.453.312-.938.922-1.438.625-.5 1.562-.5.688 0 1.203.281.532.282.875.813.344.515.532 1.265.187.75.187 2.032 0 1.515-.312 2.437-.297.922-.922 1.438-.61.5-1.563.5-1.234 0-1.953-.891-.844-1.062-.844-3.484m1.078 0q0 2.109.5 2.812t1.22.703q.734 0 1.218-.703.5-.703.5-2.812 0-2.125-.5-2.813-.484-.703-1.234-.703-.72 0-1.157.61-.547.78-.547 2.906m98.89 1.968 1.063-.14q.171.89.609 1.297.437.39 1.062.39.75 0 1.266-.515.516-.516.516-1.282 0-.718-.485-1.187-.468-.484-1.203-.484-.297 0-.75.125l.125-.938q.11.016.172.016.672 0 1.203-.344.547-.36.547-1.094 0-.578-.39-.953-.391-.39-1.016-.39-.61 0-1.031.39-.407.39-.516 1.156l-1.063-.187q.188-1.047.875-1.625.688-.594 1.704-.594.703 0 1.296.313.594.296.907.812.312.516.312 1.11 0 .546-.297 1.015-.297.453-.875.719.75.172 1.172.734.422.547.422 1.39 0 1.126-.828 1.907-.813.781-2.063.781-1.125 0-1.875-.672-.75-.687-.859-1.75m7-1.968q0-1.532.313-2.453.312-.938.921-1.438.625-.5 1.563-.5.687 0 1.203.281.531.282.875.813.344.515.531 1.265t.188 2.032q0 1.515-.313 2.437-.297.922-.922 1.438-.609.5-1.562.5-1.234 0-1.953-.891-.844-1.062-.844-3.484m1.078 0q0 2.109.5 2.812t1.219.703q.734 0 1.219-.703.5-.703.5-2.812 0-2.125-.5-2.813-.485-.703-1.235-.703-.718 0-1.156.61-.547.78-.547 2.906m102.265 4.234v-2.062h-3.719v-.97l3.922-5.562h.86v5.563h1.156v.969h-1.157v2.062zm0-3.031v-3.86l-2.688 3.86zm3.625-1.203q0-1.532.312-2.453.313-.938.922-1.438.625-.5 1.563-.5.687 0 1.203.281.531.282.875.813.344.515.531 1.265t.188 2.032q0 1.515-.313 2.437-.297.922-.922 1.438-.61.5-1.562.5-1.235 0-1.953-.891-.844-1.062-.844-3.484m1.078 0q0 2.109.5 2.812t1.219.703q.734 0 1.218-.703.5-.703.5-2.812 0-2.125-.5-2.813-.484-.703-1.234-.703-.719 0-1.156.61-.547.78-.547 2.906m98.89 1.984 1.109-.094q.125.813.562 1.219.453.406 1.094.406.75 0 1.281-.578.532-.578.532-1.515 0-.907-.516-1.422-.5-.532-1.328-.532-.5 0-.922.235-.406.234-.64.594l-.985-.125.828-4.407h4.281v1h-3.437l-.453 2.313q.765-.547 1.61-.547 1.124 0 1.89.781.781.781.781 2.016 0 1.156-.672 2.015-.828 1.032-2.25 1.032-1.172 0-1.922-.657-.734-.656-.844-1.734m7-1.984q0-1.532.312-2.453.313-.938.922-1.438.625-.5 1.562-.5.688 0 1.203.281.532.282.875.813.344.515.532 1.265.187.75.187 2.032 0 1.515-.312 2.437-.297.922-.922 1.438-.61.5-1.563.5-1.234 0-1.953-.891-.844-1.062-.844-3.484m1.078 0q0 2.109.5 2.812t1.218.703q.735 0 1.22-.703.5-.703.5-2.812 0-2.125-.5-2.813-.485-.703-1.235-.703-.719 0-1.157.61-.546.78-.546 2.906m104.36-2.25-1.047.078q-.14-.625-.39-.906-.438-.454-1.063-.454-.5 0-.89.282-.485.375-.782 1.078-.281.687-.297 1.969.375-.579.922-.86.563-.281 1.172-.281 1.047 0 1.781.781.75.781.75 2 0 .813-.36 1.516-.343.687-.952 1.062-.61.36-1.375.36-1.328 0-2.157-.97-.828-.968-.828-3.187 0-2.5.922-3.625.797-.984 2.157-.984 1.015 0 1.656.578.656.563.781 1.563m-4.297 3.703q0 .547.219 1.047.234.484.64.75.422.265.891.265.656 0 1.14-.531.485-.547.485-1.469 0-.89-.484-1.406-.469-.516-1.188-.516-.718 0-1.218.516-.485.516-.485 1.344m5.828-1.453q0-1.532.313-2.453.312-.938.922-1.438.625-.5 1.562-.5.688 0 1.203.281.532.282.875.813.344.515.532 1.265.187.75.187 2.032 0 1.515-.312 2.437-.297.922-.922 1.438-.61.5-1.563.5-1.234 0-1.953-.891-.844-1.062-.844-3.484m1.078 0q0 2.109.5 2.812t1.22.703q.734 0 1.218-.703.5-.703.5-2.812 0-2.125-.5-2.813-.485-.703-1.235-.703-.718 0-1.156.61-.547.78-.547 2.906m98.953-3.235v-1.015h5.562v.828q-.812.875-1.625 2.328-.797 1.437-1.234 2.969-.328 1.078-.407 2.359h-1.093q.015-1.016.39-2.453.39-1.438 1.094-2.766.719-1.328 1.531-2.25zm6.937 3.235q0-1.532.313-2.453.312-.938.921-1.438.625-.5 1.563-.5.687 0 1.203.281.531.282.875.813.344.515.531 1.265t.188 2.032q0 1.515-.313 2.437-.297.922-.922 1.438-.609.5-1.562.5-1.235 0-1.953-.891-.844-1.062-.844-3.484m1.078 0q0 2.109.5 2.812t1.219.703q.734 0 1.219-.703.5-.703.5-2.812 0-2.125-.5-2.813-.485-.703-1.235-.703-.718 0-1.156.61-.547.78-.547 2.906"/>
  <path stroke="#4285f4" stroke-linecap="butt" stroke-width="4" d="M74 69.5h12"/>
  <path fill="#1a1a1a" d="M94.531 69.172q0-1.969 1.047-3.078 1.063-1.11 2.719-1.11 1.094 0 1.969.532.875.515 1.328 1.453.469.922.469 2.11t-.485 2.14q-.484.937-1.375 1.437-.875.485-1.906.485-1.11 0-1.984-.532-.876-.546-1.329-1.468-.453-.938-.453-1.97m1.078.016q0 1.421.766 2.25.766.812 1.922.812 1.172 0 1.922-.828.765-.828.765-2.36 0-.953-.328-1.671-.312-.72-.937-1.11t-1.406-.39q-1.11 0-1.907.765-.797.75-.797 2.531M103.72 73v-5.703h.875v.812q.625-.937 1.812-.937.516 0 .953.187.438.172.641.485.219.297.313.703.046.281.046.953V73h-.968v-3.469q0-.594-.11-.875-.11-.297-.406-.469-.281-.187-.672-.187-.61 0-1.062.39-.454.391-.454 1.5V73zm9.906-1.844 1 .125q-.234.875-.875 1.36-.64.484-1.625.484-1.25 0-1.984-.766-.735-.765-.735-2.156 0-1.453.735-2.234.75-.797 1.921-.797 1.157 0 1.876.781.718.766.718 2.188v.25h-4.25q.047.937.516 1.437.484.5 1.203.5.531 0 .906-.266.375-.28.594-.906m-3.172-1.562h3.188q-.063-.719-.36-1.078-.469-.547-1.203-.547-.672 0-1.125.453-.453.437-.5 1.172m12.172 1.562 1 .125q-.234.875-.875 1.36-.64.484-1.625.484-1.25 0-1.984-.766-.735-.765-.735-2.156 0-1.453.735-2.234.75-.797 1.921-.797 1.157 0 1.876.781.718.766.718 2.188v.25h-4.25q.047.937.516 1.437.484.5 1.203.5.531 0 .906-.266.375-.28.594-.906m-3.172-1.562h3.188q-.063-.719-.36-1.078-.469-.547-1.203-.547-.672 0-1.125.453-.453.437-.5 1.172m9 2.703q-.547.453-1.047.64-.484.188-1.062.188-.938 0-1.453-.453-.5-.469-.5-1.172 0-.422.187-.766.203-.343.5-.546.313-.22.703-.329.281-.078.86-.14 1.171-.14 1.718-.344.016-.187.016-.25 0-.594-.281-.828-.36-.328-1.094-.328-.687 0-1.016.234-.312.234-.468.844l-.954-.125q.126-.61.422-.984.297-.376.86-.563.562-.203 1.297-.203t1.187.172.656.437q.22.25.313.64.047.25.047.907v1.281q0 1.344.062 1.704.063.359.25.687h-1.015q-.157-.297-.188-.703m-.094-2.156q-.515.218-1.578.359-.594.094-.844.203-.234.094-.374.313-.141.203-.141.453 0 .39.297.656.297.25.86.25t.984-.25q.437-.25.656-.672.14-.328.14-.969zm6.094.765.938.125q-.141.985-.797 1.547-.64.547-1.563.547-1.172 0-1.89-.766-.703-.765-.703-2.187 0-.922.296-1.61.313-.703.938-1.046t1.36-.344q.921 0 1.515.469t.766 1.328l-.954.14q-.125-.562-.468-.843-.344-.297-.828-.297-.72 0-1.188.531-.453.516-.453 1.64 0 1.157.437 1.672.438.516 1.157.516.562 0 .937-.344.39-.343.5-1.078M136.72 73v-7.875h.969v2.828q.687-.781 1.718-.781.625 0 1.094.25t.672.687.203 1.282V73h-.969v-3.61q0-.734-.312-1.062-.313-.328-.89-.328-.438 0-.813.219t-.547.61q-.156.374-.156 1.046V73zm6.28-4.61v-1.093h1.094v1.094zm0 4.61v-1.094h1.094V73zm9.469 0v-.844q-.672.969-1.813.969-.5 0-.953-.187-.437-.204-.656-.485-.203-.297-.281-.719-.063-.28-.063-.906v-3.531h.969v3.156q0 .766.062 1.031.094.375.375.594.297.219.735.219.437 0 .812-.219.39-.234.547-.61.156-.39.156-1.109v-3.062h.97V73zm2.25 2.188v-7.891h.89v.734q.313-.422.703-.64.391-.22.954-.22.718 0 1.28.376.563.375.845 1.062.28.672.28 1.5 0 .875-.312 1.579-.312.687-.922 1.062-.593.375-1.25.375-.484 0-.875-.203-.375-.203-.625-.516v2.781zm.875-5q0 1.093.453 1.624.453.516 1.078.516.64 0 1.094-.531.469-.547.469-1.703 0-1.078-.454-1.625-.437-.547-1.062-.547t-1.11.578q-.468.578-.468 1.688m5.125 5v-7.891h.89v.734q.313-.422.703-.64.391-.22.954-.22.718 0 1.28.376.563.375.845 1.062.28.672.28 1.5 0 .875-.312 1.579-.312.687-.922 1.062-.593.375-1.25.375-.484 0-.875-.203-.375-.203-.625-.516v2.781zm.875-5q0 1.093.453 1.624.453.516 1.078.516.64 0 1.094-.531.469-.547.469-1.703 0-1.078-.454-1.625-.437-.547-1.062-.547t-1.11.578q-.468.578-.468 1.688m9.031.968 1 .125q-.234.875-.875 1.36-.64.484-1.625.484-1.25 0-1.984-.766-.735-.765-.735-2.156 0-1.453.735-2.234.75-.797 1.922-.797 1.156 0 1.875.781.718.766.718 2.188v.25h-4.25q.047.937.516 1.437.484.5 1.203.5.531 0 .906-.266.375-.28.594-.906m-3.172-1.562h3.188q-.063-.719-.36-1.078-.469-.547-1.203-.547-.672 0-1.125.453-.453.437-.5 1.172M172.72 73v-5.703h.86v.86q.343-.61.624-.798.281-.187.61-.187.5 0 1 .312l-.329.891q-.359-.203-.718-.203-.313 0-.563.187-.25.188-.36.532-.155.515-.155 1.125V73zm7.734-2.094.938.125q-.141.985-.797 1.547-.64.547-1.563.547-1.172 0-1.89-.766-.703-.765-.703-2.187 0-.922.296-1.61.313-.703.938-1.046t1.36-.344q.921 0 1.515.469t.766 1.328l-.954.14q-.125-.562-.468-.843-.344-.297-.828-.297-.72 0-1.188.531-.453.516-.453 1.64 0 1.157.437 1.672.438.516 1.157.516.562 0 .937-.344.39-.343.5-1.078m6 1.39q-.547.454-1.047.641-.484.188-1.062.188-.938 0-1.453-.453-.5-.469-.5-1.172 0-.422.187-.766.203-.343.5-.546.313-.22.703-.329.281-.078.86-.14 1.172-.14 1.718-.344.016-.187.016-.25 0-.594-.281-.828-.36-.328-1.094-.328-.687 0-1.016.234-.312.234-.468.844l-.953-.125q.125-.61.421-.984.297-.376.86-.563.562-.203 1.297-.203t1.187.172.656.437q.22.25.313.64.047.25.047.907v1.281q0 1.344.062 1.704.063.359.25.687h-1.015q-.157-.297-.188-.703m-.094-2.155q-.515.218-1.578.359-.594.094-.844.203-.234.094-.375.313-.14.203-.14.453 0 .39.297.656.297.25.86.25t.983-.25q.438-.25.657-.672.14-.328.14-.969zm1.985 1.156.953-.156q.078.578.437.89.375.297 1.032.297.672 0 .984-.266.328-.265.328-.64 0-.328-.281-.516-.203-.125-.984-.328-1.063-.266-1.485-.453-.406-.203-.625-.547-.203-.344-.203-.766 0-.39.172-.703.172-.328.484-.546.219-.172.61-.282.39-.11.828-.11.672 0 1.172.188.515.188.75.532.25.328.343.875l-.937.125q-.078-.438-.39-.672-.298-.25-.86-.25-.672 0-.953.219-.281.218-.281.515 0 .188.109.328.125.156.375.266.14.047.86.25 1.015.266 1.421.437.406.172.64.516.235.328.235.828 0 .484-.281.906t-.813.657q-.53.234-1.203.234-1.11 0-1.703-.453-.578-.469-.734-1.375m10.281-.14 1 .124q-.234.875-.875 1.36-.64.484-1.625.484-1.25 0-1.984-.766-.735-.765-.735-2.156 0-1.453.735-2.234.75-.797 1.922-.797 1.156 0 1.875.781.718.766.718 2.188v.25h-4.25q.047.937.516 1.437.484.5 1.203.5.531 0 .906-.266.375-.28.594-.906m-3.172-1.563h3.188q-.063-.719-.36-1.078-.469-.547-1.203-.547-.672 0-1.125.453-.453.437-.5 1.172m5.53 3.406v-1.094h1.094V73q0 .61-.219.984-.203.375-.672.579l-.28-.422q.312-.125.452-.391.157-.266.172-.75zm5.72 0v-7.875h.968V73zm1.655-2.86q0-1.578.891-2.343.734-.625 1.797-.625 1.172 0 1.906.766.75.765.75 2.124 0 1.11-.328 1.75-.328.626-.969.97-.625.343-1.36.343-1.202 0-1.952-.766-.735-.765-.735-2.218m1 0q0 1.11.47 1.657.483.531 1.218.531.719 0 1.187-.547.485-.547.485-1.672 0-1.046-.485-1.593-.484-.547-1.187-.547-.734 0-1.219.547-.469.53-.469 1.625m6.422 2.86-1.75-5.703h1l.906 3.297.344 1.219q.016-.094.297-1.172l.906-3.344h.985l.86 3.312.28 1.079.328-1.094.985-3.297h.937L220.08 73h-1l-.923-3.422-.219-.969L216.782 73zm10.844-1.844 1 .125q-.234.875-.875 1.36-.64.484-1.625.484-1.25 0-1.984-.766-.735-.765-.735-2.156 0-1.453.735-2.234.75-.797 1.922-.797 1.156 0 1.875.781.718.766.718 2.188v.25h-4.25q.047.937.516 1.437.484.5 1.203.5.531 0 .906-.266.375-.28.594-.906m-3.172-1.562h3.188q-.063-.719-.36-1.078-.469-.547-1.203-.547-.672 0-1.125.453-.453.437-.5 1.172M228.72 73v-5.703h.86v.86q.343-.61.624-.798.281-.187.61-.187.5 0 1 .312l-.329.891q-.359-.203-.718-.203-.313 0-.563.187-.25.188-.36.532-.155.515-.155 1.125V73zm7.734-2.094.938.125q-.141.985-.797 1.547-.64.547-1.563.547-1.172 0-1.89-.766-.703-.765-.703-2.187 0-.922.296-1.61.313-.703.938-1.046t1.36-.344q.921 0 1.515.469t.766 1.328l-.954.14q-.125-.562-.468-.843-.344-.297-.828-.297-.72 0-1.188.531-.453.516-.453 1.64 0 1.157.437 1.672.438.516 1.157.516.562 0 .937-.344.39-.343.5-1.078m6 1.39q-.547.454-1.047.641-.484.188-1.062.188-.938 0-1.453-.453-.5-.469-.5-1.172 0-.422.187-.766.203-.343.5-.546.313-.22.703-.329.281-.078.86-.14 1.172-.14 1.718-.344.016-.187.016-.25 0-.594-.281-.828-.36-.328-1.094-.328-.687 0-1.016.234-.312.234-.468.844l-.953-.125q.125-.61.421-.984.297-.376.86-.563.562-.203 1.297-.203t1.187.172.656.437q.22.25.313.64.047.25.047.907v1.281q0 1.344.062 1.704.063.359.25.687h-1.015q-.157-.297-.188-.703m-.094-2.155q-.515.218-1.578.359-.594.094-.844.203-.234.094-.375.313-.14.203-.14.453 0 .39.297.656.297.25.86.25t.983-.25q.438-.25.657-.672.14-.328.14-.969zm1.985 1.156.953-.156q.078.578.437.89.375.297 1.032.297.672 0 .984-.266.328-.265.328-.64 0-.328-.281-.516-.203-.125-.984-.328-1.063-.266-1.485-.453-.406-.203-.625-.547-.203-.344-.203-.766 0-.39.172-.703.172-.328.484-.546.219-.172.61-.282.39-.11.828-.11.672 0 1.172.188.515.188.75.532.25.328.343.875l-.937.125q-.078-.438-.39-.672-.298-.25-.86-.25-.672 0-.953.219-.281.218-.281.515 0 .188.109.328.125.156.375.266.14.047.86.25 1.015.266 1.421.437.406.172.64.516.235.328.235.828 0 .484-.281.906t-.813.657q-.53.234-1.203.234-1.11 0-1.703-.453-.578-.469-.734-1.375m10.281-.14 1 .124q-.234.875-.875 1.36-.64.484-1.625.484-1.25 0-1.984-.766-.735-.765-.735-2.156 0-1.453.735-2.234.75-.797 1.922-.797 1.156 0 1.875.781.718.766.718 2.188v.25h-4.25q.047.937.516 1.437.484.5 1.203.5.531 0 .906-.266.375-.28.594-.906m-3.172-1.563h3.188q-.063-.719-.36-1.078-.469-.547-1.203-.547-.672 0-1.125.453-.453.437-.5 1.172m5.53 3.406v-1.094h1.094V73q0 .61-.219.984-.203.375-.671.579l-.282-.422q.313-.125.453-.391.157-.266.172-.75zm5.735 0v-5.703h.875v.812q.625-.937 1.812-.937.516 0 .953.187.438.172.641.485.219.297.313.703.046.281.046.953V73h-.968v-3.469q0-.594-.11-.875-.11-.297-.406-.469-.281-.187-.672-.187-.61 0-1.062.39-.454.391-.454 1.5V73zm9.75 0v-.844q-.672.969-1.813.969-.5 0-.953-.187-.437-.204-.656-.485-.203-.297-.281-.719-.063-.28-.063-.906v-3.531h.969v3.156q0 .766.062 1.031.094.375.375.594.297.219.735.219.437 0 .812-.219.39-.234.547-.61.156-.39.156-1.109v-3.062h.97V73zm2.25 0v-5.703h.875v.797q.265-.422.703-.672.453-.25 1.015-.25.641 0 1.047.266.407.25.579.734.671-1 1.75-1 .859 0 1.312.469t.453 1.437V73h-.953v-3.594q0-.578-.094-.828-.094-.266-.344-.422t-.578-.156q-.609 0-1.015.406-.39.406-.39 1.281V73h-.97v-3.703q0-.64-.234-.969t-.766-.328q-.406 0-.765.219-.344.219-.5.64-.156.407-.156 1.188V73zm12.906-1.844 1 .125q-.234.875-.875 1.36-.64.484-1.625.484-1.25 0-1.984-.766-.735-.765-.735-2.156 0-1.453.735-2.234.75-.797 1.921-.797 1.157 0 1.875.781.72.766.72 2.188v.25h-4.25q.046.937.515 1.437.484.5 1.203.5.531 0 .906-.266.375-.28.594-.906m-3.172-1.562h3.188q-.063-.719-.36-1.078-.469-.547-1.203-.547-.672 0-1.125.453-.453.437-.5 1.172M289.72 73v-5.703h.86v.86q.343-.61.624-.798.281-.187.61-.187.5 0 1 .312l-.329.891q-.359-.203-.718-.203-.313 0-.563.187-.25.188-.36.532-.156.515-.156 1.125V73zm4.015-6.766v-1.109h.97v1.11zm0 6.766v-5.703h.97V73zm5.72-2.094.937.125q-.141.985-.797 1.547-.64.547-1.563.547-1.172 0-1.89-.766-.704-.765-.704-2.187 0-.922.297-1.61.313-.703.938-1.046t1.36-.344q.921 0 1.515.469t.765 1.328l-.953.14q-.125-.562-.468-.843-.344-.297-.829-.297-.718 0-1.187.531-.453.516-.453 1.64 0 1.157.437 1.672.438.516 1.157.516.562 0 .937-.344.39-.343.5-1.078m2.53 2.094v-1.094h1.094V73q0 .61-.219.984-.203.375-.671.579l-.282-.422q.313-.125.453-.391.157-.266.172-.75zm5.75-5.094-.25-1.469v-1.312h1.094v1.313l-.25 1.468zm2.5 3.14-.28-4.171v-1.75h1.187v1.75l-.282 4.172zm-.25 1.954v-1.094h1.11V73zm8.25-.875q-.343.406-.78.656-.438.235-.86.235-.485 0-.938-.282-.453-.28-.734-.859-.281-.578-.281-1.266 0-.859.437-1.718.438-.86 1.078-1.282.656-.437 1.281-.437.454 0 .875.25.438.25.735.75l.187-.844h.97l-.782 3.61q-.156.75-.156.828 0 .156.109.265.11.094.266.094.28 0 .75-.328.609-.438.968-1.156.36-.72.36-1.485 0-.906-.469-1.672-.453-.78-1.375-1.25-.906-.468-2-.468-1.266 0-2.312.593-1.032.579-1.61 1.688-.562 1.094-.562 2.344 0 1.312.562 2.265.578.953 1.656 1.406 1.094.454 2.407.454 1.406 0 2.359-.47.953-.468 1.422-1.155h.969q-.266.578-.938 1.156-.672.594-1.594.922-.906.344-2.203.344-1.187 0-2.203-.313-1-.297-1.719-.922-.703-.61-1.062-1.406-.453-1.016-.453-2.188 0-1.312.547-2.5.64-1.453 1.843-2.218 1.22-.782 2.938-.782 1.328 0 2.39.547t1.672 1.625q.516.922.516 2.016 0 1.562-1.094 2.766-.969 1.078-2.14 1.078-.36 0-.594-.11-.219-.11-.328-.312-.078-.14-.11-.469m-2.593-1.453q0 .734.343 1.14.344.407.797.407.313 0 .64-.172.329-.188.626-.531.312-.36.5-.907.203-.546.203-1.093 0-.735-.375-1.125-.36-.407-.875-.407-.344 0-.656.172-.297.172-.578.563-.282.375-.454.937-.171.547-.171 1.016m7.906 2.469.469-2.297h-.907v-.797h1.079l.39-1.953h-1.469v-.797h1.625l.47-2.313h.812l-.47 2.313h1.688l.47-2.313h.812l-.47 2.313h.938v.797h-1.093l-.407 1.953h1.5v.797h-1.656l-.469 2.297h-.812l.469-2.297h-1.688l-.469 2.297zm1.437-3.094h1.688l.406-1.953h-1.687zm6.75 4.094v-.97q-.718-.093-1.171-.327t-.782-.75q-.328-.531-.39-1.281l.968-.188q.125.781.407 1.156.406.516.968.563v-3.078q-.593-.11-1.218-.454-.454-.265-.704-.718t-.25-1.031q0-1.032.735-1.672.484-.438 1.437-.532v-.453h.579v.453q.843.079 1.328.5.64.532.765 1.438l-1 .156q-.078-.578-.36-.875-.265-.297-.733-.406v2.797q.734.187.968.281.453.203.735.484.28.282.437.672t.156.86q0 1-.64 1.671-.64.672-1.656.72v.984zm0-8.47q-.562.079-.89.454-.313.36-.313.86t.266.828q.281.328.937.53zm.579 6.673q.562-.063.921-.485.375-.421.375-1.03 0-.532-.265-.845-.25-.328-1.031-.578zm3.421-4.438-.25-1.469v-1.312h1.094v1.313l-.25 1.468z"/>
  <path stroke="#ea4335" stroke-linecap="butt" stroke-width="4" d="M353 69.5h12"/>
  <path fill="#1a1a1a" d="M373.531 69.172q0-1.969 1.047-3.078 1.063-1.11 2.719-1.11 1.094 0 1.969.532.875.515 1.328 1.453.469.922.469 2.11t-.485 2.14q-.484.937-1.375 1.437-.875.485-1.906.485-1.11 0-1.985-.532-.875-.546-1.328-1.468-.453-.938-.453-1.97m1.078.016q0 1.421.766 2.25.766.812 1.922.812 1.172 0 1.922-.828.765-.828.765-2.36 0-.953-.328-1.671-.312-.72-.937-1.11t-1.406-.39q-1.11 0-1.907.765-.797.75-.797 2.531M382.72 73v-5.703h.875v.812q.625-.937 1.812-.937.516 0 .953.187.438.172.641.485.219.297.313.703.046.281.046.953V73h-.968v-3.469q0-.594-.11-.875-.11-.297-.406-.469-.281-.187-.672-.187-.61 0-1.062.39-.454.391-.454 1.5V73zm9.906-1.844 1 .125q-.234.875-.875 1.36-.64.484-1.625.484-1.25 0-1.984-.766-.735-.765-.735-2.156 0-1.453.735-2.234.75-.797 1.921-.797 1.157 0 1.875.781.72.766.72 2.188v.25h-4.25q.046.937.515 1.437.484.5 1.203.5.531 0 .906-.266.375-.28.594-.906m-3.172-1.562h3.188q-.063-.719-.36-1.078-.469-.547-1.203-.547-.672 0-1.125.453-.453.437-.5 1.172m12.172 1.562 1 .125q-.234.875-.875 1.36-.64.484-1.625.484-1.25 0-1.984-.766-.735-.765-.735-2.156 0-1.453.735-2.234.75-.797 1.921-.797 1.157 0 1.875.781.72.766.72 2.188v.25h-4.25q.046.937.515 1.437.484.5 1.203.5.531 0 .906-.266.375-.28.594-.906m-3.172-1.562h3.188q-.063-.719-.36-1.078-.469-.547-1.203-.547-.672 0-1.125.453-.453.437-.5 1.172m9 2.703q-.547.453-1.047.64-.484.188-1.062.188-.938 0-1.453-.453-.5-.469-.5-1.172 0-.422.187-.766.203-.343.5-.546.313-.22.703-.329.281-.078.86-.14 1.171-.14 1.718-.344.016-.187.016-.25 0-.594-.281-.828-.36-.328-1.094-.328-.687 0-1.016.234-.312.234-.468.844l-.954-.125q.125-.61.422-.984.297-.376.86-.563.562-.203 1.297-.203t1.187.172.656.437q.22.25.313.64.047.25.047.907v1.281q0 1.344.062 1.704.063.359.25.687h-1.015q-.157-.297-.188-.703m-.094-2.156q-.515.218-1.578.359-.594.094-.844.203-.234.094-.375.313-.14.203-.14.453 0 .39.297.656.297.25.86.25t.983-.25q.438-.25.657-.672.14-.328.14-.969zm6.094.765.938.125q-.141.985-.797 1.547-.64.547-1.563.547-1.172 0-1.89-.766-.704-.765-.704-2.187 0-.922.297-1.61.313-.703.938-1.046t1.36-.344q.921 0 1.515.469t.765 1.328l-.953.14q-.125-.562-.468-.843-.344-.297-.829-.297-.718 0-1.187.531-.453.516-.453 1.64 0 1.157.437 1.672.438.516 1.157.516.562 0 .937-.344.39-.343.5-1.078M415.72 73v-7.875h.969v2.828q.687-.781 1.718-.781.625 0 1.094.25t.672.687.203 1.282V73h-.969v-3.61q0-.734-.312-1.062-.313-.328-.89-.328-.438 0-.813.219t-.547.61q-.156.374-.156 1.046V73zm6.28-4.61v-1.093h1.094v1.094zm0 4.61v-1.094h1.094V73zm9.469 0v-.844q-.672.969-1.813.969-.5 0-.953-.187-.437-.204-.656-.485-.203-.297-.281-.719-.063-.28-.063-.906v-3.531h.969v3.156q0 .766.062 1.031.094.375.375.594.297.219.735.219.437 0 .812-.219.39-.234.547-.61.156-.39.156-1.109v-3.062h.97V73zm2.25 2.188v-7.891h.89v.734q.313-.422.704-.64.39-.22.953-.22.718 0 1.28.376.563.375.845 1.062.28.672.28 1.5 0 .875-.312 1.579-.312.687-.921 1.062-.594.375-1.25.375-.485 0-.875-.203-.375-.203-.625-.516v2.781zm.875-5q0 1.093.453 1.624.453.516 1.078.516.64 0 1.094-.531.469-.547.469-1.703 0-1.078-.454-1.625-.437-.547-1.062-.547t-1.11.578q-.468.578-.468 1.688m5.125 5v-7.891h.89v.734q.313-.422.704-.64.39-.22.953-.22.718 0 1.28.376.563.375.845 1.062.28.672.28 1.5 0 .875-.312 1.579-.312.687-.921 1.062-.594.375-1.25.375-.485 0-.875-.203-.375-.203-.625-.516v2.781zm.875-5q0 1.093.453 1.624.453.516 1.078.516.64 0 1.094-.531.469-.547.469-1.703 0-1.078-.454-1.625-.437-.547-1.062-.547t-1.11.578q-.468.578-.468 1.688m9.031.968 1 .125q-.234.875-.875 1.36-.64.484-1.625.484-1.25 0-1.984-.766-.735-.765-.735-2.156 0-1.453.735-2.234.75-.797 1.921-.797 1.157 0 1.875.781.72.766.72 2.188v.25h-4.25q.046.937.515 1.437.484.5 1.203.5.531 0 .906-.266.375-.28.594-.906m-3.172-1.562h3.188q-.063-.719-.36-1.078-.469-.547-1.203-.547-.672 0-1.125.453-.453.437-.5 1.172M451.72 73v-5.703h.86v.86q.343-.61.624-.798.281-.187.61-.187.5 0 1 .312l-.329.891q-.359-.203-.718-.203-.313 0-.563.187-.25.188-.36.532-.156.515-.156 1.125V73zm7.734-2.094.938.125q-.141.985-.797 1.547-.64.547-1.563.547-1.172 0-1.89-.766-.704-.765-.704-2.187 0-.922.297-1.61.313-.703.938-1.046t1.36-.344q.921 0 1.515.469t.765 1.328l-.953.14q-.125-.562-.468-.843-.344-.297-.829-.297-.718 0-1.187.531-.453.516-.453 1.64 0 1.157.437 1.672.438.516 1.157.516.562 0 .937-.344.39-.343.5-1.078m6 1.39q-.547.454-1.047.641-.484.188-1.062.188-.938 0-1.453-.453-.5-.469-.5-1.172 0-.422.187-.766.203-.343.5-.546.313-.22.703-.329.281-.078.86-.14 1.171-.14 1.718-.344.016-.187.016-.25 0-.594-.281-.828-.36-.328-1.094-.328-.687 0-1.016.234-.312.234-.468.844l-.954-.125q.125-.61.422-.984.297-.376.86-.563.562-.203 1.297-.203t1.187.172.656.437q.22.25.313.64.047.25.047.907v1.281q0 1.344.062 1.704.063.359.25.687h-1.015q-.157-.297-.188-.703m-.094-2.155q-.515.218-1.578.359-.594.094-.844.203-.234.094-.375.313-.14.203-.14.453 0 .39.297.656.297.25.86.25t.983-.25q.438-.25.657-.672.14-.328.14-.969zm1.985 1.156.953-.156q.078.578.437.89.375.297 1.032.297.671 0 .984-.266.328-.265.328-.64 0-.328-.281-.516-.203-.125-.985-.328-1.062-.266-1.484-.453-.406-.203-.625-.547-.203-.344-.203-.766 0-.39.172-.703.172-.328.484-.546.219-.172.61-.282.39-.11.828-.11.672 0 1.172.188.515.188.75.532.25.328.343.875l-.937.125q-.078-.438-.39-.672-.298-.25-.86-.25-.672 0-.953.219-.281.218-.281.515 0 .188.109.328.125.156.375.266.14.047.86.25 1.015.266 1.421.437.406.172.64.516.235.328.235.828 0 .484-.281.906t-.813.657q-.53.234-1.203.234-1.11 0-1.703-.453-.578-.469-.734-1.375m10.281-.14 1 .124q-.234.875-.875 1.36-.64.484-1.625.484-1.25 0-1.984-.766-.735-.765-.735-2.156 0-1.453.735-2.234.75-.797 1.921-.797 1.157 0 1.875.781.72.766.72 2.188v.25h-4.25q.046.937.515 1.437.484.5 1.203.5.531 0 .906-.266.375-.28.594-.906m-3.172-1.563h3.188q-.063-.719-.36-1.078-.469-.547-1.203-.547-.672 0-1.125.453-.453.437-.5 1.172m5.53 3.406v-1.094h1.094V73q0 .61-.219.984-.203.375-.671.579l-.282-.422q.313-.125.453-.391.157-.266.172-.75zm5.72 0v-7.875h.968V73zm1.655-2.86q0-1.578.891-2.343.734-.625 1.797-.625 1.172 0 1.906.766.75.765.75 2.124 0 1.11-.328 1.75-.328.626-.969.97-.625.343-1.36.343-1.202 0-1.952-.766-.735-.765-.735-2.218m1 0q0 1.11.47 1.657.483.531 1.218.531.719 0 1.187-.547.485-.547.485-1.672 0-1.046-.485-1.593-.484-.547-1.187-.547-.735 0-1.219.547-.469.53-.469 1.625m6.422 2.86-1.75-5.703h1l.906 3.297.344 1.219q.016-.094.297-1.172l.906-3.344h.985l.86 3.312.28 1.079.329-1.094.984-3.297h.937L499.08 73h-1l-.923-3.422-.219-.969L495.782 73zm10.844-1.844 1 .125q-.234.875-.875 1.36-.64.484-1.625.484-1.25 0-1.984-.766-.735-.765-.735-2.156 0-1.453.735-2.234.75-.797 1.921-.797 1.157 0 1.875.781.72.766.72 2.188v.25h-4.25q.046.937.515 1.437.484.5 1.203.5.531 0 .906-.266.375-.28.594-.906m-3.172-1.562h3.188q-.063-.719-.36-1.078-.469-.547-1.203-.547-.672 0-1.125.453-.453.437-.5 1.172M507.72 73v-5.703h.86v.86q.343-.61.624-.798.281-.187.61-.187.5 0 1 .312l-.329.891q-.359-.203-.718-.203-.313 0-.563.187-.25.188-.36.532-.156.515-.156 1.125V73zm7.734-2.094.938.125q-.141.985-.797 1.547-.64.547-1.563.547-1.172 0-1.89-.766-.703-.765-.703-2.187 0-.922.296-1.61.313-.703.938-1.046t1.36-.344q.921 0 1.515.469t.765 1.328l-.953.14q-.125-.562-.468-.843-.344-.297-.828-.297-.72 0-1.188.531-.453.516-.453 1.64 0 1.157.437 1.672.438.516 1.157.516.562 0 .937-.344.39-.343.5-1.078m6 1.39q-.547.454-1.047.641-.484.188-1.062.188-.938 0-1.453-.453-.5-.469-.5-1.172 0-.422.187-.766.203-.343.5-.546.313-.22.703-.329.282-.078.86-.14 1.172-.14 1.718-.344.016-.187.016-.25 0-.594-.281-.828-.36-.328-1.094-.328-.687 0-1.016.234-.312.234-.468.844l-.953-.125q.125-.61.421-.984.297-.376.86-.563.562-.203 1.297-.203t1.187.172.656.437q.22.25.313.64.047.25.047.907v1.281q0 1.344.062 1.704.063.359.25.687h-1.015q-.157-.297-.188-.703m-.094-2.155q-.515.218-1.578.359-.593.094-.843.203-.235.094-.375.313-.141.203-.141.453 0 .39.297.656.297.25.86.25t.984-.25q.437-.25.656-.672.14-.328.14-.969zm1.985 1.156.953-.156q.078.578.437.89.375.297 1.032.297.672 0 .984-.266.328-.265.328-.64 0-.328-.281-.516-.203-.125-.985-.328-1.062-.266-1.484-.453-.406-.203-.625-.547-.203-.344-.203-.766 0-.39.172-.703.172-.328.484-.546.219-.172.61-.282.39-.11.828-.11.672 0 1.172.188.515.188.75.532.25.328.343.875l-.937.125q-.078-.438-.39-.672-.298-.25-.86-.25-.672 0-.953.219-.282.218-.282.515 0 .188.11.328.125.156.375.266.14.047.86.25 1.015.266 1.421.437.406.172.64.516.235.328.235.828 0 .484-.281.906t-.813.657q-.53.234-1.203.234-1.11 0-1.703-.453-.578-.469-.734-1.375m10.281-.14 1 .124q-.234.875-.875 1.36-.64.484-1.625.484-1.25 0-1.984-.766-.735-.765-.735-2.156 0-1.453.735-2.234.75-.797 1.922-.797 1.156 0 1.875.781.718.766.718 2.188v.25h-4.25q.047.937.516 1.437.484.5 1.203.5.531 0 .906-.266.375-.28.594-.906m-3.172-1.563h3.188q-.063-.719-.36-1.078-.468-.547-1.203-.547-.672 0-1.125.453-.453.437-.5 1.172m5.53 3.406v-1.094h1.094V73q0 .61-.219.984-.203.375-.672.579l-.28-.422q.312-.125.452-.391.157-.266.172-.75zm5.735 0v-5.703h.875v.812q.625-.937 1.812-.937.516 0 .953.187.438.172.641.485.219.297.313.703.046.281.046.953V73h-.968v-3.469q0-.594-.11-.875-.11-.297-.406-.469-.281-.187-.672-.187-.61 0-1.062.39-.453.391-.453 1.5V73zm9.75 0v-.844q-.672.969-1.813.969-.5 0-.953-.187-.437-.204-.656-.485-.203-.297-.281-.719-.063-.28-.063-.906v-3.531h.969v3.156q0 .766.062 1.031.094.375.375.594.297.219.735.219.437 0 .812-.219.39-.234.547-.61.156-.39.156-1.109v-3.062h.97V73zm2.25 0v-5.703h.875v.797q.265-.422.703-.672.453-.25 1.015-.25.641 0 1.047.266.407.25.578.734.672-1 1.75-1 .86 0 1.313.469t.453 1.437V73h-.953v-3.594q0-.578-.094-.828-.093-.266-.343-.422t-.579-.156q-.609 0-1.015.406-.39.406-.39 1.281V73h-.97v-3.703q0-.64-.234-.969t-.766-.328q-.406 0-.765.219-.344.219-.5.64-.157.407-.157 1.188V73zm12.906-1.844 1 .125q-.234.875-.875 1.36-.64.484-1.625.484-1.25 0-1.984-.766-.735-.765-.735-2.156 0-1.453.735-2.234.75-.797 1.922-.797 1.156 0 1.875.781.718.766.718 2.188v.25h-4.25q.047.937.516 1.437.484.5 1.203.5.531 0 .906-.266.375-.28.594-.906m-3.172-1.562h3.188q-.063-.719-.36-1.078-.468-.547-1.203-.547-.672 0-1.125.453-.453.437-.5 1.172M568.72 73v-5.703h.86v.86q.343-.61.624-.798.281-.187.61-.187.5 0 1 .312l-.329.891q-.359-.203-.718-.203-.313 0-.563.187-.25.188-.36.532-.155.515-.155 1.125V73zm4.015-6.766v-1.109h.97v1.11zm0 6.766v-5.703h.97V73zm5.72-2.094.937.125q-.141.985-.797 1.547-.64.547-1.563.547-1.172 0-1.89-.766-.703-.765-.703-2.187 0-.922.296-1.61.313-.703.938-1.046t1.36-.344q.921 0 1.515.469t.765 1.328l-.953.14q-.125-.562-.468-.843-.344-.297-.828-.297-.72 0-1.188.531-.453.516-.453 1.64 0 1.157.437 1.672.438.516 1.157.516.562 0 .937-.344.39-.343.5-1.078m2.53 2.094v-1.094h1.094V73q0 .61-.219.984-.203.375-.672.579l-.28-.422q.312-.125.452-.391.157-.266.172-.75zm9.47-.703q-.548.453-1.048.64-.484.188-1.062.188-.938 0-1.453-.453-.5-.469-.5-1.172 0-.422.187-.766.203-.343.5-.546.313-.22.703-.329.282-.078.86-.14 1.172-.14 1.718-.344.016-.187.016-.25 0-.594-.281-.828-.36-.328-1.094-.328-.687 0-1.016.234-.312.234-.468.844l-.953-.125q.125-.61.421-.984.297-.376.86-.563.562-.203 1.297-.203t1.187.172.656.437q.22.25.313.64.047.25.047.907v1.281q0 1.344.062 1.704.063.359.25.687h-1.015q-.157-.297-.188-.703m-.095-2.156q-.515.218-1.578.359-.593.094-.843.203-.235.094-.375.313-.141.203-.141.453 0 .39.297.656.297.25.86.25t.984-.25q.437-.25.656-.672.14-.328.14-.969zM592.703 73v-7.875h.969V73zm2 0v-7.875h.969V73zm4.281 0 3.032-7.875h1.109L606.359 73h-1.187l-.922-2.39h-3.297l-.86 2.39zm2.266-3.234h2.672l-.813-2.188q-.375-.984-.562-1.625-.156.75-.422 1.5zm5.25.703.984-.078q.063.578.313.968.265.375.797.61.531.234 1.203.234.61 0 1.062-.172.453-.187.672-.484.235-.313.235-.688t-.22-.64q-.218-.281-.718-.469-.312-.125-1.406-.375-1.078-.266-1.516-.5-.562-.297-.843-.734-.266-.438-.266-.985 0-.594.328-1.11.344-.515.984-.78.657-.282 1.453-.282.875 0 1.547.297.672.281 1.032.828.359.547.39 1.235l-1 .078q-.078-.75-.547-1.125-.468-.39-1.375-.39-.937 0-1.375.359-.437.343-.437.828 0 .422.312.703.297.266 1.563.562 1.281.282 1.75.5.687.313 1.015.797.329.485.329 1.125 0 .625-.36 1.188-.36.547-1.047.86-.672.312-1.515.312-1.063 0-1.782-.313-.718-.312-1.14-.937-.406-.625-.422-1.422m12.969-.235 1.047.266q-.328 1.281-1.188 1.969-.844.672-2.078.672-1.281 0-2.078-.516-.797-.531-1.219-1.516-.406-.984-.406-2.109 0-1.219.469-2.14.468-.922 1.328-1.391.875-.485 1.922-.485 1.187 0 1.984.61.813.594 1.125 1.687l-1.031.25q-.266-.86-.797-1.25-.516-.39-1.297-.39-.922 0-1.531.437-.61.422-.86 1.156-.234.735-.234 1.516 0 1 .281 1.75.297.75.907 1.125.625.375 1.343.375.875 0 1.485-.5.609-.516.828-1.516M622.03 73v-7.875h1.032V73zm3 0v-7.875h1.032V73zm9.422-2.094.938.125q-.141.985-.797 1.547-.64.547-1.563.547-1.172 0-1.89-.766-.703-.765-.703-2.187 0-.922.296-1.61.313-.703.938-1.046t1.36-.344q.921 0 1.515.469t.765 1.328l-.953.14q-.125-.562-.468-.843-.344-.297-.828-.297-.72 0-1.188.531-.453.516-.453 1.64 0 1.157.437 1.672.438.516 1.157.516.562 0 .937-.344.39-.343.5-1.078M636.72 73v-7.875h.968v2.828q.688-.781 1.72-.781.624 0 1.093.25t.672.687.203 1.282V73h-.969v-3.61q0-.734-.312-1.062-.313-.328-.89-.328-.438 0-.813.219t-.547.61q-.157.374-.157 1.046V73zm9.734-.703q-.547.453-1.047.64-.484.188-1.062.188-.938 0-1.453-.453-.5-.469-.5-1.172 0-.422.187-.766.203-.343.5-.546.313-.22.703-.329.282-.078.86-.14 1.172-.14 1.718-.344.016-.187.016-.25 0-.594-.281-.828-.36-.328-1.094-.328-.687 0-1.016.234-.312.234-.468.844l-.953-.125q.125-.61.421-.984.297-.376.86-.563.562-.203 1.297-.203t1.187.172.656.437q.22.25.313.64.047.25.047.907v1.281q0 1.344.062 1.704.063.359.25.687h-1.015q-.157-.297-.188-.703m-.094-2.156q-.515.218-1.578.359-.593.094-.843.203-.235.094-.375.313-.141.203-.141.453 0 .39.297.656.297.25.86.25t.984-.25q.437-.25.656-.672.14-.328.14-.969zM648.72 73v-5.703h.86v.86q.343-.61.624-.798.281-.187.61-.187.5 0 1 .312l-.329.891q-.359-.203-.718-.203-.313 0-.563.187-.25.188-.36.532-.155.515-.155 1.125V73zm7.734-.703q-.547.453-1.047.64-.484.188-1.062.188-.938 0-1.453-.453-.5-.469-.5-1.172 0-.422.187-.766.203-.343.5-.546.313-.22.703-.329.282-.078.86-.14 1.172-.14 1.718-.344.016-.187.016-.25 0-.594-.281-.828-.36-.328-1.094-.328-.687 0-1.016.234-.312.234-.468.844l-.953-.125q.125-.61.421-.984.297-.376.86-.563.562-.203 1.297-.203t1.187.172.656.437q.22.25.313.64.047.25.047.907v1.281q0 1.344.062 1.704.063.359.25.687h-1.015q-.157-.297-.188-.703m-.094-2.156q-.515.218-1.578.359-.593.094-.843.203-.235.094-.375.313-.141.203-.141.453 0 .39.297.656.297.25.86.25t.984-.25q.437-.25.656-.672.14-.328.14-.969zm6.094.765.938.125q-.141.985-.797 1.547-.64.547-1.563.547-1.172 0-1.89-.766-.703-.765-.703-2.187 0-.922.296-1.61.313-.703.938-1.046t1.36-.344q.921 0 1.515.469t.765 1.328l-.953.14q-.125-.562-.468-.843-.344-.297-.828-.297-.72 0-1.188.531-.453.516-.453 1.64 0 1.157.437 1.672.438.516 1.157.516.562 0 .937-.344.39-.343.5-1.078m4.39 1.235.126.843q-.407.094-.719.094-.531 0-.828-.172-.281-.172-.406-.437-.11-.266-.11-1.14v-3.282h-.718v-.75h.718V65.89l.953-.594v2h.985v.75h-.985v3.344q0 .406.047.53.063.11.172.188.125.063.328.063.172 0 .438-.031m4.782-.985 1 .125q-.234.875-.875 1.36-.64.484-1.625.484-1.25 0-1.984-.766-.735-.765-.735-2.156 0-1.453.735-2.234.75-.797 1.922-.797 1.156 0 1.875.781.718.766.718 2.188v.25h-4.25q.047.937.516 1.437.484.5 1.203.5.531 0 .906-.266.375-.28.594-.906m-3.172-1.562h3.188q-.063-.719-.36-1.078-.468-.547-1.203-.547-.672 0-1.125.453-.453.437-.5 1.172M673.72 73v-5.703h.86v.86q.343-.61.624-.798.281-.187.61-.187.5 0 1 .312l-.329.891q-.359-.203-.718-.203-.313 0-.563.187-.25.188-.36.532-.155.515-.155 1.125V73zm3.625-1.703.953-.156q.078.578.437.89.375.297 1.032.297.672 0 .984-.266.328-.265.328-.64 0-.328-.281-.516-.203-.125-.985-.328-1.062-.266-1.484-.453-.406-.203-.625-.547-.203-.344-.203-.766 0-.39.172-.703.172-.328.484-.546.219-.172.61-.282.39-.11.828-.11.672 0 1.172.188.515.188.75.532.25.328.343.875l-.937.125q-.078-.438-.39-.672-.298-.25-.86-.25-.672 0-.953.219-.282.218-.282.515 0 .188.11.328.125.156.375.266.14.047.86.25 1.015.266 1.421.437.406.172.64.516.235.328.235.828 0 .484-.281.906t-.813.657q-.53.234-1.203.234-1.11 0-1.703-.453-.578-.469-.734-1.375"/>
  <path stroke="#fbbc04" stroke-linecap="butt" stroke-width="4" d="M188 86.5h12"/>
  <path fill="#1a1a1a" d="M208.531 86.172q0-1.969 1.047-3.078 1.063-1.11 2.719-1.11 1.094 0 1.969.532.875.515 1.328 1.453.469.922.469 2.11t-.485 2.14q-.484.937-1.375 1.437-.875.485-1.906.485-1.11 0-1.984-.532-.875-.546-1.329-1.468-.453-.938-.453-1.97m1.078.016q0 1.421.766 2.25.766.812 1.922.812 1.172 0 1.922-.828.765-.828.765-2.36 0-.953-.328-1.671-.312-.72-.937-1.11t-1.406-.39q-1.11 0-1.907.765-.797.75-.797 2.531M217.72 90v-5.703h.875v.812q.625-.937 1.812-.937.516 0 .953.187.438.172.641.485.219.297.313.703.046.281.046.953V90h-.968v-3.469q0-.594-.11-.875-.11-.297-.406-.469-.281-.187-.672-.187-.61 0-1.062.39-.453.391-.453 1.5V90zm9.906-1.844 1 .125q-.234.875-.875 1.36-.64.484-1.625.484-1.25 0-1.984-.766-.735-.765-.735-2.156 0-1.453.735-2.234.75-.797 1.922-.797 1.156 0 1.875.781.718.766.718 2.188v.25h-4.25q.047.937.516 1.437.484.5 1.203.5.531 0 .906-.266.375-.28.594-.906m-3.172-1.562h3.188q-.063-.719-.36-1.078-.469-.547-1.203-.547-.672 0-1.125.453-.453.437-.5 1.172m12.172 1.562 1 .125q-.234.875-.875 1.36-.64.484-1.625.484-1.25 0-1.984-.766-.735-.765-.735-2.156 0-1.453.735-2.234.75-.797 1.922-.797 1.156 0 1.875.781.718.766.718 2.188v.25h-4.25q.047.937.516 1.437.484.5 1.203.5.531 0 .906-.266.375-.28.594-.906m-3.172-1.562h3.188q-.063-.719-.36-1.078-.469-.547-1.203-.547-.672 0-1.125.453-.453.437-.5 1.172m9 2.703q-.547.453-1.047.64-.484.188-1.062.188-.938 0-1.453-.453-.5-.469-.5-1.172 0-.422.187-.766.203-.343.5-.546.313-.22.703-.329.281-.078.86-.14 1.172-.14 1.718-.344.016-.187.016-.25 0-.594-.281-.828-.36-.328-1.094-.328-.687 0-1.016.234-.312.234-.468.844l-.953-.125q.125-.61.421-.984.297-.376.86-.563.562-.203 1.297-.203t1.187.172.656.437q.22.25.313.64.047.25.047.907v1.281q0 1.344.062 1.704.063.359.25.687h-1.015q-.157-.297-.188-.703m-.094-2.156q-.515.218-1.578.359-.594.094-.844.203-.234.094-.375.313-.14.203-.14.453 0 .39.297.656.297.25.86.25t.983-.25q.438-.25.657-.672.14-.328.14-.969zm6.094.765.938.125q-.141.985-.797 1.547-.64.547-1.563.547-1.172 0-1.89-.766-.703-.765-.703-2.187 0-.922.296-1.61.313-.703.938-1.046t1.36-.344q.921 0 1.515.469t.766 1.328l-.954.14q-.125-.562-.468-.843-.344-.297-.828-.297-.72 0-1.188.531-.453.516-.453 1.64 0 1.157.437 1.672.438.516 1.157.516.562 0 .937-.344.39-.343.5-1.078M250.72 90v-7.875h.969v2.828q.687-.781 1.718-.781.625 0 1.094.25t.672.687.203 1.282V90h-.969v-3.61q0-.734-.312-1.062-.313-.328-.89-.328-.438 0-.813.219t-.547.61q-.156.374-.156 1.046V90zm6.28-4.61v-1.093h1.094v1.094zm0 4.61v-1.094h1.094V90zm9.469 0v-.844q-.672.969-1.813.969-.5 0-.953-.187-.437-.204-.656-.485-.203-.297-.281-.719-.063-.28-.063-.906v-3.531h.969v3.156q0 .766.062 1.031.094.375.375.594.297.219.735.219.437 0 .812-.219.39-.234.547-.61.156-.39.156-1.109v-3.062h.97V90zm2.25 2.188v-7.891h.89v.734q.313-.422.704-.64.39-.22.953-.22.718 0 1.28.376.563.375.845 1.062.28.672.28 1.5 0 .875-.312 1.579-.312.687-.921 1.062-.594.375-1.25.375-.485 0-.875-.203-.375-.203-.625-.516v2.781zm.875-5q0 1.093.453 1.624.453.516 1.078.516.64 0 1.094-.531.469-.547.469-1.703 0-1.078-.454-1.625-.437-.547-1.062-.547t-1.11.578q-.468.578-.468 1.688m5.125 5v-7.891h.89v.734q.313-.422.704-.64.39-.22.953-.22.718 0 1.28.376.563.375.845 1.062.28.672.28 1.5 0 .875-.312 1.579-.312.687-.921 1.062-.594.375-1.25.375-.485 0-.875-.203-.375-.203-.625-.516v2.781zm.875-5q0 1.093.453 1.624.453.516 1.078.516.64 0 1.094-.531.469-.547.469-1.703 0-1.078-.454-1.625-.437-.547-1.062-.547t-1.11.578q-.468.578-.468 1.688m9.031.968 1 .125q-.234.875-.875 1.36-.64.484-1.625.484-1.25 0-1.984-.766-.735-.765-.735-2.156 0-1.453.735-2.234.75-.797 1.921-.797 1.157 0 1.875.781.72.766.72 2.188v.25h-4.25q.046.937.515 1.437.484.5 1.203.5.531 0 .906-.266.375-.28.594-.906m-3.172-1.562h3.188q-.063-.719-.36-1.078-.469-.547-1.203-.547-.672 0-1.125.453-.453.437-.5 1.172M286.72 90v-5.703h.86v.86q.343-.61.624-.798.281-.187.61-.187.5 0 1 .312l-.329.891q-.359-.203-.718-.203-.313 0-.563.187-.25.188-.36.532-.156.515-.156 1.125V90zm7.734-2.094.938.125q-.141.985-.797 1.547-.64.547-1.563.547-1.172 0-1.89-.766-.704-.765-.704-2.187 0-.922.297-1.61.313-.703.938-1.046t1.36-.344q.921 0 1.515.469t.765 1.328l-.953.14q-.125-.562-.468-.843-.344-.297-.829-.297-.718 0-1.187.531-.453.516-.453 1.64 0 1.157.437 1.672.438.516 1.157.516.562 0 .937-.344.39-.343.5-1.078m6 1.39q-.547.454-1.047.641-.484.188-1.062.188-.938 0-1.453-.453-.5-.469-.5-1.172 0-.422.187-.766.203-.343.5-.546.313-.22.703-.329.281-.078.86-.14 1.171-.14 1.718-.344.016-.187.016-.25 0-.594-.281-.828-.36-.328-1.094-.328-.687 0-1.016.234-.312.234-.468.844l-.954-.125q.125-.61.422-.984.297-.376.86-.563.562-.203 1.297-.203t1.187.172.656.437q.22.25.313.64.047.25.047.907v1.281q0 1.344.062 1.704.063.359.25.687h-1.015q-.157-.297-.188-.703m-.094-2.155q-.515.218-1.578.359-.594.094-.844.203-.234.094-.375.313-.14.203-.14.453 0 .39.297.656.297.25.86.25t.983-.25q.438-.25.657-.672.14-.328.14-.969zm1.985 1.156.953-.156q.078.578.437.89.375.297 1.032.297.671 0 .984-.266.328-.265.328-.64 0-.328-.281-.516-.203-.125-.985-.328-1.062-.266-1.484-.453-.406-.203-.625-.547-.203-.344-.203-.766 0-.39.172-.703.172-.328.484-.546.219-.172.61-.282.39-.11.828-.11.672 0 1.172.188.515.188.75.532.25.328.343.875l-.937.125q-.078-.438-.39-.672-.298-.25-.86-.25-.672 0-.953.219-.281.218-.281.515 0 .188.109.328.125.156.375.266.14.047.86.25 1.015.266 1.421.437.406.172.64.516.235.328.235.828 0 .484-.281.906t-.813.657q-.53.234-1.203.234-1.11 0-1.703-.453-.578-.469-.734-1.375m10.281-.14 1 .124q-.234.875-.875 1.36-.64.484-1.625.484-1.25 0-1.984-.766-.735-.765-.735-2.156 0-1.453.735-2.234.75-.797 1.921-.797 1.157 0 1.875.781.72.766.72 2.188v.25h-4.25q.046.937.515 1.437.484.5 1.203.5.531 0 .906-.266.375-.28.594-.906m-3.172-1.563h3.188q-.063-.719-.36-1.078-.469-.547-1.203-.547-.672 0-1.125.453-.453.437-.5 1.172m5.53 3.406v-1.094h1.094V90q0 .61-.219.984-.203.375-.671.579l-.282-.422q.313-.125.453-.391.157-.266.172-.75zm5.72 0v-7.875h.968V90zm1.655-2.86q0-1.578.891-2.343.734-.625 1.797-.625 1.172 0 1.906.766.75.765.75 2.124 0 1.11-.328 1.75-.328.626-.969.97-.625.343-1.36.343-1.202 0-1.952-.766-.735-.765-.735-2.218m1 0q0 1.11.47 1.657.483.531 1.218.531.719 0 1.187-.547.485-.547.485-1.672 0-1.046-.485-1.593-.484-.547-1.187-.547-.735 0-1.219.547-.469.53-.469 1.625m6.422 2.86-1.75-5.703h1l.906 3.297.344 1.219q.016-.094.297-1.172l.906-3.344h.985l.86 3.312.28 1.079.329-1.094.984-3.297h.937L334.08 90h-1l-.923-3.422-.219-.969L330.782 90zm10.844-1.844 1 .125q-.234.875-.875 1.36-.64.484-1.625.484-1.25 0-1.984-.766-.735-.765-.735-2.156 0-1.453.735-2.234.75-.797 1.921-.797 1.157 0 1.875.781.72.766.72 2.188v.25h-4.25q.046.937.515 1.437.484.5 1.203.5.531 0 .906-.266.375-.28.594-.906m-3.172-1.562h3.188q-.063-.719-.36-1.078-.469-.547-1.203-.547-.672 0-1.125.453-.453.437-.5 1.172M342.72 90v-5.703h.86v.86q.343-.61.624-.798.281-.187.61-.187.5 0 1 .312l-.329.891q-.359-.203-.718-.203-.313 0-.563.187-.25.188-.36.532-.156.515-.156 1.125V90zm7.734-2.094.938.125q-.141.985-.797 1.547-.64.547-1.563.547-1.172 0-1.89-.766-.704-.765-.704-2.187 0-.922.297-1.61.313-.703.938-1.046t1.36-.344q.921 0 1.515.469t.765 1.328l-.953.14q-.125-.562-.468-.843-.344-.297-.829-.297-.718 0-1.187.531-.453.516-.453 1.64 0 1.157.437 1.672.438.516 1.157.516.562 0 .937-.344.39-.343.5-1.078m6 1.39q-.547.454-1.047.641-.484.188-1.062.188-.938 0-1.453-.453-.5-.469-.5-1.172 0-.422.187-.766.203-.343.5-.546.313-.22.703-.329.281-.078.86-.14 1.171-.14 1.718-.344.016-.187.016-.25 0-.594-.281-.828-.36-.328-1.094-.328-.687 0-1.016.234-.312.234-.468.844l-.954-.125q.125-.61.422-.984.297-.376.86-.563.562-.203 1.297-.203t1.187.172.656.437q.22.25.313.64.047.25.047.907v1.281q0 1.344.062 1.704.063.359.25.687h-1.015q-.157-.297-.188-.703m-.094-2.155q-.515.218-1.578.359-.594.094-.844.203-.234.094-.375.313-.14.203-.14.453 0 .39.297.656.297.25.86.25t.983-.25q.438-.25.657-.672.14-.328.14-.969zm1.985 1.156.953-.156q.078.578.437.89.375.297 1.032.297.671 0 .984-.266.328-.265.328-.64 0-.328-.281-.516-.203-.125-.985-.328-1.062-.266-1.484-.453-.406-.203-.625-.547-.203-.344-.203-.766 0-.39.172-.703.172-.328.484-.546.219-.172.61-.282.39-.11.828-.11.672 0 1.172.188.515.188.75.532.25.328.343.875l-.937.125q-.078-.438-.39-.672-.298-.25-.86-.25-.672 0-.953.219-.281.218-.281.515 0 .188.109.328.125.156.375.266.14.047.86.25 1.015.266 1.421.437.406.172.64.516.235.328.235.828 0 .484-.281.906t-.813.657q-.53.234-1.203.234-1.11 0-1.703-.453-.578-.469-.734-1.375m10.281-.14 1 .124q-.234.875-.875 1.36-.64.484-1.625.484-1.25 0-1.984-.766-.735-.765-.735-2.156 0-1.453.735-2.234.75-.797 1.921-.797 1.157 0 1.875.781.72.766.72 2.188v.25h-4.25q.046.937.515 1.437.484.5 1.203.5.531 0 .906-.266.375-.28.594-.906m-3.172-1.563h3.188q-.063-.719-.36-1.078-.469-.547-1.203-.547-.672 0-1.125.453-.453.437-.5 1.172m5.53 3.406v-1.094h1.094V90q0 .61-.219.984-.203.375-.671.579l-.282-.422q.313-.125.453-.391.157-.266.172-.75zm5.735 0v-5.703h.875v.812q.625-.937 1.812-.937.516 0 .953.187.438.172.641.485.219.297.313.703.046.281.046.953V90h-.968v-3.469q0-.594-.11-.875-.11-.297-.406-.469-.281-.187-.672-.187-.61 0-1.062.39-.454.391-.454 1.5V90zm9.75 0v-.844q-.672.969-1.813.969-.5 0-.953-.187-.437-.204-.656-.485-.203-.297-.281-.719-.063-.28-.063-.906v-3.531h.969v3.156q0 .766.062 1.031.094.375.375.594.297.219.735.219.437 0 .812-.219.39-.234.547-.61.156-.39.156-1.109v-3.062h.97V90zm2.25 0v-5.703h.875v.797q.265-.422.703-.672.453-.25 1.015-.25.641 0 1.047.266.407.25.579.734.671-1 1.75-1 .859 0 1.312.469t.453 1.437V90h-.953v-3.594q0-.578-.094-.828-.094-.266-.344-.422t-.578-.156q-.609 0-1.015.406-.39.406-.39 1.281V90h-.97v-3.703q0-.64-.234-.969t-.766-.328q-.406 0-.765.219-.344.219-.5.64-.156.407-.156 1.188V90zm12.906-1.844 1 .125q-.234.875-.875 1.36-.64.484-1.625.484-1.25 0-1.984-.766-.735-.765-.735-2.156 0-1.453.735-2.234.75-.797 1.921-.797 1.157 0 1.875.781.72.766.72 2.188v.25h-4.25q.046.937.515 1.437.484.5 1.203.5.531 0 .906-.266.375-.28.594-.906m-3.172-1.562h3.188q-.063-.719-.36-1.078-.469-.547-1.203-.547-.672 0-1.125.453-.453.437-.5 1.172M403.72 90v-5.703h.86v.86q.343-.61.624-.798.281-.187.61-.187.5 0 1 .312l-.329.891q-.359-.203-.718-.203-.313 0-.563.187-.25.188-.36.532-.156.515-.156 1.125V90zm4.015-6.766v-1.109h.97v1.11zm0 6.766v-5.703h.97V90zm5.72-2.094.937.125q-.141.985-.797 1.547-.64.547-1.563.547-1.172 0-1.89-.766-.704-.765-.704-2.187 0-.922.297-1.61.313-.703.938-1.046t1.36-.344q.921 0 1.515.469t.765 1.328l-.953.14q-.125-.562-.468-.843-.344-.297-.829-.297-.718 0-1.187.531-.453.516-.453 1.64 0 1.157.437 1.672.438.516 1.157.516.562 0 .937-.344.39-.343.5-1.078"/>
  <path stroke="#34a853" stroke-linecap="butt" stroke-width="4" d="M431 86.5h12"/>
  <path fill="#1a1a1a" d="M451.844 90v-7.875h1.062l4.14 6.188v-6.188h1V90h-1.077l-4.125-6.187V90zm7.515-2.86q0-1.578.891-2.343.734-.625 1.797-.625 1.172 0 1.906.766.75.765.75 2.124 0 1.11-.328 1.75-.328.626-.969.97-.625.343-1.36.343-1.202 0-1.952-.766-.735-.765-.735-2.218m1 0q0 1.11.47 1.657.483.531 1.218.531.719 0 1.187-.547.485-.547.485-1.672 0-1.046-.485-1.593-.484-.547-1.187-.547-.735 0-1.219.547-.469.53-.469 1.625m8.454 2.86v-7.875h1.578l1.859 5.578q.25.781.375 1.156.14-.421.422-1.25l1.875-5.484h1.406V90h-1v-6.594L473.031 90h-.937l-2.266-6.703V90zm8.921-6.766v-1.109h.97v1.11zm0 6.766v-5.703h.97V90zm1.985 0v-5.703h.875v.812q.625-.937 1.812-.937.516 0 .953.187.438.172.641.485.219.297.313.703.046.281.046.953V90h-.968v-3.469q0-.594-.11-.875-.11-.297-.406-.469-.281-.187-.672-.187-.61 0-1.062.39-.454.391-.454 1.5V90zm6.015-6.766v-1.109h.97v1.11zm0 6.766v-5.703h.97V90zm1.985 0v-5.703h.875v.797q.265-.422.703-.672.453-.25 1.015-.25.641 0 1.047.266.407.25.579.734.671-1 1.75-1 .859 0 1.312.469t.453 1.437V90h-.953v-3.594q0-.578-.094-.828-.094-.266-.344-.422t-.578-.156q-.609 0-1.015.406-.39.406-.39 1.281V90h-.97v-3.703q0-.64-.234-.969t-.766-.328q-.406 0-.765.219-.344.219-.5.64-.156.407-.156 1.188V90zm12.75 0v-.844q-.672.969-1.813.969-.5 0-.953-.187-.437-.204-.656-.485-.203-.297-.281-.719-.063-.28-.063-.906v-3.531h.969v3.156q0 .766.062 1.031.094.375.375.594.297.219.735.219.437 0 .812-.219.39-.234.547-.61.156-.39.156-1.109v-3.062h.97V90zm2.25 0v-5.703h.875v.797q.265-.422.703-.672.453-.25 1.015-.25.641 0 1.047.266.407.25.579.734.671-1 1.75-1 .859 0 1.312.469t.453 1.437V90h-.953v-3.594q0-.578-.094-.828-.094-.266-.344-.422t-.578-.156q-.609 0-1.015.406-.39.406-.39 1.281V90h-.97v-3.703q0-.64-.234-.969t-.766-.328q-.406 0-.765.219-.344.219-.5.64-.156.407-.156 1.188V90zm17.75-2.766 1.047.266q-.328 1.281-1.188 1.969-.844.672-2.078.672-1.281 0-2.078-.516-.797-.531-1.219-1.516-.406-.984-.406-2.109 0-1.219.469-2.14.468-.922 1.328-1.391.875-.485 1.922-.485 1.187 0 1.984.61.813.594 1.125 1.687l-1.031.25q-.266-.86-.797-1.25-.516-.39-1.297-.39-.922 0-1.531.437-.61.422-.86 1.156-.234.735-.234 1.516 0 1 .281 1.75.297.75.907 1.125.625.375 1.343.375.875 0 1.485-.5.609-.516.828-1.516m2.25 2.766v-7.875h.968v2.828q.688-.781 1.72-.781.624 0 1.093.25t.672.687.203 1.282V90h-.969v-3.61q0-.734-.312-1.062-.313-.328-.89-.328-.438 0-.813.219t-.547.61q-.157.374-.157 1.046V90zm9.734-.703q-.547.453-1.047.64-.484.188-1.062.188-.938 0-1.453-.453-.5-.469-.5-1.172 0-.422.187-.766.203-.343.5-.546.313-.22.703-.329.282-.078.86-.14 1.172-.14 1.718-.344.016-.187.016-.25 0-.594-.281-.828-.36-.328-1.094-.328-.687 0-1.016.234-.312.234-.468.844l-.953-.125q.125-.61.421-.984.297-.376.86-.563.562-.203 1.297-.203t1.187.172.656.437q.22.25.313.64.047.25.047.907v1.281q0 1.344.062 1.704.063.359.25.687h-1.015q-.157-.297-.188-.703m-.094-2.156q-.515.218-1.578.359-.593.094-.843.203-.235.094-.375.313-.141.203-.141.453 0 .39.297.656.297.25.86.25t.984-.25q.437-.25.656-.672.14-.328.14-.969zM534.72 90v-5.703h.86v.86q.343-.61.624-.798.281-.187.61-.187.5 0 1 .312l-.329.891q-.359-.203-.718-.203-.313 0-.563.187-.25.188-.36.532-.155.515-.155 1.125V90zm7.734-.703q-.547.453-1.047.64-.484.188-1.062.188-.938 0-1.453-.453-.5-.469-.5-1.172 0-.422.187-.766.203-.343.5-.546.313-.22.703-.329.282-.078.86-.14 1.172-.14 1.718-.344.016-.187.016-.25 0-.594-.281-.828-.36-.328-1.094-.328-.687 0-1.016.234-.312.234-.468.844l-.953-.125q.125-.61.421-.984.297-.376.86-.563.562-.203 1.297-.203t1.187.172.656.437q.22.25.313.64.047.25.047.907v1.281q0 1.344.062 1.704.063.359.25.687h-1.015q-.157-.297-.188-.703m-.094-2.156q-.515.218-1.578.359-.593.094-.843.203-.235.094-.375.313-.141.203-.141.453 0 .39.297.656.297.25.86.25t.984-.25q.437-.25.656-.672.14-.328.14-.969zm6.094.765.938.125q-.141.985-.797 1.547-.64.547-1.563.547-1.172 0-1.89-.766-.703-.765-.703-2.187 0-.922.296-1.61.313-.703.938-1.046t1.36-.344q.921 0 1.515.469t.765 1.328l-.953.14q-.125-.562-.468-.843-.344-.297-.828-.297-.72 0-1.188.531-.453.516-.453 1.64 0 1.157.437 1.672.438.516 1.157.516.562 0 .937-.344.39-.343.5-1.078m4.39 1.235.126.843q-.407.094-.719.094-.531 0-.828-.172-.281-.172-.406-.437-.11-.266-.11-1.14v-3.282h-.718v-.75h.718V82.89l.953-.594v2h.985v.75h-.985v3.344q0 .406.047.53.063.11.172.188.125.063.328.063.172 0 .438-.031m4.782-.985 1 .125q-.234.875-.875 1.36-.64.484-1.625.484-1.25 0-1.984-.766-.735-.765-.735-2.156 0-1.453.735-2.234.75-.797 1.922-.797 1.156 0 1.875.781.718.766.718 2.188v.25h-4.25q.047.937.516 1.437.484.5 1.203.5.531 0 .906-.266.375-.28.594-.906m-3.172-1.562h3.188q-.063-.719-.36-1.078-.468-.547-1.203-.547-.672 0-1.125.453-.453.437-.5 1.172M559.72 90v-5.703h.86v.86q.343-.61.624-.798.281-.187.61-.187.5 0 1 .312l-.329.891q-.359-.203-.718-.203-.313 0-.563.187-.25.188-.36.532-.155.515-.155 1.125V90zm3.625-1.703.953-.156q.078.578.437.89.375.297 1.032.297.672 0 .984-.266.328-.265.328-.64 0-.328-.281-.516-.203-.125-.985-.328-1.062-.266-1.484-.453-.406-.203-.625-.547-.203-.344-.203-.766 0-.39.172-.703.172-.328.484-.546.219-.172.61-.282.39-.11.828-.11.672 0 1.172.188.515.188.75.532.25.328.343.875l-.937.125q-.078-.438-.39-.672-.298-.25-.86-.25-.672 0-.953.219-.282.218-.282.515 0 .188.11.328.125.156.375.266.14.047.86.25 1.015.266 1.421.437.406.172.64.516.235.328.235.828 0 .484-.281.906t-.813.657q-.53.234-1.203.234-1.11 0-1.703-.453-.578-.469-.734-1.375"/>
  <path fill="#757575" d="M24.947 42.4V28.088h5.39q1.438 0 2.188.125 1.047.187 1.766.687.718.484 1.14 1.375.438.89.438 1.953 0 1.828-1.172 3.094-1.156 1.25-4.188 1.25h-3.672V42.4zm1.89-7.516h3.704q1.828 0 2.593-.672.782-.687.782-1.937 0-.89-.453-1.531-.454-.64-1.188-.844-.484-.125-1.781-.125h-3.657zm17.657 6.235q-.985.828-1.89 1.172-.907.343-1.938.343-1.703 0-2.625-.828-.922-.843-.922-2.14 0-.766.343-1.391.36-.625.922-1 .563-.39 1.266-.594.516-.125 1.563-.265 2.124-.25 3.124-.594.016-.36.016-.469 0-1.062-.5-1.516-.672-.593-2-.593-1.25 0-1.844.437-.578.438-.859 1.547l-1.719-.234q.235-1.11.766-1.782.531-.687 1.547-1.046 1.015-.375 2.36-.375 1.327 0 2.155.312.828.313 1.22.797.39.469.546 1.188.094.453.094 1.624v2.344q0 2.453.11 3.11.108.64.452 1.234h-1.843q-.266-.547-.344-1.281m-.157-3.922q-.953.39-2.875.656-1.078.156-1.53.36-.438.187-.688.562t-.25.844q0 .703.531 1.172t1.563.468q1.015 0 1.796-.437.797-.453 1.172-1.219.282-.61.282-1.766zm3.672 2.11 1.75-.282q.141 1.047.813 1.61.672.546 1.875.546t1.781-.484q.594-.5.594-1.156 0-.594-.516-.938-.36-.234-1.797-.594-1.937-.5-2.687-.843-.735-.36-1.125-.985-.39-.64-.39-1.406 0-.687.312-1.281.328-.594.875-.985.406-.297 1.11-.5.718-.218 1.53-.218 1.22 0 2.141.359.922.344 1.36.953.437.594.609 1.594l-1.719.234q-.125-.797-.687-1.234-.563-.453-1.579-.453-1.218 0-1.734.406-.516.39-.516.922 0 .344.22.625.202.281.671.469.266.093 1.547.437 1.875.5 2.61.828.734.313 1.155.922.422.594.422 1.5 0 .875-.515 1.656-.516.782-1.485 1.203-.968.422-2.187.422-2.016 0-3.078-.843-1.063-.844-1.36-2.485m10 0 1.75-.282q.141 1.047.813 1.61.672.546 1.875.546t1.781-.484q.594-.5.594-1.156 0-.594-.516-.938-.36-.234-1.797-.594-1.937-.5-2.687-.843-.735-.36-1.125-.985-.39-.64-.39-1.406 0-.687.312-1.281.328-.594.875-.985.406-.297 1.11-.5.718-.218 1.53-.218 1.22 0 2.141.359.922.344 1.36.953.437.594.609 1.594l-1.719.234q-.125-.797-.688-1.234-.562-.453-1.578-.453-1.218 0-1.734.406-.516.39-.516.922 0 .344.22.625.202.281.671.469.266.093 1.547.437 1.875.5 2.61.828.734.313 1.156.922.421.594.421 1.5 0 .875-.515 1.656-.516.782-1.485 1.203-.968.422-2.187.422-2.016 0-3.078-.843-1.063-.844-1.36-2.485M70.634 42.4l-3.171-10.375h1.812l1.656 5.984.61 2.235q.047-.172.53-2.14l1.657-6.079h1.813l1.547 6.016.515 1.984.594-2 1.781-6h1.703L78.447 42.4h-1.828l-1.656-6.219-.391-1.765-2.11 7.984zm11.438-5.187q0-2.876 1.594-4.266 1.343-1.156 3.265-1.156 2.14 0 3.485 1.406 1.359 1.406 1.359 3.875 0 2-.594 3.156-.593 1.14-1.75 1.781-1.14.625-2.5.625-2.187 0-3.531-1.39-1.328-1.407-1.328-4.032m1.797 0q0 2 .86 2.984.874.984 2.202.984 1.313 0 2.172-.984.875-1 .875-3.047 0-1.922-.875-2.906-.875-1-2.172-1-1.328 0-2.203 1-.86.984-.86 2.968m9.828 5.187V32.025h1.578v1.578q.61-1.11 1.125-1.453.516-.36 1.125-.36.89 0 1.813.563l-.61 1.64q-.64-.39-1.281-.39-.578 0-1.047.36-.453.343-.656.953-.281.937-.281 2.047V42.4zm13.75 0v-1.312q-.984 1.546-2.906 1.546-1.235 0-2.282-.687-1.03-.688-1.609-1.906-.562-1.22-.562-2.813 0-1.562.515-2.828.516-1.266 1.547-1.937 1.047-.672 2.313-.672.937 0 1.671.406.735.39 1.204 1.015v-5.124h1.734V42.4zm-5.563-5.172q0 1.984.844 2.969t1.985.984q1.156 0 1.953-.937.812-.938.812-2.875 0-2.125-.828-3.125-.812-1-2.016-1-1.171 0-1.968.968-.782.954-.782 3.016m16.063 5.172v-14.31h5.39q1.438 0 2.188.125 1.047.187 1.766.687.718.484 1.14 1.375.438.89.438 1.953 0 1.828-1.172 3.094-1.156 1.25-4.188 1.25h-3.671V42.4zm1.89-7.516h3.704q1.828 0 2.593-.672.782-.687.782-1.937 0-.89-.453-1.531-.454-.64-1.188-.844-.484-.125-1.781-.125h-3.656zm10.235 2.328q0-2.875 1.594-4.265 1.343-1.156 3.265-1.156 2.14 0 3.485 1.406 1.359 1.406 1.359 3.875 0 2-.594 3.156-.594 1.14-1.75 1.781-1.14.625-2.5.625-2.187 0-3.531-1.39-1.328-1.407-1.328-4.032m1.797 0q0 2 .86 2.985.874.984 2.202.984 1.313 0 2.172-.984.875-1 .875-3.047 0-1.922-.875-2.906-.875-1-2.172-1-1.328 0-2.203 1-.86.984-.86 2.968m9.812 5.188v-14.31h1.75V42.4zm4.047-12.297v-2.015h1.766v2.015zm0 12.297V32.025h1.766V42.4zm10.766-3.797 1.719.219q-.282 1.797-1.454 2.812-1.156 1-2.859 1-2.125 0-3.422-1.39t-1.297-3.985q0-1.687.547-2.937.563-1.266 1.703-1.89 1.14-.641 2.485-.641 1.687 0 2.75.859 1.078.86 1.39 2.422l-1.719.265q-.234-1.046-.859-1.562-.625-.531-1.5-.531-1.328 0-2.156.953t-.828 3q0 2.094.797 3.047.797.937 2.093.937 1.032 0 1.72-.625.702-.64.89-1.953m3.14 7.797-.187-1.656q.578.156 1 .156.594 0 .937-.203.36-.188.579-.531.171-.266.546-1.313.047-.156.157-.437l-3.938-10.391h1.89l2.157 6.016q.422 1.14.75 2.39.313-1.203.719-2.36l2.219-6.046h1.765l-3.953 10.547q-.625 1.719-.984 2.36-.47.874-1.078 1.265-.594.406-1.438.406-.516 0-1.14-.203m16.313-4v-14.31h5.39q1.438 0 2.188.125 1.047.187 1.766.687.718.484 1.14 1.375.438.89.438 1.953 0 1.828-1.172 3.094-1.156 1.25-4.188 1.25h-3.671V42.4zm1.89-7.516h3.704q1.828 0 2.593-.672.782-.687.782-1.937 0-.89-.453-1.531-.454-.64-1.188-.844-.484-.125-1.781-.125h-3.656zm17.985 4.172 1.812.235q-.421 1.578-1.593 2.468-1.157.875-2.97.875-2.265 0-3.608-1.39-1.329-1.407-1.329-3.938 0-2.625 1.344-4.062 1.344-1.453 3.5-1.453 2.078 0 3.39 1.421 1.329 1.407 1.329 3.985 0 .156-.016.469h-7.734q.094 1.703.969 2.609t2.172.906q.968 0 1.64-.5.688-.515 1.094-1.625m-5.781-2.843h5.797q-.11-1.297-.657-1.954-.844-1.015-2.187-1.015-1.203 0-2.031.812-.829.797-.922 2.157m9.656 6.187V32.025h1.578v1.578q.61-1.11 1.125-1.453.516-.36 1.125-.36.89 0 1.813.563l-.61 1.64q-.64-.39-1.281-.39-.578 0-1.047.36-.453.343-.656.953-.281.937-.281 2.047V42.4zm7.437 0v-9h-1.546v-1.375h1.546v-1.094q0-1.047.188-1.562.25-.688.89-1.11.641-.421 1.797-.421.75 0 1.641.171l-.266 1.532q-.546-.094-1.03-.094-.798 0-1.142.344-.328.343-.328 1.28v.954h2.032V33.4h-2.032v9zm4.938-5.187q0-2.876 1.594-4.266 1.343-1.156 3.265-1.156 2.14 0 3.485 1.406 1.359 1.406 1.359 3.875 0 2-.594 3.156-.594 1.14-1.75 1.781-1.14.625-2.5.625-2.187 0-3.531-1.39-1.328-1.407-1.328-4.032m1.797 0q0 2 .86 2.984.874.984 2.202.984 1.313 0 2.172-.984.875-1 .875-3.047 0-1.922-.875-2.906-.875-1-2.172-1-1.328 0-2.203 1-.86.984-.86 2.968m9.828 5.187V32.025h1.578v1.578q.61-1.11 1.125-1.453.516-.36 1.125-.36.89 0 1.813.563l-.61 1.64q-.64-.39-1.281-.39-.578 0-1.047.36-.453.343-.656.953-.281.937-.281 2.047V42.4zm7.016 0V32.025h1.578v1.453q.484-.75 1.297-1.219.812-.468 1.843-.468 1.156 0 1.89.484.735.469 1.048 1.328 1.234-1.812 3.203-1.812 1.547 0 2.375.859.828.86.828 2.625V42.4h-1.75v-6.531q0-1.063-.172-1.516-.172-.469-.625-.75-.437-.281-1.047-.281-1.094 0-1.828.734-.719.719-.719 2.313V42.4h-1.75v-6.734q0-1.172-.437-1.75-.422-.594-1.406-.594-.735 0-1.375.39-.625.391-.907 1.141-.28.75-.28 2.172V42.4zm23.78-1.281q-.984.828-1.89 1.172t-1.937.343q-1.703 0-2.625-.828-.922-.843-.922-2.14 0-.766.344-1.391.359-.625.921-1 .563-.39 1.266-.594.516-.125 1.563-.265 2.125-.25 3.125-.594.015-.36.015-.469 0-1.062-.5-1.516-.672-.593-2-.593-1.25 0-1.844.437-.578.438-.859 1.547l-1.719-.234q.235-1.11.766-1.782.531-.687 1.547-1.046 1.015-.375 2.36-.375 1.327 0 2.155.312.829.313 1.22.797.39.469.546 1.188.094.453.094 1.624v2.344q0 2.453.11 3.11.108.64.452 1.234h-1.843q-.266-.547-.344-1.281m-.155-3.922q-.954.39-2.875.656-1.079.156-1.532.36-.437.187-.687.562t-.25.844q0 .703.531 1.172t1.563.468q1.015 0 1.796-.437.797-.453 1.172-1.219.281-.61.281-1.766zm4.374 5.203V32.025h1.594v1.484q1.14-1.718 3.297-1.718.938 0 1.719.343.797.328 1.187.875.391.547.547 1.297.094.5.094 1.719V42.4h-1.766v-6.312q0-1.079-.203-1.61t-.734-.844q-.516-.312-1.219-.312-1.125 0-1.937.719-.813.703-.813 2.687V42.4zm17.782-3.797 1.718.219q-.28 1.797-1.453 2.812-1.156 1-2.859 1-2.125 0-3.422-1.39t-1.297-3.985q0-1.687.547-2.937.563-1.266 1.703-1.89 1.14-.641 2.485-.641 1.687 0 2.75.859 1.078.86 1.39 2.422l-1.719.265q-.234-1.046-.859-1.562-.625-.531-1.5-.531-1.328 0-2.156.953t-.828 3q0 2.094.797 3.047.796.937 2.093.937 1.032 0 1.72-.625.702-.64.89-1.953m10.328.453 1.812.235q-.422 1.578-1.593 2.468-1.157.875-2.97.875-2.265 0-3.609-1.39-1.328-1.407-1.328-3.938 0-2.625 1.344-4.062 1.344-1.453 3.5-1.453 2.078 0 3.39 1.421 1.329 1.407 1.329 3.985 0 .156-.016.469h-7.734q.094 1.703.969 2.609t2.171.906q.97 0 1.641-.5.688-.515 1.094-1.625m-5.781-2.843h5.796q-.109-1.297-.656-1.954-.844-1.015-2.187-1.015-1.203 0-2.032.812-.828.797-.921 2.157"/>
</svg>
