<svg xmlns="http://www.w3.org/2000/svg" xmlns:xlink="http://www.w3.org/1999/xlink" width="110" height="19" viewBox="0 0 110 19">
  <desc>
    DigitalOcean Logo
  </desc>
  <defs>
    <path id="a" d="M18.54.161H0V18.7h18.54z"/>
    <path id="c" d="M0 18.722h110V.183H0z"/>
  </defs>
  <g fill="none" fill-rule="evenodd">
    <g transform="translate(0 .022)">
      <mask id="b" fill="#fff">
        <use xlink:href="#a"/>
      </mask>
      <path fill="#0080FF" d="M9.27 18.7v-3.59c3.81 0 6.755-3.77 5.3-7.776a5.38 5.38 0 0 0-3.205-3.205C7.36 2.676 3.59 5.62 3.59 9.429v.002H0C0 3.36 5.864-1.365 12.224.62a8.96 8.96 0 0 1 5.856 5.855c1.985 6.36-2.74 12.224-8.81 12.224" mask="url(#b)"/>
    </g>
    <path fill="#0080FF" d="M9.278 15.141h-3.58v-3.578h3.579zm-3.58 2.751h-2.75V15.14h2.75v2.75z"/>
    <path fill="#0080FF" d="M2.95 15.141H.643v-2.304l.002-.001H2.95zm24.73-8.905h1.054c1.173 0 2.14.23 2.872.686.813.49 1.225 1.423 1.225 2.772 0 1.39-.413 2.365-1.228 2.898-.702.464-1.662.7-2.854.7h-1.07zm5.323-.693c-1.061-.736-2.382-1.11-3.926-1.11h-3.36v10.66h3.36c1.54 0 2.861-.393 3.927-1.17.58-.411 1.036-.987 1.355-1.71.317-.718.478-1.566.478-2.519 0-.941-.16-1.778-.478-2.487-.32-.712-.775-1.271-1.356-1.664m4.173-1.241c-.323 0-.601.115-.825.34a1.08 1.08 0 0 0-.342.813q.001.486.34.827.34.34.827.34t.827-.34a1.13 1.13 0 0 0 .34-.827 1.08 1.08 0 0 0-.34-.812 1.13 1.13 0 0 0-.827-.34"/>
    <mask id="d" fill="#fff">
      <use xlink:href="#c"/>
    </mask>
    <path fill="#0080FF" d="M36.213 15.094h1.89V7.586h-1.89zm8.255-2.447c-.33.375-.754.557-1.296.557-.541 0-.963-.182-1.288-.556-.324-.373-.489-.867-.489-1.469 0-.611.165-1.112.489-1.487.32-.371.754-.56 1.288-.56.542 0 .966.183 1.296.56.329.376.496.876.496 1.487 0 .602-.167 1.096-.496 1.468m.496-4.434c-.57-.507-1.206-.802-1.894-.802-1.043 0-1.91.36-2.576 1.071-.675.705-1.017 1.613-1.017 2.697 0 1.06.337 1.964 1.003 2.69.67.701 1.542 1.057 2.59 1.057.728 0 1.355-.203 1.865-.603v.172c0 .623-.167 1.108-.496 1.44-.329.333-.784.502-1.354.502-.872 0-1.419-.343-2.084-1.242l-1.287 1.236.035.048c.278.39.703.772 1.265 1.135.562.361 1.269.545 2.1.545 1.121 0 2.029-.346 2.697-1.028.672-.685 1.013-1.603 1.013-2.727V7.586h-1.86zm3.476 6.881h1.89V7.586h-1.89zm.963-10.792q-.486.001-.825.34a1.08 1.08 0 0 0-.342.813q.001.486.34.827.34.34.827.34t.827-.34a1.13 1.13 0 0 0 .34-.827 1.08 1.08 0 0 0-.34-.812 1.13 1.13 0 0 0-.827-.34m5.067 1.254h-1.86v2.029h-1.08v1.721h1.08v3.12c0 .975.196 1.673.58 2.075.386.402 1.071.607 2.036.607.307 0 .616-.01.918-.03l.085-.006v-1.72l-.648.033q-.677 0-.893-.234c-.144-.158-.217-.493-.217-.994v-2.85h1.758V7.585h-1.758zm10.618 9.537h1.89V4.434h-1.89zm20.976-2.684c-.338.378-.684.706-.95.877q-.393.253-.98.253a1.72 1.72 0 0 1-1.369-.62c-.362-.416-.546-.95-.546-1.588s.181-1.17.54-1.583c.36-.415.804-.617 1.36-.617.61 0 1.25.379 1.8 1.029l1.25-1.198c-.815-1.06-1.853-1.553-3.093-1.553-1.037 0-1.937.378-2.672 1.123-.732.74-1.104 1.682-1.104 2.8s.371 2.061 1.102 2.806a3.63 3.63 0 0 0 2.674 1.123c1.368 0 2.472-.59 3.216-1.673zm3.625-2.008a1.86 1.86 0 0 1 .493-.89c.256-.252.59-.38.99-.38q.69 0 1.054.388c.224.238.35.535.376.882zm4.129-1.767a2.84 2.84 0 0 0-1.085-.894c-.45-.22-.976-.33-1.56-.33-1.056 0-1.918.389-2.566 1.157-.63.762-.948 1.709-.948 2.815 0 1.138.35 2.08 1.04 2.8.686.715 1.604 1.079 2.728 1.079 1.275 0 2.32-.516 3.108-1.532l.042-.055-1.232-1.184a5 5 0 0 1-.424.434 2.3 2.3 0 0 1-.55.405q-.422.21-.953.21c-.523 0-.957-.154-1.288-.458-.31-.284-.491-.667-.54-1.14h5.006l.017-.69c0-.488-.067-.958-.198-1.398a4.1 4.1 0 0 0-.597-1.22m3.901 3.591c.214-.15.517-.225.9-.225.455 0 .937.091 1.434.272v.736c-.41.382-.959.575-1.63.575q-.493 0-.756-.216a.67.67 0 0 1-.255-.546c0-.258.1-.453.307-.596m3.354-4.078c-.572-.488-1.364-.737-2.352-.737a3.8 3.8 0 0 0-1.748.408c-.492.25-.975.663-1.282 1.204l.019.023 1.21 1.158c.498-.795 1.052-1.07 1.787-1.07.394 0 .722.105.974.314.25.207.372.47.372.805v.365a4.8 4.8 0 0 0-1.39-.215c-.94 0-1.705.222-2.274.658-.575.442-.867 1.073-.867 1.878 0 .705.246 1.278.733 1.704.491.41 1.105.62 1.824.62s1.393-.29 2.004-.787v.619h1.86v-4.827c0-.914-.293-1.627-.87-2.12m8.137.147c-.526-.586-1.265-.884-2.198-.884-.749 0-1.358.216-1.813.64v-.464h-1.853v7.508h1.89v-4.141c0-.569.135-1.02.402-1.343.266-.321.632-.478 1.119-.478.428 0 .752.14.992.427.24.289.362.686.362 1.182v4.353H110V10.74c0-1.04-.267-1.862-.79-2.447m-49.851 3.932c.214-.15.517-.225.9-.225.455 0 .937.091 1.434.272v.736c-.41.382-.959.575-1.63.575q-.493 0-.757-.216a.67.67 0 0 1-.255-.546c0-.258.101-.453.308-.596m3.354-4.078c-.572-.488-1.364-.737-2.352-.737-.629 0-1.216.139-1.748.408-.492.25-.975.663-1.282 1.204l.019.023 1.21 1.158c.498-.795 1.052-1.07 1.787-1.07q.594 0 .974.314c.25.207.372.47.372.805v.365a4.8 4.8 0 0 0-1.39-.215c-.94 0-1.705.222-2.274.658-.575.442-.867 1.073-.867 1.878 0 .705.246 1.278.733 1.704.491.41 1.105.62 1.824.62s1.392-.29 2.003-.787v.619h1.86v-4.827c0-.914-.292-1.627-.869-2.12M73.832 6.2a3.563 3.563 0 0 0-3.559 3.559 3.563 3.563 0 0 0 3.559 3.559 3.563 3.563 0 0 0 3.559-3.56A3.563 3.563 0 0 0 73.83 6.2m0 9.054a5.5 5.5 0 0 1-5.494-5.495 5.5 5.5 0 0 1 5.495-5.496 5.5 5.5 0 0 1 5.495 5.496 5.5 5.5 0 0 1-5.495 5.495" mask="url(#d)"/>
  </g>
</svg>
