<svg xmlns="http://www.w3.org/2000/svg" id="LOGOS" width="240.948" height="75.59" version="1.1" viewBox="0 0 240.948 75.59" xmlns:xlink="http://www.w3.org/1999/xlink">
  <defs id="defs4">
    <style id="style2">
      .cls-1{fill:#e03875}
    </style>
  </defs>
  <path id="path6" d="M87.468 34.75c0-7.38 4.3-11.68 14.34-11.68a46 46 0 0 1 11 1.33l-.85 6.6a59 59 0 0 0-9.86-1c-5.27 0-7 1.81-7 6.11v15.46c0 4.29 1.69 6.11 7 6.11a59 59 0 0 0 9.86-1l.85 6.6a46 46 0 0 1-11 1.33c-10 0-14.34-4.3-14.34-11.68z"/>
  <path id="path8" d="M129.098 64.58c-10.11 0-12.82-5.58-12.82-11.58v-7.48c0-6 2.72-11.62 12.83-11.62s12.82 5.57 12.82 11.62V53c-.01 6-2.73 11.58-12.83 11.58m0-24.39c-3.94 0-5.45 1.76-5.45 5.09v7.92c0 3.33 1.51 5.08 5.45 5.08s5.44-1.75 5.44-5.08v-7.92c0-3.28-1.51-5.09-5.44-5.09"/>
  <path id="path10" d="M164.368 64V43.4c0-1.57-.67-2.36-2.36-2.36s-5 1.09-7.69 2.48V64h-7.38V34.51h5.63l.71 2.49a29.5 29.5 0 0 1 11.8-3.09c4.9 0 6.66 3.45 6.66 8.71V64Z"/>
  <path id="path12" d="M186.928 64.58a34.7 34.7 0 0 1-10.16-1.7l1-5.62a33.2 33.2 0 0 0 8.77 1.27c3.27 0 3.75-.73 3.75-3 0-1.81-.36-2.72-5.14-3.87-7.2-1.75-8.05-3.57-8.05-9.26 0-5.93 2.6-8.53 11-8.53a38.5 38.5 0 0 1 8.83 1l-.65 5.93a52.4 52.4 0 0 0-8.11-.85c-3.21 0-3.75.73-3.75 2.54 0 2.36.18 2.54 4.18 3.57 8.22 2.18 9 3.27 9 9.32-.02 5.69-1.77 9.2-10.67 9.2"/>
  <path id="path14" d="M209.798 34.51v20.57c0 1.57.66 2.36 2.36 2.36s5-1.09 7.68-2.48V34.51h7.38V64h-5.62l-.73-2.48a29.4 29.4 0 0 1-11.8 3.09c-4.9 0-6.65-3.45-6.65-8.72V34.51Z"/>
  <path id="path16" d="M233.568 64V22.47l7.38-1V64Z"/>
  <path id="path18" d="M31.778 75.59a31.76 31.76 0 1 1 21.5-55.12l-7.51 7.88a20.87 20.87 0 1 0 0 31l7.51 7.85a31.66 31.66 0 0 1-21.5 8.39" class="cls-1"/>
  <path id="path20" d="M57.338 59.7a2.6 2.6 0 1 1 2.6-2.6 2.6 2.6 0 0 1-2.6 2.6" class="cls-1"/>
  <path id="path22" d="M31.578 50.71a6.88 6.88 0 1 1 6.88-6.88 6.88 6.88 0 0 1-6.88 6.88" class="cls-1"/>
  <path id="path24" d="M60.328 50.81a2.6 2.6 0 1 1 2.6-2.6 2.61 2.61 0 0 1-2.6 2.6" class="cls-1"/>
  <path id="path26" d="M52.588 50.51a2.6 2.6 0 1 1 2.6-2.6 2.6 2.6 0 0 1-2.6 2.6" class="cls-1"/>
  <path id="path28" d="M60.328 42.06a2.6 2.6 0 1 1 2.6-2.6 2.61 2.61 0 0 1-2.6 2.6" class="cls-1"/>
  <path id="path30" d="M52.588 42.36a2.6 2.6 0 1 1 2.6-2.6 2.6 2.6 0 0 1-2.6 2.6" class="cls-1"/>
  <path id="path32" d="M57.488 33.31a2.6 2.6 0 1 1 2.6-2.6 2.6 2.6 0 0 1-2.6 2.6" class="cls-1"/>
  <path id="path34" d="M95.718 13.74V8.09h-5.17v5.65h-2.64V.16h2.64v5.7h5.17V.16h2.64v13.58zm12.33 0h-2.1l-.19-.66a5.8 5.8 0 0 1-3 .87c-1.86 0-2.66-1.23-2.66-2.92 0-2 .9-2.76 3-2.76h2.45v-1c0-1.08-.31-1.46-2-1.46a15 15 0 0 0-2.83.3l-.31-1.87a13.5 13.5 0 0 1 3.5-.47c3.2 0 4.15 1.09 4.15 3.54zm-2.56-3.74h-1.89c-.83 0-1.06.22-1.06 1s.23 1 1 1a4.15 4.15 0 0 0 1.93-.5zm7.91 4a12.6 12.6 0 0 1-3.52-.57l.36-1.87a12 12 0 0 0 3 .42c1.13 0 1.3-.24 1.3-1s-.13-.91-1.78-1.29c-2.5-.58-2.79-1.19-2.79-3.08s.9-2.84 3.81-2.84a14 14 0 0 1 3.06.34l-.25 2a19 19 0 0 0-2.81-.28c-1.11 0-1.3.24-1.3.84 0 .79.07.85 1.45 1.19 2.85.72 3.12 1.08 3.12 3.1s-.57 3.04-3.65 3.04m11.71-.21V6.9c0-.52-.23-.78-.82-.78a7.3 7.3 0 0 0-2.66.82v6.8h-2.56V0l2.56.38v4.34a9.4 9.4 0 0 1 3.73-.95c1.7 0 2.3 1.15 2.3 2.9v7.1zm4.7-11.18V.21h2.56v2.4zm0 11.18v-9.8h2.56v9.8zm4.6-9.72c0-2.45 1.49-3.88 5-3.88a16.5 16.5 0 0 1 3.79.44l-.29 2.2a21.6 21.6 0 0 0-3.42-.35c-1.82 0-2.41.61-2.41 2v5.15c0 1.43.59 2 2.41 2a21.5 21.5 0 0 0 3.42-.34l.29 2.19a16.5 16.5 0 0 1-3.79.45c-3.48 0-5-1.43-5-3.89zm14.41 9.93c-3.5 0-4.44-1.86-4.44-3.87V7.61c0-2 .94-3.87 4.44-3.87s4.46 1.85 4.46 3.87v2.47c0 2.01-1 3.92-4.46 3.92m0-8.11c-1.36 0-1.89.58-1.89 1.69v2.63c0 1.11.53 1.69 1.89 1.69s1.89-.58 1.89-1.69V7.53c0-1.11-.53-1.69-1.89-1.69zm11.64.16a19.4 19.4 0 0 0-2.7 1.43v6.31h-2.56v-9.8h2.16l.17 1.09a11.5 11.5 0 0 1 2.68-1.29zm10.22 4.48c0 2.18-1 3.47-3.37 3.47a15 15 0 0 1-2.73-.29v4l-2.55.38V3.94h2l.25.83a5.55 5.55 0 0 1 3.23-1c2.05 0 3.14 1.17 3.14 3.4zm-6.1 1.11a12 12 0 0 0 2.27.26c.92 0 1.28-.42 1.28-1.31V7.08c0-.8-.32-1.24-1.26-1.24a3.73 3.73 0 0 0-2.29.88z"/>
</svg>
