<svg xmlns="http://www.w3.org/2000/svg" width="1600" height="509" fill="none" viewBox="0 0 1600 509" xmlns:xlink="http://www.w3.org/1999/xlink">
  <mask id="a" width="509" height="509" x="1091" y="0" mask-type="alpha" maskUnits="userSpaceOnUse">
    <path fill="#F0F" d="M1091 0h509v509h-509z"/>
  </mask>
  <g mask="url(#a)">
    <path fill="var(--gray-4, #bfbfc0)" d="M1058.72 629.019h-.1c-.4-.1-.7-.4-.6-.9 12.5-83.7 38.4-164.3 77-239.7 37.6-73.6 86.4-140.7 145.1-199.4 58.6-58.6 125.6-107.4 199.2-145 75.4-38.5 156.1-64.4 239.7-77 .4-.1.8.2.9.6s-.2.8-.6.9c-83.5 12.5-164 38.4-239.3 76.8-73.5 37.5-140.4 86.3-199 144.8-58.6 58.6-107.3 125.5-144.8 199-38.4 75.3-64.3 155.8-76.8 239.3-.1.4-.4.6-.7.6" opacity=".1"/>
    <path fill="var(--gray-4, #bfbfc0)" d="M1074.82 629.019h-.1c-.4-.1-.7-.4-.6-.9 12.5-81.5 37.9-160.1 75.6-233.5 36.8-71.7 84.4-137.1 141.6-194.3s122.5-104.8 194.3-141.6c73.5-37.7 152-63.1 233.5-75.6.4-.1.8.2.9.6s-.2.8-.6.9c-81.3 12.4-159.8 37.8-233.1 75.4-71.6 36.7-136.8 84.3-193.9 141.4s-104.7 122.3-141.4 193.9c-37.6 73.3-63 151.7-75.4 233.1-.1.4-.4.6-.8.6" opacity=".15"/>
    <path fill="var(--gray-4, #bfbfc0)" d="M1091.02 629.019h-.1c-.4-.1-.7-.4-.6-.9 12.4-79.3 37.4-155.8 74.2-227.3 35.9-69.8 82.4-133.5 138.1-189.2s119.4-102.2 189.2-138.1c71.5-36.8 148-61.8 227.3-74.2.4-.1.8.2.9.6s-.2.8-.6.9c-79.2 12.4-155.5 37.3-226.8 74-69.7 35.9-133.2 82.3-188.8 137.9s-102 119.1-137.9 188.8c-36.7 71.3-61.6 147.7-74 226.8-.2.5-.5.7-.9.7" opacity=".2"/>
    <path fill="var(--gray-4, #bfbfc0)" d="M1107.22 629.019h-.1c-.4-.1-.7-.4-.6-.9 12.3-77.2 36.8-151.5 72.8-221.1 35-67.8 80.3-129.7 134.6-184s116.2-99.6 184.1-134.7c69.5-35.9 143.9-60.4 221.1-72.8.4-.1.8.2.9.6s-.2.8-.6.9c-77 12.3-151.3 36.8-220.6 72.6-67.8 35-129.6 80.2-183.7 134.4-54.2 54.2-99.4 116-134.4 183.7-36 69.5-60.5 143.7-72.8 220.7 0 .4-.3.6-.7.6" opacity=".25"/>
    <path fill="var(--gray-4, #bfbfc0)" d="M1123.42 629.02h-.1c-.4-.1-.7-.5-.6-.9 12.3-75 36.3-147.3 71.3-214.9 34.3-66 78.4-126.2 131.2-179s113-96.9 179-131.2c67.6-35.1 139.9-59.1 214.9-71.3.4-.1.8.2.9.6s-.2.8-.6.9c-74.9 12.2-147 36.2-214.4 71.2-65.9 34.2-126 78.2-178.6 130.9-52.8 52.7-96.9 112.8-131 178.7-35 67.4-58.9 139.6-71.2 214.4-.1.4-.4.6-.8.6" opacity=".3"/>
    <path fill="var(--gray-4, #bfbfc0)" d="M1139.62 629.019h-.1c-.4-.1-.7-.5-.6-.9 12.2-72.8 35.7-143 69.9-208.6 33.4-64.1 76.4-122.6 127.7-173.9s109.8-94.3 173.9-127.7c65.6-34.2 135.8-57.7 208.6-69.9.4-.1.8.2.9.6s-.2.8-.6.9c-72.7 12.2-142.7 35.6-208.2 69.8-64 33.3-122.4 76.2-173.6 127.4s-94.1 109.6-127.4 173.6c-34.1 65.5-57.6 135.5-69.8 208.2 0 .3-.3.5-.7.5" opacity=".35"/>
    <path fill="var(--gray-4, #bfbfc0)" d="M1155.92 629.02h-.1c-.4-.1-.7-.5-.6-.9 12.1-70.7 35.2-138.8 68.5-202.4 32.6-62.2 74.4-119 124.2-168.8s106.6-91.6 168.8-124.2c63.6-33.3 131.7-56.4 202.4-68.5.4-.1.8.2.9.6s-.2.8-.6.9c-70.5 12.1-138.5 35.1-202 68.3-62.1 32.6-118.8 74.3-168.5 124s-91.4 106.4-123.9 168.5c-33.3 63.5-56.3 131.4-68.3 202-.1.3-.5.5-.8.5" opacity=".4"/>
    <path fill="var(--gray-4, #bfbfc0)" d="M1172.12 629.019h-.1c-.4-.1-.7-.5-.6-.9 48.9-278.6 269-498.7 547.7-547.7.4-.1.8.2.9.6s-.2.8-.6.9c-278 48.8-497.6 268.4-546.5 546.5-.1.4-.4.6-.8.6" opacity=".45"/>
    <path fill="var(--gray-4, #bfbfc0)" d="M1188.42 629.019h-.1c-.4-.1-.7-.5-.6-.9 12-66.3 34-130.3 65.6-190 30.9-58.4 70.3-111.8 117.2-158.7s100.3-86.3 158.7-117.2c59.7-31.6 123.6-53.7 190-65.6.4-.1.8.2.9.6s-.2.8-.6.9c-66.2 11.9-130 33.9-189.5 65.5-58.3 30.8-111.5 70.2-158.3 116.9-46.8 46.8-86.1 100-116.9 158.3-31.5 59.6-53.5 123.3-65.5 189.5-.3.5-.6.7-.9.7" opacity=".5"/>
    <path fill="url(#b)" d="M1204.62 629.019h-.1c-.4-.1-.7-.5-.6-.9 11.9-64.2 33.4-126 64.1-183.7 30-56.5 68.3-108.2 113.7-153.6s97.1-83.7 153.6-113.7c57.7-30.7 119.6-52.3 183.8-64.2.4-.1.8.2.9.6s-.2.8-.6.9c-64 11.8-125.7 33.4-183.3 64-56.4 30-107.9 68.1-153.2 113.4s-83.5 96.8-113.4 153.2c-30.6 57.6-52.2 119.3-64 183.3-.2.5-.5.7-.9.7"/>
    <path fill="url(#c)" d="M1220.92 629.02h-.1c-.4-.1-.7-.5-.6-.9 11.8-62 32.9-121.7 62.7-177.5 29.2-54.6 66.3-104.5 110.2-148.5s93.9-81 148.5-110.2c55.8-29.8 115.5-50.9 177.5-62.7.4-.1.8.2.9.6s-.2.8-.6.9c-61.9 11.7-121.4 32.8-177.1 62.5-54.5 29.1-104.3 66.1-148.1 109.9a629 629 0 0 0-109.9 148.1c-29.8 55.7-50.8 115.2-62.5 177.1-.2.5-.5.7-.9.7"/>
    <path fill="url(#d)" d="M1237.22 629.019h-.1c-.4-.1-.7-.5-.6-.9 23.3-119.3 81.3-228.1 167.9-314.7s195.4-144.6 314.7-167.9c.4-.1.8.2.9.6s-.2.8-.6.9c-119 23.2-227.6 81.1-313.9 167.5-86.5 86.4-144.4 194.9-167.6 313.9 0 .4-.4.6-.7.6"/>
    <path fill="url(#e)" d="M1253.52 629.019h-.1c-.4-.1-.7-.5-.6-.9 23-115 79.4-219.9 162.9-303.4s188.4-139.8 303.4-162.9c.4-.1.8.2.9.6s-.2.8-.6.9c-114.7 23-219.3 79.2-302.6 162.5s-139.5 187.9-162.5 302.6c-.1.4-.4.6-.8.6"/>
    <path fill="url(#f)" d="M1269.92 629.019h-.2c-.4-.1-.7-.5-.6-.9 22.8-110.6 77.4-211.6 157.9-292.1s181.5-135 292.1-157.9c.4-.1.8.2.9.6s-.2.8-.6.9c-110.3 22.8-211.1 77.2-291.3 157.4s-134.7 181-157.4 291.3c-.2.5-.5.7-.8.7"/>
    <path fill="url(#g)" d="M1286.22 629.019h-.2c-.4-.1-.7-.5-.6-.9 22.6-106.3 75.4-203.4 152.8-280.7 77.4-77.4 174.5-130.2 280.7-152.8.4-.1.8.2.9.6s-.2.8-.6.9c-106 22.5-202.8 75.2-280 152.4s-129.9 174-152.4 280c0 .3-.3.5-.6.5"/>
    <path fill="var(--gray-4, #bfbfc0)" d="M1302.62 629.019h-.2c-.4-.1-.7-.5-.6-.9 45.5-207.9 209.3-371.7 417.2-417.2.4-.1.8.2.9.6s-.2.8-.6.9c-207.3 45.4-370.6 208.7-416.1 416.1 0 .3-.3.5-.6.5" opacity=".3"/>
    <path fill="var(--gray-4, #bfbfc0)" d="M1319.02 629.019h-.2c-.4-.1-.7-.5-.6-.9 22.1-97.6 71.4-186.8 142.7-258.1s160.5-120.6 258.1-142.7c.4-.1.8.2.9.6s-.2.8-.6.9c-97.3 22-186.3 71.2-257.4 142.3-71 71-120.2 160-142.2 257.4-.1.3-.4.5-.7.5" opacity=".75"/>
    <path fill="var(--gray-4, #bfbfc0)" d="M1335.42 629.02h-.2c-.4-.1-.7-.5-.6-.9 21.8-93.3 69.3-178.6 137.5-246.8s153.6-115.8 246.8-137.6c.4-.1.8.2.9.6s-.2.8-.6.9c-93 21.7-178.1 69.1-246.1 137.2-68 68-115.4 153.1-137.1 246.1 0 .3-.3.5-.6.5" opacity=".75"/>
    <path fill="var(--gray-4, #bfbfc0)" d="M1351.82 629.02h-.2c-.4-.1-.7-.5-.6-.9 21.5-88.9 67.3-170.3 132.4-235.5s146.6-110.9 235.5-132.4c.4-.1.8.2.9.6s-.2.8-.6.9c-88.6 21.4-169.8 67.1-234.8 132-65 65-110.6 146.1-132 234.8.1.3-.2.5-.6.5" opacity=".75"/>
    <path fill="var(--gray-4, #bfbfc0)" d="M1368.32 629.019h-.2c-.4-.1-.6-.5-.5-.9 21.1-84.6 65.1-162.1 127.2-224.2s139.6-106.1 224.2-127.2c.4-.1.8.1.9.5s-.1.8-.5.9c-84.3 21.1-161.6 65-223.5 126.8-61.9 61.9-105.8 139.2-126.8 223.5-.1.4-.5.6-.8.6" opacity=".75"/>
    <path fill="var(--gray-4, #bfbfc0)" d="M1384.82 629.019h-.2c-.4-.1-.6-.5-.5-.9 20.8-80.2 63-153.8 122.1-212.9 59-59 132.6-101.2 212.9-122.1.4-.1.8.1.9.5s-.1.8-.5.9c-80 20.8-153.3 62.8-212.2 121.7s-101 132.3-121.8 212.3c-.1.3-.4.5-.7.5" opacity=".75"/>
    <path fill="url(#h)" d="M1401.42 629.019h-.2c-.4-.1-.6-.5-.5-.9 41.7-154.7 163.6-276.7 318.3-318.3.4-.1.8.1.9.5s-.1.8-.5.9c-154.2 41.5-275.8 163.1-317.3 317.3-.1.3-.4.5-.7.5" opacity=".3"/>
    <path fill="url(#i)" d="M1418.02 629.02h-.2c-.4-.1-.6-.5-.5-.9 20-71.5 58.6-137.3 111.5-190.2s118.7-91.5 190.2-111.5c.4-.1.8.1.9.5s-.1.8-.5.9c-71.3 20-136.9 58.4-189.6 111.1s-91.2 118.3-111.1 189.6c-.1.3-.4.5-.7.5"/>
    <path fill="url(#j)" d="M1434.62 629.02h-.2c-.4-.1-.6-.5-.5-.9 19.6-67.2 56.3-129.1 106.2-178.9 49.8-49.9 111.7-86.6 178.9-106.2.4-.1.8.1.9.5s-.1.8-.5.9c-67 19.5-128.6 56.1-178.3 105.8s-86.3 111.3-105.8 178.3c-.1.3-.4.5-.7.5"/>
    <path fill="url(#k)" d="M1451.32 629.019h-.2c-.4-.1-.6-.5-.5-.9 39.4-128.6 139.8-229 268.4-268.4.4-.1.8.1.9.5s-.1.8-.5.9c-128.2 39.3-228.1 139.2-267.4 267.4-.1.3-.4.5-.7.5"/>
    <path fill="url(#l)" d="M1468.12 629.02h-.2c-.4-.1-.6-.5-.5-.9 38.2-119.3 132.3-213.4 251.6-251.6.4-.1.8.1.9.5s-.1.8-.5.9c-118.8 38.1-212.5 131.8-250.6 250.6-.1.3-.4.5-.7.5"/>
    <path fill="url(#m)" d="M1484.92 629.019h-.2c-.4-.1-.6-.6-.5-.9 18.2-54.3 49.3-104.5 89.8-145s90.6-71.6 145-89.8c.4-.1.8.1.9.5s-.1.8-.5.9c-54.1 18.2-104 49.1-144.4 89.4s-71.3 90.3-89.4 144.4c-.1.3-.4.5-.7.5"/>
    <path fill="url(#n)" d="M1501.82 629.019h-.2c-.4-.1-.6-.6-.5-1 17.6-50 46.7-96.2 84.2-133.6s83.7-66.6 133.6-84.2c.4-.1.8.1 1 .5.1.4-.1.8-.5 1-49.8 17.5-95.8 46.5-133.1 83.8s-66.3 83.3-83.8 133.1c-.1.2-.4.4-.7.4"/>
    <path fill="url(#o)" d="M1518.82 629.019h-.3c-.4-.1-.6-.6-.4-1 34.6-93 107.8-166.2 200.8-200.8.4-.1.8.1 1 .4.1.4-.1.8-.4 1-92.7 34.4-165.6 107.3-200 200-.1.3-.4.4-.7.4"/>
    <path fill="url(#p)" d="M1535.92 629.019c-.1 0-.2 0-.3-.1-.4-.2-.6-.6-.4-1 32.9-83.8 99.8-150.8 183.7-183.7.4-.1.8 0 1 .4s0 .8-.4 1c-83.4 32.7-150.1 99.4-182.8 182.8-.2.5-.5.6-.8.6"/>
    <path fill="url(#q)" d="M1553.22 629.019c-.1 0-.2 0-.3-.1-.4-.2-.6-.6-.4-1 15.6-37.5 38-71 66.7-99.7s62.2-51.1 99.7-66.7c.4-.2.8 0 1 .4s0 .8-.4 1c-37.3 15.5-70.6 37.9-99.2 66.4-28.5 28.5-50.9 61.9-66.4 99.2-.1.4-.4.5-.7.5"/>
    <path fill="url(#r)" d="M1570.62 629.019c-.1 0-.2 0-.3-.1-.4-.2-.5-.6-.4-1 29.5-66.6 82.4-119.5 149-149 .4-.2.8 0 1 .4s0 .8-.4 1c-66.2 29.4-118.8 82-148.2 148.2-.1.4-.4.5-.7.5"/>
    <path fill="var(--gray-4, #bfbfc0)" d="M1588.22 629.019c-.1 0-.2 0-.3-.1-.4-.2-.5-.6-.4-1 27.3-57.4 73.9-104.1 131.4-131.4.4-.2.8 0 1 .4s0 .8-.4 1c-57.1 27.1-103.5 73.5-130.6 130.6-.2.4-.4.5-.7.5"/>
  </g>
  <mask id="s" width="509" height="509" x="0" y="0" mask-type="alpha" maskUnits="userSpaceOnUse">
    <path fill="#F0F" d="M0 0h509v509H0z"/>
  </mask>
  <g mask="url(#s)">
    <path fill="var(--gray-4, #bfbfc0)" d="M-23.2 21.875c-.1 0-.2 0-.4-.1-.4-.2-.5-.6-.3-1 21-39.3 43.4-78.4 66.5-116.3.2-.4.7-.5 1-.2.4.2.5.7.2 1-23 37.8-45.4 76.9-66.3 116.2-.1.3-.4.4-.7.4m0 34.5c-.1 0-.2 0-.3-.1-.4-.2-.5-.6-.3-1 26.4-51.2 55-101.9 85.1-150.8.2-.4.7-.5 1-.2.4.2.5.7.2 1-30 48.8-58.6 99.5-85 150.7-.1.2-.4.4-.7.4m0 35.3c-.1 0-.2 0-.3-.1-.4-.2-.5-.6-.3-1 31.7-63.5 66.7-126.2 103.9-186.1.2-.4.7-.5 1-.2.4.2.5.7.2 1-37.1 59.9-72.1 122.5-103.8 186-.1.3-.4.4-.7.4" opacity=".5"/>
    <path fill="url(#t)" d="M-23.2 128.175c-.1 0-.2 0-.3-.1-.4-.2-.5-.6-.4-1 36.7-76.2 78-151.1 122.9-222.6.2-.4.7-.5 1-.2.4.2.5.7.2 1-44.8 71.5-86.1 146.3-122.7 222.4-.1.3-.4.5-.7.5" opacity=".15"/>
    <path fill="url(#u)" d="M-23.2 165.674c-.1 0-.2 0-.3-.1-.4-.2-.5-.6-.4-1 41.3-89.4 89-177 141.7-260.2.2-.4.7-.5 1-.2.4.2.5.7.2 1-52.5 83.2-100.2 170.7-141.5 260.1-.1.2-.4.4-.7.4" opacity=".25"/>
    <path fill="url(#v)" d="M-23.2 204.474c-.1 0-.2 0-.3-.1-.4-.2-.5-.6-.4-1 45.8-103.2 99.9-203.8 160.8-299 .2-.3.7-.5 1-.2.3.2.5.7.2 1-60.8 95.1-114.9 195.7-160.6 298.9-.1.3-.4.4-.7.4" opacity=".35"/>
    <path fill="var(--gray-4, #bfbfc0)" d="M-23.2 244.774c-.1 0-.2 0-.3-.1-.4-.2-.6-.6-.4-1 49.8-117.8 110.3-232 179.8-339.3.2-.3.7-.4 1-.2s.4.7.2 1c-69.4 107.4-129.8 221.5-179.6 339.2-.1.2-.4.4-.7.4" opacity=".55"/>
    <path fill="var(--gray-4, #bfbfc0)" d="M-23.1 286.774c-.1 0-.2 0-.3-.1-.4-.2-.6-.6-.4-1 53.5-133 120.4-261.3 198.8-381.3.2-.3.7-.4 1-.2s.4.7.2 1c-78.4 120-145.2 248.2-198.7 381.1-.1.3-.4.5-.6.5" opacity=".65"/>
    <path fill="var(--gray-4, #bfbfc0)" d="M-23.1 330.674h-.3c-.4-.1-.6-.6-.4-1 56.7-149.1 130-292.2 217.9-425.3.2-.3.7-.4 1-.2s.4.7.2 1c-87.9 133-161.1 276-217.8 425-.1.3-.3.5-.6.5" opacity=".65"/>
    <path fill="var(--gray-4, #bfbfc0)" d="M-23.1 376.974h-.3c-.4-.1-.6-.6-.5-1 59.5-166.2 139.2-324.8 237.2-471.6.2-.3.7-.4 1-.2s.4.7.2 1c-97.8 146.7-177.6 305.3-236.9 471.3-.2.3-.4.5-.7.5" opacity=".65"/>
    <path fill="var(--gray-4, #bfbfc0)" d="M-23.1 425.974h-.2c-.4-.1-.6-.6-.5-.9 61.4-184.4 147.7-359.6 256.4-520.7.2-.3.7-.4 1-.2s.4.7.2 1c-108.6 161-194.9 336-256.3 520.2 0 .4-.3.6-.6.6" opacity=".75"/>
    <path fill="var(--gray-4, #bfbfc0)" d="M-23.1 478.574h-.2c-.4-.1-.6-.5-.5-.9 62.7-204 155.5-396.9 275.8-573.2.2-.3.7-.4 1-.2s.4.7.2 1c-120.3 176.2-213 368.9-275.6 572.8-.1.3-.4.5-.7.5" opacity=".3"/>
    <path fill="var(--gray-4, #bfbfc0)" d="M-23.1 535.474h-.2c-.4-.1-.6-.5-.5-.9 62.9-225.5 162.2-437.5 295.1-630.2.2-.3.7-.4 1-.2s.4.7.2 1c-132.8 192.6-232 404.4-294.9 629.7-.1.4-.4.6-.7.6" opacity=".3"/>
    <path fill="url(#w)" d="M-23.1 598.374h-.2c-.4-.1-.6-.5-.5-.9 30.6-123.6 72.9-245 125.5-361 52.6-115.9 116.2-227.7 189.1-332.1.2-.3.7-.4 1-.2s.4.7.2 1c-72.8 104.3-136.4 216-189 331.8-52.6 116-94.8 237.3-125.4 360.8-.1.4-.4.6-.7.6"/>
    <path fill="url(#x)" d="M-23.1 669.774h-.2c-.4-.1-.7-.5-.6-.9 29.3-137.8 72.9-273.2 129.6-402.3 55.7-126.8 124.5-248.6 204.6-362.2.2-.3.7-.4 1-.2s.4.7.2 1c-80 113.5-148.8 235.2-204.4 361.9-56.7 129-100.3 264.3-129.5 402-.1.4-.4.7-.7.7"/>
    <path fill="url(#y)" d="M-14.1 705.574h-.1c-.4-.1-.7-.5-.6-.9 28.3-144.7 72.4-286.7 131-422.1 57.5-132.7 129.4-260 213.7-378.2.2-.3.7-.4 1-.2s.4.7.2 1c-84.2 118.1-156.1 245.3-213.6 377.9-58.6 135.4-102.6 277.3-130.9 421.9 0 .4-.4.6-.7.6" opacity=".9"/>
    <path fill="url(#z)" d="M2.2 705.574h-.1c-.4-.1-.7-.5-.6-.9 28.5-144.9 73.1-287 132.3-422.4 58.1-132.8 130.7-259.9 215.8-377.9.2-.3.7-.4 1-.2s.4.7.2 1c-85 118-157.6 245-215.7 377.7-59.2 135.3-103.7 277.3-132.2 422.1 0 .4-.4.6-.7.6" opacity=".8"/>
    <path fill="url(#A)" d="M18.5 705.574h-.1c-.4-.1-.7-.5-.6-.9 28.8-145.1 73.8-287.4 133.6-422.8 58.7-132.8 132-259.8 218-377.5.2-.3.7-.4 1-.2s.4.7.2 1c-85.9 117.6-159.2 244.5-217.8 377.2-59.8 135.5-104.8 277.6-133.6 422.6 0 .4-.4.6-.7.6" opacity=".7"/>
    <path fill="url(#B)" d="M34.8 705.574h-.1c-.4-.1-.7-.5-.6-.9 29.1-145.3 74.5-287.7 135-423.2 59.3-132.8 133.4-259.7 220.1-377.1.2-.3.7-.4 1-.2s.4.7.2 1c-86.7 117.3-160.8 244.1-220 376.9-60.4 135.4-105.8 277.7-134.9 422.9 0 .4-.3.6-.7.6" opacity=".6"/>
    <path fill="url(#C)" d="M51.1 705.574H51c-.4-.1-.7-.5-.6-.9 29.4-145.5 75.3-288 136.4-423.5 59.9-132.9 134.7-259.7 222.3-376.8.2-.3.7-.4 1-.2s.4.7.2 1c-87.6 117-162.3 243.7-222.2 376.5-61 135.5-106.9 277.9-136.2 423.3-.1.4-.4.6-.8.6" opacity=".5"/>
    <path fill="url(#D)" d="M67.5 705.574h-.2c-.4-.1-.7-.5-.6-.9 29.7-145.8 76-288.4 137.8-423.9 60.6-132.9 136.2-259.5 224.7-376.4.3-.3.7-.4 1.1-.1.3.2.4.7.1 1.1-88.4 116.8-164 243.3-224.5 376.1-61.7 135.4-108 277.9-137.7 423.6-.1.3-.4.5-.7.5" opacity=".4"/>
    <path fill="url(#E)" d="M83.8 705.574h-.2c-.4-.1-.7-.5-.6-.9 30-146 76.8-288.8 139.2-424.4 61.2-132.9 137.5-259.4 227-375.9.3-.3.7-.4 1.1-.1.3.3.4.7.1 1.1-89.3 116.3-165.6 242.7-226.7 375.6-62.4 135.5-109.2 278.1-139.1 424-.1.4-.5.6-.8.6" opacity=".3"/>
    <path fill="url(#F)" d="M100.1 705.574h-.2c-.4-.1-.7-.5-.6-.9 30.3-146.2 77.6-289.2 140.7-424.8 61.9-133 139-259.3 229.4-375.5.3-.3.7-.4 1.1-.1s.4.7.1 1.1c-90.3 116.1-167.4 242.4-229.2 375.3-63 135.4-110.3 278.2-140.5 424.3-.1.4-.4.6-.8.6" opacity=".2"/>
    <path fill="url(#G)" d="M116.5 705.574h-.2c-.4-.1-.7-.5-.6-.9 30.6-146.5 78.5-289.6 142.3-425.2 62.5-133 140.5-259.2 231.8-375.1.3-.3.7-.4 1.1-.1.3.3.4.7.1 1.1-91.2 115.7-169.1 241.8-231.6 374.7-63.7 135.5-111.6 278.5-142.1 424.9-.2.4-.5.6-.8.6" opacity=".1"/>
  </g>
  <defs>
    <linearGradient id="b" x1="1203.91" x2="1719.96" y1="371.035" y2="371.035" gradientUnits="userSpaceOnUse">
      <stop stop-color="var(--gray-4, #bfbfc0)"/>
      <stop offset="1" stop-color="var(--gray-4, #bfbfc0)" stop-opacity="0"/>
    </linearGradient>
    <linearGradient id="c" x1="1220.18" x2="1719.96" y1="379.17" y2="379.17" gradientUnits="userSpaceOnUse">
      <stop stop-color="var(--gray-4, #bfbfc0)"/>
      <stop offset="1" stop-color="var(--gray-4, #bfbfc0)" stop-opacity="0"/>
    </linearGradient>
    <linearGradient id="d" x1="1236.46" x2="1719.96" y1="387.31" y2="387.31" gradientUnits="userSpaceOnUse">
      <stop stop-color="var(--gray-4, #bfbfc0)"/>
      <stop offset="1" stop-color="var(--gray-4, #bfbfc0)" stop-opacity="0"/>
    </linearGradient>
    <linearGradient id="e" x1="1252.79" x2="1719.96" y1="395.474" y2="395.474" gradientUnits="userSpaceOnUse">
      <stop stop-color="var(--gray-4, #bfbfc0)"/>
      <stop offset="1" stop-color="var(--gray-4, #bfbfc0)" stop-opacity="0"/>
    </linearGradient>
    <linearGradient id="f" x1="1269.12" x2="1719.96" y1="403.64" y2="403.64" gradientUnits="userSpaceOnUse">
      <stop stop-color="var(--gray-4, #bfbfc0)"/>
      <stop offset="1" stop-color="var(--gray-4, #bfbfc0)" stop-opacity="0"/>
    </linearGradient>
    <linearGradient id="g" x1="1285.46" x2="1719.96" y1="411.81" y2="411.81" gradientUnits="userSpaceOnUse">
      <stop stop-color="var(--gray-4, #bfbfc0)"/>
      <stop offset="1" stop-color="var(--gray-4, #bfbfc0)" stop-opacity="0"/>
    </linearGradient>
    <linearGradient id="h" x1="1400.64" x2="1719.96" y1="469.4" y2="469.4" gradientUnits="userSpaceOnUse">
      <stop stop-color="var(--gray-4, #bfbfc0)" stop-opacity=".2"/>
      <stop offset="1" stop-color="var(--gray-4, #bfbfc0)"/>
    </linearGradient>
    <linearGradient id="i" x1="1417.23" x2="1719.96" y1="477.695" y2="477.695" gradientUnits="userSpaceOnUse">
      <stop stop-color="var(--gray-4, #bfbfc0)" stop-opacity=".2"/>
      <stop offset="1" stop-color="var(--gray-4, #bfbfc0)"/>
    </linearGradient>
    <linearGradient id="j" x1="1433.88" x2="1719.96" y1="486.02" y2="486.02" gradientUnits="userSpaceOnUse">
      <stop stop-color="var(--gray-4, #bfbfc0)" stop-opacity=".2"/>
      <stop offset="1" stop-color="var(--gray-4, #bfbfc0)"/>
    </linearGradient>
    <linearGradient id="k" x1="1450.58" x2="1719.96" y1="494.37" y2="494.37" gradientUnits="userSpaceOnUse">
      <stop stop-color="var(--gray-4, #bfbfc0)" stop-opacity=".2"/>
      <stop offset="1" stop-color="var(--gray-4, #bfbfc0)"/>
    </linearGradient>
    <linearGradient id="l" x1="1467.33" x2="1719.96" y1="502.745" y2="502.745" gradientUnits="userSpaceOnUse">
      <stop stop-color="var(--gray-4, #bfbfc0)" stop-opacity=".2"/>
      <stop offset="1" stop-color="var(--gray-4, #bfbfc0)"/>
    </linearGradient>
    <linearGradient id="m" x1="1484.16" x2="1719.96" y1="511.16" y2="511.16" gradientUnits="userSpaceOnUse">
      <stop stop-color="var(--gray-4, #bfbfc0)" stop-opacity=".2"/>
      <stop offset="1" stop-color="var(--gray-4, #bfbfc0)"/>
    </linearGradient>
    <linearGradient id="n" x1="1501.07" x2="1719.96" y1="519.614" y2="519.614" gradientUnits="userSpaceOnUse">
      <stop stop-color="var(--gray-4, #bfbfc0)" stop-opacity=".2"/>
      <stop offset="1" stop-color="var(--gray-4, #bfbfc0)"/>
    </linearGradient>
    <linearGradient id="o" x1="1518.09" x2="1719.96" y1="528.125" y2="528.125" gradientUnits="userSpaceOnUse">
      <stop stop-color="var(--gray-4, #bfbfc0)" stop-opacity=".2"/>
      <stop offset="1" stop-color="var(--gray-4, #bfbfc0)"/>
    </linearGradient>
    <linearGradient id="p" x1="1535.21" x2="1719.96" y1="536.685" y2="536.685" gradientUnits="userSpaceOnUse">
      <stop stop-color="var(--gray-4, #bfbfc0)" stop-opacity=".2"/>
      <stop offset="1" stop-color="var(--gray-4, #bfbfc0)"/>
    </linearGradient>
    <linearGradient id="q" x1="1552.46" x2="1719.96" y1="545.31" y2="545.31" gradientUnits="userSpaceOnUse">
      <stop stop-color="var(--gray-4, #bfbfc0)" stop-opacity=".2"/>
      <stop offset="1" stop-color="var(--gray-4, #bfbfc0)"/>
    </linearGradient>
    <linearGradient id="r" x1="1569.87" x2="1719.96" y1="554.015" y2="554.015" gradientUnits="userSpaceOnUse">
      <stop stop-color="var(--gray-4, #bfbfc0)" stop-opacity=".2"/>
      <stop offset="1" stop-color="var(--gray-4, #bfbfc0)"/>
    </linearGradient>
    <linearGradient id="t" x1="-23.9" x2="100.391" y1="16.105" y2="16.105" gradientUnits="userSpaceOnUse">
      <stop stop-color="var(--gray-4, #bfbfc0)" stop-opacity=".2"/>
      <stop offset="1" stop-color="var(--gray-4, #bfbfc0)"/>
    </linearGradient>
    <linearGradient id="u" x1="-23.9" x2="119.29" y1="34.875" y2="34.875" gradientUnits="userSpaceOnUse">
      <stop stop-color="var(--gray-4, #bfbfc0)" stop-opacity=".2"/>
      <stop offset="1" stop-color="var(--gray-4, #bfbfc0)"/>
    </linearGradient>
    <linearGradient id="v" x1="-23.9" x2="138.261" y1="54.295" y2="54.295" gradientUnits="userSpaceOnUse">
      <stop stop-color="var(--gray-4, #bfbfc0)" stop-opacity=".2"/>
      <stop offset="1" stop-color="var(--gray-4, #bfbfc0)"/>
    </linearGradient>
    <linearGradient id="w" x1="-23.9" x2="292.141" y1="251.215" y2="251.215" gradientUnits="userSpaceOnUse">
      <stop stop-color="var(--gray-4, #bfbfc0)" stop-opacity=".2"/>
      <stop offset="1" stop-color="var(--gray-4, #bfbfc0)"/>
    </linearGradient>
    <linearGradient id="x" x1="-23.9" x2="311.67" y1="286.915" y2="286.915" gradientUnits="userSpaceOnUse">
      <stop stop-color="var(--gray-4, #bfbfc0)" stop-opacity=".2"/>
      <stop offset="1" stop-color="var(--gray-4, #bfbfc0)"/>
    </linearGradient>
    <linearGradient id="y" x1="-14.864" x2="331.27" y1="304.825" y2="304.825" gradientUnits="userSpaceOnUse">
      <stop stop-color="var(--gray-4, #bfbfc0)" stop-opacity=".2"/>
      <stop offset="1" stop-color="var(--gray-4, #bfbfc0)"/>
    </linearGradient>
    <linearGradient id="z" x1="1.438" x2="350.961" y1="304.825" y2="304.825" gradientUnits="userSpaceOnUse">
      <stop stop-color="var(--gray-4, #bfbfc0)" stop-opacity=".2"/>
      <stop offset="1" stop-color="var(--gray-4, #bfbfc0)"/>
    </linearGradient>
    <linearGradient id="A" x1="17.747" x2="370.72" y1="304.825" y2="304.825" gradientUnits="userSpaceOnUse">
      <stop stop-color="var(--gray-4, #bfbfc0)" stop-opacity=".2"/>
      <stop offset="1" stop-color="var(--gray-4, #bfbfc0)"/>
    </linearGradient>
    <linearGradient id="B" x1="34.059" x2="390.6" y1="304.825" y2="304.825" gradientUnits="userSpaceOnUse">
      <stop stop-color="var(--gray-4, #bfbfc0)" stop-opacity=".2"/>
      <stop offset="1" stop-color="var(--gray-4, #bfbfc0)"/>
    </linearGradient>
    <linearGradient id="C" x1="50.389" x2="410.491" y1="304.825" y2="304.825" gradientUnits="userSpaceOnUse">
      <stop stop-color="var(--gray-4, #bfbfc0)" stop-opacity=".2"/>
      <stop offset="1" stop-color="var(--gray-4, #bfbfc0)"/>
    </linearGradient>
    <linearGradient id="D" x1="66.721" x2="430.511" y1="304.825" y2="304.825" gradientUnits="userSpaceOnUse">
      <stop stop-color="var(--gray-4, #bfbfc0)" stop-opacity=".2"/>
      <stop offset="1" stop-color="var(--gray-4, #bfbfc0)"/>
    </linearGradient>
    <linearGradient id="E" x1="83.045" x2="450.601" y1="304.825" y2="304.825" gradientUnits="userSpaceOnUse">
      <stop stop-color="var(--gray-4, #bfbfc0)" stop-opacity=".2"/>
      <stop offset="1" stop-color="var(--gray-4, #bfbfc0)"/>
    </linearGradient>
    <linearGradient id="F" x1="99.372" x2="470.83" y1="304.825" y2="304.825" gradientUnits="userSpaceOnUse">
      <stop stop-color="var(--gray-4, #bfbfc0)" stop-opacity=".2"/>
      <stop offset="1" stop-color="var(--gray-4, #bfbfc0)"/>
    </linearGradient>
    <linearGradient id="G" x1="115.738" x2="491.141" y1="304.825" y2="304.825" gradientUnits="userSpaceOnUse">
      <stop stop-color="var(--gray-4, #bfbfc0)" stop-opacity=".2"/>
      <stop offset="1" stop-color="var(--gray-4, #bfbfc0)"/>
    </linearGradient>
  </defs>
</svg>
