<svg xmlns="http://www.w3.org/2000/svg" xmlns:xlink="http://www.w3.org/1999/xlink" width="1061.704" height="704.278" viewBox="0 0 280.909 186.34">
  <defs>
    <path id="a" d="M60.894 32.634a1.06 1.06 0 1 1 1.057-1.049 1.06 1.06 0 0 1-1.057 1.064"/>
    <path id="b" d="M62.957 32.064a.49.49 0 1 1 .49-.479.49.49 0 0 1-.49.49m1.788.448a.452.452 0 1 1-.903-.038.452.452 0 0 1 .903.038m-.345-1.259a.49.49 0 1 1 .383-.59.5.5 0 0 1 0 .192.47.47 0 0 1-.383.383m1.739 1.221a.488.488 0 1 1-.961-.168.48.48 0 0 1 .566-.383.49.49 0 0 1 .406.52.2.2 0 0 0 0 .047m-.406-1.245a.486.486 0 1 1 .383-.559 1 1 0 0 1 0 .127.486.486 0 0 1-.406.432m-.321 2.921a.49.49 0 1 1 .06-.2.4.4 0 0 1-.06.2m-.177-4.491a.49.49 0 1 1-.481-.853.49.49 0 0 1 .481.853"/>
    <path id="c" d="M60.914 36.5a4.915 4.915 0 1 1 2.981-8.803l-.597.766a3.93 3.93 0 1 0 0 6.243l.597.784a4.85 4.85 0 0 1-2.981 1.01"/>
  </defs>
  <rect width="279.909" height="185.34" x=".5" y=".5" fill="#fff" stroke="#d2d4db" stroke-linecap="round" paint-order="markers stroke fill" rx=".76" ry=".76"/>
  <path fill="none" stroke="#ffc05b" d="M194.768 47.305c-50.544 45.347-77.75 4.58-88.502-.654"/>
  <path fill="none" stroke="#7a95ff" d="M204.973 46.768c-11.4 18.817-61.96 16.587-89.841-.403"/>
  <g transform="translate(-271.244 -366.157)">
    <rect width="31.143" height="30.384" x="379.265" y="517.245" fill="none" stroke="#ca2171" rx=".949" ry=".949"/>
    <circle cx="386.648" cy="539.231" r="2.551" fill="#ca2171"/>
    <rect width="31.143" height="30.384" x="432.976" y="517.245" fill="none" stroke="#ca2171" rx=".949" ry=".949"/>
    <circle cx="440.359" cy="539.231" r="2.551" fill="#ca2171"/>
  </g>
  <path fill="none" stroke="#9194a0" d="M84.916 102.204 96.87 46.903m-11.954 72.489 11.954-72.49m-11.954 55.302 56.913-66.794m-56.913 66.794 101.795-54.899M84.916 119.392l101.795-72.087"/>
  <path fill="none" stroke="#ffc05b" d="m106.266 46.65 55.466 104.439M150.422 35.41l11.31 115.679m33.036-103.784L161.732 151.09M106.266 46.65l32.898 104.439M150.422 35.41l-11.258 115.679M150.422 35.41c-11.739 19.409-27.778 19.304-44.156 11.24m44.48-11.257c11.739 19.41 27.645 19.976 44.022 11.912"/>
  <path fill="none" stroke="#7a95ff" d="M160.896 35.007c13.933 16.393 28.118 19.25 44.077 11.761m-44.077-11.761c-11.739 19.41-28.716 20.093-45.093 12.03"/>
  <path fill="none" stroke="#ffc05b" d="M194.768 47.305 139.164 151.09m22.568-.001h-22.568"/>
  <path fill="none" stroke="#7a95ff" d="m215.263 102.404-10.29-55.636m10.47 72.624-10.47-72.624m-44.077-11.761 54.547 84.385m0 0v-17.188m0 17.188-99.64-72.355"/>
  <path fill="none" stroke="#9194a0" d="M186.711 47.305c-29.992 15.407-65.553 18.278-89.841-.402"/>
  <path fill="none" stroke="#9194a0" d="M96.87 46.903c19.494 5.78 28.945 4.437 44.959-11.493m44.882 11.895c-19.644 6.156-30.079 7.272-44.959-11.492"/>
  <path fill="none" stroke="#7a95ff" d="m215.263 102.404-99.46-55.367m99.64 55.167-54.547-67.197"/>
  <path fill="none" stroke="#9194a0" d="M84.916 102.204v17.188m56.913-83.982-56.913 83.982"/>
  <path fill="#fff" d="M87.29 87.505h27.803v13.036H87.29z" opacity=".75" paint-order="markers stroke fill"/>
  <text xml:space="preserve" x="101.013" y="92.638" fill="#464851" stroke-width=".109" font-family="Open Sans" font-size="4.362" font-weight="400" style="line-height:1.25;-inkscape-font-specification:&quot;Open Sans&quot;;text-align:center" text-anchor="middle"><tspan x="101.013" y="92.638" font-weight="700" style="-inkscape-font-specification:&quot;Open Sans Bold&quot;;text-align:center">&lt;DEFAULT&gt;</tspan><tspan x="101.013" y="98.089" font-weight="700" style="-inkscape-font-specification:&quot;Open Sans Bold&quot;;text-align:center">SEGMENT</tspan></text>
  <path fill="#fff" d="M135.842 104.406h27.803v13.036h-27.803z" opacity=".75" paint-order="markers stroke fill"/>
  <text xml:space="preserve" x="149.564" y="110.061" fill="#ad6a00" stroke-width=".109" font-family="Open Sans" font-size="4.362" font-weight="400" style="line-height:1.25;-inkscape-font-specification:&quot;Open Sans&quot;;text-align:center" text-anchor="middle"><tspan x="149.564" y="110.061" font-weight="700" style="-inkscape-font-specification:&quot;Open Sans Bold&quot;;text-align:center">ALPHA</tspan><tspan x="149.564" y="115.513" font-weight="700" style="-inkscape-font-specification:&quot;Open Sans Bold&quot;;text-align:center">SEGMENT</tspan></text>
  <path fill="#fff" d="M183.886 87.505h27.803v13.036h-27.803z" opacity=".75" paint-order="markers stroke fill"/>
  <text xml:space="preserve" x="197.608" y="93.16" fill="#0026bc" stroke-width=".109" font-family="Open Sans" font-size="4.362" font-weight="400" style="line-height:1.25;-inkscape-font-specification:&quot;Open Sans&quot;;text-align:center" text-anchor="middle"><tspan x="197.608" y="93.16" font-weight="700" style="-inkscape-font-specification:&quot;Open Sans Bold&quot;;text-align:center">BETA</tspan><tspan x="197.608" y="98.612" font-weight="700" style="-inkscape-font-specification:&quot;Open Sans Bold&quot;;text-align:center">SEGMENT</tspan></text>
  <path fill="none" stroke="#ca2171" stroke-dasharray="1 1" stroke-width=".5" d="M.47 57.554h279.719" opacity=".5"/>
  <text xml:space="preserve" x="12.758" y="53.198" fill="#eb88b7" stroke-width=".109" font-family="Open Sans" font-size="4.362" font-weight="400" style="line-height:1.25;-inkscape-font-specification:&quot;Open Sans&quot;"><tspan x="12.758" y="53.198" font-weight="700" style="-inkscape-font-specification:&quot;Open Sans Bold&quot;">SERVER AGENTS</tspan></text>
  <text xml:space="preserve" x="15.014" y="11.064" fill="#b6b8c2" stroke-width=".109" font-family="Open Sans" font-size="4.362" font-weight="400" style="line-height:1.25;-inkscape-font-specification:&quot;Open Sans&quot;"><tspan x="15.014" y="11.064" font-weight="700" style="-inkscape-font-specification:&quot;Open Sans Bold&quot;">DATACENTER 1</tspan></text>
  <text xml:space="preserve" x="12.867" y="65.039" fill="#eb88b7" stroke-width=".109" font-family="Open Sans" font-size="4.362" font-weight="400" style="line-height:1.25;-inkscape-font-specification:&quot;Open Sans&quot;"><tspan x="12.867" y="65.039" font-weight="700" style="-inkscape-font-specification:&quot;Open Sans Bold&quot;">CLIENT AGENTS</tspan></text>
  <path fill="none" d="M12.252 7.507 10.038 6.38a.82.82 0 0 0-.739 0L7.086 7.507a.83.83 0 0 0-.336.31.85.85 0 0 0-.124.443v2.674a.85.85 0 0 0 .456.76l2.214 1.126a.82.82 0 0 0 .742 0l2.214-1.125a.83.83 0 0 0 .335-.31.85.85 0 0 0 .124-.444V8.26a.85.85 0 0 0-.124-.443.83.83 0 0 0-.335-.31m-2.708-.609a.25.25 0 0 1 .243 0l2.023 1.026-.763.389-2.144-1.09zm.121 2.123L7.521 7.93l.762-.39 2.148 1.094zM7.33 11.21a.3.3 0 0 1-.112-.106.3.3 0 0 1-.04-.15V8.387L9.39 9.51v2.748zm4.672 0-2.06 1.043V9.509l2.213-1.122v2.572a.3.3 0 0 1-.046.137.3.3 0 0 1-.107.096z"/>
  <rect width="31.143" height="30.384" x="91.374" y="16.653" fill="#ca2171" fill-rule="evenodd" rx=".949" ry=".949"/>
  <g fill="#fff" stroke-width=".447" transform="translate(70.091 -.917)scale(.75411)">
    <use xlink:href="#a" fill-rule="evenodd" clip-rule="evenodd" opacity=".7"/>
    <use xlink:href="#b" fill-rule="evenodd" clip-rule="evenodd"/>
    <use xlink:href="#c"/>
  </g>
  <text xml:space="preserve" x="45.361" y="94.897" fill="#e3e4e7" stroke-width=".6" font-family="Open Sans" font-size="4.362" font-weight="400" paint-order="markers stroke fill" style="line-height:1.25;-inkscape-font-specification:&quot;Open Sans&quot;" transform="rotate(-38.713)"><tspan x="45.361" y="94.897" font-weight="700" style="-inkscape-font-specification:&quot;Open Sans Bold&quot;">8301</tspan></text>
  <text xml:space="preserve" x="53.129" y="100.98" fill="#ffefd6" font-family="Open Sans" font-size="4.362" font-weight="400" paint-order="markers stroke fill" style="line-height:1.25;-inkscape-font-specification:&quot;Open Sans&quot;" transform="rotate(-38.713)"><tspan x="53.129" y="100.98" font-weight="700" style="-inkscape-font-specification:&quot;Open Sans Bold&quot;">8303</tspan></text>
  <text xml:space="preserve" x="59.677" y="107.081" fill="#bccaff" font-family="Open Sans" font-size="4.362" font-weight="400" paint-order="markers stroke fill" style="line-height:1.25;-inkscape-font-specification:&quot;Open Sans&quot;" transform="rotate(-38.713)"><tspan x="59.677" y="107.081" font-weight="700" style="-inkscape-font-specification:&quot;Open Sans Bold&quot;">8304</tspan></text>
  <rect width="31.143" height="30.384" x="135.283" y="5.012" fill="#ca2171" fill-rule="evenodd" rx=".949" ry=".949"/>
  <path fill="none" d="m142.645 18.1.75 1.519 1.675.245-1.213 1.18.287 1.67-1.5-.789-1.498.789.286-1.669-1.213-1.181 1.676-.245Z" clip-rule="evenodd"/>
  <text xml:space="preserve" x="146.395" y="21.81" stroke-width=".098" font-family="Open Sans" font-size="3.913" font-weight="400" style="line-height:1.25;-inkscape-font-specification:&quot;Open Sans&quot;"><tspan x="146.395" y="21.81" fill="#fff" font-weight="700" style="-inkscape-font-specification:&quot;Open Sans Bold&quot;">LEADER</tspan></text>
  <text xml:space="preserve" x="86.593" y="113.2" fill="#e3e4e7" font-family="Open Sans" font-size="4.362" font-weight="400" paint-order="markers stroke fill" style="line-height:1.25;-inkscape-font-specification:&quot;Open Sans&quot;" transform="rotate(-38.713)"><tspan x="86.593" y="113.2" font-weight="700" style="-inkscape-font-specification:&quot;Open Sans Bold&quot;">8301</tspan></text>
  <text xml:space="preserve" x="94.361" y="119.283" fill="#ffefd6" font-family="Open Sans" font-size="4.362" font-weight="400" paint-order="markers stroke fill" style="line-height:1.25;-inkscape-font-specification:&quot;Open Sans&quot;" transform="rotate(-38.713)"><tspan x="94.361" y="119.283" font-weight="700" style="-inkscape-font-specification:&quot;Open Sans Bold&quot;">8303</tspan></text>
  <text xml:space="preserve" x="100.909" y="125.384" fill="#bccaff" font-family="Open Sans" font-size="4.362" font-weight="400" paint-order="markers stroke fill" style="line-height:1.25;-inkscape-font-specification:&quot;Open Sans&quot;" transform="rotate(-38.713)"><tspan x="100.909" y="125.384" font-weight="700" style="-inkscape-font-specification:&quot;Open Sans Bold&quot;">8304</tspan></text>
  <g fill="#fff" stroke-width=".447" transform="translate(114.648 -13.018)scale(.75411)">
    <use xlink:href="#a" fill-rule="evenodd" clip-rule="evenodd" opacity=".7"/>
    <use xlink:href="#b" fill-rule="evenodd" clip-rule="evenodd"/>
    <use xlink:href="#c"/>
  </g>
  <rect width="31.143" height="30.384" x="179.192" y="16.653" fill="#ca2171" fill-rule="evenodd" rx=".949" ry=".949"/>
  <g fill="#fff" stroke-width=".447" transform="translate(158.154 -1.336)scale(.75411)">
    <use xlink:href="#a" fill-rule="evenodd" clip-rule="evenodd" opacity=".7"/>
    <use xlink:href="#b" fill-rule="evenodd" clip-rule="evenodd"/>
    <use xlink:href="#c"/>
  </g>
  <text xml:space="preserve" x="113.628" y="149.61" fill="#e3e4e7" font-family="Open Sans" font-size="4.362" font-weight="400" paint-order="markers stroke fill" style="line-height:1.25;-inkscape-font-specification:&quot;Open Sans&quot;" transform="rotate(-38.713)"><tspan x="113.628" y="149.61" font-weight="700" style="-inkscape-font-specification:&quot;Open Sans Bold&quot;">8301</tspan></text>
  <text xml:space="preserve" x="121.395" y="155.694" fill="#ffefd6" font-family="Open Sans" font-size="4.362" font-weight="400" paint-order="markers stroke fill" style="line-height:1.25;-inkscape-font-specification:&quot;Open Sans&quot;" transform="rotate(-38.713)"><tspan x="121.395" y="155.694" font-weight="700" style="-inkscape-font-specification:&quot;Open Sans Bold&quot;">8303</tspan></text>
  <text xml:space="preserve" x="127.944" y="161.794" fill="#bccaff" font-family="Open Sans" font-size="4.362" font-weight="400" paint-order="markers stroke fill" style="line-height:1.25;-inkscape-font-specification:&quot;Open Sans&quot;" transform="rotate(-38.713)"><tspan x="127.944" y="161.794" font-weight="700" style="-inkscape-font-specification:&quot;Open Sans Bold&quot;">8304</tspan></text>
  <rect width="31.143" height="30.384" x="215.443" y="71.82" fill="none" stroke="#ca2171" rx=".949" ry=".949"/>
  <circle cx="222.826" cy="93.806" r="2.551" fill="#ca2171"/>
  <text xml:space="preserve" x="217.08" y="100.778" fill="#7a95ff" stroke-width=".109" font-family="Open Sans" font-size="4.362" font-weight="400" style="line-height:1.25;-inkscape-font-specification:&quot;Open Sans&quot;"><tspan x="217.08" y="100.778" font-weight="700" style="-inkscape-font-specification:&quot;Open Sans Bold&quot;">8301</tspan></text>
  <rect width="31.143" height="30.384" x="215.443" y="119.392" fill="none" stroke="#ca2171" rx=".949" ry=".949"/>
  <circle cx="222.826" cy="141.378" r="2.551" fill="#ca2171"/>
  <text xml:space="preserve" x="217.08" y="124.546" fill="#7a95ff" stroke-width=".109" font-family="Open Sans" font-size="4.362" font-weight="400" style="line-height:1.25;-inkscape-font-specification:&quot;Open Sans&quot;"><tspan x="217.08" y="124.546" font-weight="700" style="-inkscape-font-specification:&quot;Open Sans Bold&quot;">8301</tspan></text>
  <text xml:space="preserve" x="163.504" y="155.81" fill="#ffc05b" stroke-width=".109" font-family="Open Sans" font-size="4.362" font-weight="400" style="line-height:1.25;-inkscape-font-specification:&quot;Open Sans&quot;"><tspan x="163.504" y="155.81" font-weight="700" style="-inkscape-font-specification:&quot;Open Sans Bold&quot;">8301</tspan></text>
  <text xml:space="preserve" x="128.054" y="156.205" fill="#ffc05b" stroke-width=".109" font-family="Open Sans" font-size="4.362" font-weight="400" style="line-height:1.25;-inkscape-font-specification:&quot;Open Sans&quot;"><tspan x="128.054" y="156.205" font-weight="700" style="-inkscape-font-specification:&quot;Open Sans Bold&quot;">8301</tspan></text>
  <rect width="31.143" height="30.384" x="53.773" y="119.392" fill="none" stroke="#ca2171" rx=".949" ry=".949"/>
  <circle cx="61.156" cy="141.378" r="2.551" fill="#ca2171"/>
  <text xml:space="preserve" x="73.672" y="124.546" fill="#9194a0" stroke-width=".109" font-family="Open Sans" font-size="4.362" font-weight="400" style="line-height:1.25;-inkscape-font-specification:&quot;Open Sans&quot;"><tspan x="73.672" y="124.546" font-weight="700" style="-inkscape-font-specification:&quot;Open Sans Bold&quot;">8301</tspan></text>
  <rect width="31.143" height="30.384" x="53.773" y="71.82" fill="none" stroke="#ca2171" rx=".949" ry=".949"/>
  <circle cx="61.156" cy="93.806" r="2.551" fill="#ca2171"/>
  <text xml:space="preserve" x="73.144" y="100.301" fill="#9194a0" stroke-width=".109" font-family="Open Sans" font-size="4.362" font-weight="400" style="line-height:1.25;-inkscape-font-specification:&quot;Open Sans&quot;"><tspan x="73.144" y="100.301" font-weight="700" style="-inkscape-font-specification:&quot;Open Sans Bold&quot;">8301</tspan></text>
</svg>
