<svg xmlns="http://www.w3.org/2000/svg" viewBox="0 0 1205.5 552" xmlns:xlink="http://www.w3.org/1999/xlink">
  <defs>
    <style>
      .cls-1{fill:none;stroke:#000;stroke-linecap:round;stroke-linejoin:round;stroke-width:.5px}
    </style>
  </defs>
  <path d="m20.78 548 6.93-4m221.69-32.01-3.46-2m0 0L221.7 496m27.7 15.99L270.2 524m-39.84 23-20.79-12.01 39.83-23M263.27 472l27.7 15.99-41.57 24m-46.76 23-36.37-21 29.44-17M226.9 549l-24.26-14.01m64.1-64.99 27.7 15.99 36.37-21L351.6 477m-242.49-30.01-29.45 17 38.11 22-19.05 11m6.93 4 19.05-11 34.64 20 29.44-17M148.95 552l-12.12-7m65.81-10.01L173.18 552m29.46-17.01 43.3-25" class="cls-1"/>
  <path d="m245.94 509.99 38.11-22L259.81 474m95.26 1-48.5-28m-38.11 99.99 6.92-4M263.27 424l6.93 4m-41.57 24-6.93-4m0-48 6.93 4m-83.14 48-6.93-4m-76.21 52-6.92-4m171.46-69.01 6.92-4m-41.56-24-6.93 4m83.14 48 6.92-4m-83.14 0-6.92 4m-34.64-28-6.93 4m90.06 44-6.92 4m-83.14 48 48.49-28m-41.56-24-48.5 28m60.62-277 3.47 2m-3.47-2L138.56 208m27.71 15.99L187.06 236m-20.79-12.01-39.84 23L147.22 259m32.91-75 27.71 15.99-41.57 24M112.57 209l-29.44 16.99 36.37 21m0 0L143.76 261M0 173.99 25.97 159m-10.39 49.99 19.05-11L0 178m105.64 27L76.2 221.99l-34.64-20-19.05 11M53.69 257l48.5 28m17.31-38.01-38.1 22L105.65 283" class="cls-1"/>
  <path d="m162.8 221.99 38.11-22L176.67 186m-57.17 60.99 43.3-25m29.44 33-6.92 4m-34.64 20-6.93 4M187.06 140l-6.93-4m-34.64 28-6.93-4m6.93-44-6.92-4m-76.22 52-6.92-4m88.32-21.01 6.93-3.99m-41.57-24-6.93 3.99m90.07 44-6.93 4M109.11 159l-6.93 3.99M67.54 135l-6.93 3.99m90.07 44-6.93 4m-83.14 48 48.5-28M67.54 183l-48.5 27.99M360.26 544l-6.92 4m48.49-28-6.92 4m36.38-5.01 6.92 4m34.65 20 6.92 4m226.9-203 3.47-2m0 0L734.38 328m-27.7 15.99L685.89 356m39.84 23 20.79-12.01-39.84-23m0 0-41.57-24 27.7-15.99m60.64 62.99 36.37-21-29.44-17M729.19 381l24.26-14.01M604.48 309l20.79-12.01 36.38 21 27.7-15.99m157.63-23.01 29.44 17-38.1 22 19.05 11m-6.93 4-19.05-11-34.64 20-29.45-17M819.25 377l-48.49 28m-17.31-38.01-43.3-25M767.29 403l24.26-14.01-38.1-22" class="cls-1"/>
  <path d="m696.28 306-24.24 13.99 38.1 22M601.02 307l48.49-28m31.19 95.99 6.93 4m41.57 24-6.93-4M734.38 280l-6.92 4m90.06-4-6.92 4m90.06 44-6.93 4m-122.96-97.01-6.93-4m-76.21 52-6.93-4m90.07 4-6.93-4m48.49-20-6.92-4m-76.21 52-6.93-4m41.57 24 48.5 28m41.56-24-48.49-28M900.66 424l-27.7 15.99 81.4 47L933.57 499m3.47 2 24.25-14.01m0 0 36.37-21-29.44-17m96.99 0-19.05-11 38.11-22-29.45-17m-79.67 46 29.44 17 34.64-20 19.06 11M978.61 525l48.49-28m-51.96 26 24.26-14.01-38.11-22" class="cls-1"/>
  <path d="m961.29 486.99-81.4-47L904.12 426m26 92.99 6.92 4M900.66 376l-6.93 4m48.5 20-6.93 4m6.93-52-6.93 4m90.07 44-6.93 4m90.06 44-6.92 4m-171.46-77.01 6.92 4m41.57-24-6.92-4m-76.22 52-6.92-4m90.06 4-6.92-4m48.49-20-6.93-4m-76.21 52-6.92-4m41.57 24 48.49 28m-6.93-52 48.5 28M1184.72 476l-6.93-4m-36.38 2.99 6.92-4m41.57 72-13.85 8-1.74 1.01M358.72 207.11l-33.97 20.35-13.62 8.17M526.54 208l-24.24 13.99m-3.46 2L478.04 236m24.26-14.01-3.46 2M517.88 259l20.79-12.01-39.83-23M484.97 184l-27.7 15.99 41.57 24m46.76 23 36.37-21L552.53 209m-31.18 52 24.25-14.01M481.5 182l-27.7 15.99-36.37-21L396.64 189m252.88 19.99-19.05-11 38.11-22L639.13 159m3.47 53.99-19.06-11-34.64 20L559.46 205m-.01 78 24.26-14.01-38.11-22m0 0-43.3-25" class="cls-1"/>
  <path d="m488.43 186-24.24 13.99 38.11 22m-22.52 37-6.92-4m48.49 28-6.92-4M526.54 160l-6.93 4m0-48 6.93-4m83.14 48-6.93 4m90.06 44-6.92 4m-164.54-73.01-6.93-3.99m48.5-20.01-6.93-3.99m0 48 6.93 3.99M597.56 135l6.93 3.99m-90.06 44 6.92 4m124.71 24L597.56 183M502.3 461.99 526.54 448m-27.7 15.99 3.46-2M478.04 476l20.8-12.01M484.97 424l-27.7 15.99 41.57 24M517.88 499l20.79-12.01-39.83-23m46.76 23 36.38-21-29.45-17M521.35 501l24.25-14.01" class="cls-1"/>
  <path d="m488.43 426-24.24 13.99 38.11 22m43.3 25-43.3-25M559.45 523l24.26-14.01-38.11-22M348.14 327l90.06 51.99m41.58 120-6.92-4m41.57 24 6.92 4M609.68 400l-6.93 4m-122.97-1.01-6.92-4m124.7-24 6.93 4m-83.14 48-6.92-4M692.81 544l-13.85 8m10.39-10-17.32 10m-67.55-3 20.8-12.01L651.27 552m45.01-6-10.39 6m-36.38-33-48.49 28m91.79-51-6.92 4m48.49 20-6.92 4m6.92-52-6.92 4m90.06 44-6.92 4m-88.33-29.01 6.93 4m41.57-24-6.93-4m-83.14 48 6.93 4m76.21-4 6.93 4m41.57-24-6.93-4m-83.14 48 6.93 4m450.31-146 19.05-11-38.1-22L1189.9 351m-3.46 53.99 19.05-11 .01.01m-62.35 10-6.93-4m46.76 2.99 22.52-13M102.19 19l20.79-12.01L110.87 0m19.04 6.99L105.66 21m36.37-21-12.12 6.99M147.23 45l48.49-28m-51.96 26 24.26-14.01-38.11-22M117.8 0l12.11 6.99m-65.81 12-6.93-4m48.49 28-6.92-4M60.62 69 39.83 56.99l-36.37 21L0 76m15.59-37 48.5 28m310.02 36.99-3.46-2m3.46 2 20.8 12.01m-24.26-14.01L346.41 88m27.7 15.99-39.84 23 20.8 12.01m32.91-75 27.7 15.99-41.57 24M351.6 141l-24.25-14.01m-6.93-38-29.45 17 36.38 21M476.31 69l-20.79-12.01-36.37 21L391.44 62M233.81 38.99l-29.44 17 38.11 22-19.05 11m90.06-4-29.44 17-34.64-20-19.06 11" class="cls-1"/>
  <path d="m384.51 66 24.24 13.99-38.1 22m-43.3 25-38.11 22L313.5 163m57.15-61.01-43.3 25M431.28 39l48.5 28m-86.61 71.99 6.92-4m-41.57 24-6.92 4M394.91 20l-6.93-4m-34.64 28-6.93-4m-76.21 4-6.93-4m95.25-25-6.92 3.99m48.49 20-6.92 4m-83.14 0 6.92-3.99m-41.57-24-6.92 3.99m90.06 44-6.92 4M275.38 63l-48.49 27.99M609.68 16l-27.7 15.99 81.4 47L642.59 91m3.47 2 24.25-14.01m0 0 36.37-21-29.44-17M521.35 21l20.79-12.01 36.37 21L606.22 14m168.01 26.99-19.05-11 38.11-22L779.44 0m-95.27 36.99 29.44 17 34.64-20 19.06 11M687.63 117l48.49-28" class="cls-1"/>
  <path d="m613.14 18-24.23 13.99 81.4 47M684.16 115l24.26-14.01-38.11-22M517.88 19l32.91-19m95.27 114.99-6.92-4M817.52 40l-6.92 4M646.06 18.99l-6.92-4m41.57 24 48.49 28m41.57-24-48.5-28M817.52 136l-27.7 15.99-13.73 8.23-47.47 28.45m149.53 10.32 36.37-21L885.08 161m-6.93 37.99L853.9 213m128.18-52.01-19.06-11 38.11-22L971.68 111m-79.67 46 29.44 16.99 34.65-20 19.05 11M895.47 237l48.49-28m-65.81-10.01-81.4-47L820.98 138M892 235l24.26-14.01-38.11-22m-24.25 36-6.92-4M817.52 88l-6.92 4m48.49 20-6.93 4m6.93-52-6.93 4m83.14 48 6.93-4m83.14 48-6.93 4M853.9 90.99l-6.92-4M888.55 63l6.92 3.99m-83.14 48-6.92-4m90.06 4-6.92-3.99m48.49-20.01L930.11 87m-76.21 51.99-6.92-4m41.57 24 48.49 28m41.57-24L930.12 135m95.25 121-27.71 15.99 81.41 47-20.79 12.01m-121.25-70 20.8-12.01 36.37 21 27.7-15.99m81.41 103 48.5-28" class="cls-1"/>
  <path d="m1028.83 258-24.24 13.99 119.51 69-24.25 14.01M982.06 231l-48.49 28m86.61 71.99-6.93-4m48.5 28-6.93-4M1025.37 208l-6.93 4m41.57 24 6.92-4m-6.92-44 6.92-4m-5.18 26.99-6.93-4m48.5-20-6.93-3.99m-76.21 51.99-6.93-4m-722.26 113 3.47-2m0 0L318.69 328m-27.7 15.99L270.2 356m20.79-12.01-41.57-24 27.7-15.99m32.92 75 20.79-12.01-39.84-23m46.77 23L313.5 381m24.26-14.01 36.37-21-29.44-17M273.66 302l-27.7 15.99-36.38-21L188.79 309m148.97 57.99 38.1 22L351.61 403m-13.85-36.01-43.3-25" class="cls-1"/>
  <path d="m280.59 306-24.24 13.99 38.1 22M233.82 279l-48.49 28m86.61 71.99-6.93-4m48.5 28-6.93-4M277.12 256l-6.92 4m48.49 20-6.92 4m90.06-4-6.92 4m-81.4-25.01-6.93-4m-34.64 28-6.93-4m83.14 0 6.93 4m41.57-24-6.93-4m-83.14 48 6.93 4M5.2 414.99 0 418m12.13-41.01 29.45 17-36.38 21m103.93-38-19.06-11 38.11-22L98.73 327m3.47 53.99-19.06-11-34.64 20-29.44-17M71.01 425l-48.49 28M5.2 414.99l-5.2-3m5.2 3 38.11 22L19.05 451m50.23-123-6.93 4m90.07 44-6.93 4M22.52 330.99l-6.92-4m48.49 76-48.49-28m90.06 4-48.49-28M1177.79 184l6.93 4M1108.5 64l-48.49 28m74.49-27 29.44 17-60.63 35m38.11-56 29.45 17 34.63-20m-60.62 83 48.49-28M975.14 43l48.49-28m38.12 99.99-6.93-3.99m48.5 27.99-6.93-3.99m88.33-115 6.92-4m-46.75 2.99-6.93-3.99m0 48 48.5 27.99M1179.53 39l25.97 14.99M27.71 552 0 536m41.57 8-27.72-16v8l27.72 16m0-8 27.71-16v8l-27.71 16m0-8v8" class="cls-1"/>
  <path d="m41.57 544 27.71-16-27.71-16-27.72 16zm69.28 8-27.71-16-27.72 16m318.7-48 27.71-16v-8l-27.71 16m0 0-27.71-16v8l27.71 16m0-8v8" class="cls-1"/>
  <path d="m374.12 464-27.71 16 27.71 16 27.71-16zm-83.14 88 27.71-16v-8l-27.71 16m0 0-27.71-16v8l27.71 16m0 0v-8" class="cls-1"/>
  <path d="m290.98 544 27.71-16-27.71-16-27.71 16zm-64.08 5 22.51-13 27.72 16h-.01m-50.22-3-5.2 3m69.28-104 27.71-16v8l-27.71 16m0-8-27.71-16v8l27.71 16m0-8v8" class="cls-1"/>
  <path d="m270.2 428-6.93 4 27.71 16 27.71-16-27.71-16zm-20.79 44 27.72-16v8l-27.72 16m0-8-27.71-16v8l27.71 16m0-8v8" class="cls-1"/>
  <path d="m228.63 452-6.93 4 27.71 16 27.72-16-27.72-16zm-20.79 52 27.72-16v-8l-27.72 16m0 0-27.71-16v8l27.71 16m0 0v-8" class="cls-1"/>
  <path d="m207.84 496 27.72-16-27.72-16-27.71 16zm-83.14 48 27.72-16v8l-27.72 16" class="cls-1"/>
  <path d="m124.7 544-27.71-16v8l27.71 16m.01-8v8" class="cls-1"/>
  <path d="m124.71 512-27.72 16 27.71 16 27.72-16zm124.7-88 27.72-16v8l-27.72 16m0-8-27.71-16v8l27.71 16m0-8v8" class="cls-1"/>
  <path d="m228.63 404 20.78-12 27.72 16-27.72 16" class="cls-1"/>
  <path d="m228.63 404-6.93 4 27.71 16m-41.57 24 27.72-16v8l-27.72 16m0-8-27.71-16v8l27.71 16m0-8v8" class="cls-1"/>
  <path d="m207.84 448 27.72-16-27.72-16-27.71 16zm-41.56 32 27.71-16v-8l-27.71 16m0 8-27.72-16v-8l27.72 16m-.01 8v-8" class="cls-1"/>
  <path d="m166.28 472-27.72-16 6.93-4" class="cls-1"/>
  <path d="m166.28 472 27.71-16-27.71-16-20.79 12m-62.35 68 27.71-16v8l-27.71 16m0-8-27.72-16v8l27.72 16m0-8v8" class="cls-1"/>
  <path d="m83.14 520-27.72-16 6.93-4" class="cls-1"/>
  <path d="m83.14 520 27.71-16-27.71-16-20.79 12m145.49-100 27.72-16v8l-27.72 16m0-8-27.71-16v8l27.71 16m0-8v8" class="cls-1"/>
  <path d="m207.84 400 27.72-16-27.72-16-27.71 16zm-41.56 32 27.71-16v-8l-27.71 16m-27.72-16v8l27.72 16m-27.72-24 27.71 16m0 8v-8m-27.71-16 27.72 16" class="cls-1"/>
  <path d="m138.56 408 27.72-16 27.71 16-27.71 16m-41.57 32 27.71-16v-8l-27.71 16m0 0-27.72-16v8l27.72 16m0 0v-8m0 0 27.71-16-27.71-16-27.72 16zm-83.14 56 27.71-16v-8l-27.71 16m0 0-27.72-16v8l27.72 16m0 0v-8" class="cls-1"/>
  <path d="m41.57 496 27.71-16-27.71-16-27.72 16zm166.27-240 27.72-16v8l-27.72 16m0-8-27.71-16v8l27.71 16m0-8v8" class="cls-1"/>
  <path d="m207.84 256 27.72-16-27.72-16-27.71 16zm-83.13 56 27.71-16v-8l-27.71 16m0 0-27.72-16v8l27.72 16m0 0v-8m0 0 27.71-16-27.71-16-27.72 16zm41.57-16 27.71-16v-8l-27.71 16m0 0-27.72-16v8l27.72 16m-.01 0v-8" class="cls-1"/>
  <path d="m166.28 280 27.71-16-27.71-16-27.72 16zm41.56-112 27.72-16v-8l-27.72 16m0 8-27.71-16v-8l27.71 16m0 8v-8" class="cls-1"/>
  <path d="m187.06 140-6.93 4 27.71 16 27.72-16-27.72-16zm-20.78 44 27.71-16v8l-27.71 16m0-8-27.72-16v8l27.72 16m0-8v8" class="cls-1"/>
  <path d="m166.28 152-27.72 16 27.72 16 27.71-16zm-41.57 64 27.71-16v-8l-27.71 16m0 8-27.72-16v-8l27.72 16m0 8v-8" class="cls-1"/>
  <path d="m124.71 176-27.72 16 27.72 16 27.71-16zm-83.14 88 27.71-16v-8l-27.71 16m0 0-27.71-16v8l27.71 16m0-8v8" class="cls-1"/>
  <path d="m13.86 240 27.71 16 27.71-16-27.71-16zm152.42-104 27.71-16v8l-27.71 16m0-8-27.72-16v8l27.72 16m0-8v8" class="cls-1"/>
  <path d="m166.28 136 27.71-16-27.71-16-27.72 16zm-41.57 32 27.71-16v-8l-27.71 16m0 0-27.72-16v8l27.72 16m0-8v8m0-8 27.71-16-27.71-16-27.72 16zm-41.57 32 27.71-16v-8l-27.71 16m0 0-27.72-16v8l27.72 16m0-8v8" class="cls-1"/>
  <path d="m83.14 184 27.71-16-27.71-16-27.72 16zM0 240l27.71-16v-8L0 232m0 0 27.71-16L0 200m124.71-80 27.71-16v-8l-27.71 16" class="cls-1"/>
  <path d="M124.71 112 96.99 96v8l27.72 16m0-8v8m0-8 27.71-16-27.71-16-27.72 16zm-41.57 32 27.71-16v-8l-27.71 16" class="cls-1"/>
  <path d="m83.14 136-27.72-16v8l27.72 16m0-8v8" class="cls-1"/>
  <path d="m83.14 136 27.71-16-27.71-16-27.72 16zm-41.57 32 27.71-16v-8l-27.71 16m0 0-27.71-16v8l27.71 16m0-8v8" class="cls-1"/>
  <path d="m41.57 160 27.71-16-27.71-16-27.71 16zm263.27 392 27.71-16 27.71 16m13.86-8-27.71-16v8l27.71 16m0 0 27.71-16v-8l-27.71 16m0 0v8" class="cls-1"/>
  <path d="m374.12 544 27.71-16-27.71-16-27.71 16zm41.57-24-27.71-16v8l27.71 16m0-8 27.71-16v8l-27.71 16m0-8v8" class="cls-1"/>
  <path d="m387.98 504 27.71 16 27.71-16-27.71-16zm69.28 40-27.71-16v8l27.71 16m19.48-19.25L457.26 544m27.71-16-8.23 4.75m8.23-4.75v8l-27.71 16m0-8v8m27.71-24-27.71-16-27.71 16 27.71 16 19.48-11.25m0 0 8.23-4.75m41.57 24-27.71-16-27.71 16m110.85-224-27.72-16v8l27.72 16m0-8 27.71-16v8l-27.71 16m-.01-8v8" class="cls-1"/>
  <path d="m581.97 328 27.71-16-27.72-16-27.71 16zm83.13 48-27.71-16v8l27.71 16m0-8 27.72-16v8l-27.72 16m0-8v8" class="cls-1"/>
  <path d="m665.1 376 27.72-16-27.72-16-27.71 16zm83.14 48-27.71-16v8l27.71 16m0 0 27.71-16v-8l-27.71 16m0 8v-8" class="cls-1"/>
  <path d="m748.24 424 27.71-16-27.71-16-27.71 16zm-41.57-24-27.71-16v8l27.71 16m0 0 27.71-16v-8l-27.71 16m0 0v8" class="cls-1"/>
  <path d="m706.67 400 27.71-16-27.71-16-27.71 16zM665.1 280l-27.71-16v8l27.71 16m0-8 27.72-16v8l-27.72 16m0-8v8" class="cls-1"/>
  <path d="m665.1 280 27.72-16-27.72-16-27.71 16zm41.57 24-27.71-16v8l27.71 16m0 0 27.71-16v-8l-27.71 16m0 8v-8" class="cls-1"/>
  <path d="M687.63 282.99 706.67 272l27.71 16-27.71 16" class="cls-1"/>
  <path d="m687.63 282.99-8.67 5.01 27.71 16m41.57 24-27.71-16v8l27.71 16m0 0 27.71-16v-8l-27.71 16m0 8v-8" class="cls-1"/>
  <path d="m748.24 328 27.71-16-27.71-16-19.04 10.99" class="cls-1"/>
  <path d="m729.2 306.99-8.67 5.01 27.71 16m83.14 48-27.71-16v8l27.71 16m0-8 27.71-16v8l-27.71 16m0-8v8" class="cls-1"/>
  <path d="m831.38 376 27.71-16-27.71-16-19.04 10.99M831.38 376l-27.71-16 8.67-5.01M748.24 280l-27.71-16v8l27.71 16m0 0 27.71-16v-8l-27.71 16m0 0v8" class="cls-1"/>
  <path d="m775.95 264-27.71-16-27.71 16 27.71 16zm13.86 40-27.71-16v8l27.71 16m0-8 27.71-16v8l-27.71 16m0-8v8" class="cls-1"/>
  <path d="M770.77 282.99 762.1 288l27.71 16 27.71-16-27.71-16zM872.95 352l-27.71-16v8l27.71 16m0-8 27.71-16v8l-27.71 16m0-8v8" class="cls-1"/>
  <path d="m845.24 336 27.71 16 27.71-16-27.71-16zm-97-104-27.71-16v8l27.71 16m0 0 27.71-16v-8l-27.71 16m0 8v-8" class="cls-1"/>
  <path d="m748.24 232 27.71-16-27.71-16-27.71 16zm41.57 24-27.71-16v8l27.71 16m0 0 27.71-16v-8l-27.71 16m0 0v8" class="cls-1"/>
  <path d="m789.81 256 27.71-16-27.71-16-27.71 16zm41.57 24-27.71-16v8l27.71 16m0-8 27.71-16v8l-27.71 16m0-8v8" class="cls-1"/>
  <path d="m831.38 280 27.71-16-27.71-16-27.71 16zm83.14 48-27.72-16v8l27.72 16m0-8 27.71-16v8l-27.71 16m0-8v8" class="cls-1"/>
  <path d="m914.52 328 27.71-16-27.71-16-27.72 16zm41.57 216-27.71-16v8l27.71 16m0-8 27.71-16v8l-27.71 16m0-8v8" class="cls-1"/>
  <path d="m956.09 544 27.71-16-27.71-16-27.71 16zm-41.57-24-27.71-16v8l27.71 16m0-8 27.71-16v8l-27.71 16m0-8v8" class="cls-1"/>
  <path d="m914.52 520 27.71-16-27.71-16-27.71 16zm-41.57-120-27.71-16v8l27.71 16m0-8 27.71-16v8l-27.71 16m0-8v8" class="cls-1"/>
  <path d="m872.95 400 27.71-16-27.71-16-27.71 16zm41.57 24-27.72-16v8l27.72 16m0 0 27.71-16v-8l-27.71 16m0 0v8" class="cls-1"/>
  <path d="m914.52 424 27.71-16-27.71-16-19.05 10.99M914.52 424l-27.72-16 8.67-5.01M956.09 448l-27.71-16v8l27.71 16m0 0 27.71-16v-8l-27.71 16m0 8v-8" class="cls-1"/>
  <path d="m937.04 426.99-8.66 5.01 27.71 16m0 0 27.71-16-27.71-16-19.05 10.99M1039.23 496l-27.72-16v8l27.72 16m0-8 27.71-16v8l-27.71 16m0-8v8" class="cls-1"/>
  <path d="m1020.18 474.99-8.67 5.01 27.72 16m0 0 27.71-16-27.71-16-19.05 10.99M914.52 376l-27.72-16v8l27.72 16m0-8 27.71-16v8l-27.71 16m0-8v8" class="cls-1"/>
  <path d="m886.8 360 27.72 16 27.71-16-27.71-16zm69.29 40-27.72-16v8l27.72 16m0-8 27.71-16v8l-27.71 16m0-8v8" class="cls-1"/>
  <path d="m956.09 368-27.72 16 27.72 16 27.71-16zm41.57 56-27.72-16v8l27.72 16" class="cls-1"/>
  <path d="m997.66 424 27.71-16v8l-27.71 16m0-8v8" class="cls-1"/>
  <path d="m997.66 424 27.71-16-27.71-16-27.72 16zm83.13 48-27.71-16v8l27.71 16m0-8 27.72-16v8l-27.72 16m0-8v8" class="cls-1"/>
  <path d="m1061.75 450.99-8.67 5.01 27.71 16 27.72-16-27.72-16zM956.09 352l-27.72-16v8l27.72 16m0-8 27.71-16v8l-27.71 16m0-8v8" class="cls-1"/>
  <path d="m956.09 352 27.71-16-27.71-16-27.72 16zm41.57 24-27.72-16v8l27.72 16" class="cls-1"/>
  <path d="m997.66 384 27.71-16v-8l-27.71 16m0 8v-8" class="cls-1"/>
  <path d="m997.66 376 27.71-16-27.71-16-27.72 16zm41.56 24-27.71-16v8l27.71 16m0 0 27.72-16v-8l-27.72 16m.01 8v-8" class="cls-1"/>
  <path d="m1020.18 378.99-8.67 5.01 27.71 16m0 0 27.72-16-27.72-16-19.04 10.99M1122.36 448l-27.71-16v8l27.71 16m0 0 27.72-16v-8l-27.72 16m0 8v-8" class="cls-1"/>
  <path d="m1122.36 448 27.72-16-27.72-16-27.71 16zm83.14 96-27.71-16v8l27.71 16" class="cls-1"/>
  <path d="m1205.5 512-27.71 16 27.71 16m0-48-27.71-16v8l27.71 16" class="cls-1"/>
  <path d="m1205.5 464-27.71 16 27.71 16m-41.57-16 27.71-16v-8l-27.71 16m0 0-27.71-16v8l27.71 16m0 0v-8" class="cls-1"/>
  <path d="m1163.93 472 27.71-16-27.71-16-27.71 16zm-41.57 24 27.72-16v8l-27.72 16m0-8-27.71-16v8l27.71 16m0-8v8" class="cls-1"/>
  <path d="m1122.36 496 27.72-16-27.72-16-27.71 16zm-96.99 56-27.72-16-27.71 16M374.12 208l-27.71-16v8l27.71 16m0 0 27.71-16v-8l-27.71 16m0 8v-8" class="cls-1"/>
  <path d="m374.12 208 27.71-16-27.71-16-27.71 16zm83.14 48-27.71-16v8l27.71 16m0 0 27.71-16v-8l-27.71 16m0 8v-8" class="cls-1"/>
  <path d="m457.26 256 27.71-16-27.71-16-27.71 16zm83.14 48-27.72-16v8l27.72 16m0 0 27.71-16v-8l-27.71 16m0 0v8" class="cls-1"/>
  <path d="m540.4 304 27.71-16-27.71-16-27.72 16zm-41.57-24-27.72-16v8l27.72 16" class="cls-1"/>
  <path d="m498.83 288 27.71-16v-8l-27.71 16m0 0v8" class="cls-1"/>
  <path d="m498.83 280 27.71-16-27.71-16-27.72 16zm0-96-27.72-16v8l27.72 16" class="cls-1"/>
  <path d="m498.83 192 27.71-16v-8m-27.71 16 27.71-16m-27.71 24v-8m0 0 27.71-16m0 0-27.71-16-27.72 16 27.72 16m41.57 32-27.72-16v-8l27.72 16m0 8 27.71-16v-8l-27.71 16m0 8v-8" class="cls-1"/>
  <path d="M521.35 186.99 540.4 176l27.71 16-27.71 16" class="cls-1"/>
  <path d="m521.35 186.99-8.67 5.01 27.72 16m-41.57-72-27.72-16m0 0v8l27.72 16" class="cls-1"/>
  <path d="m498.83 144 27.71-16v-8l-27.71 16m0 8v-8m0 0-27.72-16" class="cls-1"/>
  <path d="m498.83 136 27.71-16-27.71-16-27.72 16m41.57 24 27.72 16m-27.72-16v8l27.72 16m0 0 27.71-16v-8l-27.71 16m0 8v-8m-27.72-16 27.72 16" class="cls-1"/>
  <path d="m512.68 144 27.72-16 27.71 16-27.71 16m13.85 8 27.72 16m-27.72-16v8l27.72 16m27.71-24-27.72 16m.01 8 27.71-16v-8m-27.72 24v-8" class="cls-1"/>
  <path d="m609.68 168-27.71-16-27.72 16m27.72 16 27.71-16m-55.43 0 27.71 16m83.14 56-27.71-16v-8m27.71 16-27.71-16m27.71 24 27.72-16v-8l-27.72 16m0 0v8m-19.04-29.01-8.67 5.01" class="cls-1"/>
  <path d="m665.1 232 27.72-16-27.72-16-19.04 10.99M665.1 232l-27.71-16M540.4 112l-27.72-16v8l27.72 16m0 0 27.71-16v-8l-27.71 16m0 8v-8" class="cls-1"/>
  <path d="m540.4 112 27.71-16-27.72-16-27.71 16zm41.56 32-27.71-16v-8l27.71 16m0 8 27.72-16v-8l-27.72 16m0 8v-8" class="cls-1"/>
  <path d="m581.96 136 27.72-16-27.72-16-27.71 16zm41.57 32-27.71-16v-8l27.71 16m0 8 27.72-16v-8l-27.72 16m0 8v-8" class="cls-1"/>
  <path d="M604.49 138.99 623.53 128l27.72 16-27.72 16" class="cls-1"/>
  <path d="m604.49 138.99-8.67 5.01 27.71 16m83.14 56-27.71-16v-8l27.71 16m0 8 27.71-16v-8m0 0-27.71 16m0 8v-8m0 0 27.71-16" class="cls-1"/>
  <path d="m734.38 192-27.71-16-27.71 16 27.71 16M457.26 496l-27.71-16v8l27.71 16m0-8 27.71-16v8l-27.71 16m0-8v8" class="cls-1"/>
  <path d="m457.26 496 27.71-16-27.71-16-27.71 16zm83.14 48-27.72-16v8l27.72 16m0-8 27.71-16v8l-27.71 16m0-8v8" class="cls-1"/>
  <path d="m540.4 544 27.71-16-27.71-16-27.72 16zm-41.57-24-27.71-16v8l27.71 16m0-8 27.71-16v8l-27.71 16m0-8v8" class="cls-1"/>
  <path d="m498.83 520 27.71-16-27.71-16-19.05 10.99" class="cls-1"/>
  <path d="m498.83 520-27.71-16 8.66-5.01M457.26 400l-27.71-16v8l27.71 16m0 0 27.71-16v-8m0 0-27.71 16m0 0v8" class="cls-1"/>
  <path d="m484.97 384-27.71-16-27.71 16 27.71 16m0 0 27.71-16m13.86 40-27.72-16v8l27.72 16" class="cls-1"/>
  <path d="m498.83 432 27.71-16v-8l-27.71 16m0 8v-8" class="cls-1"/>
  <path d="m498.83 424 27.71-16-27.71-16-27.72 16zm41.57 24-27.72-16v8l27.72 16m0-8 27.71-16v8l-27.71 16m0-8v8" class="cls-1"/>
  <path d="m540.4 448 27.71-16-27.71-16-27.72 16zm41.57-24-27.72-16v8l27.72 16m27.71-24-8.24 4.75M581.97 424l19.47-11.25" class="cls-1"/>
  <path d="M609.68 408v8l-27.71 16m0 0v-8m27.71-16-27.71-16-27.72 16 27.72 16 19.48-11.25m8.23-4.75-8.23 4.75M581.97 376l-27.72-16v8l27.72 16m0-8 27.71-16v8l-27.71 16m-.01-8v8" class="cls-1"/>
  <path d="m581.97 376 27.71-16-27.71-16-27.72 16zm41.56 24-27.71-16v8l27.71 16m0-8 27.72-16v8l-27.72 16m0-8v8" class="cls-1"/>
  <path d="m604.49 378.99-8.67 5.01 27.71 16" class="cls-1"/>
  <path d="m623.53 400 27.72-16-27.72-16-19.04 10.99M609.68 552l-27.71-16-27.72 16m110.85-32-27.71-16v8l27.71 16m0-8 27.72-16v8l-27.72 16m0-8v8" class="cls-1"/>
  <path d="m665.1 520 27.72-16-27.72-16-27.71 16zm41.57 24-27.71-16v8l27.71 16m0-8 27.72-16v8l-27.72 16m0-8v8" class="cls-1"/>
  <path d="m706.67 544 27.72-16-27.72-16-27.71 16zm69.28 8h.01l-27.72-16-27.71 16m-13.86-56-27.71-16v8l27.71 16m0-8 27.72-16v8l-27.72 16m0-8v8" class="cls-1"/>
  <path d="m678.96 480 27.71 16 27.72-16-27.72-16zm69.28 40-27.71-16v8l27.71 16m0-8 27.72-16v8l-27.72 16m0-8v8" class="cls-1"/>
  <path d="m729.2 498.99-8.67 5.01 27.71 16 27.72-16-27.72-16zM789.81 544l-27.71-16v8l27.71 16m0-8 27.71-16v8l-27.71 16m0-8v8" class="cls-1"/>
  <path d="M770.77 522.99 762.1 528l27.71 16 27.71-16-27.71-16zM748.24 472l-27.71-16v8l27.71 16m0 0 27.72-16v-8l-27.72 16m0 8v-8" class="cls-1"/>
  <path d="m748.24 472 27.72-16-27.72-16-27.71 16zm41.57 24-27.71-16v8l27.71 16m0-8 27.71-16v8l-27.71 16m0-8v8" class="cls-1"/>
  <path d="m789.81 496 27.71-16-27.71-16-19.04 10.99" class="cls-1"/>
  <path d="M770.77 474.99 762.1 480l27.71 16m41.57 24-27.71-16v8l27.71 16m0-8 27.71-16v8l-27.71 16m0-8v8" class="cls-1"/>
  <path d="m812.34 498.99-8.67 5.01 27.71 16" class="cls-1"/>
  <path d="m831.38 520 27.71-16-27.71-16-19.04 10.99M942.23 552l-27.71-16-27.71 16m318.69-96-27.71-16v-8l27.71 16" class="cls-1"/>
  <path d="m1205.5 448-27.71-16 27.71-16m-41.57 16 27.71-16v-8m0 0-27.71 16m0 8-27.71-16v-8l27.71 16m0 8v-8" class="cls-1"/>
  <path d="m1191.64 408-27.71-16-27.71 16 27.71 16m0 0 27.71-16m13.86-56-27.71-16v8l27.71 16" class="cls-1"/>
  <path d="m1205.5 320-27.71 16 27.71 16m-83.14 56 27.72-16v-8l-27.72 16m0 0-27.71-16v8l27.71 16m0 0v-8" class="cls-1"/>
  <path d="m1122.36 400 27.72-16-27.72-16-27.71 16zM41.57 16 13.86 0m27.71 24L13.86 8V0m27.71 16L69.28 0M41.57 24 69.28 8V0M41.57 24v-8m0 0L13.86 0m27.71 16L69.28 0m55.43 64L97 48v8l27.71 16" class="cls-1"/>
  <path d="m124.71 72 27.71-16v-8l-27.71 16m0 0v8" class="cls-1"/>
  <path d="m124.71 64 27.71-16-27.71-16L97 48zM83.14 40 55.43 24v8l27.71 16m0 0 27.71-16v-8L83.14 40m0 8v-8" class="cls-1"/>
  <path d="m83.14 40 27.71-16L83.14 8 64.1 18.99" class="cls-1"/>
  <path d="M64.1 18.99 55.43 24l27.71 16m124.71-24L180.13 0v8l27.72 16m0 0 27.71-16V0l-27.71 16m0 0v8m0-8 27.71-16m-55.43 0 27.72 16m-97 56L83.14 88m0 8 27.71-16v-8M83.14 88 55.42 72v8l27.72 16m0-8v8" class="cls-1"/>
  <path d="M83.14 88 55.42 72l8.66-5m19.06 21 27.71-16m0 0L83.14 56 64.08 67M0 144l27.71-16v-8m0 0L0 136m0 0 27.71-16m0 0L0 104m27.71-80v8L0 48m27.71-24L0 40m27.71-16L0 40m27.71-16L0 8m526.54 64v8l-27.71 16m27.71-24-27.71 16m0 0-27.71-16v8l27.71 16m0-8v8m0-8 27.71-16" class="cls-1"/>
  <path d="m526.54 72-27.71-16-27.71 16 27.71 16m-55.43 32-27.71 16m27.71-16v8l-27.71 16m0-8-27.71-16v8l27.71 16m0-8v8" class="cls-1"/>
  <path d="m443.4 120-27.71-16-27.71 16 27.71 16m27.71-16-27.71 16m-83.14 56 27.71-16v-8m0 0-27.71 16m-27.71-16 27.71 16m0 8-27.71-16v-8m27.71 24v-8m27.71-16-27.71-16-27.71 16m55.42 0-27.71 16m-27.71-16 27.71 16m69.28-40-27.71 16m27.71-16v8l-27.71 16m0-8-27.71-16v8l27.71 16m0-8v8" class="cls-1"/>
  <path d="m401.83 144-27.71-16-27.71 16 27.71 16m0 0 27.71-16m13.86-96 27.71-16v-8m0 0-27.71 16m0 0-27.71-16v8l27.71 16m0-8v8m0-8 27.71-16" class="cls-1"/>
  <path d="M443.4 24 415.69 8l-27.71 16 27.71 16m-13.86 8-27.71 16m0 8 27.71-16v-8m-27.71 16-27.71-16v8l27.71 16m0-8v8" class="cls-1"/>
  <path d="m401.83 48-27.71-16-27.71 16 27.71 16m0 0 27.71-16m-41.57 24v8l-27.71 16m27.71-24-27.71 16m0 0-27.71-16v8l27.71 16m0-8v8" class="cls-1"/>
  <path d="m360.26 72-27.71-16-27.71 16 27.71 16m0 0 27.72-16m13.85-48 27.71-16V0l-27.71 16m0 0L346.41 0v8l27.71 16m0-8v8m0-8 27.71-16m-27.71 16L346.41 0m-13.86 48 27.71-16v-8l-27.71 16m0 0-27.71-16v8l27.71 16m0-8v8" class="cls-1"/>
  <path d="m332.55 40 27.72-16-27.72-16-27.71 16zm-41.57 32 27.72-16v-8l-27.72 16m0 0-27.71-16v8l27.71 16m0-8v8" class="cls-1"/>
  <path d="m290.98 64 27.72-16-27.72-16-27.71 16zm-83.14 56 27.72-16v-8l-27.72 16m0 0-27.71-16v8l27.71 16m0-8v8" class="cls-1"/>
  <path d="m207.84 112 27.72-16-27.72-16-27.71 16zm83.14-88L318.7 8V0l-27.72 16m0 0L263.27 0v8l27.71 16m0-8v8" class="cls-1"/>
  <path d="m263.27 0 27.71 16L318.7 0m-69.29 48 27.72-16v-8l-27.72 16m0 8L221.7 32v-8l27.71 16m0 8v-8" class="cls-1"/>
  <path d="M249.41 8 221.7 24l27.71 16 27.72-16zm249.42 32-27.71-16v8l27.71 16m0 0 27.71-16v-8l-27.71 16m0 0v8" class="cls-1"/>
  <path d="m498.83 40 27.71-16-27.71-16-27.71 16zm166.28 96-27.72-16v8l27.72 16m0 0 27.71-16v-8l-27.71 16m0 0v8" class="cls-1"/>
  <path d="m665.11 136 27.71-16-27.71-16-19.05 10.99m0 0-8.67 5.01 27.72 16m-41.57-24-27.71-16v8l27.71 16m0 0 27.71-16v-8l-27.71 16m0 0v8" class="cls-1"/>
  <path d="m623.54 112 27.71-16-27.71-16-27.71 16zm0-96L595.83 0m27.71 24L595.83 8V0m55.42 0-27.71 16m27.71-16v8l-27.71 16m0 0v-8m27.71-16-27.71 16M595.83 0l27.71 16m13.85 8v8l27.72 16m0 0 27.71-16v-8l-27.71 16m0 8v-8m-19.05-21.01L637.39 24m27.72 16 27.71-16-27.71-16-19.05 10.99M665.11 40l-27.72-16m110.86 64-27.72-16m0 0v8l27.72 16m0 0 27.71-16v-8l-27.71 16m0 8v-8m0 0-27.72-16" class="cls-1"/>
  <path d="m748.25 88 27.71-16-27.71-16-27.72 16M678.96 0v8l27.72 16M678.96 0l27.72 16" class="cls-1"/>
  <path d="m706.68 24 27.71-16V0m-27.71 16 27.71-16m-27.71 24v-8m0 0L678.96 0m27.72 16 27.71-16m55.42 64L762.1 48v8l27.71 16" class="cls-1"/>
  <path d="m789.81 72 27.72-16v-8l-27.72 16m0 0v8m0-8L762.1 48l5.21-3.01" class="cls-1"/>
  <path d="m789.81 64 27.72-16-27.72-16-19.04 10.99m-3.46 2 3.46-2M803.67 24l27.71 16m-27.71-16v8l27.71 16m0 0 27.72-16v-8l-27.72 16m0 0v8m-27.71-24 27.71 16" class="cls-1"/>
  <path d="m831.38 40 27.72-16-27.72-16-27.71 16m69.28 232-27.71-16v8l27.71 16m0-8 27.71-16v8l-27.71 16m0-8v8" class="cls-1"/>
  <path d="m853.9 234.99-8.66 5.01 27.71 16m0 0 27.71-16-27.71-16-19.05 10.99M831.38 232l-27.71-16v8l27.71 16m0 0 27.71-16v-8l-27.71 16m0 8v-8" class="cls-1"/>
  <path d="m831.38 232 27.71-16-27.71-16-27.71 16zm-41.57-120L762.1 96v8l27.71 16" class="cls-1"/>
  <path d="m789.81 120 27.71-16v-8l-27.71 16m0 0v8" class="cls-1"/>
  <path d="m789.81 112 27.71-16-27.71-16-27.71 16zm41.57 24-27.71-16v8l27.71 16m0 0 27.71-16v-8l-27.71 16m0 0v8" class="cls-1"/>
  <path d="m831.38 136 27.71-16-27.71-16-27.71 16zm41.57 24-27.71-16v8l27.71 16m0 0 27.71-16v-8l-27.71 16m0 0v8" class="cls-1"/>
  <path d="m872.95 160 27.71-16-27.71-16-27.72 16zm83.14 48-27.72-16v8l27.72 16m0 0 27.71-16v-8l-27.71 16m0 8v-8" class="cls-1"/>
  <path d="m956.09 208 27.71-16-27.71-16-27.72 16zM803.66 72l27.72 16m-27.72-16v8l27.72 16m0 0 27.71-16v-8m0 0-27.71 16m0 8v-8m27.71-16-27.71-16-27.72 16m.01 0 27.71 16m0 0 27.71-16m-13.86 24v8l27.72 16m0-8-27.72-16m27.72 24 27.71-16v-8l-27.71 16m0 0v8" class="cls-1"/>
  <path d="m872.95 112 27.71-16-27.71-16-19.05 10.99m0 0L845.23 96m27.72 16-27.72-16m41.57 24v8l27.72 16m0-8-27.72-16m27.72 24 27.71-16v-8l-27.71 16m0 8v-8m0 0-27.72-16m8.67-5.01L886.8 120m27.72 16 27.71-16-27.71-16-19.05 10.99M997.65 184l-27.71-16m27.71 24-27.71-16v-8m27.71 24 27.72-16v-8l-27.72 16m0 0v8m-22.5-27.01-5.21 3.01m27.71 16-27.71-16" class="cls-1"/>
  <path d="m997.65 184 27.72-16-27.72-16-19.04 10.99m-3.46 2 3.46-2M872.95 64l-27.72-16v8l27.72 16m0 0 27.71-16v-8l-27.71 16m0 8v-8" class="cls-1"/>
  <path d="m872.95 64 27.71-16-27.71-16-27.72 16zm41.57 32L886.8 80v-8l27.72 16m0 8 27.71-16v-8m0 0-27.71 16m0 8v-8" class="cls-1"/>
  <path d="M895.47 66.99 886.8 72l27.72 16m-19.05-21.01L914.52 56l27.71 16m-27.71 16 27.71-16m13.86 40-27.72-16v8l27.72 16m0 0 27.71-16v-8l-27.71 16m0 8v-8" class="cls-1"/>
  <path d="M937.04 90.99 928.37 96l27.72 16" class="cls-1"/>
  <path d="M937.04 90.99 956.09 80l27.71 16-27.71 16m83.13 48-27.71-16v8l27.71 16m0 0 27.72-16v-8l-27.72 16m0 8v-8" class="cls-1"/>
  <path d="m1039.22 160 27.72-16-27.72-16-27.71 16zm-124.7 120-27.72-16v8l27.72 16m27.71-24-27.71 16m0 8 27.71-16v-8m-27.71 16v8m0-8 27.71-16" class="cls-1"/>
  <path d="m942.23 264-27.71-16-27.72 16 27.72 16m83.14 48-27.72-16v8l27.72 16" class="cls-1"/>
  <path d="m997.66 328 27.71-16v8l-27.71 16m0-8v8" class="cls-1"/>
  <path d="m997.66 328 27.71-16-27.72-16-27.71 16zm83.13 48-27.71-16v8l27.71 16m0 0 27.72-16v-8l-27.72 16m0 8v-8" class="cls-1"/>
  <path d="m1061.75 354.99 19.04-10.99 27.72 16-27.72 16" class="cls-1"/>
  <path d="m1061.75 354.99-8.67 5.01 27.71 16m-41.57-24-27.71-16v8l27.71 16m0-8 27.72-16v8l-27.72 16m0-8v8" class="cls-1"/>
  <path d="m1020.18 330.99-8.67 5.01 27.71 16m0 0 27.72-16-27.72-16-19.04 10.99M997.65 232l-27.71-16v8l27.71 16" class="cls-1"/>
  <path d="m997.65 232 27.72-16v8l-27.72 16m.01-8v8" class="cls-1"/>
  <path d="m997.65 232 27.72-16-27.72-16-27.71 16zm41.57 24-27.71-16v8l27.71 16m0-8 27.72-16v8l-27.72 16m0-8v8" class="cls-1"/>
  <path d="m1039.22 256 27.72-16-27.72-16-27.71 16zm124.71 72-27.71-16v8l27.71 16m0-8 27.71-16m0 0v8l-27.71 16m0-8v8" class="cls-1"/>
  <path d="m1163.93 328-27.71-16 27.71-16 27.71 16m-27.71 16 27.71-16m-180.13-120v8l27.71 16m-27.71-24 27.71 16m0 0 27.72-16v8l-27.72 16m0-8v8m-27.71-24 27.71 16" class="cls-1"/>
  <path d="m1039.22 208 27.72-16-27.72-16-27.71 16m41.57 24v8l27.71 16m0 0 27.72-16v-8l-27.72 16m0 8v-8" class="cls-1"/>
  <path d="m1053.08 216 27.71-16 27.72 16-27.72 16m-27.71-16 27.71 16m124.71 72-27.71-16m0 0v8l27.71 16m-27.71-24 27.71 16m0-32-27.71 16m-97-104-27.71-16v8l27.71 16m0 0 27.72-16v-8l-27.72 16m0 0v8" class="cls-1"/>
  <path d="m1080.79 184 27.72-16-27.72-16-27.71 16zm41.57 24-27.71-16v8l27.71 16m0 0 27.72-16v-8l-27.72 16m0 8v-8" class="cls-1"/>
  <path d="m1122.36 208 27.72-16-27.72-16-19.04 10.99" class="cls-1"/>
  <path d="m1103.32 186.99-8.67 5.01 27.71 16M166.27 336l-27.71-16v-8l27.71 16m0 8 27.72-16v-8l-27.72 16m0 8v-8" class="cls-1"/>
  <path d="m166.27 296-27.71 16 27.71 16 27.72-16zm83.14 80-27.71-16v8l27.71 16m0 0 27.72-16v-8l-27.72 16m0 8v-8" class="cls-1"/>
  <path d="m249.41 376 27.72-16-27.72-16-27.71 16zm83.14 48-27.71-16v8l27.71 16m0 0 27.71-16v-8l-27.71 16m0 8v-8" class="cls-1"/>
  <path d="m360.26 408-27.71-16-27.71 16 27.71 16zm-69.28-8-27.71-16v8l27.71 16m0 0 27.71-16v-8l-27.71 16m0 8v-8" class="cls-1"/>
  <path d="m271.94 378.99-8.67 5.01 27.71 16 27.71-16-27.71-16zM249.41 288l-27.71-16v-8l27.71 16m0 8 27.72-16v-8l-27.72 16m0 8v-8" class="cls-1"/>
  <path d="m249.41 248-27.71 16 27.71 16 27.72-16zm41.57 56-27.71-16v8l27.71 16m0 0 27.71-16v-8l-27.71 16m0 8v-8" class="cls-1"/>
  <path d="m263.27 288 27.71 16 27.71-16-27.71-16zm69.28 40-27.71-16v8l27.71 16m0-8 27.71-16v8l-27.71 16m0-8v8" class="cls-1"/>
  <path d="m304.84 312 27.71 16 27.71-16-27.71-16zm-13.86-56-27.71-16v8l27.71 16m0 0 27.71-16v-8l-27.71 16m0 0v8" class="cls-1"/>
  <path d="m290.98 256 27.71-16-27.71-16-27.71 16zm41.57 24-27.71-16v8l27.71 16m0-8 27.71-16v8l-27.71 16m0-8v8" class="cls-1"/>
  <path d="m332.55 280 27.71-16-27.71-16-27.71 16zm41.57 24-27.71-16v8l27.71 16m0-8 27.71-16v8l-27.71 16m0-8v8" class="cls-1"/>
  <path d="m374.12 304 27.71-16-27.71-16-27.71 16zm0-48-27.71-16v8l27.71 16m0 0 27.71-16v-8l-27.71 16m0 8v-8" class="cls-1"/>
  <path d="m374.12 256 27.71-16-27.71-16-27.71 16zm41.57 24-27.71-16v8l27.71 16m0-8 27.71-16v8l-27.71 16m0-8v8" class="cls-1"/>
  <path d="m396.64 258.99-8.66 5.01 27.71 16m0 0 27.71-16-27.71-16-19.05 10.99M0 480l27.71-16v-8L0 472m0 0 27.71-16L0 440m0-56 27.71-16v-8L0 376m0 0 27.71-16L0 344m55.42 64v8l27.72 16m-27.72-24 27.72 16m27.71-16-27.71 16m0 8 27.71-16v-8m-27.71 24v-8m-27.72-16 27.72 16m0 0 27.71-16m0 0-27.71-16-27.72 16M0 336l27.71-16v-8L0 328m0 0 27.71-16L0 296m41.57 56-27.72-16v8l27.72 16m0-8 27.71-16v8l-27.71 16m0-8v8" class="cls-1"/>
  <path d="m41.57 352 27.71-16-27.71-16-19.05 10.99" class="cls-1"/>
  <path d="m41.57 352-27.72-16 8.67-5.01M124.7 400l-27.71-16v8l27.71 16" class="cls-1"/>
  <path d="m124.7 408 27.72-16v-8l-27.72 16m.01 0v8m-.01-8-27.71-16 5.21-3.01M124.7 400l27.72-16-27.72-16-19.04 10.99m-3.46 2 3.46-2M55.42 312v8l27.72 16m-27.72-24 27.72 16" class="cls-1"/>
  <path d="m83.14 328 27.71-16v8l-27.71 16m0-8v8" class="cls-1"/>
  <path d="m83.14 328 27.71-16-27.71-16-27.72 16m0 0 27.72 16m55.42 32v8l27.71 16m-27.71-24 27.71 16m0 8 27.72-16v-8l-27.72 16m0 0v8m-27.71-24 27.71 16" class="cls-1"/>
  <path d="m166.27 376 27.72-16-27.72-16-27.71 16M1205.5 208l-27.71-16v8l27.71 16" class="cls-1"/>
  <path d="m1205.5 208-27.71-16 27.71-16m-41.57 16 27.71-16v-8l-27.71 16m0 0-27.71-16v8l27.71 16m0 0v-8" class="cls-1"/>
  <path d="m1136.22 168 27.71 16 27.71-16-27.71-16zM872.95 16 845.23 0v8l27.72 16m0 0 27.71-16V0m-27.71 16 19.48-11.25M900.66 0l-8.23 4.75M872.95 24v-8" class="cls-1"/>
  <path d="M845.24 0h-.01l27.72 16 19.48-11.25m0 0L900.66 0m55.43 64-27.72-16v8l27.72 16m0 0 27.71-16v-8l-27.71 16m0 8v-8" class="cls-1"/>
  <path d="m956.09 64 27.71-16-27.71-16-27.72 16zm83.13 48-27.71-16v8l27.71 16m0 0 27.72-16v-8l-27.72 16m0 8v-8" class="cls-1"/>
  <path d="m1039.22 112 27.72-16-27.72-16-27.71 16zm83.14 48-27.71-16v8l27.71 16m0 0 27.72-16v-8l-27.72 16m0 8v-8" class="cls-1"/>
  <path d="m1122.36 160 27.72-16-27.72-16-27.71 16zm-41.57-24-27.71-16v8l27.71 16m0 0 27.72-16v-8l-27.72 16m0 0v8" class="cls-1"/>
  <path d="m1080.79 136 27.72-16-27.72-16-27.71 16zm-41.57-120-27.71-16v8l27.71 16m0 0 27.72-16V0l-27.72 16m0 8v-8m-27.71-16 27.71 16m0 0 27.72-16h-.01m55.43 64-27.71-16v8l27.71 16m0 0 27.71-16v-8l-27.71 16m0 0v8" class="cls-1"/>
  <path d="m1122.36 64 27.71-16-27.71-16-27.71 16zm83.14 56-27.71-16v-8l27.71 16" class="cls-1"/>
  <path d="m1205.5 112-27.71-16 8.67-5m19.04-11-19.04 11m-64.1-75-27.71-16v8l27.71 16m0 0 27.71-16V0l-27.71 16m0 0v8m0-8 27.71-16m-27.71 16-27.71-16m69.28 40-27.71-16v8l27.71 16m0 0 27.71-16v-8l-27.71 16m0 8v-8" class="cls-1"/>
  <path d="m1163.93 40 27.71-16-27.71-16-27.71 16zm13.86-40v8l27.71 16m-27.71-24 27.71 16m-27.71-16 27.71 16" class="cls-1"/>
</svg>
