<svg xmlns="http://www.w3.org/2000/svg" width="688" height="124" fill="none" viewBox="0 0 688 124" xmlns:xlink="http://www.w3.org/1999/xlink">
  <path fill="#fff" d="M0 0h688v124H0z"/>
  <g filter="url(#a)">
    <path fill="#D6A5E7" d="M4 0h160v116H4z"/>
    <path stroke="#000" d="M4.5.5h159v115H4.5z"/>
  </g>
  <path fill="#000" d="M51.568 61.063V67h-1.66V52.723h3.916q2.628 0 3.877 1.005 1.26 1.006 1.26 3.028 0 2.832-2.871 3.828L59.967 67h-1.963l-3.457-5.937zm0-1.426h2.276q1.758 0 2.578-.694.82-.702.82-2.1 0-1.415-.84-2.04-.83-.625-2.675-.625h-2.159zm19.698 2.002q0 2.616-1.319 4.092-1.319 1.464-3.642 1.464-1.436 0-2.55-.673-1.112-.674-1.718-1.934t-.605-2.95q0-2.616 1.308-4.072 1.31-1.464 3.633-1.464 2.246 0 3.564 1.494 1.329 1.494 1.329 4.043m-8.155 0q0 2.05.82 3.125.821 1.074 2.413 1.074 1.59 0 2.412-1.065.83-1.073.83-3.134 0-2.041-.83-3.096-.82-1.065-2.432-1.065-1.592 0-2.402 1.045t-.81 3.116m12.53-5.342v6.943q0 1.31.595 1.953.596.645 1.866.645 1.68 0 2.45-.918.782-.918.782-2.998v-5.625h1.621V67h-1.338l-.234-1.436h-.088q-.498.791-1.387 1.211-.879.42-2.011.42-1.955 0-2.93-.927Q74 65.34 74 63.298v-7.001zm14.218 9.56q.43 0 .83-.058.4-.069.635-.137v1.24q-.264.127-.781.205a5.4 5.4 0 0 1-.918.088q-3.105 0-3.106-3.271v-6.367h-1.533v-.782l1.533-.673.684-2.286h.938v2.48h3.105v1.26h-3.105v6.3q0 .966.459 1.484.459.517 1.26.517M95.094 67h-1.621V56.297h1.62zm-1.758-13.603q0-.558.273-.811a.95.95 0 0 1 .684-.264q.39 0 .674.264.283.264.283.81 0 .548-.283.82a.96.96 0 0 1-.674.264.95.95 0 0 1-.684-.263q-.273-.274-.273-.82M105.855 67v-6.924q0-1.308-.595-1.953-.596-.645-1.865-.645-1.68 0-2.461.909-.782.908-.782 2.998V67h-1.62V56.297h1.318l.263 1.465h.078a3.3 3.3 0 0 1 1.397-1.221q.898-.44 2.002-.44 1.934 0 2.91.938.977.928.977 2.979V67zm13.721-10.703v1.025l-1.982.235q.273.341.488.898.215.547.215 1.24 0 1.572-1.074 2.51t-2.95.938q-.478 0-.898-.078-1.035.546-1.035 1.376 0 .44.361.655.361.204 1.24.205h1.895q1.738 0 2.666.732.937.733.937 2.13 0 1.776-1.425 2.704-1.427.938-4.16.938-2.1 0-3.243-.782-1.132-.78-1.132-2.207 0-.976.625-1.689.624-.713 1.757-.967a1.73 1.73 0 0 1-.693-.576 1.55 1.55 0 0 1-.273-.908q0-.586.312-1.026t.986-.85q-.83-.34-1.357-1.161-.518-.82-.518-1.875 0-1.758 1.055-2.705 1.055-.957 2.988-.957.84 0 1.514.195zm-8.535 12.5q0 .87.732 1.318.733.45 2.1.45 2.041 0 3.018-.616.986-.605.986-1.65 0-.87-.537-1.211-.537-.332-2.022-.332h-1.943q-1.104 0-1.719.527-.615.528-.615 1.514m.879-9.072q0 1.122.635 1.699.635.576 1.767.576 2.373 0 2.373-2.305 0-2.412-2.402-2.412-1.143 0-1.758.615-.615.616-.615 1.827"/>
  <g filter="url(#b)">
    <path fill="#89D888" d="M524 0h160v116H524z"/>
    <path stroke="#000" d="M524.5.5h159v115h-159z"/>
  </g>
  <path fill="#000" d="M558.082 60.063V66h-1.66V51.723h3.916q2.627 0 3.877 1.005 1.26 1.006 1.26 3.028 0 2.832-2.871 3.828L566.48 66h-1.962l-3.457-5.937zm0-1.426h2.275q1.758 0 2.579-.694.82-.702.82-2.1 0-1.415-.84-2.04-.83-.625-2.676-.625h-2.158zm14.98 7.558q-2.373 0-3.75-1.445-1.367-1.445-1.367-4.014 0-2.587 1.27-4.111 1.279-1.524 3.428-1.523 2.012 0 3.183 1.328 1.172 1.318 1.172 3.486v1.025h-7.373q.049 1.885.947 2.862.909.975 2.549.976a8.6 8.6 0 0 0 3.418-.722v1.445a8.3 8.3 0 0 1-1.631.527q-.762.166-1.846.166m-.439-9.736q-1.289 0-2.061.84-.761.84-.898 2.324h5.596q0-1.533-.684-2.344-.684-.82-1.953-.82m14.053 6.621q0 1.494-1.114 2.305-1.113.81-3.124.81-2.13 0-3.321-.673v-1.504q.772.39 1.651.615.888.225 1.709.224 1.269 0 1.953-.4.683-.41.683-1.24 0-.626-.547-1.065-.537-.449-2.109-1.054-1.494-.557-2.129-.967-.625-.42-.937-.947-.303-.528-.303-1.26 0-1.31 1.064-2.06 1.065-.762 2.92-.762a8.5 8.5 0 0 1 3.379.703l-.576 1.318q-1.611-.664-2.92-.664-1.152 0-1.738.361t-.586.996q0 .43.215.733.224.303.713.576.488.273 1.875.791 1.904.693 2.568 1.397.674.702.674 1.767m11.885-2.441q0 2.616-1.319 4.092-1.318 1.464-3.642 1.464-1.436 0-2.549-.673-1.113-.674-1.719-1.934-.605-1.26-.605-2.95 0-2.616 1.308-4.072 1.309-1.464 3.633-1.464 2.246 0 3.564 1.494 1.329 1.494 1.329 4.043m-8.155 0q0 2.05.821 3.125.819 1.074 2.412 1.074t2.412-1.065q.83-1.073.83-3.134 0-2.041-.83-3.096-.82-1.065-2.432-1.065-1.592 0-2.402 1.045-.811 1.045-.811 3.116M603.033 66h-1.621V50.805h1.621zm4.961-10.703v6.943q0 1.31.596 1.953.596.645 1.865.645 1.68 0 2.451-.918.782-.918.782-2.998v-5.625h1.621V66h-1.338l-.235-1.436h-.088q-.498.791-1.386 1.211-.88.42-2.012.42-1.953 0-2.93-.927-.966-.928-.966-2.97v-7.001zm14.219 9.56q.43 0 .83-.058a6 6 0 0 0 .635-.137v1.24q-.264.127-.782.205a5.4 5.4 0 0 1-.917.088q-3.106 0-3.106-3.271v-6.367h-1.533v-.782l1.533-.673.684-2.286h.937v2.48h3.106v1.26h-3.106v6.3q0 .966.459 1.484.459.517 1.26.517M627.447 66h-1.621V55.297h1.621zm-1.758-13.603q0-.558.274-.811a.95.95 0 0 1 .683-.264q.392 0 .674.264.284.264.284.81 0 .548-.284.82a.95.95 0 0 1-.674.264.94.94 0 0 1-.683-.263q-.274-.274-.274-.82m14.434 8.242q0 2.616-1.318 4.092-1.318 1.464-3.643 1.464-1.436 0-2.549-.673-1.113-.674-1.718-1.934-.606-1.26-.606-2.95 0-2.616 1.309-4.072 1.308-1.464 3.632-1.464 2.247 0 3.565 1.494 1.328 1.494 1.328 4.043m-8.154 0q0 2.05.82 3.125.82 1.074 2.412 1.074 1.591 0 2.412-1.065.83-1.073.83-3.134 0-2.041-.83-3.096-.82-1.065-2.431-1.065-1.592 0-2.403 1.045t-.81 3.116M650.299 66v-6.924q0-1.308-.596-1.953t-1.865-.645q-1.68 0-2.461.909-.781.908-.781 2.998V66h-1.621V55.297h1.318l.264 1.465h.078a3.3 3.3 0 0 1 1.396-1.221q.899-.44 2.002-.44 1.933 0 2.91.938.977.928.977 2.979V66z"/>
  <g filter="url(#c)">
    <path fill="#DFE093" d="M264 0h160v116H264z"/>
    <path stroke="#000" d="M264.5.5h159v115h-159z"/>
  </g>
  <path fill="#000" d="M316.119 62.201q0 1.885-1.367 2.94t-3.711 1.054q-2.54 0-3.906-.654V63.94q.879.37 1.914.585 1.035.216 2.051.215 1.66 0 2.5-.625.84-.635.839-1.758 0-.742-.302-1.21-.294-.479-.996-.88-.694-.4-2.12-.908-1.992-.712-2.851-1.69-.85-.975-.85-2.548 0-1.65 1.241-2.627 1.24-.975 3.281-.976 2.128 0 3.916.78l-.518 1.446q-1.767-.742-3.437-.742-1.318 0-2.061.566-.742.567-.742 1.573 0 .741.273 1.22.274.47.918.87.655.39 1.993.869 2.246.8 3.086 1.718.849.919.849 2.383m7.656 3.994a4.7 4.7 0 0 1-1.914-.38 3.64 3.64 0 0 1-1.445-1.192h-.117q.117.938.117 1.777v4.405h-1.621V55.297h1.318l.225 1.465h.078q.625-.88 1.455-1.27t1.904-.39q2.13 0 3.282 1.455 1.161 1.455 1.162 4.082 0 2.637-1.182 4.101-1.171 1.455-3.262 1.455m-.234-9.716q-1.641 0-2.373.908t-.752 2.89v.362q0 2.256.752 3.232.752.967 2.412.967 1.387 0 2.168-1.123.79-1.123.791-3.096 0-2.002-.791-3.066-.781-1.075-2.207-1.075M332.682 66h-1.621V50.805h1.621zm5.058 0h-1.621V55.297h1.621zm-1.758-13.603q0-.558.274-.811a.95.95 0 0 1 .683-.264q.391 0 .674.264t.283.81q0 .548-.283.82a.96.96 0 0 1-.674.264.94.94 0 0 1-.683-.263q-.274-.274-.274-.82m8.653 12.46q.43 0 .83-.058a6 6 0 0 0 .635-.137v1.24q-.264.127-.782.205a5.4 5.4 0 0 1-.918.088q-3.105 0-3.105-3.271v-6.367h-1.533v-.782l1.533-.673.684-2.286h.937v2.48h3.105v1.26h-3.105v6.3q0 .966.459 1.484.459.517 1.26.517m7.07 0q.43 0 .83-.058.4-.069.635-.137v1.24q-.264.127-.781.205a5.4 5.4 0 0 1-.918.088q-3.106 0-3.106-3.271v-6.367h-1.533v-.782l1.533-.673.684-2.286h.937v2.48h3.106v1.26h-3.106v6.3q0 .966.459 1.484.459.517 1.26.517M356.939 66h-1.621V55.297h1.621zm-1.757-13.603q0-.558.273-.811a.95.95 0 0 1 .684-.264q.39 0 .673.264t.284.81q0 .548-.284.82a.95.95 0 0 1-.673.264.95.95 0 0 1-.684-.263q-.273-.274-.273-.82M367.701 66v-6.924q0-1.308-.596-1.953-.595-.645-1.865-.645-1.68 0-2.461.909-.781.908-.781 2.998V66h-1.621V55.297h1.318l.264 1.465h.078a3.3 3.3 0 0 1 1.397-1.221q.898-.44 2.002-.44 1.934 0 2.91.938.976.928.976 2.979V66zm13.721-10.703v1.025l-1.983.235q.274.341.489.898.215.547.215 1.24 0 1.572-1.075 2.51t-2.949.938q-.478 0-.898-.078-1.035.546-1.035 1.376 0 .44.361.655.361.204 1.24.205h1.895q1.737 0 2.666.732.937.733.937 2.13 0 1.776-1.426 2.704-1.425.938-4.16.938-2.1 0-3.242-.782-1.133-.78-1.133-2.207 0-.976.625-1.689t1.758-.967a1.7 1.7 0 0 1-.693-.576 1.54 1.54 0 0 1-.274-.908q0-.586.313-1.026.312-.44.986-.85-.83-.34-1.357-1.161-.518-.82-.518-1.875 0-1.758 1.055-2.705 1.054-.957 2.988-.957.84 0 1.514.195zm-8.535 12.5q0 .87.732 1.318.732.45 2.1.45 2.04 0 3.017-.616.987-.605.987-1.65 0-.87-.537-1.211-.538-.332-2.022-.332h-1.943q-1.104 0-1.719.527-.615.528-.615 1.514m.879-9.072q0 1.122.634 1.699.636.576 1.768.576 2.373 0 2.373-2.305 0-2.412-2.402-2.412-1.143 0-1.758.615-.615.616-.615 1.827M264 58l-15-8.66v17.32zm-100 1.5h86.5v-3H164zM524 58l-15-8.66v17.32zm-100 1.5h86.5v-3H424z"/>
  <defs>
    <filter id="a" width="168" height="124" x="0" y="0" color-interpolation-filters="sRGB" filterUnits="userSpaceOnUse">
      <feFlood flood-opacity="0" result="BackgroundImageFix"/>
      <feColorMatrix in="SourceAlpha" values="0 0 0 0 0 0 0 0 0 0 0 0 0 0 0 0 0 0 127 0"/>
      <feOffset dy="4"/>
      <feGaussianBlur stdDeviation="2"/>
      <feColorMatrix values="0 0 0 0 0 0 0 0 0 0 0 0 0 0 0 0 0 0 0.25 0"/>
      <feBlend in2="BackgroundImageFix" result="effect1_dropShadow"/>
      <feBlend in="SourceGraphic" in2="effect1_dropShadow" result="shape"/>
    </filter>
    <filter id="b" width="168" height="124" x="520" y="0" color-interpolation-filters="sRGB" filterUnits="userSpaceOnUse">
      <feFlood flood-opacity="0" result="BackgroundImageFix"/>
      <feColorMatrix in="SourceAlpha" values="0 0 0 0 0 0 0 0 0 0 0 0 0 0 0 0 0 0 127 0"/>
      <feOffset dy="4"/>
      <feGaussianBlur stdDeviation="2"/>
      <feColorMatrix values="0 0 0 0 0 0 0 0 0 0 0 0 0 0 0 0 0 0 0.25 0"/>
      <feBlend in2="BackgroundImageFix" result="effect1_dropShadow"/>
      <feBlend in="SourceGraphic" in2="effect1_dropShadow" result="shape"/>
    </filter>
    <filter id="c" width="168" height="124" x="260" y="0" color-interpolation-filters="sRGB" filterUnits="userSpaceOnUse">
      <feFlood flood-opacity="0" result="BackgroundImageFix"/>
      <feColorMatrix in="SourceAlpha" values="0 0 0 0 0 0 0 0 0 0 0 0 0 0 0 0 0 0 127 0"/>
      <feOffset dy="4"/>
      <feGaussianBlur stdDeviation="2"/>
      <feColorMatrix values="0 0 0 0 0 0 0 0 0 0 0 0 0 0 0 0 0 0 0.25 0"/>
      <feBlend in2="BackgroundImageFix" result="effect1_dropShadow"/>
      <feBlend in="SourceGraphic" in2="effect1_dropShadow" result="shape"/>
    </filter>
  </defs>
</svg>
