<svg xmlns="http://www.w3.org/2000/svg" id="LOGOS" width="240.948" height="63.52" version="1.1" viewBox="0 0 240.948 63.52" xmlns:xlink="http://www.w3.org/1999/xlink">
  <defs id="defs4">
    <style id="style2">
      .cls-1{fill:#e03875}
    </style>
  </defs>
  <path id="path6" d="M87.468 22.68c0-7.38 4.3-11.68 14.34-11.68a46 46 0 0 1 11 1.33l-.85 6.6a59 59 0 0 0-9.86-1c-5.27 0-7 1.81-7 6.11V39.5c0 4.29 1.69 6.11 7 6.11a59 59 0 0 0 9.86-1l.85 6.6a46 46 0 0 1-11 1.33c-10 0-14.34-4.3-14.34-11.68z"/>
  <path id="path8" d="M129.098 52.51c-10.11 0-12.82-5.58-12.82-11.58v-7.48c0-6.05 2.72-11.62 12.83-11.62s12.82 5.57 12.82 11.62v7.48c-.01 6-2.73 11.58-12.83 11.58m0-24.39c-3.94 0-5.45 1.76-5.45 5.09v7.92c0 3.33 1.51 5.08 5.45 5.08s5.44-1.75 5.44-5.08v-7.92c0-3.28-1.51-5.09-5.44-5.09"/>
  <path id="path10" d="M164.368 51.93v-20.6c0-1.57-.67-2.36-2.36-2.36s-5 1.09-7.69 2.48v20.48h-7.38V22.44h5.63l.71 2.49a29.5 29.5 0 0 1 11.8-3.09c4.9 0 6.66 3.45 6.66 8.71v21.38z"/>
  <path id="path12" d="M186.928 52.51a34.7 34.7 0 0 1-10.16-1.7l1-5.62a33.2 33.2 0 0 0 8.77 1.27c3.27 0 3.75-.73 3.75-3 0-1.81-.36-2.72-5.14-3.87-7.2-1.75-8.05-3.57-8.05-9.26 0-5.93 2.6-8.53 11-8.53a38.5 38.5 0 0 1 8.83 1l-.65 5.93a52.4 52.4 0 0 0-8.11-.85c-3.21 0-3.75.73-3.75 2.54 0 2.36.18 2.54 4.18 3.57 8.22 2.18 9 3.27 9 9.32-.02 5.69-1.77 9.2-10.67 9.2"/>
  <path id="path14" d="M209.798 22.44v20.57c0 1.57.66 2.36 2.36 2.36s5-1.09 7.68-2.48V22.44h7.38v29.49h-5.62l-.73-2.48a29.4 29.4 0 0 1-11.8 3.09c-4.9 0-6.65-3.45-6.65-8.72V22.44z"/>
  <path id="path16" d="M233.568 51.93V10.4l7.38-1v42.53Z"/>
  <path id="path18" d="M31.778 63.52a31.76 31.76 0 1 1 21.5-55.12l-7.51 7.88a20.87 20.87 0 1 0 0 31l7.51 7.85a31.66 31.66 0 0 1-21.5 8.39" class="cls-1"/>
  <path id="path20" d="M57.338 47.63a2.6 2.6 0 1 1 2.6-2.6 2.6 2.6 0 0 1-2.6 2.6" class="cls-1"/>
  <path id="path22" d="M31.578 38.64a6.88 6.88 0 1 1 6.88-6.88 6.88 6.88 0 0 1-6.88 6.88" class="cls-1"/>
  <path id="path24" d="M60.328 38.74a2.6 2.6 0 1 1 2.6-2.6 2.61 2.61 0 0 1-2.6 2.6" class="cls-1"/>
  <path id="path26" d="M52.588 38.44a2.6 2.6 0 1 1 2.6-2.6 2.6 2.6 0 0 1-2.6 2.6" class="cls-1"/>
  <path id="path28" d="M60.328 29.99a2.6 2.6 0 1 1 2.6-2.6 2.61 2.61 0 0 1-2.6 2.6" class="cls-1"/>
  <path id="path30" d="M52.588 30.29a2.6 2.6 0 1 1 2.6-2.6 2.6 2.6 0 0 1-2.6 2.6" class="cls-1"/>
  <path id="path32" d="M57.488 21.24a2.6 2.6 0 1 1 2.6-2.6 2.6 2.6 0 0 1-2.6 2.6" class="cls-1"/>
</svg>
