<svg xmlns="http://www.w3.org/2000/svg" width="175" height="350" fill="none" xmlns:xlink="http://www.w3.org/1999/xlink">
  <mask id="a" width="175" height="350" x="0" y="0" maskUnits="userSpaceOnUse" style="mask-type:alpha">
    <path fill="#C4C4C4" d="M0 0h175v350H0z"/>
  </mask>
  <g fill="#fff" mask="url(#a)">
    <g clip-path="url(#b)">
      <path d="M108.943 175.49h-1.223c.02 17.97 7.115 35.198 19.728 47.905 12.613 12.706 29.714 19.854 47.552 19.874v-1.232c-17.513-.02-34.304-7.037-46.687-19.513-12.384-12.476-19.35-29.391-19.37-47.034M175 225.247v1.232c-13.419-.015-26.284-5.392-35.773-14.951-9.488-9.559-14.826-22.519-14.841-36.038h1.223c.015 13.192 5.224 25.839 14.483 35.167s21.813 14.575 34.908 14.59m0 8.393v1.232c-15.628-.018-30.61-6.28-41.66-17.412-11.051-11.133-17.267-26.226-17.285-41.97h1.223c.018 15.417 6.105 30.198 16.926 41.099S159.697 233.622 175 233.64m0-16.79v1.232c-11.209-.013-21.955-4.505-29.881-12.489s-12.384-18.811-12.397-30.103h1.223c.012 10.966 4.342 21.478 12.038 29.232A40.95 40.95 0 0 0 175 216.85m0-33.581v1.232a8.92 8.92 0 0 1-6.322-2.642 9.06 9.06 0 0 1-2.623-6.369h1.223a7.82 7.82 0 0 0 2.265 5.498 7.7 7.7 0 0 0 5.457 2.281m0 25.188v1.231c-9-.01-17.629-3.616-23.993-10.027a34.37 34.37 0 0 1-9.954-24.171h1.223a33.13 33.13 0 0 0 9.596 23.3A32.64 32.64 0 0 0 175 208.457m0-8.398v1.233a25.55 25.55 0 0 1-18.101-7.566 25.92 25.92 0 0 1-7.51-18.236h1.222a24.7 24.7 0 0 0 7.152 17.365A24.32 24.32 0 0 0 175 200.059m0-8.392v1.231a17.24 17.24 0 0 1-12.213-5.104 17.5 17.5 0 0 1-5.067-12.304h1.223a16.25 16.25 0 0 0 4.708 11.433A16.02 16.02 0 0 0 175 191.667"/>
      <path d="M92.276 175.49h-1.223c.025 22.422 8.878 43.918 24.615 59.772 15.738 15.854 37.076 24.772 59.332 24.797v-1.232c-21.932-.024-42.959-8.812-58.467-24.436-15.509-15.623-24.233-36.806-24.257-58.901m6.55 76.735a107 107 0 0 0 34.926 23.579A106.3 106.3 0 0 0 175 284.011v1.232a108.3 108.3 0 0 1-41.693-8.352A108.9 108.9 0 0 1 97.962 253.1a109.8 109.8 0 0 1-23.617-35.608 110.5 110.5 0 0 1-8.29-42.002h1.223a108.5 108.5 0 0 0 8.144 41.551 107.9 107.9 0 0 0 23.403 35.184ZM175 267.22v1.232c-24.465-.028-47.92-9.831-65.219-27.259-17.3-17.427-27.03-41.056-27.059-65.703h1.223c.027 24.32 9.63 47.636 26.7 64.833s40.214 26.87 64.355 26.897m-70.281-20.928a98.7 98.7 0 0 0 32.225 21.754A98.1 98.1 0 0 0 175 275.617v1.233a100 100 0 0 1-38.503-7.715 100.6 100.6 0 0 1-32.642-21.972 101.4 101.4 0 0 1-21.81-32.884 102 102 0 0 1-7.658-38.789h1.223a100.1 100.1 0 0 0 7.516 38.338 99.5 99.5 0 0 0 21.593 32.464m-11.782 11.869a115.2 115.2 0 0 0 37.626 25.406A114.5 114.5 0 0 0 175 292.408v1.232c-31.104-.002-60.933-12.45-82.927-34.607s-34.351-52.208-34.354-83.543h1.224a116.9 116.9 0 0 0 8.776 44.767 116.2 116.2 0 0 0 25.218 37.904M81.15 270.036a131.8 131.8 0 0 0 43.031 29.053A131 131 0 0 0 175 309.198v1.232c-35.525 0-69.594-14.217-94.714-39.523s-39.232-59.629-39.233-95.417h1.223a133.7 133.7 0 0 0 10.036 51.196 132.9 132.9 0 0 0 28.838 43.35m5.893-5.937a123.5 123.5 0 0 0 40.33 27.226A122.8 122.8 0 0 0 175 300.801v1.232c-16.496 0-32.83-3.273-48.07-9.632a125.5 125.5 0 0 1-40.751-27.431 126.6 126.6 0 0 1-27.23-41.054 127.4 127.4 0 0 1-9.56-48.426h1.223a125.3 125.3 0 0 0 9.405 47.981 124.6 124.6 0 0 0 27.026 40.628m-11.786 11.874a140.1 140.1 0 0 0 45.734 30.874A139.2 139.2 0 0 0 175 317.591v1.232a141.4 141.4 0 0 1-54.448-10.909 142.2 142.2 0 0 1-46.16-31.07 143.4 143.4 0 0 1-30.841-46.502 144.3 144.3 0 0 1-10.83-54.852h1.224A142.1 142.1 0 0 0 44.61 229.9a141.2 141.2 0 0 0 30.647 46.073"/>
    </g>
    <g clip-path="url(#c)">
      <path d="M33.945 175.489v.001h-1.223v-.001a143.3 143.3 0 0 1 10.758-54.881 142.5 142.5 0 0 1 30.912-46.472 141.3 141.3 0 0 1 46.131-31.14A140.5 140.5 0 0 1 175 32.155v1.233a139.2 139.2 0 0 0-54.009 10.744 140.1 140.1 0 0 0-45.734 30.874 141.2 141.2 0 0 0-30.647 46.072 142.1 142.1 0 0 0-10.665 54.41ZM81.15 80.943a131.8 131.8 0 0 1 43.031-29.052A131 131 0 0 1 175 41.781V40.55a132.2 132.2 0 0 0-51.287 10.205 133 133 0 0 0-43.427 29.32 134.1 134.1 0 0 0-29.104 43.748 134.9 134.9 0 0 0-10.129 51.667v.001h1.223v-.001a133.7 133.7 0 0 1 10.036-51.195 132.9 132.9 0 0 1 28.838-43.35Zm5.893 5.938a123.5 123.5 0 0 1 40.33-27.227A122.8 122.8 0 0 1 175 50.18v-1.232a124 124 0 0 0-48.096 9.567A124.7 124.7 0 0 0 86.179 86.01a125.8 125.8 0 0 0-27.293 41.027 126.5 126.5 0 0 0-9.497 48.452v.001h1.222v-.001a125.3 125.3 0 0 1 9.406-47.98 124.6 124.6 0 0 1 27.026-40.628M175 83.759v-1.231c-24.465.027-47.92 9.83-65.22 27.258s-27.03 41.057-27.058 65.703v.001h1.223v-.001c.027-24.32 9.63-47.636 26.7-64.832 17.07-17.197 40.214-26.87 64.355-26.898m0 8.393V90.92c-22.256.025-43.594 8.944-59.331 24.798s-24.59 37.35-24.616 59.771v.001h1.223v-.001c.025-22.094 8.748-43.277 24.257-58.901 15.508-15.623 36.535-24.411 58.467-24.436m-76.175 6.603a107 107 0 0 1 34.927-23.58A106.3 106.3 0 0 1 175 66.97v-1.232a107.6 107.6 0 0 0-41.715 8.299A108.2 108.2 0 0 0 97.961 97.88a109.1 109.1 0 0 0-23.668 35.585 109.8 109.8 0 0 0-8.238 42.024v.001h1.223v-.001a108.5 108.5 0 0 1 8.144-41.55 107.9 107.9 0 0 1 23.403-35.184m-5.888-5.937a115.2 115.2 0 0 1 37.626-25.406A114.5 114.5 0 0 1 175 58.572v-1.233a115.75 115.75 0 0 0-44.905 8.935 116.5 116.5 0 0 0-38.022 25.673 117.4 117.4 0 0 0-25.485 38.304 118.1 118.1 0 0 0-8.869 45.238v.001h1.224v-.001a116.9 116.9 0 0 1 8.776-44.766 116.2 116.2 0 0 1 25.218-37.905m11.782 11.869a98.7 98.7 0 0 1 32.225-21.753A98.1 98.1 0 0 1 175 75.362V74.13a99.3 99.3 0 0 0-38.524 7.664 99.9 99.9 0 0 0-32.621 22.023 100.8 100.8 0 0 0-21.86 32.862 101.4 101.4 0 0 0-7.608 38.81v.001h1.222v-.001a100.1 100.1 0 0 1 7.517-38.338 99.5 99.5 0 0 1 21.593-32.464"/>
      <path d="M167.278 175.489v.001h-1.223v-.001a9.05 9.05 0 0 1 2.623-6.368 8.92 8.92 0 0 1 6.322-2.643v1.232a7.7 7.7 0 0 0-5.457 2.281 7.82 7.82 0 0 0-2.265 5.498M175 159.313v-1.232a17.24 17.24 0 0 0-12.213 5.105 17.5 17.5 0 0 0-5.067 12.303v.001h1.223v-.001a16.26 16.26 0 0 1 4.708-11.433A16.02 16.02 0 0 1 175 159.313m0-50.371v-1.232c-17.838.021-34.939 7.168-47.552 19.875-12.613 12.706-19.708 29.934-19.728 47.904v.001h1.223v-.001c.02-17.643 6.986-34.558 19.37-47.033 12.383-12.476 29.174-19.494 46.687-19.514m0 8.398v-1.232c-15.628.018-30.61 6.28-41.66 17.412-11.051 11.132-17.267 26.226-17.285 41.969v.001h1.223v-.001c.018-15.417 6.105-30.197 16.926-41.098S159.697 117.357 175 117.34m0 33.58v-1.232a25.55 25.55 0 0 0-18.101 7.566 25.92 25.92 0 0 0-7.51 18.235v.001h1.222v-.001a24.7 24.7 0 0 1 7.152-17.365A24.32 24.32 0 0 1 175 150.92m0-8.397v-1.232a33.86 33.86 0 0 0-23.993 10.028 34.37 34.37 0 0 0-9.954 24.17v.001h1.223v-.001a33.13 33.13 0 0 1 9.596-23.3A32.64 32.64 0 0 1 175 142.523m0-8.393v-1.232c-11.209.013-21.955 4.504-29.881 12.489-7.926 7.984-12.384 18.81-12.397 30.102v.001h1.223v-.001c.012-10.965 4.342-21.478 12.038-29.232S164.115 134.142 175 134.13m0-8.397V124.5c-13.419.016-26.284 5.393-35.772 14.952-9.489 9.559-14.827 22.519-14.842 36.037v.001h1.223v-.001c.015-13.191 5.224-25.839 14.483-35.167 9.259-9.327 21.813-14.574 34.908-14.589"/>
    </g>
  </g>
  <defs>
    <clipPath id="b">
      <path fill="#fff" d="M25 349.98V175.49h150v174.49z"/>
    </clipPath>
    <clipPath id="c">
      <path fill="#fff" d="M25 175.49V1h150v174.49z"/>
    </clipPath>
  </defs>
</svg>
