<svg xmlns="http://www.w3.org/2000/svg" width="133" height="126" fill="none" viewBox="0 0 133 126">
  <path fill="#F48220" d="M94.598 39.048c-1.93.337-3.246 2.172-2.91 4.1.338 1.927 2.175 3.243 4.104 2.906s3.246-2.172 2.91-4.1c-.337-1.927-2.175-3.242-4.104-2.906M53.685 53.092a3.55 3.55 0 0 0 3.552-3.55 3.55 3.55 0 0 0-3.552-3.549 3.55 3.55 0 0 0-3.552 3.55 3.55 3.55 0 0 0 3.552 3.549"/>
  <path fill="#F48220" d="M.43.009a.352.352 0 0 0-.398.49L47.377 126 133 22.098zm94.137 25.608 6.86 1.07a.245.245 0 0 1 .153.398l-4.41 5.446c-.122.153-.367.123-.428-.06l-2.45-6.518c-.061-.183.092-.367.275-.336m-42.321 15.39c4.807-.827 9.37 2.355 10.197 7.067.797 4.742-2.45 9.209-7.288 10.035-4.839.826-9.371-2.356-10.198-7.067-.796-4.743 2.48-9.24 7.289-10.036m-6.431 18.448L32.83 61.658c-.183.03-.337-.092-.367-.275l-3.981-23.406c-.03-.183.092-.336.275-.367l5.145-.887c.184-.03.337.092.368.275l3.123 18.266c.03.183.184.306.368.275l7.196-1.224c.184-.03.337.092.368.276l.765 4.497c.03.153-.092.337-.275.367m13.32 15.971-1.377.245c-.245.03-.49-.03-.674-.153l-6.002-4.345c-.153-.122-.398.03-.368.214l.827 4.957a.346.346 0 0 1-.275.398l-2.573.428a.346.346 0 0 1-.398-.275L46.427 65.88a.346.346 0 0 1 .276-.397l1.5-.245c.245-.03.49.03.705.183l5.91 4.528c.153.123.398-.03.367-.214l-.888-5.17a.346.346 0 0 1 .276-.398l2.542-.428a.346.346 0 0 1 .398.275l1.868 11.014c.092.184-.03.367-.245.398m11.332-1.927-8.973 1.53c-.214.03-.398-.184-.337-.398l3.185-8.567c.092-.245-.123-.49-.368-.46l-3.797.643a.41.41 0 0 1-.46-.336l-.367-2.172a.41.41 0 0 1 .337-.46l8.942-1.53c.215-.03.398.184.337.399l-3.185 8.658c-.092.245.123.49.368.459l3.828-.642a.41.41 0 0 1 .459.336l.367 2.111c.031.184-.122.398-.336.429m2.909-30.749-2.297.398c-.184.03-.306.183-.275.367L72.67 54.56c.031.184-.091.337-.275.367l-5.36.918h-.091l-1.868-11.381c-.03-.184-.184-.306-.368-.276l-2.541.428c-.184.031-.337-.091-.368-.275l-.704-4.191c-.03-.184.092-.337.275-.367l2.542-.429c.184-.03.306-.183.276-.367l-.796-4.681c-.031-.184.091-.337.275-.367l5.023-.857c.183-.03.336.092.367.276l.796 4.68c.03.184.184.306.368.276l2.296-.398c.184-.03.337.092.368.276l.704 4.191c.092.153-.03.337-.214.367m12.188-2.08-2.297.398c-.183.03-.306.183-.275.367L84.86 52.48c.03.183-.092.336-.276.367l-5.359.917h-.092l-1.868-11.38c-.03-.184-.184-.307-.367-.276l-2.42.398c-.245.03-.459-.215-.337-.46l1.991-4.222c.184-.397.245-.856.153-1.285l-.735-4.314c-.03-.183.092-.336.276-.367l5.022-.856c.184-.031.337.091.368.275l.796 4.681c.03.184.183.306.367.275l2.297-.397c.184-.03.337.092.367.275l.705 4.192c.122.183 0 .336-.184.367M96.65 51.103c-4.808.826-9.371-2.356-10.198-7.068-.796-4.742 2.45-9.209 7.289-10.035 4.808-.826 9.37 2.356 10.197 7.068.796 4.742-2.45 9.24-7.288 10.035"/>
  <path fill="#181C6E" d="M96.742 32.47c.06.184.306.214.428.061l4.41-5.446a.245.245 0 0 0-.153-.397l-6.86-1.071c-.183-.03-.337.153-.275.336z"/>
</svg>
