<svg xmlns="http://www.w3.org/2000/svg" width="538" height="360" fill="none" viewBox="0 0 538 360" xmlns:xlink="http://www.w3.org/1999/xlink">
  <path stroke="#D2D4DB" stroke-width="1.5" d="M432.75 55.323H534a3.25 3.25 0 0 1 3.25 3.25v288.631a3.25 3.25 0 0 1-3.25 3.25H432.75z"/>
  <path fill="url(#a)" d="M434 54.573h-12a4 4 0 0 0-4 4v288.631a4 4 0 0 0 4 4h12z"/>
  <path stroke="#D2D4DB" stroke-width="1.5" d="M138.75 58.573a3.25 3.25 0 0 1 3.25-3.25h101.25v295.131H142a3.25 3.25 0 0 1-3.25-3.25z"/>
  <path fill="#fff" d="M150 46.501h42v16.143h-42zm294 0h42v16.143h-42z"/>
  <path fill="#9194A0" d="M157.497 46.148q1.52 0 2.218.655.698.65.698 1.794 0 .515-.156.988a2.2 2.2 0 0 1-.51.832q-.349.366-.935.58-.585.21-1.444.21h-.715V54h-1.665v-7.852zm-.086 1.364h-.758v2.33h.548q.468 0 .811-.123a1.1 1.1 0 0 0 .532-.386q.188-.264.188-.677 0-.58-.322-.86-.323-.285-.999-.284m11.612 2.551q0 .908-.226 1.654-.225.74-.687 1.279a3 3 0 0 1-1.16.827q-.704.285-1.665.284-.961 0-1.665-.284a3.04 3.04 0 0 1-1.166-.827 3.5 3.5 0 0 1-.682-1.284 5.7 5.7 0 0 1-.226-1.66q0-1.22.398-2.121a3.03 3.03 0 0 1 1.235-1.408q.833-.5 2.116-.5 1.28 0 2.101.5.826.5 1.224 1.408.403.908.403 2.132m-5.731 0q0 .822.204 1.418.21.59.65.913.44.317 1.139.317.708 0 1.149-.317.441-.323.639-.913.204-.596.204-1.418 0-1.236-.462-1.944-.461-.71-1.52-.71-.703 0-1.149.323-.44.317-.65.913-.204.591-.204 1.418m13.874-.065q0 1.327-.511 2.219a3.2 3.2 0 0 1-1.466 1.337q-.962.446-2.315.446h-2.224v-7.852h2.466q1.235 0 2.143.44.907.435 1.407 1.294.5.855.5 2.117m-1.73.044q0-.87-.258-1.43a1.7 1.7 0 0 0-.752-.832q-.493-.268-1.224-.268h-.887v5.113h.715q1.22 0 1.81-.65.596-.65.596-1.934M186.458 54l-.57-1.87h-2.863l-.569 1.87h-1.794l2.772-7.885h2.035L188.251 54zm-.967-3.266-.57-1.826a17 17 0 0 0-.145-.467 45 45 0 0 0-.177-.586q-.086-.3-.14-.52-.053.22-.15.547-.092.323-.177.613l-.124.413-.564 1.826zm266.006-4.586q1.52 0 2.218.655.698.65.698 1.794 0 .515-.156.988a2.2 2.2 0 0 1-.51.832q-.349.366-.935.58-.585.21-1.444.21h-.715V54h-1.665v-7.852zm-.086 1.364h-.758v2.33h.548q.468 0 .811-.123a1.1 1.1 0 0 0 .532-.386q.188-.264.188-.677 0-.58-.322-.86-.323-.285-.999-.284m11.612 2.551q0 .908-.226 1.654-.225.74-.687 1.279a3 3 0 0 1-1.16.827q-.704.285-1.665.284-.962 0-1.665-.284a3.04 3.04 0 0 1-1.166-.827 3.5 3.5 0 0 1-.682-1.284 5.7 5.7 0 0 1-.226-1.66q0-1.22.398-2.121a3.03 3.03 0 0 1 1.235-1.408q.833-.5 2.116-.5 1.28 0 2.101.5.826.5 1.224 1.408.403.908.403 2.132m-5.731 0q0 .822.204 1.418.21.59.65.913.44.317 1.139.317.708 0 1.149-.317.441-.323.639-.913.204-.596.204-1.418 0-1.236-.462-1.944-.462-.71-1.52-.71-.703 0-1.149.323-.44.317-.65.913-.204.591-.204 1.418m13.874-.065q0 1.327-.511 2.219a3.2 3.2 0 0 1-1.466 1.337q-.962.446-2.315.446h-2.224v-7.852h2.466q1.235 0 2.143.44.908.435 1.407 1.294.5.855.5 2.117m-1.73.044q0-.87-.258-1.43a1.7 1.7 0 0 0-.752-.832q-.493-.268-1.224-.268h-.887v5.113h.715q1.22 0 1.81-.65.596-.65.596-1.934m6.214-3.895h2.444q1.569 0 2.374.44.806.441.806 1.548 0 .446-.145.805-.14.36-.408.591a1.35 1.35 0 0 1-.656.301v.054q.393.08.709.279.318.194.505.57.194.37.194.988 0 .714-.349 1.224-.35.51-.999.784-.645.27-1.537.269h-2.938zm1.665 3.11h.967q.725 0 1.005-.225.279-.231.279-.677 0-.45-.333-.645-.328-.198-1.042-.198h-.876zm0 1.322v2.046h1.085q.753 0 1.048-.29t.295-.779a1 1 0 0 0-.129-.51q-.129-.22-.435-.344-.3-.123-.832-.123z"/>
  <path fill="#fff" stroke="#D2D4DB" stroke-width="1.5" d="M154.75 86c0-.69.56-1.25 1.25-1.25h68c.69 0 1.25.56 1.25 1.25v68c0 .69-.56 1.25-1.25 1.25h-68c-.69 0-1.25-.56-1.25-1.25z"/>
  <rect width="36" height="37" x="172" y="101" fill="#fff" stroke="#000" stroke-width="2" rx="1"/>
  <rect width="36" height="8" x="172" y="101" fill="#fff" stroke="#000" stroke-width="2" rx="1"/>
  <path fill="#000" d="m186.965 126.766-6.809-3.014v-1.161l6.791-3.404v2.001l-4.166 1.897 4.166 1.732zm6.556-8.766-3.656 10.1h-2.33l3.664-10.1zm.495 6.791 4.166-1.732-4.166-1.862v-2.001l6.791 3.404v1.152l-6.791 3.014z"/>
  <path fill="#6A6D7A" d="M188.046 166.434 185.867 175h-2.069l-1.16-4.5a10 10 0 0 1-.094-.393 41 41 0 0 1-.24-1.166 8 8 0 0 1-.064-.445 6 6 0 0 1-.071.44q-.047.274-.111.585a21 21 0 0 1-.211.991L180.693 175h-2.063l-2.185-8.566h1.787l1.095 4.675q.048.211.106.504.065.294.123.616.065.316.111.615.053.292.077.51.028-.224.076-.516.046-.298.099-.604.059-.31.117-.574.06-.263.106-.428l1.248-4.798h1.717l1.248 4.798q.04.159.094.428a19 19 0 0 1 .222 1.184q.053.292.076.51a28 28 0 0 1 .27-1.547q.088-.417.152-.698l1.09-4.675zm6.252 8.566h-4.934v-8.566h4.934v1.488h-3.117v1.881h2.9v1.488h-2.9v2.209h3.117zm2.033-8.566h2.666q1.711 0 2.59.48t.879 1.688q0 .486-.159.878a1.6 1.6 0 0 1-.445.645 1.47 1.47 0 0 1-.715.328v.059q.427.087.774.304.345.211.551.622.21.403.21 1.078 0 .778-.38 1.336-.381.557-1.09.855-.704.293-1.676.293h-3.205zm1.816 3.392h1.055q.791 0 1.096-.246.304-.252.304-.738 0-.492-.363-.703-.357-.217-1.137-.217h-.955zm0 1.442v2.232h1.184q.82 0 1.143-.316.321-.317.322-.85 0-.316-.141-.557-.141-.24-.474-.375-.328-.135-.909-.134z"/>
  <path fill="#fff" stroke="#D2D4DB" stroke-width="1.5" d="M449.75 86c0-.69.56-1.25 1.25-1.25h68c.69 0 1.25.56 1.25 1.25v68c0 .69-.56 1.25-1.25 1.25h-68c-.69 0-1.25-.56-1.25-1.25z"/>
  <path fill="#fff" stroke="#000" stroke-linecap="round" stroke-linejoin="round" stroke-miterlimit="10" stroke-width="2" d="M499.999 109v21.281c0 1.632-1.341 3.373-4.126 4.766-2.727 1.363-6.567 2.234-10.873 2.234s-8.147-.871-10.873-2.234c-2.785-1.393-4.127-3.134-4.127-4.766V109c0-1.632 1.342-3.373 4.127-4.766C476.853 102.871 480.694 102 485 102s8.146.871 10.873 2.234c2.785 1.393 4.126 3.134 4.126 4.766"/>
  <mask id="b" fill="#fff">
    <path d="M500.999 119.64c0 4.427-7.145 8-15.999 8s-16-3.573-16-8"/>
  </mask>
  <path fill="#000" d="M502.999 119.64a2 2 0 1 0-4 0zm-31.999 0a2 2 0 1 0-4 0zm27.999 0c0 1.05-.897 2.533-3.574 3.871-2.56 1.28-6.24 2.129-10.425 2.129v4c4.669 0 8.988-.938 12.214-2.551 3.11-1.555 5.785-4.072 5.785-7.449zm-13.999 6c-4.186 0-7.866-.849-10.426-2.129-2.677-1.338-3.574-2.821-3.574-3.871h-4c0 3.377 2.676 5.894 5.785 7.449 3.226 1.613 7.546 2.551 12.215 2.551z" mask="url(#b)"/>
  <mask id="c" fill="#fff">
    <path d="M500.999 108.763c0 4.427-7.145 8-15.999 8s-16-3.573-16-8"/>
  </mask>
  <path fill="#000" d="M502.999 108.763a2 2 0 1 0-4 0zm-31.999 0a2 2 0 1 0-4 0zm27.999 0c0 1.05-.897 2.533-3.574 3.871-2.56 1.28-6.24 2.129-10.425 2.129v4c4.669 0 8.988-.938 12.214-2.551 3.11-1.555 5.785-4.072 5.785-7.449zm-13.999 6c-4.186 0-7.866-.849-10.426-2.129-2.677-1.338-3.574-2.821-3.574-3.871h-4c0 3.377 2.676 5.894 5.785 7.449 3.226 1.613 7.546 2.551 12.215 2.551z" mask="url(#c)"/>
  <path fill="#6A6D7A" d="M461.183 170.635q0 1.447-.557 2.42a3.5 3.5 0 0 1-1.6 1.459q-1.049.486-2.525.486h-2.426v-8.566h2.69q1.347 0 2.338.48a3.47 3.47 0 0 1 1.535 1.412q.545.932.545 2.309m-1.887.047q0-.95-.281-1.559a1.85 1.85 0 0 0-.821-.908q-.538-.293-1.336-.293h-.966v5.578h.779q1.33 0 1.974-.709.651-.71.651-2.109m9.146 4.318-.621-2.039h-3.123l-.621 2.039h-1.957l3.023-8.602h2.221l3.035 8.602zm-1.055-3.562-.621-1.993a20 20 0 0 0-.158-.509l-.193-.639a15 15 0 0 1-.153-.568q-.058.24-.164.597a43 43 0 0 1-.328 1.119l-.615 1.993zm7.641 3.562h-1.817v-7.055h-2.326v-1.511h6.469v1.511h-2.326zm9.128 0-.621-2.039h-3.123l-.621 2.039h-1.957l3.024-8.602h2.22l3.036 8.602zm-1.054-3.562-.621-1.993a24 24 0 0 0-.158-.509l-.194-.639a16 16 0 0 1-.152-.568q-.059.24-.164.597a57 57 0 0 1-.194.668l-.134.451-.616 1.993zm4.336-5.004h2.666q1.71 0 2.589.48t.879 1.688q0 .486-.158.878-.153.393-.445.645a1.5 1.5 0 0 1-.715.328v.059q.428.087.773.304.346.211.551.622.211.403.211 1.078 0 .778-.381 1.336-.38.557-1.09.855-.702.293-1.675.293h-3.205zm1.816 3.392h1.055q.79 0 1.095-.246.305-.252.305-.738 0-.492-.363-.703-.358-.217-1.137-.217h-.955zm0 1.442v2.232h1.184q.82 0 1.142-.316.322-.317.322-.85 0-.316-.14-.557-.14-.24-.475-.375-.328-.135-.908-.134zm11.73 3.732-.621-2.039h-3.123l-.621 2.039h-1.957l3.023-8.602h2.221l3.035 8.602zm-1.055-3.562-.621-1.993a20 20 0 0 0-.158-.509l-.193-.639a17 17 0 0 1-.153-.568q-.058.24-.164.597a43 43 0 0 1-.328 1.119l-.615 1.993zm9.393 1.183q0 .762-.369 1.324-.37.563-1.078.867-.704.305-1.711.305-.446 0-.873-.058a6 6 0 0 1-.815-.17 5 5 0 0 1-.738-.287v-1.688q.61.27 1.265.486.657.217 1.301.217.445 0 .715-.117a.8.8 0 0 0 .398-.322.9.9 0 0 0 .124-.469.78.78 0 0 0-.217-.551 2.3 2.3 0 0 0-.598-.428q-.375-.198-.85-.427a10 10 0 0 1-.65-.34 4 4 0 0 1-.668-.498 2.4 2.4 0 0 1-.521-.709q-.2-.422-.2-1.008 0-.768.352-1.312a2.2 2.2 0 0 1 1.002-.832q.656-.294 1.547-.293.668 0 1.271.158.61.152 1.272.445l-.586 1.412a10 10 0 0 0-1.061-.369 3.4 3.4 0 0 0-.955-.135q-.34 0-.58.112a.8.8 0 0 0-.363.304.8.8 0 0 0-.123.451q0 .305.176.516.181.206.539.399.363.192.902.451.656.31 1.119.65.47.334.721.791.252.451.252 1.125m6.726 2.379h-4.933v-8.566h4.933v1.488h-3.117v1.881h2.9v1.488h-2.9v2.209h3.117z"/>
  <path fill="#fff" stroke="#E07EAC" stroke-width="1.5" d="M154.75 237c0-.69.56-1.25 1.25-1.25h68c.69 0 1.25.56 1.25 1.25v68c0 .69-.56 1.25-1.25 1.25h-68c-.69 0-1.25-.56-1.25-1.25z"/>
  <path fill="#fff" fill-rule="evenodd" d="m200 258 6 6-6 6" clip-rule="evenodd"/>
  <path stroke="#CA2171" stroke-linecap="round" stroke-linejoin="round" stroke-width="2" d="m200 258 6 6m0 0-6 6m6-6h-31"/>
  <path fill="#fff" fill-rule="evenodd" d="m181 272-6 6 6 6" clip-rule="evenodd"/>
  <path stroke="#CA2171" stroke-linecap="round" stroke-linejoin="round" stroke-width="2" d="m181 272-6 6m0 0 6 6m-6-6h31"/>
  <path fill="#CA2171" d="M172.964 317.434q1.66 0 2.42.714.762.71.762 1.957 0 .563-.17 1.079a2.4 2.4 0 0 1-.556.908q-.381.398-1.02.633-.639.228-1.576.228h-.779V326h-1.817v-8.566zm-.093 1.488h-.826v2.543h.597q.51 0 .885-.135.375-.134.58-.422.205-.287.205-.738 0-.633-.351-.938-.352-.31-1.09-.31m7.628-1.488q1.166 0 1.922.281.762.281 1.131.849.369.569.369 1.436 0 .586-.222 1.025a2.4 2.4 0 0 1-.586.745 3.5 3.5 0 0 1-.786.498l2.52 3.732h-2.016l-2.045-3.287h-.966V326h-1.817v-8.566zm-.129 1.488h-.55v2.314h.586q.902 0 1.289-.298.392-.305.392-.891 0-.609-.422-.867-.416-.258-1.295-.258m13.571 2.783q0 .99-.247 1.805a3.8 3.8 0 0 1-.75 1.394 3.25 3.25 0 0 1-1.265.903q-.767.31-1.817.31-1.048 0-1.816-.31a3.3 3.3 0 0 1-1.271-.903 3.8 3.8 0 0 1-.745-1.4 6.3 6.3 0 0 1-.246-1.811q0-1.33.434-2.314a3.3 3.3 0 0 1 1.348-1.535q.908-.546 2.308-.545 1.395 0 2.291.545a3.3 3.3 0 0 1 1.336 1.535q.44.99.44 2.326m-6.252 0q0 .897.222 1.547.23.645.709.996.482.346 1.242.346.774 0 1.254-.346.481-.351.698-.996.222-.65.222-1.547 0-1.347-.504-2.121t-1.658-.773q-.768 0-1.254.351-.48.346-.709.996-.222.645-.222 1.547M202.882 326h-2.075l-1.992-3.24-1.992 3.24h-1.945l2.842-4.418-2.661-4.148h2.004l1.846 3.082 1.811-3.082h1.957l-2.69 4.248zm3.984-5.039 1.787-3.527h1.957l-2.842 5.232V326h-1.804v-3.275l-2.842-5.291h1.968z"/>
  <path fill="#fff" stroke="#E07EAC" stroke-width="1.5" d="M448.75 237c0-.69.56-1.25 1.25-1.25h68c.69 0 1.25.56 1.25 1.25v68c0 .69-.56 1.25-1.25 1.25h-68c-.69 0-1.25-.56-1.25-1.25z"/>
  <path fill="#fff" fill-rule="evenodd" d="m494 258 6 6-6 6" clip-rule="evenodd"/>
  <path stroke="#CA2171" stroke-linecap="round" stroke-linejoin="round" stroke-width="2" d="m494 258 6 6m0 0-6 6m6-6h-31"/>
  <path fill="#fff" fill-rule="evenodd" d="m475 272-6 6 6 6" clip-rule="evenodd"/>
  <path stroke="#CA2171" stroke-linecap="round" stroke-linejoin="round" stroke-width="2" d="m475 272-6 6m0 0 6 6m-6-6h31"/>
  <path fill="#CA2171" d="M466.964 317.434q1.66 0 2.42.714.762.71.762 1.957 0 .563-.17 1.079a2.4 2.4 0 0 1-.556.908q-.381.398-1.02.633-.639.228-1.576.228h-.779V326h-1.817v-8.566zm-.093 1.488h-.826v2.543h.597q.51 0 .885-.135.375-.134.58-.422.205-.287.205-.738 0-.633-.351-.938-.352-.31-1.09-.31m7.628-1.488q1.167 0 1.922.281.762.281 1.131.849.369.569.369 1.436 0 .586-.222 1.025a2.4 2.4 0 0 1-.586.745 3.5 3.5 0 0 1-.786.498l2.52 3.732h-2.016l-2.045-3.287h-.966V326h-1.817v-8.566zm-.129 1.488h-.55v2.314h.586q.902 0 1.289-.298.392-.305.392-.891 0-.609-.422-.867-.416-.258-1.295-.258m13.571 2.783q0 .99-.247 1.805a3.8 3.8 0 0 1-.75 1.394 3.25 3.25 0 0 1-1.265.903q-.767.31-1.817.31-1.048 0-1.816-.31a3.3 3.3 0 0 1-1.271-.903 3.8 3.8 0 0 1-.745-1.4 6.3 6.3 0 0 1-.246-1.811q0-1.33.434-2.314a3.3 3.3 0 0 1 1.348-1.535q.908-.546 2.308-.545 1.394 0 2.291.545a3.3 3.3 0 0 1 1.336 1.535q.44.99.44 2.326m-6.252 0q0 .897.222 1.547.23.645.709.996.481.346 1.242.346.774 0 1.254-.346.481-.351.698-.996.222-.65.222-1.547 0-1.347-.504-2.121-.503-.774-1.658-.773-.768 0-1.254.351-.48.346-.709.996-.222.645-.222 1.547M496.882 326h-2.075l-1.992-3.24-1.992 3.24h-1.945l2.842-4.418-2.661-4.148h2.004l1.846 3.082 1.811-3.082h1.957l-2.69 4.248zm3.984-5.039 1.787-3.527h1.957l-2.842 5.232V326h-1.804v-3.275l-2.842-5.291h1.968z"/>
  <path stroke="#CA2171" stroke-linecap="round" stroke-linejoin="round" stroke-width="2" d="M238 123h-10"/>
  <path fill="#CA2171" fill-rule="evenodd" d="m236.72 123-4.22 4.137 1.39 1.363 5.61-5.5-5.61-5.5-1.39 1.363z" clip-rule="evenodd"/>
  <path stroke="#CA2171" stroke-linecap="round" stroke-linejoin="round" stroke-width="2" d="M484 186v36"/>
  <path fill="#CA2171" fill-rule="evenodd" d="m484 187.28 4.137 4.22 1.363-1.39-5.5-5.61-5.5 5.61 1.363 1.39z" clip-rule="evenodd"/>
  <path stroke="#E5544B" stroke-dasharray="1.5 4" stroke-linecap="round" stroke-linejoin="round" stroke-width="2" d="M414 119h-73"/>
  <path fill="#E5544B" fill-rule="evenodd" d="m412.72 119-4.22 4.137 1.39 1.363 5.61-5.5-5.61-5.5-1.39 1.363z" clip-rule="evenodd"/>
  <path fill="#E5544B" d="m305.93 149-2.063-6.721h-.053l.036.727q.029.48.052 1.025.024.546.024.985V149h-1.623v-8.566h2.472l2.028 6.55h.035l2.15-6.55h2.473V149h-1.693v-4.055q0-.404.011-.931.018-.528.041-1.002l.035-.721h-.052L307.594 149zm12.627 0h-4.934v-8.566h4.934v1.488h-3.118v1.881h2.901v1.488h-2.901v2.209h3.118zm6.849-2.379q0 .762-.369 1.324t-1.078.867q-.703.305-1.711.305-.446 0-.873-.058a6 6 0 0 1-.814-.17 5 5 0 0 1-.739-.287v-1.688q.61.27 1.266.486.656.217 1.301.217.445 0 .715-.117a.82.82 0 0 0 .398-.322.9.9 0 0 0 .123-.469.77.77 0 0 0-.217-.551 2.3 2.3 0 0 0-.597-.428q-.375-.198-.85-.427a10 10 0 0 1-.65-.34 3.8 3.8 0 0 1-.668-.498 2.4 2.4 0 0 1-.522-.709q-.2-.422-.199-1.008 0-.768.351-1.312a2.23 2.23 0 0 1 1.002-.832q.657-.294 1.547-.293.668 0 1.272.158.61.152 1.271.445l-.586 1.412a10 10 0 0 0-1.06-.369 3.4 3.4 0 0 0-.955-.135q-.34 0-.58.112a.8.8 0 0 0-.364.304.8.8 0 0 0-.123.451.78.78 0 0 0 .176.516q.182.206.539.399.363.192.902.451.657.31 1.12.65.468.334.72.791.252.451.252 1.125m8.573 2.379h-1.811v-3.697h-3.393V149h-1.816v-8.566h1.816v3.357h3.393v-3.357h1.811zm5.285-8.566h2.666q1.71 0 2.59.48.878.48.878 1.688 0 .486-.158.878a1.6 1.6 0 0 1-.445.645 1.5 1.5 0 0 1-.715.328v.059q.428.087.774.304.345.211.55.622.211.403.211 1.078 0 .778-.381 1.336-.381.556-1.089.855-.704.293-1.676.293h-3.205zm1.816 3.392h1.055q.79 0 1.095-.246.305-.252.305-.738 0-.492-.363-.703-.357-.217-1.137-.217h-.955zm0 1.442v2.232h1.184q.82 0 1.142-.316.323-.317.323-.85 0-.316-.141-.557-.14-.24-.475-.375-.327-.135-.908-.134zm8.912-1.307 1.787-3.527h1.957l-2.841 5.232V149h-1.805v-3.275l-2.842-5.291h1.969zm7.559-3.527q1.658 0 2.42.714.762.71.761 1.957 0 .563-.17 1.079a2.4 2.4 0 0 1-.556.908q-.381.398-1.02.633-.638.228-1.576.228h-.779V149h-1.817v-8.566zm-.094 1.488h-.826v2.543h.598q.509 0 .884-.135t.58-.422.205-.738q0-.633-.351-.938-.352-.31-1.09-.31M367.594 149l-.621-2.039h-3.123l-.621 2.039h-1.958l3.024-8.602h2.221l3.035 8.602zm-1.055-3.562-.621-1.993a24 24 0 0 0-.158-.509l-.194-.639a16 16 0 0 1-.152-.568q-.059.24-.164.597-.1.352-.193.668l-.135.451-.615 1.993zm9.152 1.183q0 .762-.369 1.324t-1.078.867q-.703.305-1.711.305-.446 0-.873-.058a6 6 0 0 1-.814-.17 5 5 0 0 1-.739-.287v-1.688q.61.27 1.266.486.656.217 1.301.217.445 0 .715-.117a.82.82 0 0 0 .398-.322.9.9 0 0 0 .123-.469.77.77 0 0 0-.217-.551 2.3 2.3 0 0 0-.597-.428q-.375-.198-.85-.427a10 10 0 0 1-.65-.34 3.8 3.8 0 0 1-.668-.498 2.4 2.4 0 0 1-.522-.709q-.2-.422-.199-1.008 0-.768.352-1.312a2.2 2.2 0 0 1 1.002-.832q.656-.294 1.546-.293.669 0 1.272.158.61.152 1.271.445l-.586 1.412a10 10 0 0 0-1.06-.369 3.4 3.4 0 0 0-.955-.135q-.34 0-.58.112a.785.785 0 0 0-.487.755.78.78 0 0 0 .176.516q.182.206.539.399.363.192.903.451.655.31 1.119.65.468.334.72.791.252.451.252 1.125m6.61 0q0 .762-.369 1.324-.37.563-1.078.867-.704.305-1.711.305-.446 0-.873-.058a6 6 0 0 1-.815-.17 5 5 0 0 1-.738-.287v-1.688q.61.27 1.265.486.657.217 1.301.217.445 0 .715-.117a.8.8 0 0 0 .398-.322.9.9 0 0 0 .124-.469.78.78 0 0 0-.217-.551 2.3 2.3 0 0 0-.598-.428q-.375-.198-.85-.427a10 10 0 0 1-.65-.34 4 4 0 0 1-.668-.498 2.4 2.4 0 0 1-.521-.709q-.2-.422-.2-1.008 0-.768.352-1.312a2.2 2.2 0 0 1 1.002-.832q.656-.294 1.547-.293.668 0 1.271.158.61.152 1.272.445l-.586 1.412a10 10 0 0 0-1.061-.369 3.4 3.4 0 0 0-.955-.135q-.34 0-.58.112a.8.8 0 0 0-.363.304.8.8 0 0 0-.123.451q0 .305.176.516.181.206.539.399.363.192.902.451.656.31 1.119.65.47.334.721.791.252.451.252 1.125m-72.908 9.813q1.166 0 1.921.281.762.281 1.131.849.369.569.369 1.436 0 .586-.222 1.025a2.4 2.4 0 0 1-.586.745 3.5 3.5 0 0 1-.785.498L313.74 165h-2.015l-2.045-3.287h-.967V165h-1.817v-8.566zm-.129 1.488h-.551v2.314h.586q.902 0 1.289-.298.392-.305.392-.891 0-.609-.421-.867-.416-.258-1.295-.258M319.752 165h-4.934v-8.566h4.934v1.488h-3.117v1.881h2.9v1.488h-2.9v2.209h3.117zm8.9-4.365q0 1.447-.556 2.42a3.5 3.5 0 0 1-1.6 1.459q-1.049.486-2.525.486h-2.426v-8.566h2.689q1.348 0 2.338.48.99.474 1.535 1.412.546.932.545 2.309m-1.886.047q0-.95-.282-1.559a1.85 1.85 0 0 0-.82-.908q-.539-.293-1.336-.293h-.967v5.578h.78q1.33 0 1.974-.709.651-.71.651-2.109m3.662 4.318v-8.566h1.816V165zm6.468-8.566q1.167 0 1.922.281.762.281 1.131.849.369.569.369 1.436 0 .586-.222 1.025a2.4 2.4 0 0 1-.586.745 3.5 3.5 0 0 1-.785.498l2.519 3.732h-2.015l-2.045-3.287h-.967V165H334.4v-8.566zm-.128 1.488h-.551v2.314h.586q.902 0 1.289-.298.393-.305.392-.891 0-.609-.422-.867-.415-.258-1.294-.258M347.256 165h-4.934v-8.566h4.934v1.488h-3.117v1.881h2.9v1.488h-2.9v2.209h3.117zm5.432-7.178q-.522 0-.926.205a1.84 1.84 0 0 0-.674.58q-.27.381-.41.92-.141.54-.141 1.213 0 .909.223 1.553.228.639.703.978.474.334 1.225.334.521 0 1.042-.117a10 10 0 0 0 1.143-.334v1.524a5.6 5.6 0 0 1-1.119.334q-.55.105-1.236.105-1.325 0-2.18-.545a3.3 3.3 0 0 1-1.26-1.535q-.41-.99-.41-2.308 0-.974.264-1.782a4 4 0 0 1 .773-1.4q.51-.592 1.26-.914t1.723-.322q.638 0 1.277.164.645.158 1.23.439l-.586 1.477a10 10 0 0 0-.966-.399 2.9 2.9 0 0 0-.955-.17m7.318 7.178h-1.817v-7.055h-2.326v-1.511h6.469v1.511h-2.326zm8.578 0h-4.934v-8.566h4.934v1.488h-3.117v1.881h2.9v1.488h-2.9v2.209h3.117zm8.9-4.365q0 1.447-.556 2.42a3.5 3.5 0 0 1-1.6 1.459q-1.049.486-2.525.486h-2.426v-8.566h2.689q1.348 0 2.338.48.99.474 1.535 1.412.546.932.545 2.309m-1.886.047q0-.95-.282-1.559a1.85 1.85 0 0 0-.82-.908q-.539-.293-1.336-.293h-.967v5.578h.78q1.33 0 1.974-.709.651-.71.651-2.109"/>
  <circle cx="342" cy="119" r="13.25" fill="#E5544B" stroke="#fff" stroke-width="1.5"/>
  <path fill="#fff" d="M342.701 120.685h-1.668l-.349-6.679h2.365zm-2.044 2.337q0-.642.349-.902.354-.26.854-.26.486 0 .834.26.355.26.355.902 0 .616-.355.889-.348.273-.834.274-.5 0-.854-.274-.35-.273-.349-.889"/>
  <path stroke="#999" stroke-linecap="round" stroke-linejoin="round" d="M233.5 25.5v84"/>
  <path fill="url(#d)" d="M242 54.573h12a4 4 0 0 1 4 4v288.631a4 4 0 0 1-4 4h-12z"/>
  <path fill="#fff" d="M409 270h37v4h-37zm-171 0h37v4h-37z"/>
  <path stroke="#CA2171" stroke-linecap="round" stroke-linejoin="round" stroke-width="2" d="M233 272h210"/>
  <path fill="#CA2171" fill-rule="evenodd" d="m441.72 272-4.22 4.137 1.39 1.363 5.61-5.5-5.61-5.5-1.39 1.363z" clip-rule="evenodd"/>
  <path stroke="#fff" stroke-dasharray="1.5 4" stroke-linecap="round" stroke-linejoin="round" stroke-width="2" d="M244 123a6 6 0 0 1 6 6v62m170-73a6 6 0 0 1 6 6v62"/>
  <path stroke="#fff" stroke-dasharray="1.5 4" stroke-linecap="round" stroke-linejoin="round" stroke-width="2" d="M244 202a6 6 0 0 0 6-6v-21m182 82a6 6 0 0 1-6-6v-66"/>
  <path stroke="#CA2171" stroke-linecap="round" stroke-linejoin="round" stroke-width="2" d="M193 231v-21a8 8 0 0 1 8-8h37"/>
  <path fill="#CA2171" fill-rule="evenodd" d="m193 229.72 4.137-4.22 1.363 1.39-5.5 5.61-5.5-5.61 1.363-1.39z" clip-rule="evenodd"/>
  <g opacity=".4">
    <path fill="#6A6D7A" d="M46.782 326h-2.31l-3.726-6.48h-.052q.023.404.04.814l.036.82.035.815V326h-1.623v-8.566h2.29l3.722 6.416h.04q-.01-.4-.029-.791l-.035-.786-.023-.785v-4.054h1.635zm10.177-4.295q0 .99-.246 1.805a3.8 3.8 0 0 1-.75 1.394 3.26 3.26 0 0 1-1.266.903q-.768.31-1.816.31-1.05 0-1.816-.31a3.3 3.3 0 0 1-1.272-.903 3.85 3.85 0 0 1-.744-1.4 6.3 6.3 0 0 1-.246-1.811q0-1.33.433-2.314a3.3 3.3 0 0 1 1.348-1.535q.908-.546 2.309-.545 1.395 0 2.29.545a3.3 3.3 0 0 1 1.337 1.535q.438.99.439 2.326m-6.252 0q0 .897.223 1.547.228.645.709.996.48.346 1.242.346.774 0 1.254-.346.48-.351.697-.996.222-.65.223-1.547 0-1.347-.504-2.121t-1.658-.773q-.768 0-1.254.351-.48.346-.71.996-.222.645-.222 1.547m-27.825 10.729v5.543q0 .884-.393 1.599-.386.71-1.178 1.125-.784.417-1.98.416-1.7 0-2.59-.867t-.89-2.297v-5.519h1.81v5.244q0 1.06.434 1.488.433.428 1.283.428.597 0 .967-.205.375-.206.55-.633t.176-1.09v-5.232zm5.074 0q1.658 0 2.42.714.762.71.761 1.957 0 .563-.17 1.079a2.4 2.4 0 0 1-.556.908q-.381.398-1.02.633-.637.228-1.576.228h-.78V341H25.22v-8.566zm-.094 1.488h-.826v2.543h.598q.51 0 .884-.135.376-.134.58-.422.205-.287.205-.738 0-.633-.351-.938-.352-.31-1.09-.31m10.19 4.699q0 .762-.37 1.324-.369.563-1.078.867-.704.306-1.711.305-.446 0-.873-.058a6 6 0 0 1-.815-.17 5 5 0 0 1-.738-.287v-1.688q.61.27 1.266.486.656.217 1.3.217.446 0 .715-.117a.82.82 0 0 0 .399-.322.9.9 0 0 0 .123-.469.77.77 0 0 0-.217-.551 2.3 2.3 0 0 0-.597-.428q-.376-.198-.85-.427a10 10 0 0 1-.65-.34 4 4 0 0 1-.668-.498 2.4 2.4 0 0 1-.522-.709q-.2-.422-.2-1.008 0-.768.352-1.312a2.2 2.2 0 0 1 1.002-.832q.657-.293 1.547-.293.669 0 1.272.158.61.152 1.271.445l-.586 1.412a10 10 0 0 0-1.06-.369 3.4 3.4 0 0 0-.955-.135q-.34 0-.58.112a.8.8 0 0 0-.364.304.8.8 0 0 0-.123.451.78.78 0 0 0 .176.516q.18.205.54.399.362.192.901.451.657.31 1.12.65.468.334.72.791.252.451.252 1.125M43.148 341h-1.817v-7.055h-2.326v-1.511h6.469v1.511h-2.326zm6.38-8.566q1.166 0 1.922.281.762.281 1.131.849.37.569.37 1.436 0 .586-.224 1.025a2.35 2.35 0 0 1-.585.745 3.5 3.5 0 0 1-.786.498l2.52 3.732H51.86l-2.045-3.287h-.966V341h-1.817v-8.566zm-.129 1.488h-.55v2.314h.585q.903 0 1.29-.298.392-.305.392-.891 0-.609-.422-.867-.416-.258-1.295-.258M60.13 341h-4.934v-8.566h4.934v1.488h-3.117v1.881h2.9v1.488h-2.9v2.209h3.117zm7.277 0-.621-2.039h-3.123L63.04 341h-1.957l3.023-8.602h2.22L69.364 341zm-1.055-3.562-.621-1.993q-.06-.199-.158-.509l-.194-.639a16 16 0 0 1-.152-.568q-.059.24-.164.597a55 55 0 0 1-.328 1.119l-.615 1.993zM74.314 341l-2.063-6.721h-.053l.036.727q.03.48.052 1.025.024.546.024.985V341h-1.623v-8.566h2.472l2.028 6.55h.035l2.15-6.55h2.473V341h-1.693v-4.055q0-.404.011-.931a62 62 0 0 1 .041-1.002l.036-.721h-.053L75.977 341zm-45.427 8.822q-.521 0-.925.205a1.85 1.85 0 0 0-.674.58q-.27.381-.41.92-.141.54-.141 1.213 0 .909.223 1.553.228.639.703.978.474.334 1.224.334.522 0 1.043-.117a10 10 0 0 0 1.143-.334v1.524a5.6 5.6 0 0 1-1.12.334q-.55.105-1.235.105-1.325 0-2.18-.545a3.3 3.3 0 0 1-1.26-1.535q-.41-.99-.41-2.308 0-.974.264-1.782a4 4 0 0 1 .773-1.4q.51-.592 1.26-.914t1.722-.322q.639 0 1.278.164.645.158 1.23.439l-.586 1.477a10 10 0 0 0-.966-.399 2.9 2.9 0 0 0-.956-.17m12.03 2.883q0 .99-.247 1.805a3.8 3.8 0 0 1-.75 1.394 3.26 3.26 0 0 1-1.265.903q-.767.31-1.817.31-1.048 0-1.816-.31a3.3 3.3 0 0 1-1.271-.903 3.85 3.85 0 0 1-.745-1.4 6.3 6.3 0 0 1-.246-1.811q0-1.33.434-2.314a3.3 3.3 0 0 1 1.347-1.535q.909-.546 2.31-.545 1.393 0 2.29.545a3.3 3.3 0 0 1 1.336 1.535q.44.99.44 2.326m-6.253 0q0 .897.223 1.547.228.645.71.996.48.346 1.241.346.774 0 1.254-.346.48-.351.697-.996.223-.65.223-1.547 0-1.347-.504-2.121-.503-.774-1.658-.773-.768 0-1.254.351-.48.346-.709.996-.222.645-.223 1.547M50.533 357h-2.31l-3.726-6.48h-.052q.023.404.04.814l.036.82.035.815V357h-1.623v-8.566h2.29l3.722 6.416h.04q-.01-.4-.029-.791l-.035-.786-.023-.785v-4.054h1.635zm4.189 0h-1.787v-8.566h4.91v1.488H54.72v2.209h2.906v1.482H54.72zm5.039 0v-8.566h1.816V357zm7.464-4.811h3.399v4.442q-.674.222-1.4.357a9.5 9.5 0 0 1-1.647.129q-1.278 0-2.168-.504t-1.354-1.488q-.462-.984-.463-2.42 0-1.348.516-2.332a3.63 3.63 0 0 1 1.517-1.523q1.003-.54 2.444-.539.68 0 1.342.146.662.147 1.2.381l-.603 1.453a4.6 4.6 0 0 0-.896-.334 4 4 0 0 0-1.055-.135q-.79 0-1.377.364a2.44 2.44 0 0 0-.902 1.019q-.317.65-.317 1.535 0 .838.229 1.489.229.644.72 1.013.493.363 1.284.363.387 0 .65-.035.27-.04.504-.082v-1.787h-1.623z"/>
    <path fill="#fff" stroke="#D2D4DB" stroke-width="1.5" d="M12.75 237c0-.69.56-1.25 1.25-1.25h68c.69 0 1.25.56 1.25 1.25v68c0 .69-.56 1.25-1.25 1.25H14c-.69 0-1.25-.56-1.25-1.25z"/>
    <mask id="e" fill="#fff">
      <rect width="28" height="32" x="34" y="255" rx="1"/>
    </mask>
    <rect width="28" height="32" x="34" y="255" stroke="#000" stroke-width="4" mask="url(#e)" rx="1"/>
    <rect width="18" height="2" x="39" y="263" fill="#000" rx="1"/>
    <rect width="18" height="2" x="39" y="269" fill="#000" rx="1"/>
    <rect width="10" height="2" x="39" y="275" fill="#000" rx="1"/>
    <mask id="f" fill="#fff">
      <path fill-rule="evenodd" d="M48 247a4 4 0 0 0-4 4v1h-3a2 2 0 0 0-2 2v4a2 2 0 0 0 2 2h14a2 2 0 0 0 2-2v-4a2 2 0 0 0-2-2h-3v-1a4 4 0 0 0-4-4" clip-rule="evenodd"/>
    </mask>
    <path fill="#fff" fill-rule="evenodd" d="M48 247a4 4 0 0 0-4 4v1h-3a2 2 0 0 0-2 2v4a2 2 0 0 0 2 2h14a2 2 0 0 0 2-2v-4a2 2 0 0 0-2-2h-3v-1a4 4 0 0 0-4-4" clip-rule="evenodd"/>
    <path fill="#000" d="M44 252v2a2 2 0 0 0 2-2zm-5 2h2zm0 4h-2zm2 2v2zm14 0v-2zm2-2h-2zm0-4h2zm-5-2h-2a2 2 0 0 0 2 2zm-6-1a2 2 0 0 1 2-2v-4a6 6 0 0 0-6 6zm0 1v-1h-4v1zm-5 2h3v-4h-3zm0 0v-4a4 4 0 0 0-4 4zm0 4v-4h-4v4zm0 0h-4a4 4 0 0 0 4 4zm14 0H41v4h14zm0 0v4a4 4 0 0 0 4-4zm0-4v4h4v-4zm0 0h4a4 4 0 0 0-4-4zm-3 0h3v-4h-3zm-2-3v1h4v-1zm-2-2a2 2 0 0 1 2 2h4a6 6 0 0 0-6-6z" mask="url(#f)"/>
  </g>
  <path stroke="#E5544B" stroke-width="6" d="m3.478 227.478 25.044 25.044m0-25.044L3.478 252.522"/>
  <path stroke="#CA2171" stroke-linecap="round" stroke-linejoin="round" stroke-width="2" d="M443 257h-7"/>
  <path fill="#CA2171" fill-rule="evenodd" d="m441.72 257-4.22 4.137 1.39 1.363 5.61-5.5-5.61-5.5-1.39 1.363z" clip-rule="evenodd"/>
  <circle cx="84" cy="238" r="13.25" fill="#CA2171" stroke="#fff" stroke-width="1.5"/>
  <circle cx="250" cy="103" r="13.25" fill="#CA2171" stroke="#fff" stroke-width="1.5"/>
  <path fill="#fff" d="M85.576 243H83.55v-5.542l.02-.911.033-.996q-.505.505-.701.662l-1.1.884-.977-1.218 3.086-2.457h1.664zm167.683-135h-6.695v-1.408l2.404-2.431a35 35 0 0 0 1.166-1.245q.445-.504.642-.917.204-.413.204-.884 0-.57-.321-.852-.315-.288-.846-.288-.556 0-1.081.255a5.6 5.6 0 0 0-1.094.728l-1.1-1.304q.412-.354.871-.668.465-.315 1.075-.505.615-.196 1.474-.196.942 0 1.618.34.68.342 1.048.93.367.584.367 1.324a3.3 3.3 0 0 1-.315 1.448 5.2 5.2 0 0 1-.917 1.297q-.596.642-1.441 1.421l-1.232 1.16v.092h4.173z"/>
  <circle cx="426" cy="186" r="13.25" fill="#CA2171" stroke="#fff" stroke-width="1.5"/>
  <path fill="#fff" d="M428.886 183.564q0 .663-.275 1.147a2.3 2.3 0 0 1-.747.793q-.466.308-1.048.452v.039q1.152.144 1.749.707.603.564.603 1.507 0 .838-.413 1.5-.406.663-1.258 1.042-.852.38-2.195.38a8 8 0 0 1-1.48-.131 5.8 5.8 0 0 1-1.284-.387v-1.722q.616.314 1.29.478.675.157 1.258.157 1.088 0 1.52-.373.44-.38.439-1.062 0-.4-.203-.674-.202-.276-.708-.42-.497-.144-1.395-.144h-.727v-1.552h.74q.884 0 1.343-.164.465-.171.629-.459.17-.294.17-.668 0-.511-.314-.799-.315-.288-1.048-.289-.46 0-.839.118a3.5 3.5 0 0 0-.675.276 6 6 0 0 0-.53.307l-.937-1.395a5.2 5.2 0 0 1 1.317-.675q.76-.268 1.808-.268 1.48 0 2.345.596t.865 1.683"/>
  <path fill="#F7F8FA" fill-rule="evenodd" d="M135 1.678C135 .75 135.751 0 136.678 0h193.644c.927 0 1.678.751 1.678 1.678v16.644c0 .927-.751 1.678-1.678 1.678H136.678A1.68 1.68 0 0 1 135 18.322z" clip-rule="evenodd"/>
  <path fill="#252937" d="M145.983 6.561V14h-.745l-.08-.694q-.292.403-.675.603-.382.202-.825.202-1.007 0-1.52-.735-.504-.735-.503-2.023 0-.795.251-1.42.252-.633.715-.986a1.77 1.77 0 0 1 1.107-.362q.876 0 1.429.634V6.46zM143.93 9.27q-.665 0-1.027.524-.352.524-.352 1.56 0 1.026.322 1.56.332.523.956.523.754 0 1.308-.845V9.954a1.5 1.5 0 0 0-.533-.504 1.3 1.3 0 0 0-.674-.18m7.867 3.573q0 .313.101.463a.6.6 0 0 0 .332.212l-.212.604q-.774-.1-.966-.755a1.8 1.8 0 0 1-.715.553 2.3 2.3 0 0 1-.946.192q-.795 0-1.258-.443-.453-.442-.453-1.188 0-.815.634-1.258.645-.443 1.842-.443h.785v-.433q0-.564-.322-.805-.321-.252-.936-.252-.603 0-1.379.272l-.231-.644q.936-.332 1.741-.332.966 0 1.47.453.513.453.513 1.258zm-2.194.635q.392 0 .745-.202.362-.202.593-.553v-1.36h-.765q-.844 0-1.218.283-.372.282-.372.825 0 1.007 1.017 1.007m8.642.251q-.271.182-.664.282-.383.1-.765.1-.835 0-1.309-.432-.473-.442-.473-1.158V9.36h-1.218v-.665h1.218V7.498l.846-.101v1.298h1.842l-.111.665h-1.731v3.15q0 .453.241.675.242.22.775.221.544 0 1.017-.252zm5.623-.886q0 .313.101.463a.6.6 0 0 0 .332.212l-.212.604q-.774-.1-.966-.755a1.8 1.8 0 0 1-.715.553 2.3 2.3 0 0 1-.946.192q-.795 0-1.258-.443-.453-.442-.453-1.188 0-.815.634-1.258.645-.443 1.842-.443h.785v-.433q0-.564-.322-.805-.322-.252-.936-.252-.604 0-1.379.272l-.231-.644q.936-.332 1.741-.332.966 0 1.47.453.513.453.513 1.258zm-2.194.635q.392 0 .744-.202a1.7 1.7 0 0 0 .594-.553v-1.36h-.765q-.844 0-1.218.283-.372.282-.372.825 0 1.007 1.017 1.007m5.27-4.087q.614-.805 1.52-.805 1.017 0 1.5.724.483.725.483 2.034 0 1.248-.554 2.013-.553.755-1.55.755-.915 0-1.439-.665l-.061.554h-.744v-7.44l.845-.1zm1.208 4.036q.665 0 1.017-.523.362-.525.362-1.56 0-1.027-.322-1.55-.312-.524-.936-.524-.403 0-.745.242a2.5 2.5 0 0 0-.584.604v2.627q.211.321.524.503.312.18.684.181m7.787-.584q0 .313.101.463a.6.6 0 0 0 .332.212l-.212.604q-.774-.1-.966-.755a1.8 1.8 0 0 1-.715.553 2.3 2.3 0 0 1-.946.192q-.795 0-1.258-.443-.453-.442-.453-1.188 0-.815.634-1.258.645-.443 1.842-.443h.785v-.433q0-.564-.322-.805-.323-.252-.936-.252-.604 0-1.379.272l-.231-.644q.936-.332 1.741-.332.966 0 1.47.453.513.453.513 1.258zm-2.194.635q.392 0 .744-.202a1.7 1.7 0 0 0 .594-.553v-1.36h-.765q-.844 0-1.218.283-.372.282-.372.825 0 1.007 1.017 1.007m6.236-.06q.605 0 .957-.232.352-.233.352-.614a.85.85 0 0 0-.091-.423q-.09-.171-.362-.302-.272-.141-.825-.282-.927-.232-1.369-.553-.444-.332-.443-.977 0-.664.553-1.057.554-.392 1.46-.392 1.107 0 1.932.583l-.382.584a2.7 2.7 0 0 0-.695-.352 2.5 2.5 0 0 0-.835-.13q-1.147-.001-1.147.694 0 .241.12.392.131.15.413.272.292.11.866.272.865.231 1.288.594.433.352.433 1.036 0 .796-.644 1.188-.645.393-1.581.393-1.248 0-2.073-.715l.473-.554q.323.263.735.423.412.15.865.151m4.898-1.772q.031.875.453 1.318.433.444 1.087.443.393 0 .715-.11a3.5 3.5 0 0 0 .705-.363l.392.564a2.8 2.8 0 0 1-.855.453 3 3 0 0 1-.957.16q-1.147 0-1.791-.744-.634-.755-.634-2.013 0-.795.281-1.42.282-.633.806-.986a2.1 2.1 0 0 1 1.218-.362q1.006 0 1.58.704.584.694.584 1.903 0 .231-.02.453zm1.43-2.366q-.615 0-.997.443-.382.434-.433 1.278h2.758q-.01-.835-.362-1.278t-.966-.443m5.049 3.946a.85.85 0 0 1 .251-.624.87.87 0 0 1 .635-.262q.382 0 .634.262a.85.85 0 0 1 .251.624.86.86 0 0 1-.885.886.88.88 0 0 1-.635-.252.88.88 0 0 1-.251-.634m6.73.191q.603 0 .956-.231.352-.233.352-.614a.86.86 0 0 0-.09-.423q-.09-.171-.363-.302-.272-.141-.825-.282-.926-.232-1.369-.553-.443-.332-.443-.977 0-.664.554-1.057.553-.392 1.459-.392 1.108 0 1.933.583l-.383.584a2.7 2.7 0 0 0-.694-.352 2.5 2.5 0 0 0-.836-.13q-1.147-.001-1.147.694 0 .241.121.392.131.15.412.272.293.11.866.272.866.231 1.288.594.433.352.433 1.036 0 .796-.644 1.188-.644.393-1.58.393-1.248 0-2.074-.715l.473-.554q.323.263.735.423.413.15.866.151m6.72.584h-.977l-1.922-5.305h.906l1.53 4.54 1.51-4.54h.885zm5.945-.614q.694 0 1.379-.463l.402.554a2.4 2.4 0 0 1-.825.463 2.9 2.9 0 0 1-.956.17q-1.179 0-1.842-.734-.655-.745-.655-2.003 0-.795.292-1.43.303-.633.866-.996.564-.362 1.339-.362 1.026 0 1.771.624l-.413.553q-.695-.462-1.368-.463-.715 0-1.148.534-.423.523-.423 1.54t.423 1.52q.433.493 1.158.493m4.747-.161a.85.85 0 0 1 .251-.624.87.87 0 0 1 .634-.262q.383 0 .635.262a.85.85 0 0 1 .251.624.86.86 0 0 1-.251.634.86.86 0 0 1-.635.252.88.88 0 0 1-.634-.252.88.88 0 0 1-.251-.634m7.324.161q.694 0 1.379-.463l.402.554a2.4 2.4 0 0 1-.825.463 2.9 2.9 0 0 1-.956.17q-1.179 0-1.842-.734-.655-.745-.655-2.003 0-.795.292-1.43.302-.633.866-.996.564-.362 1.339-.362 1.026 0 1.771.624l-.413.553q-.695-.462-1.368-.463-.715 0-1.148.534-.423.523-.423 1.54t.423 1.52q.433.493 1.158.493m5.703-.694q0 .714.876.714.412 0 .885-.181l.222.614q-.504.272-1.258.272-.715 0-1.148-.393-.423-.392-.423-1.067V7.236h-1.63V6.56h2.476zm4.807-.232q0 .513.212.755.221.231.684.231.423 0 .816-.241.392-.242.624-.604V8.695h.845V14h-.725l-.07-.715a2.2 2.2 0 0 1-.775.614 2.2 2.2 0 0 1-.926.212q-.755 0-1.148-.403-.382-.402-.382-1.158V8.696h.845zm7.002.956q.605 0 .956-.231.353-.233.353-.614a.86.86 0 0 0-.091-.423q-.09-.171-.362-.302-.272-.141-.826-.282-.925-.232-1.369-.553-.442-.332-.442-.977 0-.664.553-1.057.554-.392 1.46-.392 1.107 0 1.932.583l-.382.584a2.7 2.7 0 0 0-.695-.352 2.5 2.5 0 0 0-.835-.13q-1.148-.001-1.148.694 0 .241.121.392.13.15.413.272.291.11.865.272.867.231 1.289.594.433.352.433 1.036 0 .796-.645 1.188-.644.393-1.58.393-1.248 0-2.073-.715l.473-.554q.321.263.734.423.413.15.866.151m8.441.312q-.271.182-.664.282-.382.1-.765.1-.835 0-1.309-.432-.473-.442-.473-1.158V9.36h-1.218v-.665h1.218V7.498l.846-.101v1.298h1.842l-.111.665h-1.731v3.15q0 .453.241.675.242.22.776.221a2.1 2.1 0 0 0 1.016-.252zm2.493-2.083q.03.875.453 1.318.433.444 1.087.443.392 0 .714-.11.333-.121.705-.363l.393.564a2.8 2.8 0 0 1-.856.453 3 3 0 0 1-.956.16q-1.148 0-1.792-.744-.634-.755-.634-2.013 0-.795.282-1.42.282-.633.805-.986a2.1 2.1 0 0 1 1.218-.362q1.007 0 1.58.704.584.694.584 1.903 0 .231-.02.453zm1.429-2.366q-.614 0-.997.443-.382.434-.432 1.278h2.758q-.01-.835-.363-1.278-.352-.443-.966-.443m7.515-.694q.322 0 .745.11l-.121 1.802h-.684V9.36h-.051q-1.228 0-1.741 1.751v2.235h1.077V14h-2.758v-.654h.836V9.35h-.836v-.655h1.47l.161 1.259q.321-.685.765-1.027.453-.342 1.137-.342m3.57 4.64q0-.372.251-.624a.87.87 0 0 1 .634-.262q.383 0 .634.262a.85.85 0 0 1 .252.624.86.86 0 0 1-.886.886.88.88 0 0 1-.634-.252.88.88 0 0 1-.251-.634m6.991-.534q0 .715.876.715.412 0 .886-.181l.221.614q-.503.272-1.258.272-.714 0-1.148-.393-.422-.392-.422-1.067V7.236h-1.631V6.56h2.476zm5.985-4.106q1.098 0 1.681.745.594.734.594 2.013 0 1.248-.604 2.013-.594.755-1.681.755-1.097 0-1.691-.735-.594-.745-.594-2.023 0-1.26.594-2.013.605-.755 1.701-.755m0 .694q-.694 0-1.036.514-.343.513-.343 1.56t.333 1.56q.342.503 1.036.503.695 0 1.027-.503.342-.514.342-1.57 0-1.047-.342-1.55-.332-.514-1.017-.514m6.418 4.107q.695 0 1.379-.463l.403.554a2.5 2.5 0 0 1-.825.463 2.9 2.9 0 0 1-.957.17q-1.178 0-1.842-.734-.654-.745-.654-2.003 0-.795.292-1.43.302-.633.866-.996.563-.362 1.338-.362 1.027 0 1.772.624l-.413.553q-.694-.462-1.369-.463-.714 0-1.147.534-.423.523-.423 1.54t.423 1.52q.432.493 1.157.493m7.435-.544q0 .313.101.463a.6.6 0 0 0 .332.212l-.212.604q-.774-.1-.966-.755a1.8 1.8 0 0 1-.715.553 2.3 2.3 0 0 1-.946.192q-.795 0-1.258-.443-.453-.442-.453-1.188 0-.815.634-1.258.645-.443 1.842-.443h.785v-.433q0-.564-.322-.805-.321-.252-.936-.252-.603 0-1.379.272l-.231-.644q.936-.332 1.741-.332.966 0 1.47.453.513.453.513 1.258zm-2.194.635q.392 0 .744-.202a1.7 1.7 0 0 0 .594-.553v-1.36h-.765q-.844 0-1.218.283-.372.282-.372.825 0 1.007 1.017 1.007m6.498-.786q0 .715.876.715.412 0 .886-.181l.221.614q-.503.272-1.258.272-.715 0-1.148-.393-.422-.392-.422-1.067V7.236h-1.631V6.56h2.476zm5.16-3.03q0-.331.231-.563a.77.77 0 0 1 .574-.242q.353 0 .584.242a.77.77 0 0 1 .231.564.8.8 0 0 1-.231.583.77.77 0 0 1-.584.242.76.76 0 0 1-.574-.242.8.8 0 0 1-.231-.583m0 3.634q0-.332.231-.573a.76.76 0 0 1 .574-.242q.353 0 .584.242a.78.78 0 0 1 .231.573.79.79 0 0 1-.815.816.79.79 0 0 1-.805-.815m8.612-5.546h-2.738v2.184q.292-.17.574-.231a2.6 2.6 0 0 1 .614-.07q.866 0 1.379.573.524.574.524 1.6 0 .685-.292 1.209-.282.523-.816.815-.533.282-1.238.282-1.158 0-2.013-.826l.523-.513q.635.645 1.49.644.695 0 1.077-.423.383-.421.383-1.218 0-.785-.343-1.127-.342-.352-.915-.352-.273 0-.494.05a5 5 0 0 0-.584.181h-.684V7.065h3.674zm6.569 4.57h-.896V14h-.815v-1.681h-2.879v-.624l2.033-4.741.705.302-1.842 4.379h1.993l.071-1.963h.734v1.963h.896zm3.429-5.365q.634 0 1.117.242.483.23.745.634.261.392.261.865 0 .604-.392 1.057-.393.443-.956.554.654.05 1.107.493.463.443.463 1.208 0 .594-.302 1.077a2.04 2.04 0 0 1-.856.755 2.75 2.75 0 0 1-1.248.272 3.2 3.2 0 0 1-1.188-.232 2.35 2.35 0 0 1-.936-.684l.564-.463q.282.331.685.513.413.171.855.171.725 0 1.127-.372.414-.382.413-1.037 0-1.32-1.439-1.319h-.574l.101-.674h.412q.544 0 .926-.302.383-.312.383-.906 0-.553-.373-.855-.361-.313-.936-.313-.433 0-.775.151-.332.151-.694.484l-.463-.514q.845-.805 1.973-.805m6.035 0q.635 0 1.107.252.483.251.735.694.252.434.252.987 0 .644-.302 1.248-.292.603-.946 1.328-.655.715-1.852 1.812h3.261l-.101.725h-4.127v-.684q1.359-1.299 2.013-2.034.665-.735.916-1.258a2.5 2.5 0 0 0 .252-1.107q0-.585-.332-.916-.333-.332-.916-.332-.493 0-.826.17-.322.162-.664.564l-.584-.452q.413-.514.916-.755.514-.242 1.198-.242"/>
  <defs>
    <linearGradient id="a" x1="426.5" x2="426.5" y1="54.573" y2="351.204" gradientUnits="userSpaceOnUse">
      <stop stop-color="#E80134"/>
      <stop offset="1" stop-color="#AC0027"/>
    </linearGradient>
    <linearGradient id="d" x1="249.5" x2="249.5" y1="54.573" y2="351.204" gradientUnits="userSpaceOnUse">
      <stop stop-color="#E80134"/>
      <stop offset="1" stop-color="#AC0027"/>
    </linearGradient>
  </defs>
</svg>
