<svg xmlns="http://www.w3.org/2000/svg" width="456" height="589" fill="none" viewBox="0 0 456 589" xmlns:xlink="http://www.w3.org/1999/xlink">
  <g opacity=".7">
    <path fill="#FFEC6E" d="M152.798 90.485c-.164-.216-.479-.347-.806-.347-.164 0-.315.028-.466.094a.96.96 0 0 0-.353.263l-82.521 106.43-.063.075h2.154l81.261-104.78 75.832 97.784.164.216v-2.766l-75.177-96.922z"/>
    <path fill="#FFEC6E" d="M152.647 57.672a1.3 1.3 0 0 0-.189-.113 1.1 1.1 0 0 0-.454-.094 1.3 1.3 0 0 0-.466.094l-.088.038v.009a.9.9 0 0 0-.265.225L43.32 196.925l-.063.075h2.154L151.992 59.547l75.844 97.794.164.206v-2.776l-75.202-96.959a.7.7 0 0 0-.151-.14"/>
    <path fill="#FFEC6E" d="M152.798 74.149c-.164-.216-.479-.347-.806-.347-.164 0-.315.028-.466.093a.96.96 0 0 0-.353.263L55.98 196.925l-.05.075h2.14l93.934-121.116 75.832 97.784.164.216v-2.776l-75.177-96.922z"/>
    <path fill="#FFEC6E" d="M152.798 25.149c-.164-.216-.479-.347-.806-.347-.164 0-.315.028-.466.093a.96.96 0 0 0-.353.263L17.988 196.925l-.063.075h2.142L152.004 26.884l75.832 97.784.164.216v-2.776l-75.177-96.922z"/>
    <path fill="#FFEC6E" d="M152.823 41.41h-.088l-.013-.01-.012-.037-.076-.028a.5.5 0 0 0-.088-.056c-.025-.01-.051-.028-.088-.047-.038-.019-.076-.028-.114-.038a.7.7 0 0 0-.226-.047c-.051-.009-.089-.009-.126-.009a1 1 0 0 0-.177.019c-.025 0-.063.01-.113.019l-.101.028c-.025.01-.05.01-.075.028l-.089.037c-.05.02-.075.047-.1.066l-.126.075v.038c-.013.018-.038.037-.051.056L30.648 196.925l-.063.075h2.154L152.004 43.22l75.832 97.784.164.207v-2.776l-75.177-96.922zm-.428-.037s0-.01 0 0"/>
    <path fill="#FFEC6E" d="M7.407 197 152.004 10.557l75.832 97.784.164.216v-2.786l-71.159-91.754-4.005-5.167-.026-.038c-.163-.215-.478-.347-.806-.347-.164 0-.315.028-.466.094a1 1 0 0 0-.353.263L5.315 196.925l-.062.075z"/>
    <g fill="#FFEC6E" clip-path="url(#a)">
      <path d="m81.326 197.071-.055-.07h2.148L228 383.444v2.768zm63.275-.07h2.147L228 301.775v2.768l-83.344-107.472zm-37.997 0h2.148L228 350.775v2.768L106.659 197.071zm-12.67 0h2.148L228 367.107v2.768L93.99 197.071zm25.334 0h2.147L228 334.439v2.768L119.322 197.071zm12.669 0h2.148L228 318.107v2.768l-96.008-123.804zm90.805 0 5.258 6.784v2.768l-7.405-9.552zm-65.485 0h2.148L228 285.459v2.758l-70.688-91.146zm12.671 0h2.147L228 269.127v2.763l-58.017-74.819zm12.663 0h2.147L228 252.79v2.763l-45.354-58.482zm27.481 0L228 220.127v2.758l-20.075-25.884zm-12.664 0L228 236.459v2.763l-32.739-42.221zM37.195 335.487a.86.86 0 0 1 .34-.251 1.22 1.22 0 0 1 .935.001.9.9 0 0 1 .348.265l44.58 57.499h-2.147l-43.254-55.78L0 386.216v-2.772l37.17-47.919zm.802-79.934L0 304.548v-2.772l37.17-47.919.025-.038a.86.86 0 0 1 .34-.251 1.2 1.2 0 0 1 .936.001.9.9 0 0 1 .347.265L146.681 392.93l.054.071h-2.147zm-.802 14.602a.86.86 0 0 1 .34-.251 1.2 1.2 0 0 1 .935.001.9.9 0 0 1 .348.265l95.249 122.831h-2.148L37.997 271.889 0 320.884v-2.772l37.17-47.918zm.802 15.983c.164 0 .325.032.468.092a.8.8 0 0 1 .31.231L121.34 392.93l.054.071h-2.147l-81.251-104.78L0 337.216v-2.767l37.195-47.967a.9.9 0 0 1 .34-.251c.14-.06.3-.092.462-.093m0 16.337c.164 0 .326.032.47.092a.8.8 0 0 1 .306.229l69.898 90.134.055.071h-2.148l-68.581-88.448L0 353.548v-2.767l37.195-47.962a.85.85 0 0 1 .34-.251c.14-.061.3-.093.462-.093m-.773 16.651a.4.4 0 0 1 .113-.102 1 1 0 0 1 .197-.116.5.5 0 0 1 .112-.04.8.8 0 0 1 .224-.046 1.1 1.1 0 0 1 .587.078l.089.04.002.004a.4.4 0 0 1 .1.069l.051.042a.2.2 0 0 1 .066.061 1 1 0 0 1 .06.069l57.237 73.816h-2.147l-55.918-72.116-37.997 49v-2.773l37.206-47.968zm.454-.113h.002l-.003-.004zm-.073.029-.001-.002z"/>
    </g>
    <g clip-path="url(#b)">
      <path fill="#FFEC6E" d="M37.195 450.514a.86.86 0 0 0 .34.252 1.2 1.2 0 0 0 .935-.001.9.9 0 0 0 .348-.266l44.58-57.498h-2.147l-43.254 55.78L0 399.786v2.772l37.17 47.918zm.802 79.935L0 481.454v2.772l37.17 47.919.025.038a.86.86 0 0 0 .34.251 1.2 1.2 0 0 0 .935-.001.9.9 0 0 0 .348-.265l107.863-139.097.054-.07h-2.147zm-.802-14.602c.082.104.2.19.34.251a1.22 1.22 0 0 0 .936-.001.9.9 0 0 0 .347-.266l95.249-122.83h-2.148L37.997 514.113 0 465.118v2.772l37.17 47.918zm.802-15.984c.164 0 .325-.031.468-.091a.8.8 0 0 0 .31-.232l82.566-106.469.055-.07h-2.148l-81.251 104.78L0 448.786v2.767l37.195 47.966a.85.85 0 0 0 .34.251c.14.061.3.093.462.093m0-16.336c.164 0 .326-.032.47-.092a.76.76 0 0 0 .306-.23l69.898-90.134.055-.07h-2.148l-68.581 88.448L0 432.454v2.767l37.195 47.962a.86.86 0 0 0 .34.251c.14.06.3.092.462.093m-.773-16.652a.4.4 0 0 0 .113.103 1 1 0 0 0 .197.116.5.5 0 0 0 .112.039q.106.04.224.047a1.1 1.1 0 0 0 .587-.078l.089-.041.002-.003a.4.4 0 0 0 .1-.069l.051-.042a.2.2 0 0 0 .066-.062.4.4 0 0 0 .06-.069l57.237-73.815h-2.147l-55.918 72.116-37.997-49v2.772l37.206 47.969zm.454.114h.002l-.003.004zm-.073-.03-.001.002z"/>
    </g>
    <g clip-path="url(#c)">
      <path fill="#FFEC6E" d="M265.195 138.486a.86.86 0 0 1 .339-.251 1.2 1.2 0 0 1 .936.001.9.9 0 0 1 .348.266L311.399 196h-2.148l-43.254-55.78L228 189.215v-2.772l37.169-47.919zm.802-79.934L228 107.547v-2.772l37.169-47.919.026-.038a.86.86 0 0 1 .34-.251 1.22 1.22 0 0 1 .935.001.9.9 0 0 1 .348.265l107.863 139.096.054.071h-2.147zm-.802 14.602a.86.86 0 0 1 .34-.25 1.22 1.22 0 0 1 .935.001.9.9 0 0 1 .348.264L362.067 196h-2.148L265.997 74.888 228 123.883v-2.772l37.169-47.918zm.802 15.984c.164 0 .325.031.468.091a.8.8 0 0 1 .31.231l82.566 106.469.054.071h-2.147L265.997 91.22 228 140.215v-2.767l37.195-47.967a.86.86 0 0 1 .34-.25c.14-.061.299-.093.462-.093m0 16.336c.164 0 .326.032.469.092a.8.8 0 0 1 .307.229l69.898 90.134.055.071h-2.148l-68.581-88.448L228 156.547v-2.767l37.195-47.962a.86.86 0 0 1 .34-.251c.14-.061.299-.093.462-.093m-.773 16.651a.4.4 0 0 1 .113-.102 1 1 0 0 1 .197-.116.4.4 0 0 1 .112-.039.7.7 0 0 1 .224-.047 1.1 1.1 0 0 1 .587.078l.089.04.002.004a.4.4 0 0 1 .1.069c.013.009.026.02.051.042a.2.2 0 0 1 .066.061 1 1 0 0 1 .06.069L324.062 196h-2.147l-55.918-72.116-37.997 49v-2.772l37.206-47.969zm.454-.113-.002-.004zm-.073.03.001-.001-.002-.002z"/>
    </g>
    <g clip-path="url(#d)">
      <path fill="#FFEC6E" d="m374.675 196.071.054-.07h-2.148L228 382.444v2.768zm-63.276-.07h-2.147L228 300.775v2.768l83.344-107.472zm37.997 0h-2.148L228 349.775v2.768l121.341-156.472zm12.67 0h-2.148L228 366.107v2.768l134.011-172.804zm-25.333 0h-2.148L228 333.439v2.768l108.678-140.136zm-12.67 0h-2.148L228 317.107v2.768l96.008-123.804z"/>
      <path fill="#fff" d="M418.805 334.487a.86.86 0 0 0-.339-.251 1.22 1.22 0 0 0-.936.001.9.9 0 0 0-.348.266l-44.581 57.498h2.148l43.254-55.78L456 385.216v-2.772l-37.169-47.919zm-.802-79.934L456 303.548v-2.772l-37.169-47.919-.026-.038a.86.86 0 0 0-.34-.251 1.2 1.2 0 0 0-.935.001.9.9 0 0 0-.348.265L309.319 391.93l-.054.071h2.147zm.802 14.602a.86.86 0 0 0-.34-.251 1.22 1.22 0 0 0-.935.001.9.9 0 0 0-.348.265l-95.249 122.831h2.148l93.922-121.112L456 319.884v-2.772l-37.169-47.918zm-.802 15.983c-.164 0-.325.032-.468.092a.8.8 0 0 0-.31.231L334.659 391.93l-.055.071h2.148l81.251-104.78L456 336.216v-2.767l-37.195-47.967a.9.9 0 0 0-.34-.251 1.2 1.2 0 0 0-.462-.093m0 16.337c-.164 0-.326.032-.469.092a.8.8 0 0 0-.307.229l-69.898 90.134-.055.071h2.148l68.581-88.448L456 352.548v-2.767l-37.195-47.962a.86.86 0 0 0-.34-.251 1.2 1.2 0 0 0-.462-.093m.773 16.651a.4.4 0 0 0-.113-.102 1 1 0 0 0-.197-.116.5.5 0 0 0-.112-.04.8.8 0 0 0-.224-.046 1.1 1.1 0 0 0-.587.078l-.089.04-.002.004a.4.4 0 0 0-.1.069l-.051.042a.2.2 0 0 0-.066.061.5.5 0 0 0-.06.069l-57.237 73.816h2.147l55.918-72.116 37.997 49v-2.773l-37.206-47.968zm-.454-.113.002-.004zm.073.029.002-.002z"/>
    </g>
  </g>
  <defs>
    <clipPath id="a">
      <path fill="#fff" d="M228 393.001H0v-196h228z"/>
    </clipPath>
    <clipPath id="b">
      <path fill="#fff" d="M0 393.001h228v196H0z"/>
    </clipPath>
    <clipPath id="c">
      <path fill="#fff" d="M456 196H228V0h228z"/>
    </clipPath>
    <clipPath id="d">
      <path fill="#fff" d="M456 392.001H228v-196h228z"/>
    </clipPath>
  </defs>
</svg>
