<svg xmlns="http://www.w3.org/2000/svg" xmlns:xlink="http://www.w3.org/1999/xlink" viewBox="0 0 1183 790">
  <defs>
    <filter id="b" width="112.7%" height="112.7%" x="-6.3%" y="-5.7%" filterUnits="objectBoundingBox">
      <feOffset dy="1" in="SourceAlpha" result="shadowOffsetOuter1"/>
      <feGaussianBlur in="shadowOffsetOuter1" result="shadowBlurOuter1" stdDeviation="3"/>
      <feColorMatrix in="shadowBlurOuter1" values="0 0 0 0 0.37254902 0 0 0 0 0.388235294 0 0 0 0 0.407843137 0 0 0 0.5 0"/>
    </filter>
    <rect id="a" width="150" height="150" rx="2"/>
  </defs>
  <g fill="none" fill-rule="evenodd">
    <path fill="#3C4043" d="M53.592 216h-3.375v-25.594h3.375zm8.736-19.02.106 2.391q2.18-2.742 5.695-2.742 6.03 0 6.082 6.803V216h-3.252v-12.586q-.018-2.057-.94-3.041-.924-.984-2.874-.984-1.582 0-2.778.843a5.73 5.73 0 0 0-1.863 2.215V216h-3.252v-19.02zm27.861 13.975q0-1.318-.993-2.048-.993-.729-3.463-1.257t-3.92-1.265q-1.45-.738-2.144-1.758t-.694-2.426q0-2.338 1.977-3.955t5.054-1.617q3.234 0 5.247 1.67c2.013 1.67 2.013 2.537 2.013 4.271h-3.27q0-1.335-1.134-2.302t-2.856-.967q-1.776 0-2.777.773-1.002.774-1.002 2.022 0 1.178.931 1.775.931.598 3.366 1.143c2.435.545 2.939.797 3.947 1.3q1.512.755 2.24 1.82.73 1.063.73 2.593 0 2.548-2.039 4.086t-5.29 1.539q-2.286 0-4.044-.809-1.758-.81-2.75-2.259-.994-1.45-.994-3.138h3.252q.088 1.636 1.31 2.593t3.225.958q1.846 0 2.962-.747t1.116-1.995m11.9-18.58v4.605h3.552v2.514h-3.551v11.795q0 1.143.474 1.714.475.57 1.618.571.562 0 1.547-.21V216a9.4 9.4 0 0 1-2.497.352q-2.179 0-3.287-1.319-1.107-1.318-1.107-3.744v-11.795h-3.463v-2.514h3.463v-4.605h3.252zM121.18 216q-.281-.562-.456-2.004-2.268 2.356-5.414 2.356-2.812 0-4.615-1.591-1.8-1.591-1.801-4.034 0-2.97 2.258-4.615 2.259-1.643 6.355-1.643h3.164v-1.494q0-1.705-1.02-2.716t-3.005-1.011q-1.74 0-2.918.879t-1.178 2.127h-3.27q0-1.424 1.011-2.751t2.742-2.1q1.732-.774 3.806-.774 3.287 0 5.15 1.643t1.934 4.527v8.754q0 2.619.668 4.166V216h-3.41zm-5.396-2.479q1.53 0 2.9-.79 1.372-.791 1.987-2.057v-3.903h-2.549q-5.976 0-5.976 3.499 0 1.53 1.02 2.39 1.019.861 2.618.861m16.313-16.54.105 2.39q2.18-2.742 5.695-2.742 6.03 0 6.083 6.803V216h-3.252v-12.586q-.018-2.057-.94-3.041-.924-.984-2.875-.984-1.582 0-2.777.843a5.73 5.73 0 0 0-1.864 2.215V216h-3.251v-19.02h3.076zm24.416 16.716q1.74 0 3.04-1.054 1.302-1.055 1.442-2.637h3.076q-.087 1.635-1.125 3.111-1.037 1.477-2.768 2.356a8 8 0 0 1-3.665.879q-3.885 0-6.179-2.593t-2.294-7.093v-.545q0-2.777 1.02-4.94 1.02-2.16 2.926-3.357 1.908-1.195 4.51-1.195 3.198 0 5.317 1.916 2.118 1.915 2.258 4.975h-3.076q-.141-1.846-1.397-3.033-1.257-1.185-3.103-1.186-2.478 0-3.84 1.784-1.363 1.785-1.363 5.16v.614q0 3.288 1.354 5.063 1.352 1.775 3.867 1.775m19.107 2.655q-3.867 0-6.293-2.54t-2.426-6.794v-.598q0-2.83 1.081-5.054 1.082-2.223 3.024-3.48t4.21-1.257q3.709 0 5.765 2.443 2.057 2.444 2.057 6.996v1.354h-12.885q.07 2.813 1.644 4.544t3.999 1.731q1.722 0 2.918-.703a7.3 7.3 0 0 0 2.092-1.863l1.986 1.547q-2.39 3.674-7.172 3.674m-.404-17.051q-1.969 0-3.305 1.432-1.335 1.433-1.652 4.017h9.527v-.246q-.14-2.479-1.336-3.84-1.196-1.364-3.234-1.363"/>
    <g fill-rule="nonzero">
      <path fill="#4285F4" d="M1119.539 72.397 1085.53 13.25a14.95 14.95 0 0 0-12.75-7.603h-68.03A14.94 14.94 0 0 0 992 13.25l-34.022 58.991a14.85 14.85 0 0 0 0 14.793l34.01 59.483a15.22 15.22 0 0 0 12.75 7.875h68.03a15.17 15.17 0 0 0 12.762-7.836l34.009-59.147a15.17 15.17 0 0 0 0-15.012"/>
      <path fill="#000" d="m1071.086 55.224-50.43-1.086-3.88 44.612 2.935 10.086 45.517 45.517h7.54a15.17 15.17 0 0 0 12.762-7.836l28.06-48.789z" opacity=".07"/>
      <path fill="#FFF" d="m1038.759 40.858-32.328 14.366V76.78c0 19.94 13.797 38.573 32.328 43.1 18.53-4.527 32.327-23.173 32.327-43.1V55.224zm0 15.22c5.713 0 10.344 4.631 10.344 10.344 0 5.714-4.631 10.345-10.344 10.345-5.714 0-10.345-4.631-10.345-10.345 0-5.713 4.631-10.344 10.345-10.344m19.396 42.775c0 .258-.076.51-.22.725-.232.349-.465.71-.724 1.047a36.04 36.04 0 0 1-18.452 13.228 36.04 36.04 0 0 1-18.453-13.163c-.259-.337-.491-.699-.724-1.048a1.3 1.3 0 0 1-.22-.724v-5.806c0-7.927 12.931-11.922 19.397-11.922s19.396 3.982 19.396 11.922z"/>
    </g>
    <path fill="#000" fill-rule="nonzero" d="M596.754 740.299h9.297l-14.126 48.09h-13.222l-14.119-48.09h9.294l11.451 40.007zm35.18 47.997h-7.102l-.629-2.288a18.66 18.66 0 0 1-10.279 3.092c-6.32 0-9.022-4.4-9.022-10.444 0-7.153 3.058-9.871 10.092-9.871h8.309v-3.687c0-3.891-1.054-5.267-6.61-5.267a47.7 47.7 0 0 0-9.582 1.07l-1.053-6.711a44.6 44.6 0 0 1 11.876-1.648c10.874 0 14.068 3.89 14.068 12.692v23.056zm-8.665-13.257h-6.406c-2.837 0-3.636.798-3.636 3.457 0 2.656.799 3.526 3.483 3.526a13.4 13.4 0 0 0 6.542-1.808l.034-5.175zm22.291-21.824v24.503c0 1.878.798 2.815 2.786 2.815a23.7 23.7 0 0 0 9.04-2.952v-24.364h8.664v35.101h-6.609l-.85-3.044a34.2 34.2 0 0 1-13.779 3.755c-5.742 0-7.798-4.098-7.798-10.373v-25.451h8.597zm25.078 35.081v-49.441l8.665-1.212v50.677zm34.524-.732a23.8 23.8 0 0 1-7.595 1.376c-6.32 0-9.514-3.024-9.514-9.298v-19.573h-5.182v-6.881h5.199v-8.716l8.648-1.24v9.956h8.869l-.544 6.864h-8.325v18.315a2.84 2.84 0 0 0 .798 2.345 2.69 2.69 0 0 0 2.328.747 17 17 0 0 0 4.332-.713l1.037 6.779-.051.04zM548 535l87.194 175L723 535zm97.572 35.13h10.15v10.085h-10.15zm-20.212 40.693h-10.15V600.56h10.15zm0-15.214h-10.15v-10.262h10.15zm0-15.214h-10.15v-10.262h10.15zm15.329 45.53h-10.262v-10.15h10.262zm0-15.215h-10.262v-10.143h10.262v10.16zm0-15.206h-10.262v-10.143h10.262v10.16zm0-15.274h-10.262v-10.075h10.262v10.092zm4.995 5.063h10.152v10.16h-10.28l.102-10.143zm0 25.366v-10.075h10.152v10.16l-10.16-.068z"/>
    <g fill-rule="nonzero">
      <g transform="translate(41 5)">
        <use xlink:href="#a" fill="#000" filter="url(#b)"/>
        <use xlink:href="#a" fill="#FFF"/>
      </g>
      <path fill="#9AA0A6" d="M146.87 70.009a1.41 1.41 0 0 0 1.436-1.41v-2.302a1.41 1.41 0 0 0-1.41-1.409h-7.202v-6.75a1.58 1.58 0 0 0-1.565-1.565h-6.737V49.41a1.41 1.41 0 0 0-1.41-1.41h-2.3a1.41 1.41 0 0 0-1.359 1.41v7.202h-7.629V49.41a1.41 1.41 0 0 0-1.422-1.41h-2.276a1.41 1.41 0 0 0-1.41 1.41v7.202h-7.577V49.41a1.41 1.41 0 0 0-1.41-1.41h-2.302a1.41 1.41 0 0 0-1.409 1.41v7.202h-6.724c-.852 0-1.55.675-1.578 1.526v6.711H85.41A1.41 1.41 0 0 0 84 66.26v2.301a1.41 1.41 0 0 0 1.41 1.41h7.176v7.565H85.41A1.41 1.41 0 0 0 84 78.944v2.34a1.41 1.41 0 0 0 1.41 1.423h7.176v7.578H85.41A1.41 1.41 0 0 0 84 91.694v2.302a1.41 1.41 0 0 0 1.41 1.41h7.176v6.698a1.58 1.58 0 0 0 1.565 1.564h6.737v7.203c0 .778.631 1.41 1.41 1.41h2.301a1.41 1.41 0 0 0 1.41-1.41v-7.203h7.577v7.203c0 .778.631 1.41 1.41 1.41h2.276a1.41 1.41 0 0 0 1.41-1.41v-7.203h7.641v7.203c0 .778.631 1.41 1.41 1.41h2.302a1.41 1.41 0 0 0 1.409-1.41v-7.203h6.737a1.58 1.58 0 0 0 1.513-1.564v-6.712h7.177a1.41 1.41 0 0 0 1.435-1.41v-2.3a1.41 1.41 0 0 0-1.41-1.41h-7.202v-7.565h7.177a1.41 1.41 0 0 0 1.435-1.422v-2.29a1.41 1.41 0 0 0-1.435-1.46h-7.177v-7.526zm-12.478 28.448H97.875V61.888h36.517z"/>
    </g>
    <path stroke="#5F6368" stroke-linecap="square" stroke-width="5" d="M727.5 628.5h311"/>
    <path fill="#5F6368" fill-rule="nonzero" d="M1042 422h-5V288h-12l14.5-29 14.5 29h-12zm0 62v147h-5V484zm-923-62h-5V248h5zm0 62v147h-5V484zm395 147H119v-5h395v-12l29 14.5-29 14.5z"/>
    <path fill="#3C4043" d="M12.647 464H.537v-1.688l6.398-7.11q1.42-1.613 1.961-2.621.54-1.01.54-2.089 0-1.447-.876-2.374t-2.336-.927q-1.752 0-2.724.997-.97.996-.97 2.774H.18q0-2.552 1.645-4.126 1.644-1.575 4.399-1.574 2.577 0 4.075 1.352 1.498 1.351 1.498 3.599 0 2.73-3.479 6.5l-4.95 5.37h9.28zm2.78-1.231q0-.61.363-1.016.361-.405 1.085-.406c.724-.001.848.135 1.098.406q.375.406.375 1.016 0 .584-.375.977c-.375.393-.616.394-1.098.394q-.723 0-1.085-.394-.363-.393-.362-.977zm19.044-7.008q-3.136-.902-4.564-2.216t-1.428-3.243q0-2.184 1.745-3.612t4.539-1.428q1.904 0 3.396.736t2.31 2.031q.82 1.295.82 2.831h-2.451q0-1.675-1.067-2.634-1.065-.958-3.008-.958-1.803 0-2.812.793-1.01.793-1.01 2.203 0 1.13.959 1.91c.959.78 1.726.997 3.263 1.429q2.304.646 3.605 1.428 1.301.78 1.93 1.822.628 1.04.628 2.45 0 2.247-1.752 3.599t-4.684 1.352a8.7 8.7 0 0 1-3.555-.73q-1.65-.73-2.545-2t-.895-2.881h2.45q0 1.676 1.238 2.647t3.307.97q1.929 0 2.958-.786 1.028-.787 1.028-2.146t-.952-2.1q-.953-.744-3.453-1.467m15.31 8.493q-2.793 0-4.545-1.835t-1.752-4.906v-.432q0-2.045.781-3.65.78-1.605 2.184-2.514a5.5 5.5 0 0 1 3.04-.907q2.679 0 4.164 1.764t1.486 5.053v.978h-9.306q.051 2.031 1.187 3.281t2.888 1.25q1.245 0 2.108-.507a5.3 5.3 0 0 0 1.51-1.346l1.435 1.118q-1.727 2.652-5.18 2.653m-.292-12.315q-1.422 0-2.386 1.035t-1.194 2.901h6.881v-.178q-.102-1.79-.965-2.774t-2.336-.984m10.588-1.675.076 1.726q1.574-1.98 4.114-1.98 4.355 0 4.392 4.913V464h-2.348v-9.09q-.013-1.485-.68-2.196-.666-.711-2.075-.711-1.142 0-2.006.61a4.14 4.14 0 0 0-1.346 1.599V464h-2.349v-13.736zm11.553 6.754q0-3.162 1.498-5.085t3.923-1.923q2.412 0 3.821 1.65v-7.16h2.349V464h-2.159l-.114-1.473q-1.41 1.727-3.923 1.727-2.386 0-3.89-1.955t-1.505-5.104zm2.349.266q0 2.336.964 3.656.965 1.32 2.666 1.32 2.235 0 3.263-2.005v-6.31q-1.053-1.942-3.237-1.942-1.726 0-2.692 1.333-.964 1.333-.964 3.948m25.136-1.523q-3.136-.902-4.564-2.216t-1.428-3.243q0-2.184 1.746-3.612t4.538-1.428q1.905 0 3.396.736 1.493.736 2.31 2.031.82 1.295.82 2.831h-2.45q0-1.675-1.067-2.634t-3.009-.958q-1.803 0-2.812.793c-1.009.793-1.01 1.263-1.01 2.203q0 1.13.96 1.91.957.78 3.262 1.429 2.304.646 3.606 1.428 1.3.78 1.93 1.822.627 1.04.628 2.45 0 2.247-1.752 3.599t-4.685 1.352a8.7 8.7 0 0 1-3.555-.73q-1.65-.73-2.545-2t-.895-2.881h2.45q0 1.676 1.238 2.647t3.307.97q1.93 0 2.958-.786 1.029-.787 1.029-2.146t-.953-2.1q-.951-.744-3.453-1.467M111.277 464h-2.348v-13.736h2.348zm-2.539-17.38q0-.57.35-.965.348-.393 1.034-.393.685 0 1.041.393.356.394.356.965c0 .571-.119.698-.356.952s-.584.381-1.04.381q-.687 0-1.036-.38-.349-.382-.349-.953m5.739 10.398q0-3.213 1.485-5.11 1.485-1.899 3.935-1.898 2.514 0 3.923 1.777l.115-1.523h2.145v13.406q0 2.666-1.58 4.202t-4.247 1.536q-1.486 0-2.907-.635-1.422-.634-2.171-1.739l1.219-1.409q1.51 1.866 3.694 1.866 1.713 0 2.672-.965.96-.964.959-2.716v-1.181q-1.41 1.625-3.847 1.625-2.413 0-3.904-1.942-1.491-1.943-1.491-5.294m2.36.266q0 2.324.953 3.65.952 1.327 2.666 1.327 2.222 0 3.263-2.019v-6.271q-1.08-1.968-3.238-1.968-1.713 0-2.678 1.333-.965 1.334-.965 3.948zm15.007-7.02.076 1.726q1.574-1.98 4.113-1.98 4.354 0 4.393 4.913V464h-2.349v-9.09q-.012-1.485-.68-2.196-.665-.711-2.075-.711-1.142 0-2.006.61a4.14 4.14 0 0 0-1.345 1.599V464h-2.349v-13.736zm17.824 13.99q-2.793 0-4.545-1.835t-1.752-4.906v-.432q0-2.045.78-3.65.782-1.605 2.184-2.514a5.5 5.5 0 0 1 3.041-.907q2.679 0 4.164 1.764t1.485 5.053v.978h-9.305q.051 2.031 1.187 3.281t2.888 1.25q1.245 0 2.107-.507a5.3 5.3 0 0 0 1.511-1.346l1.435 1.118q-1.727 2.652-5.18 2.653m-.292-12.315q-1.422 0-2.387 1.035c-.965 1.035-1.04 1.657-1.193 2.901h6.88v-.178q-.101-1.79-.964-2.774t-2.336-.984m7.795 5.079q0-3.162 1.498-5.085t3.923-1.923q2.412 0 3.821 1.65v-7.16h2.349V464h-2.158l-.115-1.473q-1.41 1.727-3.923 1.727-2.386 0-3.89-1.955t-1.505-5.104zm2.349.266q0 2.336.964 3.656.966 1.32 2.666 1.32 2.235 0 3.263-2.005v-6.31q-1.053-1.942-3.237-1.942-1.726 0-2.692 1.333-.964 1.333-.964 3.948m27.434-11.768h2.45v13.088q0 2.654-1.593 4.152t-4.247 1.498q-2.754 0-4.29-1.41t-1.537-3.948h2.438q0 1.587.87 2.476.87.89 2.52.889 1.51 0 2.443-.952.934-.953.946-2.666zm10.588 12.657.355 2.437.521-2.196 3.656-12.898h2.057l3.567 12.898.508 2.234.394-2.488 2.869-12.644h2.45L209.437 464h-2.221l-3.809-13.47-.292-1.409-.292 1.41L198.875 464h-2.222l-4.468-18.484h2.437zm32.03-10.652h-5.941V464h-2.425v-16.479h-5.929v-2.005h14.295z"/>
    <g fill-rule="nonzero">
      <path fill="#4285F4" d="M779.039 72.397 745.03 13.25a14.95 14.95 0 0 0-12.75-7.603h-68.03a14.94 14.94 0 0 0-12.75 7.603l-34.022 58.991a14.85 14.85 0 0 0 0 14.793l34.01 59.483a15.22 15.22 0 0 0 12.75 7.875h68.03a15.17 15.17 0 0 0 12.762-7.836l34.009-59.147a15.17 15.17 0 0 0 0-15.012"/>
      <path fill="#000" d="M769.276 104.336 713.31 48.358l-4.008 8.69-8.742-8.729-4.034 8.65-8.612-8.624-2.147 10.448-7.68 1.293-1.591 6.828-9.931 2.38 8.896 8.896-8.806 3.879 8.806 8.806-8.858 3.866 59.613 59.612h6.051a15.17 15.17 0 0 0 12.763-7.836z" opacity=".07"/>
      <path fill="#FFF" d="M705.797 71.078h-14.754a1.58 1.58 0 0 0-1.565 1.564v14.755c0 .866.699 1.57 1.565 1.577h14.754a1.58 1.58 0 0 0 1.513-1.577V72.642a1.58 1.58 0 0 0-1.564-1.564"/>
      <path fill="#FFF" d="M729.15 69.888a1.41 1.41 0 0 0 1.436-1.41v-2.301a1.41 1.41 0 0 0-1.41-1.41h-7.202v-6.75a1.58 1.58 0 0 0-1.565-1.564h-6.737v-7.164a1.41 1.41 0 0 0-1.41-1.41h-2.3a1.41 1.41 0 0 0-1.359 1.41v7.202h-7.629V49.29a1.41 1.41 0 0 0-1.422-1.41h-2.276a1.41 1.41 0 0 0-1.41 1.41v7.202h-7.577V49.29a1.41 1.41 0 0 0-1.41-1.41h-2.301a1.41 1.41 0 0 0-1.41 1.41v7.202h-6.724c-.852 0-1.55.675-1.578 1.526v6.711h-7.176a1.41 1.41 0 0 0-1.41 1.41v2.302a1.41 1.41 0 0 0 1.41 1.41h7.176v7.564h-7.176a1.41 1.41 0 0 0-1.41 1.41v2.34a1.41 1.41 0 0 0 1.41 1.422h7.176v7.578h-7.176a1.41 1.41 0 0 0-1.41 1.41v2.301a1.41 1.41 0 0 0 1.41 1.41h7.176v6.698a1.58 1.58 0 0 0 1.565 1.564h6.737v7.203c0 .778.631 1.41 1.41 1.41h2.301a1.41 1.41 0 0 0 1.41-1.41v-7.203h7.577v7.203c0 .778.631 1.41 1.41 1.41h2.276a1.41 1.41 0 0 0 1.41-1.41v-7.203h7.641v7.203c0 .778.631 1.41 1.41 1.41h2.302a1.41 1.41 0 0 0 1.41-1.41v-7.203h6.736a1.58 1.58 0 0 0 1.513-1.564v-6.711h7.177a1.41 1.41 0 0 0 1.435-1.41V91.56a1.41 1.41 0 0 0-1.41-1.41h-7.202v-7.564h7.177a1.41 1.41 0 0 0 1.435-1.422v-2.289a1.41 1.41 0 0 0-1.435-1.461h-7.177v-7.526zm-12.478 28.448h-36.517V61.767h36.517v36.57z"/>
    </g>
    <path fill="#3C4043" d="M647.205 206.824q-.474 4.06-2.997 6.267-2.523 2.205-6.706 2.206-4.535 0-7.269-3.252t-2.733-8.701v-2.461q0-3.568 1.274-6.276 1.275-2.706 3.613-4.157 2.337-1.45 5.414-1.45 4.078 0 6.539 2.276 2.46 2.277 2.865 6.302h-3.393q-.438-3.058-1.907-4.43-1.467-1.37-4.104-1.37-3.234 0-5.072 2.39-1.836 2.39-1.836 6.803v2.478q0 4.167 1.74 6.627t4.869 2.461q2.812 0 4.315-1.274t1.995-4.439zm3.234-1.564q0-2.796 1.1-5.028 1.098-2.232 3.058-3.445t4.473-1.213q3.885 0 6.284 2.69t2.4 7.154v.228q0 2.778-1.064 4.984-1.063 2.206-3.04 3.436t-4.545 1.23q-3.867 0-6.266-2.689t-2.4-7.119zm3.27.386q0 3.165 1.468 5.08 1.467 1.917 3.928 1.917 2.479 0 3.938-1.943 1.46-1.942 1.459-5.44 0-3.13-1.485-5.072-1.485-1.941-3.947-1.942-2.408 0-3.884 1.916-1.477 1.916-1.477 5.484m21.182-9.72.088 2.11q2.091-2.462 5.642-2.462 3.99 0 5.432 3.059a7.2 7.2 0 0 1 2.47-2.215q1.52-.844 3.594-.844 6.258 0 6.363 6.627v12.744h-3.251v-12.55q0-2.04-.932-3.05-.931-1.011-3.129-1.011-1.81 0-3.006 1.081t-1.389 2.91v12.62h-3.27v-12.463q0-4.148-4.06-4.148-3.198 0-4.377 2.725v13.886h-3.252v-19.02zm44.56 9.72q0 4.342-1.986 6.997t-5.38 2.654q-3.462 0-5.448-2.197v9.158h-3.252v-26.332h2.97l.159 2.11q1.986-2.462 5.52-2.462 3.426 0 5.422 2.584t1.995 7.19zm-3.252-.369q0-3.217-1.37-5.08-1.372-1.863-3.763-1.863-2.952 0-4.43 2.62v9.087q1.46 2.601 4.466 2.602 2.337 0 3.717-1.855t1.38-5.51zm19.125 7.787q-1.898 2.233-5.572 2.233-3.04 0-4.632-1.767-1.59-1.765-1.608-5.23v-12.374h3.252v12.287q0 4.324 3.515 4.324 3.727 0 4.957-2.777v-13.834h3.252v19.02h-3.093l-.07-1.882zm12.516-21.744v4.606h3.55v2.513h-3.55v11.795q0 1.143.474 1.714.475.572 1.618.572.562 0 1.547-.211v2.636a9.4 9.4 0 0 1-2.497.352q-2.179 0-3.287-1.318-1.107-1.319-1.107-3.745V198.44h-3.463v-2.513h3.463v-4.606h3.252zm15.24 23.977q-3.867 0-6.293-2.54t-2.426-6.794v-.598q0-2.83 1.081-5.053 1.082-2.224 3.024-3.48 1.942-1.258 4.21-1.258 3.708 0 5.765 2.444 2.057 2.442 2.057 6.996v1.353h-12.885q.07 2.813 1.644 4.544t3.999 1.732q1.722 0 2.918-.704a7.3 7.3 0 0 0 2.092-1.863l1.986 1.547q-2.39 3.674-7.172 3.674m-.404-17.05q-1.969 0-3.305 1.432-1.335 1.433-1.652 4.016h9.527v-.246q-.14-2.478-1.336-3.84-1.196-1.363-3.234-1.363zm202.908 5.783q0 3.761-1.266 6.565-1.265 2.804-3.586 4.28t-5.414 1.477q-3.023 0-5.361-1.486t-3.63-4.236q-1.292-2.751-1.327-6.372v-1.846q0-3.691 1.283-6.521 1.284-2.83 3.63-4.333 2.348-1.503 5.37-1.503 3.077 0 5.423 1.485t3.612 4.307q1.266 2.82 1.266 6.565zm-3.357-1.653q0-4.553-1.829-6.987-1.827-2.435-5.115-2.435-3.199 0-5.036 2.435t-1.89 6.758v1.881q0 4.413 1.855 6.935 1.854 2.523 5.106 2.522 3.27 0 5.063-2.382 1.792-2.381 1.846-6.829zm22.183 6.943h-10.722l-2.409 6.68h-3.48l9.773-25.594h2.953L990.316 216h-3.462zm-9.703-2.777h8.701l-4.36-11.97zm30.094 7.576q-1.899 2.233-5.572 2.233-3.042 0-4.632-1.767t-1.609-5.23V196.98h3.252v12.288q0 4.324 3.516 4.324 3.727 0 4.957-2.778V196.98h3.252V216h-3.094l-.07-1.88zm12.515-21.744v4.605h3.551v2.514h-3.55v11.795q0 1.143.474 1.714.474.57 1.617.571.562 0 1.547-.21V216a9.4 9.4 0 0 1-2.496.352q-2.18 0-3.287-1.319c-1.107-1.319-1.108-2.127-1.108-3.744v-11.795h-3.462v-2.514h3.462v-4.605zm10.6 6.908q2.161-2.655 5.625-2.654 6.03 0 6.082 6.803V216h-3.252v-12.586q-.018-2.057-.94-3.041-.924-.984-2.874-.984-1.582 0-2.778.843a5.73 5.73 0 0 0-1.863 2.215V216h-3.252v-27h3.252zM1069.84 216h-16.77v-2.338l8.86-9.844q1.968-2.232 2.716-3.63.747-1.397.747-2.891 0-2.004-1.213-3.287t-3.235-1.283q-2.426 0-3.77 1.38-1.345 1.38-1.345 3.84h-3.252q0-3.533 2.276-5.713 2.277-2.18 6.091-2.18 3.57 0 5.643 1.873c2.073 1.873 2.074 2.909 2.074 4.983q0 3.78-4.816 9l-6.856 7.436h12.85zm27.334-6.68h-10.723l-2.408 6.68h-3.48l9.773-25.594h2.953L1103.08 216h-3.463zm-9.703-2.777h8.7l-4.359-11.97zm22.43-.563V216h-3.376v-25.594h9.44q4.2 0 6.583 2.145t2.382 5.678q0 3.726-2.33 5.739t-6.67 2.012zm0-2.76h6.064q2.707 0 4.148-1.274 1.442-1.275 1.442-3.682 0-2.286-1.442-3.657-1.44-1.37-3.955-1.423h-6.258v10.037zm22.956 12.78h-3.375v-25.594h3.375z"/>
    <path fill="#5F6368" fill-rule="nonzero" d="M295 85h-42v12l-29-14.5L253 68v12h42zm217 0v-5h50V68l29 14.5L562 97V85z"/>
    <path fill="#3C4043" d="M326.255 92h-2.361V76.347l-4.736 1.739v-2.133l6.729-2.526h.368zm7.173-1.231q0-.61.362-1.016.361-.405 1.085-.406c.724-.001.848.135 1.098.406q.375.406.375 1.016 0 .584-.375.977c-.375.393-.616.394-1.098.394q-.723 0-1.085-.394-.363-.393-.362-.977m20.376-6.247h-4.342V92h-2.45V73.516h6.119q3.123 0 4.805 1.421t1.682 4.14q0 1.725-.933 3.008t-2.596 1.917l4.342 7.846V92h-2.616zm-4.342-1.993h3.745q1.815 0 2.888-.94 1.073-.938 1.073-2.513 0-1.713-1.022-2.628-1.022-.914-2.952-.927h-3.732zm18.903 9.725q-2.793 0-4.545-1.835t-1.752-4.906v-.432q0-2.045.781-3.65.78-1.605 2.184-2.514a5.5 5.5 0 0 1 3.04-.907q2.679 0 4.164 1.764 1.486 1.765 1.486 5.053v.978h-9.306q.051 2.031 1.187 3.281t2.888 1.25q1.244 0 2.108-.507a5.3 5.3 0 0 0 1.51-1.346l1.435 1.118q-1.727 2.652-5.18 2.653m-.292-12.315q-1.422 0-2.386 1.035t-1.194 2.901h6.881v-.178q-.102-1.79-.965-2.774t-2.336-.984m11.553-5.001v3.326h2.564v1.815h-2.564v8.519q0 .825.343 1.237.342.413 1.168.413.405 0 1.117-.152V92a6.8 6.8 0 0 1-1.803.254q-1.574 0-2.374-.952t-.8-2.704v-8.519h-2.5v-1.815h2.5v-3.326zm11.946 5.433a7 7 0 0 0-1.155-.089q-2.31 0-3.136 1.968V92h-2.348V78.264h2.285l.038 1.587q1.155-1.841 3.275-1.841.685 0 1.041.177zM396.282 92h-2.348V78.264h2.348zm-2.539-17.38q0-.57.35-.965.348-.393 1.034-.393.685 0 1.041.393.355.394.355.965c0 .571-.118.698-.355.952s-.584.381-1.041.381q-.685 0-1.035-.38-.348-.382-.349-.953m11.997 17.634q-2.793 0-4.545-1.835t-1.752-4.906v-.432q0-2.045.781-3.65.78-1.605 2.184-2.514a5.5 5.5 0 0 1 3.04-.907q2.679 0 4.164 1.764 1.486 1.765 1.486 5.053v.978h-9.306q.051 2.031 1.187 3.281t2.888 1.25q1.244 0 2.108-.507a5.3 5.3 0 0 0 1.51-1.346l1.435 1.118q-1.727 2.652-5.18 2.653m-.292-12.315q-1.422 0-2.386 1.035t-1.194 2.901h6.881v-.178q-.102-1.79-.965-2.774t-2.336-.984m12.734 8.874 3.402-10.55h2.4L419.057 92h-1.79l-4.977-13.736h2.4l3.49 10.55zm13.596 3.44q-2.793.001-4.545-1.834t-1.752-4.906v-.432q0-2.045.781-3.65.78-1.605 2.184-2.514a5.5 5.5 0 0 1 3.04-.907q2.679 0 4.164 1.764 1.486 1.765 1.486 5.053v.978h-9.306q.051 2.031 1.187 3.281t2.888 1.25q1.244 0 2.108-.507a5.3 5.3 0 0 0 1.51-1.346l1.435 1.118q-1.727 2.653-5.18 2.653zm-.292-12.314q-1.422 0-2.386 1.035t-1.194 2.901h6.881v-.178q-.102-1.79-.965-2.774t-2.336-.984m22.915-6.423h2.45v13.088q0 2.654-1.593 4.152t-4.246 1.498q-2.755 0-4.291-1.41-1.536-1.408-1.536-3.948h2.437q0 1.588.87 2.476.87.89 2.52.889 1.51 0 2.444-.952.933-.953.945-2.666zm10.588 12.657.356 2.437.52-2.196 3.656-12.898h2.057l3.568 12.898.507 2.234.394-2.488 2.869-12.644h2.45L476.885 92h-2.222l-3.809-13.47-.291-1.409-.292 1.41L466.322 92h-2.221l-4.47-18.484h2.438zm32.03-10.652h-5.94V92h-2.426V75.521h-5.928v-2.005h14.295v2.005zm433.932 377.642h1.765q1.663-.026 2.615-.876t.952-2.298q0-3.25-3.237-3.25-1.524 0-2.431.87-.908.87-.908 2.304h-2.349q0-2.196 1.606-3.65t4.082-1.453q2.615 0 4.1 1.383 1.486 1.384 1.486 3.847 0 1.206-.78 2.336-.781 1.13-2.127 1.688 1.523.483 2.355 1.6.831 1.118.831 2.73 0 2.487-1.625 3.948t-4.227 1.46-4.234-1.41-1.632-3.72h2.362q0 1.461.952 2.337t2.552.876q1.7 0 2.602-.889.902-.888.902-2.552 0-1.612-.99-2.475-.99-.864-2.857-.889h-1.765zm11.477 9.153q0-.609.362-1.015.361-.406 1.085-.406c.724 0 .848.135 1.098.406q.375.406.375 1.015 0 .585-.375.978c-.375.393-.616.394-1.098.394q-.723 0-1.085-.394-.362-.393-.362-.978m19.716-2.005 5.28-15.248h2.667l-6.856 18.485h-2.158l-6.843-18.485h2.654zm15.196 3.49q-2.793.001-4.545-1.834t-1.752-4.906v-.432q0-2.045.78-3.65.782-1.606 2.184-2.514a5.5 5.5 0 0 1 3.04-.907q2.68 0 4.165 1.764t1.485 5.053v.978h-9.305q.05 2.031 1.187 3.281 1.136 1.25 2.888 1.25 1.245 0 2.107-.507a5.3 5.3 0 0 0 1.511-1.346l1.435 1.117q-1.728 2.654-5.18 2.654zm-.292-12.314q-1.422 0-2.387 1.035c-.965 1.035-1.04 1.657-1.193 2.9h6.88v-.177q-.101-1.79-.964-2.774t-2.336-.984m15.006.432a7 7 0 0 0-1.156-.089q-2.31 0-3.135 1.968v9.75h-2.349v-13.736h2.285l.038 1.586q1.155-1.84 3.276-1.84.686 0 1.04.177zm4.71 11.629h-2.349v-13.736h2.349zm-2.54-17.38q0-.571.35-.965.348-.393 1.034-.393.685 0 1.041.393t.356.965q0 .57-.356.952c-.356.382-.584.381-1.04.381q-.687 0-1.035-.38-.35-.382-.35-.953m7.453 17.38v-11.921h-2.171v-1.815h2.17v-1.41q0-2.208 1.181-3.415t3.34-1.206q.811 0 1.612.216l-.127 1.904a7 7 0 0 0-1.27-.114q-1.143 0-1.765.667-.621.665-.622 1.91v1.448h2.933v1.815h-2.933v11.92zm12.365-3.44 3.2-10.296h2.513l-5.523 15.856q-1.282 3.428-4.075 3.428l-.444-.038-.876-.165v-1.905l.635.051q1.192 0 1.86-.482.666-.483 1.098-1.765l.52-1.396-4.9-13.584h2.564zm17.05-3.796v7.236h-2.438v-18.485h6.818q3.033 0 4.754 1.55 1.72 1.548 1.72 4.1 0 2.691-1.682 4.145t-4.818 1.454zm0-1.994h4.38q1.955 0 2.996-.92t1.04-2.66q0-1.65-1.04-2.64t-2.857-1.029h-4.52v7.25zm22.077 7.871q-1.371 1.613-4.024 1.613-2.197 0-3.346-1.276t-1.161-3.777v-8.937h2.348v8.874q0 3.123 2.54 3.123 2.69 0 3.58-2.006v-9.991h2.348v13.736h-2.234zm17.481-5.357q0 3.148-1.447 5.06-1.447 1.91-3.885 1.91-2.602 0-4.024-1.841l-.114 1.587h-2.159v-19.5h2.35v7.274q1.421-1.764 3.922-1.764 2.5 0 3.93 1.891 1.427 1.892 1.427 5.18zm-2.348-.267q0-2.4-.927-3.707t-2.666-1.307q-2.323 0-3.339 2.158v5.941q1.079 2.16 3.364 2.159 1.689 0 2.628-1.308t.94-3.936m7.858 6.983h-2.348v-19.5h2.348zm6.31 0h-2.349v-13.736h2.349zm-2.54-17.38q0-.571.35-.965.349-.393 1.034-.393.686 0 1.041.393.356.393.356.965 0 .57-.356.952c-.356.382-.584.381-1.04.381q-.686 0-1.035-.38-.35-.382-.35-.953m11.807 15.717q1.257 0 2.197-.762t1.04-1.904h2.222q-.063 1.18-.812 2.247t-2 1.701a5.8 5.8 0 0 1-2.647.635q-2.805 0-4.462-1.873t-1.657-5.122v-.394q0-2.005.736-3.567.737-1.562 2.114-2.425 1.378-.864 3.257-.863 2.31 0 3.84 1.383c1.53 1.383 1.564 2.12 1.631 3.593h-2.221q-.102-1.332-1.01-2.19t-2.24-.857q-1.79 0-2.774 1.289t-.984 3.726v.444q0 2.375.977 3.657.978 1.281 2.793 1.282m28.501-4.202q-.343 2.932-2.164 4.525-1.823 1.594-4.844 1.594-3.275 0-5.249-2.349-1.974-2.348-1.974-6.284v-1.777q0-2.579.92-4.533t2.61-3.002q1.687-1.047 3.91-1.047 2.945 0 4.722 1.644t2.07 4.55h-2.45q-.32-2.208-1.378-3.198-1.06-.99-2.965-.99-2.336 0-3.662 1.726-1.327 1.727-1.327 4.913v1.79q0 3.009 1.257 4.786 1.257 1.778 3.516 1.778 2.033 0 3.117-.92 1.086-.921 1.441-3.206zm8.658 6.119q-2.792 0-4.544-1.835t-1.752-4.906v-.432q0-2.045.78-3.65.78-1.606 2.184-2.514a5.5 5.5 0 0 1 3.04-.907q2.679 0 4.165 1.764 1.485 1.765 1.485 5.053v.978h-9.306q.051 2.031 1.187 3.281t2.888 1.25q1.245 0 2.108-.507a5.3 5.3 0 0 0 1.51-1.346l1.435 1.117q-1.725 2.654-5.18 2.654m-.292-12.315q-1.421 0-2.386 1.035c-.965 1.035-1.041 1.657-1.194 2.9h6.881v-.177q-.1-1.79-.965-2.774-.863-.984-2.336-.984m15.006.432a7 7 0 0 0-1.155-.089q-2.31 0-3.136 1.968v9.75h-2.348v-13.736h2.285l.038 1.586q1.155-1.84 3.275-1.84.686 0 1.041.177zm5.98-5.434v3.327h2.564v1.815h-2.564v8.519q0 .825.343 1.237.342.413 1.168.413.405 0 1.117-.152v1.904a6.8 6.8 0 0 1-1.803.254q-1.574 0-2.374-.952-.8-.953-.8-2.704v-8.519h-2.5v-1.815h2.5v-3.327z"/>
  </g>
</svg>
