<svg xmlns="http://www.w3.org/2000/svg" xmlns:xlink="http://www.w3.org/1999/xlink" viewBox="0 0 516 314">
  <defs>
    <path id="reuse-0" d="M181.44 160.88v8l55.42 32v-8z"/>
    <path id="reuse-1" d="m181.44 216.86-27.7-16v-8l27.7 16Z"/>
    <path id="reuse-2" d="M264.57 208.88v8l55.43 32v-8z"/>
    <path id="reuse-3" d="m264.58 264.86-27.7-16v-8l27.7 16Z"/>
    <path id="reuse-4" d="M98.3 112.88v8l55.42 32v-8z"/>
    <path id="reuse-5" d="m98.3 168.86-27.7-16v-8l27.7 16Z"/>
    <path id="reuse-6" d="M264.57 112.88v8l55.43 32v-8z"/>
    <path id="reuse-7" d="m264.57 168.86-27.7-16v-8l27.7 16Z"/>
    <path id="reuse-8" d="M347.71 160.88v8l55.43 32v-8z"/>
    <path id="reuse-9" d="m347.71 216.86-27.69-16v-8l27.69 16Z"/>
    <path id="reuse-10" d="M181.44 64.88v8l55.42 32v-8z"/>
    <path id="reuse-11" d="m181.44 120.86-27.7-16v-8l27.7 16Z"/>
    <path id="reuse-12" d="M347.71 64.88v8l55.43 32v-8z"/>
    <path id="reuse-13" d="m347.71 120.87-27.69-16v-8l27.69 16Z"/>
    <path id="reuse-14" d="M430.85 112.88v8l55.43 32v-8z"/>
    <path id="reuse-15" d="m430.85 168.87-27.69-16v-8l27.69 16Z"/>
    <path id="reuse-16" d="M264.57 16.88v8l55.43 32v-8z"/>
    <path id="reuse-17" d="m264.57 72.87-27.7-16v-8l27.7 16z"/>
    <path id="reuse-18" d="M126.01 200.88v-8l55.43-32v8z"/>
    <path id="reuse-19" d="m209.15 192.88-27.69 16v8l27.69-16Z"/>
    <path id="reuse-20" d="M209.15 248.88v-8l55.42-32v8z"/>
    <path id="reuse-21" d="m292.29 240.88-27.7 16v8l27.7-16z"/>
    <path id="reuse-22" d="M42.87 152.88v-8l55.43-32v8z"/>
    <path id="reuse-23" d="m126 144.88-27.69 16v8l27.69-16Z"/>
    <path id="reuse-24" d="M209.15 152.88v-8l55.42-32v8z"/>
    <path id="reuse-25" d="m292.29 144.89-27.7 16v8l27.7-16z"/>
    <path id="reuse-26" d="M292.29 200.88v-8l55.42-32v8z"/>
    <path id="reuse-27" d="m375.43 192.88-27.7 16v8l27.7-16z"/>
    <path id="reuse-28" d="M126.01 104.88v-8l55.43-32v8z"/>
    <path id="reuse-29" d="m209.15 96.89-27.7 16v8l27.7-16Z"/>
    <path id="reuse-30" d="M292.29 104.88v-8l55.42-32v8z"/>
    <path id="reuse-31" d="m375.43 96.89-27.7 16v8l27.7-16Z"/>
    <path id="reuse-32" d="M375.43 152.88v-8l55.42-32v8z"/>
    <path id="reuse-33" d="m458.56 144.89-27.7 16v8l27.7-16Z"/>
    <path id="reuse-34" d="M209.15 56.88v-8l55.42-32v8z"/>
    <path id="reuse-35" d="m292.29 48.89-27.7 16v8l27.7-16Z"/>
    <path id="reuse-36" d="m181.45 208.87-27.7-16 27.7-16 27.69 16Z"/>
    <path id="reuse-37" d="m264.58 256.87-27.7-16 27.7-16 27.7 16Z"/>
    <path id="reuse-38" d="m98.31 160.87-27.7-16 27.7-16 27.69 16Z"/>
    <path id="reuse-39" d="m264.58 160.87-27.7-16 27.7-16 27.7 16Z"/>
    <path id="reuse-40" d="m347.72 208.87-27.69-16 27.69-16 27.7 16Z"/>
    <path id="reuse-41" d="m181.44 112.87-27.7-16 27.7-16 27.7 16Z"/>
    <path id="reuse-42" d="M347.72 112.87 320 96.88l27.69-16 27.7 16Z"/>
    <path id="reuse-43" d="m430.86 160.87-27.69-16 27.69-16 27.69 16Z"/>
    <path id="reuse-44" d="m264.58 64.87-27.7-16 27.7-16 27.7 16Z"/>
    <path id="reuse-45" d="M264.57 296.37 16.15 152.94 264.57 9.51 513 152.94z"/>
    <path id="reuse-46" d="M16.15 152.94v-8L264.57 1.51v8z"/>
    <style>
      .cls-14,.cls-15,.cls-17,.cls-2,.cls-6{fill:none}.cls-17,.cls-2{stroke:#252937}.cls-14,.cls-2,.cls-6{stroke-linejoin:round}.cls-6{stroke:#cfd1d9}.cls-15,.cls-17{stroke-miterlimit:10}.cls-17{stroke-linecap:round}.cls-7,.cls-9{opacity:.05}.cls-12,.cls-8,.cls-9{fill:#252937}.cls-14,.cls-15{stroke:#b5b8c4}.cls-17{stroke-dasharray:1 3}.cls-11,.cls-12{opacity:.1}.cls-13{fill:#ddd}.cls-16{fill:#fff}
    </style>
  </defs>
  <g id="Artwork">
    <path fill="#e80134" d="m264.57 296.37 55.43-32 27.49 15.88-55.42 32z"/>
    <path d="m264.57 296.37 55.43-32 27.49 15.88-55.42 32z" class="cls-2"/>
    <path fill="none" stroke="#cfd1d9" stroke-miterlimit="10" d="m209.15 184.87-55.43 32m58.89-30-55.42 32m58.89-30-55.43 32m58.89-30-55.42 32m58.89-30-55.43 32m58.89-30-55.43 32m58.89-30-55.42 32m58.89-30-55.43 32m27.72-48-55.43 32m51.96-34-55.42 32m51.96-34-55.43 32m51.96-34-55.42 32m51.96-34-55.43 32m51.96-34-55.42 32m51.96-34-55.42 32m79.67 14-55.43-32m51.97 34-55.43-32m51.96 34-55.42-32m51.96 34-55.43-32m51.96 34-55.42-32m51.96 34-55.43-32m51.96 34-55.42-32m51.96 34-55.42-32m83.13 16-55.42-32m58.89 30-55.43-32m58.89 30-55.42-32m58.89 30-55.43-32m58.89 30-55.43-32m58.89 30-55.42-32m58.89 30-55.43-32m114.32 62-55.43 32m58.89-30-55.42 32m58.89-30-55.43 32m58.89-30-55.43 32m58.89-30-55.42 32m58.89-30-55.43 32m58.89-30-55.42 32m58.89-30-55.43 32m27.71-48-55.42 32m51.96-34-55.43 32m51.97-34-55.43 32m51.96-34-55.42 32m51.96-34-55.43 32m51.96-34-55.42 32m51.96-34-55.43 32m79.68 14-55.43-32m51.96 34-55.42-32m51.96 34-55.43-32m51.97 34-55.43-32m51.96 34-55.42-32m51.96 34-55.43-32m51.96 34-55.42-32m51.96 34-55.43-32m83.14 16-55.42-32m58.89 30-55.43-32m58.89 30-55.43-32m58.89 30-55.42-32m58.89 30-55.43-32m58.89 30-55.42-32m58.89 30-55.43-32m-135.1-82-55.42 32m58.88-30-55.42 32m58.89-30-55.43 32m58.89-30-55.42 32m58.89-30-55.43 32m58.89-30-55.42 32m58.89-30-55.43 32m58.89-30-55.43 32m27.72-48-55.43 32m51.96-34-55.42 32m51.96-34-55.43 32m51.96-34-55.42 32m51.96-34-55.42 32m51.96-34-55.43 32m51.96-34-55.42 32m79.67 14-55.42-32m51.96 34-55.43-32m51.96 34-55.42-32m51.96 34-55.43-32m51.96 34-55.42-32m51.96 34-55.43-32m51.97 34-55.43-32m51.96 34-55.42-32m83.14 16-55.43-32m58.89 30-55.43-32m58.89 30-55.42-32m58.89 30-55.43-32m58.89 30-55.42-32m58.89 30-55.43-32m58.89 30-55.43-32m197.46 14.01-55.43 31.99m58.89-29.99-55.42 31.99m58.89-29.99-55.43 31.99m58.89-29.99-55.43 31.99m58.89-29.99-55.42 31.99m58.89-29.99-55.43 31.99m58.89-29.99-55.42 31.99m58.89-29.99-55.43 31.99m27.71-47.99-55.42 31.99m51.96-33.99-55.43 31.99m51.96-33.99-55.42 31.99m51.96-33.99-55.42 31.99m51.96-33.99-55.43 31.99m51.96-33.99-55.42 31.99m51.96-33.99-55.43 31.99m79.68 14-55.43-31.99m51.96 33.99-55.42-32m51.96 34-55.43-32m51.97 34-55.43-32m51.96 34-55.42-32m51.96 34-55.43-32m51.96 34-55.42-32m51.96 34-55.43-32m83.14 16.01-55.42-32m58.89 30-55.43-32m58.89 30-55.43-32m58.89 30-55.42-32m58.89 30-55.43-32m58.89 30-55.42-32m58.89 30-55.43-32m114.32 62L320 216.87m58.89-29.99-55.43 31.99m58.89-29.99-55.42 31.99m58.89-29.99-55.43 31.99m58.89-29.99-55.42 31.99m58.89-29.99-55.43 31.99m58.89-29.99-55.43 31.99m58.89-29.99-55.42 31.99m27.71-47.99-55.42 31.99m51.96-33.99-55.43 31.99m51.96-33.99-55.42 31.99m51.96-33.99-55.43 31.99m51.97-33.99-55.43 31.99m51.96-33.99-55.42 31.99m51.96-33.99-55.43 31.99m79.68 14-55.43-32m51.96 34-55.42-32m51.96 34-55.43-32m51.96 34-55.42-32m51.96 34-55.43-32m51.97 34-55.43-32m51.96 34-55.42-32m51.96 34-55.43-32m83.14 16.01-55.43-32m58.89 30-55.42-32m58.89 30-55.43-32m58.89 30-55.42-32m58.89 30-55.43-32m58.89 30-55.43-32m58.89 30-55.42-32m-135.1-82-55.43 31.99m58.89-29.99-55.42 31.99m58.89-29.99-55.43 31.99m58.89-29.99-55.42 31.99m58.89-29.99-55.43 31.99m58.89-29.99-55.43 31.99m58.89-29.99-55.42 31.99m58.89-29.99-55.43 31.99m27.71-47.99-55.42 31.99m51.96-33.99-55.42 31.99m51.96-33.99-55.43 31.99m51.96-33.99-55.42 31.99m51.96-33.99-55.43 31.99m51.96-33.99-55.42 31.99m51.96-33.99-55.43 31.99m79.68 14.01-55.43-32m51.96 33.99-55.42-32m51.96 34-55.42-32m51.96 34-55.43-32m51.96 34-55.42-32m51.96 34-55.43-32m51.96 34-55.42-32m51.96 34-55.43-32m83.14 16.01-55.42-32m58.89 30-55.43-32m58.89 30-55.42-32m58.89 30-55.43-32m58.89 30-55.43-32m58.89 30-55.42-32m58.89 30-55.43-32m197.46 14-55.43 32m58.89-30-55.43 32m58.89-30-55.42 32m58.89-30-55.43 32m58.89-30-55.42 32m58.89-30-55.43 32m58.89-30-55.43 32m58.89-30-55.42 32m27.71-48-55.42 32m51.96-34-55.43 32m51.96-34-55.42 32m51.96-34-55.43 32m51.96-34-55.42 32m51.96-34-55.42 32m51.96-34-55.43 32m79.68 14-55.43-32m51.96 34-55.42-32m51.96 34-55.43-32m51.96 34-55.42-32m51.96 34-55.43-32m51.96 34-55.42-32m51.96 34-55.42-32m51.96 34-55.43-32m83.14 16-55.43-32m58.89 30-55.42-32m58.89 30-55.43-32m58.89 30-55.42-32m58.89 30-55.43-32m58.89 30-55.43-32m58.89 30-55.42-32m114.31 62-55.42 32m58.89-30-55.43 32m58.89-30-55.42 32m58.89-30-55.43 32m58.89-30-55.43 32m58.89-30-55.42 32m58.89-30-55.43 32m58.89-30-55.42 32m27.71-48-55.43 32m51.97-34-55.43 32m51.96-34-55.42 32m51.96-34-55.43 32m51.96-34-55.42 32m51.96-34-55.43 32m51.96-34-55.42 32m79.67 14-55.42-32m51.96 34-55.43-32m51.97 34-55.43-32m51.96 34-55.42-32m51.96 34-55.43-32m51.96 34-55.42-32m51.96 34-55.43-32m51.97 34-55.43-32m83.14 16-55.43-32m58.89 30-55.42-32m58.89 30-55.43-32m58.89 30-55.43-32m58.89 30-55.42-32m58.89 30-55.43-32m58.89 30-55.42-32m-135.1-82-55.43 32m58.89-30-55.42 32m58.88-30-55.42 32m58.89-30-55.43 32m58.89-30-55.42 32m58.89-30-55.43 32m58.89-30-55.42 32m58.89-30-55.43 32m27.71-48-55.42 32m51.96-34-55.43 32m51.96-34-55.42 32m51.96-34-55.43 32m51.97-34-55.43 32m51.96-34-55.42 32m51.96-34-55.43 32m79.68 14-55.43-32m51.96 34-55.42-32m51.96 34-55.43-32m51.96 34-55.42-32m51.96 34-55.43-32m51.97 34-55.43-32m51.96 34-55.42-32m51.96 34-55.43-32m83.14 16-55.42-32m58.89 30-55.43-32m58.89 30-55.43-32m58.89 30-55.42-32m58.89 30-55.43-32m58.89 30-55.42-32m58.89 30-55.43-32" opacity=".3"/>
    <path fill="none" stroke="#252937" stroke-linecap="round" stroke-miterlimit="10" d="m216.08 84.88 20.78-12m-103.92 59.99 20.78-12m145.5 12 20.78-12m-103.92 60 20.78-12m145.49 12 20.79-12m-103.92 60 20.78-12m-110.85 0 20.78 12m-103.92-60 20.78 12m145.5-12 20.78 12m-103.92-60 20.78 12m145.49-12 20.79 12M292.29 72.88l20.78 12"/>
    <path d="m181.44 232.88-55.43-32 55.43-32 55.42 32zm83.13 48-55.42-32 55.42-32 55.43 32zm-166.27-96-55.43-32 55.43-32 55.42 32zm166.27 0-55.42-32 55.42-32 55.43 32zm83.14 48-55.42-32 55.42-32 55.43 32zm-166.27-96-55.43-32 55.43-32 55.42 32zm166.27 0-55.42-32 55.42-32 55.43 32zm83.14 48-55.42-32 55.42-32 55.43 32zm-166.28-96-55.42-32 55.42-32 55.43 32z" class="cls-6"/>
    <g class="cls-7">
      <path d="m167.59 232.87-55.41-32H126l55.41 32z" class="cls-8"/>
    </g>
    <path d="M112.16 200.88h13.85v-8z" class="cls-9"/>
    <g class="cls-7">
      <path d="m250.73 280.87-55.41-32h13.86l55.41 32z" class="cls-8"/>
    </g>
    <path d="M195.29 248.88h13.86v-8z" class="cls-9"/>
    <g class="cls-7">
      <path d="m84.45 184.87-55.4-32h13.83l55.41 32z" class="cls-8"/>
    </g>
    <path d="M29.02 152.88h13.85v-8z" class="cls-9"/>
    <g class="cls-7">
      <path d="m250.73 184.87-55.41-32h13.86l55.41 32z" class="cls-8"/>
    </g>
    <path d="M195.29 152.88h13.86v-8z" class="cls-9"/>
    <g class="cls-7">
      <path d="m333.87 232.87-55.41-32h13.84l55.4 32z" class="cls-8"/>
    </g>
    <path d="M278.43 200.88h13.86v-8z" class="cls-9"/>
    <g class="cls-7">
      <path d="m167.59 136.87-55.41-32H126l55.41 32z" class="cls-8"/>
    </g>
    <path d="M112.15 104.88h13.86v-8z" class="cls-9"/>
    <g class="cls-7">
      <path d="m333.87 136.88-55.41-32h13.84l55.4 32Z" class="cls-8"/>
    </g>
    <path d="M278.43 104.88h13.86v-8z" class="cls-9"/>
    <g class="cls-7">
      <path d="m417 184.88-55.41-32h13.85l55.41 32Z" class="cls-8"/>
    </g>
    <path d="M361.57 152.88h13.86v-8z" class="cls-9"/>
    <g class="cls-7">
      <path d="m250.73 88.88-55.41-32h13.86l55.41 32z" class="cls-8"/>
    </g>
    <path d="M195.29 56.88h13.86v-8z" class="cls-9"/>
    <path fill="none" stroke="#b5b8c4" stroke-dasharray="1 3" stroke-linecap="round" stroke-miterlimit="10" d="m126.01 192.88 55.43 32 55.42-32m-55.42 39.99v-8m27.71 16.01 55.42 32 55.43-32m-55.42 39.99v-8M42.87 144.88l55.43 32 55.42-32M98.3 184.87v-8m110.85-31.99 55.42 32 55.43-32m-55.43 39.99v-8m27.72 16.01 55.42 32 55.43-32m-55.43 39.99v-8M126.01 96.88l55.43 32 55.42-32m-55.42 39.99v-8m110.85-31.99 55.42 32 55.43-32m-55.43 40v-8m27.72 16 55.42 32 55.43-32m-55.43 40v-8m-221.7-128 55.42 32 55.43-32m-55.43 40v-8"/>
    <g class="cls-11">
      <path d="m333.87 216.87-27.7-16H320l27.69 16z" class="cls-8"/>
    </g>
    <g class="cls-11">
      <path d="m333.87 184.87-27.7 16H320l27.69-16Z" class="cls-8"/>
    </g>
    <g class="cls-11">
      <path d="m167.59 216.87-27.69-16h13.85l27.7 16z" class="cls-8"/>
    </g>
    <g class="cls-11">
      <path d="m167.59 184.87-27.69 16h13.85l27.7-16z" class="cls-8"/>
    </g>
    <path d="m181.44 160.88-6.93 12 6.93-4z" class="cls-12"/>
    <g class="cls-11">
      <path d="m223 200.87-48.48-28 6.91-4 55.4 32z" class="cls-8"/>
    </g>
    <g class="cls-11">
      <path d="m250.73 264.87-27.7-16h13.86l27.7 16z" class="cls-8"/>
    </g>
    <g class="cls-11">
      <path d="m250.73 232.87-27.7 16h13.86l27.7-16z" class="cls-8"/>
    </g>
    <path d="m264.57 208.88-6.92 12 6.92-4z" class="cls-12"/>
    <g class="cls-11">
      <path d="m306.15 248.87-48.48-28 6.91-4 55.41 32z" class="cls-8"/>
    </g>
    <g class="cls-11">
      <path d="m84.45 168.87-27.69-16h13.83l27.7 16z" class="cls-8"/>
    </g>
    <g class="cls-11">
      <path d="m84.45 136.87-27.69 16h13.83l27.7-16z" class="cls-8"/>
    </g>
    <path d="m98.3 112.88-6.93 12 6.93-4z" class="cls-12"/>
    <g class="cls-11">
      <path d="m139.88 152.87-48.48-28 6.91-4 55.4 32z" class="cls-8"/>
    </g>
    <g class="cls-11">
      <path d="m250.73 168.87-27.7-16h13.86l27.7 16z" class="cls-8"/>
    </g>
    <g class="cls-11">
      <path d="m250.73 136.87-27.7 16h13.86l27.7-16z" class="cls-8"/>
    </g>
    <path d="m264.57 112.88-6.92 12 6.92-4z" class="cls-12"/>
    <g class="cls-11">
      <path d="m306.15 152.88-48.49-28 6.92-4 55.41 32Z" class="cls-8"/>
    </g>
    <path d="m347.71 160.88-6.92 12 6.92-4z" class="cls-12"/>
    <g class="cls-11">
      <path d="m389.29 200.88-48.48-28 6.91-4 55.41 32z" class="cls-8"/>
    </g>
    <g class="cls-11">
      <path d="m167.59 120.87-27.69-16h13.85l27.7 16z" class="cls-8"/>
    </g>
    <g class="cls-11">
      <path d="m167.59 88.87-27.69 16h13.85l27.7-16z" class="cls-8"/>
    </g>
    <path d="m181.44 64.88-6.93 12 6.93-4z" class="cls-12"/>
    <g class="cls-11">
      <path d="m223 104.88-48.48-28 6.91-4 55.41 32Z" class="cls-8"/>
    </g>
    <g class="cls-11">
      <path d="m333.87 120.88-27.7-16H320l27.69 16Z" class="cls-8"/>
    </g>
    <g class="cls-11">
      <path d="m333.87 88.88-27.7 16H320l27.69-16z" class="cls-8"/>
    </g>
    <path d="m347.71 64.88-6.93 12 6.93-4z" class="cls-12"/>
    <g class="cls-11">
      <path d="m389.29 104.88-48.48-28 6.91-4 55.41 32z" class="cls-8"/>
    </g>
    <g class="cls-11">
      <path d="m417 168.88-27.7-16h13.86l27.69 16Z" class="cls-8"/>
    </g>
    <g class="cls-11">
      <path d="m417 136.88-27.7 16h13.86l27.69-16z" class="cls-8"/>
    </g>
    <path d="m430.85 112.88-6.93 12 6.93-4z" class="cls-12"/>
    <g class="cls-11">
      <path d="m472.43 152.88-48.48-28 6.91-4 55.41 32z" class="cls-8"/>
    </g>
    <g class="cls-11">
      <path d="m250.73 72.88-27.7-16h13.86l27.7 16z" class="cls-8"/>
    </g>
    <g class="cls-11">
      <path d="m250.73 40.88-27.7 16h13.85l27.7-16z" class="cls-8"/>
    </g>
    <path d="m264.57 16.88-6.92 12 6.92-4z" class="cls-12"/>
    <g class="cls-11">
      <path d="m306.15 56.88-48.48-28 6.92-4 55.41 32Z" class="cls-8"/>
    </g>
    <use xlink:href="#reuse-0" class="cls-13"/>
    <use xlink:href="#reuse-0" class="cls-14"/>
    <use xlink:href="#reuse-1" class="cls-13"/>
    <use xlink:href="#reuse-1" class="cls-15"/>
    <use xlink:href="#reuse-2" class="cls-13"/>
    <use xlink:href="#reuse-2" class="cls-14"/>
    <use xlink:href="#reuse-3" class="cls-13"/>
    <use xlink:href="#reuse-3" class="cls-15"/>
    <use xlink:href="#reuse-4" class="cls-13"/>
    <use xlink:href="#reuse-4" class="cls-14"/>
    <use xlink:href="#reuse-5" class="cls-13"/>
    <use xlink:href="#reuse-5" class="cls-15"/>
    <use xlink:href="#reuse-6" class="cls-13"/>
    <use xlink:href="#reuse-6" class="cls-14"/>
    <use xlink:href="#reuse-7" class="cls-13"/>
    <use xlink:href="#reuse-7" class="cls-15"/>
    <use xlink:href="#reuse-8" class="cls-13"/>
    <use xlink:href="#reuse-8" class="cls-14"/>
    <use xlink:href="#reuse-9" class="cls-13"/>
    <use xlink:href="#reuse-9" class="cls-15"/>
    <use xlink:href="#reuse-10" class="cls-13"/>
    <use xlink:href="#reuse-10" class="cls-14"/>
    <use xlink:href="#reuse-11" class="cls-13"/>
    <use xlink:href="#reuse-11" class="cls-15"/>
    <use xlink:href="#reuse-12" class="cls-13"/>
    <use xlink:href="#reuse-12" class="cls-14"/>
    <use xlink:href="#reuse-13" class="cls-13"/>
    <use xlink:href="#reuse-13" class="cls-15"/>
    <use xlink:href="#reuse-14" class="cls-13"/>
    <use xlink:href="#reuse-14" class="cls-14"/>
    <use xlink:href="#reuse-15" class="cls-13"/>
    <use xlink:href="#reuse-15" class="cls-15"/>
    <use xlink:href="#reuse-16" class="cls-13"/>
    <use xlink:href="#reuse-16" class="cls-14"/>
    <use xlink:href="#reuse-17" class="cls-13"/>
    <use xlink:href="#reuse-17" class="cls-15"/>
    <use xlink:href="#reuse-18" class="cls-16"/>
    <use xlink:href="#reuse-18" class="cls-6"/>
    <use xlink:href="#reuse-19" class="cls-16"/>
    <use xlink:href="#reuse-19" class="cls-14"/>
    <use xlink:href="#reuse-20" class="cls-16"/>
    <use xlink:href="#reuse-20" class="cls-6"/>
    <use xlink:href="#reuse-21" class="cls-16"/>
    <use xlink:href="#reuse-21" class="cls-14"/>
    <use xlink:href="#reuse-22" class="cls-16"/>
    <use xlink:href="#reuse-22" class="cls-6"/>
    <use xlink:href="#reuse-23" class="cls-16"/>
    <use xlink:href="#reuse-23" class="cls-14"/>
    <use xlink:href="#reuse-24" class="cls-16"/>
    <use xlink:href="#reuse-24" class="cls-6"/>
    <use xlink:href="#reuse-25" class="cls-16"/>
    <use xlink:href="#reuse-25" class="cls-14"/>
    <use xlink:href="#reuse-26" class="cls-16"/>
    <use xlink:href="#reuse-26" class="cls-6"/>
    <use xlink:href="#reuse-27" class="cls-16"/>
    <use xlink:href="#reuse-27" class="cls-14"/>
    <use xlink:href="#reuse-28" class="cls-16"/>
    <use xlink:href="#reuse-28" class="cls-6"/>
    <use xlink:href="#reuse-29" class="cls-16"/>
    <use xlink:href="#reuse-29" class="cls-14"/>
    <use xlink:href="#reuse-30" class="cls-16"/>
    <use xlink:href="#reuse-30" class="cls-6"/>
    <use xlink:href="#reuse-31" class="cls-16"/>
    <use xlink:href="#reuse-31" class="cls-14"/>
    <use xlink:href="#reuse-32" class="cls-16"/>
    <use xlink:href="#reuse-32" class="cls-6"/>
    <use xlink:href="#reuse-33" class="cls-16"/>
    <use xlink:href="#reuse-33" class="cls-14"/>
    <use xlink:href="#reuse-34" class="cls-16"/>
    <use xlink:href="#reuse-34" class="cls-6"/>
    <use xlink:href="#reuse-35" class="cls-16"/>
    <use xlink:href="#reuse-35" class="cls-14"/>
    <use xlink:href="#reuse-36" class="cls-16"/>
    <use xlink:href="#reuse-36" class="cls-2"/>
    <use xlink:href="#reuse-37" class="cls-16"/>
    <use xlink:href="#reuse-37" class="cls-2"/>
    <use xlink:href="#reuse-38" class="cls-16"/>
    <use xlink:href="#reuse-38" class="cls-2"/>
    <use xlink:href="#reuse-39" class="cls-16"/>
    <use xlink:href="#reuse-39" class="cls-2"/>
    <use xlink:href="#reuse-40" class="cls-16"/>
    <use xlink:href="#reuse-40" class="cls-2"/>
    <use xlink:href="#reuse-41" class="cls-16"/>
    <use xlink:href="#reuse-41" class="cls-2"/>
    <use xlink:href="#reuse-42" class="cls-16"/>
    <use xlink:href="#reuse-42" class="cls-2"/>
    <use xlink:href="#reuse-43" class="cls-16"/>
    <use xlink:href="#reuse-43" class="cls-2"/>
    <use xlink:href="#reuse-44" class="cls-16"/>
    <use xlink:href="#reuse-44" class="cls-2"/>
    <use xlink:href="#reuse-45" class="cls-6"/>
    <g class="cls-7">
      <path d="M250.73 296.37 2.3 152.94h13.86l248.41 143.42h-13.84Z" class="cls-8"/>
    </g>
    <path d="M2.29 152.94h13.86v-8z" class="cls-9"/>
    <path d="M264.57 296.37v-8" class="cls-17"/>
    <path d="m264.57 1.51-6.93 12 6.93-4z" class="cls-12"/>
    <g class="cls-11">
      <path d="M499.15 152.94 257.65 13.51l6.91-4L513 152.94z" class="cls-8"/>
    </g>
    <path fill="#252937" d="M264.57 1.51v8L513 152.94v-8z" opacity=".25"/>
    <path d="M264.57 1.51v8L513 152.94v-8z" class="cls-2"/>
    <use xlink:href="#reuse-46" class="cls-12"/>
    <use xlink:href="#reuse-46" class="cls-2"/>
    <path d="m16.15 144.94 248.42 143.43L513 144.94" class="cls-17"/>
    <use xlink:href="#reuse-45" class="cls-2"/>
    <path d="m292 289.24 12 7a5.24 5.24 0 0 0 4.74 0l12.13-7c1.31-.76 1.32-2 0-2.74l-12.06-7a5.24 5.24 0 0 0-4.74 0l-12.13 7c-1.27.76-1.28 1.99.06 2.74m1.3-2 8-4.63 3.88 2.24-9.1 5.25-2.8-1.62a.66.66 0 0 1-.01-1.23Zm13.15 2.84-3.87-2.24 9.09-5.25 3.88 2.24Zm-1.3.75-3.89 2.25-3.88-2.24 3.9-2.25Zm2.43-10.6 2.8 1.62-3.89 2.25-3.88-2.24 2.82-1.62a2.36 2.36 0 0 1 2.12 0Zm12.05 8.2-2.82 1.63-3.87-2.24 3.9-2.25 2.8 1.62a.65.65 0 0 1-.04 1.25Zm-14.28 7-2.8-1.62 9.09-5.25 3.87 2.24-8 4.63a2.39 2.39 0 0 1-2.19.02Z" class="cls-16"/>
  </g>
</svg>
